<?xml version="1.0" encoding="iso-8859-1"?>
<!-- Generator: Adobe Illustrator 16.0.0, SVG Export Plug-In . SVG Version: 6.00 Build 0)  -->
<!DOCTYPE svg PUBLIC "-//W3C//DTD SVG 1.1//EN" "http://www.w3.org/Graphics/SVG/1.1/DTD/svg11.dtd">
<svg version="1.1" id="Calque_1" xmlns="http://www.w3.org/2000/svg" xmlns:xlink="http://www.w3.org/1999/xlink" x="0px" y="0px"
	 width="116.25px" height="71px" viewBox="0 0 116.25 71" style="enable-background:new 0 0 116.25 71;" xml:space="preserve">
<path style="fill-rule:evenodd;clip-rule:evenodd;fill:#1D1D1D;" d="M52.538,14.946c2.205,0.15,3.494,0.396,5.046,1.226
	c0.166,0.091,0.42,0.022,0.634,0.014c1.021-0.04,2.042-0.08,3.064-0.124c0.292-0.013,0.632,0.056,0.873-0.066
	c2.618-1.333,5.419-1.675,8.297-1.567c1.459,0.054,2.917,0.171,4.366,0.346c1.042,0.125,1.417,1.312,0.803,2.188
	c-0.259,0.372-0.406,0.844-0.532,1.292c-0.39,1.401-0.668,2.84-1.141,4.213c-0.467,1.358-1.481,2.247-2.889,2.65
	c-2.675,0.767-5.187,0.479-7.474-1.178c-1.237-0.896-1.756-2.231-2.11-3.646c-0.078-0.317-0.124-0.643-0.177-0.965
	c-0.159-0.972-0.544-1.345-1.402-1.35c-0.902-0.005-1.343,0.464-1.592,1.387c-0.348,1.277-0.639,2.618-1.266,3.761
	c-1.139,2.073-3.228,2.725-5.427,2.9c-2.11,0.17-4.06-0.296-5.542-1.989c-1.1-1.255-1.412-2.799-1.705-4.368
	c-0.119-0.648-0.387-1.267-0.597-1.898c-0.336-1.016-0.376-1.917,0.978-2.273C47.345,14.817,50.333,14.795,52.538,14.946z
	 M47.972,16.678c-0.953,0.178-1.534,0.931-1.796,1.867c-0.56,1.985,0.627,4.685,2.459,5.628c2.193,1.13,5.519,0.396,6.98-1.597
	c1.007-1.37,1.104-2.915,0.464-4.453c-0.569-1.368-1.838-1.737-3.169-1.807C51.259,16.232,49.468,16.396,47.972,16.678z
	 M73.371,19.478c0-0.065,0.019-0.267,0.016-0.468c-0.031-1.945-1.007-3.083-2.947-3.242c-1.123-0.092-2.262,0.012-3.393,0.05
	c-0.351,0.012-0.7,0.085-1.046,0.154c-2.737,0.559-3.898,3.284-2.412,5.694c1.136,1.843,2.912,2.495,4.955,2.475
	C71.282,24.115,73.12,22.338,73.371,19.478z"/>
<path style="fill-rule:evenodd;clip-rule:evenodd;fill:#1D1D1D;" d="M35.781,8.6c0.007-3.36,2.357-6.438,5.495-7.193
	c3.477-0.836,7.002,0.706,8.518,3.725C50.46,6.461,50.179,7.2,48.78,7.7c-0.97,0.347-1.955,0.649-2.933,0.977
	c-2.146,0.719-3.758,2.185-5.276,3.782c-0.257,0.272-0.539,0.528-0.831,0.765c-1.088,0.882-1.864,0.776-2.643-0.366
	C36.226,11.576,35.788,10.153,35.781,8.6z"/>
<path style="fill-rule:evenodd;clip-rule:evenodd;fill:#1D1D1D;" d="M74.296,1.171c3.011,0.096,5.281,1.402,6.628,4.047
	c1.329,2.607,1.093,5.208-0.509,7.658c-0.728,1.117-1.571,1.249-2.583,0.375c-0.874-0.755-1.672-1.595-2.515-2.386
	c-1.174-1.104-2.552-1.853-4.09-2.331c-0.838-0.261-1.674-0.538-2.501-0.839c-1.364-0.499-1.68-1.225-0.997-2.514
	C69.125,2.543,71.376,1.267,74.296,1.171z"/>
<path style="fill-rule:evenodd;clip-rule:evenodd;fill:#1D1D1D;" d="M58.535,47.337c-0.902,0.97-1.137,1.999-0.659,3.183
	c0.056,0.139-0.105,0.489-0.259,0.574c-1.592,0.891-3.256,1.574-5.115,1.646c-0.561,0.023-0.888-0.184-1.018-0.763
	c-0.458-2.032-0.396-4.057,0.127-6.054c0.37-1.411,1.01-1.766,2.418-1.384C55.787,45.019,57.263,45.971,58.535,47.337z"/>
<path style="fill-rule:evenodd;clip-rule:evenodd;fill:#1D1D1D;" d="M61.574,51.132c0.839-1.083,0.966-2.096,0.304-3.186
	c-0.081-0.135,0-0.518,0.126-0.606c1.49-1.025,3.097-1.777,4.94-1.842c1.016-0.035,1.551,0.347,1.692,1.325
	c0.317,2.202,0.145,4.364-0.723,6.441c-0.185,0.444-0.478,0.724-0.984,0.627C64.899,53.505,63.206,52.474,61.574,51.132z"/>
<path style="fill-rule:evenodd;clip-rule:evenodd;fill:#1D1D1D;" d="M62.794,26.905c1.407,0.237,1.9,1.482,1.077,2.659
	c-0.251,0.357-0.606,0.697-0.991,0.893c-1.752,0.89-3.584,0.904-5.42,0.29c-0.932-0.309-1.476-0.993-1.642-1.983
	c-0.173-1.026,0.088-1.567,1.122-1.768C57.969,26.798,61.908,26.758,62.794,26.905z"/>
<path style="fill-rule:evenodd;clip-rule:evenodd;fill:#1D1D1D;" d="M61.855,36.032c2.05,0.188,1.401,1.379-0.089,1.544
	c-1.197,0.081-2.407,0.086-3.602-0.007c-2.704-0.32-1.158-1.502-0.036-1.588C59.25,35.895,61.246,35.838,61.855,36.032z"/>
<circle style="fill:#FFC107;" cx="60.018" cy="49.216" r="2.405"/>
<g>
	<path style="fill:#1776D2;" d="M24.242,41.451v1.224c0,0.36-0.174,0.577-0.522,0.651c-0.016,0.003-0.092,0.017-0.229,0.042
		c-0.137,0.025-0.333,0.06-0.59,0.105l-4.049,13.041h-2.532l-3.292-10.292c-0.043-0.135-0.086-0.278-0.13-0.428
		c-0.045-0.15-0.088-0.314-0.13-0.489c-0.041,0.172-0.085,0.335-0.13,0.489c-0.048,0.162-0.091,0.305-0.13,0.428L9.184,56.515H6.652
		L2.603,43.476c-0.26-0.047-0.459-0.082-0.598-0.107c-0.139-0.025-0.215-0.04-0.228-0.042c-0.348-0.074-0.521-0.291-0.521-0.651
		v-1.224h0.719h0.859h1.495h2.554v1.224c0,0.36-0.174,0.577-0.522,0.651c-0.021,0.005-0.055,0.014-0.104,0.025
		c-0.047,0.013-0.125,0.031-0.231,0.058c-0.107,0.027-0.226,0.056-0.358,0.087l2.162,7.601c0.062,0.223,0.12,0.463,0.172,0.723
		c0.051,0.258,0.101,0.535,0.15,0.829c0.056-0.292,0.116-0.567,0.183-0.829c0.066-0.26,0.137-0.502,0.213-0.723l2.958-9.011
		c0.056-0.161,0.165-0.306,0.328-0.438c0.163-0.131,0.363-0.197,0.599-0.197h0.822c0.244,0,0.445,0.057,0.605,0.172
		c0.16,0.114,0.271,0.269,0.333,0.463l2.938,9.011c0.152,0.444,0.285,0.938,0.396,1.479c0.047-0.265,0.098-0.525,0.151-0.782
		c0.052-0.249,0.105-0.482,0.162-0.697l2.156-7.582c-0.21-0.05-0.497-0.113-0.86-0.189c-0.348-0.074-0.522-0.291-0.521-0.651v-1.224
		h2.715h1.333h0.865H24.242z"/>
	<path style="fill:#1776D2;" d="M31.86,45.981c0.566,0.216,1.054,0.53,1.464,0.944c0.409,0.413,0.729,0.919,0.958,1.521
		c0.229,0.601,0.344,1.286,0.344,2.058c0,0.194-0.008,0.356-0.026,0.484c-0.018,0.129-0.049,0.229-0.094,0.302
		c-0.045,0.073-0.106,0.125-0.183,0.157c-0.076,0.031-0.173,0.047-0.291,0.047h-6.605c0.076,1.097,0.371,1.903,0.886,2.417
		c0.514,0.515,1.194,0.771,2.042,0.771c0.417,0,0.776-0.049,1.078-0.146c0.303-0.097,0.566-0.204,0.792-0.322
		c0.226-0.118,0.423-0.226,0.594-0.323c0.17-0.098,0.335-0.146,0.495-0.146c0.104,0,0.194,0.021,0.271,0.062
		c0.076,0.042,0.143,0.101,0.198,0.177l0.75,0.937c-0.284,0.334-0.604,0.614-0.958,0.839c-0.354,0.225-0.725,0.406-1.109,0.542
		c-0.386,0.135-0.778,0.23-1.178,0.287c-0.399,0.055-0.787,0.083-1.162,0.083c-0.743,0-1.434-0.124-2.073-0.37
		c-0.639-0.246-1.195-0.611-1.667-1.094c-0.473-0.483-0.844-1.08-1.115-1.792c-0.27-0.711-0.406-1.537-0.406-2.474
		c0-0.729,0.119-1.415,0.354-2.057c0.236-0.644,0.575-1.202,1.016-1.678c0.441-0.476,0.98-0.853,1.615-1.13
		c0.635-0.277,1.352-0.417,2.15-0.417C30.674,45.66,31.294,45.767,31.86,45.981z M28.292,48.138
		c-0.423,0.424-0.694,1.025-0.812,1.802h4.834c0-0.333-0.045-0.647-0.135-0.943c-0.091-0.295-0.229-0.554-0.417-0.776
		c-0.188-0.222-0.424-0.398-0.708-0.526c-0.285-0.128-0.618-0.192-1-0.192C29.302,47.503,28.716,47.714,28.292,48.138z"/>
	<path style="fill:#1776D2;" d="M41.081,55.29v1.224h-1.579H36.93h-1.578V55.29c0-0.36,0.174-0.578,0.521-0.651
		c0.03-0.006,0.074-0.014,0.13-0.024c0.057-0.01,0.16-0.029,0.311-0.056c0.15-0.027,0.355-0.063,0.616-0.109v-11.35
		c-0.26-0.046-0.466-0.083-0.616-0.11c-0.151-0.026-0.254-0.045-0.311-0.056c-0.057-0.01-0.1-0.019-0.13-0.024
		c-0.348-0.074-0.521-0.292-0.521-0.651v-1.225h1.578h2.573v13.415c0.26,0.046,0.466,0.082,0.616,0.109
		c0.15,0.026,0.254,0.045,0.311,0.056c0.057,0.011,0.1,0.018,0.13,0.024C40.907,54.712,41.081,54.929,41.081,55.29z"/>
	<path style="fill:#1776D2;" d="M47.559,55.29v1.224H45.98h-2.573h-1.578V55.29c0-0.36,0.174-0.578,0.521-0.651
		c0.03-0.006,0.074-0.014,0.13-0.024c0.057-0.01,0.161-0.029,0.311-0.056c0.15-0.027,0.355-0.063,0.615-0.109v-11.35
		c-0.26-0.046-0.465-0.083-0.615-0.11c-0.15-0.026-0.254-0.045-0.311-0.056c-0.056-0.01-0.1-0.019-0.13-0.024
		c-0.348-0.074-0.521-0.292-0.521-0.651v-1.225h1.578h2.573v13.415c0.26,0.046,0.465,0.082,0.616,0.109
		c0.15,0.026,0.254,0.045,0.311,0.056c0.057,0.011,0.1,0.018,0.131,0.024C47.385,54.712,47.559,54.929,47.559,55.29z"/>
	<path style="fill:#1776D2;" d="M83.025,45.822c-0.033-0.188-0.093-0.74-0.181-1.653c-1.137-0.332-2.097-0.5-2.878-0.5
		c-0.708,0-1.359,0.124-1.954,0.37c-0.593,0.247-1.104,0.6-1.531,1.057c-0.427,0.459-0.76,1.016-1,1.672
		c-0.239,0.656-0.359,1.395-0.359,2.214c0,0.847,0.12,1.601,0.359,2.26c0.24,0.66,0.565,1.216,0.975,1.667
		c0.409,0.452,0.892,0.796,1.447,1.036c0.556,0.24,1.153,0.36,1.792,0.36c0.382,0,0.728-0.021,1.036-0.062
		c0.31-0.042,0.595-0.108,0.854-0.199c0.261-0.089,0.507-0.206,0.741-0.349c0.232-0.142,0.463-0.318,0.692-0.526
		c0.069-0.062,0.142-0.113,0.218-0.151c0.077-0.038,0.16-0.057,0.25-0.057c0.153,0,0.285,0.059,0.396,0.177l1.104,1.199
		c-0.611,0.756-1.363,1.336-2.255,1.739s-1.964,0.604-3.214,0.604c-1.118,0-2.124-0.191-3.016-0.574
		c-0.893-0.381-1.655-0.914-2.287-1.594c-0.632-0.68-1.116-1.493-1.453-2.437c-0.336-0.944-0.505-1.975-0.505-3.094
		c0-1.132,0.188-2.168,0.562-3.109c0.375-0.941,0.903-1.752,1.583-2.433c0.681-0.681,1.495-1.21,2.443-1.588
		c0.948-0.378,1.995-0.568,3.141-0.568c1.253,0,2.828,0.362,4.725,1.084v3.843h-1.199C83.243,46.211,83.081,46.082,83.025,45.822z"
		/>
	<path style="fill:#1776D2;" d="M93.02,46.044c0.649,0.257,1.204,0.622,1.662,1.094c0.458,0.473,0.813,1.049,1.063,1.729
		c0.25,0.68,0.375,1.441,0.375,2.282c0,0.847-0.125,1.611-0.375,2.292c-0.25,0.68-0.604,1.261-1.063,1.74
		c-0.458,0.479-1.012,0.847-1.662,1.104c-0.649,0.257-1.373,0.386-2.171,0.386s-1.525-0.128-2.178-0.386
		c-0.652-0.257-1.209-0.625-1.671-1.104c-0.462-0.479-0.82-1.06-1.073-1.74c-0.254-0.681-0.38-1.445-0.38-2.292
		c0-0.841,0.126-1.602,0.38-2.282c0.253-0.681,0.611-1.257,1.073-1.729c0.462-0.472,1.02-0.836,1.671-1.094
		c0.653-0.257,1.38-0.386,2.178-0.386S92.37,45.788,93.02,46.044z M92.822,53.795c0.428-0.598,0.641-1.473,0.641-2.625
		c0-1.154-0.213-2.032-0.641-2.636c-0.427-0.605-1.085-0.907-1.974-0.907c-0.903,0-1.57,0.304-2.001,0.912
		c-0.431,0.608-0.646,1.484-0.646,2.631c0,1.146,0.215,2.019,0.646,2.62c0.431,0.601,1.098,0.901,2.001,0.901
		C91.736,54.691,92.395,54.393,92.822,53.795z"/>
	<path style="fill:#1776D2;" d="M115.022,55.29v1.225h-1.579h-2.573v-6.803c0-0.681-0.149-1.193-0.448-1.537
		c-0.299-0.343-0.736-0.516-1.312-0.516c-0.264,0-0.509,0.045-0.735,0.135c-0.225,0.091-0.423,0.221-0.593,0.391
		c-0.17,0.17-0.305,0.384-0.401,0.641c-0.097,0.256-0.146,0.552-0.146,0.885v4.738c0.261,0.045,0.465,0.082,0.615,0.109
		c0.15,0.026,0.253,0.044,0.311,0.055c0.057,0.011,0.1,0.019,0.13,0.024c0.348,0.074,0.522,0.292,0.522,0.651v1.225h-1.578h-2.583
		v-6.803c0-0.715-0.144-1.236-0.432-1.562c-0.29-0.327-0.714-0.49-1.276-0.49c-0.368,0-0.713,0.092-1.037,0.276
		c-0.324,0.184-0.623,0.436-0.901,0.754v5.759c0.259,0.045,0.464,0.082,0.613,0.109c0.15,0.026,0.254,0.044,0.311,0.055
		c0.056,0.011,0.1,0.019,0.13,0.024c0.348,0.074,0.521,0.292,0.521,0.651v1.225h-1.576h-2.573h-1.579V55.29
		c0-0.36,0.173-0.577,0.521-0.651c0.031-0.005,0.074-0.014,0.131-0.024c0.057-0.01,0.161-0.029,0.31-0.055
		c0.15-0.028,0.356-0.064,0.616-0.11v-6.558c-0.26-0.045-0.466-0.082-0.616-0.108c-0.149-0.028-0.253-0.046-0.31-0.056
		c-0.057-0.011-0.1-0.019-0.131-0.024c-0.348-0.074-0.521-0.291-0.521-0.652v-1.224h1.579l1.573,0c0.333,0,0.552,0.157,0.656,0.469
		l0.167,0.792c0.188-0.209,0.384-0.4,0.588-0.573c0.206-0.174,0.424-0.323,0.656-0.448c0.233-0.125,0.483-0.224,0.75-0.297
		c0.267-0.072,0.561-0.108,0.88-0.108c0.674,0,1.228,0.182,1.663,0.546c0.434,0.364,0.758,0.849,0.974,1.453
		c0.166-0.354,0.375-0.658,0.625-0.912c0.25-0.252,0.524-0.46,0.823-0.62c0.298-0.16,0.615-0.278,0.953-0.354
		c0.337-0.076,0.676-0.114,1.016-0.114c0.59,0,1.114,0.089,1.573,0.27c0.458,0.181,0.843,0.445,1.156,0.792
		c0.313,0.348,0.551,0.771,0.714,1.271c0.163,0.5,0.245,1.074,0.244,1.719v4.738c0.261,0.045,0.466,0.082,0.616,0.109
		c0.15,0.026,0.254,0.045,0.311,0.055c0.057,0.011,0.1,0.019,0.13,0.024C114.849,54.712,115.022,54.93,115.022,55.29z"/>
</g>
<g>
	<path style="fill:#1D1D1B;" d="M9.883,62.088v0.231H8.983v-0.28c0-0.766-0.292-1.214-0.972-1.214s-0.973,0.449-0.973,1.202
		c0,1.908,2.856,2.091,2.856,4.485c0,1.288-0.62,2.126-1.92,2.126S6.067,67.8,6.067,66.512v-0.486h0.887v0.534
		c0,0.766,0.316,1.215,0.996,1.215c0.681,0,0.997-0.45,0.997-1.215c0-1.896-2.844-2.078-2.844-4.472
		c0-1.312,0.608-2.126,1.884-2.126C9.275,59.962,9.883,60.8,9.883,62.088z"/>
	<path style="fill:#1D1D1B;" d="M21.218,62.101c0-1.3,0.644-2.138,1.944-2.138c1.312,0,1.957,0.838,1.957,2.138V66.5
		c0,1.288-0.645,2.138-1.957,2.138c-1.301,0-1.944-0.851-1.944-2.138V62.101z M22.153,66.548c0,0.778,0.328,1.228,1.009,1.228
		c0.692,0,1.009-0.45,1.009-1.228v-4.497c0-0.764-0.316-1.226-1.009-1.226c-0.681,0-1.009,0.462-1.009,1.226V66.548z"/>
	<path style="fill:#1D1D1B;" d="M36.587,68.553v-8.506h0.948v7.644h2.431v0.863H36.587z"/>
	<path style="fill:#1D1D1B;" d="M52.151,66.548c0,0.766,0.303,1.228,0.996,1.228c0.681,0,0.985-0.462,0.985-1.228v-6.501h0.887V66.5
		c0,1.288-0.595,2.15-1.908,2.15c-1.3,0-1.896-0.863-1.896-2.15v-6.453h0.936V66.548z"/>
	<path style="fill:#1D1D1B;" d="M67.763,68.553V60.91h-1.567v-0.863h4.083v0.863h-1.568v7.643H67.763z"/>
	<path style="fill:#1D1D1B;" d="M82.452,60.047v8.506h-0.948v-8.506H82.452z"/>
	<path style="fill:#1D1D1B;" d="M93.921,62.101c0-1.3,0.644-2.138,1.945-2.138c1.312,0,1.956,0.838,1.956,2.138V66.5
		c0,1.288-0.644,2.138-1.956,2.138c-1.301,0-1.945-0.851-1.945-2.138V62.101z M94.856,66.548c0,0.778,0.328,1.228,1.009,1.228
		c0.692,0,1.008-0.45,1.008-1.228v-4.497c0-0.764-0.316-1.226-1.008-1.226c-0.681,0-1.009,0.462-1.009,1.226V66.548z"/>
	<path style="fill:#1D1D1B;" d="M110.128,68.553h-0.85v-8.506h1.203l1.968,6.149v-6.149h0.838v8.506h-0.984l-2.175-6.877V68.553z"/>
</g>
</svg>
