<?xml version="1.0" encoding="utf-8"?>
<!-- Generator: Adobe Illustrator 16.0.0, SVG Export Plug-In . SVG Version: 6.00 Build 0)  -->
<!DOCTYPE svg PUBLIC "-//W3C//DTD SVG 1.1//EN" "http://www.w3.org/Graphics/SVG/1.1/DTD/svg11.dtd">
<svg version="1.1" id="Calque_1" xmlns="http://www.w3.org/2000/svg" xmlns:xlink="http://www.w3.org/1999/xlink" x="0px" y="0px"
	 width="637px" height="463px" viewBox="0 0 637 463" enable-background="new 0 0 637 463" xml:space="preserve">
<g>
	<g>
		<g>
			<g>
				<polygon fill="#E6E5E5" points="295.32,451.739 168.022,451.739 179.575,386.835 283.733,386.835 				"/>
				<polygon fill="#CCCBCA" points="295.32,451.739 283.733,386.835 179.575,386.835 262.878,451.739 				"/>
				<path fill="#E5E5E5" d="M329.374,461.269H133.939v-3.575c0-1.512,0.557-3.04,1.733-4.221c1.175-1.149,2.72-1.732,4.205-1.732
					h183.542c1.502,0,3.069,0.583,4.24,1.732c1.123,1.181,1.716,2.709,1.716,4.221L329.374,461.269L329.374,461.269z"/>
			</g>
			<path fill="#EDEDED" d="M460.875,344.877v30.821c0,6.133-5.044,11.137-11.208,11.137H13.663c-6.103,0-11.165-5.004-11.165-11.137
				v-30.821H460.875z"/>
			<path fill="#242D3C" d="M460.875,344.877V52.218c0-6.111-5.032-11.165-11.213-11.165H13.646c-6.12,0-11.126,5.054-11.126,11.165
				v292.659H460.875L460.875,344.877z"/>
			<rect x="25.62" y="64.208" fill="#1776D2" width="412.062" height="257.494"/>
			<rect x="263" y="170" fill="#FFFFFF" width="98" height="17"/>
			<rect x="263" y="194" fill="#FFFFFF" width="98" height="17"/>
			<rect x="277" y="218" fill="#FFC107" width="72" height="17"/>
			<rect x="264.883" y="176.167" fill="none" width="92.178" height="5.812"/>
			<text transform="matrix(1 0 0 1 264.8833 180.5469)" fill="#B2B2B2" font-family="'Raleway-Thin'" font-size="6">Identifiant</text>
			<rect x="264.288" y="200.436" fill="none" width="92.178" height="5.812"/>
			<text transform="matrix(1 0 0 1 264.2881 204.8154)" fill="#B2B2B2" font-family="'Raleway-Thin'" font-size="6">Mot de passe</text>
			<rect x="285.664" y="224.032" fill="none" width="59.529" height="7.925"/>
			<text transform="matrix(1 0 0 1 285.6636 230.6025)" fill="#FFFFFF" font-family="'Raleway-Light'" font-size="9">Se connecter</text>
			<g>
				<path fill="#FFFFFF" d="M113.293,149.104c7.225,0.493,11.448,1.298,16.536,4.017c0.545,0.299,1.377,0.071,2.078,0.045
					c3.348-0.13,6.691-0.263,10.042-0.407c0.96-0.042,2.071,0.183,2.86-0.217c8.577-4.365,17.757-5.49,27.189-5.134
					c4.783,0.179,9.558,0.562,14.307,1.135c3.417,0.409,4.644,4.299,2.632,7.169c-0.848,1.22-1.331,2.767-1.744,4.235
					c-1.276,4.592-2.188,9.307-3.736,13.809c-1.532,4.448-4.854,7.361-9.47,8.683c-8.764,2.511-16.995,1.569-24.49-3.86
					c-4.054-2.938-5.753-7.311-6.915-11.946c-0.254-1.04-0.405-2.108-0.578-3.167c-0.522-3.183-1.784-4.405-4.597-4.422
					c-2.957-0.017-4.402,1.522-5.217,4.544c-1.139,4.187-2.093,8.581-4.149,12.324c-3.732,6.791-10.576,8.93-17.785,9.503
					c-6.916,0.558-13.302-0.971-18.163-6.519c-3.604-4.114-4.626-9.171-5.588-14.315c-0.388-2.122-1.266-4.151-1.955-6.219
					c-1.1-3.329-1.233-6.28,3.205-7.45C96.275,148.68,106.068,148.609,113.293,149.104z M98.33,154.779
					c-3.121,0.582-5.027,3.05-5.887,6.118c-1.833,6.506,2.055,15.35,8.059,18.443c7.187,3.705,18.085,1.299,22.872-5.232
					c3.3-4.49,3.618-9.554,1.522-14.591c-1.866-4.482-6.022-5.693-10.387-5.92C109.103,153.316,103.234,153.856,98.33,154.779z
					 M181.56,163.955c0-0.216,0.062-0.875,0.051-1.534c-0.099-6.376-3.297-10.103-9.654-10.625c-3.681-0.299-7.415,0.04-11.12,0.167
					c-1.149,0.04-2.293,0.277-3.426,0.505c-8.969,1.83-12.775,10.76-7.903,18.66c3.722,6.039,9.542,8.173,16.239,8.107
					C174.713,179.148,180.738,173.326,181.56,163.955z"/>
				<path fill="#FFFFFF" d="M58.383,128.308c0.023-11.01,7.727-21.096,18.008-23.57c11.392-2.739,22.945,2.312,27.911,12.205
					c2.182,4.355,1.261,6.779-3.322,8.415c-3.177,1.137-6.405,2.127-9.609,3.2c-7.032,2.357-12.314,7.159-17.291,12.394
					c-0.844,0.891-1.766,1.729-2.721,2.507c-3.567,2.889-6.11,2.544-8.661-1.2C59.839,138.06,58.406,133.399,58.383,128.308z"/>
				<path fill="#FFFFFF" d="M184.594,103.965c9.865,0.313,17.306,4.596,21.717,13.261c4.354,8.545,3.583,17.068-1.668,25.095
					c-2.386,3.661-5.147,4.093-8.464,1.229c-2.864-2.474-5.481-5.228-8.242-7.821c-3.848-3.617-8.364-6.072-13.402-7.637
					c-2.749-0.856-5.486-1.763-8.199-2.75c-4.471-1.634-5.504-4.014-3.266-8.238C167.646,108.462,175.024,104.277,184.594,103.965z"
					/>
				<path fill="#FFFFFF" d="M132.945,255.244c-2.956,3.18-3.727,6.551-2.162,10.432c0.185,0.455-0.343,1.604-0.848,1.881
					c-5.217,2.922-10.67,5.16-16.763,5.394c-1.839,0.075-2.91-0.603-3.333-2.498c-1.499-6.66-1.299-13.293,0.417-19.841
					c1.211-4.622,3.311-5.786,7.926-4.532C123.941,247.646,128.779,250.77,132.945,255.244z"/>
				<path fill="#FFFFFF" d="M142.903,267.68c2.75-3.549,3.166-6.865,1-10.438c-0.266-0.439-0.005-1.699,0.411-1.988
					c4.882-3.357,10.148-5.824,16.19-6.035c3.327-0.117,5.083,1.135,5.545,4.342c1.038,7.217,0.472,14.299-2.372,21.105
					c-0.606,1.453-1.566,2.373-3.222,2.057C153.8,275.457,148.251,272.078,142.903,267.68z"/>
				<path fill="#FFFFFF" d="M146.902,188.293c4.609,0.777,6.226,4.856,3.527,8.71c-0.822,1.172-1.983,2.286-3.244,2.926
					c-5.743,2.915-11.748,2.964-17.763,0.948c-3.055-1.012-4.837-3.253-5.381-6.496c-0.567-3.361,0.29-5.137,3.677-5.794
					C131.089,187.94,143.998,187.811,146.902,188.293z"/>
				<path fill="#FFFFFF" d="M143.825,218.199c6.718,0.618,4.589,4.52-0.294,5.061c-3.921,0.266-7.887,0.282-11.803-0.023
					c-8.858-1.05-3.792-4.923-0.117-5.203C135.288,217.752,141.826,217.565,143.825,218.199z"/>
				<circle fill="#FFFFFF" cx="137.804" cy="261.404" r="7.881"/>
			</g>
		</g>
		<g>
			<g>
				<path fill="#EDEDED" d="M564.725,443.36c0,9.704-7.934,17.64-17.638,17.64H389.938c-9.688,0-17.643-7.936-17.643-17.64V199.602
					c0-9.705,7.953-17.64,17.643-17.64h157.149c9.704,0,17.638,7.935,17.638,17.64V443.36z"/>
				<path fill="#CCCBCA" d="M468.49,206.582c-3.875,0-6.947-3.09-6.947-6.989c0-3.806,3.072-6.971,6.947-6.971
					c3.849,0,7.009,3.165,7.009,6.971C475.499,203.491,472.339,206.582,468.49,206.582z"/>
				<path fill="#FFFFFF" d="M468.509,202.043c-1.351,0-2.43-1.082-2.43-2.443c0-1.337,1.079-2.438,2.43-2.438
					c1.354,0,2.45,1.101,2.45,2.438C470.959,200.962,469.861,202.043,468.509,202.043z"/>
				<rect x="388.346" y="217.242" fill="#1776D2" width="160.374" height="208.478"/>
				<path fill="#CCCBCA" d="M490.979,443.36c0-3.081-2.533-5.617-5.61-5.617h-33.691c-3.082,0-5.616,2.536-5.616,5.617l0,0
					c0,3.08,2.534,5.613,5.616,5.613h33.691C488.444,448.975,490.979,446.44,490.979,443.36L490.979,443.36z"/>
				<g>
					<path fill="#FFFFFF" d="M466.32,247.872c1.568,0.106,2.485,0.28,3.591,0.871c0.118,0.065,0.299,0.017,0.451,0.01
						c0.728-0.026,1.453-0.058,2.181-0.088c0.208-0.009,0.45,0.04,0.621-0.047c1.862-0.948,3.855-1.192,5.904-1.115
						c1.038,0.039,2.075,0.122,3.105,0.247c0.742,0.089,1.009,0.934,0.571,1.557c-0.185,0.266-0.289,0.602-0.378,0.92
						c-0.277,0.998-0.477,2.021-0.812,2.998c-0.332,0.967-1.054,1.601-2.057,1.887c-1.903,0.545-3.69,0.34-5.318-0.84
						c-0.88-0.638-1.249-1.586-1.501-2.594c-0.056-0.226-0.089-0.457-0.126-0.688c-0.112-0.691-0.388-0.956-0.998-0.961
						c-0.642-0.004-0.956,0.33-1.133,0.986c-0.248,0.91-0.454,1.863-0.899,2.678c-0.812,1.475-2.299,1.938-3.862,2.062
						c-1.502,0.121-2.891-0.212-3.944-1.416c-0.783-0.895-1.005-1.99-1.214-3.107c-0.084-0.461-0.273-0.901-0.424-1.352
						c-0.239-0.723-0.27-1.363,0.695-1.617C462.625,247.779,464.752,247.764,466.32,247.872z M463.071,249.104
						c-0.679,0.125-1.093,0.662-1.278,1.328c-0.398,1.412,0.446,3.334,1.749,4.006c1.562,0.804,3.928,0.281,4.968-1.138
						c0.717-0.975,0.786-2.073,0.33-3.168c-0.405-0.974-1.308-1.235-2.256-1.286C465.41,248.786,464.137,248.902,463.071,249.104z
						 M481.145,251.098c0-0.048,0.015-0.19,0.013-0.334c-0.022-1.386-0.717-2.193-2.098-2.308c-0.799-0.063-1.608,0.009-2.413,0.036
						c-0.25,0.009-0.499,0.06-0.745,0.109c-1.947,0.396-2.774,2.336-1.717,4.051c0.809,1.312,2.072,1.775,3.526,1.763
						C479.658,254.396,480.966,253.131,481.145,251.098z"/>
					<path fill="#FFFFFF" d="M454.396,243.355c0.005-2.392,1.678-4.582,3.91-5.119c2.474-0.594,4.982,0.503,6.062,2.65
						c0.474,0.946,0.272,1.473-0.722,1.827c-0.689,0.247-1.392,0.462-2.088,0.694c-1.525,0.512-2.674,1.555-3.755,2.691
						c-0.184,0.192-0.384,0.375-0.59,0.545c-0.774,0.627-1.327,0.551-1.881-0.262C454.712,245.473,454.401,244.461,454.396,243.355z
						"/>
					<path fill="#FFFFFF" d="M481.804,238.068c2.144,0.067,3.758,0.998,4.716,2.881c0.946,1.855,0.778,3.705-0.36,5.449
						c-0.521,0.795-1.118,0.889-1.839,0.268c-0.622-0.539-1.19-1.137-1.79-1.699c-0.835-0.785-1.816-1.318-2.91-1.658
						c-0.597-0.187-1.19-0.383-1.78-0.598c-0.971-0.354-1.195-0.871-0.709-1.789C478.124,239.046,479.726,238.137,481.804,238.068z"
						/>
					<path fill="#FFFFFF" d="M470.588,270.921c-0.642,0.688-0.81,1.422-0.47,2.265c0.04,0.1-0.074,0.35-0.186,0.41
						c-1.132,0.633-2.315,1.118-3.64,1.17c-0.399,0.017-0.632-0.131-0.724-0.543c-0.325-1.447-0.282-2.887,0.091-4.308
						c0.263-1.005,0.718-1.258,1.721-0.985C468.633,269.271,469.683,269.949,470.588,270.921z"/>
					<path fill="#FFFFFF" d="M472.751,273.621c0.597-0.771,0.688-1.491,0.216-2.268c-0.057-0.096,0-0.369,0.09-0.433
						c1.062-0.729,2.204-1.264,3.517-1.312c0.723-0.024,1.104,0.248,1.204,0.943c0.226,1.566,0.103,3.105-0.516,4.583
						c-0.132,0.315-0.34,0.517-0.7,0.447C475.117,275.311,473.911,274.576,472.751,273.621z"/>
					<path fill="#FFFFFF" d="M473.619,256.382c1.001,0.168,1.352,1.056,0.766,1.892c-0.179,0.254-0.432,0.496-0.705,0.636
						c-1.246,0.633-2.55,0.644-3.856,0.206c-0.663-0.221-1.05-0.706-1.168-1.411c-0.123-0.729,0.062-1.115,0.799-1.259
						C470.185,256.305,472.988,256.277,473.619,256.382z"/>
					<path fill="#FFFFFF" d="M472.95,262.876c1.459,0.134,0.997,0.981-0.063,1.099c-0.852,0.06-1.713,0.062-2.562-0.004
						c-1.923-0.229-0.823-1.07-0.025-1.131C471.097,262.777,472.517,262.738,472.95,262.876z"/>
					<circle fill="#FFFFFF" cx="471.644" cy="272.258" r="1.711"/>
					<g>
						<path fill="#FFFFFF" d="M446.185,266.732v0.871c0,0.256-0.124,0.41-0.369,0.463c-0.013,0.002-0.066,0.013-0.164,0.029
							c-0.099,0.018-0.237,0.043-0.421,0.075l-2.882,9.279h-1.801l-2.343-7.324c-0.03-0.097-0.062-0.196-0.093-0.304
							c-0.032-0.107-0.062-0.225-0.093-0.35c-0.029,0.123-0.062,0.239-0.094,0.35c-0.033,0.115-0.064,0.217-0.092,0.304
							l-2.365,7.324h-1.801l-2.882-9.278c-0.187-0.033-0.327-0.059-0.426-0.076c-0.1-0.019-0.153-0.027-0.162-0.029
							c-0.247-0.053-0.371-0.207-0.371-0.463v-0.871h0.512h0.611h1.063h1.816v0.871c0,0.256-0.124,0.41-0.371,0.463
							c-0.015,0.004-0.039,0.01-0.073,0.019c-0.033,0.009-0.089,0.022-0.166,0.041c-0.074,0.019-0.159,0.04-0.254,0.062l1.538,5.41
							c0.045,0.156,0.085,0.329,0.123,0.514c0.036,0.185,0.072,0.382,0.106,0.591c0.04-0.208,0.083-0.404,0.13-0.591
							c0.048-0.186,0.098-0.356,0.151-0.514l2.105-6.412c0.039-0.115,0.117-0.219,0.233-0.312c0.115-0.094,0.258-0.141,0.426-0.141
							h0.586c0.172,0,0.314,0.039,0.43,0.123c0.113,0.08,0.192,0.189,0.237,0.328l2.091,6.412c0.108,0.316,0.202,0.668,0.281,1.053
							c0.033-0.188,0.068-0.373,0.106-0.557c0.037-0.177,0.075-0.343,0.115-0.496l1.534-5.396c-0.149-0.034-0.354-0.08-0.612-0.136
							c-0.248-0.053-0.371-0.205-0.371-0.463v-0.871h1.934h0.947h0.616h0.511V266.732z"/>
						<path fill="#FFFFFF" d="M451.605,269.956c0.402,0.153,0.751,0.377,1.043,0.671c0.291,0.294,0.519,0.654,0.682,1.083
							s0.244,0.915,0.244,1.464c0,0.139-0.006,0.253-0.02,0.346c-0.012,0.092-0.033,0.162-0.065,0.215
							c-0.032,0.052-0.075,0.088-0.13,0.11c-0.056,0.022-0.123,0.033-0.208,0.033h-4.7c0.056,0.78,0.265,1.354,0.631,1.72
							c0.365,0.366,0.851,0.549,1.453,0.549c0.297,0,0.552-0.035,0.768-0.104c0.215-0.068,0.402-0.145,0.562-0.229
							c0.161-0.086,0.302-0.162,0.423-0.23s0.238-0.104,0.353-0.104c0.073,0,0.139,0.015,0.192,0.043
							c0.054,0.029,0.101,0.072,0.142,0.127l0.533,0.668c-0.203,0.235-0.431,0.436-0.682,0.597c-0.253,0.159-0.517,0.289-0.79,0.385
							c-0.274,0.097-0.554,0.165-0.838,0.204c-0.284,0.04-0.561,0.061-0.826,0.061c-0.529,0-1.021-0.088-1.477-0.265
							c-0.453-0.175-0.85-0.435-1.187-0.778c-0.336-0.343-0.6-0.768-0.792-1.274c-0.193-0.507-0.29-1.093-0.29-1.761
							c0-0.52,0.085-1.008,0.252-1.463c0.168-0.459,0.409-0.855,0.724-1.194c0.313-0.339,0.696-0.606,1.148-0.806
							c0.453-0.196,0.963-0.295,1.531-0.295C450.763,269.727,451.203,269.803,451.605,269.956z M449.067,271.49
							c-0.303,0.302-0.494,0.729-0.579,1.281h3.439c0-0.235-0.032-0.459-0.097-0.67c-0.063-0.209-0.163-0.395-0.296-0.553
							c-0.134-0.158-0.302-0.283-0.505-0.374c-0.202-0.092-0.439-0.137-0.711-0.137C449.786,271.039,449.368,271.189,449.067,271.49
							z"/>
						<path fill="#FFFFFF" d="M458.167,276.579v0.871h-1.122h-1.831h-1.124v-0.871c0-0.256,0.125-0.41,0.372-0.463
							c0.021-0.005,0.053-0.011,0.093-0.019s0.114-0.021,0.223-0.039c0.105-0.02,0.252-0.045,0.438-0.078v-8.076
							c-0.186-0.032-0.331-0.059-0.438-0.077c-0.107-0.021-0.183-0.032-0.223-0.04s-0.07-0.014-0.093-0.018
							c-0.247-0.054-0.372-0.207-0.372-0.463v-0.873h1.124h1.831v9.547c0.187,0.032,0.33,0.059,0.438,0.078
							c0.107,0.019,0.181,0.031,0.222,0.039c0.04,0.008,0.071,0.014,0.093,0.018C458.044,276.169,458.167,276.323,458.167,276.579z"
							/>
						<path fill="#FFFFFF" d="M462.777,276.579v0.871h-1.124h-1.83h-1.124v-0.871c0-0.256,0.124-0.41,0.371-0.463
							c0.021-0.005,0.053-0.011,0.094-0.019c0.04-0.008,0.114-0.021,0.221-0.039c0.106-0.02,0.253-0.045,0.438-0.078v-8.076
							c-0.187-0.032-0.332-0.059-0.438-0.077c-0.105-0.019-0.181-0.032-0.221-0.04c-0.041-0.008-0.071-0.014-0.094-0.018
							c-0.247-0.054-0.371-0.207-0.371-0.463v-0.873h1.124h1.83v9.547c0.186,0.032,0.332,0.059,0.438,0.078
							c0.107,0.02,0.182,0.031,0.222,0.039s0.071,0.014,0.094,0.018C462.653,276.169,462.777,276.323,462.777,276.579z"/>
						<path fill="#FFFFFF" d="M488.015,269.843c-0.021-0.135-0.064-0.526-0.129-1.177c-0.809-0.236-1.491-0.355-2.048-0.355
							c-0.503,0-0.967,0.088-1.39,0.265c-0.423,0.176-0.786,0.427-1.09,0.752c-0.306,0.327-0.541,0.723-0.712,1.188
							c-0.172,0.469-0.257,0.993-0.257,1.576c0,0.604,0.085,1.141,0.257,1.608c0.171,0.47,0.401,0.864,0.692,1.186
							s0.635,0.567,1.03,0.738c0.395,0.171,0.82,0.256,1.274,0.256c0.271,0,0.518-0.015,0.737-0.045s0.423-0.077,0.607-0.142
							c0.186-0.062,0.359-0.146,0.525-0.248c0.166-0.103,0.33-0.227,0.493-0.375c0.049-0.043,0.103-0.079,0.155-0.106
							c0.055-0.026,0.114-0.041,0.179-0.041c0.108,0,0.202,0.042,0.281,0.126l0.786,0.854c-0.437,0.537-0.971,0.951-1.605,1.238
							c-0.635,0.285-1.396,0.43-2.287,0.43c-0.795,0-1.511-0.137-2.146-0.408c-0.636-0.271-1.178-0.648-1.627-1.135
							c-0.45-0.482-0.795-1.062-1.034-1.733c-0.239-0.671-0.359-1.405-0.359-2.201c0-0.806,0.135-1.543,0.4-2.213
							s0.642-1.247,1.127-1.729c0.484-0.485,1.063-0.861,1.737-1.131c0.676-0.271,1.42-0.406,2.234-0.406
							c0.893,0,2.014,0.259,3.362,0.773v2.733h-0.854C488.17,270.119,488.055,270.027,488.015,269.843z"/>
						<path fill="#FFFFFF" d="M495.127,270.001c0.462,0.183,0.856,0.442,1.183,0.778c0.327,0.336,0.579,0.746,0.757,1.229
							c0.179,0.484,0.267,1.025,0.267,1.623c0,0.604-0.088,1.146-0.267,1.632c-0.178,0.483-0.431,0.896-0.757,1.237
							c-0.325,0.341-0.721,0.604-1.183,0.786c-0.462,0.184-0.977,0.273-1.546,0.273c-0.567,0-1.085-0.09-1.549-0.273
							c-0.465-0.184-0.861-0.445-1.189-0.786c-0.329-0.341-0.584-0.754-0.765-1.237c-0.18-0.484-0.271-1.027-0.271-1.632
							c0-0.598,0.091-1.139,0.271-1.623c0.181-0.483,0.436-0.895,0.765-1.229c0.328-0.336,0.726-0.596,1.189-0.778
							s0.98-0.274,1.549-0.274C494.15,269.727,494.665,269.818,495.127,270.001z M494.986,275.518
							c0.305-0.427,0.456-1.05,0.456-1.869c0-0.82-0.151-1.445-0.456-1.875c-0.305-0.432-0.772-0.646-1.405-0.646
							c-0.642,0-1.116,0.216-1.423,0.647c-0.308,0.433-0.46,1.058-0.46,1.873c0,0.814,0.152,1.437,0.46,1.863
							c0.307,0.428,0.781,0.641,1.423,0.641C494.214,276.152,494.683,275.941,494.986,275.518z"/>
						<path fill="#FFFFFF" d="M510.784,276.58v0.871h-1.124h-1.83v-4.842c0-0.483-0.106-0.849-0.318-1.094
							c-0.213-0.244-0.523-0.367-0.935-0.367c-0.188,0-0.362,0.033-0.522,0.098c-0.161,0.064-0.302,0.156-0.423,0.277
							s-0.217,0.272-0.285,0.457c-0.068,0.183-0.104,0.393-0.104,0.629v3.371c0.186,0.033,0.331,0.06,0.438,0.078
							c0.106,0.02,0.182,0.031,0.222,0.039c0.041,0.008,0.07,0.014,0.093,0.019c0.248,0.054,0.372,0.207,0.372,0.463v0.872h-1.123
							h-1.839v-4.842c0-0.508-0.103-0.879-0.309-1.111c-0.205-0.23-0.508-0.35-0.906-0.35c-0.263,0-0.509,0.066-0.738,0.197
							c-0.23,0.131-0.443,0.312-0.642,0.537v4.098c0.186,0.033,0.33,0.06,0.437,0.078c0.105,0.02,0.181,0.031,0.222,0.039
							c0.04,0.008,0.071,0.014,0.093,0.019c0.247,0.054,0.371,0.207,0.371,0.463v0.872h-1.121h-1.831h-1.123v-0.872
							c0-0.256,0.124-0.409,0.371-0.463c0.021-0.005,0.054-0.011,0.094-0.019s0.113-0.021,0.221-0.039
							c0.107-0.02,0.253-0.045,0.438-0.078v-4.666c-0.186-0.032-0.33-0.06-0.438-0.078c-0.105-0.02-0.181-0.031-0.221-0.038
							c-0.04-0.009-0.071-0.015-0.094-0.019c-0.247-0.053-0.371-0.207-0.371-0.464v-0.872h1.123h1.119
							c0.237,0,0.394,0.112,0.468,0.334l0.118,0.564c0.134-0.149,0.272-0.284,0.418-0.409c0.146-0.123,0.304-0.229,0.468-0.317
							c0.167-0.09,0.345-0.16,0.534-0.211c0.188-0.053,0.397-0.078,0.626-0.078c0.479,0,0.874,0.129,1.184,0.39
							c0.309,0.259,0.539,0.604,0.692,1.032c0.117-0.25,0.268-0.467,0.444-0.647c0.179-0.179,0.372-0.327,0.585-0.44
							c0.212-0.113,0.438-0.197,0.679-0.252c0.239-0.055,0.48-0.082,0.724-0.082c0.42,0,0.793,0.064,1.12,0.193
							c0.326,0.129,0.599,0.316,0.821,0.562c0.223,0.248,0.393,0.549,0.509,0.904c0.114,0.356,0.174,0.764,0.173,1.223v3.371
							c0.187,0.033,0.332,0.06,0.438,0.078c0.106,0.02,0.182,0.031,0.222,0.039c0.041,0.008,0.069,0.014,0.093,0.019
							C510.66,276.17,510.784,276.323,510.784,276.58z"/>
					</g>
					<g>
						<path fill="#FFFFFF" d="M435.968,281.417v0.165h-0.641v-0.2c0-0.544-0.207-0.862-0.691-0.862
							c-0.483,0-0.691,0.318-0.691,0.854c0,1.358,2.031,1.487,2.031,3.19c0,0.918-0.439,1.514-1.365,1.514s-1.357-0.596-1.357-1.514
							v-0.346h0.631v0.381c0,0.545,0.227,0.864,0.709,0.864c0.484,0,0.709-0.319,0.709-0.864c0-1.35-2.021-1.479-2.021-3.184
							c0-0.934,0.433-1.512,1.34-1.512C435.535,279.904,435.968,280.501,435.968,281.417z"/>
						<path fill="#FFFFFF" d="M444.033,281.426c0-0.925,0.458-1.521,1.384-1.521c0.934,0,1.393,0.597,1.393,1.521v3.131
							c0,0.918-0.459,1.521-1.393,1.521c-0.926,0-1.384-0.604-1.384-1.521V281.426z M444.699,284.591
							c0,0.554,0.232,0.874,0.718,0.874c0.492,0,0.718-0.32,0.718-0.874v-3.2c0-0.543-0.226-0.871-0.718-0.871
							c-0.484,0-0.718,0.328-0.718,0.871V284.591z"/>
						<path fill="#FFFFFF" d="M454.97,286.018v-6.053h0.675v5.439h1.729v0.613H454.97L454.97,286.018z"/>
						<path fill="#FFFFFF" d="M466.045,284.591c0,0.546,0.217,0.874,0.709,0.874c0.485,0,0.701-0.329,0.701-0.874v-4.626h0.631
							v4.592c0,0.918-0.424,1.53-1.357,1.53c-0.926,0-1.35-0.612-1.35-1.53v-4.592h0.666V284.591z"/>
						<path fill="#FFFFFF" d="M477.154,286.018v-5.438h-1.115v-0.614h2.905v0.614h-1.115v5.438H477.154z"/>
						<path fill="#FFFFFF" d="M487.607,279.965v6.053h-0.676v-6.053H487.607z"/>
						<path fill="#FFFFFF" d="M495.769,281.426c0-0.925,0.458-1.521,1.385-1.521c0.934,0,1.392,0.597,1.392,1.521v3.131
							c0,0.918-0.458,1.521-1.392,1.521c-0.927,0-1.385-0.604-1.385-1.521V281.426z M496.434,284.591
							c0,0.554,0.234,0.874,0.72,0.874c0.491,0,0.718-0.32,0.718-0.874v-3.2c0-0.543-0.227-0.871-0.718-0.871
							c-0.484,0-0.72,0.328-0.72,0.871V284.591z"/>
						<path fill="#FFFFFF" d="M507.302,286.018h-0.604v-6.053h0.854l1.4,4.375v-4.375h0.597v6.053h-0.7l-1.548-4.894V286.018
							L507.302,286.018z"/>
					</g>
				</g>
			</g>
			<rect x="429" y="337" fill="#FFFFFF" width="87" height="15"/>
			<rect x="429" y="358" fill="#FFFFFF" width="87" height="15"/>
			<rect x="442" y="379" fill="#FFC107" width="64" height="15"/>
			<rect x="431.172" y="342.123" fill="none" width="81.83" height="5.16"/>
			<text transform="matrix(1 0 0 1 431.1709 346.0107)" fill="#B2B2B2" font-family="'Raleway-Thin'" font-size="5.3265">Identifiant</text>
			<rect x="430.644" y="363.667" fill="none" width="81.831" height="5.16"/>
			<text transform="matrix(1 0 0 1 430.6426 367.5557)" fill="#B2B2B2" font-family="'Raleway-Thin'" font-size="5.3265">Mot de passe</text>
			<rect x="449.62" y="384.615" fill="none" width="52.847" height="7.035"/>
			<text transform="matrix(1 0 0 1 449.6191 390.4473)" fill="#FFFFFF" font-family="'Raleway-Light'" font-size="7.9898">Se connecter</text>
		</g>
		<g>
			<g>
				<path fill="#242D3C" d="M619.264,277.174H544.79c-7.044,0-12.824,5.77-12.824,12.832v158.338c0,7.056,5.78,12.821,12.824,12.821
					h74.474c7.047,0,12.808-5.767,12.808-12.821V290.006C632.07,282.941,626.311,277.174,619.264,277.174z"/>
				<rect x="539.227" y="304.992" fill="#1776D2" width="85.618" height="128.363"/>
				<path fill="#CCCBCA" d="M574.11,451.236c-1.923,0-3.466-1.562-3.466-3.456v-1.041c0-1.897,1.542-3.452,3.466-3.452h15.861
					c1.881,0,3.421,1.555,3.421,3.452v1.041c0,1.894-1.539,3.456-3.421,3.456H574.11z"/>
				<path fill="#CCCBCA" d="M585.249,291.08c0,1.777-1.408,3.223-3.193,3.223c-1.79,0-3.254-1.443-3.254-3.223
					c0-1.777,1.464-3.24,3.254-3.24C583.841,287.84,585.249,289.303,585.249,291.08z"/>
				<path fill="#FFFFFF" d="M583.321,291.08c0,0.703-0.574,1.279-1.267,1.279c-0.746,0-1.328-0.576-1.328-1.279
					c0-0.709,0.582-1.301,1.328-1.301C582.747,289.779,583.321,290.371,583.321,291.08z"/>
				<g>
					<path fill="#FFFFFF" d="M580.05,332.938c1.711,0.116,2.711,0.308,3.915,0.95c0.129,0.071,0.326,0.019,0.492,0.013
						c0.793-0.031,1.584-0.062,2.377-0.098c0.229-0.01,0.491,0.044,0.678-0.052c2.03-1.033,4.203-1.299,6.438-1.216
						c1.132,0.043,2.263,0.133,3.387,0.27c0.81,0.098,1.099,1.019,0.623,1.697c-0.2,0.289-0.314,0.655-0.413,1.003
						c-0.303,1.087-0.518,2.203-0.885,3.27c-0.362,1.054-1.149,1.742-2.241,2.057c-2.075,0.595-4.024,0.371-5.798-0.914
						c-0.961-0.695-1.363-1.73-1.638-2.828c-0.062-0.246-0.098-0.499-0.138-0.75c-0.124-0.754-0.423-1.043-1.089-1.047
						c-0.699-0.004-1.042,0.36-1.235,1.076c-0.27,0.991-0.494,2.031-0.981,2.917c-0.884,1.607-2.504,2.114-4.21,2.25
						c-1.638,0.132-3.149-0.229-4.301-1.543c-0.854-0.975-1.096-2.171-1.322-3.391c-0.092-0.502-0.3-0.981-0.463-1.472
						c-0.262-0.789-0.292-1.486,0.759-1.765C576.021,332.837,578.34,332.82,580.05,332.938z M576.508,334.281
						c-0.739,0.138-1.189,0.722-1.394,1.446c-0.436,1.541,0.485,3.637,1.907,4.367c1.7,0.878,4.28,0.309,5.414-1.237
						c0.781-1.062,0.857-2.264,0.36-3.454c-0.442-1.062-1.425-1.35-2.459-1.402C579.058,333.935,577.669,334.062,576.508,334.281z
						 M596.213,336.454c0-0.052,0.014-0.208,0.012-0.364c-0.022-1.51-0.78-2.392-2.285-2.516c-0.871-0.07-1.756,0.011-2.633,0.04
						c-0.271,0.01-0.543,0.064-0.812,0.119c-2.123,0.434-3.024,2.548-1.871,4.418c0.881,1.43,2.259,1.935,3.845,1.92
						C594.592,340.051,596.018,338.673,596.213,336.454z"/>
					<path fill="#FFFFFF" d="M567.05,328.015c0.006-2.606,1.829-4.996,4.265-5.581c2.696-0.647,5.433,0.549,6.607,2.891
						c0.518,1.031,0.298,1.604-0.787,1.992c-0.752,0.269-1.517,0.504-2.273,0.757c-1.666,0.559-2.916,1.696-4.096,2.935
						c-0.198,0.212-0.418,0.41-0.644,0.594c-0.845,0.685-1.447,0.604-2.051-0.282C567.395,330.323,567.056,329.219,567.05,328.015z"
						/>
					<path fill="#FFFFFF" d="M596.931,322.251c2.336,0.074,4.099,1.088,5.143,3.139c1.031,2.023,0.849,4.042-0.396,5.942
						c-0.564,0.866-1.219,0.969-2.004,0.29c-0.678-0.586-1.298-1.237-1.951-1.851c-0.91-0.856-1.979-1.438-3.174-1.811
						c-0.649-0.202-1.298-0.417-1.939-0.65c-1.06-0.387-1.304-0.949-0.773-1.949C592.919,323.315,594.665,322.324,596.931,322.251z"
						/>
					<path fill="#FFFFFF" d="M584.702,358.066c-0.699,0.753-0.882,1.551-0.512,2.471c0.044,0.106-0.081,0.379-0.2,0.444
						c-1.235,0.69-2.526,1.222-3.969,1.276c-0.437,0.019-0.688-0.143-0.789-0.592c-0.355-1.577-0.309-3.147,0.099-4.697
						c0.287-1.095,0.783-1.37,1.876-1.072C582.57,356.269,583.716,357.008,584.702,358.066z"/>
					<path fill="#FFFFFF" d="M587.061,361.011c0.65-0.84,0.749-1.626,0.236-2.471c-0.062-0.104-0.001-0.402,0.098-0.471
						c1.156-0.795,2.402-1.379,3.834-1.43c0.787-0.026,1.202,0.27,1.312,1.027c0.246,1.709,0.112,3.386-0.561,4.997
						c-0.146,0.344-0.371,0.562-0.765,0.487C589.64,362.853,588.326,362.052,587.061,361.011z"/>
					<path fill="#FFFFFF" d="M588.007,342.216c1.092,0.185,1.476,1.149,0.836,2.062c-0.194,0.276-0.47,0.541-0.769,0.692
						c-1.359,0.689-2.781,0.701-4.205,0.225c-0.725-0.239-1.146-0.771-1.274-1.538c-0.135-0.796,0.068-1.216,0.87-1.371
						C584.264,342.132,587.319,342.102,588.007,342.216z"/>
					<path fill="#FFFFFF" d="M587.279,349.296c1.59,0.146,1.086,1.07-0.07,1.198c-0.928,0.062-1.867,0.065-2.794-0.005
						c-2.098-0.249-0.899-1.167-0.028-1.232C585.258,349.189,586.806,349.146,587.279,349.296z"/>
					<circle fill="#FFFFFF" cx="585.854" cy="359.525" r="1.866"/>
				</g>
				<rect x="565" y="381" fill="#FFC107" width="41" height="9"/>
				<rect x="569.65" y="383.39" fill="none" width="33.408" height="4.447"/>
				<text transform="matrix(1 0 0 1 569.6504 387.0771)" fill="#FFFFFF" font-family="'Raleway-Light'" font-size="5.051">Se connecter</text>
			</g>
		</g>
	</g>
</g>
</svg>
