<?xml version="1.0"?>
<svg xmlns="http://www.w3.org/2000/svg" xmlns:xlink="http://www.w3.org/1999/xlink" version="1.1" id="Layer_1" x="0px" y="0px" viewBox="0 0 509.287 509.287" style="enable-background:new 0 0 509.287 509.287;" xml:space="preserve" width="512px" height="512px" class=""><g><circle style="fill:#FFC100" cx="254.644" cy="254.644" r="254.644" data-original="#F0582F" class="active-path" data-old_color="#FFEF00"/><path style="fill:#2600FF" d="M444.185,253.287H420.45c0-91.55-74.596-166.146-166.146-166.146S88.159,161.738,88.159,253.287  H64.424c0-104.434,85.107-189.542,189.542-189.542C359.078,63.746,444.185,148.853,444.185,253.287z" data-original="#F1F3F7" class="" data-old_color="#F1F3F7"/><g>
	<circle style="fill:#4F5565;" cx="254.644" cy="253.287" r="145.123" data-original="#4F5565"/>
	<circle style="fill:#4F5565;" cx="254.644" cy="253.287" r="145.123" data-original="#4F5565"/>
	<path style="fill:#4F5565;" d="M303.47,207.174c0,0,8.138,52.556,63.407,82.395v-31.534c0-62.05-50.183-112.233-112.233-112.233   l0,0c-62.05,0-112.233,50.183-112.233,112.233v36.62C277.022,277.022,303.47,207.174,303.47,207.174z" data-original="#4F5565"/>
</g><path style="fill:#F6CEB0;" d="M303.47,207.174c0,0-26.448,69.849-161.399,87.82v38.315c0,62.05,50.183,112.233,112.233,112.233l0,0  c62.05,0,112.233-50.183,112.233-112.233v-43.74C311.608,259.73,303.47,207.174,303.47,207.174z" data-original="#F6CEB0"/><path style="fill:#2600FF" d="M76.63,230.23c-13.902,0-25.091,11.189-25.091,25.091v74.935c0,13.902,11.189,25.091,25.091,25.091  s25.091-11.189,25.091-25.091v-74.935C102.061,241.42,90.532,230.23,76.63,230.23z" data-original="#F1F3F7" class="" data-old_color="#F1F3F7"/><path style="fill:#002DFF" d="M50.861,255.322c-20.683,0-37.298,16.615-37.298,37.298s16.615,37.298,37.298,37.298h0.678v-74.596  H50.861z" data-original="#6EB1E1" class="" data-old_color="#DEF21A"/><path style="fill:#2600FF" d="M432.657,355.348c13.902,0,25.091-11.189,25.091-25.091v-74.935  c0-13.902-11.189-25.091-25.091-25.091s-25.091,11.189-25.091,25.091v74.935C407.226,344.159,418.755,355.348,432.657,355.348z" data-original="#F1F3F7" class="" data-old_color="#F1F3F7"/><path style="fill:#002DFF" d="M458.427,329.918c20.683,0,37.298-16.615,37.298-37.298s-16.615-37.298-37.298-37.298h-0.678v74.596  H458.427z" data-original="#6EB1E1" class="" data-old_color="#DEF21A"/></g> </svg>
