<?xml version="1.0" encoding="iso-8859-1"?>
<!-- Generator: Adobe Illustrator 16.0.0, SVG Export Plug-In . SVG Version: 6.00 Build 0)  -->
<!DOCTYPE svg PUBLIC "-//W3C//DTD SVG 1.1//EN" "http://www.w3.org/Graphics/SVG/1.1/DTD/svg11.dtd">
<svg version="1.1" id="Calque_1" xmlns="http://www.w3.org/2000/svg" xmlns:xlink="http://www.w3.org/1999/xlink" x="0px" y="0px"
	 width="100px" height="100px" viewBox="0 0 100 100" style="enable-background:new 0 0 100 100;" xml:space="preserve">
<g>
	<rect x="15.352" y="10.818" style="fill:#F2F2F2;" width="70.267" height="88.156"/>
	<g>
		<rect x="24.699" y="79.705" style="fill:#CCCBCA;" width="51.573" height="3.31"/>
		<rect x="24.699" y="73.091" style="fill:#CCCBCA;" width="51.573" height="3.307"/>
		<rect x="24.699" y="66.476" style="fill:#CCCBCA;" width="51.573" height="3.307"/>
		<rect x="24.699" y="59.86" style="fill:#CCCBCA;" width="51.573" height="3.309"/>
		<rect x="24.699" y="53.243" style="fill:#CCCBCA;" width="51.573" height="3.309"/>
		<rect x="24.699" y="46.627" style="fill:#CCCBCA;" width="51.573" height="3.307"/>
		<rect x="50.481" y="40.013" style="fill:#CCCBCA;" width="25.791" height="3.306"/>
		<rect x="50.481" y="33.396" style="fill:#CCCBCA;" width="25.791" height="3.309"/>
		<rect x="50.481" y="26.78" style="fill:#CCCBCA;" width="25.791" height="3.308"/>
		<g>
			<rect x="50.481" y="20.165" style="fill:#CCCBCA;" width="25.791" height="3.307"/>
		</g>
		<rect x="24.699" y="86.32" style="fill:#CCCBCA;" width="51.573" height="3.309"/>
	</g>
	<g>
		<g>
			<polygon style="fill:#242D3C;" points="37.155,20.165 35.396,20.165 34.884,22.72 37.667,22.72 			"/>
			<polygon style="fill:#242D3C;" points="31.248,21.277 29.726,22.155 30.56,24.625 32.97,23.235 			"/>
			<polygon style="fill:#242D3C;" points="26.689,25.191 25.81,26.713 27.77,28.435 29.161,26.029 			"/>
			<polygon style="fill:#242D3C;" points="24.699,30.864 24.699,32.622 27.255,33.135 27.255,30.352 			"/>
			<polygon style="fill:#242D3C;" points="25.81,36.772 26.689,38.292 29.161,37.458 27.77,35.046 			"/>
			<polygon style="fill:#242D3C;" points="29.726,41.329 31.248,42.208 32.97,40.249 30.56,38.86 			"/>
			<polygon style="fill:#242D3C;" points="35.4,43.319 37.155,43.319 37.667,40.767 34.887,40.767 			"/>
			<polygon style="fill:#242D3C;" points="41.304,42.208 42.827,41.329 41.993,38.86 39.582,40.249 			"/>
			<polygon style="fill:#242D3C;" points="45.865,38.292 46.741,36.772 44.784,35.046 43.393,37.458 			"/>
			<polygon style="fill:#242D3C;" points="47.852,32.622 47.852,30.864 45.3,30.352 45.3,33.135 			"/>
			<polygon style="fill:#242D3C;" points="46.741,26.713 45.865,25.191 43.393,26.029 44.784,28.434 			"/>
			<polygon style="fill:#242D3C;" points="42.827,22.155 41.304,21.278 39.582,23.235 41.993,24.625 			"/>
		</g>
		<path style="fill:#242D3C;" d="M36.279,22.616c-5.046,0-9.131,4.086-9.131,9.125c0,5.041,4.085,9.126,9.131,9.126
			c5.041,0,9.126-4.086,9.126-9.126C45.405,26.702,41.32,22.616,36.279,22.616z M36.279,36.122c-2.423,0-4.383-1.958-4.383-4.381
			c0-2.422,1.959-4.38,4.383-4.38c2.417,0,4.378,1.958,4.378,4.38C40.657,34.164,38.696,36.122,36.279,36.122z"/>
	</g>
</g>
<g>
	<rect x="63.39" y="47.626" style="fill-rule:evenodd;clip-rule:evenodd;fill:#1776D2;" width="9.883" height="52.349"/>
	<polygon style="fill:#E6E5E5;" points="63.39,47.627 68.331,37.704 73.272,47.627 	"/>
	<polygon style="fill:#242D3C;" points="68.331,37.704 66.683,41.013 69.979,41.013 	"/>
</g>
<g>
	<g>
		<rect x="9.066" y="54.629" style="fill:#1776D2;" width="30.692" height="17.747"/>
		<polygon style="fill:#1776D2;" points="13.01,76.32 13.01,72.375 16.955,72.375 		"/>
	</g>
	<g>
		<rect x="13.01" y="58.573" style="fill:#FFFFFF;" width="22.805" height="1.971"/>
		<rect x="13.01" y="62.517" style="fill:#FFFFFF;" width="22.805" height="1.972"/>
		<rect x="13.01" y="66.46" style="fill:#FFFFFF;" width="11.402" height="1.972"/>
	</g>
</g>
<g>
	<g>
		<rect x="68.158" y="3.278" style="fill:#FFC107;" width="22.676" height="22.675"/>
		<polygon style="fill:#FFC107;" points="85.95,30.837 81.066,25.954 85.95,25.954 		"/>
	</g>
	<g>
		<rect x="74.427" y="14.616" style="fill:#242D3C;" width="2.535" height="2.536"/>
		<rect x="79.496" y="14.616" style="fill:#242D3C;" width="2.537" height="2.536"/>
		<rect x="84.568" y="14.616" style="fill:#242D3C;" width="2.535" height="2.536"/>
	</g>
</g>
</svg>
