<?xml version="1.0" encoding="iso-8859-1"?>
<!-- Generator: Adobe Illustrator 16.0.0, SVG Export Plug-In . SVG Version: 6.00 Build 0)  -->
<!DOCTYPE svg PUBLIC "-//W3C//DTD SVG 1.1//EN" "http://www.w3.org/Graphics/SVG/1.1/DTD/svg11.dtd">
<svg version="1.1" id="Calque_1" xmlns="http://www.w3.org/2000/svg" xmlns:xlink="http://www.w3.org/1999/xlink" x="0px" y="0px"
	 width="1024px" height="768px" viewBox="0 0 1024 768" style="enable-background:new 0 0 1024 768;" xml:space="preserve">
<rect x="-16" y="-18" style="fill:#FFFFFF;" width="1050" height="800"/>
<g>
	<path style="fill:#242D3C;" d="M258.169,667.766c-0.218,0-0.436,0.082-0.601,0.248l-67.431,67.43l-67.43-67.43
		c-0.33-0.332-0.871-0.332-1.201,0c-0.332,0.332-0.332,0.871,0,1.201l68.03,68.031c0.33,0.332,0.871,0.332,1.201,0l67.431-67.43
		l37.368,37.367c0.332,0.332,0.871,0.332,1.201,0c0.332-0.332,0.332-0.871,0-1.201l-37.969-37.969
		C258.604,667.848,258.387,667.766,258.169,667.766z"/>
	<circle style="fill:#E6E5E5;" cx="122.107" cy="668.615" r="12.272"/>
	<circle style="fill:#E6E5E5;" cx="258.169" cy="668.615" r="12.271"/>
	<polygon style="fill:#21D8DE;" points="287.549,715.174 304.728,697.992 304.728,715.174 	"/>
</g>
<g>
	<path style="fill:#242D3C;" d="M882.312,726.07c-0.218,0-0.436-0.082-0.601-0.248l-67.431-67.43l-67.43,67.43
		c-0.33,0.332-0.871,0.332-1.201,0c-0.332-0.332-0.332-0.871,0-1.201l68.03-68.031c0.33-0.332,0.871-0.332,1.201,0l67.431,67.43
		l37.368-37.367c0.332-0.332,0.871-0.332,1.201,0c0.332,0.332,0.332,0.871,0,1.201l-37.969,37.969
		C882.746,725.988,882.529,726.07,882.312,726.07z"/>
	<circle style="fill:#E6E5E5;" cx="746.25" cy="725.221" r="12.272"/>
	<circle style="fill:#E6E5E5;" cx="882.312" cy="725.221" r="12.271"/>
	<polygon style="fill:#21D8DE;" points="911.691,678.662 928.87,695.844 928.87,678.662 	"/>
</g>
<g>
	<path style="fill:#242D3C;" d="M185.024,58.72c0,8.34-6.751,15.087-15.076,15.087c-8.327,0-15.085-6.747-15.085-15.087
		c0-8.315,6.759-15.08,15.085-15.08C178.272,43.64,185.024,50.405,185.024,58.72z"/>
	<path style="fill:#242D3C;" d="M152.032,333.842c0,9.545-7.745,17.295-17.296,17.295c-9.552,0-17.293-7.75-17.293-17.295
		c0-9.554,7.742-17.299,17.293-17.299C144.288,316.543,152.032,324.288,152.032,333.842z"/>
	<path style="fill:#D9D8D7;" d="M335.806,76.954c0,4.688-3.809,8.501-8.496,8.501c-4.697,0-8.504-3.813-8.504-8.501
		c0-4.688,3.807-8.499,8.504-8.499C331.997,68.455,335.806,72.265,335.806,76.954z"/>
	<path style="fill:#242D3C;" d="M773.362,76.608c0,3.465-2.812,6.279-6.284,6.279c-3.471,0-6.283-2.814-6.283-6.279
		c0-3.471,2.812-6.283,6.283-6.283C770.551,70.325,773.362,73.137,773.362,76.608z"/>
	<path style="fill:#D9D8D7;" d="M78.553,318.2c0,3.187-2.576,5.763-5.76,5.763c-3.195,0-5.77-2.576-5.77-5.763
		c0-3.19,2.575-5.768,5.77-5.768C75.977,312.433,78.553,315.01,78.553,318.2z"/>
	<path style="fill:#D9D8D7;" d="M822.403,106.779c0,2.395-1.93,4.325-4.327,4.325c-2.389,0-4.321-1.93-4.321-4.325
		c0-2.386,1.933-4.335,4.321-4.335C820.474,102.444,822.403,104.394,822.403,106.779z"/>
	<path style="fill:#D9D8D7;" d="M1004.879,82.601c0,6.255-5.072,11.317-11.305,11.317c-6.256,0-11.318-5.062-11.318-11.317
		c0-6.244,5.062-11.31,11.318-11.31C999.807,71.292,1004.879,76.357,1004.879,82.601z"/>
	<circle style="fill:#242D3C;" cx="998.066" cy="229.601" r="5.766"/>
</g>
<path style="fill:#989899;" d="M529.097,717.118c-2.396,0-4.785-0.03-7.165-0.085l0.336-14.267
	c4.665,0.115,9.366,0.112,14.021-0.008l0.353,14.267C534.137,717.086,531.619,717.118,529.097,717.118z M507.248,716.345
	c-4.875-0.348-9.798-0.814-14.635-1.394l1.691-14.169c4.615,0.552,9.309,0.997,13.958,1.33L507.248,716.345z M551.325,716.316
	l-1.025-14.232c4.626-0.334,9.32-0.786,13.954-1.344l1.709,14.168C561.104,715.493,556.176,715.968,551.325,716.316z
	 M478.05,712.854c-4.811-0.811-9.67-1.752-14.444-2.801l3.059-13.937c4.547,0.996,9.176,1.894,13.76,2.667L478.05,712.854z
	 M580.514,712.793l-2.393-14.069c4.588-0.778,9.216-1.683,13.758-2.685l3.076,13.937
	C590.188,711.026,585.327,711.975,580.514,712.793z M449.319,706.555c-4.735-1.285-9.476-2.696-14.096-4.191l4.396-13.576
	c4.402,1.428,8.923,2.771,13.436,3.993L449.319,706.555z M609.236,706.463l-3.742-13.77c4.48-1.219,8.999-2.565,13.427-4.008
	l4.413,13.571C618.687,703.77,613.941,705.182,609.236,706.463z M421.31,697.481c-4.567-1.729-9.161-3.598-13.656-5.559l5.7-13.079
	c4.281,1.865,8.66,3.646,13.007,5.291L421.31,697.481z M637.205,697.362l-5.062-13.34c4.324-1.643,8.68-3.417,12.949-5.28
	l5.706,13.08C646.316,693.774,641.746,695.64,637.205,697.362z M394.293,685.711c-4.397-2.175-8.785-4.48-13.045-6.853l6.945-12.466
	c4.058,2.26,8.237,4.458,12.425,6.528L394.293,685.711z M664.108,685.627l-6.337-12.784c4.145-2.057,8.312-4.249,12.388-6.517
	l6.944,12.466C672.829,681.173,668.456,683.472,664.108,685.627z M368.56,671.39c-4.133-2.573-8.275-5.287-12.309-8.073
	l8.109-11.741c3.847,2.655,7.794,5.246,11.735,7.695L368.56,671.39z M689.758,671.333l-7.536-12.117
	c3.918-2.436,7.857-5.022,11.706-7.681l8.116,11.735C698.004,666.062,693.87,668.775,689.758,671.333z M344.35,654.66
	c-3.901-2.983-7.762-6.085-11.475-9.219l9.21-10.901c3.533,2.985,7.211,5.939,10.931,8.784L344.35,654.66z M713.927,654.625
	l-8.666-11.335c3.679-2.813,7.351-5.767,10.916-8.779l9.211,10.901C721.645,648.572,717.79,651.672,713.927,654.625z
	 M321.869,635.687c-3.585-3.334-7.127-6.788-10.53-10.272l10.212-9.969c3.241,3.318,6.615,6.614,10.033,9.791L321.869,635.687z
	 M736.388,635.663l-9.714-10.449c3.395-3.16,6.771-6.453,10.029-9.792l10.212,9.969
	C743.495,628.892,739.953,632.351,736.388,635.663z M301.314,614.651c-3.255-3.667-6.447-7.447-9.488-11.229l11.116-8.942
	c2.902,3.605,5.946,7.205,9.048,10.706L301.314,614.651z M756.934,614.628l-10.676-9.471c3.091-3.483,6.138-7.09,9.054-10.714
	l11.116,8.944C763.369,607.19,760.174,610.97,756.934,614.628z M282.889,591.759c-2.89-3.965-5.703-8.031-8.367-12.082l11.927-7.838
	c2.537,3.86,5.219,7.736,7.973,11.516L282.889,591.759z M775.377,591.701l-11.539-8.398c2.752-3.78,5.439-7.664,7.984-11.539
	l11.928,7.831C781.079,583.664,778.262,587.736,775.377,591.701z M266.754,567.205c-2.485-4.214-4.895-8.533-7.157-12.831
	l12.627-6.644c2.155,4.092,4.449,8.205,6.821,12.222L266.754,567.205z M791.535,567.094l-12.298-7.239
	c2.372-4.026,4.672-8.153,6.835-12.266l12.628,6.644C796.43,558.548,794.02,562.874,791.535,567.094z M253.069,541.226
	c-2.059-4.414-4.038-8.941-5.879-13.453l13.213-5.394c1.752,4.299,3.638,8.608,5.601,12.816L253.069,541.226z M805.236,541.034
	l-12.934-6.03c1.957-4.199,3.846-8.526,5.612-12.865l13.219,5.381C809.277,532.076,807.293,536.623,805.236,541.034z
	 M241.956,514.026c-1.619-4.584-3.151-9.291-4.556-13.986l13.67-4.089c1.338,4.475,2.798,8.958,4.341,13.325L241.956,514.026z
	 M816.361,513.736l-13.462-4.731c1.55-4.409,3.004-8.895,4.327-13.335l13.677,4.072
	C819.516,504.402,817.986,509.111,816.361,513.736z M233.531,485.849c-1.17-4.74-2.239-9.575-3.174-14.365l14.006-2.734
	c0.89,4.559,1.909,9.164,3.024,13.683L233.531,485.849z M824.752,485.553l-13.855-3.411c1.104-4.478,2.114-9.082,3.012-13.688
	l14.007,2.728C826.973,476.014,825.91,480.851,824.752,485.553z M227.883,456.983c-0.701-4.824-1.295-9.734-1.767-14.597
	l14.203-1.375c0.449,4.636,1.017,9.317,1.686,13.919L227.883,456.983z M830.371,456.684l-14.122-2.053
	c0.663-4.561,1.228-9.241,1.674-13.913l14.202,1.358C831.656,446.979,831.065,451.895,830.371,456.684z M225.048,427.723
	c-0.235-4.87-0.356-9.818-0.359-14.706l14.267-0.009c0.003,4.66,0.122,9.377,0.348,14.02L225.048,427.723z M833.18,427.409
	l-14.255-0.677c0.22-4.624,0.333-9.341,0.333-14.02v-0.636h14.268v0.636C833.525,417.615,833.409,422.562,833.18,427.409z
	 M239.271,398.984l-14.255-0.66c0.226-4.858,0.574-9.794,1.034-14.668L240.259,385C239.818,389.648,239.486,394.353,239.271,398.984
	z M818.893,398.067c-0.231-4.631-0.576-9.336-1.031-13.981l14.203-1.388c0.475,4.872,0.841,9.805,1.078,14.665L818.893,398.067z
	 M241.915,371.081l-14.122-2.031c0.692-4.835,1.515-9.715,2.441-14.504l14.012,2.714
	C243.363,361.821,242.579,366.471,241.915,371.081z M816.158,370.17c-0.668-4.585-1.465-9.231-2.365-13.811l14-2.755
	c0.947,4.808,1.784,9.687,2.488,14.5L816.158,370.17z M247.236,343.565l-13.862-3.389c1.156-4.72,2.445-9.496,3.838-14.197
	l13.682,4.052C249.567,334.514,248.336,339.068,247.236,343.565z M810.758,342.674c-1.115-4.499-2.357-9.046-3.699-13.516
	l13.665-4.104c1.41,4.693,2.717,9.469,3.884,14.192L810.758,342.674z M255.207,316.697l-13.468-4.718
	c1.622-4.633,3.377-9.274,5.216-13.795l13.218,5.375C258.424,307.865,256.753,312.285,255.207,316.697z M802.702,315.834
	c-1.546-4.369-3.229-8.776-4.999-13.099l13.208-5.407c1.855,4.536,3.62,9.16,5.241,13.745L802.702,315.834z M265.778,290.679
	l-12.946-6.007c2.053-4.421,4.249-8.867,6.525-13.21l12.64,6.63C269.824,282.231,267.733,286.465,265.778,290.679z M792.097,289.931
	c-1.979-4.225-4.075-8.44-6.235-12.533l12.621-6.661c2.266,4.293,4.467,8.716,6.537,13.146L792.097,289.931z M278.813,265.823
	l-12.303-7.232c2.468-4.193,5.08-8.402,7.771-12.508l11.938,7.82C283.653,257.818,281.162,261.83,278.813,265.823z M779.032,265.183
	c-2.367-4-4.863-7.997-7.421-11.88l11.922-7.846c2.678,4.073,5.296,8.264,7.778,12.459L779.032,265.183z M294.19,242.354
	l-11.544-8.388c2.864-3.943,5.871-7.877,8.935-11.695l11.127,8.935C299.786,234.843,296.921,238.594,294.19,242.354z
	 M763.63,241.794c-2.749-3.768-5.622-7.507-8.53-11.116l11.104-8.958c3.056,3.784,6.064,7.708,8.952,11.66L763.63,241.794z
	 M311.747,220.481l-10.688-9.457c3.229-3.65,6.598-7.277,10.013-10.778l10.218,9.96
	C318.038,213.544,314.826,217.002,311.747,220.481z M746.04,219.986c-3.096-3.483-6.313-6.933-9.563-10.253l10.195-9.98
	c3.409,3.481,6.782,7.097,10.032,10.748L746.04,219.986z M331.314,200.407l-9.726-10.441c3.585-3.34,7.284-6.625,10.994-9.763
	l9.216,10.896C338.259,194.09,334.735,197.221,331.314,200.407z M726.427,199.955c-3.426-3.175-6.962-6.301-10.51-9.291
	l9.192-10.914c3.722,3.134,7.429,6.411,11.021,9.74L726.427,199.955z M352.711,182.307l-8.683-11.324
	c3.872-2.97,7.869-5.884,11.877-8.66l8.127,11.729C360.213,176.698,356.405,179.476,352.711,182.307z M704.975,181.893
	c-3.72-2.838-7.542-5.61-11.356-8.24l8.098-11.75c4.003,2.76,8.012,5.668,11.913,8.642L704.975,181.893z M375.734,166.357
	l-7.553-12.106c4.136-2.582,8.393-5.096,12.65-7.473l6.957,12.46C383.73,161.503,379.676,163.898,375.734,166.357z M681.873,165.972
	c-3.959-2.455-8.03-4.847-12.105-7.108l6.928-12.477c4.271,2.373,8.545,4.881,12.697,7.455L681.873,165.972z M400.167,152.711
	l-6.349-12.781c4.388-2.178,8.865-4.268,13.305-6.209l5.717,13.074C408.612,148.644,404.346,150.635,400.167,152.711z
	 M657.334,152.351c-4.179-2.062-8.466-4.049-12.74-5.903l5.682-13.091c4.484,1.946,8.985,4.032,13.372,6.195L657.334,152.351z
	 M425.787,141.499l-5.08-13.334c4.553-1.735,9.219-3.383,13.867-4.902l4.431,13.566
	C434.572,138.275,430.125,139.846,425.787,141.499z M631.578,141.173c-4.368-1.646-8.831-3.208-13.266-4.638l4.38-13.581
	c4.653,1.501,9.337,3.14,13.919,4.867L631.578,141.173z M452.429,132.809l-3.759-13.766c4.709-1.286,9.512-2.473,14.279-3.529
	l3.087,13.931C461.495,130.453,456.917,131.583,452.429,132.809z M604.871,132.559c-4.486-1.209-9.067-2.325-13.618-3.317
	l3.041-13.943c4.776,1.042,9.584,2.213,14.29,3.483L604.871,132.559z M479.791,126.749l-2.404-14.065
	c4.796-0.821,9.693-1.538,14.55-2.13l1.727,14.165C489.033,125.284,484.363,125.966,479.791,126.749z M577.487,126.59
	c-4.57-0.768-9.239-1.436-13.873-1.982l1.674-14.171c4.865,0.575,9.767,1.275,14.562,2.081L577.487,126.59z M507.612,123.362
	l-1.043-14.232c4.866-0.355,9.804-0.599,14.688-0.722l0.358,14.264C516.962,122.792,512.249,123.023,507.612,123.362z
	 M549.659,123.292c-4.642-0.323-9.354-0.54-14.009-0.641l0.312-14.267c4.881,0.107,9.822,0.334,14.688,0.673L549.659,123.292z"/>
<g>
	<g>
		<g>
			<path style="fill:#242D3C;" d="M275.519,716.265V398.983c0-4.249,1.653-8.502,4.908-11.771c3.234-3.275,7.532-4.917,11.795-4.917
				h467.555c4.253,0,8.528,1.641,11.812,4.917c3.23,3.269,4.9,7.521,4.9,11.771v317.281H275.519z"/>
			<rect x="303.354" y="410.136" style="fill:#FFFFFF;" width="445.271" height="278.285"/>
			<g>
				<path style="fill:#3E4959;" d="M533.227,396.217c0,3.985-3.292,7.193-7.234,7.193c-3.973,0-7.177-3.208-7.177-7.193
					c0-3.981,3.204-7.166,7.177-7.166C529.935,389.051,533.227,392.235,533.227,396.217z"/>
				<path style="fill:#FFFFFF;" d="M528.805,396.217c0,1.546-1.246,2.767-2.812,2.767c-1.521,0-2.766-1.221-2.766-2.767
					c0-1.52,1.244-2.768,2.766-2.768C527.559,393.449,528.805,394.697,528.805,396.217z"/>
			</g>
		</g>
		<g>
			<rect x="219.878" y="716.265" style="fill:#E6E5E5;" width="612.251" height="11.141"/>
			<path style="fill:#CCCBCA;" d="M832.13,727.405c0,4.979-1.894,9.967-5.735,13.77c-3.788,3.816-8.731,5.717-13.781,5.717H239.341
				c-5.002,0-9.949-1.9-13.781-5.717c-3.809-3.803-5.681-8.791-5.681-13.77l0,0H832.13L832.13,727.405z"/>
			<rect x="470.346" y="716.265" style="fill:#CCCBCA;" width="111.318" height="5.576"/>
		</g>
	</g>
	<g>
		<polygon style="fill:#06B2B8;" points="526.01,296.487 345.931,426.59 345.931,645.875 706.078,645.875 706.078,426.59 		"/>
		<g>
			<g>
				<rect x="358.324" y="332.048" style="fill:#FFFFFF;" width="318.861" height="223.72"/>
				<g>
					<rect x="556.069" y="351.824" style="fill:#CCCBCA;" width="32.504" height="32.507"/>
					<g>
						<rect x="601.112" y="351.824" style="fill:#242D3C;" width="43.858" height="4.64"/>
						<rect x="601.112" y="361.108" style="fill:#242D3C;" width="56.29" height="4.645"/>
						<rect x="601.112" y="370.399" style="fill:#242D3C;" width="56.29" height="4.645"/>
						<rect x="601.112" y="379.687" style="fill:#242D3C;" width="28.144" height="4.645"/>
					</g>
				</g>
				<g>
					<rect x="556.069" y="396.867" style="fill:#CCCBCA;" width="32.504" height="32.512"/>
					<g>
						<rect x="601.112" y="396.867" style="fill:#242D3C;" width="43.858" height="4.642"/>
						<rect x="601.112" y="406.154" style="fill:#242D3C;" width="56.29" height="4.645"/>
						<rect x="601.112" y="415.445" style="fill:#242D3C;" width="56.29" height="4.644"/>
						<rect x="601.112" y="424.732" style="fill:#242D3C;" width="28.144" height="4.645"/>
					</g>
				</g>
				<g>
					<rect x="556.069" y="441.915" style="fill:#CCCBCA;" width="32.504" height="32.508"/>
					<g>
						<rect x="601.112" y="441.913" style="fill:#242D3C;" width="43.858" height="4.645"/>
						<rect x="601.112" y="451.198" style="fill:#242D3C;" width="56.29" height="4.646"/>
						<rect x="601.112" y="460.485" style="fill:#242D3C;" width="56.29" height="4.646"/>
						<rect x="601.112" y="469.774" style="fill:#242D3C;" width="28.144" height="4.648"/>
					</g>
				</g>
				<g>
					<rect x="378.095" y="494.192" style="fill:#242D3C;" width="54.378" height="4.651"/>
					<rect x="405.284" y="503.479" style="fill:#242D3C;" width="252.118" height="4.651"/>
					<rect x="405.284" y="512.774" style="fill:#242D3C;" width="252.118" height="4.641"/>
					<rect x="405.284" y="522.062" style="fill:#242D3C;" width="252.118" height="4.638"/>
					<rect x="405.284" y="531.351" style="fill:#242D3C;" width="131.002" height="4.641"/>
				</g>
				<g>
					<rect x="364.672" y="349.397" style="fill:#E6E5E5;" width="172.702" height="126.379"/>
					<g>
						<g>
							<g>
								<rect x="377.713" y="454.766" style="fill:#CCCBCA;" width="146.624" height="0.541"/>
								<rect x="377.713" y="447.049" style="fill:#CCCBCA;" width="146.624" height="0.542"/>
								<rect x="377.713" y="439.336" style="fill:#CCCBCA;" width="146.624" height="0.538"/>
								<rect x="377.713" y="431.62" style="fill:#CCCBCA;" width="146.624" height="0.539"/>
								<rect x="377.713" y="423.904" style="fill:#CCCBCA;" width="146.624" height="0.54"/>
								<rect x="377.713" y="416.188" style="fill:#CCCBCA;" width="146.624" height="0.539"/>
								<rect x="377.713" y="408.448" style="fill:#CCCBCA;" width="146.624" height="0.539"/>
								<rect x="377.713" y="400.733" style="fill:#CCCBCA;" width="146.624" height="0.539"/>
								<rect x="377.713" y="393.018" style="fill:#CCCBCA;" width="146.624" height="0.541"/>
								<rect x="377.713" y="385.305" style="fill:#CCCBCA;" width="146.624" height="0.538"/>
								<rect x="377.713" y="377.588" style="fill:#CCCBCA;" width="146.624" height="0.541"/>
								<rect x="377.713" y="369.873" style="fill:#CCCBCA;" width="146.624" height="0.54"/>
								<rect x="508.618" y="362.427" style="fill:#CCCBCA;" width="0.542" height="100.322"/>
								<rect x="516.354" y="362.427" style="fill:#CCCBCA;" width="0.542" height="100.322"/>
								<rect x="500.922" y="362.427" style="fill:#CCCBCA;" width="0.541" height="100.322"/>
								<rect x="493.188" y="362.427" style="fill:#CCCBCA;" width="0.541" height="100.322"/>
								<rect x="485.496" y="362.427" style="fill:#CCCBCA;" width="0.541" height="100.322"/>
								<rect x="477.756" y="362.427" style="fill:#CCCBCA;" width="0.542" height="100.322"/>
								<rect x="470.065" y="362.427" style="fill:#CCCBCA;" width="0.543" height="100.322"/>
								<rect x="462.327" y="362.427" style="fill:#CCCBCA;" width="0.542" height="100.322"/>
								<rect x="454.634" y="362.427" style="fill:#CCCBCA;" width="0.54" height="100.322"/>
								<rect x="446.895" y="362.427" style="fill:#CCCBCA;" width="0.541" height="100.322"/>
								<rect x="439.167" y="362.427" style="fill:#CCCBCA;" width="0.541" height="100.322"/>
								<rect x="431.466" y="362.427" style="fill:#CCCBCA;" width="0.541" height="100.322"/>
								<rect x="423.741" y="362.427" style="fill:#CCCBCA;" width="0.536" height="100.322"/>
								<rect x="416.038" y="362.427" style="fill:#CCCBCA;" width="0.539" height="100.322"/>
								<rect x="408.307" y="362.427" style="fill:#CCCBCA;" width="0.54" height="100.322"/>
								<rect x="400.607" y="362.427" style="fill:#CCCBCA;" width="0.539" height="100.322"/>
								<rect x="392.876" y="362.427" style="fill:#CCCBCA;" width="0.541" height="100.322"/>
								<rect x="385.177" y="362.427" style="fill:#CCCBCA;" width="0.541" height="100.322"/>
							</g>
							<path style="fill:#CCCBCA;" d="M525.881,464.293H376.17V360.885h149.711V464.293z M379.256,461.206h143.538v-97.234H379.256
								V461.206z"/>
							<g>
								<polygon style="fill:#CCCBCA;" points="527.43,363.972 522.794,363.972 522.794,359.337 525.881,359.337 525.881,360.885 
									527.43,360.885 								"/>
								<polygon style="fill:#CCCBCA;" points="525.881,465.835 522.794,465.835 522.794,461.206 527.43,461.206 527.43,464.293 
									525.881,464.293 								"/>
								<polygon style="fill:#CCCBCA;" points="379.256,363.972 374.628,363.972 374.628,360.885 376.17,360.885 376.17,359.337 
									379.256,359.337 								"/>
								<polygon style="fill:#CCCBCA;" points="379.256,465.835 376.17,465.835 376.17,464.293 374.628,464.293 374.628,461.206 
									379.256,461.206 								"/>
							</g>
						</g>
					</g>
					<g>
						<g>
							<path style="fill:#06B2B8;" d="M455.62,455.284h-9.174l-1.771-8.814c-1.744-0.322-3.452-0.775-5.099-1.354l-5.929,6.74
								l-7.953-4.589l2.876-8.503c-1.335-1.145-2.585-2.391-3.73-3.725l-8.504,2.871l-4.59-7.951l6.738-5.925
								c-0.578-1.643-1.029-3.349-1.355-5.097l-8.805-1.769v-9.177l8.805-1.768c0.324-1.738,0.779-3.447,1.357-5.103l-6.742-5.924
								l4.595-7.943l8.499,2.87c1.146-1.338,2.397-2.587,3.733-3.731l-2.874-8.498l7.951-4.599l5.929,6.745
								c1.64-0.575,3.346-1.027,5.094-1.351l1.769-8.819h9.181l1.768,8.815c1.743,0.323,3.448,0.775,5.096,1.351l5.925-6.731
								l7.953,4.588l-2.872,8.494c1.346,1.156,2.594,2.407,3.733,3.735l8.499-2.868l4.589,7.943l-6.736,5.916
								c0.576,1.647,1.032,3.36,1.355,5.108l8.8,1.771v9.174l-8.8,1.77c-0.323,1.748-0.776,3.454-1.348,5.096l6.729,5.926
								l-4.587,7.951l-8.502-2.869c-1.137,1.323-2.386,2.57-3.731,3.729l2.872,8.497l-7.953,4.589l-5.925-6.734
								c-1.642,0.573-3.344,1.025-5.096,1.348L455.62,455.284z M449.419,451.653h3.228l1.683-8.375l1.263-0.188
								c2.352-0.348,4.628-0.949,6.763-1.793l1.185-0.468l5.63,6.399l2.803-1.617l-2.725-8.064l0.991-0.795
								c1.851-1.482,3.519-3.15,4.958-4.959l0.792-0.998l8.076,2.727l1.618-2.802l-6.392-5.628l0.467-1.185
								c0.841-2.136,1.444-4.413,1.793-6.769l0.188-1.26l8.361-1.682v-3.232l-8.361-1.684l-0.188-1.26
								c-0.349-2.354-0.956-4.635-1.801-6.781l-0.468-1.186l6.399-5.617l-1.614-2.796l-8.08,2.727l-0.791-1
								c-1.44-1.814-3.111-3.486-4.958-4.964l-0.991-0.793l2.725-8.061l-2.803-1.617l-5.63,6.391l-1.182-0.466
								c-2.149-0.843-4.428-1.448-6.769-1.795l-1.26-0.188l-1.683-8.376h-3.239l-1.678,8.38l-1.26,0.188
								c-2.354,0.348-4.633,0.954-6.766,1.796l-1.187,0.468l-5.631-6.405l-2.802,1.622l2.732,8.074l-1.001,0.794
								c-1.83,1.456-3.498,3.123-4.952,4.956l-0.793,0.998l-8.076-2.729l-1.618,2.796l6.398,5.623l-0.464,1.186
								c-0.851,2.162-1.457,4.443-1.802,6.777l-0.185,1.262l-8.37,1.681v3.23l8.37,1.683l0.185,1.262
								c0.348,2.35,0.954,4.625,1.799,6.764l0.467,1.186l-6.4,5.63l1.62,2.802l8.076-2.727l0.793,0.996
								c1.454,1.828,3.122,3.492,4.952,4.951l0.999,0.793l-2.729,8.076l2.801,1.617l5.631-6.402l1.187,0.467
								c2.146,0.848,4.423,1.449,6.77,1.797l1.26,0.188L449.419,451.653z"/>
							<g>
								<path style="fill:#242D3C;" d="M451.086,437.083c-1.312,0-2.6-0.102-3.852-0.297l0.561-3.575
									c1.071,0.168,2.171,0.255,3.265,0.255l0.069,2.604l-0.034,1.014C451.094,437.083,451.092,437.083,451.086,437.083z
									 M454.988,436.767l-0.58-3.572c1.075-0.174,2.143-0.436,3.176-0.777l1.137,3.435
									C457.506,436.257,456.249,436.563,454.988,436.767z M443.499,435.89c-1.217-0.395-2.412-0.889-3.552-1.471l1.644-3.225
									c0.972,0.496,1.99,0.918,3.023,1.254L443.499,435.89z M462.262,434.36l-1.665-3.213c0.961-0.5,1.899-1.082,2.778-1.729
									l2.146,2.915C464.489,433.093,463.393,433.774,462.262,434.36z M436.672,432.411c-1.032-0.751-2.016-1.59-2.92-2.49
									l2.556-2.562c0.771,0.769,1.61,1.484,2.492,2.125L436.672,432.411z M468.424,429.823l-2.57-2.546
									c0.768-0.776,1.479-1.615,2.117-2.499l2.934,2.115C470.161,427.929,469.323,428.915,468.424,429.823z M431.252,427.01
									c-0.753-1.032-1.434-2.132-2.017-3.266l3.217-1.657c0.497,0.97,1.075,1.904,1.72,2.785L431.252,427.01z M472.902,423.611
									l-3.231-1.632c0.492-0.972,0.912-1.991,1.245-3.029l3.444,1.105C473.968,421.272,473.477,422.47,472.902,423.611z
									 M427.753,420.199c-0.4-1.217-0.704-2.473-0.907-3.735l3.575-0.574c0.172,1.076,0.431,2.145,0.77,3.18L427.753,420.199z
									 M475.241,416.315l-3.577-0.549c0.159-1.054,0.242-2.129,0.242-3.194l3.618-0.079v0.079
									C475.525,413.821,475.431,415.081,475.241,416.315z M426.537,412.632v-0.06c0-1.261,0.097-2.527,0.291-3.765l3.577,0.558
									c-0.166,1.053-0.248,2.132-0.248,3.207L426.537,412.632z M471.643,409.238c-0.177-1.079-0.438-2.147-0.778-3.179
									l3.439-1.131c0.395,1.21,0.705,2.464,0.908,3.731L471.643,409.238z M431.157,406.183l-3.441-1.112
									c0.394-1.218,0.889-2.413,1.469-3.554l3.224,1.643C431.914,404.13,431.495,405.148,431.157,406.183z M469.604,403.044
									c-0.501-0.969-1.081-1.905-1.726-2.783l2.917-2.14c0.756,1.03,1.437,2.127,2.022,3.261L469.604,403.044z M434.121,400.366
									l-2.93-2.126c0.751-1.034,1.59-2.017,2.492-2.922l2.562,2.554C435.474,398.646,434.758,399.483,434.121,400.366z
									 M465.742,397.779c-0.772-0.769-1.614-1.479-2.496-2.12l2.119-2.932c1.041,0.749,2.023,1.587,2.928,2.486L465.742,397.779z
									 M438.729,395.741l-2.135-2.923c1.03-0.752,2.128-1.432,3.264-2.016l1.658,3.217
									C440.547,394.52,439.609,395.098,438.729,395.741z M460.448,393.953c-0.969-0.494-1.988-0.911-3.022-1.244l1.105-3.446
									c1.215,0.392,2.412,0.884,3.556,1.463L460.448,393.953z M444.534,392.756l-1.13-3.438c1.212-0.398,2.468-0.705,3.732-0.909
									l0.578,3.573C446.634,392.156,445.566,392.417,444.534,392.756z M454.242,391.957c-1.048-0.16-2.118-0.242-3.182-0.242
									l-0.092-3.618h0.092c1.249,0,2.501,0.097,3.729,0.284L454.242,391.957z"/>
							</g>
							<path style="fill:#06B2B8;" d="M451.032,418.952c-3.509,0-6.364-2.856-6.364-6.367c0-3.506,2.855-6.357,6.364-6.357
								c3.508,0,6.363,2.852,6.363,6.357C457.396,416.096,454.541,418.952,451.032,418.952z M451.032,409.855
								c-1.509,0-2.737,1.225-2.737,2.729c0,1.509,1.228,2.738,2.737,2.738c1.508,0,2.734-1.229,2.734-2.738
								C453.767,411.08,452.541,409.855,451.032,409.855z"/>
						</g>
						<path style="fill:#242D3C;" d="M418.103,379.656h-34.45v-11.31h34.45V379.656z M387.243,376.063h27.267v-4.125h-27.267
							V376.063z"/>
						<g>
							<rect x="485.764" y="445.524" style="fill:#242D3C;" width="30.861" height="3.592"/>
							<rect x="485.764" y="453.24" style="fill:#242D3C;" width="15.428" height="3.592"/>
						</g>
						<g>
							<rect x="385.448" y="383.777" style="fill:#242D3C;" width="15.428" height="3.593"/>
							<rect x="385.448" y="391.49" style="fill:#242D3C;" width="15.428" height="3.592"/>
							<rect x="385.448" y="399.205" style="fill:#242D3C;" width="15.428" height="3.593"/>
						</g>
					</g>
				</g>
			</g>
		</g>
		<polygon style="fill:#21D8DE;" points="706.078,426.59 706.078,645.875 526.01,536.243 		"/>
		<polygon style="fill:#16C6CC;" points="345.931,426.59 345.931,645.875 706.078,645.875 		"/>
		<g>
			<g>
				<rect x="678.798" y="257.096" style="fill:#FF6D3B;" width="121.78" height="74.919"/>
				<polygon style="fill:#FF6D3B;" points="692.842,347.931 692.842,332.015 709.336,332.015 				"/>
			</g>
			<g>
				<rect x="692.842" y="270.662" style="fill:#FFFFFF;" width="46.847" height="5.308"/>
				<rect x="692.842" y="281.281" style="fill:#FFFFFF;" width="93.688" height="5.31"/>
				<rect x="692.842" y="291.903" style="fill:#FFFFFF;" width="93.688" height="5.311"/>
				<rect x="692.842" y="302.524" style="fill:#FFFFFF;" width="93.688" height="5.306"/>
				<rect x="692.842" y="313.139" style="fill:#FFFFFF;" width="93.688" height="5.308"/>
			</g>
		</g>
		<g>
			<path style="fill:#FF6D3B;" d="M313.31,451.073c0,29.512-23.917,53.415-53.415,53.415c-29.49,0-53.409-23.903-53.409-53.415
				c0-29.505,23.919-53.405,53.409-53.405C289.392,397.668,313.31,421.568,313.31,451.073z"/>
			<g>
				<polygon style="fill:#FFFFFF;" points="264.806,468.136 254.993,468.136 252.071,417.778 267.726,417.778 				"/>
				<rect x="254.993" y="474.544" style="fill:#FFFFFF;" width="9.813" height="9.825"/>
			</g>
		</g>
	</g>
</g>
<g>
	<g>
		<path style="fill:#E6E5E5;" d="M488.227,130.123c0,23.976-19.433,43.407-43.401,43.407c-23.979,0-43.411-19.432-43.411-43.407
			c0-23.977,19.432-43.407,43.411-43.407C468.794,86.716,488.227,106.146,488.227,130.123z"/>
		<path style="fill:#16C6CC;" d="M473.542,130.123c0,15.858-12.864,28.712-28.716,28.712c-15.862,0-28.713-12.854-28.713-28.712
			c0-15.859,12.851-28.712,28.713-28.712C460.678,101.411,473.542,114.264,473.542,130.123z"/>
		<path style="fill:#242D3C;" d="M458.395,130.123c0,7.497-6.076,13.572-13.569,13.572c-7.502,0-13.575-6.076-13.575-13.572
			c0-7.5,6.073-13.574,13.575-13.574C452.319,116.548,458.395,122.622,458.395,130.123z"/>
		<path style="fill:#FFFFFF;" d="M442.246,120.526c0,3.876-3.146,7.018-7.018,7.018c-3.881,0-7.02-3.142-7.02-7.018
			c0-3.879,3.139-7.018,7.02-7.018C439.101,113.508,442.246,116.647,442.246,120.526z"/>
		<path style="fill:#FFFFFF;" d="M437.723,132.923c0,1.382-1.115,2.497-2.494,2.497c-1.377,0-2.494-1.115-2.494-2.497
			c0-1.373,1.116-2.492,2.494-2.492C436.607,130.431,437.723,131.55,437.723,132.923z"/>
	</g>
	<g>
		<g>
			<g>
				<path style="fill:#242D3C;" d="M443.683,185.062c-0.776-0.016-1.561-0.048-2.329-0.096l0.143-2.274
					c0.738,0.046,1.488,0.078,2.233,0.092L443.683,185.062z M446.016,185.062l-0.049-2.278c0.746-0.016,1.498-0.048,2.235-0.094
					l0.143,2.274C447.576,185.014,446.793,185.045,446.016,185.062z M439.03,184.772c-0.773-0.082-1.552-0.179-2.314-0.293
					l0.333-2.254c0.73,0.108,1.477,0.203,2.218,0.28L439.03,184.772z M450.669,184.769l-0.241-2.267
					c0.738-0.077,1.484-0.172,2.218-0.281l0.335,2.254C452.216,184.588,451.439,184.687,450.669,184.769z M434.417,184.09
					c-0.764-0.146-1.532-0.311-2.281-0.489l0.523-2.218c0.719,0.17,1.454,0.328,2.186,0.468L434.417,184.09z M455.281,184.083
					l-0.431-2.238c0.73-0.142,1.467-0.299,2.185-0.47l0.527,2.217C456.811,183.77,456.043,183.936,455.281,184.083z
					 M429.878,183.018c-0.745-0.21-1.495-0.439-2.231-0.681l0.711-2.166c0.706,0.231,1.425,0.452,2.139,0.653L429.878,183.018z
					 M459.819,183.004l-0.621-2.191c0.714-0.203,1.433-0.424,2.137-0.655l0.713,2.165
					C461.315,182.564,460.565,182.793,459.819,183.004z M425.441,181.559c-0.723-0.273-1.454-0.566-2.169-0.871l0.894-2.096
					c0.686,0.292,1.386,0.574,2.079,0.835L425.441,181.559z M464.248,181.544l-0.804-2.13c0.692-0.263,1.389-0.543,2.068-0.833
					l0.896,2.096C465.699,180.979,464.973,181.271,464.248,181.544z M421.142,179.724c-0.701-0.334-1.401-0.688-2.085-1.053
					l1.069-2.012c0.655,0.349,1.328,0.688,2,1.009L421.142,179.724z M468.529,179.714l-0.985-2.055
					c0.668-0.319,1.339-0.659,1.992-1.006l1.072,2.01C469.925,179.028,469.224,179.381,468.529,179.714z M417.017,177.533
					c-0.667-0.394-1.336-0.806-1.988-1.227l1.237-1.914c0.625,0.404,1.265,0.798,1.906,1.175L417.017,177.533z M472.638,177.527
					l-1.155-1.965c0.638-0.376,1.278-0.77,1.899-1.172l1.238,1.914C473.972,176.724,473.305,177.135,472.638,177.527z
					 M413.097,174.998c-0.632-0.448-1.264-0.915-1.876-1.389l1.395-1.802c0.587,0.454,1.192,0.902,1.798,1.332L413.097,174.998z
					 M476.549,174.997l-1.317-1.858c0.604-0.428,1.208-0.876,1.796-1.329l1.394,1.801
					C477.811,174.083,477.181,174.552,476.549,174.997z M480.237,172.146l-1.47-1.742c0.564-0.477,1.131-0.975,1.678-1.477
					l1.541,1.677C481.415,171.129,480.827,171.647,480.237,172.146z M409.405,172.143c-0.591-0.5-1.18-1.018-1.75-1.542l1.542-1.678
					c0.546,0.503,1.111,1,1.678,1.478L409.405,172.143z M483.671,168.99l-1.612-1.61c0.526-0.528,1.048-1.072,1.548-1.615
					l1.677,1.543C484.763,167.873,484.221,168.439,483.671,168.99z M405.971,168.987c-0.548-0.549-1.091-1.115-1.614-1.683
					l1.678-1.542c0.501,0.545,1.021,1.088,1.547,1.615L405.971,168.987z M486.827,165.558l-1.741-1.47
					c0.478-0.565,0.952-1.152,1.407-1.74l1.801,1.395C487.819,164.357,487.326,164.967,486.827,165.558z M402.814,165.555
					c-0.499-0.591-0.991-1.201-1.464-1.812l1.8-1.395c0.455,0.586,0.928,1.171,1.406,1.737L402.814,165.555z M399.962,161.871
					c-0.449-0.634-0.889-1.282-1.308-1.929l1.914-1.239c0.4,0.62,0.823,1.243,1.252,1.849L399.962,161.871z M489.683,161.869
					l-1.859-1.317c0.43-0.607,0.853-1.231,1.255-1.854l1.913,1.238C490.572,160.585,490.132,161.234,489.683,161.869z
					 M397.431,157.96c-0.392-0.666-0.774-1.349-1.139-2.032l2.012-1.071c0.348,0.654,0.716,1.309,1.091,1.946L397.431,157.96z
					 M492.218,157.949l-1.963-1.156c0.375-0.639,0.743-1.295,1.093-1.953l2.012,1.071
					C492.995,156.596,492.61,157.283,492.218,157.949z M395.243,153.85c-0.335-0.7-0.659-1.413-0.962-2.119l2.095-0.898
					c0.29,0.678,0.6,1.361,0.921,2.033L395.243,153.85z M494.414,153.825l-2.056-0.983c0.322-0.672,0.633-1.36,0.924-2.042
					l2.095,0.896C495.072,152.408,494.75,153.124,494.414,153.825z M393.412,149.572c-0.275-0.723-0.537-1.463-0.78-2.198
					l2.165-0.715c0.233,0.705,0.484,1.414,0.746,2.108L393.412,149.572z M496.25,149.527l-2.132-0.803
					c0.262-0.699,0.513-1.409,0.746-2.114l2.165,0.714C496.786,148.058,496.524,148.8,496.25,149.527z M391.948,145.143
					c-0.211-0.745-0.409-1.504-0.587-2.257l2.217-0.528c0.172,0.723,0.361,1.45,0.563,2.164L391.948,145.143z M497.711,145.092
					l-2.194-0.619c0.202-0.716,0.392-1.445,0.562-2.165l2.218,0.524C498.119,143.585,497.922,144.345,497.711,145.092z"/>
			</g>
		</g>
		<g>
			<path style="fill:#242D3C;" d="M503.473,134.961h-9.677v-9.677h9.677V134.961z M496.076,132.682h5.119v-5.12h-5.119V132.682z"/>
		</g>
		<g>
			<path style="fill:#242D3C;" d="M395.85,134.961h-9.68v-9.677h9.68V134.961z M388.449,132.682h5.121v-5.12h-5.121V132.682z"/>
		</g>
		<g>
			<rect x="391.008" y="75.169" style="fill:#242D3C;" width="107.629" height="2.278"/>
			<path style="fill:#242D3C;" d="M395.08,76.308c0,2.251-1.82,4.069-4.071,4.069c-2.248,0-4.067-1.818-4.067-4.069
				c0-2.247,1.82-4.069,4.067-4.069C393.259,72.239,395.08,74.061,395.08,76.308z"/>
			<path style="fill:#242D3C;" d="M502.704,76.308c0,2.251-1.818,4.071-4.066,4.071c-2.254,0-4.073-1.819-4.073-4.071
				c0-2.248,1.819-4.07,4.073-4.07C500.886,72.238,502.704,74.06,502.704,76.308z"/>
		</g>
		<rect x="439.984" y="71.47" style="fill:#242D3C;" width="9.677" height="9.679"/>
		<path style="fill:#242D3C;" d="M497.361,126.5c-1.858-27.513-24.937-49.064-52.544-49.064c-27.612,0-50.69,21.552-52.541,49.064
			l-2.274-0.153c1.931-28.704,26.009-51.189,54.815-51.189c28.801,0,52.88,22.486,54.818,51.189L497.361,126.5z"/>
	</g>
</g>
<g>
	<circle style="fill:#E6E5E5;" cx="710.891" cy="168.636" r="32.256"/>
	<g>
		
			<rect x="657.519" y="158.77" transform="matrix(-0.7071 0.7071 -0.7071 -0.7071 1332.8196 -214.7818)" style="fill:#FF6D3B;" width="106.744" height="19.732"/>
		
			<rect x="652.867" y="160.697" transform="matrix(-0.7071 0.7071 -0.7071 -0.7071 1321.5906 -219.4324)" style="fill:#F15424;" width="106.744" height="6.576"/>
		<g>
			<polygon style="fill:#FFFFFF;" points="747.76,136.416 748.938,135.238 753.587,139.889 752.414,141.068 			"/>
			
				<rect x="747.812" y="140.865" transform="matrix(-0.707 0.7073 -0.7073 -0.707 1378.6956 -286.2236)" style="fill:#FFFFFF;" width="1.663" height="3.289"/>
			
				<rect x="743.453" y="141.252" transform="matrix(-0.7064 0.7078 -0.7078 -0.7064 1372.3425 -280.193)" style="fill:#FFFFFF;" width="1.667" height="6.579"/>
			
				<rect x="741.422" y="147.254" transform="matrix(-0.708 0.7062 -0.7062 -0.708 1372.9165 -269.8847)" style="fill:#FFFFFF;" width="1.665" height="3.287"/>
			
				<rect x="737.065" y="147.64" transform="matrix(-0.7068 0.7074 -0.7074 -0.7068 1366.2214 -264.3812)" style="fill:#FFFFFF;" width="1.666" height="6.577"/>
			
				<rect x="735.036" y="153.642" transform="matrix(-0.7056 0.7086 -0.7086 -0.7056 1365.1575 -256.5536)" style="fill:#FFFFFF;" width="1.665" height="3.288"/>
			
				<rect x="730.677" y="154.028" transform="matrix(-0.7077 0.7065 -0.7065 -0.7077 1360.3408 -248.1791)" style="fill:#FFFFFF;" width="1.666" height="6.576"/>
			
				<rect x="728.649" y="160.029" transform="matrix(-0.7064 0.7078 -0.7078 -0.7064 1359.2056 -240.4802)" style="fill:#FFFFFF;" width="1.665" height="3.289"/>
			
				<rect x="724.292" y="160.416" transform="matrix(-0.7068 0.7074 -0.7074 -0.7068 1353.4543 -233.541)" style="fill:#FFFFFF;" width="1.663" height="6.575"/>
			
				<rect x="722.261" y="166.418" transform="matrix(-0.7075 0.7067 -0.7067 -0.7075 1353.4786 -224.0139)" style="fill:#FFFFFF;" width="1.665" height="3.286"/>
			<polygon style="fill:#FFFFFF;" points="715.822,168.355 716.997,167.176 721.649,171.829 720.477,173.006 			"/>
			
				<rect x="715.871" y="172.805" transform="matrix(-0.7075 0.7067 -0.7067 -0.7075 1347.0828 -208.5914)" style="fill:#FFFFFF;" width="1.666" height="3.287"/>
			
				<rect x="711.516" y="173.192" transform="matrix(-0.7073 0.707 -0.707 -0.7073 1340.9231 -202.3057)" style="fill:#FFFFFF;" width="1.665" height="6.576"/>
			
				<rect x="709.485" y="179.194" transform="matrix(-0.7062 0.708 -0.708 -0.7062 1339.9927 -194.3453)" style="fill:#FFFFFF;" width="1.665" height="3.286"/>
			
				<rect x="705.129" y="179.578" transform="matrix(-0.707 0.7073 -0.7073 -0.707 1334.3812 -187.1471)" style="fill:#FFFFFF;" width="1.665" height="6.578"/>
			
				<rect x="703.097" y="185.581" transform="matrix(-0.7077 0.7065 -0.7065 -0.7077 1334.3743 -177.6192)" style="fill:#FFFFFF;" width="1.666" height="3.287"/>
			<polygon style="fill:#FFFFFF;" points="696.659,187.518 697.837,186.339 702.485,190.99 701.311,192.171 			"/>
			
				<rect x="696.707" y="191.969" transform="matrix(-0.7075 0.7067 -0.7067 -0.7075 1327.9028 -162.3275)" style="fill:#FFFFFF;" width="1.667" height="3.287"/>
			<polygon style="fill:#FFFFFF;" points="690.271,193.903 691.449,192.729 696.097,197.379 694.925,198.558 			"/>
			
				<rect x="690.322" y="198.356" transform="matrix(-0.7064 0.7078 -0.7078 -0.7064 1320.9348 -147.9523)" style="fill:#FFFFFF;" width="1.665" height="3.288"/>
			<polygon style="fill:#FFFFFF;" points="683.881,200.293 685.061,199.117 689.709,203.767 688.536,204.945 			"/>
			
				<rect x="683.935" y="204.743" transform="matrix(-0.7067 0.7075 -0.7075 -0.7067 1314.698 -132.2698)" style="fill:#FFFFFF;" width="1.664" height="3.289"/>
			
				<rect x="679.576" y="205.128" transform="matrix(-0.7059 0.7083 -0.7083 -0.7059 1308.3521 -126.3711)" style="fill:#FFFFFF;" width="1.667" height="6.58"/>
		</g>
	</g>
	<g>
		<g>
			<path style="fill:#E6E5E5;" d="M687.473,131.43l-5.155,8.631l-8.632,5.154c-0.121-0.208-0.214-0.431-0.283-0.657
				c-0.02-0.076-0.04-0.147-0.059-0.221l-4.847-18.096l18.096,4.846c0.076,0.02,0.143,0.04,0.222,0.06
				C687.04,131.218,687.264,131.309,687.473,131.43z"/>
			<polygon style="fill:#CCCBCA;" points="668.497,126.242 683.115,136.271 683.524,136.622 686.593,131.088 			"/>
			<polygon style="fill:#3E4959;" points="668.497,126.242 670.238,132.745 675,127.982 			"/>
			<polygon style="fill:#242D3C;" points="668.497,126.242 673.389,129.596 675,127.982 			"/>
		</g>
		<g>
			<g>
				
					<rect x="701.445" y="131.921" transform="matrix(0.7069 -0.7073 0.7073 0.7069 85.0443 548.7955)" style="fill:#21D8DE;" width="6.573" height="79.714"/>
				
					<rect x="706.093" y="127.272" transform="matrix(0.7071 -0.7071 0.7071 0.7071 89.6169 550.5927)" style="fill:#16C6CC;" width="6.581" height="79.71"/>
				
					<rect x="710.745" y="122.623" transform="matrix(0.7073 -0.7069 0.7069 0.7073 94.1232 552.2912)" style="fill:#06B2B8;" width="6.576" height="79.711"/>
			</g>
			<g>
				<circle style="fill:#21D8DE;" cx="676.55" cy="143.595" r="3.288"/>
				<circle style="fill:#16C6CC;" cx="681.201" cy="138.945" r="3.288"/>
				<circle style="fill:#06B2B8;" cx="685.851" cy="134.294" r="3.288"/>
			</g>
		</g>
		<g>
			
				<rect x="730.296" y="194.236" transform="matrix(0.7071 -0.7071 0.7071 0.7071 76.8556 581.3489)" style="fill:#E6E5E5;" width="19.73" height="7.337"/>
			<polygon style="fill:#CCCBCA;" points="749.73,193.521 745.08,198.175 739.891,192.983 744.542,188.335 			"/>
		</g>
		<g>
			<path style="fill:#3E4959;" d="M752.131,195.922c0.714,0.716,1.154,1.7,1.154,2.791c0.001,1.091-0.44,2.076-1.154,2.792
				l-8.371,8.37c-0.716,0.715-1.7,1.156-2.791,1.156s-2.075-0.441-2.791-1.155l-2.398-2.402l13.951-13.952L752.131,195.922z"/>
			<path style="fill:#242D3C;" d="M745.08,198.175l2.399,2.401c0.714,0.71,1.156,1.701,1.156,2.789c0,1.09-0.442,2.077-1.156,2.792
				l4.651-4.653c0.714-0.716,1.155-1.701,1.154-2.792c0-1.091-0.44-2.075-1.154-2.791l-2.4-2.4L745.08,198.175z"/>
		</g>
	</g>
	<g>
		<g>
			<path style="fill:#242D3C;" d="M699.701,125.184l0.432,1.677c0.542-0.14,1.097-0.27,1.646-0.389l-0.363-1.692
				C700.844,124.903,700.267,125.039,699.701,125.184z"/>
			<path style="fill:#242D3C;" d="M703.145,124.443l0.298,1.706c0.549-0.096,1.111-0.182,1.672-0.258l-0.229-1.715
				C704.301,124.253,703.717,124.344,703.145,124.443z"/>
			<path style="fill:#242D3C;" d="M696.327,126.194l0.562,1.638c0.532-0.182,1.074-0.357,1.612-0.518l-0.497-1.658
				C697.444,125.823,696.881,126.004,696.327,126.194z"/>
			<path style="fill:#242D3C;" d="M693.048,127.465l0.689,1.588c0.515-0.223,1.04-0.438,1.562-0.641l-0.626-1.614
				C694.131,127.008,693.584,127.233,693.048,127.465z"/>
			<path style="fill:#242D3C;" d="M706.635,123.976l0.162,1.724c0.561-0.053,1.128-0.096,1.689-0.125l-0.096-1.729
				C707.807,123.877,707.216,123.921,706.635,123.976z"/>
			<path style="fill:#242D3C;" d="M689.882,128.99l0.813,1.529c0.495-0.263,1.003-0.52,1.507-0.763l-0.751-1.56
				C690.927,128.449,690.397,128.716,689.882,128.99z"/>
			<path style="fill:#242D3C;" d="M726.741,128.513c0.521,0.206,1.047,0.427,1.565,0.656l0.698-1.584
				c-0.537-0.238-1.086-0.467-1.627-0.681L726.741,128.513z"/>
			<path style="fill:#242D3C;" d="M730.605,128.329l-0.762,1.555c0.505,0.248,1.013,0.509,1.507,0.776l0.823-1.524
				C731.659,128.859,731.132,128.587,730.605,128.329z"/>
			<path style="fill:#242D3C;" d="M723.538,127.391c0.536,0.164,1.079,0.342,1.612,0.529l0.572-1.634
				c-0.555-0.194-1.119-0.379-1.678-0.551L723.538,127.391z"/>
			<path style="fill:#242D3C;" d="M716.932,125.926c0.555,0.078,1.118,0.168,1.674,0.268l0.307-1.703
				c-0.578-0.104-1.163-0.198-1.74-0.279L716.932,125.926z"/>
			<path style="fill:#242D3C;" d="M713.564,125.588c0.564,0.034,1.133,0.08,1.688,0.136l0.174-1.723
				c-0.577-0.059-1.169-0.106-1.756-0.142L713.564,125.588z"/>
			<path style="fill:#242D3C;" d="M720.264,126.528c0.546,0.121,1.1,0.255,1.646,0.399l0.44-1.674
				c-0.568-0.149-1.145-0.289-1.713-0.415L720.264,126.528z"/>
			<path style="fill:#242D3C;" d="M710.151,123.783l0.026,1.731l0.072-0.001c0.544-0.008,1.085-0.006,1.621,0.005l0.038-1.73
				c-0.559-0.012-1.12-0.015-1.685-0.006L710.151,123.783z"/>
		</g>
		<g>
			<path style="fill:#242D3C;" d="M667.439,179.826l1.676-0.43c-0.139-0.544-0.27-1.098-0.388-1.648l-1.693,0.364
				C667.158,178.683,667.294,179.26,667.439,179.826z"/>
			<path style="fill:#242D3C;" d="M666.698,176.382l1.706-0.297c-0.096-0.55-0.183-1.112-0.258-1.673l-1.716,0.229
				C666.509,175.226,666.599,175.811,666.698,176.382z"/>
			<path style="fill:#242D3C;" d="M668.449,183.199l1.638-0.561c-0.183-0.532-0.357-1.075-0.519-1.612l-1.657,0.496
				C668.078,182.082,668.259,182.646,668.449,183.199z"/>
			<path style="fill:#242D3C;" d="M669.72,186.479l1.589-0.689c-0.223-0.514-0.439-1.04-0.641-1.562l-1.615,0.626
				C669.264,185.396,669.487,185.943,669.72,186.479z"/>
			<path style="fill:#242D3C;" d="M666.231,172.892l1.724-0.162c-0.053-0.56-0.096-1.128-0.125-1.688l-1.73,0.095
				C666.133,171.72,666.177,172.311,666.231,172.892z"/>
			<path style="fill:#242D3C;" d="M671.245,189.645l1.529-0.812c-0.264-0.497-0.521-1.003-0.763-1.507l-1.561,0.751
				C670.704,188.601,670.971,189.128,671.245,189.645z"/>
			<path style="fill:#242D3C;" d="M670.769,152.786c0.206-0.521,0.426-1.048,0.655-1.566l-1.584-0.699
				c-0.238,0.538-0.467,1.085-0.681,1.628L670.769,152.786z"/>
			<path style="fill:#242D3C;" d="M670.585,148.921l1.554,0.761c0.249-0.505,0.51-1.012,0.776-1.507l-1.522-0.823
				C671.115,147.868,670.843,148.395,670.585,148.921z"/>
			<path style="fill:#242D3C;" d="M669.646,155.989c0.165-0.538,0.342-1.08,0.529-1.613l-1.634-0.572
				c-0.195,0.555-0.38,1.12-0.551,1.678L669.646,155.989z"/>
			<path style="fill:#242D3C;" d="M668.181,162.594c0.079-0.554,0.169-1.117,0.269-1.672l-1.704-0.307
				c-0.104,0.577-0.198,1.163-0.278,1.738L668.181,162.594z"/>
			<path style="fill:#242D3C;" d="M667.844,165.962c0.034-0.565,0.079-1.132,0.137-1.688l-1.723-0.174
				c-0.06,0.578-0.106,1.169-0.142,1.756L667.844,165.962z"/>
			<path style="fill:#242D3C;" d="M668.784,159.263c0.12-0.546,0.255-1.1,0.399-1.646l-1.675-0.44
				c-0.15,0.568-0.29,1.144-0.416,1.712L668.784,159.263z"/>
			<path style="fill:#242D3C;" d="M666.037,169.375l1.731-0.025l-0.001-0.074c-0.008-0.543-0.006-1.083,0.006-1.621l-1.73-0.038
				c-0.013,0.559-0.015,1.121-0.007,1.685L666.037,169.375z"/>
		</g>
		<g>
			<path style="fill:#242D3C;" d="M722.08,212.087l-0.431-1.677c-0.542,0.139-1.097,0.27-1.646,0.389l0.363,1.692
				C720.938,212.369,721.515,212.233,722.08,212.087z"/>
			<path style="fill:#242D3C;" d="M718.638,212.828l-0.298-1.706c-0.55,0.096-1.111,0.183-1.673,0.258l0.23,1.716
				C717.48,213.018,718.065,212.927,718.638,212.828z"/>
			<path style="fill:#242D3C;" d="M725.455,211.078l-0.562-1.638c-0.532,0.183-1.074,0.356-1.612,0.518l0.497,1.659
				C724.337,211.448,724.901,211.268,725.455,211.078z"/>
			<path style="fill:#242D3C;" d="M728.733,209.806l-0.688-1.588c-0.515,0.223-1.04,0.439-1.562,0.641l0.626,1.614
				C727.651,210.264,728.197,210.039,728.733,209.806z"/>
			<path style="fill:#242D3C;" d="M715.147,213.295l-0.162-1.723c-0.561,0.053-1.128,0.095-1.69,0.126l0.097,1.728
				C713.976,213.395,714.567,213.351,715.147,213.295z"/>
			<path style="fill:#242D3C;" d="M731.9,208.282l-0.812-1.529c-0.497,0.263-1.003,0.52-1.508,0.763l0.751,1.559
				C730.855,208.823,731.385,208.556,731.9,208.282z"/>
			<path style="fill:#242D3C;" d="M695.041,208.758c-0.521-0.206-1.047-0.426-1.566-0.654l-0.698,1.583
				c0.538,0.238,1.087,0.467,1.627,0.681L695.041,208.758z"/>
			<path style="fill:#242D3C;" d="M691.177,208.942l0.762-1.555c-0.505-0.248-1.014-0.509-1.507-0.776l-0.824,1.523
				C690.123,208.412,690.65,208.684,691.177,208.942z"/>
			<path style="fill:#242D3C;" d="M698.244,209.88c-0.537-0.164-1.08-0.342-1.613-0.529l-0.571,1.634
				c0.555,0.194,1.119,0.38,1.678,0.551L698.244,209.88z"/>
			<path style="fill:#242D3C;" d="M704.85,211.345c-0.554-0.077-1.117-0.167-1.673-0.268l-0.307,1.704
				c0.578,0.104,1.163,0.197,1.738,0.278L704.85,211.345z"/>
			<path style="fill:#242D3C;" d="M708.217,211.683c-0.563-0.035-1.132-0.08-1.687-0.136l-0.174,1.722
				c0.577,0.059,1.168,0.107,1.756,0.142L708.217,211.683z"/>
			<path style="fill:#242D3C;" d="M701.518,210.743c-0.545-0.121-1.1-0.255-1.646-0.398l-0.439,1.674
				c0.567,0.149,1.145,0.289,1.713,0.416L701.518,210.743z"/>
			<path style="fill:#242D3C;" d="M711.631,213.49l-0.026-1.732l-0.072,0.001c-0.543,0.008-1.084,0.005-1.621-0.005l-0.038,1.73
				c0.558,0.012,1.12,0.014,1.685,0.005L711.631,213.49z"/>
		</g>
		<g>
			<path style="fill:#242D3C;" d="M754.343,157.446l-1.677,0.431c0.139,0.543,0.271,1.097,0.389,1.647l1.692-0.363
				C754.624,158.588,754.488,158.011,754.343,157.446z"/>
			<path style="fill:#242D3C;" d="M755.084,160.889l-1.706,0.297c0.096,0.55,0.183,1.112,0.258,1.673l1.715-0.229
				C755.273,162.046,755.183,161.461,755.084,160.889z"/>
			<path style="fill:#242D3C;" d="M753.333,154.072l-1.638,0.561c0.182,0.532,0.357,1.074,0.519,1.612l1.657-0.496
				C753.704,155.19,753.523,154.625,753.333,154.072z"/>
			<path style="fill:#242D3C;" d="M752.062,150.793l-1.588,0.689c0.223,0.514,0.439,1.04,0.641,1.561l1.614-0.626
				C752.518,151.875,752.295,151.329,752.062,150.793z"/>
			<path style="fill:#242D3C;" d="M755.551,164.379l-1.724,0.163c0.052,0.559,0.096,1.127,0.125,1.688l1.729-0.094
				C755.649,165.551,755.606,164.96,755.551,164.379z"/>
			<path style="fill:#242D3C;" d="M750.537,147.627l-1.529,0.812c0.264,0.496,0.52,1.003,0.763,1.507l1.561-0.751
				C751.078,148.671,750.812,148.144,750.537,147.627z"/>
			<path style="fill:#242D3C;" d="M751.014,184.485c-0.206,0.521-0.427,1.048-0.655,1.566l1.583,0.699
				c0.238-0.538,0.468-1.086,0.682-1.628L751.014,184.485z"/>
			<path style="fill:#242D3C;" d="M751.197,188.35l-1.555-0.762c-0.248,0.505-0.51,1.013-0.776,1.508l1.523,0.823
				C750.667,189.404,750.939,188.876,751.197,188.35z"/>
			<path style="fill:#242D3C;" d="M752.137,181.282c-0.165,0.538-0.343,1.08-0.53,1.613l1.634,0.573
				c0.194-0.556,0.381-1.121,0.551-1.678L752.137,181.282z"/>
			<path style="fill:#242D3C;" d="M753.601,174.677c-0.077,0.555-0.168,1.117-0.269,1.673l1.705,0.306
				c0.104-0.578,0.197-1.163,0.278-1.739L753.601,174.677z"/>
			<path style="fill:#242D3C;" d="M753.938,171.309c-0.034,0.565-0.08,1.132-0.137,1.688l1.723,0.173
				c0.059-0.578,0.106-1.168,0.142-1.755L753.938,171.309z"/>
			<path style="fill:#242D3C;" d="M752.998,178.009c-0.12,0.546-0.255,1.1-0.399,1.646l1.675,0.441
				c0.15-0.567,0.289-1.144,0.415-1.712L752.998,178.009z"/>
			<path style="fill:#242D3C;" d="M755.745,167.896l-1.732,0.025l0.002,0.074c0.008,0.543,0.006,1.083-0.006,1.621l1.73,0.039
				c0.013-0.56,0.015-1.121,0.006-1.685V167.896z"/>
		</g>
	</g>
</g>
<path style="fill:#1B2828;" d="M124.662,106.809v-6.91h-5.46c-0.297-2.23-0.872-4.372-1.701-6.382l4.715-2.73l-3.452-5.981
	l-4.726,2.73c-1.352-1.753-2.921-3.322-4.674-4.674l2.729-4.729l-5.98-3.457l-2.726,4.723c-2.013-0.833-4.154-1.412-6.39-1.71
	v-5.451h-6.907v5.451c-2.233,0.3-4.377,0.881-6.392,1.71l-2.727-4.723l-5.977,3.457l2.722,4.729
	c-1.747,1.352-3.317,2.921-4.668,4.674l-4.728-2.73l-3.455,5.981l4.723,2.726c-0.832,2.016-1.412,4.157-1.707,6.387h-5.458v6.91
	h5.458c0.295,2.233,0.875,4.377,1.707,6.394l-4.723,2.722l3.455,5.983l4.728-2.729c1.351,1.75,2.924,3.32,4.677,4.674l-2.729,4.729
	l5.974,3.452l2.731-4.725c2.013,0.829,4.154,1.41,6.387,1.706v5.46h6.907v-5.46c2.233-0.295,4.375-0.874,6.387-1.704l2.729,4.723
	l5.98-3.452l-2.731-4.733c1.756-1.351,3.325-2.923,4.68-4.673l4.723,2.732l3.457-5.983l-4.72-2.724
	c0.829-2.014,1.404-4.158,1.704-6.392H124.662z M93.545,120.299c-9.355,0-16.945-7.589-16.945-16.945
	c0-9.356,7.589-16.939,16.945-16.939c9.356,0,16.94,7.583,16.94,16.939C110.486,112.709,102.901,120.299,93.545,120.299z"/>
<g>
	<path style="fill:#16C6CC;" d="M183.436,140.3c-1.377,0-2.718,0.102-4.054,0.257c-5.815-24.272-27.66-42.328-53.717-42.328
		c-26.062,0-47.903,18.056-53.722,42.328c-1.325-0.155-2.681-0.257-4.053-0.257c-18.899,0-34.219,15.316-34.219,34.226
		c0,18.895,15.319,34.221,34.219,34.221h115.545c18.899,0,34.226-15.326,34.226-34.221C217.662,155.616,202.335,140.3,183.436,140.3
		z"/>
</g>
<g>
	<path style="fill:#16C6CC;" d="M940.047,279.003c-0.646,0-1.277,0.047-1.905,0.121c-2.733-11.411-13.003-19.898-25.252-19.898
		c-12.252,0-22.52,8.488-25.255,19.898c-0.623-0.073-1.26-0.121-1.905-0.121c-8.885,0-16.086,7.2-16.086,16.089
		c0,8.882,7.201,16.087,16.086,16.087h54.317c8.885,0,16.09-7.205,16.09-16.087C956.137,286.203,948.932,279.003,940.047,279.003z"
		/>
</g>
<g>
	<g>
		<rect x="208.297" y="240.335" style="fill:#16C6CC;" width="88.607" height="85.748"/>
		<polygon style="fill:#16C6CC;" points="219.729,337.517 219.729,326.083 231.162,326.083 		"/>
	</g>
	<g>
		<rect x="219.729" y="251.768" style="fill:#FFFFFF;" width="65.741" height="62.884"/>
		<polygon style="fill:#FFFFFF;" points="274.037,326.083 274.037,314.652 262.606,314.652 		"/>
	</g>
	<g>
		<rect x="231.162" y="263.2" style="fill:#F15424;" width="42.875" height="40.016"/>
		<polygon style="fill:#F15424;" points="238.786,314.652 238.786,303.216 250.216,303.216 		"/>
	</g>
	<g>
		<rect x="238.786" y="281.831" style="fill:#FFFFFF;" width="27.631" height="2.754"/>
		<rect x="238.786" y="276.33" style="fill:#FFFFFF;" width="27.631" height="2.749"/>
		<rect x="238.786" y="270.824" style="fill:#FFFFFF;" width="27.631" height="2.752"/>
		<rect x="238.786" y="287.334" style="fill:#FFFFFF;" width="27.631" height="2.754"/>
		<rect x="238.786" y="292.843" style="fill:#FFFFFF;" width="13.818" height="2.751"/>
	</g>
</g>
<g>
	<g>
		<path style="fill:#D9D8D7;" d="M986.123,409.277c-10.801,0-19.552,8.754-19.552,19.553h39.097
			C1005.668,418.031,996.916,409.277,986.123,409.277z"/>
		<path style="fill:#D9D8D7;" d="M955.111,417.367c-6.333,0-11.467,5.131-11.467,11.463h22.927
			C966.571,422.498,961.439,417.367,955.111,417.367z"/>
	</g>
	<g>
		<path style="fill:#D9D8D7;" d="M91.483,422.732c18.037,0,32.662,14.618,32.662,32.659H58.817
			C58.817,437.351,73.444,422.732,91.483,422.732z"/>
		<path style="fill:#D9D8D7;" d="M134.378,445.158c5.648,0,10.23,4.576,10.23,10.233h-20.463
			C124.146,449.734,128.724,445.158,134.378,445.158z"/>
	</g>
	<g>
		<path style="fill:#D9D8D7;" d="M909.151,111.837c-22.812,0-41.307,18.498-41.307,41.31h82.613
			C950.458,130.335,931.964,111.837,909.151,111.837z"/>
		<path style="fill:#D9D8D7;" d="M842.601,127.902c-13.94,0-25.245,11.299-25.245,25.246h50.489
			C867.845,139.201,856.546,127.902,842.601,127.902z"/>
		<path style="fill:#D9D8D7;" d="M963.466,140.143c-7.188,0-13.008,5.821-13.008,13.004h26.004
			C976.462,145.964,970.644,140.143,963.466,140.143z"/>
	</g>
</g>
</svg>
