<?xml version="1.0" encoding="utf-8"?>
<!-- Generator: Adobe Illustrator 16.0.0, SVG Export Plug-In . SVG Version: 6.00 Build 0)  -->
<!DOCTYPE svg PUBLIC "-//W3C//DTD SVG 1.1//EN" "http://www.w3.org/Graphics/SVG/1.1/DTD/svg11.dtd">
<svg version="1.1" id="Calque_1" xmlns="http://www.w3.org/2000/svg" xmlns:xlink="http://www.w3.org/1999/xlink" x="0px" y="0px"
	 width="100px" height="100px" viewBox="0 0 100 100" enable-background="new 0 0 100 100" xml:space="preserve">
<g>
	<g>
		<g>
			<defs>
				<circle id="SVGID_1_" cx="48.622" cy="55.975" r="43.437"/>
			</defs>
			<clipPath id="SVGID_2_">
				<use xlink:href="#SVGID_1_"  overflow="visible"/>
			</clipPath>
			<path clip-path="url(#SVGID_2_)" fill="#D8D8D8" d="M95.494,70.023c0-2.428-1.971-4.396-4.396-4.396
				c-1.724,0-3.209,0.992-3.932,2.436c-1.225-0.553-2.579-0.865-4.009-0.865c-5.394,0-9.769,4.373-9.769,9.767
				c0,1.079,0.182,2.114,0.506,3.084c-1.375,0.093-2.488,1.111-2.717,2.443c-1.109-0.681-2.41-1.08-3.806-1.08
				c-1.413,0-2.728,0.409-3.847,1.104c-1.112-2.931-3.938-5.016-7.258-5.016c-1.431,0-2.77,0.389-3.918,1.062
				c0.021-0.013,0.041-0.027,0.062-0.041c-1.499-1.293-2.448-3.209-2.448-5.352v-8.713c0-1.666,1.352-3.016,3.016-3.016h-8.71
				c1.664,0,3.015,1.35,3.015,3.016v8.713c0,2.143-0.949,4.059-2.448,5.352c0.021,0.014,0.041,0.028,0.062,0.041
				C43.748,77.887,42.41,77.5,40.98,77.5c-3.321,0-6.147,2.085-7.26,5.016c-1.118-0.695-2.433-1.104-3.846-1.104
				c-1.396,0-2.696,0.399-3.806,1.08c-0.228-1.332-1.341-2.351-2.716-2.443c0.324-0.97,0.505-2.005,0.505-3.084
				c0-5.394-4.374-9.767-9.768-9.767c-1.43,0-2.785,0.312-4.009,0.865c-0.721-1.442-2.208-2.436-3.931-2.436
				c-2.428,0-4.397,1.969-4.397,4.396c0,1.93,1.247,3.564,2.976,4.158c-0.262,0.881-0.407,1.813-0.407,2.78
				c0,4.733,3.368,8.679,7.838,9.575v19.533h36.06h0.001h36.869V86.538c4.47-0.896,7.837-4.843,7.837-9.575
				c0-0.967-0.145-1.898-0.406-2.781C94.247,73.589,95.494,71.954,95.494,70.023z"/>
		</g>
	</g>
	<g>
		<path fill="#FFC107" d="M65.53,72.773c0,0.89-0.722,1.617-1.617,1.617c-0.893,0-1.615-0.728-1.615-1.617
			c0-0.895,0.723-1.618,1.615-1.618C64.809,71.155,65.53,71.879,65.53,72.773z"/>
		<path fill="#242D3C" d="M88.639,55.975c0,0.555-0.451,1.01-1.011,1.01c-0.558,0-1.01-0.455-1.01-1.01
			c0-0.56,0.452-1.012,1.01-1.012C88.188,54.963,88.639,55.415,88.639,55.975z"/>
		<circle fill="#FFC107" cx="18.263" cy="32.521" r="1.769"/>
		<path fill="#FFC107" d="M32.449,35.23c0,0.649-0.528,1.177-1.179,1.177c-0.649,0-1.178-0.528-1.178-1.177
			c0-0.653,0.529-1.182,1.178-1.182C31.921,34.049,32.449,34.579,32.449,35.23z"/>
		<circle fill="#242D3C" cx="35.796" cy="25.656" r="0.606"/>
		<path fill="#242D3C" d="M70.648,10.62c0,1.008-0.816,1.815-1.817,1.815c-1.006,0-1.819-0.807-1.819-1.815
			c0-1.008,0.813-1.815,1.819-1.815C69.832,8.805,70.648,9.611,70.648,10.62z"/>
		<path fill="#242D3C" d="M1.535,60.296c0,0.399-0.325,0.728-0.727,0.728c-0.402,0-0.728-0.328-0.728-0.728
			c0-0.405,0.326-0.729,0.728-0.729C1.21,59.566,1.535,59.893,1.535,60.296z"/>
		<path fill="#FFC107" d="M86.127,42.535c-1.227,0-2.222,0.998-2.222,2.222c0-1.224-0.994-2.222-2.224-2.222
			c1.229,0,2.224-0.997,2.224-2.22C83.905,41.539,84.9,42.535,86.127,42.535z"/>
		<path fill="#FFC107" d="M70.244,28.886c-0.782,0-1.413,0.635-1.413,1.414c0-0.779-0.634-1.414-1.416-1.414
			c0.78,0,1.416-0.634,1.416-1.412C68.831,28.252,69.462,28.886,70.244,28.886z"/>
		<path fill="#FFC107" d="M83.308,59.921c-0.551,0-0.998,0.445-0.998,0.998c0-0.553-0.446-0.998-1-0.998c0.554,0,1-0.447,1-1
			C82.31,59.474,82.757,59.921,83.308,59.921z"/>
		<path fill="#FFC107" d="M11.582,47.537c-1.226,0-2.223,0.997-2.223,2.223c0-1.226-0.995-2.223-2.222-2.223
			c1.228,0,2.222-1,2.222-2.226C9.358,46.537,10.354,47.537,11.582,47.537z"/>
		<path fill="#CCCBCA" d="M14.927,16.129c-0.977,0-1.768,0.793-1.768,1.769c0-0.975-0.791-1.769-1.77-1.769
			c0.979,0,1.77-0.794,1.77-1.771C13.159,15.334,13.951,16.129,14.927,16.129z"/>
		<path fill="#CCCBCA" d="M99.982,61.529c-0.728,0-1.318,0.59-1.318,1.316c0-0.728-0.588-1.316-1.314-1.316
			c0.728,0,1.314-0.59,1.314-1.318C98.664,60.939,99.255,61.529,99.982,61.529z"/>
	</g>
	<g>
		<g>
			<rect x="71.537" y="63.426" fill="#242D3C" width="5.831" height="2.72"/>
			<path fill="#EFEFEF" d="M74.452,44.312c-1.838,2.666-2.915,5.894-2.915,9.375v9.739h5.831v-9.739
				C77.368,50.204,76.291,46.977,74.452,44.312z"/>
			<path fill="#1776D2" d="M74.452,44.312c-0.705,1.024-1.298,2.132-1.762,3.305h3.523C75.751,46.443,75.16,45.335,74.452,44.312z"
				/>
		</g>
		<g>
			<rect x="19.875" y="63.426" fill="#242D3C" width="5.832" height="2.72"/>
			<path fill="#EDEDED" d="M22.791,44.312c-1.838,2.666-2.916,5.894-2.916,9.375v9.739h5.832v-9.739
				C25.707,50.204,24.628,46.977,22.791,44.312z"/>
			<path fill="#1776D2" d="M22.791,44.312c-0.707,1.024-1.3,2.132-1.763,3.305h3.524C24.089,46.443,23.498,45.335,22.791,44.312z"/>
		</g>
		<path fill="#242D3C" d="M56.718,32.901v27.802l14.819,2.723v-9.74C63.352,53.687,56.718,44.38,56.718,32.901z"/>
		<path fill="#242D3C" d="M40.527,32.901v27.802l-14.82,2.723v-9.74C33.894,53.687,40.527,44.38,40.527,32.901z"/>
		<g>
			<path fill="#EDEDED" d="M48.622,0.166c-5.103,7.399-8.095,16.36-8.095,26.026v34.512h16.19V26.191
				C56.718,16.525,53.723,7.563,48.622,0.166z"/>
			<path fill="#1776D2" d="M48.622,0.166c-1.96,2.844-3.607,5.921-4.892,9.176h9.784C52.228,6.085,50.58,3.009,48.622,0.166z"/>
			<rect x="40.527" y="55.259" fill="#D9D8D7" width="16.19" height="5.444"/>
			<polygon fill="#242D3C" points="54.182,66.148 43.062,66.148 40.527,60.703 56.718,60.703 			"/>
		</g>
		<g>
			<circle fill="#242D3C" cx="48.623" cy="23.089" r="4.907"/>
			<circle fill="#FFFFFF" cx="48.623" cy="23.089" r="3.271"/>
			<circle fill="#D9D8D7" cx="48.623" cy="23.088" r="2.249"/>
		</g>
	</g>
</g>
</svg>
