<?xml version="1.0" encoding="iso-8859-1"?>
<!-- Generator: Adobe Illustrator 16.0.0, SVG Export Plug-In . SVG Version: 6.00 Build 0)  -->
<!DOCTYPE svg PUBLIC "-//W3C//DTD SVG 1.1//EN" "http://www.w3.org/Graphics/SVG/1.1/DTD/svg11.dtd">
<svg version="1.1" id="Calque_1" xmlns="http://www.w3.org/2000/svg" xmlns:xlink="http://www.w3.org/1999/xlink" x="0px" y="0px"
	 width="100px" height="100px" viewBox="0 0 100 100" style="enable-background:new 0 0 100 100;" xml:space="preserve">
<g>
	<g>
		<g>
			<path style="fill:#242D3C;" d="M48.747,19.613h2.546v2.362h-2.546V19.613z M48.747,24.338h2.546v2.363h-2.546V24.338z
				 M48.747,29.06h2.546v2.363h-2.546V29.06z"/>
		</g>
		<circle style="fill:#C4C4C4;" cx="50.019" cy="10.742" r="7.084"/>
		<g>
			
				<rect x="62.509" y="34.627" transform="matrix(-0.7077 -0.7065 0.7065 -0.7077 83.6704 106.0996)" style="fill:#242D3C;" width="2.551" height="2.227"/>
		</g>
		<path style="fill:#C4C4C4;" d="M66.146,26.365c1.938-1.938,5.078-1.938,7.012,0.002c1.94,1.934,1.94,5.076,0,7.013
			c-1.935,1.936-5.074,1.936-7.012,0C64.208,31.443,64.207,28.301,66.146,26.365z"/>
		<g>
			
				<rect x="35.142" y="34.466" transform="matrix(-0.7073 -0.7069 0.7069 -0.7073 36.6332 86.6493)" style="fill:#242D3C;" width="2.226" height="2.55"/>
		</g>
		<path style="fill:#C4C4C4;" d="M26.878,33.38c-1.937-1.937-1.937-5.079,0-7.013c1.938-1.94,5.079-1.94,7.015,0
			c1.937,1.935,1.937,5.076,0,7.013C31.958,35.316,28.816,35.316,26.878,33.38z"/>
		<g>
			<path style="fill:#242D3C;" d="M20.125,48.231h2.364v2.549h-2.364V48.231z M24.853,48.231h2.362v2.549h-2.362V48.231z
				 M29.574,48.231h2.362v2.549h-2.362V48.231z"/>
		</g>
		<g>
			<path style="fill:#242D3C;" d="M68.104,48.233h2.36v2.547h-2.36V48.233z M72.826,48.233h2.36v2.547h-2.36V48.233z M77.548,48.233
				h2.364v2.547h-2.364V48.233z"/>
		</g>
		<path style="fill:#C4C4C4;" d="M11.253,56.59c-3.912,0-7.083-3.173-7.083-7.084c0-3.912,3.171-7.085,7.083-7.085
			c3.917,0,7.086,3.173,7.086,7.085C18.339,53.417,15.171,56.59,11.253,56.59z"/>
		<circle style="fill:#C4C4C4;" cx="88.783" cy="49.506" r="7.084"/>
		<g>
			
				<rect x="34.981" y="62.158" transform="matrix(0.7073 0.7069 -0.7069 0.7073 55.3393 -7.1095)" style="fill:#242D3C;" width="2.549" height="2.227"/>
		</g>
		<path style="fill:#C4C4C4;" d="M33.894,72.647c-1.936,1.938-5.078,1.938-7.015-0.002c-1.938-1.934-1.938-5.076,0-7.013
			c1.937-1.937,5.079-1.937,7.015,0C35.83,67.569,35.831,70.711,33.894,72.647z"/>
		<g>
			
				<rect x="62.673" y="61.996" transform="matrix(0.7068 0.7074 -0.7074 0.7068 63.4635 -26.571)" style="fill:#242D3C;" width="2.223" height="2.55"/>
		</g>
		<path style="fill:#C4C4C4;" d="M73.159,65.632c1.939,1.937,1.939,5.079,0,7.013c-1.936,1.94-5.076,1.94-7.013,0
			c-1.938-1.936-1.938-5.076,0-7.013C68.083,63.696,71.224,63.696,73.159,65.632z"/>
	</g>
	<g>
		<path style="fill:#1776D2;" d="M46.09,72.432v18.994c0,1.007,0.384,2.013,1.152,2.78c0.767,0.767,1.773,1.151,2.778,1.151
			c1.004,0,2.01-0.384,2.778-1.151c0.77-0.767,1.151-1.772,1.151-2.78V72.432H46.09z"/>
		<rect x="48.055" y="65.147" style="fill:#131A26;" width="3.93" height="7.284"/>
		<circle style="fill:#242D3C;" cx="50.02" cy="49.506" r="16.297"/>
		<path style="fill:#FFFFFF;" d="M50.02,37.062c6.861,0,12.444,5.582,12.444,12.444c0,6.862-5.583,12.444-12.444,12.444
			c-6.86,0-12.446-5.582-12.446-12.444C37.574,42.644,43.16,37.062,50.02,37.062z"/>
		<g>
			<g>
				<polygon style="fill:#FFC107;" points="50.765,39.682 49.272,39.682 48.839,41.849 51.198,41.849 				"/>
				<polygon style="fill:#FFC107;" points="45.752,40.625 44.461,41.37 45.168,43.466 47.212,42.286 				"/>
				<polygon style="fill:#FFC107;" points="41.883,43.948 41.137,45.239 42.801,46.699 43.981,44.658 				"/>
				<polygon style="fill:#FFC107;" points="40.194,48.76 40.194,50.252 42.363,50.688 42.363,48.327 				"/>
				<polygon style="fill:#FFC107;" points="41.137,53.773 41.883,55.065 43.981,54.355 42.801,52.312 				"/>
				<polygon style="fill:#FFC107;" points="44.461,57.642 45.752,58.387 47.212,56.725 45.168,55.547 				"/>
				<polygon style="fill:#FFC107;" points="49.275,59.33 50.765,59.33 51.198,57.165 48.841,57.165 				"/>
				<polygon style="fill:#FFC107;" points="54.287,58.387 55.578,57.642 54.869,55.547 52.822,56.725 				"/>
				<polygon style="fill:#FFC107;" points="58.158,55.065 58.899,53.773 57.241,52.312 56.057,54.355 				"/>
				<polygon style="fill:#FFC107;" points="59.844,50.252 59.844,48.76 57.679,48.327 57.679,50.688 				"/>
				<polygon style="fill:#FFC107;" points="58.899,45.239 58.158,43.948 56.057,44.658 57.241,46.697 				"/>
				<polygon style="fill:#FFC107;" points="55.578,41.37 54.287,40.626 52.822,42.286 54.869,43.466 				"/>
			</g>
			<path style="fill:#FFC107;" d="M50.021,41.762c-4.284,0-7.749,3.466-7.749,7.745c0,4.277,3.465,7.744,7.749,7.744
				c4.28,0,7.744-3.467,7.744-7.744C57.765,45.228,54.301,41.762,50.021,41.762z M50.021,53.222c-2.057,0-3.718-1.66-3.718-3.716
				c0-2.057,1.661-3.718,3.718-3.718c2.053,0,3.718,1.661,3.718,3.718C53.739,51.562,52.074,53.222,50.021,53.222z"/>
		</g>
	</g>
</g>
</svg>
