<?xml version="1.0" encoding="iso-8859-1"?>
<!-- Generator: Adobe Illustrator 16.0.0, SVG Export Plug-In . SVG Version: 6.00 Build 0)  -->
<!DOCTYPE svg PUBLIC "-//W3C//DTD SVG 1.1//EN" "http://www.w3.org/Graphics/SVG/1.1/DTD/svg11.dtd">
<svg version="1.1" id="Calque_1" xmlns="http://www.w3.org/2000/svg" xmlns:xlink="http://www.w3.org/1999/xlink" x="0px" y="0px"
	 width="100px" height="100px" viewBox="0 0 100 100" style="enable-background:new 0 0 100 100;" xml:space="preserve">
<g>
	<g>
		<g>
			<polygon style="fill:#E6E5E5;" points="62.85,97.376 36.592,97.376 38.975,83.988 60.46,83.988 			"/>
			<polygon style="fill:#CCCBCA;" points="62.85,97.376 60.46,83.988 38.975,83.988 56.158,97.376 			"/>
			<path style="fill:#EDECEB;" d="M69.874,99.342H29.561v-0.737c0-0.312,0.115-0.627,0.358-0.871
				c0.243-0.237,0.561-0.357,0.867-0.357h37.86c0.31,0,0.633,0.12,0.875,0.357c0.232,0.244,0.354,0.559,0.354,0.871V99.342z"/>
		</g>
		<path style="fill:#FFFFFF;" d="M97,75.333v6.358c0,1.265-1.041,2.297-2.312,2.297H4.751c-1.259,0-2.303-1.032-2.303-2.297v-6.358
			H97z"/>
		<path style="fill:#242D3C;" d="M97,75.333V14.965c0-1.26-1.039-2.303-2.313-2.303H4.748c-1.262,0-2.295,1.043-2.295,2.303v60.368
			H97z"/>
		<rect x="7.218" y="17.438" style="fill:#FFFFFF;" width="84.998" height="53.115"/>
		<g>
			<rect x="12.54" y="63.392" style="fill:#CCCBCA;" width="1.839" height="1.839"/>
			<path style="fill:#CCCBCA;" d="M14.379,61.545H12.54v-1.847h1.839V61.545z M14.379,57.85H12.54v-1.847h1.839V57.85z
				 M14.379,54.156H12.54v-1.848h1.839V54.156z M14.379,50.461H12.54v-1.847h1.839V50.461z M14.379,46.767H12.54v-1.847h1.839
				V46.767z M14.379,43.073H12.54v-1.848h1.839V43.073z M14.379,39.378H12.54v-1.847h1.839V39.378z M14.379,35.683H12.54v-1.847
				h1.839V35.683z M14.379,31.989H12.54v-1.847h1.839V31.989z M14.379,28.294H12.54v-1.847h1.839V28.294z"/>
			<rect x="12.54" y="22.761" style="fill:#CCCBCA;" width="1.839" height="1.839"/>
			<path style="fill:#CCCBCA;" d="M83.243,24.6h-1.812v-1.839h1.812V24.6z M79.619,24.6h-1.812v-1.839h1.812V24.6z M75.995,24.6
				h-1.812v-1.839h1.812V24.6z M72.37,24.6h-1.812v-1.839h1.812V24.6z M68.745,24.6h-1.812v-1.839h1.812V24.6z M65.121,24.6h-1.812
				v-1.839h1.812V24.6z M61.496,24.6h-1.812v-1.839h1.812V24.6z M57.873,24.6H56.06v-1.839h1.812V24.6z M54.248,24.6h-1.812v-1.839
				h1.812V24.6z M50.624,24.6h-1.812v-1.839h1.812V24.6z M46.999,24.6h-1.812v-1.839h1.812V24.6z M43.374,24.6h-1.812v-1.839h1.812
				V24.6z M39.75,24.6h-1.812v-1.839h1.812V24.6z M36.125,24.6h-1.812v-1.839h1.812V24.6z M32.501,24.6h-1.812v-1.839h1.812V24.6z
				 M28.876,24.6h-1.812v-1.839h1.812V24.6z M25.252,24.6H23.44v-1.839h1.812V24.6z M21.628,24.6h-1.812v-1.839h1.812V24.6z
				 M18.004,24.6h-1.813v-1.839h1.813V24.6z"/>
			<rect x="85.055" y="22.761" style="fill:#CCCBCA;" width="1.839" height="1.839"/>
			<path style="fill:#CCCBCA;" d="M86.894,61.545h-1.839v-1.848h1.839V61.545z M86.894,57.85h-1.839v-1.847h1.839V57.85z
				 M86.894,54.156h-1.839v-1.847h1.839V54.156z M86.894,50.461h-1.839v-1.848h1.839V50.461z M86.894,46.767h-1.839v-1.847h1.839
				V46.767z M86.894,43.072h-1.839v-1.847h1.839V43.072z M86.894,39.378h-1.839V37.53h1.839V39.378z M86.894,35.683h-1.839v-1.848
				h1.839V35.683z M86.894,31.989h-1.839v-1.847h1.839V31.989z M86.894,28.294h-1.839v-1.847h1.839V28.294z"/>
			<rect x="85.055" y="63.392" style="fill:#CCCBCA;" width="1.839" height="1.839"/>
			<path style="fill:#CCCBCA;" d="M83.243,65.231H81.43v-1.839h1.812V65.231z M79.618,65.231h-1.812v-1.839h1.812V65.231z
				 M75.994,65.231h-1.812v-1.839h1.812V65.231z M72.37,65.231h-1.812v-1.839h1.812V65.231z M68.745,65.231h-1.812v-1.839h1.812
				V65.231z M65.121,65.231h-1.812v-1.839h1.812V65.231z M61.496,65.231h-1.812v-1.839h1.812V65.231z M57.872,65.231H56.06v-1.839
				h1.812V65.231z M54.247,65.231h-1.812v-1.839h1.812V65.231z M50.623,65.231h-1.812v-1.839h1.812V65.231z M46.999,65.231h-1.812
				v-1.839h1.812V65.231z M43.374,65.231h-1.812v-1.839h1.812V65.231z M39.75,65.231h-1.812v-1.839h1.812V65.231z M36.125,65.231
				h-1.812v-1.839h1.812V65.231z M32.5,65.231h-1.812v-1.839H32.5V65.231z M28.876,65.231h-1.812v-1.839h1.812V65.231z
				 M25.252,65.231h-1.812v-1.839h1.812V65.231z M21.627,65.231h-1.812v-1.839h1.812V65.231z M18.003,65.231H16.19v-1.839h1.813
				V65.231z"/>
		</g>
	</g>
	<g>
		<g>
			<path style="fill:#242D3C;" d="M62.983,54.911c0,2.002-1.637,3.639-3.638,3.639H26.93c-1.999,0-3.639-1.637-3.639-3.639V4.63
				c0-2.002,1.64-3.639,3.639-3.639h32.416c2.001,0,3.638,1.637,3.638,3.639V54.911z"/>
			<path style="fill:#3E4959;" d="M43.133,6.07c-0.799,0-1.434-0.638-1.434-1.441c0-0.786,0.634-1.438,1.434-1.438
				c0.793,0,1.445,0.652,1.445,1.438C44.579,5.432,43.927,6.07,43.133,6.07z"/>
			<path style="fill:#FFFFFF;" d="M43.137,5.133c-0.278,0-0.501-0.223-0.501-0.504c0-0.275,0.223-0.503,0.501-0.503
				c0.279,0,0.506,0.228,0.506,0.503C43.643,4.911,43.416,5.133,43.137,5.133z"/>
			<rect x="26.601" y="8.269" style="fill:#FFFFFF;" width="33.081" height="43.004"/>
			<path style="fill:#3E4959;" d="M47.772,54.911c0-0.636-0.522-1.159-1.157-1.159h-6.95c-0.635,0-1.158,0.523-1.158,1.159l0,0
				c0,0.635,0.523,1.158,1.158,1.158h6.95C47.25,56.069,47.772,55.546,47.772,54.911L47.772,54.911z"/>
		</g>
		<g>
			<rect x="29.277" y="10.944" style="fill:#1776D2;" width="12.924" height="6.494"/>
			<rect x="44.077" y="10.944" style="fill:#FFC107;" width="12.925" height="6.494"/>
			<rect x="29.277" y="20.223" style="fill:#1776D2;" width="12.924" height="12.794"/>
			<rect x="44.077" y="20.223" style="fill:#1776D2;" width="12.925" height="12.794"/>
			<rect x="29.277" y="35.802" style="fill:#FFC107;" width="27.725" height="12.794"/>
		</g>
	</g>
	<g>
		<g>
			<path style="fill:#242D3C;" d="M73.512,27.279H58.15c-1.453,0-2.646,1.19-2.646,2.646v32.662c0,1.455,1.193,2.645,2.646,2.645
				h15.362c1.454,0,2.642-1.19,2.642-2.645V29.925C76.153,28.469,74.965,27.279,73.512,27.279z"/>
			<rect x="57.002" y="33.018" style="fill:#FFFFFF;" width="17.661" height="26.478"/>
			<path style="fill:#3E4959;" d="M64.198,63.184c-0.397,0-0.714-0.322-0.714-0.713v-0.214c0-0.392,0.317-0.712,0.714-0.712h3.272
				c0.388,0,0.706,0.321,0.706,0.712v0.214c0,0.391-0.317,0.713-0.706,0.713H64.198z"/>
			<path style="fill:#3E4959;" d="M66.496,30.147c0,0.367-0.292,0.666-0.659,0.666c-0.369,0-0.67-0.298-0.67-0.666
				c0-0.367,0.301-0.668,0.67-0.668C66.204,29.479,66.496,29.781,66.496,30.147z"/>
			<path style="fill:#242D3C;" d="M66.098,30.147c0,0.145-0.118,0.264-0.261,0.264c-0.153,0-0.274-0.119-0.274-0.264
				c0-0.146,0.121-0.268,0.274-0.268C65.979,29.879,66.098,30.001,66.098,30.147z"/>
		</g>
		<g>
			<rect x="58.339" y="34.356" style="fill:#FFC107;" width="14.979" height="4.463"/>
			<rect x="58.339" y="40.161" style="fill:#1776D2;" width="14.979" height="8.326"/>
			<rect x="58.339" y="49.829" style="fill:#FFC107;" width="14.979" height="8.327"/>
		</g>
	</g>
</g>
</svg>
