<?xml version="1.0" encoding="utf-8"?>
<!-- Generator: Adobe Illustrator 16.0.0, SVG Export Plug-In . SVG Version: 6.00 Build 0)  -->
<!DOCTYPE svg PUBLIC "-//W3C//DTD SVG 1.1//EN" "http://www.w3.org/Graphics/SVG/1.1/DTD/svg11.dtd">
<svg version="1.1" id="Calque_1" xmlns="http://www.w3.org/2000/svg" xmlns:xlink="http://www.w3.org/1999/xlink" x="0px" y="0px"
	 width="1024px" height="768px" viewBox="0 0 1024 768" enable-background="new 0 0 1024 768" xml:space="preserve">
<g>
	<g>
		<g>
			<g>
				<polygon fill="#242D3C" points="276.88,708.853 368.437,676.437 400.924,768 519.139,520.044 395.162,460.942 				"/>
				<polygon fill="#242D3C" points="643.114,460.942 519.139,520.044 637.408,768 669.854,676.437 761.387,708.853 				"/>
			</g>
			<polygon fill="#EFEFEF" points="519.162,58.743 580.125,18.188 619.417,80.058 691.695,67.825 702.336,140.312 773.306,158.53 
				753.6,229.073 811.042,274.584 764.341,331.058 798.269,395.956 732.676,428.534 737.254,501.655 664.035,504.695 
				638.504,573.366 570.408,546.407 519.162,598.772 467.883,546.407 399.79,573.366 374.239,504.695 301.037,501.655 
				305.618,428.534 240.04,395.956 273.961,331.058 227.229,274.584 284.698,229.073 264.969,158.53 335.951,140.312 
				346.595,67.825 418.881,80.058 458.155,18.188 			"/>
			<path fill="#1776D2" d="M686.74,308.479c0,92.561-75.061,167.572-167.602,167.572c-92.543,0-167.608-75.012-167.608-167.572
				c0-92.574,75.064-167.605,167.608-167.605C611.68,140.874,686.74,215.905,686.74,308.479z"/>
			<path fill="#242D3C" d="M519.252,513.399c-2.822,0.023-5.751-0.057-8.61-0.171l0.522-12.935c2.685,0.106,5.32,0.221,8.085,0.16
				c2.753,0,5.491-0.06,8.214-0.173l0.554,12.926C525.107,513.335,522.186,513.399,519.252,513.399z M493.317,511.791
				c-5.731-0.723-11.5-1.699-17.144-2.903l2.695-12.66c5.29,1.131,10.694,2.043,16.062,2.716L493.317,511.791z M545.335,511.74
				l-1.639-12.841c5.37-0.686,10.771-1.607,16.056-2.744l2.721,12.653C556.834,510.021,551.07,511.008,545.335,511.74z
				 M459.336,504.537c-5.531-1.683-11.055-3.628-16.418-5.778l4.822-12.014c5.02,2.013,10.189,3.831,15.368,5.41L459.336,504.537z
				 M579.304,504.427l-3.793-12.375c5.173-1.588,10.336-3.415,15.353-5.435l4.835,12.005
				C590.345,500.781,584.831,502.734,579.304,504.427z M427.06,491.607c-5.14-2.589-10.249-5.441-15.185-8.474l6.775-11.029
				c4.628,2.842,9.416,5.515,14.235,7.938L427.06,491.607z M611.525,491.445l-5.839-11.55c4.818-2.434,9.599-5.116,14.206-7.958
				l6.8,11.015C621.774,485.989,616.671,488.845,611.525,491.445z M397.456,473.396c-4.635-3.424-9.189-7.096-13.537-10.915
				l8.541-9.724c4.077,3.577,8.343,7.016,12.687,10.226L397.456,473.396z M641.09,473.195l-7.711-10.393
				c4.35-3.228,8.61-6.675,12.665-10.25l8.562,9.71C650.275,466.08,645.728,469.758,641.09,473.195z M371.353,450.462
				c-3.986-4.138-7.858-8.526-11.51-13.021l10.052-8.16c3.423,4.221,7.056,8.326,10.788,12.214L371.353,450.462z M667.146,450.229
				l-9.343-8.955c3.755-3.919,7.375-8.031,10.768-12.231l10.07,8.139C675.021,441.658,671.154,446.049,667.146,450.229z
				 M349.474,423.48c-3.233-4.758-6.313-9.731-9.152-14.782l11.282-6.342c2.662,4.732,5.547,9.39,8.577,13.849L349.474,423.48z
				 M688.987,423.204l-10.72-7.258c3.039-4.487,5.919-9.152,8.558-13.871l11.295,6.321
				C695.302,413.435,692.228,418.415,688.987,423.204z M332.46,393.193c-2.391-5.263-4.584-10.68-6.514-16.11l12.199-4.334
				c1.806,5.083,3.859,10.16,6.099,15.089L332.46,393.193z M705.955,392.873l-11.791-5.344c2.225-4.901,4.267-9.987,6.079-15.118
				l12.205,4.315C710.513,382.2,708.329,387.638,705.955,392.873z M320.836,360.457c-1.461-5.594-2.699-11.315-3.676-16.999
				l12.761-2.188c0.913,5.321,2.07,10.674,3.44,15.914L320.836,360.457z M717.535,360.09l-12.53-3.251
				c1.361-5.243,2.508-10.601,3.414-15.92l12.761,2.167C720.213,348.77,718.99,354.492,717.535,360.09z M314.948,326.215
				c-0.492-5.738-0.746-11.581-0.756-17.362l12.94-0.023c0.011,5.421,0.251,10.901,0.71,16.281L314.948,326.215z M723.368,325.84
				l-12.902-1.083c0.452-5.377,0.683-10.855,0.683-16.279l-0.004-0.772h12.941l0.003,0.689
				C724.089,314.264,723.848,320.103,723.368,325.84z M327.782,292.549l-12.901-1.057c0.472-5.751,1.194-11.557,2.15-17.252
				l12.767,2.144C328.902,281.72,328.223,287.158,327.782,292.549z M710.402,291.458c-0.479-5.424-1.19-10.861-2.113-16.159
				l12.754-2.221c0.982,5.656,1.742,11.454,2.253,17.235L710.402,291.458z M333.182,260.459l-12.533-3.23
				c1.438-5.581,3.137-11.182,5.053-16.64l12.211,4.287C336.121,249.987,334.529,255.23,333.182,260.459z M704.815,259.39
				c-1.375-5.223-2.997-10.453-4.818-15.557l12.191-4.353c1.942,5.444,3.674,11.035,5.146,16.613L704.815,259.39z M343.963,229.746
				l-11.804-5.317c2.374-5.267,4.999-10.497,7.811-15.542l11.31,6.296C348.644,219.912,346.183,224.813,343.963,229.746z
				 M693.866,228.759c-2.235-4.909-4.725-9.785-7.39-14.506l11.272-6.363c2.846,5.04,5.501,10.253,7.895,15.493L693.866,228.759z
				 M359.803,201.299l-10.734-7.237c3.228-4.789,6.702-9.496,10.323-13.997l10.085,8.12
				C366.08,192.4,362.826,196.812,359.803,201.299z M677.884,200.419c-3.045-4.461-6.322-8.854-9.742-13.059l10.037-8.172
				c3.652,4.488,7.151,9.176,10.398,13.938L677.884,200.419z M380.218,175.929l-9.363-8.936c3.996-4.187,8.209-8.243,12.526-12.062
				l8.574,9.698C387.912,168.207,383.964,172.006,380.218,175.929z M657.33,175.169c-3.755-3.892-7.724-7.671-11.8-11.235
				l8.526-9.744c4.348,3.806,8.584,7.838,12.59,11.991L657.33,175.169z M404.602,154.356l-7.731-10.383
				c4.631-3.448,9.467-6.738,14.373-9.78l6.821,11.001C413.47,148.043,408.939,151.127,404.602,154.356z M632.83,153.728
				c-4.368-3.214-8.915-6.273-13.523-9.096l6.761-11.038c4.919,3.013,9.775,6.276,14.434,9.707L632.83,153.728z M432.256,137.202
				l-5.866-11.537c5.154-2.622,10.474-5.046,15.82-7.209l4.856,11.998C442.064,132.48,437.082,134.751,432.256,137.202z
				 M605.065,136.72c-4.853-2.434-9.854-4.678-14.867-6.675l4.788-12.024c5.357,2.133,10.697,4.527,15.877,7.123L605.065,136.72z
				 M462.413,124.987l-3.819-12.37c5.514-1.699,11.172-3.187,16.82-4.414l2.749,12.646C472.872,122,467.575,123.391,462.413,124.987
				z M574.815,124.663c-5.184-1.565-10.49-2.926-15.777-4.043l2.675-12.664c5.649,1.191,11.317,2.646,16.849,4.32L574.815,124.663z
				 M494.209,118.071l-1.665-12.837c5.711-0.738,11.536-1.244,17.317-1.504l0.576,12.935
				C505.021,116.904,499.561,117.379,494.209,118.071z M542.975,117.934c-5.354-0.662-10.817-1.104-16.237-1.317l0.501-12.935
				c5.784,0.228,11.612,0.699,17.328,1.405L542.975,117.934z"/>
		</g>
		<g>
			<path fill="#FFC107" d="M264.667,72.874c-22.488,0-40.725,18.281-40.725,40.77c0-22.488-18.256-40.77-40.753-40.77
				c22.498,0,40.753-18.256,40.753-40.7C223.942,54.618,242.179,72.874,264.667,72.874z"/>
			<path fill="#242D3C" d="M893.028,137.669c-17.976,0-32.569,14.612-32.569,32.583c0-17.97-14.594-32.583-32.538-32.583
				c17.944,0,32.538-14.65,32.538-32.588C860.459,123.019,875.053,137.669,893.028,137.669z"/>
			<path fill="#FFC107" d="M802.1,501.907c-12.01,0-21.731,9.741-21.731,21.702c0-11.961-9.732-21.702-21.696-21.702
				c11.964,0,21.696-9.786,21.696-21.766C780.368,492.121,790.09,501.907,802.1,501.907z"/>
			<path fill="#FFC107" d="M146.646,276.456c-10.762,0-19.499,8.746-19.499,19.496c0-10.75-8.75-19.496-19.512-19.496
				c10.762,0,19.512-8.792,19.512-19.572C127.146,267.665,135.883,276.456,146.646,276.456z"/>
			<path fill="#FFC107" d="M205.644,434.971c-8.25,0-14.943,6.705-14.943,14.95c0-8.245-6.706-14.95-14.972-14.95
				c8.266,0,14.972-6.744,14.972-15.006C190.701,428.227,197.394,434.971,205.644,434.971z"/>
			<path fill="#242D3C" d="M881.829,385.874c-8.263,0-14.954,6.708-14.954,14.962c0-8.254-6.706-14.962-14.966-14.962
				c8.26,0,14.966-6.741,14.966-14.998C866.875,379.133,873.566,385.874,881.829,385.874z"/>
			<path fill="#242D3C" d="M258.841,597.694c-12.944,0-23.493,10.523-23.493,23.524c0-13.001-10.536-23.524-23.511-23.524
				c12.975,0,23.511-10.619,23.511-23.588C235.348,587.075,245.897,597.694,258.841,597.694z"/>
		</g>
	</g>
	<g>
		<path fill="#FFFFFF" d="M489.712,263.219c8.898,0.607,14.098,1.598,20.364,4.945c0.67,0.367,1.694,0.089,2.558,0.057
			c4.124-0.162,8.237-0.324,12.367-0.502c1.181-0.052,2.55,0.227,3.521-0.266c10.564-5.377,21.866-6.759,33.48-6.323
			c5.892,0.218,11.774,0.691,17.62,1.398c4.206,0.501,5.721,5.292,3.24,8.83c-1.044,1.503-1.637,3.407-2.146,5.214
			c-1.574,5.656-2.697,11.46-4.604,17.008c-1.887,5.473-5.978,9.063-11.662,10.691c-10.792,3.094-20.929,1.933-30.157-4.752
			c-4.992-3.619-7.087-9.008-8.515-14.712c-0.312-1.281-0.499-2.595-0.713-3.898c-0.644-3.924-2.198-5.424-5.659-5.445
			c-3.641-0.025-5.421,1.872-6.427,5.596c-1.401,5.154-2.576,10.562-5.108,15.172c-4.598,8.364-13.024,10.996-21.901,11.704
			c-8.516,0.687-16.381-1.197-22.367-8.03c-4.439-5.066-5.696-11.292-6.88-17.625c-0.479-2.616-1.56-5.114-2.409-7.661
			c-1.354-4.1-1.516-7.734,3.947-9.173C468.756,262.698,480.814,262.609,489.712,263.219z M471.285,270.209
			c-3.844,0.715-6.188,3.752-7.249,7.532c-2.259,8.012,2.532,18.903,9.923,22.711c8.85,4.565,22.271,1.602,28.166-6.439
			c4.064-5.531,4.455-11.768,1.874-17.969c-2.297-5.522-7.416-7.015-12.791-7.289C484.553,268.407,477.324,269.069,471.285,270.209z
			 M573.778,281.508c0-0.266,0.076-1.078,0.064-1.891c-0.125-7.852-4.062-12.44-11.889-13.083
			c-4.532-0.369-9.132,0.049-13.692,0.207c-1.419,0.048-2.827,0.34-4.222,0.622c-11.044,2.251-15.731,13.247-9.731,22.978
			c4.583,7.439,11.749,10.067,19.996,9.985C565.35,300.218,572.769,293.046,573.778,281.508z"/>
		<path fill="#FFFFFF" d="M422.093,237.61c0.029-13.559,9.515-25.978,22.176-29.027c14.027-3.372,28.255,2.85,34.37,15.031
			c2.689,5.369,1.553,8.348-4.092,10.366c-3.915,1.402-7.888,2.62-11.834,3.937c-8.659,2.903-15.162,8.821-21.292,15.262
			c-1.039,1.099-2.176,2.13-3.351,3.087c-4.391,3.558-7.524,3.133-10.664-1.475C423.886,249.62,422.12,243.879,422.093,237.61z"/>
		<path fill="#FFFFFF" d="M577.518,207.633c12.146,0.389,21.309,5.661,26.742,16.329c5.364,10.522,4.411,21.021-2.053,30.905
			c-2.939,4.512-6.338,5.041-10.422,1.512c-3.528-3.048-6.752-6.435-10.15-9.63c-4.737-4.45-10.302-7.474-16.508-9.402
			c-3.383-1.059-6.756-2.175-10.095-3.392c-5.504-2.009-6.776-4.94-4.021-10.139C556.645,213.171,565.729,208.017,577.518,207.633z"
			/>
		<path fill="#FFFFFF" d="M513.911,393.926c-3.64,3.917-4.59,8.064-2.659,12.848c0.226,0.562-0.425,1.973-1.048,2.317
			c-6.425,3.593-13.139,6.351-20.643,6.637c-2.265,0.093-3.583-0.739-4.104-3.076c-1.846-8.202-1.597-16.368,0.514-24.43
			c1.491-5.696,4.077-7.128,9.76-5.583C502.825,384.572,508.782,388.416,513.911,393.926z"/>
		<path fill="#FFFFFF" d="M526.176,409.239c3.388-4.371,3.898-8.456,1.229-12.852c-0.327-0.545-0.003-2.094,0.507-2.45
			c6.014-4.135,12.499-7.171,19.938-7.435c4.098-0.142,6.26,1.399,6.828,5.35c1.281,8.885,0.582,17.606-2.92,25.989
			c-0.746,1.791-1.928,2.923-3.97,2.535C539.594,418.817,532.763,414.657,526.176,409.239z"/>
		<path fill="#FFFFFF" d="M531.101,311.48c5.675,0.954,7.667,5.983,4.345,10.73c-1.013,1.439-2.445,2.809-3.998,3.597
			c-7.07,3.59-14.462,3.655-21.872,1.168c-3.76-1.244-5.957-4.006-6.627-8c-0.699-4.14,0.356-6.323,4.529-7.135
			C511.628,311.044,527.521,310.886,531.101,311.48z"/>
		<path fill="#FFFFFF" d="M527.31,348.305c8.274,0.759,5.651,5.566-0.362,6.233c-4.828,0.327-9.71,0.348-14.533-0.029
			c-10.91-1.293-4.671-6.064-0.143-6.408C516.801,347.755,524.849,347.525,527.31,348.305z"/>
		<path fill="#FFFFFF" d="M519.896,391.807c5.358,0,9.704,4.348,9.704,9.704c0,5.359-4.346,9.705-9.704,9.705
			c-5.359,0-9.704-4.346-9.704-9.705C510.192,396.154,514.537,391.807,519.896,391.807z"/>
	</g>
</g>
</svg>
