<?xml version="1.0" encoding="utf-8"?>
<!-- Generator: Adobe Illustrator 16.0.0, SVG Export Plug-In . SVG Version: 6.00 Build 0)  -->
<!DOCTYPE svg PUBLIC "-//W3C//DTD SVG 1.1//EN" "http://www.w3.org/Graphics/SVG/1.1/DTD/svg11.dtd">
<svg version="1.1" id="Calque_1" xmlns="http://www.w3.org/2000/svg" xmlns:xlink="http://www.w3.org/1999/xlink" x="0px" y="0px"
	 width="1024px" height="768px" viewBox="0 0 1024 768" enable-background="new 0 0 1024 768" xml:space="preserve">
<g>
	<g>
		<g>
			<path fill="#242D3C" d="M599.968,553.675l-3.826-13.47c5.264-1.489,10.526-3.171,15.65-4.976l4.666,13.188
				C611.062,550.329,605.511,552.092,599.968,553.675z M446.233,552.892c-5.528-1.633-11.067-3.464-16.467-5.438l4.817-13.138
				c5.117,1.867,10.371,3.605,15.615,5.157L446.233,552.892z M632.583,542.129l-5.489-12.864c5.018-2.143,10.023-4.469,14.874-6.908
				l6.296,12.493C643.153,537.42,637.877,539.87,632.583,542.129z M413.692,540.982c-5.282-2.315-10.545-4.829-15.637-7.468
				l6.427-12.431c4.835,2.507,9.828,4.89,14.84,7.1L413.692,540.982z M663.448,526.59l-7.062-12.078
				c4.701-2.751,9.378-5.691,13.905-8.727l7.805,11.604C673.336,520.594,668.404,523.689,663.448,526.59z M382.923,525.08
				c-4.912-2.942-9.815-6.094-14.566-9.358l7.926-11.531c4.515,3.104,9.17,6.094,13.832,8.888L382.923,525.08z M692.135,507.306
				l-8.515-11.109c4.297-3.29,8.57-6.79,12.713-10.402l9.195,10.551C701.165,500.144,696.662,503.83,692.135,507.306z
				 M354.41,505.455c-4.521-3.543-8.99-7.279-13.278-11.109l9.309-10.444c4.072,3.636,8.314,7.181,12.606,10.543L354.41,505.455z
				 M718.215,484.565l-9.841-9.949c3.885-3.843,7.696-7.846,11.321-11.917l10.438,9.329
				C726.316,476.304,722.308,480.519,718.215,484.565z M328.576,482.437c-4.034-4.078-8-8.344-11.78-12.663l10.532-9.215
				c3.591,4.114,7.361,8.161,11.197,12.033L328.576,482.437z M741.25,458.757l-10.995-8.651c3.364-4.282,6.65-8.732,9.751-13.232
				l11.519,7.944C748.257,449.56,744.797,454.245,741.25,458.757z M305.82,456.394c-3.51-4.567-6.911-9.292-10.107-14.032
				l11.603-7.82c3.038,4.506,6.266,8.986,9.598,13.323L305.82,456.394z M760.906,430.258l-12.004-7.194
				c2.831-4.709,5.533-9.538,8.028-14.362l12.42,6.438C766.722,420.216,763.879,425.305,760.906,430.258z M286.502,427.719
				c-2.901-4.959-5.685-10.065-8.267-15.182l12.487-6.306c2.458,4.86,5.096,9.707,7.852,14.418L286.502,427.719z M776.838,399.51
				l-12.812-5.635c2.215-5.027,4.284-10.167,6.156-15.256l13.139,4.816C781.347,388.804,779.166,394.216,776.838,399.51z
				 M270.939,396.865c-2.265-5.294-4.385-10.718-6.302-16.124l13.188-4.679c1.819,5.132,3.83,10.276,5.98,15.298L270.939,396.865z
				 M788.779,366.982l-13.412-3.972c1.552-5.25,2.958-10.601,4.17-15.895l13.643,3.122
				C791.901,355.823,790.421,361.458,788.779,366.982z M259.374,364.251c-1.577-5.536-2.995-11.178-4.214-16.789l13.67-2.972
				c1.157,5.312,2.504,10.681,4,15.925L259.374,364.251z M796.503,333.263l-13.806-2.272c0.881-5.344,1.595-10.824,2.139-16.279
				l13.924,1.378C798.192,321.842,797.431,327.614,796.503,333.263z M252.006,330.457c-0.862-5.666-1.561-11.444-2.073-17.186
				l13.934-1.248c0.49,5.456,1.147,10.942,1.973,16.311L252.006,330.457z M799.926,298.841l-13.983-0.527
				c0.121-3.221,0.181-6.461,0.181-9.701c0-2.235-0.024-4.475-0.086-6.729l-0.022-1.011l13.983-0.435l0.03,1.161
				c0.06,2.296,0.087,4.661,0.087,7.014C800.115,292.039,800.057,295.446,799.926,298.841z M248.924,296.011l-0.016-0.676
				c-0.056-2.291-0.086-4.643-0.086-6.995c0-3.227,0.056-6.442,0.167-9.645l13.983,0.49c-0.106,3.042-0.162,6.089-0.162,9.155
				c0,2.234,0.031,4.475,0.087,6.722L248.924,296.011z M785.024,264.451c-0.49-5.412-1.163-10.899-1.998-16.305l13.827-2.135
				c0.879,5.691,1.59,11.476,2.11,17.173L785.024,264.451z M264.053,262.787l-13.927-1.353c0.553-5.729,1.3-11.5,2.215-17.167
				l13.813,2.228C265.288,251.876,264.581,257.356,264.053,262.787z M780.004,231.997c-1.164-5.306-2.521-10.657-4.028-15.92
				l13.443-3.854c1.598,5.542,3.021,11.19,4.248,16.783L780.004,231.997z M269.282,230.371l-13.648-3.091
				c1.275-5.617,2.74-11.246,4.363-16.751l13.421,3.947C271.879,219.702,270.489,225.052,269.282,230.371z M770.936,200.449
				c-1.821-5.108-3.842-10.253-6.008-15.293l12.856-5.523c2.284,5.312,4.41,10.73,6.334,16.112L770.936,200.449z M278.564,198.854
				l-13.143-4.804c1.967-5.387,4.137-10.8,6.452-16.081l12.816,5.61C282.493,188.595,280.432,193.733,278.564,198.854z
				 M757.986,170.304c-2.471-4.872-5.127-9.713-7.886-14.393l12.056-7.106c2.908,4.935,5.701,10.036,8.305,15.162L757.986,170.304z
				 M291.759,168.734l-12.432-6.418c2.625-5.083,5.456-10.172,8.419-15.125l12.006,7.168
				C296.944,159.07,294.254,163.905,291.759,168.734z M741.338,142.04c-3.082-4.549-6.322-9.018-9.637-13.313l11.075-8.546
				c3.485,4.512,6.902,9.223,10.14,14.002L741.338,142.04z M308.628,140.531l-11.532-7.925c3.258-4.742,6.703-9.441,10.243-13.959
				l11.014,8.634C314.996,131.569,311.725,136.025,308.628,140.531z M721.262,116.047c-3.584-4.084-7.361-8.125-11.222-12.003
				l9.928-9.868c4.062,4.083,8.034,8.341,11.811,12.642L721.262,116.047z M328.886,114.656l-10.458-9.291
				c3.823-4.308,7.827-8.534,11.901-12.568l9.853,9.931C336.318,106.563,332.517,110.579,328.886,114.656z M698.105,92.754
				c-4.09-3.619-8.335-7.163-12.633-10.52l8.614-11.023c4.527,3.538,9.002,7.261,13.298,11.079L698.105,92.754z M352.198,91.525
				l-9.214-10.526c4.322-3.786,8.819-7.479,13.366-10.986l8.54,11.079C360.577,84.418,356.307,87.931,352.198,91.525z
				 M672.215,72.527c-4.521-3.098-9.182-6.083-13.85-8.869l7.168-12.016c4.919,2.936,9.828,6.083,14.583,9.341L672.215,72.527z
				 M378.206,71.478l-7.833-11.588c4.739-3.203,9.661-6.306,14.629-9.223l7.091,12.053
				C387.376,65.501,382.703,68.437,378.206,71.478z M643.985,55.682c-4.866-2.501-9.863-4.878-14.854-7.063l5.608-12.823
				c5.26,2.296,10.523,4.798,15.65,7.448L643.985,55.682z M406.493,54.857l-6.312-12.481c5.133-2.601,10.408-5.059,15.662-7.318
				l5.515,12.866C416.371,50.059,411.371,52.393,406.493,54.857z M613.867,42.512c-5.17-1.88-10.43-3.612-15.631-5.133l3.935-13.431
				c5.487,1.614,11.029,3.432,16.473,5.412L613.867,42.512z M436.65,41.928l-4.689-13.183c5.418-1.93,10.963-3.705,16.481-5.281
				l3.848,13.449C447.052,38.41,441.795,40.097,436.65,41.928z M582.329,33.252c-5.344-1.205-10.771-2.253-16.122-3.104
				l2.207-13.822c5.648,0.906,11.364,2.011,17,3.283L582.329,33.252z M468.216,32.904l-2.994-13.679
				c5.607-1.223,11.333-2.29,17.015-3.159l2.126,13.828C478.969,30.72,473.535,31.731,468.216,32.904z M549.919,28.051
				c-5.422-0.521-10.937-0.875-16.397-1.062L533.993,13c5.747,0.198,11.557,0.577,17.27,1.123L549.919,28.051z M500.673,27.908
				l-1.257-13.939c5.71-0.515,11.519-0.85,17.272-1.018l0.392,13.99C511.615,27.088,506.097,27.412,500.673,27.908z"/>
			<g>
				<rect x="503.271" y="488.66" fill="#3E4959" width="42.412" height="46.989"/>
				<path fill="#242D3C" d="M729.132,288.476c0,113.07-91.648,204.678-204.679,204.678c-113.036,0-204.638-91.608-204.638-204.678
					c0-113.027,91.602-204.647,204.638-204.647C637.483,83.829,729.132,175.449,729.132,288.476z"/>
				<path fill="#1776D2" d="M689.6,288.476c0,91.205-73.957,165.068-165.146,165.068c-91.148,0-165.068-73.863-165.068-165.068
					c0-91.199,73.92-165.062,165.068-165.062C615.643,123.414,689.6,197.277,689.6,288.476z"/>
				<g>
					<path fill="#1D85DB" d="M665.567,288.476c0,77.923-63.194,141.036-141.114,141.036c-77.873,0-141.036-63.113-141.036-141.036
						c0-77.917,63.163-141.037,141.036-141.037C602.373,147.439,665.567,210.56,665.567,288.476z"/>
				</g>
				<rect x="482.268" y="576.614" fill="#DBDBDB" width="84.372" height="191.781"/>
				<rect x="475.18" y="535.649" fill="#242D3C" width="98.51" height="40.965"/>
			</g>
			<g>
				<path fill="#242D3C" d="M785.298,448.177c0,24.732-20.041,44.772-44.78,44.772c-24.727,0-44.768-20.04-44.768-44.772
					c0-24.728,20.041-44.775,44.768-44.775C765.257,403.401,785.298,423.449,785.298,448.177z"/>
				<path fill="#FFC107" d="M348.188,116.189c0,16.484-13.359,29.847-29.854,29.847c-16.484,0-29.844-13.363-29.844-29.847
					c0-16.491,13.359-29.854,29.844-29.854C334.829,86.336,348.188,99.699,348.188,116.189z"/>
				<path fill="#FFC107" d="M299.551,29.608c0,5.493-4.459,9.949-9.949,9.949c-5.496,0-9.949-4.457-9.949-9.949
					c0-5.499,4.453-9.949,9.949-9.949C295.091,19.659,299.551,24.109,299.551,29.608z"/>
				<path fill="#242D3C" d="M139.725,287.124c0,8.788-7.126,15.914-15.912,15.914c-8.79,0-15.926-7.125-15.926-15.914
					c0-8.794,7.136-15.92,15.926-15.92C132.598,271.204,139.725,278.329,139.725,287.124z"/>
				<path fill="#242D3C" d="M220.247,506.366c0,5.207-4.22,9.435-9.424,9.435c-5.21,0-9.428-4.228-9.428-9.435
					s4.218-9.422,9.428-9.422C216.026,496.944,220.247,501.159,220.247,506.366z"/>
				<path fill="#FFC107" d="M752.522,591.055c0,7.403-6.008,13.406-13.405,13.406c-7.408,0-13.41-6.003-13.41-13.406
					c0-7.41,6.002-13.407,13.41-13.407C746.515,577.647,752.522,583.645,752.522,591.055z"/>
				<path fill="#242D3C" d="M876.472,91.102c0,10.985-8.919,19.898-19.895,19.898c-10.986,0-19.901-8.913-19.901-19.898
					c0-10.986,8.915-19.892,19.901-19.892C867.553,71.21,876.472,80.116,876.472,91.102z"/>
				<path fill="#FFC107" d="M946.753,326.828c0,15.038-12.199,27.234-27.234,27.234c-15.047,0-27.236-12.196-27.236-27.234
					c0-15.039,12.189-27.234,27.236-27.234C934.554,299.594,946.753,311.79,946.753,326.828z"/>
				<path fill="#FFC107" d="M323.386,663.272c0,13.188-10.688,23.881-23.876,23.881c-13.192,0-23.883-10.692-23.883-23.881
					c0-13.189,10.69-23.891,23.883-23.891C312.699,639.382,323.386,650.083,323.386,663.272z"/>
			</g>
		</g>
		<g>
			<path fill="#FFFFFF" d="M500.513,254.057c7.821,0.534,12.391,1.405,17.899,4.347c0.589,0.323,1.49,0.078,2.249,0.05
				c3.625-0.142,7.24-0.285,10.871-0.441c1.037-0.045,2.242,0.199,3.096-0.233c9.285-4.727,19.219-5.942,29.428-5.559
				c5.181,0.192,10.35,0.607,15.488,1.229c3.697,0.44,5.029,4.651,2.849,7.761c-0.918,1.321-1.44,2.995-1.888,4.583
				c-1.384,4.972-2.37,10.074-4.047,14.95c-1.658,4.81-5.255,7.967-10.249,9.397c-9.487,2.72-18.397,1.699-26.51-4.177
				c-4.388-3.182-6.229-7.918-7.484-12.932c-0.275-1.126-0.438-2.282-0.626-3.426c-0.567-3.45-1.933-4.769-4.974-4.787
				c-3.202-0.022-4.766,1.646-5.65,4.919c-1.232,4.529-2.265,9.284-4.49,13.336c-4.042,7.352-11.449,9.665-19.251,10.288
				c-7.484,0.604-14.399-1.052-19.661-7.059c-3.9-4.453-5.006-9.926-6.046-15.492c-0.421-2.299-1.372-4.496-2.118-6.734
				c-1.19-3.604-1.333-6.798,3.469-8.063C482.092,253.6,492.692,253.521,500.513,254.057z M484.316,260.201
				c-3.379,0.628-5.44,3.298-6.372,6.621c-1.986,7.042,2.226,16.615,8.722,19.962c7.778,4.013,19.577,1.409,24.758-5.659
				c3.572-4.863,3.916-10.344,1.647-15.795c-2.02-4.854-6.519-6.166-11.244-6.407C495.978,258.617,489.624,259.199,484.316,260.201z
				 M574.407,270.133c0-0.233,0.066-0.947,0.056-1.662c-0.109-6.902-3.569-10.935-10.45-11.5c-3.983-0.324-8.027,0.043-12.036,0.182
				c-1.246,0.042-2.485,0.299-3.71,0.546c-9.708,1.979-13.828,11.645-8.554,20.198c4.028,6.54,10.327,8.85,17.576,8.777
				C566.998,286.579,573.52,280.275,574.407,270.133z"/>
			<path fill="#FFFFFF" d="M441.076,231.547c0.026-11.919,8.365-22.835,19.493-25.515c12.329-2.963,24.836,2.506,30.211,13.213
				c2.364,4.719,1.366,7.337-3.597,9.111c-3.442,1.233-6.934,2.304-10.403,3.461c-7.611,2.552-13.328,7.753-18.715,13.416
				c-0.914,0.966-1.912,1.872-2.945,2.713c-3.861,3.127-6.614,2.754-9.374-1.296C442.651,242.104,441.1,237.057,441.076,231.547z"/>
			<path fill="#FFFFFF" d="M577.694,205.197c10.677,0.342,18.73,4.976,23.506,14.354c4.716,9.249,3.877,18.478-1.804,27.166
				c-2.584,3.966-5.571,4.432-9.161,1.329c-3.102-2.679-5.936-5.656-8.922-8.464c-4.164-3.912-9.056-6.57-14.51-8.264
				c-2.975-0.931-5.939-1.913-8.874-2.982c-4.838-1.766-5.956-4.342-3.536-8.912C559.346,210.065,567.332,205.534,577.694,205.197z"
				/>
			<path fill="#242D3C" d="M521.784,368.948c-3.2,3.443-4.034,7.088-2.338,11.293c0.199,0.493-0.373,1.734-0.921,2.037
				c-5.647,3.158-11.549,5.583-18.146,5.834c-1.991,0.082-3.15-0.649-3.606-2.704c-1.623-7.208-1.404-14.387,0.451-21.473
				c1.311-5.006,3.584-6.267,8.58-4.908C512.04,360.727,517.275,364.105,521.784,368.948z"/>
			<path fill="#242D3C" d="M532.564,382.408c2.979-3.841,3.427-7.433,1.081-11.297c-0.288-0.479-0.003-1.84,0.445-2.154
				c5.287-3.634,10.986-6.303,17.525-6.535c3.603-0.125,5.503,1.23,6.002,4.702c1.126,7.812,0.512,15.476-2.567,22.845
				c-0.655,1.575-1.693,2.569-3.489,2.229C544.359,390.827,538.354,387.171,532.564,382.408z"/>
			<path fill="#FFFFFF" d="M536.893,296.479c4.99,0.838,6.739,5.259,3.821,9.431c-0.891,1.265-2.149,2.469-3.515,3.162
				c-6.215,3.155-12.712,3.212-19.226,1.026c-3.305-1.093-5.236-3.521-5.825-7.032c-0.615-3.639,0.312-5.558,3.98-6.272
				C519.777,296.095,533.747,295.956,536.893,296.479z"/>
			<path fill="#FFFFFF" d="M533.562,328.848c7.273,0.668,4.967,4.893-0.318,5.479c-4.243,0.289-8.534,0.306-12.773-0.025
				c-9.591-1.137-4.106-5.33-0.128-5.633C524.324,328.364,531.397,328.163,533.562,328.848z"/>
			<path fill="#FFFFFF" d="M527.045,367.086c4.709,0,8.529,3.822,8.529,8.53c0,4.711-3.82,8.531-8.529,8.531
				c-4.71,0-8.53-3.82-8.53-8.531C518.515,370.908,522.335,367.086,527.045,367.086z"/>
		</g>
	</g>
</g>
</svg>
