<?xml version="1.0" encoding="iso-8859-1"?>
<!-- Generator: Adobe Illustrator 16.0.0, SVG Export Plug-In . SVG Version: 6.00 Build 0)  -->
<!DOCTYPE svg PUBLIC "-//W3C//DTD SVG 1.1//EN" "http://www.w3.org/Graphics/SVG/1.1/DTD/svg11.dtd">
<svg version="1.1" id="Calque_1" xmlns="http://www.w3.org/2000/svg" xmlns:xlink="http://www.w3.org/1999/xlink" x="0px" y="0px"
	 width="1024px" height="768px" viewBox="0 0 1024 768" style="enable-background:new 0 0 1024 768;" xml:space="preserve">
<g>
	<g>
		<g>
			<polygon style="fill:#D9D8D7;" points="610.291,750.464 421.268,750.464 438.436,654.096 593.08,654.096 			"/>
			<polygon style="fill:#CCCBCA;" points="610.291,750.464 593.08,654.096 438.436,654.096 562.098,750.464 			"/>
			<path style="fill:#E6E5E5;" d="M660.892,764.594H370.659v-5.272c0-2.266,0.854-4.529,2.598-6.268
				c1.729-1.742,3.998-2.59,6.263-2.59h272.498c2.283,0,4.543,0.848,6.276,2.59c1.729,1.737,2.598,4.002,2.598,6.268V764.594z"/>
		</g>
		<path style="fill:#E6E5E5;" d="M856.106,591.794v45.765c0,9.111-7.478,16.537-16.589,16.537H192.066
			c-9.066,0-16.561-7.426-16.561-16.537v-45.765H856.106z"/>
		<path style="fill:#242D3C;" d="M856.106,591.794V157.265c0-9.085-7.469-16.576-16.598-16.576H192.044
			c-9.068,0-16.522,7.49-16.522,16.576v434.529H856.106z"/>
	</g>
	<rect x="209.85" y="175.06" style="fill:#FFFFFF;" width="611.809" height="382.333"/>
</g>
<g>
	<g>
		<g>
			<g>
				<rect x="574.004" y="256.28" style="fill:#1776D2;" width="11.994" height="6.804"/>
				<rect x="574.004" y="303.233" style="fill:#1776D2;" width="11.994" height="6.785"/>
				<rect x="589.094" y="256.28" style="fill:#1776D2;" width="56.463" height="6.804"/>
				<rect x="589.094" y="303.233" style="fill:#1776D2;" width="43.246" height="6.785"/>
				<rect x="585.998" y="274.132" style="fill:#1776D2;" width="19.035" height="6.775"/>
				<rect x="585.998" y="356.75" style="fill:#1776D2;" width="19.035" height="6.795"/>
				<rect x="609.547" y="356.75" style="fill:#1776D2;" width="49.814" height="6.795"/>
				<rect x="596.764" y="409.393" style="fill:#1776D2;" width="15.695" height="6.796"/>
				<rect x="620.836" y="480.751" style="fill:#1776D2;" width="27.59" height="6.777"/>
				<rect x="705.902" y="445.058" style="fill:#1776D2;" width="20.436" height="6.815"/>
				<rect x="664.996" y="356.75" style="fill:#1776D2;" width="35.83" height="6.795"/>
				<rect x="708.105" y="356.75" style="fill:#1776D2;" width="21.934" height="6.795"/>
				<rect x="585.998" y="321.075" style="fill:#1776D2;" width="28.432" height="6.806"/>
				<rect x="585.998" y="338.908" style="fill:#1776D2;" width="40.314" height="6.806"/>
				<rect x="596.764" y="427.226" style="fill:#1776D2;" width="46.207" height="6.795"/>
				<rect x="596.764" y="445.058" style="fill:#1776D2;" width="42.469" height="6.815"/>
				<rect x="652.969" y="445.058" style="fill:#1776D2;" width="44.033" height="6.815"/>
				<rect x="652.969" y="480.751" style="fill:#1776D2;" width="44.033" height="6.777"/>
				<rect x="574.004" y="409.393" style="fill:#1776D2;" width="16.332" height="6.796"/>
				<rect x="596.764" y="480.751" style="fill:#1776D2;" width="18.783" height="6.777"/>
				<rect x="606.373" y="462.93" style="fill:#1776D2;" width="28.836" height="6.755"/>
				<rect x="639.396" y="462.93" style="fill:#1776D2;" width="74.738" height="6.755"/>
				<rect x="630.623" y="338.908" style="fill:#1776D2;" width="40.324" height="6.806"/>
				<rect x="713.471" y="338.908" style="fill:#1776D2;" width="23.555" height="6.806"/>
				<rect x="673.723" y="338.908" style="fill:#1776D2;" width="25.195" height="6.806"/>
				<rect x="623.725" y="321.075" style="fill:#1776D2;" width="43.668" height="6.806"/>
				<rect x="616.926" y="274.132" style="fill:#1776D2;" width="17.531" height="6.775"/>
			</g>
		</g>
	</g>
	<g>
		<g>
			<path style="fill:#242D3C;" d="M268.103,749.982h-11.829v-4.361h11.829c7.583,0,14.713-2.956,20.079-8.313
				c5.367-5.373,8.317-12.504,8.317-20.088v-63.053h4.366v63.053c0,8.757-3.408,16.98-9.595,23.172
				C285.083,746.583,276.855,749.982,268.103,749.982z"/>
			<rect x="249.721" y="742.342" style="fill:#131A26;" width="6.552" height="10.919"/>
		</g>
		<g>
			<path style="fill:#242D3C;" d="M235.792,732.249H28.928v-12.01c0-1.433,0.534-2.85,1.644-3.934
				c1.084-1.084,2.5-1.643,3.932-1.643h195.728c1.409,0,2.837,0.559,3.922,1.643c1.093,1.084,1.639,2.501,1.639,3.934V732.249z"/>
			<path style="fill:#3E4959;" d="M247.447,734.54c-1.526-1.529-3.521-2.291-5.52-2.291H22.801c-1.975,0-3.986,0.762-5.528,2.291
				c-1.505,1.513-2.274,3.513-2.274,5.504v22.111h234.723v-22.111C249.721,738.053,248.969,736.053,247.447,734.54z"/>
			<path style="fill:#242D3C;" d="M170.966,651.841c0-5.319-4.338-9.656-9.651-9.656h-57.901c-5.31,0-9.652,4.337-9.652,9.656l0,0
				c0,5.301,4.342,9.639,9.652,9.639h57.901C166.628,661.479,170.966,657.142,170.966,651.841L170.966,651.841z"/>
			<path style="fill:#3E4959;" d="M156.487,696.962v-35.482h-48.25v35.482c0,9.785-7.916,17.691-17.692,17.691h17.692h48.25h17.697
				C164.403,714.653,156.487,706.747,156.487,696.962z"/>
			<g>
				<g>
					<polygon style="fill:#3E4959;" points="201.945,714.663 211.357,714.663 211.357,704.69 201.945,704.7 					"/>
					<rect x="200.059" y="696.257" style="fill:#242D3C;" width="13.185" height="8.434"/>
					<rect x="199.12" y="693.894" style="fill:#242D3C;" width="15.07" height="2.363"/>
				</g>
				<g>
					<polygon style="fill:#3E4959;" points="53.363,714.663 62.775,714.663 62.775,704.69 53.363,704.7 					"/>
					<polygon style="fill:#242D3C;" points="51.477,704.69 64.668,704.69 64.661,696.257 51.484,696.257 					"/>
					<rect x="50.542" y="693.894" style="fill:#242D3C;" width="15.058" height="2.363"/>
				</g>
			</g>
		</g>
		<g>
			<g>
				<path style="fill:#1776D2;" d="M200.358,545.837c0,37.547-30.449,67.995-67.995,67.995c-37.554,0-67.995-30.448-67.995-67.995
					c0-37.562,30.441-67.994,67.995-67.994C169.91,477.843,200.358,508.275,200.358,545.837z"/>
				<g>
					<path style="fill:#1776D2;" d="M85.713,518.497c-0.871,0-1.753-0.242-2.525-0.776c-2.049-1.394-2.575-4.185-1.183-6.24
						c11.379-16.689,30.202-26.661,50.358-26.661c2.477,0,4.484,2.008,4.484,4.491c0,2.486-2.007,4.493-4.484,4.493
						c-17.183,0-33.233,8.498-42.937,22.734C88.558,517.816,87.145,518.497,85.713,518.497z"/>
					<path style="fill:#1776D2;" d="M75.842,550.313c-2.48,0-4.492-1.999-4.492-4.484c0-6.798,1.121-13.442,3.314-19.73
						c0.822-2.341,3.388-3.57,5.718-2.762c2.339,0.826,3.574,3.384,2.756,5.723c-1.861,5.333-2.805,10.975-2.805,16.77
						C80.334,548.314,78.323,550.313,75.842,550.313z"/>
				</g>
				<rect x="112.251" y="610.798" style="fill:#146BB2;" width="40.225" height="31.387"/>
			</g>
			<path style="fill:#FFFFFF;" d="M141.903,642.185h-3.987v-75.4c0-0.841,0.527-1.595,1.328-1.879
				c8.021-2.848,13.419-10.521,13.419-19.076c0-11.193-9.105-20.299-20.299-20.299c-11.197,0-20.307,9.105-20.307,20.299
				c0,8.555,5.398,16.229,13.427,19.076c0.802,0.275,1.328,1.038,1.328,1.879v75.4h-3.982v-74.032
				c-8.883-3.756-14.759-12.554-14.759-22.323c0-13.395,10.898-24.289,24.293-24.289c13.391,0,24.286,10.895,24.286,24.289
				c0,9.761-5.864,18.559-14.747,22.323V642.185z"/>
		</g>
	</g>
	<g>
		<path style="fill:#E6E5E5;" d="M953.831,521.109c-30.19,0-54.695,24.447-54.695,54.621v32.509h17.501V575.73
			c0-20.461,16.675-37.116,37.194-37.116c20.485,0,37.156,16.655,37.156,37.116v32.509h17.513V575.73
			C1008.5,545.557,984.028,521.109,953.831,521.109z"/>
		<g>
			<rect x="794.747" y="607.787" style="fill:#FFC107;" width="149.805" height="115.05"/>
			<rect x="794.747" y="722.837" style="fill:#242D3C;" width="149.805" height="21.163"/>
			<rect x="808.372" y="649.421" style="fill:#FFFFFF;" width="122.572" height="31.782"/>
			<g>
				<path style="fill:#242D3C;" d="M835.041,665.309c0,3.765-3.046,6.812-6.812,6.812c-3.765,0-6.812-3.047-6.812-6.812
					c0-3.758,3.048-6.812,6.812-6.812C831.995,658.496,835.041,661.551,835.041,665.309z"/>
				<path style="fill:#242D3C;" d="M855.743,665.309c0,3.765-3.055,6.812-6.808,6.812c-3.758,0-6.81-3.047-6.81-6.812
					c0-3.758,3.052-6.812,6.81-6.812C852.688,658.496,855.743,661.551,855.743,665.309z"/>
				<path style="fill:#242D3C;" d="M876.466,665.309c0,3.765-3.046,6.812-6.824,6.812c-3.763,0-6.812-3.047-6.812-6.812
					c0-3.758,3.05-6.812,6.812-6.812C873.42,658.496,876.466,661.551,876.466,665.309z"/>
				<path style="fill:#242D3C;" d="M897.168,665.309c0,3.765-3.038,6.812-6.812,6.812c-3.746,0-6.789-3.047-6.789-6.812
					c0-3.758,3.043-6.812,6.789-6.812C894.13,658.496,897.168,661.551,897.168,665.309z"/>
				<path style="fill:#242D3C;" d="M917.887,665.309c0,3.765-3.059,6.812-6.82,6.812s-6.8-3.047-6.8-6.812
					c0-3.758,3.038-6.812,6.8-6.812S917.887,661.551,917.887,665.309z"/>
			</g>
		</g>
	</g>
</g>
<g>
	<g>
		<g>
			<rect x="294.661" y="330.868" style="fill:#242D3C;" width="6.267" height="6.266"/>
			<rect x="322.823" y="330.868" style="fill:#242D3C;" width="6.267" height="6.266"/>
			<rect x="294.661" y="393.306" style="fill:#242D3C;" width="6.267" height="6.268"/>
			<rect x="322.823" y="393.306" style="fill:#242D3C;" width="6.267" height="6.268"/>
			<rect x="431.246" y="330.868" style="fill:#242D3C;" width="6.268" height="6.266"/>
			<rect x="459.405" y="330.868" style="fill:#242D3C;" width="6.267" height="6.266"/>
			<rect x="431.246" y="393.306" style="fill:#242D3C;" width="6.268" height="6.268"/>
			<rect x="459.405" y="393.306" style="fill:#242D3C;" width="6.267" height="6.268"/>
		</g>
		<g>
			<rect x="379.222" y="273.294" style="fill:#242D3C;" width="1.878" height="58.562"/>
			<rect x="379.222" y="398.583" style="fill:#242D3C;" width="1.878" height="58.563"/>
			<rect x="296.849" y="315.261" style="fill:#242D3C;" width="1.88" height="15.607"/>
			<rect x="296.849" y="399.573" style="fill:#242D3C;" width="1.88" height="15.609"/>
			<rect x="461.606" y="315.261" style="fill:#242D3C;" width="1.879" height="15.607"/>
			<rect x="437.513" y="333.062" style="fill:#242D3C;" width="21.892" height="1.879"/>
			<rect x="437.513" y="395.501" style="fill:#242D3C;" width="21.892" height="1.877"/>
			<rect x="300.928" y="333.062" style="fill:#242D3C;" width="21.895" height="1.879"/>
			
				<rect x="339.029" y="328.879" transform="matrix(0.5001 -0.8659 0.8659 0.5001 -126.2284 465.3564)" style="fill:#242D3C;" width="1.879" height="26.272"/>
			
				<rect x="419.422" y="375.282" transform="matrix(0.4986 -0.8668 0.8668 0.4986 -125.9347 559.1219)" style="fill:#242D3C;" width="1.879" height="26.285"/>
			
				<rect x="419.422" y="328.869" transform="matrix(0.4986 0.8668 -0.8668 0.4986 507.2193 -192.9012)" style="fill:#242D3C;" width="1.879" height="26.286"/>
			
				<rect x="339.022" y="375.282" transform="matrix(0.4991 0.8666 -0.8666 0.4991 506.8865 -100.0253)" style="fill:#242D3C;" width="1.877" height="26.284"/>
			<rect x="300.928" y="395.501" style="fill:#242D3C;" width="21.895" height="1.877"/>
			<rect x="461.606" y="399.573" style="fill:#242D3C;" width="1.879" height="15.609"/>
		</g>
	</g>
	<g>
		<g>
			<polygon style="fill:#FFC107;" points="350.875,348.311 380.157,365.22 409.448,348.311 380.157,331.408 			"/>
			<polygon style="fill:#E6E5E5;" points="380.157,365.22 380.157,399.034 350.875,382.125 350.875,348.317 			"/>
			<polygon style="fill:#1776D2;" points="409.448,348.317 409.448,382.125 380.157,399.034 380.157,365.22 			"/>
		</g>
		<g>
			<rect x="360.636" y="234.246" style="fill:#FFC107;" width="39.051" height="39.048"/>
			<rect x="360.636" y="457.146" style="fill:#1776D2;" width="39.051" height="39.042"/>
			<rect x="443.003" y="276.218" style="fill:#1776D2;" width="39.044" height="39.042"/>
			<rect x="443.003" y="415.181" style="fill:#FFC107;" width="39.044" height="39.042"/>
			<rect x="278.278" y="276.218" style="fill:#1776D2;" width="39.043" height="39.042"/>
			<rect x="278.278" y="415.181" style="fill:#FFC107;" width="39.043" height="39.042"/>
		</g>
	</g>
	<g>
		<rect x="287.612" y="235.337" style="fill:#FFC107;" width="14.467" height="14.469"/>
		<rect x="404.189" y="305.782" style="fill:#1776D2;" width="11.04" height="11.037"/>
		<rect x="445.895" y="231.005" style="fill:#A8A8A8;" width="16.65" height="16.648"/>
		<rect x="275.438" y="377.625" style="fill:#242D3C;" width="5.685" height="5.687"/>
		<rect x="324.26" y="352.465" style="fill:#A8A8A8;" width="8.822" height="8.823"/>
		<rect x="237.222" y="343.037" style="fill:#1776D2;" width="13.841" height="13.842"/>
		<rect x="521.221" y="384.253" style="fill:#1776D2;" width="8.42" height="8.419"/>
		<rect x="470.26" y="353.373" style="fill:#FFC107;" width="15.832" height="15.83"/>
		<rect x="350.883" y="417.698" style="fill:#FFC107;" width="12.198" height="12.196"/>
		<rect x="308.173" y="479.064" style="fill:#1776D2;" width="18.296" height="18.295"/>
		<rect x="408.983" y="426.771" style="fill:#242D3C;" width="6.246" height="6.244"/>
		<rect x="475.417" y="479.064" style="fill:#FFC107;" width="9.148" height="9.147"/>
	</g>
</g>
<g>
	<g>
		<g>
			<polygon style="fill:#166BB2;" points="922.328,27.125 911.804,27.125 908.709,42.491 925.42,42.491 			"/>
			<polygon style="fill:#166BB2;" points="886.887,33.805 877.777,39.043 882.784,53.888 897.217,45.556 			"/>
			<polygon style="fill:#166BB2;" points="859.518,57.346 854.277,66.401 866.006,76.779 874.327,62.326 			"/>
			<polygon style="fill:#166BB2;" points="847.58,91.334 847.602,101.895 862.925,104.964 862.925,88.244 			"/>
			<polygon style="fill:#166BB2;" points="854.277,126.8 859.518,135.88 874.327,130.878 866.006,116.445 			"/>
			<polygon style="fill:#166BB2;" points="877.777,154.157 886.887,159.403 897.217,147.636 882.784,139.33 			"/>
			<polygon style="fill:#166BB2;" points="911.804,166.103 922.328,166.103 925.42,150.727 908.709,150.727 			"/>
			<polygon style="fill:#166BB2;" points="947.249,159.403 956.338,154.157 951.33,139.33 936.904,147.636 			"/>
			<polygon style="fill:#166BB2;" points="974.612,135.88 979.846,126.8 968.113,116.445 959.794,130.878 			"/>
			<polygon style="fill:#166BB2;" points="986.525,101.895 986.525,91.334 971.165,88.244 971.165,104.964 			"/>
			<polygon style="fill:#166BB2;" points="979.846,66.401 974.612,57.346 959.794,62.326 968.113,76.779 			"/>
			<polygon style="fill:#166BB2;" points="956.338,39.043 947.233,33.805 936.904,45.556 951.33,53.888 			"/>
		</g>
		<g>
			<path style="fill:#1776D2;" d="M917.037,41.854c-30.197,0-54.732,24.509-54.732,54.75c0,30.237,24.535,54.745,54.732,54.745
				c30.258,0,54.819-24.508,54.819-54.745C971.856,66.363,947.295,41.854,917.037,41.854z M917.037,111.758
				c-8.349,0-15.124-6.76-15.124-15.153c0-8.372,6.775-15.149,15.124-15.149c8.413,0,15.159,6.777,15.159,15.149
				C932.196,104.998,925.45,111.758,917.037,111.758z"/>
		</g>
		<path style="fill:#1F8EEA;" d="M917.037,70.307c-14.505,0-26.271,11.771-26.271,26.298c0,14.562,11.767,26.314,26.271,26.314
			c14.574,0,26.335-11.752,26.335-26.314C943.372,82.078,931.611,70.307,917.037,70.307z M917.037,109.747
			c-7.2,0-13.098-5.902-13.098-13.142c0-7.223,5.897-13.139,13.098-13.139c7.241,0,13.163,5.916,13.163,13.139
			C930.2,103.844,924.278,109.747,917.037,109.747z"/>
	</g>
	<g>
		<g>
			<path style="fill:#FFC107;" d="M833.148,83.442h-8.172V33.719c0-4.631,1.803-8.967,5.078-12.212
				c3.238-3.252,7.575-5.053,12.197-5.053v8.175c-2.431,0-4.712,0.946-6.427,2.666c-1.73,1.716-2.677,3.992-2.677,6.424V83.442z"/>
			<path style="fill:#FFC107;" d="M815.898,100.702v-8.175c2.423,0,4.709-0.946,6.438-2.668c1.703-1.699,2.641-3.979,2.641-6.417
				h8.172c0,4.628-1.789,8.965-5.043,12.208C824.836,98.907,820.501,100.702,815.898,100.702z"/>
			<path style="fill:#FFC107;" d="M842.252,176.772c-4.619,0-8.958-1.804-12.216-5.074c-3.255-3.215-5.06-7.556-5.06-12.195v-49.719
				h8.172v49.719c0,2.438,0.942,4.712,2.654,6.403c1.739,1.744,4.021,2.69,6.449,2.69V176.772z"/>
			<path style="fill:#FFC107;" d="M833.148,109.784h-8.172c0-2.449-0.938-4.725-2.637-6.416c-1.726-1.721-4.011-2.667-6.441-2.667
				v-8.175c4.61,0,8.946,1.794,12.208,5.049C831.356,100.805,833.148,105.143,833.148,109.784z"/>
		</g>
		<g>
			<path style="fill:#FFC107;" d="M1009.121,83.442h-8.173V33.719c0-2.437-0.939-4.712-2.648-6.405
				c-1.73-1.736-4.015-2.685-6.446-2.685v-8.175c4.619,0,8.957,1.801,12.218,5.069c3.25,3.224,5.05,7.562,5.05,12.195V83.442z"/>
			<path style="fill:#FFC107;" d="M1018.207,100.702c-4.596,0-8.933-1.792-12.209-5.048c-3.262-3.265-5.05-7.597-5.05-12.211h8.173
				c0,2.431,0.942,4.714,2.649,6.424c1.723,1.713,4.014,2.661,6.437,2.661V100.702z"/>
			<path style="fill:#FFC107;" d="M991.854,176.772v-8.176c2.429,0,4.712-0.947,6.433-2.669c1.723-1.706,2.662-3.981,2.662-6.424
				v-49.719h8.173v49.719c0,4.643-1.8,8.981-5.068,12.216C1000.81,174.971,996.471,176.772,991.854,176.772z"/>
			<path style="fill:#FFC107;" d="M1009.121,109.784h-8.173c0-4.625,1.791-8.959,5.041-12.208c3.276-3.255,7.613-5.049,12.218-5.049
				v8.175c-2.429,0-4.719,0.946-6.446,2.666C1010.062,105.063,1009.121,107.345,1009.121,109.784z"/>
		</g>
	</g>
</g>
</svg>
