<?xml version="1.0" encoding="utf-8"?>
<!-- Generator: Adobe Illustrator 16.0.0, SVG Export Plug-In . SVG Version: 6.00 Build 0)  -->
<!DOCTYPE svg PUBLIC "-//W3C//DTD SVG 1.1//EN" "http://www.w3.org/Graphics/SVG/1.1/DTD/svg11.dtd">
<svg version="1.1" id="Calque_1" xmlns="http://www.w3.org/2000/svg" xmlns:xlink="http://www.w3.org/1999/xlink" x="0px" y="0px"
	 width="1024px" height="768px" viewBox="0 0 1024 768" enable-background="new 0 0 1024 768" xml:space="preserve">
<g>
	<g>
		<path fill="#E6E5E5" d="M777.181,456.98H285.196V187.544h423.245c17.61,0,35.203,6.736,48.602,20.145
			c13.445,13.409,20.138,31.002,20.138,48.594V456.98z"/>
		<path fill="#242D3C" d="M333.791,207.688c-13.42-13.408-31.017-20.145-48.594-20.145c-17.59,0-35.185,6.736-48.606,20.145
			c-13.41,13.409-20.129,31.002-20.129,48.594V456.98h137.474V256.282C353.935,238.69,347.226,221.097,333.791,207.688z"/>
		<path fill="#E6E5E5" d="M333.791,706.245c-13.42,13.448-31.017,20.157-48.594,20.157c-17.59,0-35.185-6.709-48.606-20.157
			c-13.41-13.396-20.129-30.988-20.129-48.602V456.98h137.474v200.663C353.935,675.257,347.226,692.85,333.791,706.245z"/>
		<polygon fill="#CCCBCA" points="353.935,594.454 216.461,456.98 353.935,456.98 		"/>
		<g>
			<defs>
				<path id="SVGID_1_" d="M285.196,187.544c17.578,0,35.174,6.736,48.594,20.145c13.435,13.409,20.144,31.002,20.144,48.594V456.98
					h-68.738h-68.735h-53.145V187.544H285.196z"/>
			</defs>
			<clipPath id="SVGID_2_">
				<use xlink:href="#SVGID_1_"  overflow="visible"/>
			</clipPath>
			<g clip-path="url(#SVGID_2_)">
				<rect x="163.316" y="306.114" fill="#238CE2" width="220.664" height="150.866"/>
				<polygon fill="#166DB5" points="383.98,456.98 273.638,360.167 163.316,456.98 				"/>
				<polygon fill="#1776D2" points="383.98,306.114 273.638,402.924 163.316,306.114 				"/>
			</g>
		</g>
		<rect x="533.348" y="387.993" fill="#CCCBCA" width="161.049" height="25.768"/>
		<rect x="533.344" y="456.98" fill="#D9D8D7" width="64.431" height="306.865"/>
		<rect x="533.344" y="456.98" fill="#CCCBCA" width="64.431" height="49.47"/>
		<g>
			<path fill="#FFC107" d="M469.411,387.993c0,14.214-11.528,25.768-25.77,25.768c-14.228,0-25.769-11.554-25.769-25.768
				c0-14.236,11.541-25.768,25.769-25.768C457.883,362.226,469.411,373.757,469.411,387.993z"/>
			<rect x="436.335" y="256.282" fill="#FFC107" width="14.625" height="134.987"/>
			<path fill="#FFFFFF" d="M456.439,387.993c0,7.044-5.74,12.781-12.798,12.781c-7.06,0-12.787-5.737-12.787-12.781
				c0-7.074,5.727-12.811,12.787-12.811C450.699,375.182,456.439,380.919,456.439,387.993z"/>
			<rect x="450.961" y="265.718" fill="#FFC107" width="62.899" height="45.087"/>
		</g>
		<path fill="#1776D2" d="M689.95,763.846c-7.312-22.358-28.289-38.502-53.057-38.502c-8.383,0-16.281,1.873-23.407,5.19
			c-17.757-31.713-51.632-53.182-90.569-53.182c-51.417,0-93.988,37.412-102.265,86.493H689.95z"/>
	</g>
	<g>
		<path fill="#FFFFFF" d="M353.935,306.104c-2.203,0-4.386-0.087-6.546-0.248l0.504-6.559c1.993,0.154,4.01,0.228,6.042,0.228
			V306.104z"/>
		<path fill="#D9D8D7" d="M334.119,303.75c-4.335-1.05-8.627-2.465-12.753-4.205l2.554-6.056c3.802,1.6,7.755,2.904,11.749,3.87
			L334.119,303.75z M309.451,293.343c-3.781-2.367-7.405-5.062-10.766-8.01l4.333-4.945c3.1,2.716,6.439,5.196,9.927,7.39
			L309.451,293.343z M289.324,275.709c-2.855-3.446-5.449-7.141-7.712-10.986l5.669-3.333c2.084,3.541,4.475,6.948,7.108,10.125
			L289.324,275.709z M275.754,252.639c-1.62-4.161-2.914-8.487-3.843-12.862l6.431-1.371c0.856,4.033,2.049,8.017,3.539,11.852
			L275.754,252.639z M270.18,226.469c-0.069-1.402-0.106-2.81-0.106-4.222c0-3.068,0.167-6.16,0.5-9.19l6.538,0.711
			c-0.307,2.796-0.461,5.653-0.461,8.479c0,1.304,0.032,2.602,0.097,3.896L270.18,226.469z M279.436,201.623l-6.343-1.753
			c1.192-4.312,2.745-8.557,4.614-12.617l5.973,2.749C281.959,193.74,280.532,197.65,279.436,201.623z M289.739,179.209
			l-5.458-3.672c2.491-3.702,5.301-7.239,8.349-10.508l4.81,4.489C294.625,172.533,292.034,175.792,289.739,179.209z
			 M306.573,161.176l-4.033-5.197c3.533-2.743,7.311-5.221,11.22-7.356l3.155,5.77C313.312,156.362,309.833,158.641,306.573,161.176
			z M328.203,149.351l-2.193-6.203c4.208-1.479,8.575-2.639,12.981-3.434l1.17,6.475
			C336.099,146.917,332.075,147.983,328.203,149.351z M352.464,144.979l-0.112-6.579l12.971-0.014v6.579L352.464,144.979z
			 M416.98,144.965h-12.914v-6.579h12.914V144.965z M391.152,144.965h-12.916v-6.579h12.916V144.965z"/>
		<rect x="430.039" y="138.386" fill="#FFFFFF" width="6.297" height="6.579"/>
	</g>
	<g>
		<polygon fill="#DBA214" points="585.429,144.962 429.21,144.962 403.958,81.966 		"/>
		<polygon fill="#FFC107" points="585.429,144.962 429.21,144.962 462.944,48.621 		"/>
	</g>
	<g>
		<g>
			<path fill="#D9D8D7" d="M881.642,325.855c-18.559,0-33.593,15.038-33.593,33.594h67.176
				C915.225,340.894,900.187,325.855,881.642,325.855z"/>
			<path fill="#D9D8D7" d="M828.357,339.753c-10.882,0-19.703,8.815-19.703,19.696h39.395
				C848.049,348.569,839.229,339.753,828.357,339.753z"/>
		</g>
		<g>
			<path fill="#D9D8D7" d="M176.902,75.792c30.99,0,56.12,25.117,56.12,56.115H120.774
				C120.774,100.91,145.908,75.792,176.902,75.792z"/>
			<path fill="#D9D8D7" d="M250.602,114.325c9.707,0,17.578,7.862,17.578,17.583h-35.158
				C233.022,122.188,240.888,114.325,250.602,114.325z"/>
		</g>
		<g>
			<path fill="#D9D8D7" d="M827.928,21.156c-39.195,0-70.972,31.783-70.972,70.979H898.9
				C898.9,52.938,867.124,21.156,827.928,21.156z"/>
			<path fill="#D9D8D7" d="M713.582,48.757c-23.953,0-43.377,19.414-43.377,43.377h86.751
				C756.956,68.171,737.543,48.757,713.582,48.757z"/>
			<path fill="#D9D8D7" d="M921.251,69.791c-12.35,0-22.351,10.001-22.351,22.344h44.681
				C943.581,79.792,933.582,69.791,921.251,69.791z"/>
		</g>
	</g>
</g>
</svg>
