<?xml version="1.0" encoding="iso-8859-1"?>
<!-- Generator: Adobe Illustrator 16.0.0, SVG Export Plug-In . SVG Version: 6.00 Build 0)  -->
<!DOCTYPE svg PUBLIC "-//W3C//DTD SVG 1.1//EN" "http://www.w3.org/Graphics/SVG/1.1/DTD/svg11.dtd">
<svg version="1.1" id="Calque_1" xmlns="http://www.w3.org/2000/svg" xmlns:xlink="http://www.w3.org/1999/xlink" x="0px" y="0px"
	 width="282px" height="282px" viewBox="0 0 282 282" style="enable-background:new 0 0 282 282;" xml:space="preserve">
<circle style="fill:#1776D2;" cx="140.727" cy="140.728" r="139.522"/>
<g>
	<g>
		<g>
			<rect x="70.95" y="111.085" style="fill:#242D3C;" width="5.158" height="5.157"/>
			<rect x="94.125" y="111.085" style="fill:#242D3C;" width="5.158" height="5.157"/>
			<rect x="70.95" y="162.467" style="fill:#242D3C;" width="5.158" height="5.156"/>
			<rect x="94.125" y="162.467" style="fill:#242D3C;" width="5.158" height="5.156"/>
			<rect x="183.348" y="111.085" style="fill:#242D3C;" width="5.157" height="5.157"/>
			<rect x="206.521" y="111.085" style="fill:#242D3C;" width="5.157" height="5.157"/>
			<rect x="183.348" y="162.467" style="fill:#242D3C;" width="5.157" height="5.156"/>
			<rect x="206.521" y="162.467" style="fill:#242D3C;" width="5.157" height="5.156"/>
		</g>
		<g>
			<rect x="140.536" y="63.707" style="fill:#242D3C;" width="1.546" height="48.192"/>
			<rect x="140.536" y="166.81" style="fill:#242D3C;" width="1.546" height="48.191"/>
			<rect x="72.75" y="98.241" style="fill:#242D3C;" width="1.547" height="12.844"/>
			<rect x="72.75" y="167.623" style="fill:#242D3C;" width="1.547" height="12.846"/>
			<rect x="208.331" y="98.241" style="fill:#242D3C;" width="1.546" height="12.844"/>
			<rect x="188.505" y="112.89" style="fill:#242D3C;" width="18.016" height="1.546"/>
			<rect x="188.505" y="164.272" style="fill:#242D3C;" width="18.016" height="1.547"/>
			<rect x="76.107" y="112.89" style="fill:#242D3C;" width="18.018" height="1.546"/>
			
				<rect x="107.461" y="109.447" transform="matrix(0.4997 -0.8662 0.8662 0.4997 -50.0176 153.9163)" style="fill:#242D3C;" width="1.547" height="21.621"/>
			
				<rect x="173.618" y="147.634" transform="matrix(0.4985 -0.8669 0.8669 0.4985 -49.9031 230.6351)" style="fill:#242D3C;" width="1.546" height="21.632"/>
			
				<rect x="173.618" y="109.438" transform="matrix(0.4985 0.8669 -0.8669 0.4985 191.6999 -90.8701)" style="fill:#242D3C;" width="1.546" height="21.632"/>
			
				<rect x="107.455" y="147.634" transform="matrix(0.4985 0.8669 -0.8669 0.4985 191.6311 -14.361)" style="fill:#242D3C;" width="1.546" height="21.631"/>
			<rect x="76.107" y="164.272" style="fill:#242D3C;" width="18.018" height="1.547"/>
			<rect x="208.331" y="167.623" style="fill:#242D3C;" width="1.546" height="12.846"/>
		</g>
	</g>
	<g>
		<g>
			<polygon style="fill:#FFC107;" points="117.21,125.439 141.306,139.354 165.41,125.439 141.306,111.529 			"/>
			<polygon style="fill:#FFFFFF;" points="141.306,139.354 141.306,167.18 117.21,153.265 117.21,125.443 			"/>
			<polygon style="fill:#242D3C;" points="165.41,125.443 165.41,153.265 141.306,167.18 141.306,139.354 			"/>
		</g>
		<g>
			<rect x="125.242" y="31.573" style="fill:#FFFFFF;" width="32.136" height="32.133"/>
			<rect x="125.242" y="215.001" style="fill:#FFFFFF;" width="32.136" height="32.131"/>
			<rect x="193.022" y="66.113" style="fill:#FFFFFF;" width="32.13" height="32.128"/>
			<rect x="193.022" y="180.468" style="fill:#FFFFFF;" width="32.13" height="32.129"/>
			<rect x="57.468" y="66.113" style="fill:#FFFFFF;" width="32.129" height="32.128"/>
			<rect x="57.468" y="180.468" style="fill:#FFFFFF;" width="32.129" height="32.129"/>
		</g>
	</g>
	<g>
		<rect x="65.149" y="32.471" style="fill:#FFC107;" width="11.905" height="11.906"/>
		<rect x="161.082" y="90.441" style="fill:#242D3C;" width="9.085" height="9.083"/>
		<rect x="195.402" y="28.907" style="fill:#E6E5E5;" width="13.701" height="13.7"/>
		<rect x="55.13" y="149.562" style="fill:#E6E5E5;" width="4.679" height="4.68"/>
		<rect x="95.308" y="128.858" style="fill:#E6E5E5;" width="7.26" height="7.259"/>
		<rect x="23.683" y="121.099" style="fill:#242D3C;" width="11.39" height="11.39"/>
		<rect x="257.39" y="155.017" style="fill:#242D3C;" width="6.928" height="6.928"/>
		<rect x="215.452" y="129.604" style="fill:#FFC107;" width="13.028" height="13.027"/>
		<rect x="117.216" y="182.54" style="fill:#FFC107;" width="10.038" height="10.036"/>
		<rect x="82.069" y="233.038" style="fill:#242D3C;" width="15.056" height="15.056"/>
		<rect x="165.027" y="190.006" style="fill:#E6E5E5;" width="5.14" height="5.14"/>
		<rect x="219.697" y="233.038" style="fill:#FFC107;" width="7.527" height="7.527"/>
	</g>
</g>
</svg>
