<?xml version="1.0" encoding="iso-8859-1"?>
<!-- Generator: Adobe Illustrator 16.0.0, SVG Export Plug-In . SVG Version: 6.00 Build 0)  -->
<!DOCTYPE svg PUBLIC "-//W3C//DTD SVG 1.1//EN" "http://www.w3.org/Graphics/SVG/1.1/DTD/svg11.dtd">
<svg version="1.1" id="Calque_1" xmlns="http://www.w3.org/2000/svg" xmlns:xlink="http://www.w3.org/1999/xlink" x="0px" y="0px"
	 width="1024px" height="571.399px" viewBox="0 0 1024 571.399" style="enable-background:new 0 0 1024 571.399;"
	 xml:space="preserve">
<g>
	<g>
		<g>
			<g>
				<path style="fill:#242D3C;" d="M74.938,470.099V42.639c0-5.737,1.929-11.477,5.735-15.876c3.765-4.398,8.781-6.623,13.757-6.623
					h545.594c4.969,0,9.943,2.225,13.796,6.623c3.759,4.399,5.691,10.139,5.691,15.876v427.46H74.938z"/>
				<rect x="107.413" y="57.632" style="fill:#FFFFFF;" width="519.588" height="374.961"/>
				<g>
					<path style="fill:#3E4959;" d="M375.376,38.912c0,5.19-3.712,9.358-8.152,9.358c-4.489,0-8.11-4.168-8.11-9.358
						c0-5.192,3.621-9.359,8.11-9.359C371.664,29.552,375.376,33.72,375.376,38.912z"/>
					<path style="fill:#FFFFFF;" d="M370.503,38.912c0,2.051-1.457,3.727-3.28,3.727c-1.79,0-3.233-1.676-3.233-3.727
						c0-2.059,1.443-3.738,3.233-3.738C369.046,35.174,370.503,36.853,370.503,38.912z"/>
				</g>
			</g>
			<g>
				<rect x="10.005" y="470.099" style="fill:#E6E5E5;" width="714.45" height="15.027"/>
				<path style="fill:#CCCBCA;" d="M724.455,485.126c0,6.691-2.206,13.408-6.704,18.557c-4.409,5.131-10.188,7.686-16.06,7.686
					H32.721c-5.834,0-11.616-2.555-16.073-7.686c-4.448-5.148-6.643-11.865-6.643-18.557l0,0H724.455L724.455,485.126z"/>
				<rect x="302.282" y="470.099" style="fill:#CCCBCA;" width="129.886" height="7.512"/>
			</g>
		</g>
		<g>
			<g>
				<rect x="375.324" y="207.386" style="fill:#242D3C;" width="34.031" height="30.873"/>
				<rect x="426.358" y="149.297" style="fill:#D9D8D7;" width="34.034" height="88.961"/>
				<rect x="477.398" y="184.419" style="fill:#D9D8D7;" width="34.012" height="53.839"/>
				<rect x="528.431" y="94.893" style="fill:#1776D2;" width="34.016" height="143.366"/>
				<rect x="579.46" y="130.595" style="fill:#D9D8D7;" width="34.014" height="107.664"/>
			</g>
		</g>
		<g>
			<rect x="375.324" y="270.988" style="fill:#242D3C;" width="238.149" height="14.962"/>
			<rect x="375.324" y="300.911" style="fill:#CCCBCA;" width="238.149" height="14.967"/>
			<rect x="375.324" y="330.833" style="fill:#CCCBCA;" width="238.149" height="14.968"/>
			<rect x="375.324" y="360.77" style="fill:#CCCBCA;" width="119.076" height="14.966"/>
		</g>
	</g>
	<g>
		<g>
			<path style="fill:#242D3C;" d="M889.555,516.114c0,15.631-12.788,28.42-28.42,28.42H607.928
				c-15.635,0-28.421-12.789-28.421-28.42V123.391c0-15.63,12.786-28.418,28.421-28.418h253.207c15.632,0,28.42,12.788,28.42,28.418
				V516.114z"/>
			<path style="fill:#3E4959;" d="M734.474,134.634c-6.221,0-11.185-4.994-11.185-11.255c0-6.136,4.964-11.228,11.185-11.228
				c6.215,0,11.294,5.091,11.294,11.228C745.768,129.64,740.688,134.634,734.474,134.634z"/>
			<path style="fill:#FFFFFF;" d="M734.508,127.327c-2.178,0-3.915-1.746-3.915-3.94c0-2.148,1.737-3.93,3.915-3.93
				c2.173,0,3.954,1.782,3.954,3.93C738.462,125.581,736.681,127.327,734.508,127.327z"/>
			<rect x="605.342" y="151.812" style="fill:#FFFFFF;" width="258.375" height="335.88"/>
			<path style="fill:#3E4959;" d="M770.696,516.114c0-4.977-4.063-9.045-9.032-9.045h-54.267c-4.975,0-9.041,4.068-9.041,9.045l0,0
				c0,4.973,4.066,9.043,9.041,9.043h54.267C766.633,525.157,770.696,521.087,770.696,516.114L770.696,516.114z"/>
		</g>
		<g>
			<g>
				<g>
					<rect x="624.752" y="300.302" style="fill:#FFC107;" width="18.302" height="26.419"/>
					<rect x="643.054" y="254.647" style="fill:#F7DEA6;" width="18.286" height="72.073"/>
					<rect x="661.34" y="278.67" style="fill:#F4A800;" width="18.308" height="48.051"/>
					<rect x="679.647" y="268.269" style="fill:#FFC107;" width="18.297" height="58.452"/>
					<rect x="697.944" y="287.084" style="fill:#F7DEA6;" width="18.288" height="39.637"/>
					<rect x="716.232" y="239.433" style="fill:#F4A800;" width="18.298" height="87.288"/>
					<rect x="734.53" y="269.858" style="fill:#FFC107;" width="18.282" height="56.862"/>
					<rect x="752.812" y="275.47" style="fill:#F7DEA6;" width="18.311" height="51.251"/>
					<rect x="771.123" y="254.647" style="fill:#F4A800;" width="18.293" height="72.073"/>
					<rect x="789.416" y="231.427" style="fill:#FFC107;" width="18.295" height="95.294"/>
					<rect x="807.711" y="221.021" style="fill:#F7DEA6;" width="18.307" height="105.699"/>
					<rect x="826.018" y="245.439" style="fill:#F4A800;" width="18.289" height="81.281"/>
				</g>
				<g>
					<g>
						<rect x="716.232" y="194.249" style="fill:#F4A800;" width="9.963" height="9.973"/>
						<rect x="731.183" y="199.231" style="fill:#D9D8D7;" width="22.44" height="4.99"/>
					</g>
					<g>
						<rect x="761.571" y="194.249" style="fill:#FFC107;" width="9.971" height="9.973"/>
						<rect x="776.512" y="199.231" style="fill:#D9D8D7;" width="22.449" height="4.99"/>
					</g>
					<g>
						<rect x="806.914" y="194.249" style="fill:#F7DEA6;" width="9.966" height="9.973"/>
						<rect x="821.854" y="199.231" style="fill:#D9D8D7;" width="22.452" height="4.99"/>
					</g>
				</g>
				<g>
					<g>
						<rect x="624.752" y="185.936" style="fill:#242D3C;" width="73.192" height="18.286"/>
					</g>
					<rect x="633.119" y="192.872" style="fill:#FFFFFF;" width="28.221" height="4.99"/>
				</g>
				<g>
					<rect x="624.752" y="209.211" style="fill:#D9D8D7;" width="73.192" height="4.974"/>
					<rect x="624.752" y="219.175" style="fill:#D9D8D7;" width="36.59" height="4.979"/>
				</g>
			</g>
			<g>
				<g>
					<rect x="702.808" y="404.776" style="fill:#D9D8D7;" width="141.499" height="9.758"/>
					<rect x="702.808" y="385.267" style="fill:#D9D8D7;" width="141.499" height="9.752"/>
					<rect x="702.808" y="365.751" style="fill:#D9D8D7;" width="141.499" height="9.758"/>
					<rect x="702.808" y="346.237" style="fill:#242D3C;" width="141.499" height="9.758"/>
					<rect x="624.754" y="424.29" style="fill:#D9D8D7;" width="219.553" height="9.766"/>
					<rect x="624.754" y="443.812" style="fill:#D9D8D7;" width="109.788" height="9.756"/>
				</g>
				<rect x="624.754" y="346.237" style="fill:#1776D2;" width="68.298" height="68.297"/>
			</g>
		</g>
	</g>
	<g>
		<g>
			<path style="fill:#242D3C;" d="M989.914,174.4H853.508c-12.9,0-23.491,12.202-23.491,27.136v334.848
				c0,14.918,10.591,27.119,23.491,27.119h136.406c12.909,0,23.456-12.201,23.456-27.119V201.536
				C1013.37,186.602,1002.823,174.4,989.914,174.4z"/>
			<rect x="843.318" y="233.232" style="fill:#FFFFFF;" width="156.816" height="271.454"/>
			<path style="fill:#3E4959;" d="M907.208,542.505c-3.519,0-6.341-3.305-6.341-7.309v-2.203c0-4.016,2.822-7.299,6.341-7.299
				h29.056c3.445,0,6.265,3.283,6.265,7.299v2.203c0,4.004-2.819,7.309-6.265,7.309H907.208z"/>
			<path style="fill:#3E4959;" d="M927.616,203.812c0,3.762-2.585,6.816-5.854,6.816c-3.278,0-5.957-3.055-5.957-6.816
				c0-3.761,2.679-6.854,5.957-6.854C925.031,196.958,927.616,200.051,927.616,203.812z"/>
			<path style="fill:#242D3C;" d="M924.079,203.812c0,1.486-1.05,2.706-2.316,2.706c-1.361,0-2.433-1.22-2.433-2.706
				c0-1.501,1.071-2.748,2.433-2.748C923.029,201.063,924.079,202.311,924.079,203.812z"/>
		</g>
		<g>
			<path style="fill:#CECACA;" d="M902.447,397.638c-1.16-0.428-2.322-0.895-3.458-1.395l1.31-2.965
				c1.071,0.473,2.171,0.914,3.262,1.316L902.447,397.638z M942.542,397.601l-1.12-3.041c1.088-0.404,2.183-0.846,3.25-1.318
				l1.315,2.963C944.856,396.704,943.696,397.173,942.542,397.601z M895.632,394.628c-1.098-0.57-2.189-1.186-3.246-1.826
				l1.679-2.771c0.996,0.604,2.027,1.186,3.064,1.725L895.632,394.628z M949.332,394.591l-1.502-2.873
				c1.035-0.543,2.064-1.123,3.057-1.729l1.683,2.771C951.517,393.399,950.427,394.013,949.332,394.591z M889.266,390.774
				c-1.008-0.703-2.014-1.453-2.984-2.225l2.015-2.535c0.918,0.73,1.869,1.438,2.821,2.098L889.266,390.774z M955.684,390.729
				l-1.86-2.658c0.957-0.668,1.904-1.375,2.813-2.104l2.023,2.533C957.696,389.269,956.693,390.021,955.684,390.729z
				 M883.444,386.144c-0.915-0.828-1.815-1.701-2.678-2.588l2.323-2.256c0.814,0.836,1.665,1.66,2.529,2.439L883.444,386.144z
				 M961.489,386.085l-2.181-2.396c0.863-0.785,1.713-1.609,2.522-2.447l2.332,2.256
				C963.306,384.384,962.401,385.255,961.489,386.085z M878.262,380.81c-0.804-0.941-1.584-1.918-2.327-2.902l2.593-1.945
				c0.7,0.936,1.438,1.854,2.197,2.74L878.262,380.81z M966.666,380.739l-2.472-2.098c0.756-0.889,1.496-1.814,2.192-2.748
				l2.596,1.938C968.244,378.821,967.461,379.802,966.666,380.739z M873.801,374.86c-0.677-1.031-1.326-2.098-1.938-3.172
				l2.817-1.602c0.577,1.018,1.194,2.027,1.831,3L873.801,374.86z M971.114,374.776l-2.717-1.77
				c0.638-0.977,1.251-1.986,1.824-3.002l2.825,1.588C972.44,372.665,971.789,373.739,971.114,374.776z M870.135,368.396
				c-0.539-1.11-1.045-2.253-1.513-3.394l3.001-1.225c0.439,1.078,0.919,2.156,1.429,3.205L870.135,368.396z M974.766,368.29
				l-2.918-1.404c0.503-1.051,0.982-2.135,1.42-3.217l3.008,1.213C975.81,366.03,975.305,367.179,974.766,368.29z M867.33,361.513
				c-0.393-1.169-0.749-2.369-1.064-3.566l3.13-0.826c0.303,1.13,0.64,2.263,1.006,3.365L867.33,361.513z M977.556,361.386
				l-3.074-1.021c0.364-1.111,0.699-2.244,0.994-3.367l3.136,0.814C978.303,359.003,977.947,360.206,977.556,361.386z
				 M865.434,354.319c-0.237-1.211-0.439-2.445-0.599-3.671l3.212-0.418c0.152,1.157,0.343,2.325,0.564,3.468L865.434,354.319z
				 M979.435,354.187l-3.183-0.615c0.221-1.15,0.406-2.316,0.554-3.469l3.212,0.408
				C979.865,351.731,979.668,352.966,979.435,354.187z M864.475,346.946c-0.08-1.227-0.123-2.479-0.127-3.717l3.241-0.008
				c0.002,1.17,0.042,2.354,0.119,3.512L864.475,346.946z M980.37,346.81l-3.233-0.203c0.073-1.168,0.113-2.351,0.113-3.515v-0.239
				h3.238v0.239C980.488,344.323,980.45,345.572,980.37,346.81z M867.693,339.71l-3.236-0.199c0.076-1.236,0.19-2.482,0.347-3.703
				l3.214,0.402C867.873,337.364,867.763,338.54,867.693,339.71z M977.123,339.346c-0.082-1.164-0.196-2.339-0.349-3.494
				l3.211-0.425c0.164,1.223,0.289,2.469,0.369,3.703L977.123,339.346z M868.567,332.742l-3.183-0.61
				c0.234-1.221,0.51-2.442,0.817-3.629l3.137,0.812C869.047,330.437,868.787,331.589,868.567,332.742z M976.204,332.389
				c-0.229-1.151-0.495-2.304-0.792-3.424l3.131-0.833c0.316,1.187,0.599,2.408,0.839,3.625L976.204,332.389z M870.33,325.946
				l-3.08-1.014c0.388-1.173,0.818-2.352,1.281-3.502l3.005,1.212C871.1,323.729,870.692,324.841,870.33,325.946z M974.404,325.601
				c-0.378-1.111-0.789-2.219-1.23-3.291l3-1.23c0.467,1.139,0.904,2.312,1.3,3.49L974.404,325.601z M872.956,319.424l-2.921-1.401
				c0.535-1.116,1.113-2.23,1.72-3.304l2.824,1.585C874.006,317.321,873.463,318.37,872.956,319.424z M971.744,319.108
				c-0.509-1.045-1.058-2.088-1.64-3.105l2.819-1.602c0.611,1.078,1.194,2.184,1.732,3.289L971.744,319.108z M876.398,313.298
				l-2.719-1.766c0.679-1.045,1.394-2.072,2.128-3.059l2.598,1.938C877.712,311.341,877.037,312.311,876.398,313.298z
				 M968.271,313.009c-0.639-0.971-1.316-1.938-2.02-2.871l2.591-1.949c0.744,0.989,1.459,2.013,2.138,3.043L968.271,313.009z
				 M880.593,307.659l-2.471-2.098c0.802-0.942,1.642-1.873,2.496-2.758l2.334,2.249
				C882.144,305.89,881.351,306.768,880.593,307.659z M964.053,307.399c-0.756-0.883-1.553-1.754-2.372-2.594l2.321-2.262
				c0.862,0.887,1.71,1.811,2.512,2.745L964.053,307.399z M885.471,302.603l-2.186-2.395c0.912-0.834,1.864-1.648,2.823-2.419
				l2.028,2.526C887.23,301.044,886.331,301.813,885.471,302.603z M959.148,302.37c-0.864-0.781-1.766-1.545-2.683-2.271
				l2.014-2.538c0.972,0.769,1.924,1.577,2.841,2.405L959.148,302.37z M890.945,298.205l-1.862-2.649
				c1.008-0.71,2.054-1.398,3.108-2.042l1.689,2.764C892.887,296.888,891.897,297.535,890.945,298.205z M953.643,298.003
				c-0.961-0.668-1.956-1.312-2.948-1.91l1.673-2.775c1.053,0.635,2.104,1.315,3.123,2.022L953.643,298.003z M896.932,294.545
				l-1.509-2.866c1.095-0.579,2.22-1.127,3.342-1.628l1.324,2.959C899.03,293.483,897.968,293.999,896.932,294.545z
				 M947.625,294.374c-1.038-0.539-2.105-1.05-3.172-1.518l1.302-2.967c1.133,0.496,2.265,1.039,3.36,1.607L947.625,294.374z
				 M903.332,291.683l-1.128-3.037c1.159-0.434,2.346-0.83,3.527-1.188l0.931,3.105
				C905.547,290.897,904.427,291.274,903.332,291.683z M941.187,291.547c-1.093-0.4-2.218-0.767-3.335-1.095l0.91-3.109
				c1.184,0.347,2.373,0.738,3.534,1.159L941.187,291.547z M910.058,289.663l-0.73-3.158c1.203-0.277,2.432-0.52,3.653-0.721
				l0.524,3.197C912.351,289.173,911.194,289.398,910.058,289.663z M934.449,289.578c-1.133-0.253-2.291-0.474-3.447-0.655
				l0.5-3.203c1.226,0.193,2.456,0.427,3.655,0.695L934.449,289.578z M916.983,288.525l-0.315-3.224
				c1.227-0.122,2.473-0.205,3.71-0.249l0.111,3.239C919.325,288.333,918.144,288.413,916.983,288.525z M927.515,288.489
				c-1.159-0.106-2.338-0.176-3.51-0.209l0.094-3.24c1.236,0.035,2.483,0.109,3.712,0.223L927.515,288.489z"/>
			<g>
				<path style="fill:#3E4959;" d="M951.112,412.464c0,7.133-12.839,12.918-28.682,12.918c-15.842,0-28.688-5.785-28.688-12.918
					c0-7.131,12.846-12.916,28.688-12.916C938.273,399.548,951.112,405.333,951.112,412.464z"/>
				<path style="fill:#1776D2;" d="M922.431,302.772c-22.269,0-40.327,18.068-40.327,40.319c0,9.282,3.382,17.598,8.352,24.571
					c31.976,44.801,31.976,44.801,31.976,44.801s0,0,31.963-44.805c4.977-6.973,8.344-15.312,8.344-24.567
					C962.737,320.841,944.701,302.772,922.431,302.772z"/>
				<path style="fill:#FFFFFF;" d="M951.112,343.092c0,15.87-12.826,28.698-28.682,28.698c-15.84,0-28.707-12.828-28.707-28.698
					c0-15.839,12.867-28.695,28.707-28.695C938.286,314.396,951.112,327.253,951.112,343.092z"/>
				<g>
					<path style="fill:#242D3C;" d="M922.427,364.092c-11.582,0-21.012-9.419-21.012-20.997c0-11.581,9.43-21.003,21.012-21.003
						c11.574,0,20.992,9.422,20.992,21.003C943.419,354.673,934.001,364.092,922.427,364.092z M922.427,324.769
						c-10.11,0-18.335,8.218-18.335,18.326c0,10.105,8.225,18.324,18.335,18.324c10.105,0,18.329-8.219,18.329-18.324
						C940.756,332.986,932.532,324.769,922.427,324.769z"/>
					<path style="fill:#242D3C;" d="M922.427,364.092c-6.271,0-11.183-9.222-11.183-20.997c0-11.778,4.912-21.003,11.183-21.003
						v2.677c-4.607,0-8.503,8.393-8.503,18.326c0,9.932,3.896,18.324,8.503,18.324V364.092z"/>
					<path style="fill:#242D3C;" d="M922.427,364.092v-2.673c4.602,0,8.488-8.393,8.488-18.324c0-9.934-3.887-18.326-8.488-18.326
						v-2.677c6.261,0,11.165,9.225,11.165,21.003C933.592,354.87,928.688,364.092,922.427,364.092z"/>
					<rect x="921.084" y="323.43" style="fill:#242D3C;" width="2.681" height="39.324"/>
					<rect x="902.757" y="341.755" style="fill:#242D3C;" width="39.327" height="2.678"/>
					<path style="fill:#242D3C;" d="M922.427,334.601c-5.401,0-10.708-0.848-15.774-2.521l0.84-2.541
						c9.589,3.168,20.276,3.168,29.856,0.001l0.835,2.54C933.124,333.753,927.827,334.601,922.427,334.601z"/>
					<path style="fill:#242D3C;" d="M907.489,356.647l-0.832-2.543c10.169-3.34,21.358-3.342,31.526,0l-0.833,2.543
						C927.722,353.479,917.119,353.485,907.489,356.647z"/>
				</g>
			</g>
			<g>
				<path style="fill:#1776D2;" d="M967.277,415.819c-9.496,0-17.213,7.707-17.213,17.203c0,3.965,1.444,7.512,3.567,10.488
					c13.646,19.119,13.646,19.119,13.646,19.119s0,0,13.648-19.121c2.121-2.977,3.56-6.539,3.56-10.486
					C984.485,423.526,976.792,415.819,967.277,415.819z"/>
				<path style="fill:#FFFFFF;" d="M973.261,432.966c0,3.521-2.849,6.363-6.366,6.363c-3.513,0-6.354-2.842-6.354-6.363
					c0-3.51,2.842-6.363,6.354-6.363C970.412,426.603,973.261,429.456,973.261,432.966z"/>
			</g>
			<g>
				<path style="fill:#FFC107;" d="M884.7,431.28c-9.498,0-17.213,7.709-17.213,17.205c0,3.963,1.442,7.51,3.566,10.488
					c13.646,19.117,13.646,19.117,13.646,19.117s0,0,13.648-19.121c2.114-2.975,3.552-6.539,3.552-10.484
					C901.9,438.989,894.203,431.28,884.7,431.28z"/>
				<path style="fill:#FFFFFF;" d="M891.063,448.485c0,3.521-2.851,6.359-6.363,6.359c-3.511,0-6.366-2.838-6.366-6.359
					c0-3.514,2.855-6.363,6.366-6.363C888.213,442.122,891.063,444.972,891.063,448.485z"/>
			</g>
			<g>
				<circle style="fill:#1776D2;" cx="949.725" cy="278.215" r="5.803"/>
				<path style="fill:#1776D2;" d="M874.821,327.103c0,3.668-2.979,6.65-6.653,6.65c-3.673,0-6.65-2.982-6.65-6.65
					c0-3.676,2.978-6.654,6.65-6.654C871.842,320.448,874.821,323.427,874.821,327.103z"/>
				<path style="fill:#FFC107;" d="M856.16,307.403c0,2.554-2.074,4.629-4.629,4.629c-2.557,0-4.631-2.075-4.631-4.629
					c0-2.557,2.074-4.631,4.631-4.631C854.086,302.772,856.16,304.847,856.16,307.403z"/>
				<path style="fill:#FFC107;" d="M854.275,364.137c0,1.277-1.036,2.312-2.314,2.312c-1.282,0-2.315-1.034-2.315-2.312
					c0-1.281,1.033-2.315,2.315-2.315C853.239,361.821,854.275,362.855,854.275,364.137z"/>
				<circle style="fill:#FFC107;" cx="993.709" cy="323.432" r="1.738"/>
				<path style="fill:#1776D2;" d="M997.123,356.649c0,1.886-1.53,3.412-3.412,3.412c-1.892,0-3.417-1.526-3.417-3.412
					c0-1.883,1.525-3.414,3.417-3.414C995.593,353.235,997.123,354.767,997.123,356.649z"/>
				<path style="fill:#FFC107;" d="M980.897,330.399c0,1.914-1.547,3.463-3.462,3.463s-3.466-1.549-3.466-3.463
					c0-1.915,1.551-3.469,3.466-3.469S980.897,328.484,980.897,330.399z"/>
			</g>
		</g>
	</g>
</g>
<g>
	<g>
		<g>
			<path style="fill:#D9D8D7;" d="M305.769,246.234c0,16.667-6.764,31.759-17.691,42.673l17.764,17.768
				c15.473-15.475,25.028-36.842,25.028-60.44H305.769z"/>
			<path style="fill:#242D3C;" d="M245.408,185.881c33.323,0,60.361,27.018,60.361,60.345c0,0.008,0,0.008,0,0.008h25.102
				c0-47.194-38.266-85.461-85.471-85.461v25.108H245.408z"/>
			<path style="fill:#F7DEA6;" d="M245.393,185.881v-25.112c-11.569,0-22.613,2.313-32.671,6.525l9.603,23.185
				C229.438,187.529,237.206,185.888,245.393,185.881z"/>
			<path style="fill:#FFC107;" d="M288.051,288.923c-10.916,10.914-25.988,17.662-42.643,17.662
				c-33.325,0-60.354-27.023-60.354-60.358c0-25.138,15.392-46.68,37.271-55.747l-9.603-23.185
				c-30.98,12.798-52.768,43.351-52.768,78.953c0,47.162,38.283,85.445,85.439,85.445c23.606,0,44.984-9.546,60.449-24.984
				L288.051,288.923z"/>
		</g>
		<circle style="fill:#1776D2;" cx="245.413" cy="246.229" r="40.215"/>
		<g>
			
				<rect x="242.396" y="222.058" transform="matrix(0.7069 0.7073 -0.7073 0.7069 246.0907 -101.4132)" style="fill:#FFFFFF;" width="6.032" height="48.345"/>
			<g>
				<path style="fill:#FFFFFF;" d="M256.06,266.341c-5.217,0-9.459-4.246-9.459-9.465c0-5.215,4.243-9.459,9.459-9.459
					s9.46,4.244,9.46,9.459C265.52,262.095,261.276,266.341,256.06,266.341z M256.06,253.448c-1.892,0-3.427,1.538-3.427,3.428
					c0,1.893,1.536,3.433,3.427,3.433c1.89,0,3.428-1.54,3.428-3.433C259.488,254.986,257.95,253.448,256.06,253.448z"/>
				<path style="fill:#FFFFFF;" d="M234.766,245.044c-5.217,0-9.461-4.244-9.461-9.463c0-5.217,4.245-9.459,9.461-9.459
					c5.216,0,9.459,4.242,9.459,9.459C244.226,240.8,239.982,245.044,234.766,245.044z M234.766,232.153
					c-1.891,0-3.43,1.538-3.43,3.428c0,1.891,1.539,3.431,3.43,3.431c1.889,0,3.429-1.54,3.429-3.431
					C238.195,233.691,236.655,232.153,234.766,232.153z"/>
			</g>
		</g>
	</g>
	<g>
		<path style="fill:#242D3C;" d="M217.711,145.256c0,5.725-4.634,10.356-10.348,10.356c-5.716,0-10.354-4.631-10.354-10.356
			c0-5.707,4.639-10.35,10.354-10.35C213.077,134.906,217.711,139.55,217.711,145.256z"/>
		<path style="fill:#242D3C;" d="M195.066,334.091c0,6.551-5.316,11.871-11.871,11.871c-6.556,0-11.869-5.32-11.869-11.871
			c0-6.559,5.313-11.875,11.869-11.875C189.75,322.216,195.066,327.532,195.066,334.091z"/>
		<path style="fill:#D9D8D7;" d="M321.202,157.772c0,3.217-2.615,5.834-5.832,5.834c-3.225,0-5.837-2.618-5.837-5.834
			c0-3.218,2.612-5.833,5.837-5.833C318.587,151.938,321.202,154.554,321.202,157.772z"/>
		<circle style="fill:#242D3C;" cx="128.443" cy="196.183" r="4.313"/>
		<path style="fill:#D9D8D7;" d="M144.633,323.354c0,2.187-1.767,3.955-3.953,3.955c-2.194,0-3.961-1.769-3.961-3.955
			c0-2.19,1.767-3.96,3.961-3.96C142.866,319.395,144.633,321.164,144.633,323.354z"/>
		<path style="fill:#D9D8D7;" d="M344.374,153.7c0,1.643-1.325,2.968-2.97,2.968c-1.64,0-2.965-1.325-2.965-2.968
			c0-1.638,1.326-2.977,2.965-2.977C343.048,150.723,344.374,152.062,344.374,153.7z"/>
		<path style="fill:#D9D8D7;" d="M328.966,326.32c0,4.292-3.481,7.769-7.759,7.769c-4.293,0-7.768-3.477-7.768-7.769
			c0-4.286,3.475-7.763,7.768-7.763C325.484,318.558,328.966,322.034,328.966,326.32z"/>
		<circle style="fill:#242D3C;" cx="351.297" cy="212.204" r="3.957"/>
	</g>
</g>
<g>
	<path style="fill:#FFFFFF;" d="M653.129,368.011c1.899,0.129,3.009,0.342,4.345,1.057c0.144,0.077,0.363,0.018,0.546,0.01
		c0.88-0.033,1.759-0.067,2.639-0.106c0.252-0.011,0.546,0.05,0.752-0.056c2.256-1.148,4.667-1.443,7.146-1.35
		c1.258,0.045,2.512,0.148,3.759,0.299c0.899,0.106,1.221,1.13,0.693,1.881c-0.223,0.324-0.35,0.73-0.459,1.115
		c-0.336,1.207-0.575,2.445-0.98,3.629c-0.404,1.168-1.276,1.934-2.489,2.283c-2.306,0.66-4.467,0.41-6.436-1.016
		c-1.066-0.773-1.514-1.922-1.817-3.141c-0.067-0.271-0.107-0.555-0.152-0.83c-0.138-0.838-0.469-1.158-1.209-1.164
		c-0.775-0.004-1.156,0.4-1.37,1.195c-0.299,1.1-0.551,2.254-1.091,3.238c-0.981,1.783-2.779,2.346-4.674,2.498
		c-1.817,0.146-3.495-0.258-4.772-1.713c-0.948-1.082-1.217-2.412-1.47-3.764c-0.102-0.557-0.332-1.09-0.513-1.635
		c-0.29-0.874-0.324-1.648,0.841-1.957C648.657,367.898,651.23,367.882,653.129,368.011z M649.196,369.503
		c-0.82,0.152-1.321,0.801-1.546,1.607c-0.483,1.709,0.539,4.033,2.117,4.846c1.889,0.973,4.752,0.342,6.01-1.375
		c0.869-1.178,0.952-2.51,0.4-3.834c-0.49-1.179-1.583-1.496-2.729-1.555C652.027,369.116,650.485,369.259,649.196,369.503z
		 M671.068,371.913c0-0.057,0.018-0.229,0.015-0.404c-0.026-1.676-0.867-2.652-2.538-2.79c-0.967-0.079-1.948,0.011-2.922,0.044
		c-0.301,0.01-0.603,0.072-0.9,0.13c-2.357,0.483-3.357,2.831-2.078,4.905c0.979,1.586,2.508,2.148,4.269,2.131
		C669.271,375.907,670.854,374.376,671.068,371.913z"/>
	<path style="fill:#FFFFFF;" d="M638.697,362.544c0.008-2.892,2.031-5.543,4.734-6.193c2.993-0.721,6.029,0.608,7.333,3.208
		c0.575,1.146,0.333,1.782-0.872,2.212c-0.836,0.298-1.684,0.558-2.524,0.84c-1.849,0.621-3.236,1.883-4.546,3.258
		c-0.221,0.234-0.464,0.453-0.713,0.658c-0.938,0.76-1.608,0.668-2.277-0.314C639.081,365.107,638.705,363.882,638.697,362.544z"/>
	<path style="fill:#FFFFFF;" d="M671.867,356.148c2.592,0.081,4.546,1.208,5.707,3.485c1.145,2.245,0.94,4.484-0.438,6.594
		c-0.628,0.963-1.354,1.075-2.226,0.324c-0.752-0.65-1.44-1.374-2.165-2.057c-1.011-0.949-2.198-1.596-3.522-2.006
		c-0.723-0.227-1.442-0.465-2.154-0.723c-1.176-0.43-1.447-1.057-0.857-2.166C667.413,357.33,669.352,356.229,671.867,356.148z"/>
	<path style="fill:#FFFFFF;" d="M658.293,395.905c-0.776,0.834-0.979,1.719-0.568,2.74c0.05,0.119-0.091,0.422-0.224,0.496
		c-1.371,0.766-2.803,1.354-4.404,1.414c-0.483,0.02-0.766-0.156-0.876-0.656c-0.395-1.75-0.342-3.494,0.109-5.213
		c0.319-1.217,0.869-1.52,2.083-1.191C655.927,393.907,657.198,394.728,658.293,395.905z"/>
	<path style="fill:#FFFFFF;" d="M660.91,399.171c0.723-0.932,0.831-1.803,0.263-2.742c-0.07-0.115-0.001-0.445,0.108-0.521
		c1.283-0.883,2.667-1.529,4.254-1.588c0.874-0.029,1.336,0.299,1.457,1.143c0.273,1.896,0.125,3.756-0.622,5.547
		c-0.159,0.381-0.412,0.623-0.847,0.541C663.773,401.214,662.316,400.329,660.91,399.171z"/>
	<path style="fill:#FFFFFF;" d="M661.962,378.31c1.211,0.203,1.636,1.275,0.926,2.289c-0.217,0.309-0.521,0.6-0.854,0.77
		c-1.507,0.766-3.086,0.777-4.667,0.248c-0.803-0.264-1.271-0.855-1.414-1.707c-0.149-0.883,0.075-1.35,0.965-1.523
		C657.805,378.216,661.197,378.183,661.962,378.31z"/>
	<path style="fill:#FFFFFF;" d="M661.152,386.169c1.765,0.16,1.206,1.189-0.078,1.33c-1.03,0.068-2.072,0.072-3.102-0.006
		c-2.328-0.275-0.996-1.295-0.03-1.367C658.908,386.052,660.627,386.001,661.152,386.169z"/>
	<path style="fill:#FFFFFF;" d="M661.641,397.521c0,1.146-0.926,2.074-2.071,2.074c-1.144,0-2.071-0.928-2.071-2.074
		c0-1.141,0.928-2.068,2.071-2.068C660.715,395.452,661.641,396.38,661.641,397.521z"/>
</g>
</svg>
