<?xml version="1.0" encoding="iso-8859-1"?>
<!-- Generator: Adobe Illustrator 16.0.0, SVG Export Plug-In . SVG Version: 6.00 Build 0)  -->
<!DOCTYPE svg PUBLIC "-//W3C//DTD SVG 1.1//EN" "http://www.w3.org/Graphics/SVG/1.1/DTD/svg11.dtd">
<svg version="1.1" id="Calque_1" xmlns="http://www.w3.org/2000/svg" xmlns:xlink="http://www.w3.org/1999/xlink" x="0px" y="0px"
	 width="688.466px" height="768px" viewBox="0 0 688.466 768" style="enable-background:new 0 0 688.466 768;" xml:space="preserve"
	>
<g>
	<g>
		<g>
			<path style="fill:#242D3C;" d="M64.172,294.07c-2.208,0-4.006-1.793-4.006-4.004s1.798-4.005,4.006-4.005
				c2.209,0,4.006,1.794,4.006,4.005S66.381,294.07,64.172,294.07z"/>
			<path style="fill:#242D3C;" d="M64.172,309.23c-2.208,0-4.006-1.793-4.006-4.005c0-2.211,1.798-4.004,4.006-4.004
				c2.209,0,4.006,1.793,4.006,4.004C68.179,307.437,66.381,309.23,64.172,309.23z"/>
			<path style="fill:#242D3C;" d="M64.172,324.393c-2.208,0-4.006-1.793-4.006-4.004c0-2.21,1.798-4.004,4.006-4.004
				c2.209,0,4.006,1.794,4.006,4.004C68.179,322.599,66.381,324.393,64.172,324.393z"/>
			<path style="fill:#242D3C;" d="M64.172,339.556c-2.208,0-4.006-1.794-4.006-4.004c0-2.211,1.798-4.004,4.006-4.004
				c2.209,0,4.006,1.793,4.006,4.004C68.179,337.762,66.381,339.556,64.172,339.556z"/>
			<path style="fill:#242D3C;" d="M64.172,354.714c-2.208,0-4.006-1.793-4.006-4.004c0-2.211,1.798-4.005,4.006-4.005
				c2.209,0,4.006,1.794,4.006,4.005C68.179,352.921,66.381,354.714,64.172,354.714z"/>
			<path style="fill:#242D3C;" d="M64.172,369.874c-2.208,0-4.006-1.793-4.006-4.004s1.798-4.004,4.006-4.004
				c2.209,0,4.006,1.793,4.006,4.004S66.381,369.874,64.172,369.874z"/>
			<path style="fill:#242D3C;" d="M64.172,385.036c-2.208,0-4.006-1.793-4.006-4.004s1.798-4.004,4.006-4.004
				c2.209,0,4.006,1.793,4.006,4.004S66.381,385.036,64.172,385.036z"/>
			<path style="fill:#242D3C;" d="M64.172,400.199c-2.208,0-4.006-1.793-4.006-4.004s1.798-4.005,4.006-4.005
				c2.209,0,4.006,1.794,4.006,4.005S66.381,400.199,64.172,400.199z"/>
			<path style="fill:#242D3C;" d="M64.172,415.358c-2.208,0-4.006-1.793-4.006-4.004s1.798-4.005,4.006-4.005
				c2.209,0,4.006,1.794,4.006,4.005S66.381,415.358,64.172,415.358z"/>
			<path style="fill:#242D3C;" d="M64.172,430.518c-2.208,0-4.006-1.794-4.006-4.005s1.798-4.004,4.006-4.004
				c2.209,0,4.006,1.793,4.006,4.004S66.381,430.518,64.172,430.518z"/>
			<path style="fill:#242D3C;" d="M64.172,445.681c-2.208,0-4.006-1.794-4.006-4.005c0-2.21,1.798-4.004,4.006-4.004
				c2.209,0,4.006,1.794,4.006,4.004C68.179,443.887,66.381,445.681,64.172,445.681z"/>
			<path style="fill:#242D3C;" d="M64.172,460.844c-2.208,0-4.006-1.793-4.006-4.004s1.798-4.005,4.006-4.005
				c2.209,0,4.006,1.794,4.006,4.005S66.381,460.844,64.172,460.844z"/>
			<path style="fill:#242D3C;" d="M64.172,476.002c-2.208,0-4.006-1.793-4.006-4.004s1.798-4.004,4.006-4.004
				c2.209,0,4.006,1.793,4.006,4.004S66.381,476.002,64.172,476.002z"/>
			<path style="fill:#242D3C;" d="M64.172,491.161c-2.208,0-4.006-1.793-4.006-4.004s1.798-4.004,4.006-4.004
				c2.209,0,4.006,1.793,4.006,4.004S66.381,491.161,64.172,491.161z"/>
			<path style="fill:#242D3C;" d="M340.249,134.275c-2.211,0-4.008-1.794-4.008-4.004c0-2.211,1.797-4.004,4.008-4.004
				s4.007,1.793,4.007,4.004C344.256,132.481,342.459,134.275,340.249,134.275z"/>
			<path style="fill:#242D3C;" d="M340.249,149.438c-2.211,0-4.008-1.793-4.008-4.004s1.797-4.005,4.008-4.005
				s4.007,1.794,4.007,4.005S342.459,149.438,340.249,149.438z"/>
			<path style="fill:#242D3C;" d="M340.249,164.598c-2.211,0-4.008-1.794-4.008-4.005s1.797-4.004,4.008-4.004
				s4.007,1.793,4.007,4.004S342.459,164.598,340.249,164.598z"/>
			<path style="fill:#242D3C;" d="M340.249,179.756c-2.211,0-4.008-1.793-4.008-4.004c0-2.21,1.797-4.004,4.008-4.004
				s4.007,1.794,4.007,4.004C344.256,177.963,342.459,179.756,340.249,179.756z"/>
			<path style="fill:#242D3C;" d="M340.249,194.919c-2.211,0-4.008-1.794-4.008-4.004c0-2.211,1.797-4.004,4.008-4.004
				s4.007,1.793,4.007,4.004C344.256,193.125,342.459,194.919,340.249,194.919z"/>
			<path style="fill:#242D3C;" d="M340.249,210.082c-2.211,0-4.008-1.793-4.008-4.004s1.797-4.004,4.008-4.004
				s4.007,1.793,4.007,4.004S342.459,210.082,340.249,210.082z"/>
			<path style="fill:#242D3C;" d="M340.249,225.242c-2.211,0-4.008-1.794-4.008-4.005s1.797-4.004,4.008-4.004
				s4.007,1.793,4.007,4.004S342.459,225.242,340.249,225.242z"/>
			<path style="fill:#242D3C;" d="M116.531,263.452c-0.698,0-1.39-0.188-2-0.538c-1.91-1.104-2.565-3.559-1.462-5.473
				c0.714-1.236,2.044-2.007,3.475-2.007c0.698,0,1.388,0.185,1.994,0.538c0.93,0.534,1.593,1.4,1.87,2.431
				c0.277,1.036,0.135,2.115-0.401,3.042C119.291,262.682,117.961,263.452,116.531,263.452z"/>
			<path style="fill:#242D3C;" d="M129.66,271.032c-0.699,0-1.391-0.189-2-0.538c-1.91-1.103-2.566-3.559-1.462-5.473
				c0.714-1.236,2.044-2.007,3.475-2.007c0.698,0,1.389,0.185,1.994,0.538c0.929,0.534,1.593,1.4,1.87,2.432
				c0.276,1.035,0.134,2.114-0.401,3.041C132.42,270.261,131.09,271.032,129.66,271.032z"/>
			<path style="fill:#242D3C;" d="M142.794,278.611c-0.701,0-1.39-0.185-2-0.538c-0.929-0.534-1.591-1.4-1.868-2.432
				c-0.277-1.035-0.133-2.114,0.403-3.041c0.714-1.236,2.046-2.006,3.475-2.006c0.698,0,1.388,0.188,1.994,0.538
				c1.915,1.104,2.571,3.563,1.465,5.477C145.551,277.845,144.221,278.611,142.794,278.611z"/>
			<path style="fill:#242D3C;" d="M155.921,286.194c-0.7,0-1.391-0.185-1.998-0.538c-0.929-0.534-1.591-1.4-1.868-2.436
				c-0.277-1.032-0.133-2.111,0.403-3.038c0.714-1.236,2.044-2.006,3.473-2.006c0.698,0,1.388,0.185,1.996,0.537
				c1.914,1.104,2.572,3.56,1.469,5.473C158.682,285.424,157.349,286.194,155.921,286.194z"/>
			<path style="fill:#242D3C;" d="M169.049,293.774c-0.698,0-1.388-0.185-1.994-0.538c-0.929-0.533-1.592-1.4-1.87-2.431
				c-0.276-1.035-0.134-2.115,0.402-3.042c0.714-1.235,2.044-2.006,3.475-2.006c0.698,0,1.391,0.188,2,0.538
				c1.91,1.104,2.566,3.559,1.463,5.473C171.81,293.003,170.48,293.774,169.049,293.774z"/>
			<path style="fill:#242D3C;" d="M182.18,301.353c-0.698,0-1.389-0.184-1.996-0.538c-1.914-1.103-2.572-3.559-1.469-5.473
				c0.714-1.236,2.048-2.007,3.479-2.007c0.698,0,1.388,0.189,1.994,0.539c0.927,0.533,1.589,1.4,1.865,2.435
				c0.279,1.035,0.137,2.115-0.396,3.038C184.943,300.583,183.61,301.353,182.18,301.353z"/>
			<path style="fill:#242D3C;" d="M195.311,308.933c-0.698,0-1.391-0.185-1.999-0.538c-0.926-0.534-1.591-1.401-1.868-2.432
				s-0.134-2.11,0.399-3.037c0.714-1.236,2.046-2.006,3.475-2.006c0.7,0,1.39,0.185,1.998,0.538
				c1.914,1.108,2.572,3.563,1.468,5.473C198.072,308.166,196.74,308.933,195.311,308.933z"/>
			<path style="fill:#242D3C;" d="M340.249,559.935c-2.211,0-4.008-1.793-4.008-4.004s1.797-4.004,4.008-4.004
				s4.007,1.793,4.007,4.004S342.459,559.935,340.249,559.935z"/>
			<path style="fill:#242D3C;" d="M340.249,575.094c-2.211,0-4.008-1.794-4.008-4.005s1.797-4.004,4.008-4.004
				s4.007,1.793,4.007,4.004S342.459,575.094,340.249,575.094z"/>
			<path style="fill:#242D3C;" d="M340.249,590.252c-2.211,0-4.008-1.793-4.008-4.004s1.797-4.004,4.008-4.004
				s4.007,1.793,4.007,4.004S342.459,590.252,340.249,590.252z"/>
			<path style="fill:#242D3C;" d="M340.249,605.415c-2.211,0-4.008-1.793-4.008-4.004s1.797-4.004,4.008-4.004
				s4.007,1.793,4.007,4.004S342.459,605.415,340.249,605.415z"/>
			<path style="fill:#242D3C;" d="M340.249,620.578c-2.211,0-4.008-1.793-4.008-4.004s1.797-4.004,4.008-4.004
				s4.007,1.793,4.007,4.004S342.459,620.578,340.249,620.578z"/>
			<path style="fill:#242D3C;" d="M340.249,635.737c-2.211,0-4.008-1.793-4.008-4.004s1.797-4.004,4.008-4.004
				s4.007,1.793,4.007,4.004S342.459,635.737,340.249,635.737z"/>
			<path style="fill:#242D3C;" d="M340.249,650.897c-2.211,0-4.008-1.795-4.008-4.006s1.797-4.004,4.008-4.004
				s4.007,1.793,4.007,4.004S342.459,650.897,340.249,650.897z"/>
			<path style="fill:#242D3C;" d="M485.174,476.284c-0.702,0-1.393-0.186-2.003-0.538c-0.927-0.534-1.593-1.4-1.865-2.436
				c-0.281-1.032-0.137-2.11,0.4-3.033c0.715-1.24,2.043-2.007,3.471-2.007c0.699,0,1.394,0.185,1.999,0.538
				c0.927,0.533,1.588,1.4,1.866,2.432c0.276,1.035,0.136,2.114-0.401,3.041C487.926,475.518,486.598,476.284,485.174,476.284z"/>
			<path style="fill:#242D3C;" d="M498.303,483.863c-0.699,0-1.394-0.186-2.003-0.538c-0.927-0.534-1.593-1.4-1.865-2.431
				c-0.281-1.035-0.138-2.111,0.401-3.038c0.714-1.236,2.046-2.006,3.475-2.006c0.697,0,1.389,0.184,1.993,0.537
				c1.915,1.104,2.572,3.56,1.469,5.473C501.062,483.097,499.73,483.863,498.303,483.863z"/>
			<path style="fill:#242D3C;" d="M511.427,491.447c-0.698,0-1.389-0.186-1.994-0.539c-0.931-0.533-1.593-1.399-1.869-2.432
				c-0.277-1.034-0.138-2.113,0.401-3.041c0.713-1.236,2.046-2.006,3.475-2.006c0.697,0,1.388,0.188,1.998,0.538
				c1.909,1.104,2.567,3.559,1.464,5.472C514.188,490.677,512.859,491.447,511.427,491.447z"/>
			<path style="fill:#242D3C;" d="M524.56,499.026c-0.699,0-1.389-0.186-1.998-0.538c-0.928-0.533-1.59-1.4-1.87-2.432
				c-0.272-1.035-0.136-2.114,0.401-3.037c0.714-1.239,2.046-2.006,3.475-2.006c0.698,0,1.389,0.185,1.998,0.537
				c1.91,1.103,2.568,3.559,1.469,5.473C527.319,498.259,525.988,499.026,524.56,499.026z"/>
			<path style="fill:#242D3C;" d="M537.688,506.605c-0.699,0-1.389-0.185-1.998-0.537c-0.928-0.534-1.59-1.401-1.87-2.432
				c-0.273-1.031-0.133-2.111,0.401-3.038c0.714-1.236,2.046-2.006,3.475-2.006c0.698,0,1.389,0.185,1.998,0.538
				c1.915,1.106,2.572,3.562,1.469,5.473C540.449,505.84,539.117,506.605,537.688,506.605z"/>
			<path style="fill:#242D3C;" d="M550.816,514.188c-0.698,0-1.388-0.185-1.997-0.537c-1.915-1.107-2.572-3.563-1.469-5.473
				c0.713-1.236,2.046-2.007,3.475-2.007c0.697,0,1.392,0.185,1.998,0.538c1.913,1.104,2.572,3.559,1.468,5.473
				C553.578,513.419,552.245,514.188,550.816,514.188z"/>
			<path style="fill:#242D3C;" d="M563.945,521.77c-0.697,0-1.388-0.186-1.998-0.539c-1.91-1.103-2.568-3.56-1.465-5.468
				c0.71-1.241,2.043-2.008,3.471-2.008c0.698,0,1.389,0.186,1.999,0.539c1.913,1.103,2.571,3.558,1.468,5.473
				C566.706,521.002,565.374,521.77,563.945,521.77z"/>
			<path style="fill:#242D3C;" d="M485.174,308.929c-1.429,0-2.761-0.767-3.472-2.007c-0.533-0.922-0.678-2.002-0.404-3.033
				c0.28-1.035,0.938-1.902,1.87-2.436c0.609-0.354,1.299-0.538,1.998-0.538c1.429,0,2.76,0.766,3.47,2.002
				c0.534,0.927,0.679,2.006,0.401,3.042c-0.276,1.031-0.938,1.897-1.865,2.431C486.562,308.744,485.871,308.929,485.174,308.929z"
				/>
			<path style="fill:#242D3C;" d="M498.303,301.349c-1.429,0-2.758-0.771-3.472-2.006c-0.534-0.927-0.678-2.002-0.404-3.037
				c0.28-1.031,0.938-1.898,1.868-2.431c0.611-0.354,1.301-0.539,1.999-0.539c1.433,0,2.761,0.767,3.475,2.003
				c1.103,1.914,0.445,4.37-1.468,5.473C499.689,301.165,499,301.349,498.303,301.349z"/>
			<path style="fill:#242D3C;" d="M511.435,293.77c-1.432,0-2.76-0.77-3.475-2.006c-0.534-0.927-0.678-2.006-0.401-3.042
				c0.276-1.031,0.943-1.897,1.866-2.432c0.609-0.353,1.3-0.538,1.998-0.538c1.429,0,2.76,0.771,3.475,2.006
				c1.104,1.914,0.449,4.37-1.465,5.474C512.827,293.585,512.133,293.77,511.435,293.77z"/>
			<path style="fill:#242D3C;" d="M524.56,286.186c-1.429,0-2.761-0.766-3.471-2.006c-0.533-0.923-0.679-2.002-0.397-3.038
				c0.272-1.031,0.939-1.898,1.865-2.432c0.606-0.353,1.297-0.538,1.995-0.538c1.429,0,2.76,0.767,3.479,2.002
				c1.103,1.914,0.444,4.369-1.47,5.473C525.956,286.001,525.262,286.186,524.56,286.186z"/>
			<path style="fill:#242D3C;" d="M537.692,278.607c-1.429,0-2.761-0.77-3.475-2.006c-0.534-0.927-0.679-2.006-0.397-3.038
				c0.272-1.031,0.939-1.898,1.865-2.431c0.606-0.354,1.301-0.538,1.998-0.538c1.429,0,2.761,0.766,3.475,2.002
				c1.104,1.91,0.446,4.366-1.469,5.473C539.085,278.422,538.395,278.607,537.692,278.607z"/>
			<path style="fill:#242D3C;" d="M550.825,271.028c-1.434,0-2.765-0.771-3.479-2.007c-1.104-1.91-0.445-4.366,1.469-5.473
				c0.606-0.354,1.296-0.538,1.998-0.538c1.429,0,2.761,0.771,3.476,2.006c1.103,1.914,0.444,4.37-1.47,5.473
				C552.214,270.843,551.522,271.028,550.825,271.028z"/>
			<path style="fill:#242D3C;" d="M563.953,263.444c-1.432,0-2.761-0.767-3.475-2.006c-1.106-1.91-0.449-4.366,1.464-5.469
				c0.606-0.353,1.301-0.537,1.999-0.537c1.433,0,2.761,0.766,3.476,2.002c1.103,1.914,0.444,4.369-1.469,5.473
				C565.342,263.259,564.651,263.444,563.953,263.444z"/>
			<path style="fill:#242D3C;" d="M116.537,521.765c-1.431,0-2.761-0.767-3.473-2.006c-1.105-1.91-0.447-4.366,1.465-5.47
				c0.609-0.354,1.3-0.537,2-0.537c1.429,0,2.759,0.766,3.473,2.002c0.536,0.927,0.678,2.01,0.401,3.042
				c-0.277,1.034-0.941,1.896-1.868,2.431C117.925,521.58,117.235,521.765,116.537,521.765z"/>
			<path style="fill:#242D3C;" d="M129.67,514.188c-1.431,0-2.763-0.77-3.477-2.006c-1.104-1.914-0.446-4.369,1.464-5.473
				c0.61-0.354,1.302-0.538,2.002-0.538c1.428,0,2.758,0.767,3.47,2.007c0.536,0.926,0.678,2.006,0.4,3.041
				c-0.277,1.035-0.939,1.898-1.866,2.432C131.056,514,130.367,514.188,129.67,514.188z"/>
			<path style="fill:#242D3C;" d="M142.798,506.605c-1.428,0-2.759-0.771-3.473-2.006c-0.536-0.928-0.68-2.007-0.403-3.037
				c0.277-1.035,0.939-1.902,1.868-2.437c0.608-0.353,1.3-0.537,1.998-0.537c1.428,0,2.759,0.766,3.471,2.006
				c0.536,0.923,0.678,2.006,0.401,3.037c-0.277,1.035-0.939,1.902-1.865,2.437C144.186,506.421,143.497,506.605,142.798,506.605z"
				/>
			<path style="fill:#242D3C;" d="M155.925,499.021c-1.429,0-2.759-0.766-3.471-2.006c-0.536-0.923-0.68-2.002-0.403-3.033
				c0.277-1.035,0.939-1.901,1.868-2.436c0.608-0.354,1.3-0.538,1.998-0.538c1.431,0,2.761,0.767,3.475,2.003
				c1.104,1.913,0.445,4.369-1.468,5.473C157.315,498.838,156.623,499.021,155.925,499.021z"/>
			<path style="fill:#242D3C;" d="M169.06,491.447c-1.43,0-2.763-0.771-3.477-2.008c-1.104-1.913-0.446-4.368,1.467-5.472
				c0.609-0.354,1.299-0.538,1.998-0.538c1.43,0,2.76,0.767,3.473,2.006c0.535,0.923,0.676,2.003,0.399,3.038
				c-0.276,1.035-0.939,1.901-1.863,2.435C170.448,491.259,169.758,491.447,169.06,491.447z"/>
			<path style="fill:#242D3C;" d="M182.187,483.863c-1.428,0-2.761-0.771-3.475-2.006c-1.103-1.915-0.445-4.37,1.468-5.474
				c0.606-0.353,1.296-0.538,1.994-0.538c1.431,0,2.763,0.771,3.479,2.006c1.104,1.91,0.446,4.366-1.468,5.474
				C183.577,483.678,182.887,483.863,182.187,483.863z"/>
			<path style="fill:#242D3C;" d="M195.313,476.279c-1.429,0-2.761-0.767-3.473-2.006c-0.535-0.923-0.676-2.003-0.399-3.033
				c0.277-1.035,0.941-1.898,1.868-2.432c0.608-0.354,1.3-0.538,1.999-0.538c1.429,0,2.76,0.767,3.475,1.999
				c1.102,1.913,0.443,4.368-1.469,5.472C196.706,476.095,196.013,476.279,195.313,476.279z"/>
			<circle style="fill:#242D3C;" cx="616.312" cy="290.042" r="4.004"/>
			<circle style="fill:#242D3C;" cx="616.312" cy="305.201" r="4.004"/>
			<circle style="fill:#242D3C;" cx="616.312" cy="320.36" r="4.005"/>
			<circle style="fill:#242D3C;" cx="616.312" cy="335.523" r="4.004"/>
			<circle style="fill:#242D3C;" cx="616.312" cy="350.686" r="4.004"/>
			<circle style="fill:#242D3C;" cx="616.312" cy="365.845" r="4.005"/>
			<circle style="fill:#242D3C;" cx="616.312" cy="381.004" r="4.004"/>
			<circle style="fill:#242D3C;" cx="616.312" cy="396.167" r="4.004"/>
			<circle style="fill:#242D3C;" cx="616.312" cy="411.331" r="4.004"/>
			<circle style="fill:#242D3C;" cx="616.312" cy="426.489" r="4.004"/>
			<circle style="fill:#242D3C;" cx="616.312" cy="441.648" r="4.005"/>
			<circle style="fill:#242D3C;" cx="616.312" cy="456.811" r="4.004"/>
			<circle style="fill:#242D3C;" cx="616.312" cy="471.974" r="4.005"/>
			<circle style="fill:#242D3C;" cx="616.312" cy="487.133" r="4.004"/>
			<path style="fill:#242D3C;" d="M287.566,104.242c-1.43,0-2.762-0.77-3.477-2.006c-0.535-0.923-0.676-2.002-0.399-3.038
				c0.278-1.031,0.941-1.897,1.868-2.432c0.608-0.353,1.298-0.538,1.996-0.538c1.428,0,2.759,0.766,3.473,2.002
				c1.107,1.914,0.449,4.37-1.465,5.473C288.955,104.058,288.265,104.242,287.566,104.242z"/>
			<path style="fill:#242D3C;" d="M274.434,111.822c-1.429,0-2.76-0.766-3.473-2.006c-0.536-0.923-0.676-2.002-0.399-3.037
				c0.277-1.032,0.941-1.898,1.868-2.431c0.608-0.354,1.298-0.539,1.997-0.539c1.428,0,2.758,0.767,3.473,2.003
				c1.103,1.914,0.445,4.37-1.464,5.473C275.827,111.638,275.134,111.822,274.434,111.822z"/>
			<path style="fill:#242D3C;" d="M261.305,119.405c-1.428,0-2.758-0.771-3.473-2.006c-1.105-1.914-0.449-4.37,1.464-5.473
				c0.608-0.354,1.298-0.538,1.997-0.538c1.43,0,2.763,0.771,3.477,2.006c0.536,0.927,0.676,2.006,0.399,3.041
				c-0.277,1.031-0.941,1.898-1.868,2.432C262.694,119.221,262.004,119.405,261.305,119.405z"/>
			<path style="fill:#242D3C;" d="M248.175,126.985c-1.429,0-2.761-0.771-3.475-2.006c-0.534-0.927-0.676-2.007-0.399-3.038
				c0.277-1.031,0.941-1.898,1.868-2.432c0.61-0.353,1.302-0.538,2-0.538c1.43,0,2.76,0.766,3.473,2.002
				c1.103,1.914,0.445,4.37-1.468,5.473C249.565,126.8,248.875,126.985,248.175,126.985z"/>
			<path style="fill:#242D3C;" d="M235.048,134.564c-1.431,0-2.763-0.771-3.477-2.006c-0.536-0.923-0.676-2.002-0.399-3.038
				c0.276-1.031,0.94-1.898,1.868-2.432c0.607-0.353,1.298-0.537,1.996-0.537c1.429,0,2.759,0.766,3.473,2.002
				c0.536,0.927,0.678,2.006,0.401,3.042c-0.276,1.031-0.938,1.898-1.865,2.432C236.437,134.379,235.746,134.564,235.048,134.564z"
				/>
			<path style="fill:#242D3C;" d="M221.919,142.148c-1.431,0-2.763-0.771-3.477-2.006c-1.104-1.914-0.447-4.37,1.465-5.473
				c0.608-0.354,1.298-0.538,1.996-0.538c1.43,0,2.763,0.77,3.477,2.006c0.535,0.923,0.676,2.003,0.399,3.038
				c-0.278,1.035-0.941,1.902-1.868,2.435C223.306,141.959,222.618,142.148,221.919,142.148z"/>
			<path style="fill:#242D3C;" d="M208.787,149.728c-1.429,0-2.759-0.771-3.473-2.006c-1.105-1.914-0.45-4.37,1.465-5.473
				c0.607-0.354,1.298-0.539,1.996-0.539c1.43,0,2.763,0.771,3.477,2.007c0.535,0.927,0.676,2.006,0.399,3.041
				c-0.277,1.032-0.941,1.898-1.868,2.432C210.175,149.543,209.484,149.728,208.787,149.728z"/>
			<path style="fill:#242D3C;" d="M195.656,157.307c-1.428,0-2.76-0.77-3.475-2.006c-0.536-0.923-0.676-2.002-0.399-3.038
				c0.277-1.035,0.94-1.902,1.868-2.436c0.605-0.349,1.296-0.538,1.994-0.538c1.43,0,2.764,0.771,3.479,2.006
				c1.104,1.914,0.445,4.37-1.469,5.473C197.046,157.122,196.356,157.307,195.656,157.307z"/>
			<path style="fill:#242D3C;" d="M182.529,164.886c-1.43,0-2.762-0.771-3.476-2.006c-0.536-0.923-0.676-2.002-0.4-3.038
				c0.277-1.031,0.941-1.897,1.868-2.432c0.608-0.353,1.298-0.538,1.996-0.538c1.428,0,2.759,0.766,3.473,2.002
				c1.104,1.914,0.447,4.37-1.465,5.473C183.917,164.702,183.228,164.886,182.529,164.886z"/>
			<path style="fill:#242D3C;" d="M169.396,172.466c-1.43,0-2.76-0.767-3.472-2.006c-1.106-1.91-0.448-4.365,1.464-5.469
				c0.608-0.353,1.3-0.537,1.998-0.537c1.43,0,2.76,0.766,3.475,2.002c1.104,1.914,0.445,4.369-1.469,5.473
				C170.785,172.281,170.095,172.466,169.396,172.466z"/>
			<path style="fill:#242D3C;" d="M156.266,180.05c-1.429,0-2.761-0.771-3.475-2.007c-1.103-1.914-0.445-4.37,1.468-5.473
				c0.608-0.354,1.298-0.538,1.999-0.538c1.429,0,2.761,0.771,3.475,2.006c1.104,1.914,0.446,4.37-1.468,5.473
				C157.656,179.865,156.966,180.05,156.266,180.05z"/>
			<path style="fill:#242D3C;" d="M143.138,187.629c-1.429,0-2.761-0.77-3.475-2.006c-0.536-0.923-0.676-2.003-0.399-3.038
				c0.277-1.031,0.941-1.898,1.868-2.431c0.608-0.353,1.3-0.538,1.999-0.538c1.43,0,2.76,0.766,3.475,2.002
				c1.103,1.914,0.445,4.37-1.468,5.473C144.527,187.444,143.837,187.629,143.138,187.629z"/>
			<path style="fill:#242D3C;" d="M130.006,195.208c-1.428,0-2.76-0.766-3.473-2.006c-0.536-0.923-0.676-2.002-0.399-3.038
				c0.276-1.031,0.94-1.898,1.868-2.432c0.607-0.353,1.298-0.538,1.996-0.538c1.429,0,2.758,0.767,3.473,2.002
				c1.104,1.914,0.446,4.37-1.464,5.473C131.399,195.023,130.707,195.208,130.006,195.208z"/>
			<path style="fill:#242D3C;" d="M116.879,202.792c-1.43,0-2.76-0.77-3.475-2.006c-1.103-1.914-0.447-4.37,1.465-5.473
				c0.608-0.353,1.298-0.538,1.996-0.538c1.43,0,2.763,0.771,3.477,2.006c0.535,0.927,0.676,2.007,0.399,3.042
				c-0.277,1.031-0.941,1.898-1.868,2.432C118.268,202.607,117.578,202.792,116.879,202.792z"/>
			<path style="fill:#242D3C;" d="M563.629,582.416c-1.433,0-2.765-0.771-3.479-2.006c-0.537-0.923-0.674-2.002-0.401-3.037
				c0.281-1.035,0.943-1.902,1.87-2.437c0.606-0.349,1.296-0.537,1.994-0.537c1.429,0,2.761,0.771,3.475,2.007
				c0.533,0.922,0.679,2.006,0.401,3.037c-0.276,1.035-0.938,1.901-1.866,2.436C565.017,582.228,564.326,582.416,563.629,582.416z"
				/>
			<path style="fill:#242D3C;" d="M550.495,589.992c-1.428,0-2.761-0.768-3.475-2.007c-0.537-0.923-0.673-2.002-0.401-3.033
				c0.281-1.035,0.943-1.897,1.87-2.432c0.61-0.354,1.301-0.537,1.998-0.537c1.429,0,2.761,0.766,3.472,1.998
				c1.104,1.914,0.444,4.37-1.465,5.473C551.884,589.808,551.194,589.992,550.495,589.992z"/>
			<path style="fill:#242D3C;" d="M537.363,597.575c-1.429,0-2.756-0.767-3.471-2.006c-0.538-0.923-0.679-2.006-0.401-3.038
				c0.276-1.035,0.938-1.901,1.866-2.435c0.605-0.349,1.296-0.538,1.993-0.538c1.429,0,2.765,0.771,3.479,2.007
				c1.104,1.913,0.444,4.368-1.469,5.473C538.756,597.392,538.062,597.575,537.363,597.575z"/>
			<path style="fill:#242D3C;" d="M524.238,605.159c-1.429,0-2.765-0.771-3.479-2.006c-1.104-1.915-0.445-4.37,1.468-5.474
				c0.606-0.353,1.301-0.538,2.003-0.538c1.429,0,2.761,0.767,3.471,2.006c0.533,0.924,0.679,2.003,0.397,3.038
				c-0.272,1.035-0.939,1.902-1.866,2.437C525.627,604.971,524.938,605.159,524.238,605.159z"/>
			<path style="fill:#242D3C;" d="M511.102,612.734c-1.429,0-2.761-0.767-3.471-2.007c-0.533-0.923-0.679-2.001-0.397-3.032
				c0.273-1.036,0.939-1.898,1.865-2.432c0.611-0.354,1.306-0.538,2.003-0.538c1.424,0,2.753,0.767,3.467,1.998
				c1.104,1.915,0.449,4.37-1.464,5.473C512.498,612.55,511.804,612.734,511.102,612.734z"/>
			<path style="fill:#242D3C;" d="M497.981,620.317c-1.433,0-2.765-0.771-3.479-2.006c-0.533-0.923-0.678-2.002-0.396-3.037
				c0.271-1.035,0.938-1.902,1.861-2.436c0.606-0.35,1.296-0.538,1.994-0.538c1.433,0,2.765,0.771,3.479,2.007
				c0.538,0.923,0.674,2.002,0.401,3.037c-0.281,1.036-0.942,1.901-1.87,2.436C499.365,620.129,498.679,620.317,497.981,620.317z"/>
			<path style="fill:#242D3C;" d="M484.848,627.901c-1.427,0-2.76-0.771-3.475-2.007c-1.104-1.913-0.444-4.369,1.465-5.473
				c0.61-0.354,1.301-0.537,1.998-0.537c1.429,0,2.762,0.766,3.475,2.006c0.538,0.923,0.674,2.002,0.401,3.038
				c-0.281,1.034-0.943,1.901-1.869,2.435C486.236,627.713,485.547,627.901,484.848,627.901z"/>
			<path style="fill:#242D3C;" d="M471.716,635.477c-1.429,0-2.761-0.767-3.475-2.006c-0.538-0.923-0.675-2.003-0.401-3.038
				c0.281-1.035,0.942-1.901,1.87-2.435c0.604-0.349,1.296-0.538,1.993-0.538c1.434,0,2.766,0.771,3.479,2.007
				c1.104,1.913,0.444,4.368-1.469,5.473C473.104,635.293,472.413,635.477,471.716,635.477z"/>
			<path style="fill:#242D3C;" d="M458.591,643.061c-1.433,0-2.765-0.771-3.479-2.006c-0.537-0.923-0.675-2.003-0.401-3.038
				c0.28-1.035,0.942-1.901,1.87-2.435c0.606-0.35,1.291-0.539,1.99-0.539c1.432,0,2.764,0.771,3.478,2.006
				c0.534,0.924,0.679,2.003,0.398,3.038c-0.273,1.035-0.939,1.902-1.862,2.437C459.979,642.872,459.289,643.061,458.591,643.061z"
				/>
			<path style="fill:#242D3C;" d="M445.459,650.637c-1.434,0-2.762-0.768-3.475-2.008c-0.534-0.923-0.675-2.001-0.402-3.032
				c0.281-1.036,0.939-1.898,1.866-2.432c0.609-0.354,1.304-0.538,2.002-0.538c1.429,0,2.76,0.767,3.471,1.998
				c1.104,1.915,0.445,4.37-1.469,5.473C446.847,650.451,446.156,650.637,445.459,650.637z"/>
			<path style="fill:#242D3C;" d="M432.322,658.219c-1.429,0-2.762-0.766-3.472-2.006c-0.534-0.923-0.678-2.002-0.396-3.037
				c0.272-1.035,0.938-1.902,1.865-2.436c0.606-0.35,1.296-0.537,1.994-0.537c1.429,0,2.765,0.77,3.479,2.006
				c1.104,1.913,0.446,4.369-1.469,5.473C433.717,658.035,433.024,658.219,432.322,658.219z"/>
			<path style="fill:#242D3C;" d="M419.201,665.803c-1.429,0-2.766-0.771-3.479-2.006c-0.533-0.923-0.678-2.003-0.396-3.037
				c0.272-1.035,0.938-1.902,1.865-2.437c0.606-0.349,1.296-0.537,1.995-0.537c1.428,0,2.764,0.771,3.478,2.006
				c0.534,0.923,0.679,2.002,0.398,3.038c-0.273,1.034-0.939,1.901-1.866,2.436C420.59,665.614,419.898,665.803,419.201,665.803z"/>
			<path style="fill:#242D3C;" d="M406.064,673.378c-1.429,0-2.761-0.767-3.471-2.006c-0.534-0.923-0.679-2.002-0.397-3.033
				c0.272-1.035,0.939-1.897,1.866-2.432c0.605-0.354,1.3-0.538,1.997-0.538c1.429,0,2.757,0.767,3.472,1.999
				c1.104,1.913,0.444,4.368-1.465,5.473C407.46,673.194,406.766,673.378,406.064,673.378z"/>
			<path style="fill:#242D3C;" d="M392.936,680.962c-1.428,0-2.761-0.767-3.471-2.006c-0.534-0.923-0.679-2.003-0.398-3.038
				c0.273-1.035,0.939-1.901,1.862-2.435c0.606-0.35,1.297-0.539,1.994-0.539c1.433,0,2.765,0.771,3.479,2.007
				c1.103,1.914,0.445,4.369-1.469,5.474C394.323,680.777,393.634,680.962,392.936,680.962z"/>
			<path style="fill:#242D3C;" d="M563.621,202.8c-0.699,0-1.389-0.188-1.995-0.538c-0.927-0.534-1.589-1.4-1.87-2.436
				c-0.271-1.035-0.136-2.115,0.401-3.037c0.715-1.236,2.047-2.007,3.479-2.007c0.697,0,1.389,0.189,1.994,0.538
				c0.927,0.534,1.589,1.4,1.866,2.436c0.276,1.032,0.131,2.115-0.401,3.038C566.381,202.029,565.049,202.8,563.621,202.8
				L563.621,202.8z"/>
			<path style="fill:#242D3C;" d="M550.495,195.216c-0.697,0-1.388-0.185-1.997-0.538c-0.927-0.534-1.589-1.396-1.87-2.432
				c-0.272-1.031-0.137-2.111,0.401-3.034c0.713-1.24,2.046-2.006,3.475-2.006c0.698,0,1.389,0.185,1.998,0.538
				c1.909,1.104,2.568,3.559,1.465,5.473C553.257,194.45,551.924,195.216,550.495,195.216L550.495,195.216z"/>
			<path style="fill:#242D3C;" d="M537.358,187.641c-0.697,0-1.388-0.189-1.993-0.538c-0.927-0.534-1.59-1.4-1.866-2.436
				c-0.277-1.032-0.137-2.115,0.401-3.038c0.715-1.24,2.043-2.006,3.471-2.006c0.698,0,1.393,0.185,1.998,0.538
				c1.914,1.103,2.572,3.559,1.469,5.473C540.123,186.871,538.787,187.641,537.358,187.641L537.358,187.641z"/>
			<path style="fill:#242D3C;" d="M524.238,180.058c-0.702,0-1.396-0.185-2.003-0.538c-1.913-1.103-2.571-3.559-1.469-5.473
				c0.716-1.236,2.051-2.007,3.479-2.007c0.699,0,1.389,0.189,1.995,0.538c0.926,0.534,1.593,1.4,1.865,2.436
				c0.281,1.035,0.136,2.114-0.396,3.038C526.999,179.291,525.667,180.058,524.238,180.058L524.238,180.058z"/>
			<path style="fill:#242D3C;" d="M511.109,172.474c-0.697,0-1.392-0.184-2.002-0.538c-0.927-0.533-1.593-1.396-1.865-2.431
				c-0.282-1.031-0.137-2.111,0.396-3.033c0.71-1.241,2.042-2.007,3.471-2.007c0.702,0,1.396,0.185,2.003,0.538
				c1.913,1.103,2.567,3.559,1.464,5.473C513.862,171.708,512.533,172.474,511.109,172.474L511.109,172.474z"/>
			<path style="fill:#242D3C;" d="M497.969,164.898c-0.698,0-1.388-0.189-1.994-0.538c-0.923-0.534-1.588-1.4-1.861-2.436
				c-0.281-1.035-0.137-2.115,0.396-3.038c0.715-1.236,2.047-2.006,3.479-2.006c0.697,0,1.384,0.189,1.99,0.538
				c0.927,0.534,1.588,1.4,1.869,2.436c0.272,1.036,0.137,2.115-0.401,3.038C500.734,164.128,499.401,164.898,497.969,164.898
				L497.969,164.898z"/>
			<path style="fill:#242D3C;" d="M484.845,157.315c-0.699,0-1.389-0.185-1.998-0.538c-1.91-1.104-2.569-3.559-1.466-5.473
				c0.715-1.236,2.048-2.006,3.475-2.006c0.699,0,1.389,0.188,1.995,0.537c0.928,0.534,1.589,1.401,1.87,2.436
				c0.271,1.035,0.136,2.114-0.401,3.037C487.605,156.549,486.272,157.315,484.845,157.315L484.845,157.315z"/>
			<path style="fill:#242D3C;" d="M471.711,149.74c-0.697,0-1.387-0.189-1.993-0.538c-0.928-0.534-1.589-1.4-1.87-2.436
				c-0.273-1.035-0.136-2.114,0.401-3.037c0.714-1.24,2.046-2.006,3.475-2.006c0.698,0,1.389,0.185,1.998,0.538
				c1.915,1.103,2.572,3.559,1.469,5.473C474.477,148.969,473.145,149.74,471.711,149.74L471.711,149.74z"/>
			<path style="fill:#242D3C;" d="M458.579,142.156c-0.699,0-1.384-0.188-1.99-0.538c-0.927-0.534-1.59-1.4-1.87-2.436
				c-0.273-1.035-0.136-2.115,0.401-3.037c0.714-1.236,2.047-2.007,3.479-2.007c0.699,0,1.389,0.189,1.994,0.538
				c0.923,0.534,1.589,1.4,1.862,2.436c0.28,1.035,0.137,2.114-0.396,3.038C461.344,141.385,460.011,142.156,458.579,142.156
				L458.579,142.156z"/>
			<path style="fill:#242D3C;" d="M445.459,134.572c-0.699,0-1.394-0.185-2.003-0.538c-0.927-0.533-1.585-1.396-1.865-2.431
				c-0.273-1.031-0.133-2.111,0.401-3.034c0.714-1.24,2.041-2.006,3.475-2.006c0.697,0,1.388,0.185,1.993,0.538
				c1.915,1.104,2.572,3.559,1.469,5.473C448.219,133.806,446.887,134.572,445.459,134.572L445.459,134.572z"/>
			<path style="fill:#242D3C;" d="M432.322,126.997c-0.699,0-1.389-0.189-1.995-0.538c-0.927-0.534-1.593-1.4-1.865-2.436
				c-0.281-1.036-0.136-2.115,0.396-3.038c0.711-1.24,2.043-2.006,3.472-2.006c0.702,0,1.396,0.185,2.001,0.538
				c1.915,1.104,2.572,3.56,1.469,5.473C435.086,126.227,433.75,126.997,432.322,126.997L432.322,126.997z"/>
			<path style="fill:#242D3C;" d="M419.193,119.414c-0.699,0-1.389-0.189-1.995-0.538c-0.926-0.534-1.593-1.4-1.865-2.436
				c-0.281-1.035-0.137-2.114,0.397-3.037c0.713-1.236,2.051-2.006,3.479-2.006c0.698,0,1.389,0.188,1.994,0.537
				c0.927,0.534,1.593,1.401,1.866,2.436c0.28,1.035,0.136,2.114-0.398,3.037C421.958,118.643,420.622,119.414,419.193,119.414
				L419.193,119.414z"/>
			<path style="fill:#242D3C;" d="M406.068,111.83c-0.698,0-1.393-0.184-1.998-0.538c-0.927-0.534-1.594-1.396-1.866-2.432
				c-0.281-1.031-0.137-2.11,0.397-3.033c0.71-1.239,2.043-2.006,3.471-2.006c0.701,0,1.396,0.185,2.002,0.538
				c1.91,1.103,2.568,3.559,1.465,5.473C408.824,111.063,407.497,111.83,406.068,111.83L406.068,111.83z"/>
			<path style="fill:#242D3C;" d="M392.932,104.254c-0.698,0-1.389-0.188-1.995-0.538c-0.923-0.534-1.589-1.4-1.86-2.436
				c-0.281-1.035-0.138-2.115,0.396-3.038c0.711-1.24,2.043-2.006,3.471-2.006c0.698,0,1.388,0.185,1.999,0.538
				c1.913,1.104,2.572,3.559,1.468,5.474C395.695,103.484,394.363,104.254,392.932,104.254L392.932,104.254z"/>
			<path style="fill:#242D3C;" d="M287.546,680.962c-0.698,0-1.388-0.185-1.996-0.537c-0.927-0.534-1.591-1.401-1.868-2.432
				c-0.277-1.035-0.136-2.115,0.399-3.038c0.714-1.236,2.047-2.006,3.477-2.006c0.698,0,1.389,0.185,1.997,0.537
				c1.914,1.104,2.572,3.56,1.464,5.473c-0.714,1.236-2.044,2.003-3.471,2.003H287.546z"/>
			<path style="fill:#242D3C;" d="M274.418,673.383c-0.698,0-1.388-0.186-1.996-0.538c-0.927-0.534-1.591-1.4-1.868-2.432
				c-0.277-1.036-0.136-2.114,0.399-3.037c0.712-1.24,2.044-2.007,3.473-2.007c0.7,0,1.392,0.185,2,0.538
				c1.91,1.104,2.568,3.56,1.465,5.473C277.177,672.616,275.847,673.383,274.418,673.383L274.418,673.383z"/>
			<path style="fill:#242D3C;" d="M261.287,665.803c-0.7,0-1.39-0.185-1.998-0.537c-1.914-1.104-2.57-3.56-1.464-5.474
				c0.714-1.235,2.044-2.006,3.473-2.006c0.698,0,1.389,0.185,1.996,0.537c0.927,0.534,1.591,1.401,1.868,2.432
				c0.277,1.035,0.137,2.115-0.399,3.042C264.048,665.032,262.716,665.803,261.287,665.803L261.287,665.803z"/>
			<path style="fill:#242D3C;" d="M248.161,658.219c-0.7,0-1.39-0.184-2-0.537c-0.927-0.534-1.59-1.399-1.868-2.432
				c-0.276-1.031-0.134-2.11,0.399-3.037c0.714-1.235,2.047-2.007,3.475-2.007c0.701,0,1.391,0.185,1.999,0.538
				c1.914,1.104,2.572,3.559,1.469,5.473C250.921,657.453,249.591,658.219,248.161,658.219L248.161,658.219z"/>
			<path style="fill:#242D3C;" d="M235.028,650.64c-0.698,0-1.389-0.184-1.997-0.537c-0.927-0.534-1.591-1.401-1.868-2.432
				c-0.277-1.035-0.137-2.114,0.399-3.038c0.714-1.236,2.046-2.006,3.477-2.006c0.698,0,1.389,0.185,1.997,0.538
				c0.926,0.533,1.588,1.399,1.865,2.432c0.277,1.034,0.134,2.114-0.401,3.041c-0.714,1.236-2.044,2.002-3.471,2.002
				C235.03,650.64,235.03,650.64,235.028,650.64z"/>
			<path style="fill:#242D3C;" d="M221.897,643.061c-0.7,0-1.39-0.186-1.998-0.537c-1.912-1.104-2.568-3.56-1.464-5.475
				c0.714-1.234,2.046-2.006,3.477-2.006c0.698,0,1.386,0.189,1.992,0.539c0.927,0.533,1.591,1.399,1.868,2.435
				c0.277,1.035,0.136,2.115-0.4,3.038C224.658,642.29,223.326,643.061,221.897,643.061L221.897,643.061z"/>
			<path style="fill:#242D3C;" d="M208.769,635.481c-0.7,0-1.39-0.186-1.998-0.538c-1.914-1.104-2.57-3.559-1.464-5.474
				c0.714-1.235,2.044-2.006,3.473-2.006c0.698,0,1.388,0.186,1.996,0.537c0.927,0.534,1.591,1.401,1.868,2.432
				c0.276,1.035,0.136,2.115-0.4,3.042C211.529,634.71,210.197,635.481,208.769,635.481L208.769,635.481z"/>
			<path style="fill:#242D3C;" d="M195.636,627.901c-0.698,0-1.388-0.188-1.994-0.538c-0.927-0.533-1.591-1.4-1.868-2.435
				c-0.277-1.036-0.137-2.115,0.399-3.038c0.714-1.235,2.046-2.006,3.475-2.006c0.7,0,1.39,0.184,1.998,0.537
				c1.914,1.104,2.572,3.56,1.469,5.473C198.4,627.131,197.066,627.901,195.636,627.901L195.636,627.901z"/>
			<path style="fill:#242D3C;" d="M182.509,620.317c-0.697,0-1.388-0.184-1.996-0.537c-0.927-0.534-1.591-1.399-1.868-2.432
				c-0.277-1.035-0.136-2.114,0.399-3.037c0.715-1.235,2.047-2.007,3.477-2.007c0.698,0,1.389,0.185,1.997,0.538
				c1.912,1.104,2.568,3.559,1.464,5.473C185.268,619.552,183.938,620.317,182.509,620.317L182.509,620.317z"/>
			<path style="fill:#242D3C;" d="M169.379,612.738c-0.699,0-1.391-0.184-1.998-0.537c-1.913-1.104-2.571-3.56-1.465-5.47
				c0.712-1.239,2.042-2.006,3.473-2.006c0.698,0,1.388,0.185,1.996,0.538c1.914,1.104,2.572,3.559,1.469,5.473
				C172.139,611.973,170.809,612.738,169.379,612.738L169.379,612.738z"/>
			<path style="fill:#242D3C;" d="M156.25,605.159c-0.7,0-1.391-0.186-1.999-0.537c-1.914-1.104-2.572-3.56-1.469-5.475
				c0.714-1.234,2.047-2.006,3.475-2.006c0.7,0,1.391,0.186,1.998,0.538c1.915,1.104,2.572,3.559,1.469,5.474
				C159.01,604.389,157.679,605.159,156.25,605.159L156.25,605.159z"/>
			<path style="fill:#242D3C;" d="M143.122,597.575c-0.698,0-1.391-0.184-1.999-0.537c-0.927-0.534-1.59-1.4-1.868-2.432
				c-0.276-1.035-0.136-2.115,0.399-3.038c0.714-1.235,2.047-2.006,3.475-2.006c0.7,0,1.39,0.186,1.998,0.537
				c1.914,1.104,2.572,3.56,1.469,5.473C145.882,596.809,144.552,597.575,143.122,597.575L143.122,597.575z"/>
			<path style="fill:#242D3C;" d="M129.991,589.996c-0.699,0-1.389-0.185-1.997-0.538c-0.927-0.534-1.591-1.399-1.868-2.431
				c-0.277-1.036-0.137-2.115,0.399-3.038c0.712-1.24,2.044-2.006,3.473-2.006c0.7,0,1.393,0.184,2,0.537
				c1.91,1.104,2.567,3.56,1.464,5.473C132.749,589.229,131.419,589.996,129.991,589.996L129.991,589.996z"/>
			<path style="fill:#242D3C;" d="M116.859,582.416c-0.7,0-1.39-0.184-1.998-0.537c-1.912-1.104-2.567-3.56-1.464-5.473
				c0.714-1.236,2.044-2.007,3.475-2.007c0.698,0,1.389,0.185,1.995,0.537c0.926,0.534,1.591,1.401,1.868,2.433
				c0.277,1.035,0.136,2.114-0.399,3.041C119.621,581.646,118.288,582.416,116.859,582.416L116.859,582.416z"/>
			<path style="fill:#242D3C;" d="M320.174,407.93c-1.429,0-2.761-0.768-3.472-2.008c-0.533-0.922-0.678-2.002-0.404-3.033
				c0.28-1.035,0.938-1.901,1.87-2.436c0.609-0.354,1.299-0.537,1.998-0.537c1.429,0,2.76,0.766,3.47,2.002
				c0.534,0.928,0.679,2.006,0.401,3.042c-0.276,1.031-0.938,1.897-1.865,2.431C321.562,407.744,320.871,407.93,320.174,407.93z"/>
			<path style="fill:#242D3C;" d="M333.303,400.35c-1.429,0-2.758-0.771-3.472-2.007c-0.534-0.927-0.678-2.002-0.404-3.037
				c0.28-1.031,0.938-1.897,1.868-2.431c0.611-0.354,1.301-0.539,1.999-0.539c1.433,0,2.761,0.768,3.475,2.003
				c1.103,1.914,0.445,4.37-1.468,5.473C334.689,400.165,334,400.35,333.303,400.35z"/>
			<path style="fill:#242D3C;" d="M346.435,392.77c-1.432,0-2.76-0.77-3.475-2.006c-0.534-0.928-0.678-2.006-0.401-3.041
				c0.276-1.031,0.943-1.898,1.866-2.432c0.609-0.354,1.3-0.538,1.998-0.538c1.429,0,2.76,0.771,3.475,2.006
				c1.104,1.914,0.449,4.37-1.465,5.474C347.827,392.585,347.133,392.77,346.435,392.77z"/>
			<path style="fill:#242D3C;" d="M359.56,385.186c-1.429,0-2.761-0.766-3.471-2.005c-0.533-0.923-0.679-2.002-0.397-3.038
				c0.272-1.031,0.939-1.898,1.865-2.432c0.606-0.353,1.297-0.538,1.995-0.538c1.429,0,2.76,0.767,3.479,2.002
				c1.103,1.914,0.444,4.369-1.47,5.473C360.956,385.002,360.262,385.186,359.56,385.186z"/>
			<path style="fill:#242D3C;" d="M372.692,377.607c-1.429,0-2.761-0.77-3.475-2.006c-0.534-0.927-0.679-2.006-0.397-3.038
				c0.272-1.031,0.939-1.898,1.865-2.431c0.606-0.354,1.301-0.538,1.998-0.538c1.429,0,2.761,0.766,3.475,2.002
				c1.104,1.91,0.446,4.366-1.469,5.473C374.085,377.422,373.395,377.607,372.692,377.607z"/>
			<path style="fill:#242D3C;" d="M385.825,370.028c-1.434,0-2.765-0.771-3.479-2.007c-1.104-1.91-0.445-4.366,1.469-5.473
				c0.606-0.354,1.296-0.538,1.998-0.538c1.429,0,2.761,0.771,3.476,2.006c1.103,1.914,0.444,4.37-1.47,5.473
				C387.214,369.843,386.522,370.028,385.825,370.028z"/>
			<path style="fill:#242D3C;" d="M406.419,354.802c-1.429,0-2.761-0.768-3.472-2.008c-0.533-0.922-0.678-2.002-0.404-3.033
				c0.28-1.035,0.938-1.901,1.87-2.436c0.609-0.354,1.299-0.537,1.998-0.537c1.429,0,2.76,0.766,3.47,2.002
				c0.534,0.928,0.679,2.006,0.401,3.042c-0.276,1.031-0.938,1.897-1.865,2.431C407.808,354.617,407.116,354.802,406.419,354.802z"
				/>
			<path style="fill:#242D3C;" d="M419.548,347.222c-1.429,0-2.758-0.771-3.472-2.007c-0.534-0.927-0.678-2.002-0.404-3.037
				c0.28-1.031,0.938-1.897,1.868-2.431c0.611-0.354,1.301-0.539,1.999-0.539c1.433,0,2.761,0.768,3.475,2.003
				c1.103,1.914,0.445,4.37-1.468,5.473C420.935,347.038,420.245,347.222,419.548,347.222z"/>
			<path style="fill:#242D3C;" d="M432.68,339.642c-1.432,0-2.76-0.77-3.475-2.006c-0.534-0.928-0.678-2.006-0.401-3.041
				c0.276-1.031,0.943-1.898,1.866-2.432c0.609-0.354,1.3-0.538,1.998-0.538c1.429,0,2.76,0.771,3.475,2.006
				c1.104,1.914,0.449,4.37-1.465,5.474C434.072,339.458,433.378,339.642,432.68,339.642z"/>
			<path style="fill:#242D3C;" d="M445.805,332.058c-1.429,0-2.761-0.766-3.471-2.005c-0.533-0.923-0.679-2.002-0.397-3.038
				c0.272-1.031,0.939-1.898,1.865-2.432c0.606-0.353,1.297-0.538,1.995-0.538c1.429,0,2.76,0.767,3.479,2.002
				c1.103,1.914,0.444,4.369-1.47,5.473C447.201,331.875,446.507,332.058,445.805,332.058z"/>
			<path style="fill:#242D3C;" d="M458.938,324.479c-1.429,0-2.761-0.77-3.475-2.006c-0.534-0.927-0.679-2.006-0.397-3.038
				c0.272-1.031,0.939-1.898,1.865-2.431c0.606-0.354,1.301-0.538,1.998-0.538c1.429,0,2.761,0.766,3.475,2.002
				c1.104,1.91,0.446,4.366-1.469,5.473C460.33,324.295,459.64,324.479,458.938,324.479z"/>
			<path style="fill:#242D3C;" d="M472.07,316.9c-1.434,0-2.765-0.771-3.479-2.007c-1.104-1.91-0.445-4.366,1.469-5.473
				c0.606-0.354,1.296-0.538,1.998-0.538c1.429,0,2.761,0.771,3.476,2.006c1.103,1.914,0.444,4.37-1.47,5.473
				C473.459,316.715,472.768,316.9,472.07,316.9z"/>
			<circle style="fill:#242D3C;" cx="340.011" cy="235.395" r="4.004"/>
			<circle style="fill:#242D3C;" cx="340.011" cy="250.558" r="4.004"/>
			<circle style="fill:#242D3C;" cx="340.011" cy="265.717" r="4.005"/>
			<path style="fill:#242D3C;" d="M207.77,316.569c-0.698,0-1.388-0.185-1.994-0.538c-0.929-0.533-1.592-1.4-1.87-2.431
				c-0.276-1.035-0.134-2.115,0.402-3.042c0.714-1.235,2.044-2.006,3.475-2.006c0.698,0,1.391,0.188,2,0.538
				c1.91,1.104,2.566,3.559,1.463,5.473C210.53,315.798,209.2,316.569,207.77,316.569z"/>
			<path style="fill:#242D3C;" d="M220.9,324.148c-0.698,0-1.389-0.184-1.996-0.538c-1.914-1.103-2.572-3.559-1.469-5.473
				c0.714-1.236,2.048-2.007,3.479-2.007c0.698,0,1.388,0.189,1.994,0.539c0.927,0.533,1.589,1.4,1.865,2.435
				c0.279,1.035,0.137,2.115-0.396,3.038C223.663,323.378,222.331,324.148,220.9,324.148z"/>
			<path style="fill:#242D3C;" d="M234.031,331.728c-0.698,0-1.391-0.185-1.999-0.538c-0.926-0.534-1.591-1.401-1.868-2.432
				s-0.134-2.11,0.399-3.037c0.714-1.236,2.046-2.006,3.475-2.006c0.7,0,1.39,0.185,1.998,0.538
				c1.914,1.108,2.572,3.563,1.468,5.473C236.792,330.961,235.46,331.728,234.031,331.728z"/>
			<path style="fill:#242D3C;" d="M208.715,469.326c-1.429,0-2.759-0.766-3.471-2.006c-0.536-0.923-0.68-2.002-0.403-3.033
				c0.277-1.035,0.939-1.901,1.868-2.436c0.608-0.354,1.3-0.538,1.998-0.538c1.431,0,2.761,0.767,3.475,2.003
				c1.104,1.913,0.445,4.369-1.468,5.473C210.105,469.143,209.413,469.326,208.715,469.326z"/>
			<path style="fill:#242D3C;" d="M221.85,461.752c-1.43,0-2.763-0.771-3.477-2.008c-1.104-1.913-0.446-4.368,1.467-5.472
				c0.609-0.354,1.299-0.538,1.998-0.538c1.43,0,2.76,0.767,3.473,2.006c0.535,0.923,0.676,2.003,0.399,3.038
				c-0.276,1.035-0.939,1.901-1.863,2.435C223.238,461.563,222.548,461.752,221.85,461.752z"/>
			<path style="fill:#242D3C;" d="M234.977,454.168c-1.428,0-2.761-0.771-3.475-2.006c-1.103-1.915-0.445-4.37,1.468-5.474
				c0.606-0.353,1.296-0.538,1.994-0.538c1.431,0,2.763,0.771,3.479,2.006c1.104,1.91,0.446,4.366-1.468,5.474
				C236.367,453.982,235.677,454.168,234.977,454.168z"/>
			<path style="fill:#242D3C;" d="M248.103,446.584c-1.429,0-2.761-0.767-3.473-2.006c-0.535-0.923-0.676-2.003-0.399-3.033
				c0.277-1.035,0.941-1.898,1.868-2.432c0.608-0.354,1.3-0.538,1.999-0.538c1.429,0,2.76,0.767,3.475,1.999
				c1.102,1.913,0.443,4.368-1.469,5.472C249.496,446.399,248.803,446.584,248.103,446.584z"/>
			<circle style="fill:#242D3C;" cx="340.191" cy="510.428" r="4.004"/>
			<circle style="fill:#242D3C;" cx="340.191" cy="525.586" r="4.004"/>
			<circle style="fill:#242D3C;" cx="340.191" cy="540.745" r="4.004"/>
			<path style="fill:#242D3C;" d="M446.981,454.529c-0.702,0-1.393-0.186-2.003-0.538c-0.927-0.534-1.593-1.4-1.865-2.436
				c-0.281-1.032-0.137-2.11,0.4-3.033c0.715-1.24,2.043-2.007,3.471-2.007c0.699,0,1.394,0.185,1.999,0.538
				c0.927,0.533,1.588,1.4,1.866,2.432c0.276,1.035,0.136,2.114-0.401,3.041C449.733,453.763,448.405,454.529,446.981,454.529z"/>
			<path style="fill:#242D3C;" d="M460.11,462.108c-0.699,0-1.394-0.186-2.003-0.538c-0.927-0.534-1.593-1.4-1.865-2.431
				c-0.281-1.035-0.138-2.111,0.401-3.038c0.714-1.236,2.046-2.006,3.475-2.006c0.697,0,1.389,0.184,1.993,0.537
				c1.915,1.104,2.572,3.56,1.469,5.473C462.87,461.342,461.538,462.108,460.11,462.108z"/>
			<path style="fill:#242D3C;" d="M473.234,469.692c-0.698,0-1.389-0.186-1.994-0.539c-0.931-0.533-1.593-1.399-1.869-2.432
				c-0.277-1.034-0.138-2.113,0.401-3.041c0.713-1.236,2.046-2.006,3.475-2.006c0.697,0,1.388,0.188,1.998,0.538
				c1.909,1.104,2.567,3.559,1.464,5.472C475.995,468.922,474.667,469.692,473.234,469.692z"/>
		</g>
	</g>
	<g>
		<path style="fill:#1776D2;" d="M468.375,388.597c0,70.776-57.354,128.13-128.126,128.13c-70.773,0-128.127-57.354-128.127-128.13
			c0-70.77,57.354-128.124,128.127-128.124C411.021,260.473,468.375,317.827,468.375,388.597z"/>
		<path style="fill:#FFC107;" d="M391.25,69.815c0,28.167-22.839,51.006-51.001,51.006c-28.171,0-51.006-22.838-51.006-51.006
			c0-28.167,22.835-51.006,51.006-51.006C368.411,18.81,391.25,41.648,391.25,69.815z"/>
		<circle style="fill:#242D3C;" cx="64.172" cy="229.209" r="51.006"/>
		<path style="fill:#E6E5E5;" d="M115.178,547.985c0,28.167-22.834,51.007-51.002,51.007c-28.171,0-51.006-22.84-51.006-51.007
			s22.834-51.002,51.006-51.002C92.344,496.983,115.178,519.818,115.178,547.985z"/>
		<path style="fill:#242D3C;" d="M391.25,707.381c0,28.166-22.839,51.001-51.001,51.001c-28.171,0-51.006-22.835-51.006-51.001
			c0-28.169,22.835-51.003,51.006-51.003C368.411,656.378,391.25,679.212,391.25,707.381z"/>
		<path style="fill:#FFC107;" d="M667.322,547.985c0,28.167-22.844,51.007-51.011,51.007c-28.171,0-51.006-22.84-51.006-51.007
			s22.835-51.002,51.006-51.002C644.479,496.983,667.322,519.818,667.322,547.985z"/>
		<path style="fill:#E6E5E5;" d="M667.322,229.206c0,28.167-22.844,51.006-51.011,51.006c-28.171,0-51.006-22.838-51.006-51.006
			c0-28.167,22.835-51.006,51.006-51.006C644.479,178.2,667.322,201.039,667.322,229.206z"/>
	</g>
	<g>
		<path style="fill:#FFFFFF;" d="M323.06,361.186c6.208,0.423,9.838,1.116,14.207,3.454c0.467,0.258,1.182,0.06,1.784,0.038
			c2.873-0.11,5.75-0.226,8.628-0.346c0.822-0.039,1.778,0.156,2.455-0.187c7.374-3.753,15.259-4.718,23.362-4.411
			c4.106,0.148,8.213,0.479,12.292,0.974c2.931,0.352,3.988,3.693,2.26,6.159c-0.73,1.047-1.144,2.375-1.497,3.638
			c-1.097,3.946-1.882,7.995-3.213,11.861c-1.316,3.825-4.17,6.326-8.135,7.461c-7.53,2.159-14.603,1.352-21.042-3.317
			c-3.482-2.521-4.943-6.28-5.941-10.265c-0.22-0.893-0.346-1.812-0.497-2.716c-0.448-2.736-1.532-3.786-3.946-3.803
			c-2.541-0.011-3.783,1.309-4.481,3.907c-0.982,3.593-1.801,7.371-3.566,10.588c-3.208,5.837-9.087,7.672-15.278,8.166
			c-5.941,0.479-11.433-0.835-15.606-5.601c-3.096-3.533-3.973-7.88-4.8-12.298c-0.333-1.826-1.089-3.569-1.678-5.345
			c-0.946-2.86-1.061-5.394,2.752-6.398C308.44,360.823,316.851,360.763,323.06,361.186z M310.206,366.063
			c-2.683,0.5-4.322,2.623-5.059,5.257c-1.576,5.589,1.765,13.191,6.923,15.845c6.176,3.181,15.541,1.113,19.654-4.496
			c2.835-3.857,3.106-8.207,1.306-12.537c-1.604-3.852-5.175-4.891-8.922-5.086C319.458,364.81,314.415,365.271,310.206,366.063z
			 M381.713,373.949c0-0.184,0.057-0.753,0.045-1.319c-0.088-5.478-2.835-8.68-8.298-9.128c-3.161-0.258-6.367,0.036-9.552,0.143
			c-0.989,0.033-1.969,0.236-2.944,0.435c-7.706,1.573-10.974,9.244-6.791,16.029c3.197,5.188,8.199,7.025,13.951,6.968
			C375.833,387.004,381.007,381.999,381.713,373.949z"/>
		<path style="fill:#FFFFFF;" d="M275.882,343.319c0.02-9.457,6.636-18.124,15.468-20.249c9.791-2.355,19.714,1.988,23.984,10.486
			c1.875,3.742,1.085,5.823-2.856,7.231c-2.728,0.976-5.502,1.829-8.254,2.75c-6.044,2.026-10.583,6.15-14.859,10.648
			c-0.72,0.765-1.514,1.485-2.337,2.156c-3.064,2.479-5.249,2.183-7.441-1.034C277.134,351.701,275.901,347.692,275.882,343.319z"/>
		<path style="fill:#FFFFFF;" d="M384.317,322.405c8.477,0.272,14.869,3.948,18.66,11.394c3.743,7.34,3.08,14.663-1.432,21.562
			c-2.049,3.145-4.424,3.516-7.271,1.055c-2.462-2.125-4.708-4.49-7.084-6.717c-3.304-3.109-7.181-5.218-11.515-6.562
			c-2.359-0.734-4.712-1.515-7.038-2.361c-3.844-1.408-4.732-3.451-2.811-7.077C369.76,326.268,376.097,322.677,384.317,322.405z"/>
		<path style="fill:#FFFFFF;" d="M339.944,452.383c-2.54,2.73-3.2,5.628-1.856,8.96c0.157,0.395-0.294,1.378-0.729,1.617
			c-4.481,2.508-9.167,4.433-14.401,4.636c-1.578,0.065-2.502-0.518-2.864-2.149c-1.293-5.719-1.117-11.422,0.357-17.045
			c1.039-3.973,2.843-4.972,6.807-3.896C332.208,445.858,336.364,448.536,339.944,452.383z"/>
		<path style="fill:#FFFFFF;" d="M348.501,463.068c2.36-3.051,2.719-5.901,0.854-8.973c-0.229-0.379,0-1.457,0.354-1.705
			c4.196-2.886,8.722-5.004,13.907-5.186c2.862-0.099,4.369,0.977,4.768,3.732c0.891,6.199,0.406,12.287-2.038,18.131
			c-0.52,1.253-1.345,2.042-2.769,1.767C357.859,469.748,353.095,466.848,348.501,463.068z"/>
		<path style="fill:#FFFFFF;" d="M351.935,394.858c3.961,0.668,5.348,4.172,3.032,7.486c-0.707,1.004-1.704,1.962-2.79,2.514
			c-4.933,2.508-10.091,2.546-15.26,0.816c-2.625-0.871-4.154-2.796-4.622-5.584c-0.489-2.887,0.248-4.41,3.156-4.977
			C338.35,394.556,349.441,394.443,351.935,394.858z"/>
		<path style="fill:#FFFFFF;" d="M349.293,420.556c5.768,0.527,3.942,3.882-0.254,4.347c-3.371,0.228-6.774,0.241-10.14-0.022
			c-7.613-0.898-3.262-4.229-0.103-4.471C341.957,420.168,347.576,420.007,349.293,420.556z"/>
		<circle style="fill:#FFFFFF;" cx="344.117" cy="457.673" r="6.772"/>
	</g>
</g>
<g>
	<polygon style="fill:#242D3C;" points="628.895,524.078 605.491,524.078 603.902,558.105 630.501,558.105 	"/>
	<path style="fill:#F2F2F2;" d="M590.756,565.422l-0.048,0.177l-1.6,5.074h-0.007l-2.095,6.623h60.377l-2.097-6.623l-2.303-7.274
		c-0.371-1.175-0.983-2.271-1.873-3.231c-0.888-0.966-1.942-1.658-3.073-2.12l-12.092-4.793c-0.607-0.246-1.148-0.679-1.554-1.254
		c-0.399-0.596-0.581-1.247-0.581-1.906v-5.886h-13.227v5.886c0,0.659-0.19,1.311-0.589,1.906c-0.393,0.575-0.938,1.008-1.541,1.254
		l-12.1,4.793c-1.131,0.462-2.185,1.154-3.067,2.12c-0.902,0.961-1.512,2.057-1.886,3.231L590.756,565.422L590.756,565.422z"/>
	<path style="fill:#F2F2F2;" d="M617.203,514.267c-7.24,0-12.387,5.271-12.387,16.441c0,9.45,5.537,17.417,12.387,17.417
		c6.836,0,12.385-7.967,12.385-17.417C629.588,519.538,624.428,514.267,617.203,514.267z"/>
	<path style="fill:#242D3C;" d="M628.31,514.868h-11.106h-11.127c0,0-1.572,11.096,0.441,13.363c0.085-0.92,0.9-1.177,2.373-1.179
		c0,0,1.238-1.377,2.136-5.192c0.673,2.591,0.363,5.295,0.363,5.295c1.584,0.107,3.522,0.275,5.813,0.288
		c0.582-0.004,1.139-0.016,1.658-0.029c0,0,0.68-0.406,0.971-1.407c0.424,0.536,0.484,1.335,0.484,1.335
		c4.744-0.26,7.398-0.812,7.547,0.89C629.898,525.964,628.31,514.868,628.31,514.868z"/>
	<path style="fill:#242D3C;" d="M608.455,553.254c0.603-0.246,1.148-0.679,1.541-1.254c0.398-0.596,0.589-1.247,0.589-1.906v-2.51
		h-3.724c-0.48-3.514-0.752-6.972-0.752-10.251c0-9.703,0.67-13.332,3.35-16.606c3.465-4.217,7.744-5.092,7.744-5.092
		s4.267,0.875,7.729,5.092c2.687,3.274,3.341,6.903,3.341,16.606c0,3.279-0.262,6.737-0.752,10.251h-3.71v2.51
		c0,0.659,0.182,1.311,0.581,1.906c0.405,0.575,0.946,1.008,1.554,1.254l6.922,2.752c0.852-1.064,1.289-2.348,1.289-3.635v-4.787
		c0-8.032-0.244-18.511-1.938-26.165c-1.485-6.56-7.096-12.902-15.016-11.181c-7.93-1.722-13.533,4.621-15.025,11.181
		c-1.709,7.654-1.949,18.133-1.949,26.165v4.787c0,1.287,0.439,2.57,1.309,3.635L608.455,553.254z"/>
	<path style="fill:#242D3C;" d="M597.488,577.296h39.404c-1.841-4.025-2.979-9.445-2.979-15.456c0-1.82,0.111-3.585,0.318-5.298
		h-0.007l-3.234-1.285l-1.396,5.597c-0.659,2.668-2.18,5.178-4.523,6.997c-2.35,1.83-4.943,2.61-7.867,2.61
		c-2.943,0-5.545-0.78-7.887-2.61c-2.327-1.819-3.86-4.329-4.512-6.997l-1.396-5.597l-3.227,1.285h-0.029
		c0.195,1.713,0.311,3.478,0.311,5.298C600.463,567.851,599.328,573.271,597.488,577.296z"/>
</g>
<g>
	<g>
		<path style="fill:#FFFFFF;" d="M90.764,517.443v58.373H50.978c-3.976,0-7.198-3.222-7.198-7.2v-51.173H90.764z"/>
		<path style="fill:#242D3C;" d="M58.176,568.616h46.986c0,3.979-3.225,7.2-7.199,7.2H50.978
			C54.956,575.815,58.176,572.595,58.176,568.616z"/>
		<g>
			<g>
				<path style="fill:#1776D2;" d="M56.843,529.353h-6.315v-6.312h6.315V529.353z M52.634,527.248h2.104v-2.104h-2.104V527.248z"/>
				<rect x="58.947" y="523.041" style="fill:#CCCBCA;" width="25.068" height="2.104"/>
				<rect x="58.947" y="527.248" style="fill:#CCCBCA;" width="12.538" height="2.104"/>
			</g>
			<g>
				<path style="fill:#1776D2;" d="M56.843,537.767h-6.315v-6.311h6.315V537.767z M52.634,535.665h2.104v-2.105h-2.104V535.665z"/>
				<rect x="58.947" y="531.456" style="fill:#CCCBCA;" width="25.068" height="2.104"/>
				<rect x="58.947" y="535.665" style="fill:#CCCBCA;" width="12.538" height="2.102"/>
			</g>
			<g>
				<path style="fill:#1776D2;" d="M56.843,546.188h-6.315v-6.315h6.315V546.188z M52.634,544.081h2.104v-2.104h-2.104V544.081z"/>
				<rect x="58.947" y="539.872" style="fill:#CCCBCA;" width="25.068" height="2.105"/>
				<rect x="58.947" y="544.081" style="fill:#CCCBCA;" width="12.538" height="2.106"/>
			</g>
			<g>
				<path style="fill:#1776D2;" d="M56.843,554.604h-6.315v-6.313h6.315V554.604z M52.634,552.5h2.104v-2.106h-2.104V552.5z"/>
				<rect x="58.947" y="548.29" style="fill:#CCCBCA;" width="25.068" height="2.104"/>
				<rect x="58.947" y="552.5" style="fill:#CCCBCA;" width="12.538" height="2.104"/>
			</g>
			<g>
				<path style="fill:#1776D2;" d="M56.843,563.022h-6.315v-6.315h6.315V563.022z M52.634,560.916h2.104v-2.104h-2.104V560.916z"/>
				<rect x="58.947" y="556.707" style="fill:#CCCBCA;" width="25.068" height="2.105"/>
				<rect x="58.947" y="560.916" style="fill:#CCCBCA;" width="12.538" height="2.106"/>
			</g>
		</g>
	</g>
	<g>
		<rect x="30.494" y="527.289" style="fill-rule:evenodd;clip-rule:evenodd;fill:#1776D2;" width="6.086" height="36.947"/>
		<rect x="30.494" y="564.235" style="fill-rule:evenodd;clip-rule:evenodd;fill:#D9D8D7;" width="6.086" height="1.462"/>
		<path style="fill-rule:evenodd;clip-rule:evenodd;fill:#242D3C;" d="M36.582,565.7v1.073c0,1.681-1.362,3.042-3.042,3.042
			c-1.683,0-3.046-1.361-3.046-3.042V565.7H36.582z"/>
		<polygon style="fill:#D9D8D7;" points="36.58,527.289 34.546,523.396 32.523,523.396 30.494,527.289 		"/>
		<polygon style="fill:#242D3C;" points="34.546,523.396 33.531,521.449 32.523,523.396 		"/>
	</g>
</g>
<g>
	<g>
		<rect x="32.414" y="224.598" style="fill:#242D3C;" width="7.482" height="34.188"/>
		<rect x="39.896" y="207.353" style="fill:#1776D2;" width="7.481" height="51.433"/>
		<rect x="47.377" y="217.004" style="fill:#E6E5E5;" width="7.482" height="41.781"/>
		<rect x="54.859" y="242.995" style="fill:#FFC107;" width="7.481" height="15.791"/>
	</g>
	<g>
		<path style="fill:#FFC107;" d="M94.374,234.522c-2.88,2.88-6.861,4.656-11.252,4.656c-8.785,0-15.909-7.125-15.909-15.909
			c0-6.63,4.057-12.319,9.823-14.704l6.086,14.704L94.374,234.522z"/>
		<path style="fill:#1776D2;" d="M99.036,223.267H83.123v-15.912C91.911,207.355,99.036,214.48,99.036,223.267z"/>
		<path style="fill:#E6E5E5;" d="M99.036,223.267c0,4.394-1.78,8.371-4.66,11.251l-11.253-11.251H99.036z"/>
		<path style="fill:#41A0EF;" d="M83.122,207.353v15.917l-6.086-14.704C78.91,207.785,80.967,207.353,83.122,207.353z"/>
	</g>
	<rect x="32.414" y="214.347" style="fill:#242D3C;" width="7.482" height="3.178"/>
	<rect x="47.378" y="207.997" style="fill:#E6E5E5;" width="7.481" height="3.178"/>
	<rect x="54.859" y="233.993" style="fill:#FFC107;" width="7.481" height="3.178"/>
	<rect x="54.859" y="196.214" style="fill:#FFC107;" width="7.481" height="3.179"/>
	<rect x="39.896" y="190.184" style="fill:#1776D2;" width="7.481" height="3.179"/>
	<circle style="fill:#242D3C;" cx="74.612" cy="253.988" r="4.797"/>
	<circle style="fill:#1776D2;" cx="92.118" cy="245.468" r="2.473"/>
</g>
<g>
	<g>
		<g>
			<path style="fill:#242D3C;" d="M340.993,39.036h2.499v2.318h-2.499V39.036z M340.993,43.674h2.499v2.319h-2.499V43.674z
				 M340.993,48.308h2.499v2.32h-2.499V48.308z"/>
		</g>
		<circle style="fill:#E6E5E5;" cx="342.241" cy="30.33" r="6.953"/>
		<g>
			
				<rect x="354.499" y="53.772" transform="matrix(-0.7081 -0.7061 0.7061 -0.7081 568.9094 344.9212)" style="fill:#242D3C;" width="2.505" height="2.186"/>
		</g>
		<path style="fill:#E6E5E5;" d="M358.068,45.663c1.904-1.901,4.984-1.901,6.884,0.002c1.904,1.898,1.904,4.982,0,6.883
			c-1.899,1.9-4.979,1.9-6.884,0C356.167,50.647,356.166,47.563,358.068,45.663z"/>
		<g>
			
				<rect x="327.639" y="53.614" transform="matrix(-0.7074 -0.7068 0.7068 -0.7074 522.5131 326.0174)" style="fill:#242D3C;" width="2.185" height="2.503"/>
		</g>
		<path style="fill:#E6E5E5;" d="M319.529,52.548c-1.9-1.901-1.9-4.985,0-6.883c1.901-1.904,4.985-1.904,6.884,0
			c1.901,1.899,1.901,4.982,0,6.883C324.514,54.448,321.431,54.448,319.529,52.548z"/>
		<g>
			<path style="fill:#242D3C;" d="M312.902,67.125h2.319v2.501h-2.319V67.125z M317.542,67.125h2.319v2.501h-2.319V67.125z
				 M322.175,67.125h2.317v2.501h-2.317V67.125z"/>
		</g>
		<g>
			<path style="fill:#242D3C;" d="M359.991,67.126h2.316v2.5h-2.316V67.126z M364.626,67.126h2.317v2.5h-2.317V67.126z
				 M369.261,67.126h2.319v2.5h-2.319V67.126z"/>
		</g>
		<path style="fill:#E6E5E5;" d="M304.194,75.329c-3.839,0-6.951-3.114-6.951-6.953c0-3.84,3.112-6.954,6.951-6.954
			c3.845,0,6.954,3.114,6.954,6.954C311.148,72.214,308.039,75.329,304.194,75.329z"/>
		<circle style="fill:#E6E5E5;" cx="380.287" cy="68.375" r="6.953"/>
		<g>
			
				<rect x="327.481" y="80.793" transform="matrix(0.7074 0.7068 -0.7068 0.7074 154.065 -208.3927)" style="fill:#242D3C;" width="2.501" height="2.185"/>
		</g>
		<path style="fill:#E6E5E5;" d="M326.415,91.087c-1.9,1.902-4.984,1.902-6.884-0.002c-1.902-1.898-1.902-4.982,0-6.882
			c1.9-1.901,4.984-1.901,6.884,0C328.315,86.104,328.316,89.187,326.415,91.087z"/>
		<g>
			
				<rect x="354.661" y="80.634" transform="matrix(0.7068 0.7074 -0.7074 0.7068 162.2459 -227.6625)" style="fill:#242D3C;" width="2.182" height="2.502"/>
		</g>
		<path style="fill:#E6E5E5;" d="M364.952,84.203c1.902,1.9,1.902,4.984,0,6.882c-1.899,1.904-4.982,1.904-6.884,0
			c-1.901-1.9-1.901-4.982,0-6.882C359.97,82.302,363.053,82.302,364.952,84.203z"/>
	</g>
	<g>
		<path style="fill:#1776D2;" d="M338.385,90.876v18.642c0,0.989,0.377,1.976,1.13,2.728c0.752,0.753,1.741,1.13,2.728,1.13
			c0.985,0,1.972-0.377,2.727-1.13c0.754-0.752,1.13-1.739,1.13-2.728V90.876H338.385z"/>
		<rect x="340.313" y="83.727" style="fill:#131A26;" width="3.856" height="7.15"/>
		<circle style="fill:#242D3C;" cx="342.243" cy="68.375" r="15.995"/>
		<path style="fill:#FFFFFF;" d="M342.243,56.162c6.733,0,12.213,5.479,12.213,12.214s-5.48,12.213-12.213,12.213
			c-6.734,0-12.216-5.478-12.216-12.213S335.509,56.162,342.243,56.162z"/>
		<g>
			<g>
				<polygon style="fill:#1776D2;" points="342.974,58.733 341.508,58.733 341.083,60.86 343.398,60.86 				"/>
				<polygon style="fill:#1776D2;" points="338.053,59.66 336.787,60.389 337.481,62.447 339.486,61.289 				"/>
				<polygon style="fill:#1776D2;" points="334.256,62.92 333.524,64.188 335.157,65.62 336.315,63.617 				"/>
				<polygon style="fill:#1776D2;" points="332.599,67.643 332.599,69.108 334.727,69.535 334.727,67.218 				"/>
				<polygon style="fill:#1776D2;" points="333.524,72.563 334.256,73.831 336.315,73.135 335.157,71.129 				"/>
				<polygon style="fill:#1776D2;" points="336.787,76.36 338.053,77.091 339.486,75.46 337.481,74.304 				"/>
				<polygon style="fill:#1776D2;" points="341.511,78.018 342.974,78.018 343.398,75.892 341.085,75.892 				"/>
				<polygon style="fill:#1776D2;" points="346.43,77.091 347.697,76.36 347.001,74.304 344.993,75.46 				"/>
				<polygon style="fill:#1776D2;" points="350.229,73.831 350.957,72.563 349.329,71.129 348.167,73.135 				"/>
				<polygon style="fill:#1776D2;" points="351.884,69.108 351.884,67.643 349.759,67.218 349.759,69.535 				"/>
				<polygon style="fill:#1776D2;" points="350.957,64.188 350.229,62.92 348.167,63.617 349.329,65.619 				"/>
				<polygon style="fill:#1776D2;" points="347.697,60.389 346.43,59.66 344.993,61.289 347.001,62.447 				"/>
			</g>
			<path style="fill:#1776D2;" d="M342.243,60.774c-4.204,0-7.605,3.402-7.605,7.601c0,4.198,3.401,7.601,7.605,7.601
				c4.202,0,7.601-3.402,7.601-7.601C349.844,64.176,346.444,60.774,342.243,60.774z M342.243,72.023
				c-2.019,0-3.649-1.629-3.649-3.647c0-2.019,1.631-3.649,3.649-3.649c2.016,0,3.649,1.63,3.649,3.649
				C345.892,70.394,344.258,72.023,342.243,72.023z"/>
		</g>
	</g>
</g>
<g>
	<g>
		<g>
			<defs>
				<circle id="SVGID_1_" cx="618.694" cy="229.59" r="51.145"/>
			</defs>
			<clipPath id="SVGID_2_">
				<use xlink:href="#SVGID_1_"  style="overflow:visible;"/>
			</clipPath>
			
				<rect x="584.196" y="254.186" transform="matrix(0.9563 -0.2924 0.2924 0.9563 -52.9848 184.4184)" style="clip-path:url(#SVGID_2_);fill:#242D3C;" width="12.282" height="30.485"/>
		</g>
		
			<rect x="566.637" y="228.814" transform="matrix(-0.9563 0.2924 -0.2924 -0.9563 1209.3413 303.5137)" style="fill:#1776D2;" width="30.708" height="26.62"/>
		<g>
			
				<rect x="571.332" y="236.615" transform="matrix(0.9556 -0.2945 0.2945 0.9556 -46.8687 179.2926)" style="fill:#41A0EF;" width="0.908" height="17.254"/>
			
				<rect x="573.192" y="236.05" transform="matrix(0.956 -0.2934 0.2934 0.956 -46.539 179.0546)" style="fill:#41A0EF;" width="0.907" height="17.249"/>
			
				<rect x="575.052" y="235.481" transform="matrix(0.9569 -0.2904 0.2904 0.9569 -46.0882 177.6535)" style="fill:#41A0EF;" width="0.906" height="17.251"/>
			
				<rect x="576.913" y="234.91" transform="matrix(0.9559 -0.2937 0.2937 0.9559 -46.0665 180.3434)" style="fill:#41A0EF;" width="0.909" height="17.253"/>
			
				<rect x="578.774" y="234.344" transform="matrix(0.9558 -0.294 0.294 0.9558 -45.8372 181.0624)" style="fill:#41A0EF;" width="0.908" height="17.249"/>
			
				<rect x="580.635" y="233.774" transform="matrix(0.9563 -0.2924 0.2924 0.9563 -45.4804 180.4928)" style="fill:#41A0EF;" width="0.907" height="17.25"/>
			<polygon style="fill:#41A0EF;" points="585.903,249.948 585.036,250.21 579.992,233.713 580.861,233.451 			"/>
			
				<rect x="584.355" y="232.638" transform="matrix(0.9562 -0.2928 0.2928 0.9562 -45.0095 181.7825)" style="fill:#41A0EF;" width="0.909" height="17.25"/>
		</g>
		<g>
			<path style="fill:#3E4959;" d="M631.15,220.042l3.943,12.902c3.564-1.09,5.568-4.859,4.479-8.424
				C638.483,220.96,634.716,218.956,631.15,220.042z"/>
		</g>
		
			<rect x="630.291" y="198.622" transform="matrix(0.9563 -0.2924 0.2924 0.9563 -38.9236 194.8275)" style="fill:#242D3C;" width="4.095" height="58.023"/>
		
			<rect x="564.161" y="238.457" transform="matrix(-0.9564 0.292 -0.292 -0.9564 1179.0305 318.1947)" style="fill:#242D3C;" width="3.217" height="17.25"/>
		
			<rect x="561.09" y="242.572" transform="matrix(-0.9565 0.2918 -0.2918 -0.9565 1173.2742 321.0641)" style="fill:#CCCBCA;" width="3.213" height="10.895"/>
		<polygon style="fill:#FFFFFF;" points="622.647,202.927 630.13,227.402 596.676,237.627 592.784,224.9 		"/>
		<polygon style="fill:#CCCBCA;" points="630.13,227.402 637.612,251.877 600.566,250.358 596.676,237.627 		"/>
		<g>
			
				<rect x="642.266" y="222.318" transform="matrix(0.9564 -0.2921 0.2921 0.9564 -37.028 197.9814)" style="fill:#FFFFFF;" width="4.539" height="1.362"/>
			<polygon style="fill:#FFFFFF;" points="647.197,228.524 642.679,228.092 642.811,226.736 647.327,227.174 			"/>
			
				<rect x="641.391" y="231.411" transform="matrix(0.8827 0.47 -0.47 0.8827 184.6239 -275.3046)" style="fill:#FFFFFF;" width="4.542" height="1.362"/>
			
				<rect x="638.448" y="235.016" transform="matrix(0.6363 0.7714 -0.7714 0.6363 414.8542 -408.5515)" style="fill:#FFFFFF;" width="4.538" height="1.365"/>
			
				<rect x="641.648" y="216.628" transform="matrix(0.6362 0.7715 -0.7715 0.6362 402.5372 -415.9279)" style="fill:#FFFFFF;" width="1.365" height="4.54"/>
			
				<rect x="638.041" y="213.684" transform="matrix(0.8824 0.4706 -0.4706 0.8824 176.7586 -275.1593)" style="fill:#FFFFFF;" width="1.362" height="4.539"/>
			
				<rect x="633.582" y="212.342" transform="matrix(0.9956 0.0936 -0.0936 0.9956 22.8743 -58.4293)" style="fill:#FFFFFF;" width="1.361" height="4.54"/>
		</g>
	</g>
	<g>
		<g>
			<path style="fill:#FFFFFF;" d="M660.49,237.596c0,2.649-2.154,4.804-4.809,4.804c-2.656,0-4.806-2.155-4.806-4.804
				c0-2.653,2.149-4.807,4.806-4.807C658.336,232.789,660.49,234.942,660.49,237.596z"/>
		</g>
		<path style="fill:#FFFFFF;" d="M634.64,194.152c0,1.446-1.177,2.622-2.621,2.622c-1.448,0-2.624-1.176-2.624-2.622
			c0-1.449,1.176-2.626,2.624-2.626C633.463,191.526,634.64,192.704,634.64,194.152z"/>
		<path style="fill:#242D3C;" d="M676.388,212.779c0,1.569-1.27,2.842-2.843,2.842c-1.566,0-2.839-1.273-2.839-2.842
			c0-1.564,1.272-2.839,2.839-2.839C675.118,209.94,676.388,211.215,676.388,212.779z"/>
		<path style="fill:#FFC107;" d="M647.732,189.973c0,0.963-0.784,1.742-1.747,1.742c-0.966,0-1.748-0.779-1.748-1.742
			c0-0.967,0.782-1.75,1.748-1.75C646.948,188.222,647.732,189.005,647.732,189.973z"/>
		<path style="fill:#242D3C;" d="M656.328,188.213c0,0.612-0.5,1.113-1.114,1.113c-0.618,0-1.114-0.501-1.114-1.113
			c0-0.614,0.496-1.114,1.114-1.114C655.828,187.099,656.328,187.6,656.328,188.213z"/>
		<path style="fill:#FFC107;" d="M654.931,254.117c0,1.084-0.882,1.967-1.966,1.967c-1.087,0-1.966-0.883-1.966-1.967
			c0-1.083,0.879-1.964,1.966-1.964C654.049,252.152,654.931,253.033,654.931,254.117z"/>
		<path style="fill:#FFC107;" d="M665.609,246.933c0,0.479-0.394,0.873-0.874,0.873c-0.483,0-0.877-0.394-0.877-0.873
			s0.394-0.871,0.877-0.871C665.216,246.062,665.609,246.453,665.609,246.933z"/>
		<path style="fill:#FFC107;" d="M614.141,191.434c0,0.809-0.657,1.466-1.467,1.466c-0.809,0-1.464-0.657-1.464-1.466
			c0-0.806,0.655-1.465,1.464-1.465C613.483,189.969,614.141,190.628,614.141,191.434z"/>
		<path style="fill:#FFC107;" d="M662.669,212.199c0,1.216-0.991,2.208-2.214,2.208c-1.221,0-2.213-0.992-2.213-2.208
			c0-1.222,0.992-2.214,2.213-2.214C661.678,209.985,662.669,210.977,662.669,212.199z"/>
		<circle style="fill:#FFFFFF;" cx="653.311" cy="219.819" r="1.05"/>
		<path style="fill:#FFC107;" d="M641.938,194.946c0,0.484-0.389,0.876-0.874,0.876c-0.481,0-0.873-0.393-0.873-0.876
			c0-0.483,0.392-0.875,0.873-0.875C641.55,194.071,641.938,194.463,641.938,194.946z"/>
	</g>
</g>
<g>
	<g>
		<path style="fill:#E6E5E5;" d="M378.191,711.935h-56.805v-31.108h48.868c2.033,0,4.064,0.777,5.612,2.325
			c1.552,1.549,2.324,3.581,2.324,5.611V711.935z"/>
		<path style="fill:#242D3C;" d="M326.997,683.151c-1.549-1.548-3.58-2.325-5.61-2.325c-2.031,0-4.062,0.777-5.612,2.325
			c-1.548,1.549-2.323,3.581-2.323,5.611v23.172h15.872v-23.172C329.323,686.732,328.549,684.7,326.997,683.151z"/>
		<path style="fill:#E6E5E5;" d="M326.997,740.717c-1.549,1.552-3.58,2.326-5.61,2.326c-2.031,0-4.062-0.774-5.612-2.326
			c-1.548-1.547-2.323-3.579-2.323-5.611v-23.171h15.872v23.171C329.323,737.138,328.549,739.17,326.997,740.717z"/>
		<polygon style="fill:#CCCBCA;" points="329.323,727.81 313.451,711.935 329.323,711.935 		"/>
		<g>
			<defs>
				<path id="SVGID_3_" d="M321.387,680.826c2.03,0,4.062,0.777,5.61,2.325c1.552,1.549,2.326,3.581,2.326,5.611v23.172h-7.937
					h-7.936h-6.137v-31.108H321.387z"/>
			</defs>
			<clipPath id="SVGID_4_">
				<use xlink:href="#SVGID_3_"  style="overflow:visible;"/>
			</clipPath>
			<g style="clip-path:url(#SVGID_4_);">
				<rect x="307.314" y="694.516" style="fill:#146BB2;" width="25.479" height="17.419"/>
				<polygon style="fill:#1776D2;" points="332.793,711.935 320.053,700.758 307.314,711.935 				"/>
				<polygon style="fill:#41A0EF;" points="332.793,694.516 320.053,705.694 307.314,694.516 				"/>
			</g>
		</g>
		<rect x="350.039" y="703.971" style="fill:#CCCBCA;" width="18.595" height="2.974"/>
		<rect x="350.039" y="711.935" style="fill:#D9D8D7;" width="7.438" height="35.433"/>
		<rect x="350.039" y="711.935" style="fill:#CCCBCA;" width="7.438" height="5.713"/>
		<g>
			<circle style="fill:#FFC107;" cx="339.681" cy="703.971" r="2.975"/>
			<rect x="338.838" y="688.763" style="fill:#FFC107;" width="1.688" height="15.586"/>
			<path style="fill:#FFFFFF;" d="M341.159,703.971c0,0.812-0.663,1.477-1.479,1.477s-1.476-0.664-1.476-1.477
				c0-0.817,0.66-1.48,1.476-1.48S341.159,703.153,341.159,703.971z"/>
			<rect x="340.526" y="689.853" style="fill:#FFC107;" width="7.263" height="5.206"/>
		</g>
		<path style="fill:#1776D2;" d="M368.121,747.367c-0.845-2.582-3.267-4.446-6.127-4.446c-0.969,0-1.879,0.217-2.702,0.6
			c-2.05-3.661-5.962-6.141-10.458-6.141c-5.936,0-10.852,4.32-11.807,9.987H368.121z"/>
	</g>
	<g>
		<path style="fill:#FFFFFF;" d="M329.323,694.516c-0.253,0-0.506-0.011-0.755-0.028l0.058-0.757
			c0.23,0.017,0.463,0.025,0.697,0.025V694.516z"/>
		<path style="fill:#D9D8D7;" d="M327.035,694.243c-0.5-0.121-0.996-0.284-1.473-0.485l0.295-0.699
			c0.439,0.185,0.896,0.336,1.357,0.447L327.035,694.243z M324.188,693.041c-0.437-0.272-0.855-0.583-1.242-0.924l0.499-0.571
			c0.358,0.313,0.745,0.6,1.146,0.854L324.188,693.041z M321.863,691.007c-0.33-0.399-0.629-0.825-0.891-1.271l0.654-0.384
			c0.241,0.409,0.518,0.803,0.821,1.17L321.863,691.007z M320.297,688.342c-0.188-0.479-0.337-0.979-0.443-1.485l0.742-0.158
			c0.098,0.465,0.236,0.926,0.408,1.369L320.297,688.342z M319.652,685.32c-0.008-0.162-0.011-0.324-0.011-0.486
			c0-0.355,0.019-0.712,0.057-1.062l0.755,0.082c-0.035,0.323-0.053,0.654-0.053,0.98c0,0.149,0.004,0.299,0.012,0.448
			L319.652,685.32z M320.722,682.451l-0.731-0.201c0.137-0.499,0.316-0.988,0.532-1.457l0.689,0.317
			C321.014,681.541,320.849,681.993,320.722,682.451z M321.912,679.863l-0.631-0.424c0.287-0.428,0.612-0.835,0.965-1.214
			l0.555,0.521C322.476,679.093,322.176,679.469,321.912,679.863z M323.854,677.782l-0.465-0.601
			c0.407-0.317,0.845-0.602,1.296-0.85l0.363,0.667C324.633,677.226,324.231,677.489,323.854,677.782z M326.354,676.416L326.1,675.7
			c0.484-0.171,0.99-0.304,1.498-0.397l0.135,0.749C327.265,676.135,326.8,676.258,326.354,676.416z M329.153,675.911l-0.013-0.76
			l1.498-0.001v0.76L329.153,675.911z M336.604,675.91h-1.492v-0.76h1.492V675.91z M333.621,675.91h-1.491v-0.76h1.491V675.91z"/>
		<rect x="338.111" y="675.15" style="fill:#FFFFFF;" width="0.727" height="0.76"/>
	</g>
	<g>
		<polygon style="fill:#D39807;" points="356.053,675.91 338.016,675.91 335.1,668.637 		"/>
		<polygon style="fill:#FFC107;" points="356.053,675.91 338.016,675.91 341.91,664.786 		"/>
	</g>
</g>
</svg>
