<?xml version="1.0" encoding="iso-8859-1"?>
<!-- Generator: Adobe Illustrator 16.0.0, SVG Export Plug-In . SVG Version: 6.00 Build 0)  -->
<!DOCTYPE svg PUBLIC "-//W3C//DTD SVG 1.1//EN" "http://www.w3.org/Graphics/SVG/1.1/DTD/svg11.dtd">
<svg version="1.1" id="Calque_1" xmlns="http://www.w3.org/2000/svg" xmlns:xlink="http://www.w3.org/1999/xlink" x="0px" y="0px"
	 width="282px" height="282px" viewBox="0 0 282 282" style="enable-background:new 0 0 282 282;" xml:space="preserve">
<circle style="fill:#FFC107;" cx="140.727" cy="140.728" r="139.522"/>
<g>
	<g>
		<polygon style="fill:#E6E5E5;" points="100.85,14.705 97.774,14.705 96.877,19.179 101.748,19.179 		"/>
		<polygon style="fill:#E6E5E5;" points="90.51,16.651 87.844,18.191 89.304,22.517 93.522,20.082 		"/>
		<polygon style="fill:#E6E5E5;" points="82.523,23.509 80.984,26.173 84.414,29.19 86.846,24.969 		"/>
		<polygon style="fill:#E6E5E5;" points="79.037,33.443 79.041,36.518 83.514,37.417 83.514,32.547 		"/>
		<polygon style="fill:#E6E5E5;" points="80.984,43.786 82.523,46.452 86.846,44.989 84.414,40.77 		"/>
		<polygon style="fill:#E6E5E5;" points="87.844,51.771 90.51,53.31 93.522,49.881 89.304,47.445 		"/>
		<polygon style="fill:#E6E5E5;" points="97.776,55.253 100.85,55.253 101.748,50.779 96.877,50.779 		"/>
		<polygon style="fill:#E6E5E5;" points="108.12,53.31 110.785,51.771 109.324,47.445 105.103,49.881 		"/>
		<polygon style="fill:#E6E5E5;" points="116.103,46.452 117.644,43.786 114.213,40.77 111.781,44.989 		"/>
		<polygon style="fill:#E6E5E5;" points="119.589,36.518 119.589,33.443 115.115,32.547 115.115,37.417 		"/>
		<polygon style="fill:#E6E5E5;" points="117.644,26.173 116.103,23.509 111.781,24.969 114.213,29.19 		"/>
		<polygon style="fill:#E6E5E5;" points="110.785,18.191 108.119,16.653 105.103,20.082 109.324,22.513 		"/>
	</g>
	<path style="fill:#CCCBCA;" d="M99.311,18.993c-8.828,0-15.984,7.158-15.984,15.989s7.157,15.984,15.984,15.984
		c8.833,0,15.989-7.153,15.989-15.984S108.144,18.993,99.311,18.993z M99.311,39.409c-2.437,0-4.425-1.985-4.425-4.427
		s1.988-4.429,4.425-4.429c2.445,0,4.432,1.987,4.432,4.429S101.755,39.409,99.311,39.409z"/>
	<path style="fill:#242D3C;" d="M99.311,27.305c-4.237,0-7.67,3.437-7.67,7.676s3.434,7.672,7.67,7.672
		c4.243,0,7.678-3.433,7.678-7.672S103.553,27.305,99.311,27.305z M99.311,38.82c-2.112,0-3.833-1.719-3.833-3.839
		c0-2.117,1.721-3.837,3.833-3.837c2.121,0,3.839,1.721,3.839,3.837C103.149,37.102,101.431,38.82,99.311,38.82z"/>
</g>
<g>
	<g>
		<polygon style="fill:#E6E5E5;" points="127.896,34.988 126.106,34.988 125.583,37.591 128.417,37.591 		"/>
		<polygon style="fill:#E6E5E5;" points="121.88,36.121 120.329,37.016 121.178,39.533 123.633,38.116 		"/>
		<polygon style="fill:#E6E5E5;" points="117.234,40.11 116.338,41.661 118.333,43.415 119.749,40.96 		"/>
		<polygon style="fill:#E6E5E5;" points="115.206,45.89 115.208,47.678 117.81,48.2 117.81,45.368 		"/>
		<polygon style="fill:#E6E5E5;" points="116.338,51.906 117.234,53.457 119.749,52.607 118.333,50.152 		"/>
		<polygon style="fill:#E6E5E5;" points="120.329,56.552 121.88,57.447 123.633,55.452 121.178,54.036 		"/>
		<polygon style="fill:#E6E5E5;" points="126.107,58.578 127.896,58.578 128.417,55.975 125.583,55.975 		"/>
		<polygon style="fill:#E6E5E5;" points="132.125,57.447 133.675,56.552 132.825,54.036 130.369,55.452 		"/>
		<polygon style="fill:#E6E5E5;" points="136.769,53.457 137.665,51.906 135.67,50.152 134.254,52.607 		"/>
		<polygon style="fill:#E6E5E5;" points="138.796,47.678 138.796,45.89 136.194,45.368 136.194,48.2 		"/>
		<polygon style="fill:#E6E5E5;" points="137.665,41.661 136.769,40.11 134.254,40.96 135.67,43.415 		"/>
		<polygon style="fill:#E6E5E5;" points="133.675,37.016 132.124,36.122 130.369,38.116 132.825,39.531 		"/>
	</g>
	<path style="fill:#CCCBCA;" d="M127,37.483c-5.136,0-9.299,4.164-9.299,9.301c0,5.138,4.164,9.299,9.299,9.299
		c5.138,0,9.301-4.162,9.301-9.299C136.301,41.647,132.138,37.483,127,37.483z M127,49.36c-1.418,0-2.575-1.155-2.575-2.576
		c0-1.42,1.157-2.577,2.575-2.577c1.421,0,2.578,1.156,2.578,2.577C129.578,48.205,128.421,49.36,127,49.36z"/>
	<path style="fill:#242D3C;" d="M127,42.319c-2.466,0-4.463,2-4.463,4.465s1.997,4.463,4.463,4.463c2.468,0,4.467-1.998,4.467-4.463
		S129.468,42.319,127,42.319z M127,49.018c-1.229,0-2.23-1-2.23-2.233c0-1.231,1.001-2.232,2.23-2.232
		c1.233,0,2.233,1.001,2.233,2.232C129.233,48.018,128.233,49.018,127,49.018z"/>
</g>
<g>
	<g>
		<polygon style="fill:#E6E5E5;" points="111.304,52.667 110.231,52.667 109.917,54.229 111.618,54.229 		"/>
		<polygon style="fill:#E6E5E5;" points="107.694,53.347 106.764,53.885 107.273,55.395 108.746,54.545 		"/>
		<polygon style="fill:#E6E5E5;" points="104.906,55.742 104.369,56.672 105.566,57.725 106.416,56.251 		"/>
		<polygon style="fill:#E6E5E5;" points="103.689,59.21 103.69,60.283 105.252,60.596 105.252,58.896 		"/>
		<polygon style="fill:#E6E5E5;" points="104.369,62.82 104.906,63.751 106.416,63.241 105.566,61.768 		"/>
		<polygon style="fill:#E6E5E5;" points="106.764,65.607 107.694,66.145 108.746,64.948 107.273,64.098 		"/>
		<polygon style="fill:#E6E5E5;" points="110.231,66.824 111.304,66.824 111.618,65.261 109.917,65.261 		"/>
		<polygon style="fill:#E6E5E5;" points="113.842,66.145 114.772,65.607 114.263,64.098 112.789,64.948 		"/>
		<polygon style="fill:#E6E5E5;" points="116.629,63.751 117.167,62.82 115.969,61.768 115.12,63.241 		"/>
		<polygon style="fill:#E6E5E5;" points="117.846,60.283 117.846,59.21 116.284,58.896 116.284,60.596 		"/>
		<polygon style="fill:#E6E5E5;" points="117.167,56.672 116.629,55.742 115.12,56.251 115.969,57.725 		"/>
		<polygon style="fill:#E6E5E5;" points="114.772,53.885 113.842,53.348 112.789,54.545 114.263,55.394 		"/>
	</g>
	<path style="fill:#CCCBCA;" d="M110.767,54.165c-3.082,0-5.58,2.499-5.58,5.581c0,3.083,2.498,5.581,5.58,5.581
		c3.084,0,5.582-2.498,5.582-5.581C116.349,56.664,113.851,54.165,110.767,54.165z M110.767,61.292
		c-0.851,0-1.544-0.693-1.544-1.546c0-0.852,0.694-1.546,1.544-1.546c0.854,0,1.547,0.694,1.547,1.546
		C112.313,60.599,111.62,61.292,110.767,61.292z"/>
	<path style="fill:#242D3C;" d="M110.767,57.066c-1.479,0-2.678,1.2-2.678,2.68s1.199,2.679,2.678,2.679
		c1.481,0,2.681-1.199,2.681-2.679S112.248,57.066,110.767,57.066z M110.767,61.087c-0.738,0-1.338-0.6-1.338-1.341
		c0-0.739,0.601-1.339,1.338-1.339c0.74,0,1.34,0.601,1.34,1.339C112.107,60.487,111.507,61.087,110.767,61.087z"/>
</g>
<g>
	<g>
		<g>
			<path style="fill:#FFFFFF;" d="M177.48,249.392c1.733-1.116,4.011-0.706,5.253,0.893c0.885-0.824,1.691-1.709,2.413-2.648
				c-1.713-1.08-2.345-3.312-1.404-5.146c0.946-1.831,3.123-2.614,4.999-1.853c0.347-1.144,0.601-2.312,0.759-3.499
				c-2.021-0.085-3.68-1.699-3.78-3.753c-0.099-2.063,1.402-3.831,3.406-4.106c-0.266-1.154-0.634-2.292-1.097-3.409
				c-1.794,0.938-4.035,0.37-5.149-1.365c-1.117-1.733-0.705-4.01,0.892-5.251c-0.825-0.886-1.709-1.691-2.647-2.412
				c-1.082,1.71-3.313,2.343-5.148,1.401c-1.83-0.947-2.612-3.122-1.852-4.998c-1.143-0.346-2.312-0.601-3.497-0.759
				c-0.087,2.021-1.7,3.681-3.76,3.779s-3.827-1.398-4.102-3.407c-1.152,0.268-2.293,0.635-3.41,1.098
				c0.938,1.792,0.37,4.038-1.362,5.152s-4.013,0.703-5.254-0.895c-0.885,0.826-1.692,1.711-2.41,2.646
				c1.71,1.086,2.343,3.316,1.398,5.147c-0.944,1.836-3.12,2.615-4.996,1.856c-0.347,1.145-0.602,2.313-0.759,3.497
				c2.021,0.084,3.679,1.697,3.779,3.756c0.1,2.062-1.401,3.83-3.407,4.104c0.267,1.153,0.636,2.293,1.097,3.41
				c1.794-0.938,4.038-0.371,5.154,1.361c1.115,1.735,0.702,4.012-0.896,5.256c0.825,0.883,1.709,1.688,2.648,2.41
				c1.083-1.711,3.312-2.344,5.146-1.4c1.832,0.944,2.614,3.122,1.854,4.995c1.145,0.349,2.313,0.602,3.498,0.761
				c0.085-2.022,1.698-3.68,3.757-3.782c2.062-0.097,3.829,1.402,4.106,3.408c1.15-0.266,2.29-0.635,3.406-1.097
				C175.178,252.75,175.749,250.507,177.48,249.392z M155.425,242.171c-4.375-6.798-2.408-15.857,4.39-20.232
				c6.797-4.375,15.858-2.409,20.232,4.389c4.374,6.799,2.408,15.856-4.39,20.232C168.859,250.935,159.801,248.971,155.425,242.171z
				"/>
		</g>
		<circle style="fill:#1776D2;" cx="167.736" cy="234.249" r="5.856"/>
		<path style="fill:#242D3C;" d="M158.263,240.357l-0.005-0.009c-0.397-0.617-0.736-1.275-1.005-1.951l1.904-0.757
			c0.222,0.554,0.497,1.093,0.823,1.6L158.263,240.357z M159.634,242.09l1.474-1.425c0.42,0.435,0.883,0.826,1.379,1.169
			l-1.167,1.685C160.714,243.101,160.147,242.619,159.634,242.09z M156.645,236.271c-0.131-0.724-0.191-1.464-0.18-2.201
			l2.048,0.034c-0.009,0.604,0.04,1.208,0.147,1.801L156.645,236.271z M163.251,244.593l0.812-1.882
			c0.554,0.239,1.133,0.426,1.723,0.554l-0.434,2.002C164.631,245.11,163.925,244.884,163.251,244.593z M156.717,231.878
			c0.155-0.722,0.381-1.429,0.672-2.104l1.882,0.812c-0.237,0.552-0.423,1.133-0.551,1.722L156.717,231.878z M167.546,245.521
			l0.036-2.05c0.604,0.012,1.209-0.038,1.8-0.145l0.366,2.018C169.024,245.475,168.283,245.534,167.546,245.521z M158.459,227.842
			c0.418-0.606,0.899-1.174,1.429-1.687l1.426,1.474c-0.433,0.418-0.825,0.882-1.168,1.377L158.459,227.842z M171.872,244.736
			l-0.753-1.905c0.558-0.221,1.097-0.498,1.607-0.826l0.036-0.024l1.109,1.724l-0.026,0.019
			C173.215,244.127,172.554,244.467,171.872,244.736z M161.618,224.782l0.037-0.023c0.597-0.384,1.25-0.721,1.922-0.988l0.757,1.904
			c-0.549,0.22-1.084,0.495-1.588,0.819L161.618,224.782z M174.174,240.855c0.431-0.418,0.822-0.883,1.163-1.38l1.689,1.162
			c-0.416,0.606-0.896,1.176-1.424,1.688L174.174,240.855z M166.07,225.177l-0.368-2.018c0.723-0.131,1.463-0.194,2.201-0.181
			l-0.032,2.049C167.268,225.018,166.662,225.067,166.07,225.177z M176.208,237.894c0.239-0.553,0.424-1.132,0.549-1.722
			l2.004,0.428c-0.154,0.719-0.379,1.428-0.668,2.104L176.208,237.894z M169.666,225.231l0.431-2.004
			c0.72,0.153,1.426,0.38,2.103,0.67l-0.81,1.883C170.836,225.542,170.257,225.356,169.666,225.231z M176.959,234.375
			c0.01-0.604-0.043-1.211-0.151-1.8l2.016-0.371c0.135,0.721,0.195,1.461,0.187,2.2L176.959,234.375z M172.971,226.654l1.162-1.688
			c0.608,0.418,1.176,0.898,1.688,1.427l-1.473,1.427C173.932,227.387,173.467,226.996,172.971,226.654z M176.308,230.841
			c-0.22-0.549-0.494-1.081-0.816-1.582l-0.018-0.026l1.724-1.11l-0.862,0.557l0.866-0.549c0,0.001,0.002,0.004,0.003,0.005
			c0.404,0.629,0.738,1.275,1.005,1.945L176.308,230.841z"/>
	</g>
	<g>
		<g>
			<path style="fill:#1776D2;" d="M213.655,252.598c1.117-0.719,2.584-0.454,3.383,0.574c0.569-0.529,1.09-1.099,1.553-1.704
				c-1.103-0.696-1.509-2.131-0.899-3.314c0.606-1.177,2.009-1.68,3.216-1.19c0.222-0.739,0.386-1.492,0.489-2.254
				c-1.302-0.055-2.37-1.093-2.437-2.417c-0.063-1.329,0.902-2.465,2.194-2.644c-0.171-0.742-0.409-1.477-0.709-2.196
				c-1.15,0.606-2.597,0.24-3.315-0.878c-0.719-1.115-0.449-2.581,0.574-3.38c-0.529-0.57-1.099-1.091-1.703-1.554
				c-0.696,1.102-2.131,1.508-3.314,0.901c-1.178-0.609-1.682-2.011-1.189-3.218c-0.738-0.224-1.49-0.386-2.253-0.49
				c-0.056,1.304-1.097,2.372-2.42,2.435c-1.328,0.064-2.466-0.899-2.643-2.192c-0.742,0.172-1.476,0.409-2.195,0.708
				c0.604,1.152,0.238,2.597-0.879,3.315c-1.114,0.719-2.581,0.451-3.381-0.574c-0.569,0.531-1.09,1.102-1.554,1.705
				c1.102,0.693,1.511,2.129,0.9,3.312c-0.604,1.18-2.008,1.684-3.213,1.19c-0.226,0.741-0.388,1.491-0.489,2.256
				c1.301,0.053,2.367,1.093,2.432,2.418c0.064,1.327-0.9,2.464-2.193,2.643c0.174,0.741,0.41,1.476,0.709,2.194
				c1.152-0.603,2.598-0.238,3.314,0.878c0.72,1.116,0.453,2.585-0.574,3.382c0.53,0.568,1.101,1.09,1.704,1.554
				c0.697-1.103,2.132-1.51,3.313-0.901c1.179,0.607,1.685,2.01,1.194,3.217c0.736,0.221,1.488,0.387,2.254,0.488
				c0.053-1.3,1.092-2.369,2.415-2.434c1.329-0.062,2.467,0.902,2.644,2.194c0.742-0.171,1.476-0.409,2.195-0.71
				C212.174,254.759,212.539,253.317,213.655,252.598z M202.06,246.273c-1.891-2.939-1.041-6.855,1.897-8.747
				c2.939-1.892,6.854-1.042,8.747,1.897c1.892,2.94,1.042,6.854-1.897,8.747C207.866,250.062,203.952,249.213,202.06,246.273z"/>
			<path style="fill:#242D3C;" d="M200.828,247.066c-2.326-3.614-1.277-8.446,2.335-10.771c3.615-2.325,8.446-1.277,10.772,2.336
				c2.324,3.613,1.276,8.445-2.337,10.77C207.986,251.726,203.154,250.679,200.828,247.066z M211.474,240.216
				c-1.452-2.257-4.47-2.91-6.724-1.46c-2.256,1.453-2.911,4.471-1.459,6.727c1.451,2.256,4.469,2.908,6.724,1.457
				C212.271,245.488,212.926,242.472,211.474,240.216z"/>
		</g>
		<path style="fill:#FFFFFF;" d="M189.31,254.536l-0.026-0.042c-0.392-0.608-0.756-1.247-1.082-1.888l1.824-0.931
			c0.297,0.581,0.627,1.158,0.982,1.709l0.024,0.04L189.31,254.536z M190.585,256.304l1.601-1.279
			c0.408,0.511,0.849,1.008,1.308,1.476l-1.463,1.435C191.521,257.417,191.036,256.868,190.585,256.304z M193.634,259.413
			l1.308-1.578c0.504,0.418,1.035,0.815,1.579,1.18l-1.142,1.702C194.777,260.312,194.191,259.873,193.634,259.413z
			 M197.248,261.838l0.964-1.812c0.577,0.309,1.178,0.592,1.786,0.839l-0.776,1.898C198.55,262.488,197.888,262.179,197.248,261.838
			z M201.281,263.485l0.576-1.969c0.63,0.188,1.272,0.344,1.918,0.466l-0.379,2.014
			C202.686,263.862,201.971,263.689,201.281,263.485z M193.12,226.73c0.542-0.479,1.114-0.937,1.705-1.358l1.197,1.665
			c-0.535,0.383-1.056,0.795-1.545,1.229L193.12,226.73z M197.68,225.969l-1.025-1.775c0.63-0.363,1.281-0.695,1.941-0.993
			l0.839,1.87C198.838,225.338,198.246,225.642,197.68,225.969z M201.272,224.356l-0.644-1.944c0.688-0.229,1.396-0.425,2.104-0.582
			l0.44,2.004C202.535,223.975,201.896,224.149,201.272,224.356z M205.117,223.505l-0.238-2.034c0.72-0.083,1.451-0.131,2.176-0.143
			l0.03,2.05C206.43,223.387,205.768,223.431,205.117,223.505z M209.057,223.45l0.178-2.041c0.72,0.062,1.445,0.16,2.158,0.299
			l-0.383,2.012C210.365,223.598,209.708,223.507,209.057,223.45z M226.306,247.429c0.154-0.636,0.278-1.289,0.368-1.937
			l2.029,0.279c-0.098,0.714-0.235,1.437-0.405,2.14L226.306,247.429z M212.928,224.184l0.582-1.965
			c0.694,0.208,1.385,0.448,2.056,0.726l-0.777,1.895C214.184,224.593,213.555,224.37,212.928,224.184z M226.843,243.524
			c0.025-0.653,0.015-1.315-0.029-1.969l2.046-0.135c0.047,0.723,0.058,1.457,0.031,2.18L226.843,243.524z M216.573,225.679
			l0.963-1.808c0.64,0.343,1.269,0.717,1.869,1.124l-1.146,1.7C217.718,226.329,217.148,225.988,216.573,225.679z M226.583,239.596
			c-0.106-0.644-0.253-1.292-0.426-1.924l1.977-0.544c0.19,0.696,0.35,1.414,0.472,2.129L226.583,239.596z M219.839,227.877
			l1.311-1.575c0.558,0.465,1.097,0.961,1.603,1.479l-1.466,1.435C220.828,228.746,220.343,228.297,219.839,227.877z
			 M225.536,235.803c-0.237-0.61-0.51-1.215-0.808-1.799l1.823-0.934c0.331,0.645,0.634,1.313,0.896,1.986L225.536,235.803z
			 M222.592,230.692l1.602-1.276c0.451,0.563,0.878,1.155,1.271,1.767l-1.721,1.111C223.386,231.74,223.001,231.203,222.592,230.692
			z"/>
	</g>
</g>
<g>
	<g>
		<rect x="92.425" y="82.989" style="fill:#FFFFFF;" width="4.917" height="4.957"/>
		<rect x="82.594" y="82.989" style="fill:#FFFFFF;" width="4.916" height="4.957"/>
		<rect x="72.762" y="82.989" style="fill:#FFFFFF;" width="4.916" height="4.957"/>
	</g>
	<g>
		<rect x="236.97" y="98.588" style="fill:#FFFFFF;" width="4.916" height="4.958"/>
		<rect x="227.138" y="98.588" style="fill:#FFFFFF;" width="4.917" height="4.958"/>
		<rect x="217.309" y="98.588" style="fill:#FFFFFF;" width="4.914" height="4.958"/>
	</g>
	<g>
		<rect x="215.043" y="165.455" style="fill:#FFFFFF;" width="4.914" height="4.957"/>
		<rect x="205.21" y="165.455" style="fill:#FFFFFF;" width="4.917" height="4.957"/>
		<rect x="195.378" y="165.455" style="fill:#FFFFFF;" width="4.916" height="4.957"/>
	</g>
	<g>
		<rect x="88.319" y="176.779" style="fill:#FFFFFF;" width="4.916" height="4.958"/>
		<rect x="78.488" y="176.779" style="fill:#FFFFFF;" width="4.916" height="4.958"/>
		<rect x="68.656" y="176.779" style="fill:#FFFFFF;" width="4.916" height="4.958"/>
	</g>
	<g>
		<rect x="75.22" y="100.495" style="fill:#FFFFFF;" width="4.917" height="4.958"/>
		<rect x="65.389" y="100.495" style="fill:#FFFFFF;" width="4.916" height="4.958"/>
		<rect x="55.557" y="100.495" style="fill:#FFFFFF;" width="4.916" height="4.958"/>
		<rect x="45.726" y="100.495" style="fill:#FFFFFF;" width="4.916" height="4.958"/>
	</g>
	<g>
		<rect x="237.163" y="142.543" style="fill:#FFFFFF;" width="4.916" height="4.957"/>
		<rect x="227.332" y="142.543" style="fill:#FFFFFF;" width="4.916" height="4.957"/>
		<rect x="217.5" y="142.543" style="fill:#FFFFFF;" width="4.915" height="4.957"/>
		<rect x="207.668" y="142.543" style="fill:#FFFFFF;" width="4.915" height="4.957"/>
	</g>
	<g>
		<rect x="213.211" y="86.471" style="fill:#FFFFFF;" width="4.915" height="4.957"/>
		<rect x="203.379" y="86.471" style="fill:#FFFFFF;" width="4.917" height="4.957"/>
		<rect x="193.548" y="86.471" style="fill:#FFFFFF;" width="4.916" height="4.957"/>
		<rect x="183.715" y="86.471" style="fill:#FFFFFF;" width="4.916" height="4.957"/>
	</g>
	<g>
		<rect x="80.137" y="117.761" style="fill:#FFFFFF;" width="4.916" height="4.957"/>
		<rect x="70.304" y="117.761" style="fill:#FFFFFF;" width="4.916" height="4.957"/>
	</g>
	<g>
		<rect x="210.944" y="183.189" style="fill:#FFFFFF;" width="4.917" height="4.956"/>
		<rect x="201.113" y="183.189" style="fill:#FFFFFF;" width="4.917" height="4.956"/>
	</g>
	<g>
		<rect x="217.309" y="74.957" style="fill:#FFFFFF;" width="4.914" height="4.957"/>
		<rect x="207.477" y="74.957" style="fill:#FFFFFF;" width="4.915" height="4.957"/>
	</g>
	<g>
		<rect x="54.328" y="160.697" style="fill:#FFFFFF;" width="4.917" height="4.957"/>
		<rect x="44.497" y="160.697" style="fill:#FFFFFF;" width="4.916" height="4.957"/>
	</g>
</g>
<g>
	<rect x="59.02" y="208.238" style="fill-rule:evenodd;clip-rule:evenodd;fill:#242D3C;" width="45.678" height="5.378"/>
	<rect x="104.696" y="208.238" style="fill-rule:evenodd;clip-rule:evenodd;fill:#D9D8D7;" width="1.294" height="5.378"/>
	<path style="fill-rule:evenodd;clip-rule:evenodd;fill:#1776D2;" d="M105.991,208.237h0.95c1.485,0,2.688,1.204,2.688,2.688
		c0,1.486-1.202,2.691-2.688,2.691h-0.95V208.237z"/>
	<polygon style="fill:#D9D8D7;" points="59.02,208.238 55.58,210.035 55.58,211.823 59.02,213.616 	"/>
	<polygon style="fill:#242D3C;" points="55.58,210.035 53.86,210.933 55.58,211.823 	"/>
</g>
<g>
	<g>
		<path style="fill:#131A26;" d="M195.09,112.485c0-1.139-0.933-2.07-2.07-2.07H93.633c-1.14,0-2.071,0.931-2.071,2.07v68.328
			c0,1.138,0.931,2.07,2.071,2.07h99.386c1.138,0,2.07-0.933,2.07-2.07V112.485z"/>
		<rect x="94.461" y="113.315" style="fill:#242D3C;" width="97.73" height="66.67"/>
		<g>
			<rect x="104.4" y="108.345" style="fill:#131A26;" width="14.495" height="2.07"/>
			<rect x="167.757" y="108.345" style="fill:#131A26;" width="14.496" height="2.07"/>
		</g>
		<polygon style="fill:#131A26;" points="159.89,110.416 155.748,110.416 155.748,104.205 130.903,104.205 130.903,110.416 
			126.762,110.416 126.762,100.062 159.89,100.062 		"/>
	</g>
	<g>
		<g>
			
				<rect x="137.601" y="131.816" transform="matrix(0.7072 0.707 -0.707 0.7072 146.696 -55.8826)" style="fill:#E6E5E5;" width="6.427" height="34.696"/>
			<path style="fill:#CCCBCA;" d="M131.004,158.974c-0.405-0.403-0.405-1.065,0-1.47l18.151-18.153c0.406-0.406,1.069-0.406,1.473,0
				c0.403,0.404,0.403,1.065,0,1.472l-18.153,18.151C132.071,159.378,131.408,159.378,131.004,158.974z"/>
			<path style="fill:#FFFFFF;" d="M167.607,128.278l-6.345,6.349l-4.665-1.25l-1.246-4.664l6.343-6.349
				c-3.12-0.984-6.672-0.242-9.145,2.234c-3.546,3.543-3.546,9.287,0,12.832c3.544,3.541,9.284,3.539,12.827,0
				C167.854,134.951,168.597,131.403,167.607,128.278z"/>
			<path style="fill:#FFFFFF;" d="M129.34,160.635c-2.479-2.482-6.468-2.508-8.911-0.066c-2.439,2.439-2.409,6.427,0.074,8.908
				c2.479,2.483,6.467,2.506,8.907,0.067S131.816,163.121,129.34,160.635z M126.712,169.381l-1.79-0.676l-1.793,0.677l-0.79-1.743
				l-1.743-0.791l0.677-1.792l-0.674-1.788l1.739-0.794l0.79-1.74l1.793,0.675l1.791-0.675l0.789,1.74l1.739,0.794l-0.669,1.789
				l0.671,1.791l-1.744,0.788L126.712,169.381z"/>
		</g>
		<g>
			<path style="fill:#1776D2;" d="M146.671,156.023l13.021,13.021c0.771,0.773,1.836,1.25,3.016,1.248
				c1.178,0,2.24-0.475,3.013-1.248c0.769-0.77,1.247-1.839,1.247-3.013c0-1.18-0.476-2.243-1.247-3.015l-13.021-13.021
				L146.671,156.023z"/>
			<path style="fill:#1776D2;" d="M144.182,154.503c0.27,0.27,0.705,0.267,0.971,0.001l6.026-6.025
				c0.264-0.269,0.267-0.704-0.002-0.972l-0.415-0.415c-0.265-0.269-0.698-0.269-0.971,0l-6.022,6.028
				c-0.269,0.263-0.269,0.703-0.001,0.969L144.182,154.503z"/>
			
				<rect x="135.697" y="126.069" transform="matrix(-0.7067 0.7075 -0.7075 -0.7067 332.6732 142.3797)" style="fill:#FFFFFF;" width="2.253" height="28.159"/>
			<path style="fill:#FFFFFF;" d="M127.635,127.193c0.323,0.323,0.522,0.766,0.52,1.255c0.003,0.491-0.199,0.935-0.52,1.255
				l-1.254,1.258c-0.323,0.318-0.771,0.521-1.258,0.519c-0.49,0-0.933-0.202-1.256-0.517l-4.185-4.188l3.77-3.769L127.635,127.193z"
				/>
			<path style="fill:#1776D2;" d="M151.179,149.999c-0.42-0.421-0.42-1.102,0-1.521l-6.026,6.025c0.421-0.419,1.1-0.419,1.519,0.002
				c0.421,0.417,0.421,1.098,0,1.518l0,0l6.028-6.027l0,0C152.282,150.417,151.598,150.419,151.179,149.999z"/>
		</g>
	</g>
</g>
</svg>
