<?xml version="1.0" encoding="utf-8"?>
<!-- Generator: Adobe Illustrator 16.0.0, SVG Export Plug-In . SVG Version: 6.00 Build 0)  -->
<!DOCTYPE svg PUBLIC "-//W3C//DTD SVG 1.1//EN" "http://www.w3.org/Graphics/SVG/1.1/DTD/svg11.dtd">
<svg version="1.1" id="Calque_1" xmlns="http://www.w3.org/2000/svg" xmlns:xlink="http://www.w3.org/1999/xlink" x="0px" y="0px"
	 width="100px" height="100px" viewBox="0 0 100 100" enable-background="new 0 0 100 100" xml:space="preserve">
<g>
	<g>
		<g>
			<path fill="#131A26" d="M98.059,18.202c0-1.053-0.863-1.916-1.916-1.916H4.172c-1.054,0-1.916,0.863-1.916,1.916v63.229
				c0,1.053,0.862,1.916,1.916,1.916h91.971c1.053,0,1.916-0.863,1.916-1.916V18.202z"/>
			<rect x="4.939" y="18.969" fill="#242D3C" width="90.436" height="61.696"/>
			<g>
				<rect x="14.136" y="14.37" fill="#131A26" width="13.413" height="1.916"/>
				<rect x="72.766" y="14.37" fill="#131A26" width="13.414" height="1.916"/>
			</g>
			<polygon fill="#131A26" points="65.486,16.286 61.652,16.286 61.652,10.539 38.662,10.539 38.662,16.286 34.83,16.286 
				34.83,6.706 65.486,6.706 			"/>
		</g>
		<g>
			<g>
				
					<rect x="44.864" y="36.089" transform="matrix(-0.7072 -0.707 0.707 -0.7072 44.8021 122.8378)" fill="#E6E5E5" width="5.946" height="32.104"/>
				<path fill="#CCCBCA" d="M38.754,61.221c-0.374-0.373-0.374-0.986,0-1.361l16.797-16.796c0.376-0.376,0.99-0.376,1.362,0
					c0.374,0.374,0.374,0.985,0,1.361L40.116,61.221C39.743,61.594,39.129,61.594,38.754,61.221z"/>
				<path fill="#FFFFFF" d="M72.628,32.815l-5.874,5.875l-4.314-1.156l-1.154-4.316l5.869-5.875
					c-2.887-0.91-6.176-0.224-8.461,2.068c-3.281,3.278-3.283,8.594,0,11.874c3.277,3.276,8.592,3.275,11.871,0
					C72.855,38.991,73.542,35.708,72.628,32.815z"/>
				<path fill="#FFFFFF" d="M37.215,62.759c-2.294-2.298-5.985-2.323-8.247-0.063c-2.257,2.258-2.228,5.949,0.068,8.244
					c2.294,2.299,5.985,2.32,8.242,0.062C39.537,68.746,39.507,65.059,37.215,62.759z M34.784,70.852l-1.656-0.627l-1.659,0.627
					l-0.732-1.612l-1.612-0.732l0.626-1.657l-0.623-1.656l1.608-0.733l0.731-1.61l1.659,0.625l1.657-0.625l0.73,1.61l1.609,0.733
					l-0.62,1.656l0.623,1.656l-1.614,0.73L34.784,70.852z"/>
			</g>
			<g>
				<path fill="#FFC107" d="M53.253,58.491l12.049,12.05c0.714,0.715,1.699,1.156,2.79,1.154c1.09,0,2.075-0.439,2.79-1.154
					c0.711-0.712,1.154-1.701,1.154-2.789c0-1.091-0.44-2.075-1.154-2.789l-12.05-12.049L53.253,58.491z"/>
				<path fill="#FFC107" d="M50.949,57.083c0.249,0.25,0.652,0.247,0.898,0.002l5.576-5.578c0.244-0.248,0.246-0.649-0.001-0.897
					l-0.385-0.383c-0.246-0.248-0.647-0.248-0.897,0l-5.574,5.581c-0.248,0.242-0.248,0.647,0,0.896L50.949,57.083z"/>
				
					<rect x="43.094" y="30.771" transform="matrix(0.7069 -0.7073 0.7073 0.7069 -18.0443 44.0583)" fill="#FFFFFF" width="2.085" height="26.059"/>
				<path fill="#FFFFFF" d="M35.638,31.812c0.298,0.299,0.482,0.708,0.48,1.161c0.002,0.454-0.184,0.866-0.48,1.161l-1.161,1.164
					c-0.298,0.295-0.714,0.482-1.164,0.48c-0.455,0.001-0.863-0.186-1.163-0.478l-3.872-3.875l3.487-3.487L35.638,31.812z"/>
				<path fill="#EFAF0F" d="M57.424,52.916c-0.389-0.389-0.389-1.02,0-1.408l-5.576,5.578c0.389-0.389,1.018-0.389,1.405,0
					c0.39,0.387,0.39,1.018,0,1.405l0,0l5.578-5.577l0,0C58.443,53.303,57.812,53.303,57.424,52.916z"/>
			</g>
		</g>
	</g>
	<g>
		<path fill="#1776D2" d="M98,96.562v-10.5H2v10.5H98z M8.739,91.312c0,1.07-0.869,1.94-1.94,1.94c-1.07,0-1.94-0.87-1.94-1.94
			c0-1.069,0.87-1.939,1.94-1.939C7.87,89.373,8.739,90.242,8.739,91.312z"/>
		<path fill="#1770BA" d="M2,91.312h2.858c0.001,1.07,0.87,1.94,1.94,1.94c1.071,0,1.939-0.87,1.94-1.94H98v5.252H2V91.312z"/>
		<g>
			<rect x="95.387" y="86.062" fill="#FFFFFF" width="0.43" height="1.437"/>
			<rect x="92.986" y="86.062" fill="#FFFFFF" width="0.432" height="1.437"/>
			<rect x="90.584" y="86.062" fill="#FFFFFF" width="0.43" height="1.437"/>
			<rect x="88.186" y="86.062" fill="#FFFFFF" width="0.43" height="1.437"/>
			<rect x="85.785" y="86.062" fill="#FFFFFF" width="0.43" height="1.437"/>
			<rect x="83.387" y="86.062" fill="#FFFFFF" width="0.43" height="1.437"/>
			<rect x="80.986" y="86.062" fill="#FFFFFF" width="0.429" height="1.437"/>
			<rect x="78.584" y="86.062" fill="#FFFFFF" width="0.43" height="1.437"/>
			<rect x="76.184" y="86.062" fill="#FFFFFF" width="0.43" height="1.437"/>
			<rect x="73.786" y="86.062" fill="#FFFFFF" width="0.428" height="1.437"/>
			<rect x="71.387" y="86.062" fill="#FFFFFF" width="0.43" height="1.437"/>
			<rect x="68.986" y="86.062" fill="#FFFFFF" width="0.429" height="1.437"/>
			<rect x="66.585" y="86.062" fill="#FFFFFF" width="0.429" height="1.437"/>
			<rect x="64.186" y="86.062" fill="#FFFFFF" width="0.43" height="1.437"/>
			<rect x="61.785" y="86.062" fill="#FFFFFF" width="0.43" height="1.437"/>
			<rect x="59.387" y="86.062" fill="#FFFFFF" width="0.43" height="1.437"/>
			<rect x="56.986" y="86.062" fill="#FFFFFF" width="0.431" height="1.437"/>
			<rect x="54.584" y="86.062" fill="#FFFFFF" width="0.43" height="1.437"/>
			<rect x="52.186" y="86.062" fill="#FFFFFF" width="0.43" height="1.437"/>
			<rect x="49.785" y="86.062" fill="#FFFFFF" width="0.43" height="1.437"/>
			<rect x="47.386" y="86.062" fill="#FFFFFF" width="0.431" height="1.437"/>
			<rect x="44.985" y="86.062" fill="#FFFFFF" width="0.43" height="1.437"/>
			<rect x="42.587" y="86.062" fill="#FFFFFF" width="0.43" height="1.437"/>
			<rect x="40.185" y="86.062" fill="#FFFFFF" width="0.431" height="1.437"/>
			<rect x="37.785" y="86.062" fill="#FFFFFF" width="0.43" height="1.437"/>
			<rect x="35.386" y="86.062" fill="#FFFFFF" width="0.43" height="1.437"/>
			<rect x="32.985" y="86.062" fill="#FFFFFF" width="0.431" height="1.437"/>
			<rect x="30.586" y="86.062" fill="#FFFFFF" width="0.43" height="1.437"/>
			<rect x="28.185" y="86.062" fill="#FFFFFF" width="0.431" height="1.437"/>
			<rect x="25.786" y="86.062" fill="#FFFFFF" width="0.43" height="1.437"/>
			<rect x="23.386" y="86.062" fill="#FFFFFF" width="0.43" height="1.437"/>
			<rect x="20.986" y="86.062" fill="#FFFFFF" width="0.429" height="1.437"/>
			<rect x="18.587" y="86.062" fill="#FFFFFF" width="0.429" height="1.437"/>
			<rect x="16.185" y="86.062" fill="#FFFFFF" width="0.431" height="1.437"/>
			<rect x="13.787" y="86.062" fill="#FFFFFF" width="0.429" height="1.437"/>
			<rect x="11.387" y="86.062" fill="#FFFFFF" width="0.43" height="1.437"/>
			<rect x="8.985" y="86.062" fill="#FFFFFF" width="0.431" height="1.437"/>
			<rect x="6.587" y="86.062" fill="#FFFFFF" width="0.429" height="1.437"/>
			<rect x="4.186" y="86.062" fill="#FFFFFF" width="0.428" height="1.437"/>
		</g>
	</g>
</g>
</svg>
