<?xml version="1.0" encoding="iso-8859-1"?>
<!-- Generator: Adobe Illustrator 16.0.0, SVG Export Plug-In . SVG Version: 6.00 Build 0)  -->
<!DOCTYPE svg PUBLIC "-//W3C//DTD SVG 1.1//EN" "http://www.w3.org/Graphics/SVG/1.1/DTD/svg11.dtd">
<svg version="1.1" id="Calque_1" xmlns="http://www.w3.org/2000/svg" xmlns:xlink="http://www.w3.org/1999/xlink" x="0px" y="0px"
	 width="100px" height="100px" viewBox="0 0 100 100" style="enable-background:new 0 0 100 100;" xml:space="preserve">
<g>
	<g>
		<circle style="fill:#D9D8D7;" cx="17.854" cy="66.522" r="1.472"/>
		<circle style="fill:#FFC107;" cx="80.303" cy="62.754" r="2.576"/>
		<circle style="fill:#FFC107;" cx="22.715" cy="74.724" r="3.68"/>
		<path style="fill:#FFC107;" d="M12.946,13.75c0-2.031,1.651-3.68,3.68-3.68c2.034,0,3.68,1.649,3.68,3.68
			c0,2.031-1.646,3.679-3.68,3.679C14.597,17.429,12.946,15.781,12.946,13.75z"/>
		<circle style="fill:#D9D8D7;" cx="72.034" cy="8.717" r="1.957"/>
	</g>
	<g>
		<g>
			<g>
				<g>
					<path style="fill:#242D3C;" d="M48.202,17.038h2.663V19.5h-2.663V17.038z M48.202,21.965h2.663v2.464h-2.663V21.965z
						 M48.202,26.895h2.663v2.462h-2.663V26.895z"/>
				</g>
				<path style="fill:#D9D8D7;" d="M42.139,7.78c0-4.083,3.314-7.393,7.395-7.393s7.393,3.309,7.393,7.393
					c0,4.082-3.312,7.393-7.393,7.393S42.139,11.862,42.139,7.78z"/>
			</g>
			<g>
				<g>
					<path style="fill:#242D3C;" d="M64.885,27.944l1.884,1.881l-1.641,1.645l-1.882-1.882L64.885,27.944z M61.605,31.231
						l1.875,1.881l-1.639,1.644l-1.883-1.882L61.605,31.231z"/>
				</g>
				<path style="fill:#D9D8D7;" d="M67.111,20.287c2.018-2.021,5.295-2.021,7.313,0.002c2.026,2.019,2.026,5.296,0,7.318
					c-2.018,2.02-5.295,2.02-7.313,0C65.085,25.585,65.085,22.308,67.111,20.287z"/>
			</g>
			<g>
				<g>
					<path style="fill:#242D3C;" d="M34.182,27.944l1.64,1.643l-1.883,1.882l-1.641-1.645L34.182,27.944z M37.462,31.231
						l1.646,1.642l-1.883,1.882l-1.64-1.644L37.462,31.231z"/>
				</g>
				<path style="fill:#D9D8D7;" d="M24.642,27.607c-2.026-2.021-2.026-5.299,0-7.318c2.02-2.023,5.296-2.023,7.313,0
					c2.027,2.021,2.027,5.296,0,7.318C29.938,29.627,26.662,29.627,24.642,27.607z"/>
			</g>
			<g>
				<g>
					<path style="fill:#242D3C;" d="M21.388,43.85h2.461v2.663h-2.461V43.85z M26.318,43.85h2.467v2.663h-2.467V43.85z
						 M31.243,43.85h2.467v2.663h-2.467V43.85z"/>
				</g>
				<circle style="fill:#D9D8D7;" cx="12.13" cy="45.181" r="7.393"/>
			</g>
			<g>
				<g>
					<path style="fill:#242D3C;" d="M65.359,43.851h2.466v2.662h-2.466V43.851z M70.283,43.851h2.467v2.662h-2.467V43.851z
						 M75.217,43.851h2.461v2.662h-2.461V43.851z"/>
				</g>
				<path style="fill:#D9D8D7;" d="M86.934,37.789c4.081,0,7.395,3.31,7.395,7.392c0,4.083-3.313,7.393-7.395,7.393
					s-7.395-3.31-7.395-7.393C79.539,41.099,82.853,37.789,86.934,37.789z"/>
			</g>
		</g>
		<path style="fill:#1776D2;" d="M35.838,45.171c0-7.562,6.116-13.688,13.696-13.688c7.562,0,13.692,6.126,13.692,13.688
			c0,7.568-6.13,13.708-13.692,13.708C41.954,58.88,35.838,52.739,35.838,45.171z"/>
		<path style="fill:#FFC107;" d="M43.88,45.175c0-3.12,2.525-5.649,5.653-5.649c3.12,0,5.65,2.529,5.65,5.649
			c0,3.125-2.53,5.661-5.65,5.661C46.406,50.836,43.88,48.3,43.88,45.175z"/>
		<g>
			<path style="fill:#E6E5E5;" d="M71.095,59.823c-0.628-0.627-1.451-0.943-2.272-0.943c-0.824,0-1.646,0.315-2.271,0.943
				c-0.631,0.625-0.944,1.449-0.944,2.272v0.002c0-0.826-0.317-1.647-0.943-2.274c-0.625-0.627-1.447-0.943-2.271-0.943
				c-0.822,0-1.646,0.315-2.272,0.943c-0.628,0.627-0.945,1.449-0.945,2.274v-0.003c0-0.824-0.311-1.647-0.938-2.273
				c-0.627-0.625-1.449-0.941-2.271-0.941c-0.823,0-1.646,0.315-2.275,0.941c-0.627,0.625-0.942,1.449-0.942,2.273V45.181
				c0-0.82-0.315-1.646-0.944-2.272c-0.626-0.626-1.448-0.94-2.271-0.94c-0.822,0-1.645,0.314-2.271,0.94
				c-0.628,0.626-0.942,1.452-0.942,2.272v42.738h6.429h6.427h6.432h6.427V62.095C72.034,61.271,71.722,60.448,71.095,59.823z"/>
			<path style="fill:#E6E5E5;" d="M36.555,71.726c-1.776,0-3.213,1.438-3.213,3.214c0,1.774,1.438,3.216,3.213,3.216
				c5.383,0,9.765,4.379,9.765,9.763h6.43C52.75,78.992,45.484,71.726,36.555,71.726z"/>
			<rect x="44.892" y="87.919" style="fill:#242D3C;" width="28.571" height="11.603"/>
		</g>
		<g>
			<rect x="48.99" y="35.421" style="fill:#FFFFFF;" width="1.087" height="2.609"/>
			
				<rect x="53.218" y="36.556" transform="matrix(0.8659 0.5003 -0.5003 0.8659 26.1526 -21.8177)" style="fill:#FFFFFF;" width="1.087" height="2.608"/>
			
				<rect x="56.312" y="39.651" transform="matrix(0.4996 0.8662 -0.8662 0.4996 63.9271 -28.7576)" style="fill:#FFFFFF;" width="1.087" height="2.609"/>
			<rect x="56.683" y="44.641" style="fill:#FFFFFF;" width="2.609" height="1.087"/>
			
				<rect x="55.549" y="48.868" transform="matrix(0.8661 0.4999 -0.4999 0.8661 32.3163 -21.8046)" style="fill:#FFFFFF;" width="2.61" height="1.087"/>
			
				<rect x="44.001" y="37.314" transform="matrix(0.5 0.866 -0.866 0.5 55.4382 -20.3074)" style="fill:#FFFFFF;" width="2.609" height="1.087"/>
			
				<rect x="40.905" y="40.408" transform="matrix(0.866 0.5001 -0.5001 0.866 26.1365 -15.62)" style="fill:#FFFFFF;" width="2.609" height="1.087"/>
			<rect x="39.772" y="44.636" style="fill:#FFFFFF;" width="2.608" height="1.087"/>
			
				<rect x="41.665" y="48.104" transform="matrix(0.5002 0.8659 -0.8659 0.5002 63.8818 -11.8533)" style="fill:#FFFFFF;" width="1.087" height="2.608"/>
		</g>
	</g>
</g>
</svg>
