<?xml version="1.0" encoding="iso-8859-1"?>
<!-- Generator: Adobe Illustrator 16.0.0, SVG Export Plug-In . SVG Version: 6.00 Build 0)  -->
<!DOCTYPE svg PUBLIC "-//W3C//DTD SVG 1.1//EN" "http://www.w3.org/Graphics/SVG/1.1/DTD/svg11.dtd">
<svg version="1.1" id="Calque_1" xmlns="http://www.w3.org/2000/svg" xmlns:xlink="http://www.w3.org/1999/xlink" x="0px" y="0px"
	 width="282px" height="282px" viewBox="0 0 282 282" style="enable-background:new 0 0 282 282;" xml:space="preserve">
<circle style="fill:#FFC107;" cx="140.727" cy="140.728" r="139.522"/>
<g>
	<g>
		<g>
			<polygon style="fill:#D9D8D7;" points="168.781,229.897 118.873,229.897 123.402,204.451 164.238,204.451 			"/>
			<polygon style="fill:#CCCBCA;" points="168.781,229.897 164.238,204.451 123.402,204.451 156.062,229.897 			"/>
			<path style="fill:#E6E5E5;" d="M182.132,233.634H105.51v-1.402c0-0.592,0.218-1.191,0.68-1.654c0.46-0.451,1.066-0.68,1.648-0.68
				h71.96c0.588,0,1.202,0.229,1.662,0.68c0.44,0.463,0.672,1.062,0.672,1.654V233.634z"/>
		</g>
		<path style="fill:#E6E5E5;" d="M233.689,188.001v12.084c0,2.405-1.978,4.366-4.395,4.366H58.354c-2.393,0-4.377-1.961-4.377-4.366
			v-12.084H233.689z"/>
		<path style="fill:#242D3C;" d="M233.689,188.001V73.26c0-2.396-1.974-4.377-4.396-4.377H58.347c-2.399,0-4.362,1.981-4.362,4.377
			v114.741H233.689z"/>
		<rect x="63.042" y="77.961" style="fill:#FFFFFF;" width="161.554" height="100.954"/>
		<g>
			<rect x="73.157" y="165.305" style="fill:#CCCBCA;" width="3.495" height="3.495"/>
			<path style="fill:#CCCBCA;" d="M76.652,161.794h-3.495v-3.512h3.495V161.794z M76.652,154.771h-3.495v-3.51h3.495V154.771z
				 M76.652,147.749h-3.495v-3.511h3.495V147.749z M76.652,140.728h-3.495v-3.511h3.495V140.728z M76.652,133.705h-3.495v-3.511
				h3.495V133.705z M76.652,126.683h-3.495v-3.512h3.495V126.683z M76.652,119.661h-3.495v-3.511h3.495V119.661z M76.652,112.638
				h-3.495v-3.511h3.495V112.638z M76.652,105.616h-3.495v-3.511h3.495V105.616z M76.652,98.594h-3.495v-3.511h3.495V98.594z"/>
			<rect x="73.157" y="88.077" style="fill:#CCCBCA;" width="3.495" height="3.495"/>
			<path style="fill:#CCCBCA;" d="M207.542,91.571h-3.444v-3.495h3.444V91.571z M200.653,91.571h-3.444v-3.495h3.444V91.571z
				 M193.765,91.571h-3.444v-3.495h3.444V91.571z M186.876,91.571h-3.445v-3.495h3.445V91.571z M179.986,91.571h-3.444v-3.495h3.444
				V91.571z M173.098,91.571h-3.444v-3.495h3.444V91.571z M166.209,91.571h-3.444v-3.495h3.444V91.571z M159.32,91.571h-3.445
				v-3.495h3.445V91.571z M152.431,91.571h-3.444v-3.495h3.444V91.571z M145.542,91.571h-3.444v-3.495h3.444V91.571z
				 M138.653,91.571h-3.445v-3.495h3.445V91.571z M131.764,91.571h-3.444v-3.495h3.444V91.571z M124.875,91.571h-3.444v-3.495h3.444
				V91.571z M117.986,91.571h-3.444v-3.495h3.444V91.571z M111.097,91.571h-3.444v-3.495h3.444V91.571z M104.208,91.571h-3.445
				v-3.495h3.445V91.571z M97.319,91.571h-3.444v-3.495h3.444V91.571z M90.431,91.571h-3.445v-3.495h3.445V91.571z M83.542,91.571
				h-3.445v-3.495h3.445V91.571z"/>
			<rect x="210.986" y="88.077" style="fill:#CCCBCA;" width="3.495" height="3.495"/>
			<path style="fill:#CCCBCA;" d="M214.481,161.793h-3.495v-3.512h3.495V161.793z M214.481,154.771h-3.495v-3.511h3.495V154.771z
				 M214.481,147.748h-3.495v-3.51h3.495V147.748z M214.481,140.727h-3.495v-3.511h3.495V140.727z M214.481,133.705h-3.495v-3.512
				h3.495V133.705z M214.481,126.683h-3.495v-3.511h3.495V126.683z M214.481,119.66h-3.495v-3.511h3.495V119.66z M214.481,112.638
				h-3.495v-3.511h3.495V112.638z M214.481,105.616h-3.495v-3.511h3.495V105.616z M214.481,98.593h-3.495v-3.511h3.495V98.593z"/>
			<rect x="210.986" y="165.305" style="fill:#CCCBCA;" width="3.495" height="3.495"/>
			<path style="fill:#CCCBCA;" d="M207.541,168.8h-3.444v-3.495h3.444V168.8z M200.652,168.8h-3.444v-3.495h3.444V168.8z
				 M193.764,168.8h-3.444v-3.495h3.444V168.8z M186.875,168.8h-3.445v-3.495h3.445V168.8z M179.985,168.8h-3.444v-3.495h3.444
				V168.8z M173.097,168.8h-3.444v-3.495h3.444V168.8z M166.208,168.8h-3.444v-3.495h3.444V168.8z M159.319,168.8h-3.444v-3.495
				h3.444V168.8z M152.431,168.8h-3.445v-3.495h3.445V168.8z M145.541,168.8h-3.444v-3.495h3.444V168.8z M138.652,168.8h-3.445
				v-3.495h3.445V168.8z M131.764,168.8h-3.444v-3.495h3.444V168.8z M124.874,168.8h-3.444v-3.495h3.444V168.8z M117.985,168.8
				h-3.444v-3.495h3.444V168.8z M111.096,168.8h-3.444v-3.495h3.444V168.8z M104.208,168.8h-3.444v-3.495h3.444V168.8z
				 M97.319,168.8h-3.445v-3.495h3.445V168.8z M90.43,168.8h-3.445v-3.495h3.445V168.8z M83.542,168.8h-3.445v-3.495h3.445V168.8z"
				/>
		</g>
	</g>
	<g>
		<g>
			<path style="fill:#242D3C;" d="M169.035,149.185c0,3.804-3.11,6.915-6.915,6.915h-61.612c-3.799,0-6.917-3.111-6.917-6.915
				V53.616c0-3.805,3.118-6.917,6.917-6.917h61.612c3.805,0,6.915,3.111,6.915,6.917V149.185z"/>
			<path style="fill:#3E4959;" d="M131.306,56.352c-1.519,0-2.724-1.212-2.724-2.74c0-1.492,1.205-2.733,2.724-2.733
				c1.509,0,2.748,1.241,2.748,2.733C134.053,55.14,132.814,56.352,131.306,56.352z"/>
			<path style="fill:#FFFFFF;" d="M131.312,54.573c-0.529,0-0.952-0.424-0.952-0.958c0-0.524,0.423-0.956,0.952-0.956
				c0.531,0,0.96,0.432,0.96,0.956C132.273,54.148,131.843,54.573,131.312,54.573z"/>
			<rect x="99.883" y="60.531" style="fill:#FFFFFF;" width="62.877" height="81.736"/>
			<path style="fill:#3E4959;" d="M140.122,149.185c0-1.209-0.993-2.202-2.2-2.202h-13.209c-1.208,0-2.201,0.993-2.201,2.202l0,0
				c0,1.207,0.993,2.201,2.201,2.201h13.209C139.129,151.386,140.122,150.392,140.122,149.185L140.122,149.185z"/>
		</g>
		<g>
			<rect x="104.969" y="65.617" style="fill:#1776D2;" width="24.565" height="12.344"/>
			<rect x="133.1" y="65.617" style="fill:#1776D2;" width="24.566" height="12.344"/>
			<rect x="104.969" y="83.252" style="fill:#1776D2;" width="24.565" height="24.319"/>
			<rect x="133.1" y="83.252" style="fill:#1776D2;" width="24.566" height="24.319"/>
			<rect x="104.969" y="112.863" style="fill:#1776D2;" width="52.697" height="24.319"/>
		</g>
	</g>
	<g>
		<g>
			<path style="fill:#242D3C;" d="M189.046,96.665h-29.199c-2.761,0-5.027,2.262-5.027,5.031v62.079
				c0,2.766,2.267,5.026,5.027,5.026h29.199c2.763,0,5.021-2.261,5.021-5.026v-62.079C194.066,98.926,191.809,96.665,189.046,96.665
				z"/>
			<rect x="157.666" y="107.571" style="fill:#FFFFFF;" width="33.568" height="50.326"/>
			<path style="fill:#3E4959;" d="M171.343,164.908c-0.754,0-1.358-0.613-1.358-1.355v-0.408c0-0.744,0.604-1.353,1.358-1.353h6.22
				c0.736,0,1.341,0.608,1.341,1.353v0.408c0,0.742-0.604,1.355-1.341,1.355H171.343z"/>
			<path style="fill:#3E4959;" d="M175.71,102.117c0,0.697-0.552,1.264-1.252,1.264c-0.702,0-1.274-0.566-1.274-1.264
				c0-0.697,0.572-1.271,1.274-1.271C175.158,100.846,175.71,101.42,175.71,102.117z"/>
			<path style="fill:#242D3C;" d="M174.954,102.117c0,0.275-0.226,0.502-0.496,0.502c-0.292,0-0.521-0.227-0.521-0.502
				c0-0.278,0.229-0.509,0.521-0.509C174.729,101.607,174.954,101.839,174.954,102.117z"/>
		</g>
		<g>
			<rect x="160.207" y="110.116" style="fill:#1776D2;" width="28.471" height="8.482"/>
			<rect x="160.207" y="121.149" style="fill:#1776D2;" width="28.471" height="15.825"/>
			<rect x="160.207" y="139.525" style="fill:#1776D2;" width="28.471" height="15.828"/>
		</g>
	</g>
</g>
<g>
	<g>
		<path style="fill:#F2F1F0;" d="M262.225,160.02c-6.191,0-11.207,5.019-11.207,11.209h22.414
			C273.432,165.038,268.418,160.02,262.225,160.02z"/>
		<path style="fill:#F2F1F0;" d="M244.446,164.658c-3.627,0-6.569,2.943-6.569,6.57h13.141
			C251.018,167.602,248.073,164.658,244.446,164.658z"/>
	</g>
	<g>
		<path style="fill:#F2F1F0;" d="M28.604,97.947c7.488,0,13.554,6.067,13.554,13.553H15.054
			C15.054,104.015,21.119,97.947,28.604,97.947z"/>
		<path style="fill:#F2F1F0;" d="M46.407,107.253c2.341,0,4.246,1.898,4.246,4.247h-8.494
			C42.159,109.152,44.057,107.253,46.407,107.253z"/>
	</g>
	<g>
		<path style="fill:#F2F1F0;" d="M181.458,15.183c-9.016,0-16.321,7.304-16.321,16.317h32.631
			C197.768,22.487,190.466,15.183,181.458,15.183z"/>
		<path style="fill:#F2F1F0;" d="M155.171,21.528c-5.511,0-9.978,4.464-9.978,9.972h19.943
			C165.137,25.992,160.674,21.528,155.171,21.528z"/>
		<path style="fill:#F2F1F0;" d="M202.904,26.361c-2.836,0-5.137,2.3-5.137,5.139h10.271
			C208.039,28.662,205.744,26.361,202.904,26.361z"/>
	</g>
</g>
<g>
	<path style="fill:#F2F1F0;" d="M206.104,48.644c0,3.561-2.896,6.457-6.454,6.457c-3.571,0-6.479-2.896-6.479-6.457
		c0-3.579,2.907-6.476,6.479-6.476C203.208,42.167,206.104,45.065,206.104,48.644z"/>
	<path style="fill:#1776D2;" d="M43.625,165.963c0,4.259-3.46,7.737-7.738,7.737c-4.28,0-7.748-3.479-7.748-7.737
		c0-4.282,3.468-7.747,7.748-7.747C40.165,158.216,43.625,161.681,43.625,165.963z"/>
	<path style="fill:#1776D2;" d="M127.084,25.993c0,1.987-1.593,3.601-3.576,3.601c-1.993,0-3.592-1.613-3.592-3.601
		c0-1.968,1.599-3.587,3.592-3.587C125.491,22.406,127.084,24.025,127.084,25.993z"/>
	<path style="fill:#F2F1F0;" d="M26.511,140.026c0,2.841-2.307,5.152-5.173,5.152c-2.841,0-5.146-2.312-5.146-5.152
		c0-2.86,2.305-5.172,5.146-5.172C24.204,134.854,26.511,137.166,26.511,140.026z"/>
	<path style="fill:#F2F1F0;" d="M40.928,222.717c0,1.448-1.149,2.597-2.569,2.597c-1.444,0-2.605-1.148-2.605-2.597
		c0-1.413,1.161-2.573,2.605-2.573C39.778,220.144,40.928,221.304,40.928,222.717z"/>
	<path style="fill:#1776D2;" d="M259.877,107c0,1.468-1.204,2.675-2.67,2.675c-1.496,0-2.707-1.208-2.707-2.675
		c0-1.503,1.211-2.708,2.707-2.708C258.673,104.292,259.877,105.497,259.877,107z"/>
	<path style="fill:#F2F1F0;" d="M255.305,210.491c0,2.102-1.689,3.814-3.813,3.814c-2.097,0-3.796-1.713-3.796-3.814
		c0-2.1,1.699-3.797,3.796-3.797C253.615,206.694,255.305,208.392,255.305,210.491z"/>
	<path style="fill:#1776D2;" d="M216.085,236.486c0,1.446-1.155,2.594-2.585,2.594c-1.435,0-2.586-1.147-2.586-2.594
		c0-1.419,1.151-2.567,2.586-2.567C214.93,233.919,216.085,235.067,216.085,236.486z"/>
</g>
</svg>
