<?xml version="1.0" encoding="iso-8859-1"?>
<!-- Generator: Adobe Illustrator 16.0.0, SVG Export Plug-In . SVG Version: 6.00 Build 0)  -->
<!DOCTYPE svg PUBLIC "-//W3C//DTD SVG 1.1//EN" "http://www.w3.org/Graphics/SVG/1.1/DTD/svg11.dtd">
<svg version="1.1" id="Calque_1" xmlns="http://www.w3.org/2000/svg" xmlns:xlink="http://www.w3.org/1999/xlink" x="0px" y="0px"
	 width="412px" height="473px" viewBox="0 0 412 473" style="enable-background:new 0 0 412 473;" xml:space="preserve">
<path style="fill:#FFFFFF;" d="M150.305,124.962c19.272,1.313,30.532,3.459,44.104,10.709c1.454,0.796,3.673,0.192,5.543,0.122
	c8.931-0.35,17.845-0.7,26.784-1.086c2.558-0.114,5.524,0.49,7.629-0.578c22.878-11.646,47.361-14.64,72.517-13.694
	c12.759,0.477,25.499,1.497,38.161,3.029c9.114,1.09,12.391,11.461,7.021,19.124c-2.26,3.252-3.551,7.377-4.649,11.294
	c-3.406,12.247-5.841,24.824-9.969,36.829c-4.085,11.864-12.945,19.636-25.259,23.16c-23.379,6.699-45.33,4.186-65.319-10.297
	c-10.813-7.833-15.351-19.5-18.445-31.864c-0.678-2.771-1.08-5.622-1.541-8.441c-1.392-8.494-4.759-11.751-12.263-11.795
	c-7.881-0.043-11.737,4.059-13.914,12.119c-3.039,11.168-5.582,22.889-11.068,32.871c-9.956,18.117-28.208,23.817-47.437,25.349
	c-18.445,1.489-35.479-2.592-48.443-17.389c-9.614-10.972-12.338-24.461-14.903-38.178c-1.038-5.665-3.381-11.076-5.219-16.593
	c-2.934-8.878-3.284-16.75,8.55-19.868C104.912,123.828,131.032,123.64,150.305,124.962z M110.394,140.098
	c-8.328,1.554-13.406,8.134-15.7,16.317c-4.895,17.354,5.482,40.943,21.492,49.192c19.172,9.881,48.238,3.468,61.009-13.957
	c8.8-11.975,9.649-25.481,4.059-38.917c-4.978-11.956-16.063-15.188-27.704-15.792C139.127,136.196,123.476,137.632,110.394,140.098
	z M332.389,164.57c0-0.573,0.168-2.333,0.141-4.094c-0.268-17.004-8.801-26.942-25.752-28.334
	c-9.815-0.801-19.775,0.104-29.657,0.442c-3.067,0.104-6.119,0.74-9.142,1.344c-23.922,4.881-34.073,28.703-21.08,49.771
	c9.927,16.112,25.449,21.803,43.312,21.628C314.132,205.098,330.199,189.565,332.389,164.57z"/>
<path style="fill:#FFFFFF;" d="M3.845,69.492c0.061-29.369,20.607-56.267,48.032-62.87c30.384-7.303,61.201,6.169,74.445,32.556
	c5.822,11.619,3.362,18.082-8.862,22.441c-8.476,3.039-17.083,5.674-25.629,8.538c-18.755,6.287-32.844,19.097-46.119,33.055
	c-2.25,2.381-4.711,4.614-7.258,6.689c-9.51,7.706-16.295,6.786-23.099-3.2C7.728,95.502,3.906,83.072,3.845,69.492z"/>
<path style="fill:#FFFFFF;" d="M340.484,4.565c26.312,0.832,46.156,12.258,57.926,35.367c11.615,22.792,9.554,45.527-4.448,66.936
	c-6.366,9.768-13.729,10.915-22.578,3.28c-7.64-6.603-14.616-13.949-21.981-20.862c-10.264-9.645-22.311-16.195-35.752-20.371
	c-7.327-2.285-14.633-4.702-21.863-7.338c-11.928-4.356-14.684-10.705-8.712-21.969C295.281,16.556,314.956,5.397,340.484,4.565z"/>
<path style="fill:#FFFFFF;" d="M202.719,408.066c-7.881,8.476-9.938,17.469-5.761,27.821c0.49,1.214-0.92,4.278-2.268,5.019
	c-13.914,7.789-28.457,13.761-44.709,14.382c-4.903,0.201-7.762-1.606-8.892-6.663c-3.998-17.767-3.463-35.457,1.112-52.918
	c3.231-12.333,8.831-15.438,21.142-12.092C178.705,387.801,191.607,396.127,202.719,408.066z"/>
<path style="fill:#FFFFFF;" d="M229.285,441.234c7.334-9.466,8.439-18.317,2.66-27.842c-0.707-1.177-0.008-4.529,1.1-5.301
	c13.025-8.958,27.069-15.534,43.182-16.103c8.879-0.307,13.56,3.028,14.789,11.583c2.771,19.247,1.262,38.139-6.322,56.295
	c-1.618,3.878-4.176,6.331-8.598,5.484C258.348,461.979,243.549,452.968,229.285,441.234z"/>
<path style="fill:#FFFFFF;" d="M239.95,229.489c12.293,2.071,16.604,12.954,9.407,23.233c-2.192,3.127-5.293,6.094-8.655,7.803
	c-15.313,7.774-31.329,7.906-47.379,2.531c-8.143-2.697-12.897-8.68-14.351-17.33c-1.515-8.966,0.771-13.699,9.807-15.454
	C197.771,228.547,232.2,228.202,239.95,229.489z"/>
<path style="fill:#FFFFFF;" d="M231.74,309.252c17.921,1.647,12.242,12.059-0.783,13.498c-10.46,0.71-21.036,0.754-31.482-0.062
	c-23.628-2.797-10.117-13.129-0.312-13.877C208.971,308.062,226.413,307.562,231.74,309.252z"/>
<path style="fill:#FFFFFF;" d="M236.702,424.492c0,11.61-9.405,21.029-21.021,21.029c-11.617,0-21.02-9.419-21.02-21.029
	c0-11.613,9.404-21.031,21.02-21.031C227.296,403.461,236.702,412.879,236.702,424.492z"/>
</svg>
