<?xml version="1.0" encoding="iso-8859-1"?>
<!-- Generator: Adobe Illustrator 16.0.0, SVG Export Plug-In . SVG Version: 6.00 Build 0)  -->
<!DOCTYPE svg PUBLIC "-//W3C//DTD SVG 1.1//EN" "http://www.w3.org/Graphics/SVG/1.1/DTD/svg11.dtd">
<svg version="1.1" id="Calque_1" xmlns="http://www.w3.org/2000/svg" xmlns:xlink="http://www.w3.org/1999/xlink" x="0px" y="0px"
	 width="116.25px" height="71px" viewBox="0 0 116.25 71" style="enable-background:new 0 0 116.25 71;" xml:space="preserve">
<g>
	<path style="fill:#1D1D1D;" d="M52.538,14.946c2.205,0.15,3.494,0.396,5.046,1.226c0.166,0.091,0.42,0.022,0.634,0.014
		c1.021-0.04,2.042-0.08,3.064-0.124c0.292-0.013,0.632,0.056,0.872-0.066c2.619-1.333,5.42-1.675,8.298-1.567
		c1.459,0.054,2.917,0.171,4.366,0.346c1.041,0.125,1.416,1.312,0.803,2.188c-0.26,0.372-0.406,0.844-0.532,1.292
		c-0.39,1.401-0.668,2.84-1.141,4.213c-0.468,1.358-1.481,2.247-2.89,2.65c-2.675,0.767-5.187,0.479-7.474-1.178
		c-1.237-0.896-1.756-2.231-2.11-3.646c-0.078-0.317-0.123-0.643-0.177-0.965c-0.159-0.972-0.544-1.345-1.401-1.35
		c-0.902-0.005-1.343,0.464-1.592,1.387c-0.348,1.277-0.639,2.618-1.266,3.761c-1.139,2.073-3.228,2.725-5.427,2.9
		c-2.11,0.17-4.06-0.296-5.542-1.989c-1.1-1.255-1.412-2.799-1.705-4.368c-0.119-0.648-0.387-1.267-0.597-1.898
		c-0.336-1.016-0.376-1.917,0.978-2.273C47.345,14.817,50.333,14.795,52.538,14.946z M47.972,16.678
		c-0.953,0.178-1.534,0.931-1.796,1.867c-0.56,1.985,0.627,4.685,2.459,5.628c2.193,1.13,5.519,0.396,6.98-1.597
		c1.007-1.37,1.104-2.915,0.464-4.453c-0.569-1.368-1.838-1.737-3.169-1.807C51.259,16.232,49.468,16.396,47.972,16.678z
		 M73.371,19.478c0-0.065,0.02-0.267,0.016-0.468c-0.031-1.945-1.007-3.083-2.947-3.242c-1.123-0.092-2.262,0.012-3.393,0.05
		c-0.352,0.012-0.699,0.085-1.046,0.154c-2.737,0.559-3.897,3.284-2.412,5.694c1.136,1.843,2.912,2.495,4.955,2.475
		C71.282,24.115,73.12,22.338,73.371,19.478z"/>
	<path style="fill:#1D1D1D;" d="M35.781,8.6c0.007-3.36,2.357-6.438,5.495-7.193c3.477-0.836,7.002,0.706,8.518,3.725
		C50.46,6.461,50.179,7.2,48.78,7.7c-0.97,0.347-1.955,0.649-2.933,0.977c-2.146,0.719-3.758,2.185-5.276,3.782
		c-0.257,0.272-0.539,0.528-0.831,0.765c-1.088,0.882-1.864,0.776-2.643-0.366C36.226,11.576,35.788,10.153,35.781,8.6z"/>
	<path style="fill:#1D1D1D;" d="M74.296,1.171c3.011,0.096,5.281,1.402,6.628,4.047c1.329,2.607,1.094,5.208-0.509,7.658
		c-0.728,1.117-1.571,1.249-2.583,0.375c-0.874-0.755-1.672-1.595-2.516-2.386c-1.174-1.104-2.551-1.853-4.09-2.331
		c-0.838-0.261-1.674-0.538-2.5-0.839c-1.365-0.499-1.681-1.225-0.998-2.514C69.125,2.543,71.376,1.267,74.296,1.171z"/>
	<path style="fill:#1D1D1D;" d="M58.535,47.337c-0.902,0.97-1.137,1.999-0.659,3.183c0.056,0.14-0.105,0.489-0.259,0.574
		c-1.592,0.891-3.256,1.574-5.115,1.646c-0.561,0.023-0.888-0.184-1.018-0.764c-0.458-2.031-0.396-4.057,0.127-6.054
		c0.37-1.411,1.01-1.766,2.418-1.384C55.787,45.02,57.263,45.971,58.535,47.337z"/>
	<path style="fill:#1D1D1D;" d="M61.574,51.132c0.839-1.083,0.966-2.096,0.304-3.187c-0.081-0.135,0-0.518,0.126-0.605
		c1.49-1.025,3.098-1.777,4.939-1.842c1.017-0.035,1.552,0.347,1.693,1.325c0.316,2.202,0.145,4.364-0.724,6.44
		c-0.185,0.444-0.478,0.725-0.983,0.627C64.898,53.505,63.206,52.475,61.574,51.132z"/>
	<path style="fill:#1D1D1D;" d="M62.794,26.905c1.407,0.237,1.899,1.482,1.077,2.659c-0.251,0.357-0.605,0.697-0.991,0.893
		c-1.752,0.89-3.584,0.904-5.42,0.29c-0.932-0.309-1.476-0.993-1.642-1.983c-0.173-1.026,0.088-1.567,1.122-1.768
		C57.969,26.798,61.908,26.758,62.794,26.905z"/>
	<path style="fill:#1D1D1D;" d="M61.855,36.032c2.049,0.188,1.4,1.379-0.09,1.544c-1.197,0.081-2.406,0.086-3.602-0.008
		c-2.704-0.319-1.158-1.502-0.036-1.587C59.25,35.895,61.246,35.838,61.855,36.032z"/>
	<circle style="fill:#FFC107;" cx="60.018" cy="49.216" r="2.405"/>
	<g>
		<path style="fill:#1776D2;" d="M24.242,41.451v1.224c0,0.36-0.174,0.577-0.522,0.651c-0.016,0.003-0.092,0.017-0.229,0.042
			c-0.137,0.024-0.333,0.06-0.59,0.104l-4.049,13.041H16.32l-3.292-10.291c-0.043-0.136-0.086-0.279-0.13-0.429
			c-0.045-0.149-0.088-0.313-0.13-0.489c-0.041,0.172-0.085,0.336-0.13,0.489c-0.048,0.162-0.091,0.306-0.13,0.429L9.184,56.516
			H6.652L2.603,43.477c-0.26-0.047-0.459-0.082-0.598-0.107c-0.139-0.025-0.215-0.04-0.228-0.042
			c-0.348-0.074-0.521-0.291-0.521-0.651v-1.224h0.719h0.859h1.495h2.554v1.224c0,0.36-0.174,0.577-0.522,0.651
			c-0.021,0.005-0.055,0.014-0.104,0.024c-0.047,0.014-0.125,0.031-0.231,0.059c-0.107,0.027-0.226,0.056-0.358,0.087l2.162,7.601
			c0.062,0.223,0.12,0.463,0.172,0.723c0.051,0.259,0.101,0.535,0.15,0.83c0.056-0.293,0.116-0.567,0.183-0.83
			c0.066-0.26,0.137-0.502,0.213-0.723l2.958-9.011c0.056-0.161,0.165-0.306,0.328-0.438c0.163-0.131,0.363-0.196,0.599-0.196h0.822
			c0.244,0,0.445,0.057,0.605,0.172c0.16,0.114,0.271,0.269,0.333,0.463l2.938,9.011c0.152,0.444,0.285,0.938,0.396,1.479
			c0.047-0.265,0.098-0.525,0.151-0.782c0.052-0.249,0.105-0.482,0.162-0.697l2.156-7.582c-0.21-0.05-0.497-0.113-0.86-0.188
			c-0.348-0.074-0.522-0.291-0.521-0.651v-1.224h2.715h1.333h0.865L24.242,41.451L24.242,41.451z"/>
		<path style="fill:#1776D2;" d="M31.86,45.98c0.566,0.217,1.054,0.53,1.464,0.944c0.409,0.413,0.729,0.919,0.958,1.521
			s0.344,1.287,0.344,2.059c0,0.194-0.008,0.355-0.026,0.484s-0.049,0.229-0.094,0.302s-0.106,0.125-0.183,0.157
			c-0.076,0.031-0.173,0.047-0.291,0.047h-6.605c0.076,1.097,0.371,1.902,0.886,2.417c0.514,0.515,1.194,0.771,2.042,0.771
			c0.417,0,0.776-0.049,1.078-0.146c0.303-0.097,0.566-0.204,0.792-0.322s0.423-0.226,0.594-0.323
			c0.17-0.098,0.335-0.146,0.495-0.146c0.104,0,0.194,0.021,0.271,0.062c0.076,0.043,0.143,0.102,0.198,0.178l0.75,0.937
			c-0.284,0.334-0.604,0.614-0.958,0.839s-0.725,0.406-1.109,0.542c-0.386,0.136-0.778,0.23-1.178,0.287
			c-0.399,0.056-0.787,0.083-1.162,0.083c-0.743,0-1.434-0.124-2.073-0.37c-0.639-0.245-1.195-0.61-1.667-1.094
			c-0.473-0.483-0.844-1.08-1.115-1.792c-0.27-0.711-0.406-1.537-0.406-2.475c0-0.729,0.119-1.414,0.354-2.057
			c0.236-0.644,0.575-1.201,1.016-1.678s0.98-0.854,1.615-1.13C28.485,45.8,29.202,45.66,30,45.66
			C30.674,45.66,31.294,45.768,31.86,45.98z M28.292,48.139c-0.423,0.424-0.694,1.024-0.812,1.801h4.834
			c0-0.332-0.045-0.646-0.135-0.942c-0.091-0.295-0.229-0.554-0.417-0.776c-0.188-0.222-0.424-0.397-0.708-0.525
			c-0.285-0.129-0.618-0.192-1-0.192C29.302,47.503,28.716,47.714,28.292,48.139z"/>
		<path style="fill:#1776D2;" d="M41.081,55.29v1.224h-1.579H36.93h-1.578V55.29c0-0.36,0.174-0.578,0.521-0.651
			c0.03-0.006,0.074-0.014,0.13-0.023c0.057-0.01,0.16-0.029,0.311-0.057c0.15-0.026,0.355-0.062,0.616-0.108V43.1
			c-0.26-0.045-0.466-0.082-0.616-0.109c-0.151-0.026-0.254-0.045-0.311-0.057c-0.057-0.01-0.1-0.019-0.13-0.023
			c-0.348-0.074-0.521-0.292-0.521-0.651v-1.225h1.578h2.573v13.415c0.26,0.046,0.466,0.082,0.616,0.109
			c0.15,0.025,0.254,0.045,0.311,0.056c0.057,0.011,0.1,0.018,0.13,0.024C40.907,54.712,41.081,54.93,41.081,55.29z"/>
		<path style="fill:#1776D2;" d="M47.559,55.29v1.224H45.98h-2.573h-1.578V55.29c0-0.36,0.174-0.578,0.521-0.651
			c0.03-0.006,0.074-0.014,0.13-0.023c0.057-0.01,0.161-0.029,0.311-0.057c0.15-0.026,0.355-0.062,0.615-0.108V43.1
			c-0.26-0.045-0.465-0.082-0.615-0.109c-0.15-0.026-0.254-0.045-0.311-0.057c-0.056-0.01-0.1-0.019-0.13-0.023
			c-0.348-0.074-0.521-0.292-0.521-0.651v-1.225h1.578h2.573v13.415c0.26,0.046,0.465,0.082,0.616,0.109
			c0.15,0.025,0.254,0.045,0.311,0.056c0.057,0.011,0.1,0.018,0.131,0.024C47.385,54.712,47.559,54.93,47.559,55.29z"/>
		<path style="fill:#1776D2;" d="M83.025,45.822c-0.033-0.188-0.094-0.74-0.182-1.653c-1.137-0.332-2.097-0.5-2.878-0.5
			c-0.708,0-1.358,0.124-1.954,0.37c-0.593,0.247-1.104,0.6-1.531,1.057c-0.426,0.459-0.76,1.016-1,1.672
			c-0.238,0.656-0.358,1.396-0.358,2.215c0,0.847,0.12,1.601,0.358,2.26c0.24,0.66,0.565,1.216,0.976,1.667
			c0.409,0.452,0.892,0.796,1.446,1.036c0.557,0.24,1.154,0.359,1.793,0.359c0.382,0,0.728-0.021,1.035-0.062
			c0.311-0.042,0.596-0.108,0.854-0.199c0.261-0.089,0.507-0.206,0.741-0.349c0.232-0.143,0.463-0.318,0.691-0.526
			c0.069-0.062,0.143-0.112,0.219-0.151c0.076-0.037,0.16-0.057,0.25-0.057c0.152,0,0.285,0.059,0.396,0.178l1.104,1.198
			c-0.611,0.756-1.363,1.336-2.256,1.739c-0.892,0.402-1.963,0.604-3.213,0.604c-1.119,0-2.125-0.19-3.017-0.574
			c-0.894-0.381-1.655-0.914-2.287-1.594s-1.116-1.492-1.452-2.437c-0.337-0.944-0.506-1.976-0.506-3.095
			c0-1.131,0.188-2.168,0.562-3.108s0.902-1.752,1.582-2.433c0.682-0.682,1.496-1.211,2.443-1.588
			c0.948-0.379,1.995-0.568,3.141-0.568c1.254,0,2.828,0.361,4.726,1.084v3.843h-1.198C83.243,46.211,83.081,46.082,83.025,45.822z"
			/>
		<path style="fill:#1776D2;" d="M93.02,46.044c0.649,0.257,1.205,0.622,1.662,1.095c0.459,0.473,0.813,1.049,1.063,1.729
			s0.375,1.441,0.375,2.281c0,0.848-0.125,1.611-0.375,2.293c-0.25,0.68-0.604,1.261-1.063,1.74
			c-0.457,0.479-1.012,0.846-1.662,1.104c-0.648,0.257-1.373,0.386-2.17,0.386c-0.799,0-1.525-0.128-2.179-0.386
			C88.02,56.027,87.462,55.66,87,55.182c-0.462-0.479-0.82-1.061-1.073-1.74c-0.254-0.682-0.38-1.445-0.38-2.293
			c0-0.84,0.126-1.602,0.38-2.281c0.253-0.682,0.611-1.258,1.073-1.729c0.462-0.473,1.02-0.837,1.671-1.095
			c0.653-0.257,1.38-0.386,2.179-0.386C91.646,45.658,92.37,45.788,93.02,46.044z M92.822,53.795
			c0.428-0.598,0.641-1.473,0.641-2.625c0-1.154-0.213-2.031-0.641-2.636s-1.086-0.907-1.975-0.907c-0.902,0-1.57,0.305-2,0.912
			c-0.432,0.607-0.646,1.484-0.646,2.631s0.215,2.02,0.646,2.62c0.43,0.601,1.098,0.901,2,0.901
			C91.736,54.691,92.395,54.393,92.822,53.795z"/>
		<path style="fill:#1776D2;" d="M115.021,55.29v1.226h-1.578h-2.573v-6.804c0-0.681-0.149-1.192-0.448-1.537
			c-0.299-0.343-0.736-0.516-1.312-0.516c-0.264,0-0.508,0.045-0.734,0.135c-0.225,0.091-0.423,0.222-0.593,0.392
			c-0.171,0.17-0.306,0.383-0.401,0.641c-0.097,0.256-0.146,0.552-0.146,0.885v4.738c0.262,0.045,0.466,0.082,0.615,0.109
			c0.15,0.025,0.254,0.043,0.312,0.055c0.057,0.011,0.1,0.019,0.13,0.023c0.348,0.074,0.521,0.293,0.521,0.651v1.226h-1.578h-2.582
			V49.71c0-0.715-0.145-1.235-0.432-1.562c-0.291-0.328-0.715-0.49-1.277-0.49c-0.367,0-0.713,0.092-1.036,0.275
			c-0.324,0.185-0.623,0.437-0.901,0.754v5.76c0.26,0.045,0.465,0.082,0.613,0.109c0.15,0.025,0.254,0.043,0.311,0.055
			c0.057,0.011,0.1,0.019,0.131,0.023c0.348,0.074,0.521,0.292,0.521,0.651v1.225h-1.576h-2.573h-1.578V55.29
			c0-0.36,0.172-0.577,0.521-0.651c0.03-0.005,0.074-0.014,0.131-0.023c0.058-0.01,0.161-0.029,0.31-0.055
			c0.15-0.028,0.356-0.064,0.617-0.11v-6.558c-0.261-0.045-0.467-0.082-0.617-0.108c-0.148-0.028-0.252-0.046-0.31-0.056
			c-0.057-0.012-0.101-0.02-0.131-0.024c-0.349-0.074-0.521-0.291-0.521-0.652v-1.224h1.578h1.573c0.333,0,0.552,0.156,0.656,0.469
			l0.167,0.792c0.188-0.209,0.384-0.399,0.588-0.573c0.206-0.174,0.424-0.322,0.656-0.447s0.482-0.225,0.75-0.297
			c0.267-0.072,0.561-0.108,0.88-0.108c0.674,0,1.228,0.182,1.663,0.546c0.434,0.364,0.758,0.85,0.974,1.453
			c0.166-0.354,0.375-0.658,0.625-0.912c0.25-0.252,0.524-0.46,0.823-0.62c0.298-0.16,0.615-0.278,0.953-0.354
			c0.337-0.075,0.676-0.113,1.016-0.113c0.59,0,1.114,0.089,1.573,0.27c0.458,0.182,0.843,0.445,1.155,0.793
			c0.313,0.348,0.552,0.771,0.715,1.271c0.162,0.5,0.244,1.073,0.244,1.719v4.738c0.261,0.045,0.466,0.082,0.615,0.108
			c0.15,0.026,0.254,0.045,0.312,0.056c0.057,0.011,0.1,0.019,0.13,0.024C114.85,54.712,115.021,54.93,115.021,55.29z"/>
	</g>
	<g>
		<path style="fill:#1D1D1B;" d="M9.883,62.088v0.23h-0.9v-0.279c0-0.766-0.292-1.214-0.972-1.214c-0.68,0-0.973,0.448-0.973,1.202
			c0,1.908,2.856,2.091,2.856,4.484c0,1.288-0.62,2.127-1.92,2.127c-1.3,0-1.907-0.839-1.907-2.127v-0.486h0.887v0.535
			c0,0.766,0.316,1.215,0.996,1.215c0.681,0,0.997-0.45,0.997-1.215c0-1.896-2.844-2.078-2.844-4.473
			c0-1.312,0.608-2.126,1.884-2.126C9.275,59.962,9.883,60.8,9.883,62.088z"/>
		<path style="fill:#1D1D1B;" d="M21.218,62.102c0-1.301,0.644-2.139,1.944-2.139c1.312,0,1.957,0.838,1.957,2.139V66.5
			c0,1.288-0.645,2.139-1.957,2.139c-1.301,0-1.944-0.852-1.944-2.139V62.102z M22.153,66.548c0,0.778,0.328,1.228,1.009,1.228
			c0.692,0,1.009-0.449,1.009-1.228v-4.497c0-0.764-0.316-1.226-1.009-1.226c-0.681,0-1.009,0.462-1.009,1.226V66.548z"/>
		<path style="fill:#1D1D1B;" d="M36.587,68.553v-8.506h0.948v7.645h2.431v0.863h-3.379V68.553z"/>
		<path style="fill:#1D1D1B;" d="M52.151,66.548c0,0.767,0.303,1.228,0.996,1.228c0.681,0,0.985-0.461,0.985-1.228v-6.501h0.887
			V66.5c0,1.288-0.595,2.15-1.908,2.15c-1.3,0-1.896-0.863-1.896-2.15v-6.453h0.936V66.548z"/>
		<path style="fill:#1D1D1B;" d="M67.764,68.553V60.91h-1.568v-0.863h4.084v0.863h-1.568v7.643H67.764z"/>
		<path style="fill:#1D1D1B;" d="M82.452,60.047v8.506h-0.948v-8.506H82.452z"/>
		<path style="fill:#1D1D1B;" d="M93.921,62.102c0-1.301,0.644-2.139,1.945-2.139c1.312,0,1.956,0.838,1.956,2.139V66.5
			c0,1.288-0.645,2.139-1.956,2.139c-1.302,0-1.945-0.852-1.945-2.139V62.102z M94.855,66.548c0,0.778,0.328,1.228,1.01,1.228
			c0.691,0,1.008-0.449,1.008-1.228v-4.497c0-0.764-0.316-1.226-1.008-1.226c-0.682,0-1.01,0.462-1.01,1.226V66.548z"/>
		<path style="fill:#1D1D1B;" d="M110.128,68.553h-0.851v-8.506h1.203l1.969,6.148v-6.148h0.838v8.506h-0.984l-2.175-6.877V68.553z"
			/>
	</g>
</g>
</svg>
