<?xml version="1.0" encoding="iso-8859-1"?>
<!-- Generator: Adobe Illustrator 16.0.0, SVG Export Plug-In . SVG Version: 6.00 Build 0)  -->
<!DOCTYPE svg PUBLIC "-//W3C//DTD SVG 1.1//EN" "http://www.w3.org/Graphics/SVG/1.1/DTD/svg11.dtd">
<svg version="1.1" id="Calque_1" xmlns="http://www.w3.org/2000/svg" xmlns:xlink="http://www.w3.org/1999/xlink" x="0px" y="0px"
	 width="90.5px" height="55.25px" viewBox="0 0 90.5 55.25" style="enable-background:new 0 0 90.5 55.25;" xml:space="preserve">
<path style="fill-rule:evenodd;clip-rule:evenodd;fill:#FFFFFF;" d="M40.783,11.963c1.715,0.117,2.717,0.308,3.925,0.953
	c0.129,0.071,0.327,0.017,0.493,0.011c0.794-0.031,1.588-0.062,2.383-0.097c0.228-0.01,0.491,0.044,0.679-0.051
	c2.036-1.036,4.214-1.303,6.452-1.218c1.135,0.042,2.269,0.133,3.396,0.269c0.811,0.097,1.102,1.02,0.625,1.702
	c-0.201,0.289-0.316,0.656-0.414,1.004c-0.303,1.09-0.52,2.209-0.887,3.277c-0.364,1.056-1.152,1.748-2.247,2.061
	c-2.081,0.596-4.034,0.373-5.812-0.917c-0.962-0.697-1.366-1.735-1.641-2.835c-0.061-0.247-0.096-0.5-0.137-0.751
	c-0.124-0.756-0.423-1.045-1.091-1.049c-0.701-0.004-1.045,0.361-1.238,1.079c-0.271,0.993-0.497,2.036-0.985,2.924
	c-0.886,1.612-2.51,2.119-4.221,2.255c-1.641,0.133-3.157-0.23-4.311-1.547c-0.855-0.977-1.098-2.177-1.326-3.397
	c-0.093-0.504-0.301-0.985-0.465-1.476c-0.261-0.79-0.292-1.491,0.761-1.768C36.744,11.862,39.068,11.845,40.783,11.963z
	 M37.232,13.31c-0.741,0.139-1.193,0.724-1.397,1.452c-0.436,1.544,0.488,3.643,1.912,4.377c1.706,0.879,4.292,0.309,5.428-1.242
	c0.783-1.065,0.859-2.267,0.361-3.463c-0.443-1.063-1.429-1.351-2.465-1.405C39.788,12.963,38.396,13.09,37.232,13.31z
	 M56.985,15.487c0-0.051,0.014-0.208,0.012-0.364c-0.023-1.513-0.783-2.397-2.292-2.521c-0.873-0.071-1.759,0.009-2.639,0.039
	c-0.273,0.009-0.544,0.066-0.813,0.12c-2.128,0.435-3.032,2.554-1.875,4.429c0.883,1.433,2.264,1.94,3.854,1.924
	C55.36,19.094,56.79,17.711,56.985,15.487z"/>
<path style="fill-rule:evenodd;clip-rule:evenodd;fill:#FFFFFF;" d="M27.751,7.027c0.005-2.613,1.833-5.007,4.274-5.594
	c2.704-0.65,5.446,0.548,6.624,2.896c0.518,1.034,0.299,1.608-0.788,1.997c-0.754,0.27-1.52,0.505-2.281,0.759
	c-1.669,0.56-2.923,1.699-4.104,2.941c-0.2,0.212-0.419,0.41-0.646,0.595c-0.846,0.686-1.45,0.604-2.055-0.284
	C28.097,9.341,27.756,8.235,27.751,7.027z"/>
<path style="fill-rule:evenodd;clip-rule:evenodd;fill:#FFFFFF;" d="M57.705,1.25c2.342,0.074,4.107,1.091,5.155,3.147
	c1.033,2.028,0.85,4.05-0.396,5.956c-0.566,0.869-1.222,0.971-2.009,0.292c-0.68-0.587-1.301-1.241-1.956-1.856
	c-0.914-0.858-1.985-1.441-3.181-1.813c-0.652-0.203-1.302-0.418-1.945-0.652c-1.061-0.388-1.307-0.953-0.775-1.955
	C53.683,2.317,55.434,1.324,57.705,1.25z"/>
<path style="fill-rule:evenodd;clip-rule:evenodd;fill:#FFFFFF;" d="M45.447,37.153c-0.702,0.754-0.884,1.554-0.513,2.476
	c0.043,0.108-0.082,0.38-0.202,0.446c-1.238,0.693-2.532,1.225-3.978,1.28c-0.437,0.018-0.691-0.143-0.792-0.593
	c-0.356-1.581-0.308-3.155,0.099-4.708c0.288-1.098,0.786-1.374,1.881-1.076C43.31,35.35,44.458,36.091,45.447,37.153z"/>
<path style="fill-rule:evenodd;clip-rule:evenodd;fill:#FFFFFF;" d="M47.811,40.104c0.652-0.842,0.751-1.63,0.237-2.477
	c-0.063-0.105,0-0.403,0.098-0.472c1.159-0.797,2.409-1.382,3.842-1.433c0.79-0.027,1.207,0.27,1.316,1.031
	c0.247,1.713,0.112,3.394-0.562,5.009c-0.144,0.345-0.372,0.563-0.765,0.488C50.396,41.95,49.08,41.148,47.811,40.104z"/>
<path style="fill-rule:evenodd;clip-rule:evenodd;fill:#FFFFFF;" d="M48.76,21.264c1.094,0.185,1.478,1.153,0.837,2.067
	c-0.196,0.278-0.472,0.542-0.771,0.694c-1.363,0.692-2.788,0.703-4.216,0.225c-0.725-0.24-1.148-0.772-1.277-1.542
	c-0.135-0.798,0.068-1.219,0.873-1.375C45.007,21.18,48.07,21.149,48.76,21.264z"/>
<path style="fill-rule:evenodd;clip-rule:evenodd;fill:#FFFFFF;" d="M48.029,28.361c1.595,0.146,1.09,1.073-0.069,1.201
	c-0.931,0.063-1.872,0.067-2.801-0.005c-2.103-0.249-0.9-1.168-0.028-1.235C46.003,28.255,47.555,28.21,48.029,28.361z"/>
<circle style="fill:#FFFFFF;" cx="46.6" cy="38.615" r="1.87"/>
<g>
	<path style="fill:#FFFFFF;" d="M18.777,32.576v0.952c0,0.28-0.136,0.449-0.406,0.507c-0.013,0.002-0.072,0.013-0.179,0.033
		c-0.106,0.019-0.259,0.046-0.458,0.082l-3.149,10.142h-1.969l-2.56-8.004c-0.034-0.105-0.067-0.216-0.102-0.333
		c-0.035-0.117-0.068-0.244-0.101-0.38c-0.032,0.134-0.066,0.261-0.102,0.38c-0.037,0.126-0.071,0.237-0.101,0.333l-2.584,8.004
		H5.097L1.948,34.15c-0.202-0.037-0.357-0.064-0.465-0.083c-0.108-0.02-0.167-0.031-0.177-0.032C1.036,33.977,0.9,33.808,0.9,33.528
		v-0.952h0.56h0.668h1.163h1.986v0.952c0,0.28-0.136,0.449-0.406,0.507c-0.017,0.003-0.043,0.01-0.081,0.02
		c-0.037,0.01-0.097,0.024-0.18,0.045c-0.083,0.021-0.176,0.043-0.279,0.068l1.681,5.911c0.048,0.173,0.093,0.36,0.134,0.562
		c0.04,0.201,0.079,0.416,0.117,0.644c0.043-0.227,0.09-0.441,0.142-0.644c0.051-0.203,0.106-0.391,0.166-0.562l2.301-7.008
		c0.043-0.125,0.128-0.238,0.255-0.34c0.127-0.102,0.282-0.153,0.466-0.153h0.639c0.189,0,0.346,0.044,0.471,0.133
		c0.124,0.089,0.21,0.209,0.259,0.36l2.285,7.008c0.118,0.346,0.221,0.729,0.308,1.15c0.037-0.206,0.076-0.409,0.118-0.608
		c0.04-0.194,0.082-0.375,0.125-0.542l1.677-5.896c-0.164-0.039-0.387-0.088-0.669-0.147c-0.27-0.058-0.406-0.227-0.405-0.507
		v-0.952h2.112h1.037h0.672H18.777z"/>
	<path style="fill:#FFFFFF;" d="M24.702,36.099c0.44,0.168,0.819,0.412,1.138,0.734c0.318,0.321,0.566,0.715,0.745,1.183
		c0.179,0.467,0.268,1,0.268,1.6c0,0.151-0.006,0.277-0.02,0.376c-0.014,0.101-0.038,0.179-0.073,0.235
		c-0.035,0.057-0.083,0.097-0.142,0.122c-0.059,0.024-0.135,0.037-0.226,0.037h-5.137c0.06,0.853,0.289,1.48,0.689,1.879
		c0.399,0.4,0.929,0.6,1.588,0.6c0.324,0,0.604-0.039,0.838-0.114c0.235-0.076,0.44-0.159,0.616-0.25s0.329-0.176,0.461-0.251
		c0.133-0.076,0.261-0.113,0.385-0.113c0.082,0,0.151,0.016,0.211,0.048c0.059,0.033,0.111,0.079,0.154,0.138l0.583,0.729
		c-0.221,0.26-0.47,0.477-0.746,0.653c-0.275,0.175-0.563,0.316-0.862,0.421c-0.3,0.105-0.605,0.179-0.916,0.223
		c-0.311,0.043-0.611,0.065-0.903,0.065c-0.578,0-1.115-0.096-1.612-0.288c-0.497-0.191-0.929-0.475-1.296-0.851
		c-0.368-0.375-0.657-0.84-0.867-1.394c-0.21-0.553-0.316-1.195-0.316-1.924c0-0.567,0.093-1.101,0.276-1.6
		c0.184-0.5,0.447-0.935,0.79-1.305s0.762-0.663,1.256-0.879c0.494-0.216,1.052-0.324,1.672-0.324
		C23.779,35.849,24.262,35.933,24.702,36.099z M21.927,37.776c-0.329,0.33-0.54,0.797-0.632,1.402h3.759
		c0-0.259-0.035-0.503-0.105-0.733c-0.071-0.229-0.179-0.431-0.324-0.604c-0.146-0.172-0.33-0.31-0.551-0.409
		c-0.222-0.1-0.481-0.15-0.778-0.15C22.712,37.283,22.256,37.447,21.927,37.776z"/>
	<path style="fill:#FFFFFF;" d="M31.873,43.338v0.951h-1.228h-2h-1.228v-0.951c0-0.28,0.135-0.449,0.406-0.507
		c0.023-0.005,0.057-0.011,0.101-0.019c0.044-0.008,0.125-0.022,0.242-0.043c0.117-0.021,0.276-0.05,0.479-0.085v-8.827
		c-0.203-0.036-0.362-0.064-0.479-0.085c-0.117-0.021-0.197-0.035-0.242-0.043c-0.044-0.008-0.078-0.015-0.101-0.019
		c-0.271-0.058-0.406-0.227-0.406-0.506v-0.953h1.228h2v10.433c0.203,0.036,0.362,0.064,0.479,0.085
		c0.117,0.021,0.197,0.035,0.242,0.043c0.044,0.008,0.078,0.014,0.101,0.019C31.737,42.889,31.873,43.058,31.873,43.338z"/>
	<path style="fill:#FFFFFF;" d="M36.911,43.338v0.951h-1.228h-2.001h-1.228v-0.951c0-0.28,0.135-0.449,0.406-0.507
		c0.023-0.005,0.058-0.011,0.102-0.019c0.044-0.008,0.125-0.022,0.242-0.043c0.117-0.021,0.276-0.05,0.479-0.085v-8.827
		c-0.202-0.036-0.362-0.064-0.479-0.085c-0.117-0.021-0.197-0.035-0.242-0.043c-0.044-0.008-0.078-0.015-0.102-0.019
		c-0.271-0.058-0.406-0.227-0.406-0.506v-0.953h1.228h2.001v10.433c0.203,0.036,0.362,0.064,0.479,0.085
		c0.117,0.021,0.198,0.035,0.242,0.043c0.044,0.008,0.078,0.014,0.102,0.019C36.775,42.889,36.911,43.058,36.911,43.338z"/>
	<path style="fill:#FFFFFF;" d="M64.493,35.976c-0.025-0.147-0.072-0.576-0.141-1.286c-0.884-0.258-1.631-0.388-2.239-0.388
		c-0.55,0-1.057,0.096-1.519,0.288c-0.461,0.192-0.859,0.466-1.191,0.822c-0.333,0.357-0.591,0.79-0.778,1.3
		c-0.186,0.51-0.279,1.085-0.279,1.722c0,0.659,0.093,1.245,0.279,1.758c0.187,0.513,0.439,0.946,0.758,1.297
		c0.318,0.351,0.693,0.619,1.125,0.806s0.897,0.28,1.394,0.28c0.297,0,0.565-0.016,0.806-0.048c0.241-0.033,0.462-0.084,0.664-0.155
		c0.203-0.069,0.395-0.16,0.576-0.271c0.18-0.11,0.36-0.247,0.539-0.409c0.054-0.048,0.11-0.088,0.169-0.118
		c0.06-0.029,0.125-0.044,0.195-0.044c0.119,0,0.222,0.046,0.308,0.138l0.859,0.932c-0.476,0.588-1.06,1.04-1.754,1.353
		c-0.694,0.313-1.527,0.47-2.5,0.47c-0.87,0-1.651-0.148-2.345-0.446c-0.694-0.296-1.287-0.71-1.778-1.239
		c-0.492-0.529-0.868-1.161-1.13-1.896s-0.393-1.536-0.393-2.406c0-0.88,0.146-1.687,0.437-2.418
		c0.292-0.732,0.703-1.362,1.231-1.892c0.529-0.529,1.163-0.941,1.9-1.235s1.552-0.442,2.442-0.442c0.975,0,2.199,0.281,3.674,0.843
		v2.989h-0.933C64.663,36.278,64.537,36.177,64.493,35.976z"/>
	<path style="fill:#FFFFFF;" d="M72.266,36.148c0.505,0.2,0.936,0.483,1.292,0.851c0.356,0.368,0.632,0.816,0.827,1.345
		c0.194,0.529,0.292,1.121,0.292,1.775c0,0.659-0.098,1.253-0.292,1.782c-0.194,0.528-0.47,0.98-0.827,1.353
		c-0.356,0.372-0.787,0.659-1.292,0.858c-0.505,0.2-1.068,0.3-1.689,0.3c-0.621,0-1.186-0.1-1.694-0.3
		c-0.507-0.2-0.941-0.486-1.3-0.858c-0.359-0.373-0.638-0.825-0.835-1.353c-0.197-0.529-0.295-1.124-0.295-1.782
		c0-0.654,0.098-1.246,0.295-1.775c0.197-0.529,0.476-0.978,0.835-1.345c0.359-0.367,0.793-0.65,1.3-0.851
		c0.508-0.2,1.073-0.3,1.694-0.3C71.198,35.848,71.761,35.948,72.266,36.148z M72.112,42.176c0.333-0.465,0.499-1.146,0.499-2.042
		c0-0.897-0.166-1.581-0.499-2.05c-0.332-0.471-0.844-0.705-1.535-0.705c-0.703,0-1.221,0.236-1.556,0.709
		c-0.335,0.473-0.502,1.154-0.502,2.046c0,0.891,0.167,1.57,0.502,2.038c0.335,0.467,0.854,0.701,1.556,0.701
		C71.268,42.873,71.78,42.641,72.112,42.176z"/>
	<path style="fill:#FFFFFF;" d="M89.378,43.338v0.953H88.15h-2V39c0-0.529-0.116-0.928-0.349-1.195
		c-0.232-0.267-0.572-0.401-1.021-0.401c-0.206,0-0.396,0.035-0.571,0.105c-0.175,0.071-0.33,0.172-0.461,0.304
		c-0.133,0.132-0.237,0.298-0.312,0.499c-0.075,0.199-0.113,0.429-0.113,0.688v3.685c0.203,0.035,0.362,0.063,0.479,0.085
		c0.117,0.02,0.197,0.035,0.241,0.042c0.044,0.008,0.078,0.015,0.102,0.019c0.271,0.058,0.406,0.227,0.406,0.507v0.953h-1.227
		h-2.009V39c0-0.556-0.112-0.961-0.336-1.215c-0.225-0.254-0.555-0.381-0.992-0.381c-0.286,0-0.555,0.071-0.807,0.215
		c-0.252,0.143-0.485,0.339-0.701,0.587v4.479c0.202,0.035,0.361,0.064,0.477,0.085c0.116,0.02,0.197,0.035,0.242,0.042
		c0.043,0.008,0.078,0.015,0.101,0.019c0.271,0.058,0.405,0.227,0.405,0.507v0.953h-1.225h-2.001h-1.228v-0.953
		c0-0.28,0.135-0.449,0.405-0.507c0.024-0.004,0.058-0.011,0.102-0.019c0.044-0.008,0.125-0.022,0.241-0.042
		c0.117-0.021,0.277-0.05,0.479-0.086v-5.1c-0.202-0.035-0.362-0.064-0.479-0.084c-0.116-0.021-0.197-0.036-0.241-0.043
		c-0.044-0.008-0.078-0.015-0.102-0.019c-0.271-0.058-0.405-0.227-0.405-0.507v-0.952h1.228l1.223,0c0.259,0,0.43,0.122,0.51,0.365
		l0.13,0.616c0.146-0.163,0.299-0.311,0.458-0.446c0.16-0.135,0.33-0.251,0.511-0.349c0.181-0.097,0.376-0.174,0.583-0.231
		c0.208-0.056,0.436-0.084,0.685-0.084c0.524,0,0.955,0.142,1.293,0.425c0.337,0.283,0.59,0.66,0.757,1.13
		c0.129-0.275,0.292-0.511,0.486-0.709c0.194-0.196,0.407-0.358,0.64-0.482c0.232-0.125,0.478-0.216,0.741-0.275
		s0.526-0.089,0.791-0.089c0.459,0,0.867,0.07,1.224,0.21c0.356,0.141,0.656,0.346,0.899,0.616c0.243,0.271,0.429,0.6,0.555,0.989
		c0.126,0.389,0.19,0.835,0.189,1.337v3.685c0.203,0.035,0.362,0.063,0.479,0.085c0.117,0.02,0.197,0.035,0.242,0.042
		c0.044,0.009,0.078,0.015,0.101,0.019C89.243,42.889,89.378,43.058,89.378,43.338z"/>
</g>
<g>
	<path style="fill:#FFFFFF;" d="M7.61,48.625v0.18h-0.7v-0.217c0-0.596-0.227-0.945-0.755-0.945c-0.529,0-0.757,0.349-0.757,0.935
		c0,1.484,2.221,1.626,2.221,3.488c0,1.001-0.482,1.654-1.493,1.654s-1.484-0.652-1.484-1.654v-0.377h0.69v0.415
		c0,0.596,0.246,0.945,0.775,0.945c0.53,0,0.775-0.35,0.775-0.945c0-1.474-2.212-1.616-2.212-3.478c0-1.021,0.473-1.653,1.465-1.653
		C7.137,46.972,7.61,47.624,7.61,48.625z"/>
	<path style="fill:#FFFFFF;" d="M16.425,48.635c0-1.011,0.5-1.663,1.512-1.663c1.021,0,1.522,0.652,1.522,1.663v3.421
		c0,1.001-0.501,1.663-1.522,1.663c-1.011,0-1.512-0.662-1.512-1.663V48.635z M17.153,52.094c0,0.605,0.255,0.955,0.784,0.955
		c0.539,0,0.785-0.35,0.785-0.955v-3.498c0-0.594-0.246-0.954-0.785-0.954c-0.529,0-0.784,0.359-0.784,0.954V52.094z"/>
	<path style="fill:#FFFFFF;" d="M28.378,53.653v-6.615h0.737v5.944h1.891v0.671H28.378z"/>
	<path style="fill:#FFFFFF;" d="M40.482,52.094c0,0.595,0.236,0.955,0.774,0.955c0.53,0,0.766-0.359,0.766-0.955v-5.056h0.69v5.019
		c0,1.001-0.463,1.672-1.484,1.672c-1.011,0-1.474-0.671-1.474-1.672v-5.019h0.728V52.094z"/>
	<path style="fill:#FFFFFF;" d="M52.624,53.653v-5.944h-1.219v-0.671h3.176v0.671h-1.219v5.944H52.624z"/>
	<path style="fill:#FFFFFF;" d="M64.047,47.038v6.615h-0.737v-6.615H64.047z"/>
	<path style="fill:#FFFFFF;" d="M72.967,48.635c0-1.011,0.501-1.663,1.513-1.663c1.021,0,1.521,0.652,1.521,1.663v3.421
		c0,1.001-0.5,1.663-1.521,1.663c-1.012,0-1.513-0.662-1.513-1.663V48.635z M73.694,52.094c0,0.605,0.255,0.955,0.785,0.955
		c0.539,0,0.784-0.35,0.784-0.955v-3.498c0-0.594-0.246-0.954-0.784-0.954c-0.53,0-0.785,0.359-0.785,0.954V52.094z"/>
	<path style="fill:#FFFFFF;" d="M85.572,53.653h-0.661v-6.615h0.936l1.531,4.782v-4.782h0.652v6.615h-0.766l-1.691-5.349V53.653z"/>
</g>
</svg>
