<?xml version="1.0" encoding="iso-8859-1"?>
<!-- Generator: Adobe Illustrator 16.0.0, SVG Export Plug-In . SVG Version: 6.00 Build 0)  -->
<!DOCTYPE svg PUBLIC "-//W3C//DTD SVG 1.1//EN" "http://www.w3.org/Graphics/SVG/1.1/DTD/svg11.dtd">
<svg version="1.1" id="Calque_1" xmlns="http://www.w3.org/2000/svg" xmlns:xlink="http://www.w3.org/1999/xlink" x="0px" y="0px"
	 width="883.098px" height="560px" viewBox="0 0 883.098 560" style="enable-background:new 0 0 883.098 560;" xml:space="preserve"
	>
<g>
	<g>
		<g>
			<rect x="766.655" y="301.17" style="fill:#CCCBCA;" width="108.561" height="108.558"/>
			<g>
				<rect x="694.285" y="348.216" style="fill:#242D3C;" width="14.472" height="14.475"/>
				<rect x="723.232" y="348.216" style="fill:#242D3C;" width="14.479" height="14.475"/>
				<rect x="752.179" y="348.216" style="fill:#242D3C;" width="14.476" height="14.475"/>
			</g>
		</g>
		<g>
			<rect x="6.088" y="301.17" style="fill:#CCCBCA;" width="108.558" height="108.558"/>
			<g>
				<rect x="114.646" y="348.216" style="fill:#242D3C;" width="14.477" height="14.475"/>
				<rect x="143.593" y="348.216" style="fill:#242D3C;" width="14.474" height="14.475"/>
				<rect x="172.542" y="348.216" style="fill:#242D3C;" width="14.474" height="14.475"/>
			</g>
		</g>
		<g>
			<rect x="386.371" y="5.44" style="fill:#CCCBCA;" width="108.563" height="108.558"/>
			<g>
				<rect x="433.417" y="113.998" style="fill:#242D3C;" width="14.474" height="14.476"/>
				<rect x="433.417" y="142.949" style="fill:#242D3C;" width="14.474" height="14.472"/>
				<rect x="433.417" y="171.893" style="fill:#242D3C;" width="14.474" height="14.476"/>
			</g>
		</g>
		<g>
			<g>
				<g>
					<rect x="621.686" y="113.998" style="fill:#242D3C;" width="14.47" height="14.476"/>
					<rect x="621.686" y="142.949" style="fill:#242D3C;" width="14.47" height="14.472"/>
					<rect x="621.686" y="171.893" style="fill:#242D3C;" width="14.47" height="14.476"/>
				</g>
				<g>
					<rect x="679.581" y="113.998" style="fill:#242D3C;" width="14.473" height="14.476"/>
					<rect x="650.633" y="113.998" style="fill:#242D3C;" width="14.479" height="14.476"/>
					<rect x="621.686" y="113.998" style="fill:#242D3C;" width="14.47" height="14.476"/>
				</g>
			</g>
			<path style="fill:#1776D2;" d="M802.129,121.236c0,29.978-24.296,54.28-54.271,54.28c-29.984,0-54.283-24.302-54.283-54.28
				c0-29.981,24.299-54.281,54.283-54.281C777.833,66.955,802.129,91.254,802.129,121.236z"/>
		</g>
		<g>
			<g>
				<g>
					<rect x="245.146" y="113.998" style="fill:#242D3C;" width="14.472" height="14.476"/>
					<rect x="245.146" y="142.949" style="fill:#242D3C;" width="14.472" height="14.472"/>
					<rect x="245.146" y="171.893" style="fill:#242D3C;" width="14.472" height="14.476"/>
				</g>
				<g>
					<rect x="187.25" y="113.998" style="fill:#242D3C;" width="14.474" height="14.476"/>
					<rect x="216.194" y="113.998" style="fill:#242D3C;" width="14.477" height="14.476"/>
					<rect x="245.146" y="113.998" style="fill:#242D3C;" width="14.472" height="14.476"/>
				</g>
			</g>
			<path style="fill:#1776D2;" d="M79.172,121.236c0,29.978,24.299,54.28,54.277,54.28c29.979,0,54.282-24.302,54.282-54.28
				c0-29.981-24.302-54.281-54.282-54.281C103.471,66.955,79.172,91.254,79.172,121.236z"/>
		</g>
	</g>
	<g>
		<g>
			<path style="fill:#242D3C;" d="M187.011,524.544V203.278c0-4.312,1.674-8.626,4.979-11.932c3.265-3.305,7.619-4.978,11.937-4.978
				h473.452c4.309,0,8.626,1.673,11.969,4.978c3.266,3.306,4.938,7.621,4.938,11.932v321.266H187.011z"/>
			<rect x="215.193" y="214.547" style="fill:#FFFFFF;" width="450.882" height="281.807"/>
			<g>
				<path style="fill:#3E4959;" d="M447.722,200.476c0,3.901-3.221,7.034-7.074,7.034c-3.896,0-7.039-3.133-7.039-7.034
					c0-3.901,3.144-7.034,7.039-7.034C444.501,193.442,447.722,196.575,447.722,200.476z"/>
				<path style="fill:#FFFFFF;" d="M443.495,200.476c0,1.543-1.265,2.802-2.847,2.802c-1.553,0-2.806-1.259-2.806-2.802
					c0-1.546,1.253-2.809,2.806-2.809C442.23,197.667,443.495,198.93,443.495,200.476z"/>
			</g>
		</g>
		<g>
			<rect x="130.664" y="524.544" style="fill:#E6E5E5;" width="619.978" height="11.294"/>
			<path style="fill:#CCCBCA;" d="M750.642,535.838c0,5.027-1.913,10.076-5.814,13.947c-3.827,3.854-8.846,5.774-13.938,5.774
				H150.377c-5.062,0-10.079-1.92-13.948-5.774c-3.861-3.871-5.765-8.92-5.765-13.947l0,0H750.642L750.642,535.838z"/>
			<rect x="384.293" y="524.544" style="fill:#CCCBCA;" width="112.712" height="5.646"/>
		</g>
	</g>
	<g>
		<g>
			<polygon style="fill:#242D3C;" points="596.94,442.449 577.467,394.199 625.711,413.669 606.933,423.653 			"/>
			<polygon style="fill:#242D3C;" points="607.754,419.045 602.322,424.486 618.396,440.545 623.822,435.104 			"/>
		</g>
		<g>
			<rect x="558.174" y="237.707" style="fill:#242D3C;" width="43.42" height="8.404"/>
			<rect x="558.174" y="254.506" style="fill:#242D3C;" width="86.845" height="8.383"/>
			<rect x="558.174" y="271.284" style="fill:#242D3C;" width="86.845" height="8.389"/>
			<rect x="558.174" y="288.064" style="fill:#242D3C;" width="86.845" height="8.386"/>
		</g>
		<g>
			<path style="fill:#FFC107;" d="M537.147,334.2c0,53.296-43.185,96.53-96.482,96.53c-53.294,0-96.505-43.234-96.505-96.53
				c0-53.293,43.211-96.493,96.505-96.493C493.962,237.707,537.147,280.907,537.147,334.2z"/>
			<g>
				<defs>
					<path id="SVGID_1_" d="M537.147,334.2c0,53.296-43.185,96.53-96.482,96.53c-53.294,0-96.505-43.234-96.505-96.53
						c0-53.293,43.211-96.493,96.505-96.493C493.962,237.707,537.147,280.907,537.147,334.2z"/>
				</defs>
				<clipPath id="SVGID_2_">
					<use xlink:href="#SVGID_1_"  style="overflow:visible;"/>
				</clipPath>
				<g style="clip-path:url(#SVGID_2_);">
					<polygon style="fill:#242D3C;" points="470.175,300.716 411.122,300.716 407.111,386.579 474.231,386.579 					"/>
					<path style="fill:#F2F2F2;" d="M373.94,405.039l-0.122,0.444l-4.035,12.809h-0.017l-5.287,16.713h152.354l-5.294-16.713
						l-5.809-18.357c-0.935-2.963-2.478-5.729-4.725-8.154c-2.238-2.436-4.904-4.183-7.756-5.349l-30.513-12.096
						c-1.53-0.621-2.897-1.713-3.92-3.164c-1.006-1.503-1.463-3.147-1.463-4.809v-14.854h-33.377v14.854
						c0,1.661-0.481,3.306-1.488,4.809c-0.989,1.451-2.367,2.543-3.889,3.164l-30.531,12.096c-2.855,1.166-5.512,2.913-7.741,5.349
						c-2.274,2.426-3.814,5.191-4.759,8.154L373.94,405.039L373.94,405.039z"/>
					<path style="fill:#F2F2F2;" d="M440.677,275.957c-18.273,0-31.259,13.302-31.259,41.49c0,23.846,13.974,43.95,31.259,43.95
						c17.245,0,31.251-20.104,31.251-43.95C471.928,289.259,458.904,275.957,440.677,275.957z"/>
					<path style="fill:#242D3C;" d="M468.7,277.475h-28.022H412.6c0,0-3.969,28,1.114,33.722c0.213-2.321,2.271-2.969,5.984-2.976
						c0,0,3.13-3.475,5.391-13.102c1.697,6.537,0.917,13.358,0.917,13.358c3.999,0.274,8.889,0.697,14.671,0.729
						c1.464-0.01,2.871-0.037,4.185-0.071c0,0,1.715-1.024,2.446-3.556c1.074,1.354,1.223,3.373,1.223,3.373
						c11.972-0.654,18.669-2.049,19.046,2.244C472.712,305.475,468.7,277.475,468.7,277.475z"/>
					<path style="fill:#242D3C;" d="M418.6,374.336c1.521-0.621,2.899-1.713,3.889-3.164c1.006-1.503,1.488-3.147,1.488-4.809
						v-6.336h-9.396c-1.211-8.864-1.898-17.593-1.898-25.864c0-24.484,1.691-33.642,8.455-41.907
						c8.739-10.639,19.54-12.845,19.54-12.845s10.764,2.207,19.504,12.845c6.778,8.266,8.43,17.423,8.43,41.907
						c0,8.271-0.661,17-1.898,25.864h-9.358v6.336c0,1.661,0.457,3.306,1.463,4.809c1.022,1.451,2.39,2.543,3.92,3.164l17.466,6.944
						c2.151-2.688,3.253-5.923,3.253-9.173v-12.08c0-20.269-0.617-46.707-4.892-66.024c-3.747-16.549-17.901-32.552-37.887-28.213
						c-20.011-4.339-34.149,11.664-37.917,28.213c-4.313,19.317-4.92,45.756-4.92,66.024v12.08c0,3.25,1.11,6.484,3.307,9.173
						L418.6,374.336z"/>
					<path style="fill:#242D3C;" d="M390.929,435.005h99.431c-4.645-10.157-7.521-23.836-7.521-39.003
						c0-4.596,0.281-9.046,0.806-13.367h-0.019l-8.16-3.243l-3.524,14.12c-1.661,6.731-5.5,13.064-11.414,17.657
						c-5.926,4.62-12.472,6.586-19.85,6.586c-7.426,0-13.992-1.966-19.903-6.586c-5.872-4.593-9.742-10.926-11.384-17.657
						l-3.523-14.12l-8.142,3.243h-0.074c0.491,4.321,0.786,8.771,0.786,13.367C398.437,411.169,395.571,424.848,390.929,435.005z"/>
				</g>
			</g>
		</g>
		<g>
			<rect x="362.249" y="453.891" style="fill:#242D3C;" width="65.339" height="19.303"/>
			<rect x="453.728" y="453.891" style="fill:#1776D2;" width="65.329" height="19.303"/>
		</g>
		<g>
			<g>
				<rect x="236.251" y="338.352" style="fill:#242D3C;" width="86.847" height="8.386"/>
				<rect x="236.251" y="321.583" style="fill:#242D3C;" width="86.847" height="8.389"/>
				<rect x="236.251" y="304.827" style="fill:#242D3C;" width="86.847" height="8.386"/>
				<rect x="236.251" y="355.145" style="fill:#242D3C;" width="86.847" height="8.386"/>
				<rect x="236.251" y="371.916" style="fill:#242D3C;" width="86.847" height="8.392"/>
				<rect x="236.251" y="388.678" style="fill:#242D3C;" width="43.424" height="8.39"/>
			</g>
			<rect x="236.251" y="237.707" style="fill:#1776D2;" width="86.847" height="41.966"/>
		</g>
	</g>
</g>
<g>
	<g>
		<path style="fill-rule:evenodd;clip-rule:evenodd;fill:#F2F2F2;" d="M439.262,506.86c0.769,0.053,1.217,0.138,1.76,0.427
			c0.058,0.032,0.146,0.008,0.222,0.006c0.355-0.015,0.711-0.029,1.068-0.044c0.102-0.004,0.22,0.019,0.304-0.023
			c0.912-0.464,1.89-0.584,2.894-0.546c0.509,0.02,1.017,0.06,1.522,0.12c0.364,0.045,0.494,0.458,0.28,0.764
			c-0.091,0.13-0.141,0.295-0.186,0.45c-0.136,0.489-0.233,0.99-0.398,1.47c-0.162,0.474-0.517,0.783-1.007,0.925
			c-0.934,0.268-1.809,0.167-2.606-0.41c-0.432-0.313-0.612-0.779-0.736-1.272c-0.026-0.11-0.043-0.225-0.062-0.337
			c-0.055-0.339-0.189-0.469-0.489-0.471c-0.314-0.002-0.468,0.162-0.555,0.483c-0.121,0.445-0.223,0.914-0.441,1.312
			c-0.397,0.723-1.125,0.951-1.893,1.012c-0.736,0.061-1.416-0.103-1.933-0.693c-0.384-0.438-0.493-0.977-0.595-1.523
			c-0.041-0.227-0.134-0.441-0.208-0.662c-0.118-0.354-0.131-0.668,0.341-0.793C437.451,506.814,438.493,506.808,439.262,506.86z
			 M437.669,507.463c-0.332,0.063-0.535,0.325-0.626,0.652c-0.195,0.691,0.219,1.633,0.857,1.963
			c0.765,0.395,1.925,0.139,2.435-0.557c0.35-0.479,0.384-1.017,0.162-1.554c-0.199-0.477-0.642-0.605-1.106-0.629
			C438.816,507.308,438.191,507.365,437.669,507.463z M446.526,508.44c0-0.022,0.008-0.093,0.007-0.163
			c-0.01-0.679-0.351-1.075-1.027-1.131c-0.393-0.031-0.79,0.004-1.184,0.018c-0.122,0.005-0.243,0.029-0.364,0.055
			c-0.955,0.194-1.36,1.145-0.842,1.986c0.396,0.642,1.016,0.868,1.729,0.861C445.798,510.058,446.441,509.438,446.526,508.44z"/>
		<path style="fill-rule:evenodd;clip-rule:evenodd;fill:#F2F2F2;" d="M433.418,504.647c0.003-1.172,0.822-2.247,1.917-2.509
			c1.213-0.292,2.442,0.246,2.97,1.299c0.232,0.464,0.134,0.721-0.354,0.896c-0.338,0.121-0.682,0.227-1.022,0.34
			c-0.749,0.252-1.311,0.763-1.84,1.319c-0.09,0.095-0.188,0.185-0.29,0.268c-0.38,0.308-0.65,0.271-0.922-0.128
			C433.573,505.685,433.421,505.188,433.418,504.647z"/>
		<path style="fill-rule:evenodd;clip-rule:evenodd;fill:#F2F2F2;" d="M446.849,502.057c1.051,0.033,1.843,0.489,2.312,1.411
			c0.463,0.909,0.381,1.816-0.178,2.67c-0.254,0.391-0.548,0.436-0.9,0.131c-0.305-0.264-0.584-0.556-0.877-0.831
			c-0.41-0.386-0.891-0.647-1.427-0.813c-0.293-0.092-0.585-0.188-0.873-0.293c-0.476-0.174-0.585-0.427-0.348-0.877
			C445.046,502.535,445.832,502.089,446.849,502.057z"/>
		<path style="fill-rule:evenodd;clip-rule:evenodd;fill:#F2F2F2;" d="M441.353,518.156c-0.314,0.338-0.396,0.696-0.229,1.109
			c0.02,0.049-0.037,0.171-0.091,0.201c-0.555,0.311-1.136,0.549-1.784,0.573c-0.196,0.009-0.31-0.064-0.354-0.266
			c-0.16-0.709-0.138-1.415,0.044-2.11c0.128-0.493,0.352-0.617,0.843-0.483C440.395,517.348,440.91,517.68,441.353,518.156z"/>
		<path style="fill-rule:evenodd;clip-rule:evenodd;fill:#F2F2F2;" d="M442.414,519.479c0.292-0.378,0.337-0.73,0.106-1.11
			c-0.029-0.047-0.002-0.181,0.043-0.213c0.52-0.356,1.081-0.618,1.724-0.642c0.354-0.012,0.54,0.121,0.59,0.462
			c0.11,0.769,0.05,1.521-0.253,2.246c-0.064,0.155-0.166,0.253-0.342,0.219C443.573,520.307,442.982,519.947,442.414,519.479z"/>
		<path style="fill-rule:evenodd;clip-rule:evenodd;fill:#F2F2F2;" d="M442.838,511.03c0.49,0.083,0.662,0.518,0.375,0.928
			c-0.087,0.124-0.211,0.243-0.344,0.312c-0.611,0.311-1.251,0.315-1.891,0.101c-0.325-0.107-0.515-0.346-0.573-0.691
			c-0.06-0.358,0.031-0.547,0.392-0.616C441.156,510.993,442.53,510.98,442.838,511.03z"/>
		<path style="fill-rule:evenodd;clip-rule:evenodd;fill:#F2F2F2;" d="M442.511,514.213c0.105,0.034,0.246,0.192,0.239,0.283
			c-0.008,0.096-0.169,0.249-0.271,0.256c-0.417,0.028-0.84,0.03-1.256-0.002c-0.109-0.009-0.312-0.201-0.31-0.27
			c0.001-0.068,0.179-0.248,0.297-0.285C441.408,514.133,442.298,514.146,442.511,514.213z"/>
	</g>
	<circle style="fill:#F2F2F2;" cx="441.871" cy="518.812" r="0.839"/>
</g>
</svg>
