<?xml version="1.0" encoding="utf-8"?>
<!-- Generator: Adobe Illustrator 16.0.0, SVG Export Plug-In . SVG Version: 6.00 Build 0)  -->
<!DOCTYPE svg PUBLIC "-//W3C//DTD SVG 1.1//EN" "http://www.w3.org/Graphics/SVG/1.1/DTD/svg11.dtd">
<svg version="1.1" id="Calque_1" xmlns="http://www.w3.org/2000/svg" xmlns:xlink="http://www.w3.org/1999/xlink" x="0px" y="0px"
	 width="1024px" height="768px" viewBox="0 0 1024 768" enable-background="new 0 0 1024 768" xml:space="preserve">
<g>
	<path fill="#242D3C" d="M903.426,594.685l-8.267-4.775c19.878-34.429-0.306-91.541-55.367-156.692
		c-56.919-67.343-144.308-136.791-246.073-195.544c-101.769-58.757-205.604-99.717-292.388-115.337
		c-83.959-15.109-143.503-4.028-163.38,30.397l-8.269-4.773c22.335-38.682,83.896-51.119,173.341-35.02
		c87.838,15.81,192.771,57.17,295.469,116.463c102.695,59.292,190.979,129.486,248.592,197.651
		C905.749,496.468,925.758,555.998,903.426,594.685z"/>
	<g>
		<path fill="#242D3C" d="M895.156,152.732c-1.216-2.104-2.584-4.142-4.069-6.056l7.546-5.851c1.747,2.255,3.359,4.656,4.789,7.133
			L895.156,152.732z"/>
		<path fill="#242D3C" d="M121.481,570.202c-0.463-3.45-0.701-7.056-0.701-10.72c0-2.064,0.076-4.164,0.225-6.296l9.52,0.664
			c-0.131,1.903-0.197,3.782-0.197,5.632c0,3.238,0.204,6.419,0.611,9.448L121.481,570.202z M132.797,538.692l-9.312-2.094
			c1.153-5.14,2.705-10.507,4.608-15.958l9.011,3.149C135.322,528.897,133.875,533.909,132.797,538.692z M142.945,509.27
			l-8.701-3.932c2.162-4.783,4.619-9.73,7.299-14.704l8.401,4.532C147.367,499.943,145.011,504.69,142.945,509.27z M157.858,481.48
			l-8.128-5.009c2.77-4.494,5.762-9.097,8.898-13.673l7.876,5.389C163.457,472.641,160.549,477.114,157.858,481.48z
			 M175.754,455.267l-7.648-5.716c3.151-4.22,6.501-8.544,9.962-12.844l7.441,5.976
			C182.121,446.899,178.839,451.133,175.754,455.267z M195.693,430.424l-7.248-6.212c3.458-4.038,7.041-8.094,10.737-12.164
			l7.066,6.416C202.614,422.468,199.095,426.454,195.693,430.424z M217.13,406.781l-6.899-6.597
			c3.679-3.848,7.458-7.71,11.333-11.576l6.743,6.757C224.483,399.184,220.757,402.989,217.13,406.781z M239.751,384.202
			l-6.594-6.902c3.855-3.682,7.796-7.368,11.821-11.061l6.452,7.041C247.451,376.923,243.558,380.568,239.751,384.202z
			 M263.323,362.578l-6.312-7.164c4-3.523,8.077-7.054,12.229-10.584l6.183,7.274C271.316,355.594,267.282,359.089,263.323,362.578z
			 M287.71,341.842l-6.062-7.379c4.127-3.389,8.324-6.773,12.583-10.155l5.934,7.475C295.949,335.13,291.797,338.48,287.71,341.842z
			 M312.784,321.932l-5.809-7.572c4.238-3.254,8.535-6.503,12.891-9.744l5.699,7.658
			C321.248,315.483,316.988,318.706,312.784,321.932z M338.491,302.802l-5.588-7.737c4.334-3.134,8.725-6.252,13.171-9.361
			l5.471,7.82C347.14,296.604,342.788,299.696,338.491,302.802z M364.74,284.426l-5.368-7.896c4.428-3.009,8.905-6.003,13.43-8.984
			l5.25,7.972C373.569,278.47,369.13,281.438,364.74,284.426z M391.496,266.792l-5.15-8.042c4.511-2.887,9.064-5.757,13.665-8.618
			l5.036,8.11C400.488,261.075,395.969,263.924,391.496,266.792z M418.719,249.876l-4.933-8.173
			c4.588-2.771,9.217-5.524,13.879-8.256l4.83,8.235C427.862,244.394,423.273,247.126,418.719,249.876z M446.371,233.668
			l-4.719-8.296c4.702-2.674,9.396-5.306,14.087-7.896l4.614,8.359C455.697,228.405,451.038,231.016,446.371,233.668z
			 M474.436,218.188l-4.503-8.415c4.772-2.557,9.537-5.064,14.294-7.527l4.389,8.477
			C483.898,213.165,479.168,215.651,474.436,218.188z M502.893,203.451l-4.276-8.532c4.842-2.429,9.671-4.809,14.495-7.14
			l4.154,8.595C512.489,198.684,507.693,201.043,502.893,203.451z M531.735,189.496l-4.041-8.649
			c4.92-2.297,9.816-4.539,14.694-6.729l3.913,8.705C541.463,184.999,536.609,187.22,531.735,189.496z M560.963,176.374
			l-3.784-8.767c4.981-2.148,9.945-4.246,14.885-6.291l3.652,8.823C570.82,172.163,565.899,174.238,560.963,176.374z
			 M590.553,164.134l-3.502-8.876c5.055-1.998,10.085-3.938,15.083-5.818l3.364,8.933
			C600.544,160.239,595.564,162.159,590.553,164.134z M620.527,152.871l-3.208-8.988c5.128-1.831,10.224-3.597,15.283-5.299
			l3.045,9.05C630.644,149.316,625.602,151.061,620.527,152.871z M650.857,142.677l-2.866-9.106
			c5.206-1.641,10.37-3.209,15.483-4.704l2.683,9.16C661.104,139.509,656.002,141.057,650.857,142.677z M880.553,136.225
			c-3.801-2.939-8.12-5.6-12.843-7.91l4.197-8.574c5.301,2.594,10.172,5.6,14.483,8.933L880.553,136.225z M681.543,133.699
			l-2.481-9.216c5.293-1.423,10.524-2.767,15.693-4.027l2.259,9.277C691.916,130.974,686.759,132.297,681.543,133.699z
			 M712.573,126.155l-2.018-9.333c5.375-1.16,10.673-2.234,15.896-3.212l1.761,9.382
			C723.073,123.955,717.862,125.008,712.573,126.155z M853.436,122.688c-4.703-1.472-9.772-2.725-15.073-3.731l1.781-9.382
			c5.66,1.078,11.089,2.423,16.14,4.001L853.436,122.688z M743.915,120.303l-1.457-9.436c5.445-0.84,10.86-1.579,16.11-2.197
			l1.12,9.479C754.552,118.756,749.247,119.478,743.915,120.303z M822.861,116.743c-4.99-0.498-10.277-0.833-15.718-0.992
			l0.278-9.541c5.663,0.166,11.175,0.516,16.383,1.034L822.861,116.743z M775.505,116.607l-0.735-9.52
			c5.492-0.425,10.976-0.715,16.297-0.867l0.27,9.541C786.168,115.91,780.843,116.193,775.505,116.607z"/>
		<path fill="#242D3C" d="M129.682,594.685c-1.43-2.477-2.701-5.073-3.782-7.719l8.835-3.604c0.919,2.243,2,4.447,3.209,6.548
			L129.682,594.685z"/>
	</g>
	<g>
		<path fill="#E6E5E5" d="M516.564,3.346C384.498,3.38,277.461,110.414,277.461,242.478c0,69.976,30.086,132.898,77.955,176.608
			c2.274,1.977,4.561,3.932,6.84,5.935c37.392,34.072,60.871,83.068,60.871,137.625v52.316h93.437h93.411v-52.316
			c0-54.557,23.475-103.553,60.855-137.625c2.294-2.003,4.573-3.958,6.856-5.935c47.855-43.71,77.956-106.633,77.956-176.608
			C755.644,110.414,648.607,3.38,516.564,3.346z"/>
		<path fill="#F2F2F2" d="M700.396,242.478c0,101.575-82.297,183.855-183.846,183.855c-101.561,0-183.855-82.28-183.855-183.855
			c0-101.493,82.294-183.836,183.855-183.836C618.099,58.642,700.396,140.984,700.396,242.478z"/>
		<g>
			<g>
				<path fill="#1776D2" d="M630.019,242.484c0-12.967,9.962-23.662,22.646-24.78c-1.303-7.517-3.244-14.819-5.763-21.817
					c-11.595,5.388-25.549,1.112-32.053-10.107c-6.476-11.283-3.244-25.479,7.207-32.816c-4.891-5.754-10.226-11.095-15.986-15.951
					c-7.312,10.39-21.493,13.686-32.766,7.192c-11.233-6.501-15.524-20.491-10.123-32.049c-7.052-2.494-14.341-4.441-21.829-5.81
					c-1.126,12.691-11.812,22.653-24.784,22.653c-12.979,0-23.648-9.962-24.778-22.653c-7.523,1.369-14.812,3.316-21.81,5.81
					c5.381,11.558,1.102,25.548-10.135,32.049c-11.252,6.494-25.464,3.198-32.787-7.192c-5.754,4.856-11.102,10.197-15.955,15.951
					c10.387,7.337,13.696,21.534,7.175,32.809c-6.495,11.233-20.456,15.509-32.042,10.114c-2.48,6.998-4.449,14.3-5.811,21.817
					c12.699,1.119,22.668,11.819,22.668,24.78c0,12.967-9.969,23.662-22.668,24.781c1.362,7.516,3.331,14.812,5.811,21.803
					c11.579-5.382,25.547-1.099,32.042,10.135c6.529,11.268,3.212,25.465-7.175,32.802c4.854,5.755,10.201,11.102,15.955,15.958
					c7.323-10.397,21.535-13.699,32.787-7.191c11.246,6.494,15.517,20.49,10.135,32.047c6.999,2.494,14.287,4.442,21.81,5.818
					c1.13-12.705,11.807-22.667,24.778-22.667c12.98,0,23.658,9.955,24.784,22.667c7.488-1.375,14.777-3.324,21.829-5.818
					c-5.401-11.557-1.11-25.554,10.123-32.047c11.272-6.516,25.453-3.206,32.766,7.191c5.818-4.856,11.103-10.203,16.001-15.958
					c-10.453-7.336-13.69-21.534-7.222-32.802c6.504-11.24,20.458-15.517,32.062-10.135c2.51-6.991,4.451-14.287,5.754-21.803
					C639.98,266.146,630.019,255.451,630.019,242.484z M516.568,322.036c-43.956,0-79.552-35.593-79.552-79.552
					c0-43.945,35.597-79.551,79.552-79.551c43.945,0,79.547,35.605,79.547,79.551C596.115,286.443,560.514,322.036,516.568,322.036z
					"/>
			</g>
			<path fill="#1776D2" d="M516.776,300.822h-0.208c-5.585,0-11.113-0.787-16.426-2.341l3.973-13.576
				c4.02,1.178,8.214,1.776,12.453,1.776L516.776,300.822z M533.221,298.412l-4.041-13.555c4.041-1.202,7.878-2.977,11.413-5.271
				l7.701,11.862C543.625,294.478,538.556,296.819,533.221,298.412z M485.034,291.579c-4.678-3.008-8.891-6.663-12.539-10.86
				l10.68-9.271c2.764,3.185,5.967,5.954,9.513,8.241L485.034,291.579z M560.786,280.539l-10.715-9.229
				c2.756-3.199,5.036-6.763,6.77-10.595l12.883,5.838C567.432,271.614,564.424,276.318,560.786,280.539z M463.508,266.771
				c-2.314-5.061-3.893-10.421-4.685-15.936l14-2.01c0.597,4.173,1.789,8.229,3.54,12.052L463.508,266.771z M574.341,250.602
				l-14.003-1.956c0.282-2.024,0.424-4.097,0.424-6.163c0-2.155-0.155-4.318-0.464-6.428l13.994-2.038
				c0.408,2.784,0.612,5.633,0.612,8.466C574.904,245.203,574.714,247.935,574.341,250.602z M472.811,236.236l-14.005-1.976
				c0.782-5.52,2.345-10.884,4.654-15.949l12.871,5.873C474.582,228.007,473.399,232.062,472.811,236.236z M556.729,224.014
				c-1.757-3.813-4.058-7.365-6.836-10.552l10.661-9.293c3.664,4.204,6.696,8.891,9.018,13.931L556.729,224.014z M483.121,213.596
				l-10.703-9.25c3.642-4.214,7.856-7.875,12.523-10.888l7.668,11.883C489.076,207.62,485.883,210.397,483.121,213.596z
				 M540.364,205.24c-3.551-2.276-7.398-4.024-11.434-5.195l3.945-13.581c5.34,1.55,10.424,3.86,15.122,6.873L540.364,205.24z
				 M504.033,200.094l-4.008-13.562c5.313-1.568,10.836-2.37,16.422-2.38l0.028,14.142
				C512.235,198.304,508.049,198.909,504.033,200.094z"/>
		</g>
		<g>
			<rect x="412.194" y="614.935" fill="#242D3C" width="208.724" height="110.315"/>
			<rect x="402.643" y="630.741" fill="#3E4959" width="227.742" height="15.703"/>
			<rect x="402.643" y="662.285" fill="#3E4959" width="227.742" height="15.767"/>
			<rect x="402.643" y="693.776" fill="#3E4959" width="227.742" height="15.784"/>
			<rect x="448.709" y="725.25" fill="#3E4959" width="135.679" height="38.584"/>
		</g>
	</g>
	<g>
		<path fill="#242D3C" d="M898.636,601.816l-7.546-5.852c1.486-1.915,2.859-3.952,4.069-6.056l8.267,4.775
			C901.995,597.16,900.387,599.561,898.636,601.816z"/>
		<path fill="#242D3C" d="M807.425,636.438l-0.274-9.541c5.437-0.16,10.728-0.493,15.717-0.991l0.945,9.5
			C818.604,635.923,813.092,636.271,807.425,636.438z M791.069,636.424c-5.294-0.149-10.779-0.442-16.293-0.863l0.731-9.52
			c5.363,0.412,10.689,0.693,15.835,0.843L791.069,636.424z M758.574,633.976c-5.249-0.618-10.671-1.358-16.108-2.198l1.458-9.438
			c5.326,0.827,10.632,1.548,15.768,2.157L758.574,633.976z M840.15,633.066l-1.781-9.374c5.3-1.009,10.369-2.269,15.071-3.734
			l2.846,9.112C851.241,630.648,845.811,631.992,840.15,633.066z M726.459,629.035c-5.225-0.977-10.521-2.052-15.896-3.214
			l2.017-9.331c5.286,1.146,10.5,2.199,15.637,3.164L726.459,629.035z M871.911,622.903l-4.198-8.572
			c4.727-2.311,9.046-4.976,12.844-7.915l5.84,7.552C882.09,617.302,877.216,620.31,871.911,622.903z M694.764,622.188
			c-5.178-1.261-10.404-2.604-15.698-4.026l2.48-9.218c5.216,1.404,10.377,2.727,15.476,3.966L694.764,622.188z M663.478,613.777
			c-5.116-1.495-10.277-3.063-15.486-4.703l2.866-9.107c5.149,1.62,10.247,3.169,15.303,4.651L663.478,613.777z M632.605,604.063
			c-5.057-1.702-10.153-3.467-15.283-5.297l3.208-8.987c5.074,1.808,10.113,3.553,15.121,5.235L632.605,604.063z M602.14,593.204
			c-4.997-1.878-10.026-3.82-15.081-5.816l3.504-8.878c5.008,1.977,9.989,3.897,14.942,5.761L602.14,593.204z M572.066,581.332
			c-4.939-2.045-9.899-4.142-14.885-6.289l3.784-8.768c4.939,2.135,9.857,4.21,14.753,6.235L572.066,581.332z M542.396,568.528
			c-4.881-2.191-9.774-4.434-14.694-6.73l4.041-8.648c4.871,2.276,9.728,4.497,14.562,6.674L542.396,568.528z M513.114,554.866
			c-4.818-2.333-9.655-4.712-14.498-7.14l4.283-8.533c4.802,2.408,9.59,4.768,14.37,7.079L513.114,554.866z M484.23,540.396
			c-4.757-2.464-9.525-4.971-14.297-7.526l4.511-8.415c4.732,2.535,9.458,5.022,14.175,7.465L484.23,540.396z M455.742,525.167
			c-4.691-2.592-9.385-5.223-14.085-7.897l4.718-8.297c4.667,2.653,9.326,5.265,13.983,7.833L455.742,525.167z M427.673,509.197
			c-4.667-2.733-9.295-5.484-13.887-8.257l4.933-8.171c4.557,2.748,9.147,5.481,13.776,8.191L427.673,509.197z M400.011,492.51
			c-4.594-2.86-9.15-5.73-13.662-8.618l5.151-8.042c4.473,2.867,8.995,5.718,13.555,8.55L400.011,492.51z M372.806,475.097
			c-4.526-2.98-9.002-5.976-13.431-8.983l5.368-7.897c4.395,2.987,8.829,5.955,13.313,8.909L372.806,475.097z M346.077,456.94
			c-4.442-3.109-8.836-6.228-13.174-9.361l5.588-7.735c4.301,3.104,8.657,6.195,13.058,9.277L346.077,456.94z M319.866,438.029
			c-4.353-3.239-8.649-6.491-12.891-9.743l5.816-7.573c4.201,3.228,8.46,6.448,12.774,9.662L319.866,438.029z M294.234,418.336
			c-4.258-3.381-8.456-6.767-12.579-10.155l6.058-7.378c4.087,3.361,8.242,6.712,12.457,10.059L294.234,418.336z M269.244,397.811
			c-4.148-3.529-8.225-7.06-12.225-10.583l6.308-7.164c3.959,3.489,7.993,6.983,12.099,10.473L269.244,397.811z M244.985,376.405
			c-4.028-3.692-7.969-7.378-11.824-11.061l6.594-6.901c3.807,3.634,7.7,7.278,11.676,10.922L244.985,376.405z M221.571,354.032
			c-3.883-3.865-7.661-7.727-11.336-11.576l6.895-6.597c3.63,3.792,7.357,7.6,11.181,11.416L221.571,354.032z M199.182,330.599
			c-3.696-4.073-7.275-8.128-10.737-12.167l7.251-6.211c3.402,3.969,6.918,7.957,10.552,11.959L199.182,330.599z M178.068,305.939
			c-3.461-4.301-6.812-8.626-9.962-12.847l7.648-5.713c3.084,4.135,6.367,8.366,9.755,12.583L178.068,305.939z M158.628,279.849
			c-3.13-4.577-6.125-9.178-8.895-13.672l8.128-5.009c2.691,4.367,5.599,8.84,8.649,13.292L158.628,279.849z M141.543,252.011
			c-2.684-4.975-5.14-9.921-7.302-14.705l8.704-3.931c2.066,4.58,4.422,9.326,6.999,14.104L141.543,252.011z M128.096,222
			c-1.903-5.451-3.454-10.819-4.608-15.958l9.313-2.094c1.074,4.784,2.525,9.796,4.307,14.901L128.096,222z M121.005,189.458
			c-0.149-2.131-0.225-4.231-0.222-6.301c0-3.658,0.235-7.264,0.698-10.715l9.461,1.271c-0.408,3.028-0.611,6.21-0.611,9.446
			c-0.003,1.853,0.062,3.731,0.193,5.635L121.005,189.458z"/>
		<path fill="#242D3C" d="M134.738,159.282l-8.836-3.607c1.078-2.646,2.353-5.244,3.779-7.716l8.269,4.773
			C136.735,154.833,135.657,157.036,134.738,159.282z"/>
	</g>
	<path fill="#242D3C" d="M233.526,636.569c-51.889,0-87.886-14.242-103.845-41.885l8.262-4.775
		c19.883,34.427,79.427,45.51,163.387,30.4c86.782-15.62,190.62-56.58,292.388-115.341
		c101.766-58.753,189.154-128.201,246.073-195.545c55.062-65.15,75.241-122.263,55.364-156.691l8.266-4.773
		c22.333,38.684,2.327,98.215-56.338,167.627c-57.613,68.166-145.896,138.359-248.592,197.652
		C495.791,572.53,390.857,613.895,303.023,629.702C277.496,634.296,254.245,636.569,233.526,636.569z"/>
	<path fill="#FFC107" d="M860.386,631.77c0,24.41-19.785,44.197-44.193,44.197c-24.407,0-44.193-19.787-44.193-44.197
		c0-24.406,19.786-44.191,44.193-44.191C840.601,587.578,860.386,607.363,860.386,631.77z"/>
	<path fill="#FFC107" d="M219.955,447.363c0,24.406-19.786,44.199-44.193,44.199c-24.409,0-44.193-19.793-44.193-44.199
		c0-24.409,19.785-44.193,44.193-44.193C200.169,403.17,219.955,422.954,219.955,447.363z"/>
</g>
</svg>
