<?xml version="1.0" encoding="iso-8859-1"?>
<!-- Generator: Adobe Illustrator 16.0.0, SVG Export Plug-In . SVG Version: 6.00 Build 0)  -->
<!DOCTYPE svg PUBLIC "-//W3C//DTD SVG 1.1//EN" "http://www.w3.org/Graphics/SVG/1.1/DTD/svg11.dtd">
<svg version="1.1" id="Calque_1" xmlns="http://www.w3.org/2000/svg" xmlns:xlink="http://www.w3.org/1999/xlink" x="0px" y="0px"
	 width="282px" height="282px" viewBox="0 0 282 282" style="enable-background:new 0 0 282 282;" xml:space="preserve">
<circle style="fill:#1776D2;" cx="140.727" cy="140.728" r="139.522"/>
<g>
	<g>
		<path style="fill:#242D3C;" d="M139.835,41.384h5.664v5.254h-5.664V41.384z M139.835,51.895h5.664v5.257h-5.664V51.895z
			 M139.835,62.399h5.664v5.257h-5.664V62.399z"/>
	</g>
	<path style="fill:#F9F8F7;" d="M127.1,22.179c0-9.055,7.344-16.398,16.4-16.398c9.059,0,16.394,7.343,16.394,16.398
		c0,9.061-7.335,16.401-16.394,16.401C134.444,38.581,127.1,31.24,127.1,22.179z"/>
	<g>
		<path style="fill:#242D3C;" d="M49.756,132.357h3.875v4.178h-3.875V132.357z M57.504,132.357h3.872v4.178h-3.872V132.357z
			 M65.242,132.357h3.872v4.178h-3.872V132.357z"/>
	</g>
	<path style="fill:#F9F8F7;" d="M26.893,150.342c-8.776,0-15.892-7.119-15.892-15.895c0-8.778,7.116-15.897,15.892-15.897
		c8.79,0,15.898,7.119,15.898,15.897C42.791,143.223,35.683,150.342,26.893,150.342z"/>
	<path style="fill:#F9F8F7;" d="M74.572,243.734c-4.471,4.474-11.723,4.474-16.195-0.005c-4.473-4.466-4.473-11.72,0-16.19
		c4.472-4.472,11.725-4.472,16.195,0C79.043,232.01,79.045,239.264,74.572,243.734z"/>
	<g>
		<path style="fill:#242D3C;" d="M73.256,132.357h3.875v4.178h-3.875V132.357z M81.004,132.357h3.872v4.178h-3.872V132.357z
			 M88.742,132.357h3.872v4.178h-3.872V132.357z"/>
	</g>
	<g>
		<path style="fill:#242D3C;" d="M234.858,135.033h-3.875v-4.178h3.875V135.033z M227.11,135.033h-3.872v-4.178h3.872V135.033z
			 M219.372,135.033H215.5v-4.178h3.872V135.033z"/>
	</g>
	<path style="fill:#F9F8F7;" d="M257.722,117.049c8.776,0,15.893,7.119,15.893,15.895c0,8.779-7.116,15.898-15.893,15.898
		c-8.79,0-15.898-7.119-15.898-15.898C241.823,124.168,248.932,117.049,257.722,117.049z"/>
	<g>
		<path style="fill:#242D3C;" d="M211.358,135.033h-3.875v-4.178h3.875V135.033z M203.61,135.033h-3.872v-4.178h3.872V135.033z
			 M195.872,135.033H192v-4.178h3.872V135.033z"/>
	</g>
	<g>
		<path style="fill:#242D3C;" d="M76.432,222.857l2.215-3.18l3.428,2.389l-2.216,3.18L76.432,222.857z M80.861,216.501l2.214-3.177
			l3.427,2.389l-2.213,3.177L80.861,216.501z M85.285,210.151l2.214-3.177l3.428,2.389l-2.214,3.177L85.285,210.151z"/>
		<g>
			<path style="fill:#242D3C;" d="M89.579,204.083l2.215-3.18l3.429,2.389l-2.216,3.18L89.579,204.083z M94.009,197.727l2.214-3.177
				l3.427,2.389l-2.213,3.177L94.009,197.727z M98.433,191.377l2.214-3.177l3.428,2.389l-2.214,3.177L98.433,191.377z"/>
		</g>
	</g>
	<path style="fill:#F9F8F7;" d="M219.604,229.742c2.88,5.63,0.648,12.53-4.989,15.407c-5.626,2.882-12.527,0.649-15.404-4.982
		c-2.879-5.631-0.646-12.531,4.983-15.409S216.727,224.11,219.604,229.742z"/>
	<g>
		<path style="fill:#242D3C;" d="M200.312,221.548l-2.344-3.086l3.328-2.527l2.344,3.087L200.312,221.548z M195.628,215.377
			l-2.342-3.084l3.328-2.525l2.341,3.083L195.628,215.377z M190.948,209.214l-2.342-3.084l3.328-2.526l2.341,3.084L190.948,209.214z
			"/>
		<g>
			<path style="fill:#242D3C;" d="M186.495,203.261l-2.344-3.086l3.328-2.527l2.344,3.087L186.495,203.261z M181.811,197.09
				l-2.342-3.084l3.328-2.525l2.342,3.083L181.811,197.09z M177.131,190.927l-2.342-3.084l3.328-2.526l2.342,3.084L177.131,190.927z
				"/>
		</g>
	</g>
	<path style="fill:#F9F8F7;" d="M59.125,72.003c-4.474-4.471-4.474-11.723,0.005-16.195c4.466-4.473,11.72-4.473,16.19,0
		c4.472,4.472,4.472,11.725,0,16.195C70.85,76.474,63.596,76.476,59.125,72.003z"/>
	<g>
		<path style="fill:#242D3C;" d="M80.002,73.862l3.18,2.215l-2.389,3.429l-3.18-2.216L80.002,73.862z M86.358,78.292l3.177,2.214
			l-2.389,3.427L83.97,81.72L86.358,78.292z M92.708,82.716l3.177,2.214l-2.389,3.428l-3.177-2.214L92.708,82.716z"/>
		<g>
			<path style="fill:#242D3C;" d="M98.776,87.01l3.18,2.215l-2.389,3.429l-3.18-2.216L98.776,87.01z M105.133,91.439l3.177,2.214
				l-2.389,3.427l-3.177-2.213L105.133,91.439z M111.482,95.863l3.177,2.214l-2.389,3.428l-3.177-2.214L111.482,95.863z"/>
		</g>
	</g>
	<path style="fill:#F9F8F7;" d="M200.524,54.889c4.471-4.473,11.723-4.473,16.195,0.006c4.473,4.465,4.473,11.719,0,16.189
		c-4.473,4.473-11.725,4.473-16.195,0C196.054,66.614,196.052,59.36,200.524,54.889z"/>
	<g>
		<path style="fill:#242D3C;" d="M198.665,75.766l-2.215,3.18l-3.429-2.389l2.216-3.18L198.665,75.766z M194.235,82.124
			l-2.214,3.176l-3.427-2.389l2.213-3.176L194.235,82.124z M189.812,88.473l-2.214,3.176l-3.428-2.389l2.214-3.176L189.812,88.473z"
			/>
		<g>
			<path style="fill:#242D3C;" d="M185.518,94.542l-2.215,3.18l-3.429-2.389l2.216-3.18L185.518,94.542z M181.088,100.897
				l-2.214,3.178l-3.427-2.389l2.213-3.178L181.088,100.897z M176.664,107.247l-2.214,3.178l-3.428-2.389l2.214-3.178
				L176.664,107.247z"/>
		</g>
	</g>
</g>
<g>
	<g>
		<rect x="97.139" y="82.382" style="fill:#242D3C;" width="89.57" height="117.131"/>
		<g>
			<polygon style="fill:#FFFFFF;" points="177.064,92.028 177.064,189.868 106.787,189.868 106.787,82.379 167.424,82.379 			"/>
			<polygon style="fill:#CCCBCA;" points="177.064,92.028 167.424,92.028 167.424,82.379 			"/>
			<g>
				<rect x="127.212" y="120.276" style="fill:#E6E5E5;" width="1.865" height="5.167"/>
				<rect x="147.497" y="135.779" style="fill:#E6E5E5;" width="1.862" height="5.168"/>
				<rect x="147.497" y="151.283" style="fill:#E6E5E5;" width="1.862" height="5.165"/>
				<rect x="147.497" y="166.784" style="fill:#E6E5E5;" width="1.862" height="5.168"/>
				<rect x="121.258" y="125.443" style="fill:#FFC107;" width="41.338" height="10.336"/>
				<rect x="121.258" y="99.605" style="fill:#242D3C;" width="13.779" height="20.67"/>
				<rect x="135.038" y="140.948" style="fill:#CCCBCA;" width="27.559" height="10.335"/>
				<rect x="135.038" y="156.448" style="fill:#CCCBCA;" width="27.559" height="10.336"/>
				<rect x="135.038" y="171.952" style="fill:#242D3C;" width="27.559" height="10.336"/>
				<g>
					<g>
						<rect x="148.431" y="99.605" style="fill:#242D3C;" width="14.166" height="1.879"/>
						<rect x="148.431" y="103.364" style="fill:#242D3C;" width="7.08" height="1.879"/>
					</g>
					<path style="fill:#FFC107;" d="M140.913,99.605v5.638h5.634v-5.638H140.913z M144.67,103.364h-1.882v-1.879h1.882V103.364z"/>
				</g>
				<g>
					<g>
						<rect x="148.431" y="107.123" style="fill:#242D3C;" width="14.166" height="1.88"/>
						<rect x="148.431" y="110.881" style="fill:#242D3C;" width="7.08" height="1.88"/>
					</g>
					<path style="fill:#FFC107;" d="M140.913,107.123v5.638h5.634v-5.638H140.913z M144.67,110.881h-1.882v-1.879h1.882V110.881z"/>
				</g>
				<g>
					<g>
						<rect x="148.431" y="114.64" style="fill:#242D3C;" width="14.166" height="1.879"/>
						<rect x="148.431" y="118.399" style="fill:#242D3C;" width="7.08" height="1.877"/>
					</g>
					<path style="fill:#FFC107;" d="M140.913,114.64v5.634h5.634v-5.634H140.913z M144.67,118.398h-1.882v-1.879h1.882V118.398z"/>
				</g>
				<path style="fill:#242D3C;" d="M133.171,156.448h-7.47c-1.427,0-2.584-1.157-2.584-2.584c0-1.425,1.157-2.581,2.584-2.581h7.47
					v-1.863h-7.47c-2.452,0-4.443,1.996-4.443,4.444c0,2.452,1.991,4.446,4.443,4.446h7.47V156.448z"/>
				<path style="fill:#242D3C;" d="M133.171,171.952h-7.47c-1.427,0-2.584-1.157-2.584-2.584s1.157-2.584,2.584-2.584h7.47v-1.86
					h-7.47c-2.452,0-4.443,1.992-4.443,4.444s1.991,4.446,4.443,4.446h7.47V171.952z"/>
			</g>
		</g>
		<path style="fill:#242D3C;" d="M150.192,82.382c0-4.569-3.7-8.268-8.264-8.268c-4.568,0-8.271,3.699-8.271,8.268h-6.89v9.645
			h30.313v-9.645H150.192z M138.38,82.382c0-1.955,1.593-3.546,3.548-3.546c1.953,0,3.542,1.591,3.542,3.546H138.38z"/>
	</g>
	<g>
		<rect x="137.573" y="224.889" style="fill-rule:evenodd;clip-rule:evenodd;fill:#242D3C;" width="7.356" height="43.407"/>
		<rect x="137.573" y="268.292" style="fill-rule:evenodd;clip-rule:evenodd;fill:#E6E5E5;" width="7.356" height="1.771"/>
		<path style="fill-rule:evenodd;clip-rule:evenodd;fill:#FFC107;" d="M144.932,270.064v1.301c0,2.031-1.646,3.676-3.675,3.676
			c-2.035,0-3.683-1.645-3.683-3.676v-1.301H144.932z"/>
		<polygon style="fill:#E6E5E5;" points="144.93,224.889 142.471,220.184 140.025,220.184 137.573,224.889 		"/>
		<polygon style="fill:#242D3C;" points="142.471,220.184 141.245,217.831 140.025,220.184 		"/>
	</g>
</g>
<g>
	<path style="fill:#FFC107;" d="M117.756,55.332c0,3.184-2.576,5.758-5.754,5.758s-5.757-2.575-5.757-5.758
		c0-3.173,2.58-5.755,5.757-5.755S117.756,52.159,117.756,55.332z"/>
	<path style="fill:#FFC107;" d="M111.945,243.243c0,3.939-3.197,7.139-7.14,7.139s-7.139-3.199-7.139-7.139
		c0-3.943,3.195-7.142,7.139-7.142S111.945,239.3,111.945,243.243z"/>
	<circle style="fill:#FFC107;" cx="37.963" cy="106.705" r="3.926"/>
	<circle style="fill:#FFC107;" cx="206.668" cy="110.669" r="3.603"/>
	<path style="fill:#FFC107;" d="M246.474,194.667c0,3.203-2.601,5.806-5.808,5.806s-5.806-2.603-5.806-5.806
		c0-3.207,2.599-5.809,5.806-5.809S246.474,191.46,246.474,194.667z"/>
</g>
</svg>
