<svg xmlns="http://www.w3.org/2000/svg" viewBox="0 0 400 225"><g data-name="Calque 1"><path fill="#00aede" d="M0 0h400v225H0z"/><path d="M160.06 85.81H80.31s8.47.47 9.64-8.47S101.49 64.71 109 70s12 2.51 16.47 0 9.88-.86 13.64 4.78 6.73 6 10.82 5.18c5.19-1.13 6.6 5.61 10.13 5.85zM226 21.11h79.75s-8.47.47-9.64-8.47S284.54 0 277 5.27s-12 2.51-16.47 0-9.88-.86-13.64 4.78-6.73 6-10.82 5.18c-5.17-1.1-6.58 5.65-10.07 5.88z" fill="#e3f3f9"/><path d="M216.56 36.43h-113s12 .67 13.67-12 16.33-17.89 27-10.45 17 3.56 23.33 0 14-1.22 19.33 6.78 9.54 8.56 15.33 7.33c7.34-1.55 9.34 8 14.34 8.34z" fill="#acdcee"/><path fill="#cdd3e6" d="M0 133.78h400V225H0z"/><ellipse cx="154.7" cy="218.69" rx="3.24" ry="45.93" transform="rotate(-86.95 154.688 218.687)" fill="#dfdfdf"/><path d="M194.23 221.63l-74.59-7-15.77-5.12 16.45-2.07 74.59 7c2.7.26 4.33 2 4.14 4-.18 2-2.12 3.45-4.82 3.19z" fill="#88c0cb"/><path d="M194.42 219.61l-74.59-7-16-3.09h16.26l74.59 7c2.7.26 4.41 1.13 4.33 2-.01.8-1.89 1.34-4.59 1.09z" fill="#659ba5"/><path fill="#dfdfdf" d="M119.64 214.59l-15.77-5.12 16.45-2.07-.68 7.19z"/><path fill="#0b3653" d="M111.44 208.51l-7.57.96 7.26 2.35.31-3.31z"/><path fill="#005d93" d="M185.134 213.53l9.766.923-.68 7.188-9.766-.923z"/><path fill="#0b3653" d="M188.479 213.846l3.076.29-.68 7.189-3.076-.291z"/><ellipse cx="111.72" cy="159.15" rx="28.38" ry="4.67" fill="#dfdfdf"/><ellipse cx="294.68" cy="157.13" rx="28.38" ry="4.67" fill="#dfdfdf"/><ellipse cx="281.98" cy="218.83" rx="23.73" ry="4.67" fill="#dfdfdf"/><ellipse cx="257.84" cy="207.4" rx="18.72" ry="3.68" fill="#dfdfdf"/><ellipse cx="121.64" cy="199.15" rx="23.73" ry="4.67" fill="#dfdfdf"/><ellipse cx="221.45" cy="214.53" rx="23.73" ry="4.67" fill="#dfdfdf"/><ellipse cx="207.67" cy="196.8" rx="70.7" ry="8.75" fill="#dfdfdf"/><path d="M130.75 133a21.48 21.48 0 0 0-1.67-8.25l5.13-2.15a27 27 0 0 0-5.91-8.76l-3.92 3.95a21.57 21.57 0 0 0-7-4.65l2.11-5.14a27 27 0 0 0-10.29-2h-.07v5.56a21.48 21.48 0 0 0-8.27 1.66L98.75 108a27 27 0 0 0-8.77 5.9l3.94 3.92a21.58 21.58 0 0 0-4.65 7l-5.14-2.12a27 27 0 0 0-2 10.32v.13l5.1-.09h.46a21.48 21.48 0 0 0 1.65 8.24l-5.13 2.14a27 27 0 0 0 5.89 8.78l3.9-3.93a21.58 21.58 0 0 0 7 4.66l-2.12 5.14a27 27 0 0 0 10.35 2h.52l-.5-5.53a21.48 21.48 0 0 0 8.24-1.64l2.13 5.14a27 27 0 0 0 8.78-5.88l-3.93-3.93a21.58 21.58 0 0 0 4.67-7l5.14 2.13a27 27 0 0 0 2.03-10.38zm-21.55 10.34A10.31 10.31 0 1 1 119.51 133a10.31 10.31 0 0 1-10.31 10.34z" fill="#023145"/><path d="M109.2 111.48A21.55 21.55 0 1 0 130.75 133a21.55 21.55 0 0 0-21.55-21.52zm0 31.86A10.31 10.31 0 1 1 119.51 133a10.31 10.31 0 0 1-10.31 10.34z" fill="#005372"/><circle cx="109.2" cy="133.03" r="6.32" fill="#023145"/><path d="M316 134.54a21.48 21.48 0 0 0-.39-8.41l5.39-1.34a27 27 0 0 0-4.51-9.56l-4.47 3.3a21.58 21.58 0 0 0-6.21-5.66l2.87-4.76a26.94 26.94 0 0 0-9.87-3.57h-.07l-.81 5.5a21.48 21.48 0 0 0-8.43.38l-1.34-5.4a27 27 0 0 0-9.56 4.5l3.3 4.47a21.58 21.58 0 0 0-5.66 6.21l-4.76-2.88a27 27 0 0 0-3.58 9.89v.13l5.05.69.45.07a21.48 21.48 0 0 0 .38 8.39l-5.4 1.33a27 27 0 0 0 4.49 9.57l4.48-3.29a21.58 21.58 0 0 0 6.2 5.67l-2.88 4.76a27 27 0 0 0 9.91 3.59h.52l.34-5.54a21.48 21.48 0 0 0 8.39-.37l1.33 5.4a27 27 0 0 0 9.57-4.48l-3.29-4.48a21.58 21.58 0 0 0 5.68-6.2l4.75 2.88a27 27 0 0 0 3.62-10zm-23.58 11.57a14.95 14.95 0 1 1 17-12.5 14.95 14.95 0 0 1-17.01 12.5z" fill="#043b5b"/><path d="M298 110a21.55 21.55 0 1 0 18 24.57A21.55 21.55 0 0 0 298 110zm-5.55 36.07a14.95 14.95 0 1 1 17-12.5 14.95 14.95 0 0 1-17.04 12.54z" fill="#023145"/><path fill="#0b3653" d="M245.26 183.49h-87.42l5.43-23.04h76.56l5.43 23.04z"/><path d="M249.56 197.15h-96a8.19 8.19 0 0 1-8.16-8.16 8.19 8.19 0 0 1 8.16-8.16h96a8.19 8.19 0 0 1 8.16 8.16 8.19 8.19 0 0 1-8.16 8.16z" fill="#005d93"/><path d="M249.56 190.36h-96a8.18 8.18 0 0 1-7.41-4.76 8.07 8.07 0 0 0-.75 3.4 8.19 8.19 0 0 0 8.16 8.16h96a8.19 8.19 0 0 0 8.16-8.16 8.07 8.07 0 0 0-.75-3.4 8.18 8.18 0 0 1-7.41 4.76z" fill="#0b3653"/><path d="M214.18 185h-49.77a1.06 1.06 0 0 1-1.05-1.05 1.06 1.06 0 0 1 1.05-1.05h49.77a1.06 1.06 0 0 1 1.05 1.05 1.06 1.06 0 0 1-1.05 1.05zm24.51 0h-18a1.06 1.06 0 0 1-1.05-1.05 1.06 1.06 0 0 1 1.05-1.05h18a1.06 1.06 0 0 1 1.05 1.05 1.06 1.06 0 0 1-1.05 1.05z" fill="#009ac2"/><rect x="108.42" y="47.37" width="186.26" height="114.32" rx="8.23" ry="8.23" fill="#005d93"/><rect x="111.87" y="54.77" width="179.36" height="91.65" rx="6.97" ry="6.97" fill="#043b5b"/><rect x="113.47" y="56.32" width="176.17" height="88.54" rx="6.79" ry="6.79" fill="#acdcee"/><path d="M124.71 144.85h153.68l4.52-88.48a3.32 3.32 0 0 0-.63-.06H120.82a3.32 3.32 0 0 0-.63.06z" fill="#81ccdc"/><circle cx="201.55" cy="154.02" r="4.28" fill="#e3f3f9"/><circle cx="201.55" cy="154.02" r="2.91" fill="#0b3653"/><path fill="#fff" d="M124.73 30.59h153.65v114.27H124.73z"/><rect x="203.78" y="99.26" width="11.43" height="11.43" rx="4.12" ry="4.12" fill="#005d93"/><rect x="222.63" y="99.26" width="11.43" height="11.43" rx="4.12" ry="4.12" fill="#acdcee"/><rect x="260.35" y="99.26" width="11.43" height="11.43" rx="4.12" ry="4.12" fill="#6bc5d7"/><rect x="241.49" y="99.26" width="11.43" height="11.43" rx="4.12" ry="4.12" fill="#f299bc"/><path fill="#acdcee" d="M173.36 130.27h-8.01l-3.07 14.58h14.59l-3.51-14.58zm-41.88-29.68h17.12v44.26h-17.12z"/><path fill="#acdcee" d="M163.69 144.85h-17.12l5.85-23.81h7.92l3.35 23.81z"/><path fill="#f299bc" d="M131.3 62.19h68.1v31.55h-68.1z"/><circle cx="147.09" cy="77.97" r="9.76" fill="#fff"/><path d="M146.36 82.53a1.24 1.24 0 0 1-1.75 0L141.08 79a1.24 1.24 0 0 1 0-1.75 1.24 1.24 0 0 1 1.75 0l3.53 3.53a1.24 1.24 0 0 1 0 1.75z" fill="#005d93"/><path d="M144.66 82.46a1.24 1.24 0 0 1 0-1.75l6.13-6.13a1.24 1.24 0 0 1 1.75 0 1.24 1.24 0 0 1 0 1.75l-6.13 6.13a1.24 1.24 0 0 1-1.75 0z" fill="#005d93"/><path fill="#acdcee" d="M203.78 62.19h68.1v31.55h-68.1zM126.8 32.83h149.5v7.21H126.8z"/><path fill="#6bc5d7" d="M159.36 34.92h84.37v3.02h-84.37z"/><path d="M270.07 38.34a.33.33 0 0 1 0-.47l3.34-3.34a.33.33 0 0 1 .47 0 .33.33 0 0 1 0 .47l-3.34 3.34a.33.33 0 0 1-.47 0z" fill="#fff"/><path d="M273.88 38.34a.33.33 0 0 0 0-.47l-3.34-3.34a.33.33 0 0 0-.47 0 .33.33 0 0 0 0 .47l3.34 3.34a.33.33 0 0 0 .47 0zm-8.53-3.65a1.74 1.74 0 1 1-1.74 1.74 1.74 1.74 0 0 1 1.74-1.74m0-.51a2.25 2.25 0 1 0 2.25 2.25 2.25 2.25 0 0 0-2.25-2.25zm-4.6 4.14h-4.05a.25.25 0 0 1 0-.51h4.05a.25.25 0 1 1 0 .51zm-127.24-.14h-4.05a.25.25 0 1 1 0-.51h4.05a.25.25 0 1 1 0 .51zm0-1.49h-4.05a.25.25 0 1 1 0-.51h4.05a.25.25 0 1 1 0 .51zm0-1.5h-4.05a.25.25 0 1 1 0-.51h4.05a.25.25 0 1 1 0 .51zM191 79.88h-28.6a1.36 1.36 0 0 1-1.4-1.36 1.36 1.36 0 0 1 1.35-1.35H191a1.36 1.36 0 0 1 1.35 1.35 1.36 1.36 0 0 1-1.35 1.36zm0-6.11h-28.6a1.36 1.36 0 0 1-1.4-1.36 1.36 1.36 0 0 1 1.35-1.35H191a1.36 1.36 0 0 1 1.35 1.35 1.36 1.36 0 0 1-1.35 1.36zM191 86h-28.6a1.36 1.36 0 0 1-1.4-1.37 1.36 1.36 0 0 1 1.35-1.35H191a1.36 1.36 0 0 1 1.35 1.35A1.36 1.36 0 0 1 191 86z" fill="#fff"/><path d="M164.26 123.35h-1.47v-.09a.91.91 0 0 0-.91-.91h-7a.91.91 0 0 0-.91.91v1a.91.91 0 0 0 .91.91h7a.91.91 0 0 0 .91-.91v-.09h1v2.54h-5.45a.43.43 0 0 0-.43.43v3.26a1.34 1.34 0 0 0-.91 1.27v2.06a12.41 12.41 0 0 1-1.14.69 2.45 2.45 0 0 0-1.29 1.36c-2.49.6-5.83 1.41-8.91 2-3.62.66-6.84 1-7.66 1.07l-.4.06a2.37 2.37 0 0 0-.57-.49s-2.77.53-4.86.86c-.17 0-.86.2-1.86.35 0-.34-.06-.64-.07-.88a3.32 3.32 0 0 0 1.9-1.56 9 9 0 0 0 .09-8.95s-1.37-5.8-8-4c-4.43 1.19-5.58 9.25-5.85 14.43l-.46-.26a13.56 13.56 0 0 1-6-7.4 20.37 20.37 0 0 1-.84-3.32 2.29 2.29 0 0 0 .7-1.94c0-2.08.29-2.64.56-3s-.61-.92-1.2.49l-.59 1.41s-.79-3.1-1.84-4a.48.48 0 0 0-.38-.15v6.87a2.84 2.84 0 0 0 .49.38 15.77 15.77 0 0 0 .95 7.14 15 15 0 0 0 1.54 3 16.44 16.44 0 0 0 4.13 4.23 17.29 17.29 0 0 0 2.91 1.68l.57.22c-.07.32-.13.64-.16 1a13.33 13.33 0 0 0 3.35.7s4.83 3.37 1.64 10.69c-.79 1.82-1.46 3.63-2 5.36h15.14a33.13 33.13 0 0 0-1.85-5.36c-2.62-5.74.83-6.87.92-10.83a4.79 4.79 0 0 0 2.53-1s.08-.47.11-1.17a52.77 52.77 0 0 0 8-1.8 47.64 47.64 0 0 0 8.74-3.61 3 3 0 0 0 1.67.32v1.37a1.34 1.34 0 1 0 2.69 0v-2c1.84-.88 3.21-2.69 2.13-3.08a5.15 5.15 0 0 0-2.13-.06v-2.82a1.34 1.34 0 0 0-.91-1.27v-2.83h5.45a.43.43 0 0 0 .43-.43v-3.4a.43.43 0 0 0-.41-.45zm112.35-62.27c-1.24.6-2.74 3.4-2.74 3.4l-.25-1.48c-.25-1.52-1.24-1.22-1.06-.79s.38 1.06-.15 3.07a2.32 2.32 0 0 0 .23 2.07 19.63 19.63 0 0 1-1.6 3 13.34 13.34 0 0 1-3.53 3.7 13.5 13.5 0 0 1-3.78 1.83c-.3-.82-.51-1.31-.51-1.31a12.16 12.16 0 0 1-8.76 2.83 14 14 0 0 0 .17-3.06c.28-.12.57-.25.85-.39a8.67 8.67 0 0 0 .86-.53 6.84 6.84 0 0 0 3.77-3.68c1.38-2.67 1.31-6.5-1.61-8.65s-5.29-2-8.91-1.81a4.15 4.15 0 0 0 .23 3.76 8.84 8.84 0 0 0-3 8.92 4 4 0 0 0 3.73 3 11.61 11.61 0 0 1-.15 1.7l-.24-.06c-2.14-.37-6.8-3.08-6.8-3.08a5.63 5.63 0 0 0-1.64 1.48l-.34-.31a11.8 11.8 0 0 1-2.27-3.5c-.14-.38-.32-.75-.44-1.15l-.33-1.22a3.22 3.22 0 0 1-.13-.63l-.1-.64-.1-.63a3.43 3.43 0 0 1-.07-.63l-.08-1.29a8.72 8.72 0 0 1 0-1.19v-.86a2.21 2.21 0 0 0 1-1.8c.28-2.09.7-2.58 1-2.89s-.48-1-1.29.26l-.57.92-.24.38s-.33-3.25-1.26-4.35-2.52 1.87-2.14 4.27a5.35 5.35 0 0 0 1.12 2.91l-.22.78a8 8 0 0 0-.26 1.29l-.2 1.4a4.16 4.16 0 0 0-.05.73v1.53a4.34 4.34 0 0 0 0 .78l.19 1.58c.08.53.25 1 .37 1.56a14.72 14.72 0 0 0 2.69 5.21 16 16 0 0 0 1.51 1.49c-.14.35-.22.57-.22.57a10.27 10.27 0 0 0 2.81 1.87c.39.18.78.34 1.16.48s.74.25 1.07.35c.5.15.94.25 1.28.32l.53.1h.19a50.37 50.37 0 0 1-.18 6.29q-.08.85-.17 1.66 0 .41-.1.8c-.21 1.58-.47 3-.73 4.32l-.13.63q-.13.61-.26 1.16l-.08.32h-.5l-.07-4.17a.9.9 0 0 0-.88-.87.83.83 0 0 0-.86.84l.19 11.35.72 43.8.1 6.19.11 6.62h25v-.45l-.2-18.47-.07-6.19-.07-6.2-.07-6.22-.07-6.24-.07-6.25-.14-12.56-.06-5a.88.88 0 0 0-.87-.86.83.83 0 0 0-.85.84v4.15h-2.71c-.13-.28-.25-.56-.37-.84a30.843 30.843 0 0 1-1.48-4.64 44 44 0 0 1-1.18-9.58h.44a7.67 7.67 0 0 0 1.3-.16A12.57 12.57 0 0 0 265 82l.25-.13c-.07-.58-.17-1.15-.28-1.7h.07a16 16 0 0 0 5-3 14.41 14.41 0 0 0 2.2-2.47 15.27 15.27 0 0 0 2.59-6.67 2.81 2.81 0 0 0 2-2.25c.42-2.22 1.02-5.3-.22-4.7zm-18.29 60.08h-6.18c0-1.49-.11-3.07-.16-4.67h5.68c.23 1.59.45 3.18.66 4.66zM257 112c.14.91.28 1.84.42 2.78h-5.49c0-1-.05-2-.07-3v-1.61h4.86c.09.56.19 1.18.28 1.83zm-5.05-7.07c0-.39 0-.75.06-1.09h.38a6.36 6.36 0 0 0 1.1.1 11.2 11.2 0 0 0 1.56-.11h.5q.15.71.32 1.6c.17.9.36 1.91.55 3h-4.57c.02-1.29.05-2.49.1-3.52zm-8.24-7.24v-.1zm.1 4.48l-.06-2.63q1.19.41 2.35.7v.64c0 .34-.05.77-.07 1.29zm.14 6.31l-.1-4.61h2.09v.87c0 1.12.1 2.39.21 3.74zm0 1.7h2.34q.1.92.22 1.88c.11.91.25 1.83.39 2.76h-2.85zm.14 6.35h3.1c.28 1.6.6 3.18.93 4.67h-3.93zm.14 6.39h4.3c.22.87.44 1.69.66 2.45a3.13 3.13 0 0 0-.73 1.17 2 2 0 0 0-.12 1.08h-4zm22.3 32.55l.15 4.85h-21.61l-.11-4.84zm-.06-1.78h-21.54l-.1-4.81h21.53zm-.36-11.38l.15 4.79h-21.51l-.1-4.78zm-.06-1.76h-21.44l-.1-4.75h21.4zm-.41-13h-2.13v-.14a2.43 2.43 0 0 0-.25-.68 3.36 3.36 0 0 0-1.45-1.38c.1-.76.19-1.6.27-2.5h3.43zm-.2-6.43h-3.24c.09-1.48.15-3.06.17-4.67h2.92zm-.2-6.39h-2.84c0-1.06 0-2.11-.07-3.15 0-.51 0-1-.06-1.5h2.85zm-.2-6.35h-2.9c-.1-1.38-.22-2.66-.35-3.78 0-.29-.07-.57-.1-.84h3.2zm-1-9.12a18.85 18.85 0 0 1-1.13-1.77h1.79l.15 4.59h-3.38l-.09-.54-.07-.4v-.48c0-.16-.07-.32-.11-.47a23.62 23.62 0 0 0 2.85-.92zm-4.64 30.05h6.31l.15 4.73h-21.38l-.1-4.72h14.85zm-.83-6.45c.14.93.29 1.79.43 2.58a2.85 2.85 0 0 0-1.05 1.31 2.06 2.06 0 0 0-.18.82h-3.71a1.55 1.55 0 0 0 0-.75 2.41 2.41 0 0 0-.29-.66 3.31 3.31 0 0 0-1.53-1.29v-2zm-25.76-2.55l-6-2.12A3.1 3.1 0 0 0 223 120l-2.66 6.23a2.64 2.64 0 0 0 1.46 3.6l6 2.12h.09c.1.26.21.56.32.9a2.65 2.65 0 0 0 1 1.52c-.25 1.18-.49 2.56-.82 4-.1.48-.19 1-.31 1.46l-.37 1.47c-.22 1-.54 1.95-.81 2.88a33 33 0 0 1-1.4 3.82 17.3 17.3 0 0 0-1-1.58c-3.13 3.17-5.49 4.72-7.22 5.46a17.1 17.1 0 0 0 .18-1.88 9.39 9.39 0 0 0 2.54-1.7 10.82 10.82 0 0 0 2.81-4.51.75.75 0 0 0 .38.09c1.44 0 3.31-3.78 1.77-4.41a1.49 1.49 0 0 0-1-.07v-.69c-.35-4.44-2.75-6.4-7.8-5.65a7.89 7.89 0 0 0-6.35 5.3c0 .09 0 .18-.06.27a1.49 1.49 0 0 0-1-.07c-1.7.4-1 4.33.37 4.55a.82.82 0 0 0 .62-.15 11.11 11.11 0 0 0 1 5 4.29 4.29 0 0 0 2.08 2.19 12.12 12.12 0 0 1-.22 1.92c-2.34-.86-5.52-3.85-5.52-3.85l-.23-.37a6.4 6.4 0 0 1-.39-.68 16.44 16.44 0 0 1-1.46-3.87c-.08-.4-.22-.78-.27-1.21l-.21-1.26c-.08-.42-.09-.86-.14-1.28s-.11-.85-.12-1.27l-.06-1.28c0-.41-.06-.8 0-1.18s0-.86 0-1.26h.22a2.93 2.93 0 0 0 1.76-1.71c.24-.48.46-.88.66-1.21l.8.28a3.1 3.1 0 0 0 3.76-1.77l2.66-6.23a2.64 2.64 0 0 0-1.46-3.6l-6-2.12a3.1 3.1 0 0 0-3.76 1.77l-2.66 6.23a2.64 2.64 0 0 0 1.46 3.6l.48.17c0 .09 0 .18-.07.27a5.78 5.78 0 0 0 0 3.37c-.22.62-.45 1.34-.68 2.14A11.66 11.66 0 0 0 201 137l-.26 1.38c-.09.47-.11 1-.16 1.46s-.11 1-.1 1.5v1.52c0 .51.07 1 .11 1.5a18.2 18.2 0 0 0 1.28 5.24 9.15 9.15 0 0 0 .44 1c.15.29.27.57.42.8.28.46.49.81.64 1-.52.9-.82 1.57-.82 1.57 1.86 4.31 4.77 5.37 4.77 5.37l-.16 2.32h15.25c.21-2.71.5-4.49.5-4.49 2.59.07 4.62-2.36 4.62-2.36v-.75a13.18 13.18 0 0 0 .87-1.22c.2-.28.35-.6.55-1a10.66 10.66 0 0 0 .57-1.14 25.92 25.92 0 0 0 1.81-5.85 40.3 40.3 0 0 0 .5-10.79c.69-.56 1.13-1.71 1.09-3.88a5.94 5.94 0 0 0-.45-2.06l1.82-4.26a2.64 2.64 0 0 0-1.48-3.55z" style="mix-blend-mode:multiply" fill="#010101" opacity=".15"/><path d="M246 207.7a.85.85 0 0 1-.85-.85V92.64a.85.85 0 1 1 1.71 0v114.2a.85.85 0 0 1-.86.86zm23.41 0a.85.85 0 0 1-.85-.85V92.64a.85.85 0 0 1 1.71 0v114.2a.85.85 0 0 1-.86.86z" fill="#09212f"/><path d="M269.41 98.52H246a.85.85 0 0 1 0-1.71h23.36a.85.85 0 0 1 0 1.71zm0 6.35H246a.85.85 0 1 1 0-1.71h23.36a.85.85 0 1 1 0 1.71zm0 6.35H246a.85.85 0 1 1 0-1.71h23.36a.85.85 0 1 1 0 1.71zm0 6.34H246a.85.85 0 0 1 0-1.71h23.36a.85.85 0 0 1 0 1.71zm0 6.35H246a.85.85 0 1 1 0-1.71h23.36a.85.85 0 1 1 0 1.71zm0 6.34H246a.85.85 0 1 1 0-1.71h23.36a.85.85 0 1 1 0 1.71zm0 6.35H246a.85.85 0 1 1 0-1.71h23.36a.85.85 0 1 1 0 1.71zm0 6.35H246a.85.85 0 1 1 0-1.71h23.36a.85.85 0 1 1 0 1.71zm0 6.34H246a.85.85 0 1 1 0-1.71h23.36a.85.85 0 1 1 0 1.71zm0 6.35H246a.85.85 0 0 1 0-1.71h23.36a.85.85 0 0 1 0 1.71zm0 6.36H246a.85.85 0 1 1 0-1.71h23.36a.85.85 0 1 1 0 1.71zm0 6.33H246a.85.85 0 1 1 0-1.71h23.36a.85.85 0 1 1 0 1.71zm0 6.35H246a.85.85 0 1 1 0-1.71h23.36a.85.85 0 1 1 0 1.71zm0 6.32H246a.85.85 0 0 1 0-1.71h23.36a.85.85 0 0 1 0 1.71zm0 6.37H246a.85.85 0 1 1 0-1.71h23.36a.85.85 0 1 1 0 1.71zm0 6.34H246a.85.85 0 1 1 0-1.71h23.36a.85.85 0 1 1 0 1.71zm0 6.35H246a.85.85 0 0 1 0-1.71h23.36a.85.85 0 0 1 0 1.71z" fill="#09212f"/><path d="M241.23 62.19a2.29 2.29 0 0 0 1-1.81c.3-2.06.72-2.56 1-2.87s-.45-1-1.26.29l-.57.91z" fill="#f8b892"/><path fill="#6bc5d7" d="M131.3 45.09h140.49v13.42H131.3z"/><path fill="#005d93" d="M135.59 53.94h131.92v.64H135.59z"/><path d="M241.46 58.71l-.24.38s-.27-3.19-1.15-4.25-2.48 1.9-2.15 4.25c.41 2.94 1.45 3.52 2.65 3.29a1.34 1.34 0 0 0 .66-.19z" fill="#f8b892"/><path d="M248.21 52.89a.25.25 0 0 1-.18-.07l-1.66-1.66a.25.25 0 1 1 .36-.36l1.66 1.66a.25.25 0 0 1-.18.43z" fill="#005d93"/><path d="M245 47.65a1.74 1.74 0 1 1-1.23.51 1.73 1.73 0 0 1 1.23-.51m0-.51a2.25 2.25 0 1 0 1.59.66 2.24 2.24 0 0 0-1.59-.66z" fill="#005d93"/><path d="M246.93 51.87a.51.51 0 0 1-.36-.15l-.38-.38a.51.51 0 0 1 .72-.72l.38.38a.51.51 0 0 1-.36.87z" fill="#005d93"/><path d="M253.88 61.22a9.29 9.29 0 0 0-4 9.63c.62 3.14 4.83 3.84 8.51 1.8a8.39 8.39 0 0 0 4.29-8.58c-.5-2.66-5.45-5.16-8.8-2.85z" fill="#f8b892"/><path d="M255.07 78.91a2 2 0 0 1-2-2.48 8.73 8.73 0 0 0 .3-3.64.6.6 0 0 0 .05.13l3.74-1.62c.19.44.74 2.16-.11 6a2 2 0 0 1-1.98 1.61z" fill="#f8b892"/><path d="M253.83 63.2s-1.47 2.29-2 3.11c0 0 1 .75 1.66-.12s1.15-2.5 2.52-2.48c.91 0 .78 1 .38 1.74a2.68 2.68 0 0 1-2.2 1.71s-1.63 2.6 1.66 4.45 5.72-.57 7.11-3.25 1.37-6.48-1.47-8.54-5.16-1.85-8.7-1.59a4.38 4.38 0 0 0 1.04 4.97z" fill="#043b5b"/><path d="M275.84 64.58a25 25 0 0 1-2.1 4.17 13.57 13.57 0 0 1-7.55 5.76 19.25 19.25 0 0 1-2.53.59c-2 .33-2.77.92-2.86 2.51a1.74 1.74 0 0 0 .82 1.73 4.24 4.24 0 0 0 2.83.25 17.29 17.29 0 0 0 3.23-.94 16.44 16.44 0 0 0 5-3.12 15 15 0 0 0 2.23-2.53 15.81 15.81 0 0 0 2.77-8zm-36.44-4.01c-.22.61-.45 1.34-.68 2.14a8.19 8.19 0 0 0-.27 1.28l-.22 1.38a4.21 4.21 0 0 0-.06.73v1.51a4.34 4.34 0 0 0 0 .77l.16 1.56c.07.52.22 1 .34 1.54a14 14 0 0 0 2.56 5.11 14.41 14.41 0 0 0 1.45 1.5c.21.19.4.36.56.49l.41.3a3.79 3.79 0 0 0 2.68.88 1.68 1.68 0 0 0 1.36-1.33 2.62 2.62 0 0 0 0-1.85 3.93 3.93 0 0 0-1.4-1.43l-.28-.19-.39-.31a12.32 12.32 0 0 1-1.06-.95 11.14 11.14 0 0 1-2.16-3.43c-.13-.37-.3-.73-.41-1.13l-.3-1.2a3.16 3.16 0 0 1-.12-.62l-.09-.63-.09-.62a3.39 3.39 0 0 1-.06-.62l-.06-1.23a8.68 8.68 0 0 1 0-1.17v-2.08z" fill="#f8b892"/><path d="M250.16 100.4s2 4.57 6.66 4.57 7.4-2.33 6.64-7.23c.01.01-9.57-1.63-13.3 2.66z" fill="#005d93"/><path d="M264.58 127.1a80.6 80.6 0 0 0 1.08-14.39c0-2.59-.15-5-.31-7s-.38-3.43-.49-4c-.55-3.12-2-4.32-4.09-3.61s-2.7 1.92-2.2 4.73c.1.54.36 1.86.67 3.68s.66 4.12 1 6.59c.66 4.94 1.15 10.53 1.76 14zm-9.64.4c.15-3.66-.06-9.5 0-14.67 0-2.58.12-5 .26-6.86s.33-3.2.41-3.72a4.46 4.46 0 0 0-.15-2.77 3.78 3.78 0 0 0-.7-.78 5 5 0 0 1-.43-.5 6.5 6.5 0 0 0-.52-.56 3.34 3.34 0 0 0-.61-.48 1.31 1.31 0 0 0-.68-.21 2.3 2.3 0 0 0-1.49.6 6 6 0 0 0-1.74 3.83 34 34 0 0 0-.24 4.37 70.78 70.78 0 0 0 .43 7.35 82.56 82.56 0 0 0 2.86 14.75z" fill="#005d93"/><path d="M264.58 127.1a80.6 80.6 0 0 0 1.08-14.39c0-2.59-.15-5-.31-7s-.38-3.43-.49-4c-.55-3.12-2-4.32-4.09-3.61s-2.7 1.92-2.2 4.73c.1.54.36 1.86.67 3.68s.66 4.12 1 6.59c.66 4.94 1.15 10.53 1.76 14z" fill="#005d93"/><path d="M265 102.62c-.06-.4-.11-.73-.15-.94a5.85 5.85 0 0 0-1.29-3.06c0-.28-.05-.57-.1-.87a24.67 24.67 0 0 0-9.25.32c-.12-.14-.25-.29-.41-.43a3.34 3.34 0 0 0-.61-.48 1.31 1.31 0 0 0-.68-.21 2.3 2.3 0 0 0-1.49.6 6 6 0 0 0-1.74 3.83c0 .23-.07.56-.11 1a33.41 33.41 0 0 0 15.83.24z" fill="#004972"/><path d="M253 75.39c.55.09 7.35 2.6 12.92-2.28a29.23 29.23 0 0 1 1.91 7.25 11 11 0 0 1-4.81 1.39s-.25 11.46 4.76 18.57c0 0-10.44 4-21.45 0a59.45 59.45 0 0 0 2.88-18.7s-4.29-.5-6.85-3c0 0 1.78-4.81 4-6.15.07 0 4.59 2.59 6.64 2.92z" fill="#eb5b66"/><path d="M263.06 81.75a11 11 0 0 0 4.81-1.39 10.36 10.36 0 0 1-5.86.36s-.64 13.7 5.8 19.59c-5.01-7.09-4.75-18.56-4.75-18.56zM251 81.06c-6.16-.49-8.6-2.45-8.6-2.45 2.55 2.51 6.85 3 6.85 3a59.45 59.45 0 0 1-2.88 18.7c4.5-6.04 4.63-19.25 4.63-19.25z" fill="#e83e44"/><path d="M275.89 66.16s-1.29-.49-.75-2.5.35-2.63.18-3.05.81-.74 1 .77l.23 1.51s1.51-2.83 2.74-3.45.61 2.45.2 4.58-2.59 2.83-3.6 2.14z" fill="#f8b892"/><path d="M263.23 126.07a2.67 2.67 0 0 0-2.48 1.67 1.93 1.93 0 0 0-.17 1.33 1.6 1.6 0 0 0 1.57 1.2h2.63a1.6 1.6 0 0 0 1.61-1.86 2.28 2.28 0 0 0-.24-.67 3.13 3.13 0 0 0-2.92-1.67zm-9.74-.4a2.67 2.67 0 0 0-2.37 1.82 1.93 1.93 0 0 0-.08 1.34 1.6 1.6 0 0 0 1.64 1.1l2.62-.16a1.6 1.6 0 0 0 1.49-2 2.28 2.28 0 0 0-.28-.65 3.13 3.13 0 0 0-3.02-1.45z" fill="#043b5b"/><path d="M129.78 124.47a9.29 9.29 0 0 1 .84 10.41c-1.57 2.79-5.79 2.14-8.64-.95a8.39 8.39 0 0 1-1.4-9.49c1.27-2.38 6.74-3.22 9.2.03z" fill="#f8b892"/><path d="M127.1 141.5a2 2 0 0 1-2-1.6c-.85-3.84-.3-5.56-.11-6l3.74 1.62a.6.6 0 0 0 .05-.13 8.75 8.75 0 0 0 .3 3.64 2 2 0 0 1-1.55 2.43 2.07 2.07 0 0 1-.43.04zm-19.55-17.43a15.81 15.81 0 0 0 .76 8.46 15 15 0 0 0 1.54 3 16.45 16.45 0 0 0 4.13 4.23 17.29 17.29 0 0 0 2.91 1.68 4.24 4.24 0 0 0 2.81.43 1.74 1.74 0 0 0 1.22-1.48c.29-1.56-.33-2.33-2.17-3.12a19.23 19.23 0 0 1-2.32-1.18 13.57 13.57 0 0 1-6-7.4 25 25 0 0 1-1-4.55zm45.45 9.65a2.29 2.29 0 0 1 1.35-1.58c1.83-1 2.15-1.56 2.34-2s1.1.08.16 1.28l-.66.85z" fill="#f8b892"/><path d="M156.84 131.66a.43.43 0 0 1-.43-.43v-6.36a.43.43 0 0 1 .43-.43.43.43 0 0 1 .43.43v6.36a.43.43 0 0 1-.43.43z" fill="#0b3653"/><path d="M156.41 124.87a.43.43 0 0 1 .43-.43h5.88a.43.43 0 0 1 .43.43.43.43 0 0 1-.43.43h-5.88a.43.43 0 0 1-.43-.43z" fill="#0b3653"/><path d="M162.71 121a.43.43 0 0 1 .43.43v3.4a.43.43 0 0 1-.43.43.43.43 0 0 1-.43-.43v-3.4a.43.43 0 0 1 .43-.43z" fill="#0b3653"/><path d="M163.14 121.47a.43.43 0 0 1-.43.43h-4.15a.43.43 0 0 1-.43-.43.43.43 0 0 1 .43-.43h4.15a.43.43 0 0 1 .43.43z" fill="#0b3653"/><rect x="152.42" y="120.05" width="8.82" height="2.84" rx="1.02" ry="1.02" fill="#37bbd4"/><path d="M156.84 138.69a1.35 1.35 0 0 1-1.34-1.34v-7.95a1.35 1.35 0 0 1 1.34-1.34 1.35 1.35 0 0 1 1.34 1.34v7.95a1.35 1.35 0 0 1-1.34 1.34z" fill="#005d93"/><path d="M156.19 132.31l-.27.35s3.09-.85 4.39-.39-.93 3-3.25 3.48c-2.9.63-3.8-.15-4-1.35a1.34 1.34 0 0 1-.05-.69z" fill="#f8b892"/><path d="M154.3 133.21c-2.53.59-6.52 1.61-10.15 2.26s-6.84 1-7.66 1.07c-2.14.26-3 1-2.9 2.55s1.13 2.26 3.45 2a52.36 52.36 0 0 0 8-1.81 43.23 43.23 0 0 0 9.94-4.33zm-21.04 64.59a35.51 35.51 0 0 0 1.42-6.43 75.28 75.28 0 0 0 .6-7.68A99.32 99.32 0 0 0 135 173c-.3-3-1.48-4.13-3.65-3.83s-3 1.6-2.71 4.47c.11 1.11.68 5.38 1.15 10.21.23 2.41.43 5 .58 7.33s.19 4.52.28 6.2zm-22.61-9.66a11.36 11.36 0 0 0 3.17.34 11.58 11.58 0 0 0 3.83-.83 13.23 13.23 0 0 0 5.24-3.88q.36-.43.68-.9l.16-.24.16-.28.31-.56a19.13 19.13 0 0 0 1.32-3.86c.27-1.16.47-2.22.61-3.16.28-1.87.4-3.25.43-3.81.16-2.94-.87-4.2-3.06-4.2s-3.18 1.12-3.32 3.84c0 .52-.07 1.8-.18 3.49 0 .85-.14 1.78-.26 2.75a17.29 17.29 0 0 1-.55 2.73l-.09.24v.13l-.07.15a6.79 6.79 0 0 1-.33.61 9.1 9.1 0 0 1-.82 1.17 10 10 0 0 1-2.12 1.93 9.88 9.88 0 0 1-2.46 1.19 15.21 15.21 0 0 1-2.41.53z" fill="#f8b892"/><path d="M130.65 137c-.55.09-6.29 1.6-10.55-.39a10.6 10.6 0 0 0-2.82 6 13.33 13.33 0 0 0 3.35.7s4.83 3.37 1.64 10.69c-3.77 8.67-4.75 16.92-6.4 19.26 0 0 10.44 4 21.45 0 0 0-.29-11.59-3.79-19.26-2.62-5.74.83-6.87.92-10.83a4.79 4.79 0 0 0 2.53-1s.78-4.8-1.47-6.13c.01.07-2.76.6-4.86.96z" fill="#eb5b66"/><path d="M109 125.65s1.37-.16 1.33-2.25.29-2.64.56-3-.61-.92-1.2.49l-.59 1.41s-.79-3.1-1.84-4-1.18 2.24-1.29 4.4 1.89 3.38 3.03 2.95z" fill="#f8b892"/><path d="M130.6 196s2.36.49 3.2 0a5.75 5.75 0 0 0 2.94.49c1.78-.13 3 .1 2.76 1.14s-6.85 2-8.55 1.17c-.92-.45-.36-3-.36-3m-18.07-10.63s-1.27 2.05-1.09 3a5.75 5.75 0 0 0-1.46 2.59c-.48 1.72-1.11 2.77-2 2.2s.46-7.12 1.81-8.43c.73-.71 3 .7 3 .7" fill="#0b3653"/><path d="M130.71 125.93s-4.33 5.24-5.29 15.59c0 0-5.13 1.3-8.61-.78 0 0-.7-17.07 5.91-18.84s7.99 4.03 7.99 4.03z" fill="#043b5b"/><path d="M130.12 128.05s-.78-1.84-2.26-1.23 0 4.09 1.36 4.09.9-2.86.9-2.86zm85.01 8.19a10.63 10.63 0 0 0-.73 11.76c1.69 3.21 5.95 3.7 9.28.29s3.25-9.06 1.88-11.81-7.56-3.84-10.43-.24z" fill="#f8b892"/><path d="M218.57 156.31a2.31 2.31 0 0 1-2.2-3 11 11 0 0 0 .19-4.31 2.31 2.31 0 0 1 4.56-.75 15.48 15.48 0 0 1-.35 6.47 2.31 2.31 0 0 1-2.2 1.59zm13.34-23.04c-.25 1.38-.36 3.19-.64 5.11-.06.48-.11 1-.18 1.46l-.24 1.47c-.13 1-.37 1.95-.56 2.88a24 24 0 0 1-1.54 4.67 6.39 6.39 0 0 1-.4.79 7 7 0 0 1-.36.63c-.24.33-.39.62-.5.73a3.33 3.33 0 0 0-.81 1.69 6.27 6.27 0 0 0 .32 2 1.62 1.62 0 0 0 1.76 1.3 4.23 4.23 0 0 0 2.91-2 11.69 11.69 0 0 0 .77-1.22 10.35 10.35 0 0 0 .47-1 9.65 9.65 0 0 0 .47-1.14 24.3 24.3 0 0 0 1.3-5.85 39.73 39.73 0 0 0-.63-11.75zm-25.09 1.29a2.6 2.6 0 0 0 1.61-1.71c.9-2.18 1.49-2.61 1.94-2.87s-.22-1.23-1.47 0l-.88.85z" fill="#f8b892"/><rect x="202.53" y="118.93" width="12.26" height="12.26" rx="4.42" ry="4.42" transform="rotate(18.78 208.634 125.034)" fill="#acdcee"/><path d="M208 130.79l-.36.35s.58-3.59-.1-5-3.24 1.41-3.53 4.09c-.36 3.35.63 4.27 2 4.34a1.52 1.52 0 0 0 .78 0zm24.18 3.77a2.6 2.6 0 0 1-1.61-1.71c-.9-2.18-1.49-2.61-1.94-2.87s.22-1.23 1.47 0l.88.85z" fill="#f8b892"/><rect x="222.81" y="118.93" width="12.26" height="12.26" rx="4.42" ry="4.42" transform="rotate(18.78 228.917 125.034)" fill="#f299bc"/><path d="M231 130.79l.36.35s-.58-3.59.1-5 3.24 1.41 3.53 4.09c.36 3.35-.63 4.27-2 4.34a1.52 1.52 0 0 1-.78 0zm-26.62 2.77c-.17.63-.34 1.37-.5 2.19a11.12 11.12 0 0 0-.18 1.29l-.14 1.38c-.05.47 0 1 0 1.46v1.5l.14 1.52c0 .51.16 1 .24 1.5a19.51 19.51 0 0 0 1.73 5.24 10.14 10.14 0 0 0 .53 1c.18.29.32.57.49.8.32.46.56.81.72 1a3.77 3.77 0 0 0 2.4 1.57 1.94 1.94 0 0 0 1.84-1.07c.95-1.54.92-2.41-.22-3.76-.11-.13-.29-.37-.54-.68-.13-.15-.25-.35-.39-.55a7.19 7.19 0 0 1-.45-.68 18 18 0 0 1-1.82-3.93c-.12-.4-.29-.78-.38-1.21l-.32-1.26c-.12-.42-.16-.86-.25-1.28s-.19-.85-.23-1.27l-.16-1.24c-.06-.41-.12-.8-.14-1.18-.06-.77-.14-1.48-.23-2.1z" fill="#f8b892"/><path d="M212.13 179.84s2.29 4.86 7.54 5.2c6.79.44 8.39-2.63 7.55-8.18 0-.01-10.85-1.86-15.09 2.98z" fill="#eb5b66"/><path d="M231 209.82a3 3 0 0 0-2.82 1.88 2.19 2.19 0 0 0-.19 1.51 1.81 1.81 0 0 0 1.77 1.36h3a1.82 1.82 0 0 0 1.83-2.1 2.58 2.58 0 0 0-.27-.76 3.55 3.55 0 0 0-3.32-1.89z" fill="#0b3653"/><path d="M232.55 210.75a119.32 119.32 0 0 0-1-16.41c-.68-5.83-1.61-11-1.91-12.29-.76-3.43-2.26-4.64-4.67-4s-3.15 2.25-2.41 5.56l2.87 11.82c1.37 5.61 2.88 11.89 4.16 15.73z" fill="#eb5b66"/><path d="M211.41 210.48a3 3 0 0 0-2.79 1.92 2.25 2.25 0 0 0 .23 2.36l1 .49h4a1.22 1.22 0 0 0 1.2-1.07 2.94 2.94 0 0 0-.31-1.81 3.55 3.55 0 0 0-3.33-1.89z" fill="#0b3653"/><path d="M213.5 211.72c1-4 2.08-10.62 3.15-16.44.53-2.91 1.06-5.62 1.53-7.74s.87-3.64 1-4.27a6.62 6.62 0 0 0 .14-3.72 3.35 3.35 0 0 0-2.22-2 3 3 0 0 0-3 .28 6.57 6.57 0 0 0-2 3.72c-.17.71-.53 2.44-.86 4.74s-.62 5.18-.81 8.22a115.11 115.11 0 0 0 0 17z" fill="#eb5b66"/><path d="M217.37 152.33c.62.1 3.84 1.68 10.66-5.87 0 0 3.28 4.12 3.75 8.38 0 0-1.82 2.43-4.42 2.36 0 0-1 12.59 2.64 21.91a21.81 21.81 0 0 1-17.87.73s0-9.19-.17-20.46c0 0-3-1.06-5.24-5.37 0 0 1.49-4.23 4-5.73.04-.01 4.28 3.67 6.65 4.05z" fill="#acdcee"/><path d="M213.82 140.24s-.52-2.08-2.19-1.68-.65 4.33.76 4.55 1.43-2.87 1.43-2.87zm11.65.59s.81-2 2.4-1.36 0 4.38-1.38 4.41-1.02-3.05-1.02-3.05z" fill="#f8b892"/><path d="M212.65 138.37a7 7 0 0 1 5.89-5.3c5-.75 7.56 1.21 8.29 5.65s-2.32 8.86-7.11 8.63a7.41 7.41 0 0 1-7.07-8.98z" fill="#043b5b"/><path fill="#005d93" d="M265.5 193.55h32.97v25.28H265.5z"/><path fill="#043b5b" d="M274.28 188.05l-8.78 5.5h32.96l-8.78-5.5h-15.4z"/><path fill="#023145" d="M274.28 188.05h15.41v5.5h-15.41z"/><path fill="#00aede" d="M265.5 193.55l4.74 5.94h23.23l4.99-5.94H265.5z"/><path fill="#00aede" d="M289.68 188.05l8.78 2.75 6.87 4.7-6.87-1.95-8.78-5.5zm-15.4 0l-9.57 2.75-6.87 4.7 7.66-1.95 8.78-5.5z"/></g></svg>