<svg xmlns="http://www.w3.org/2000/svg" xmlns:xlink="http://www.w3.org/1999/xlink" viewBox="0 0 401.06 225"><defs><linearGradient id="a" x1="272.17" y1="52.58" x2="281.69" y2="52.58" gradientUnits="userSpaceOnUse"><stop offset="0" stop-color="#f6edf3"/><stop offset=".5" stop-color="#f1e5ec"/><stop offset="1" stop-color="#d6c0d3"/></linearGradient><linearGradient id="b" x1="310.96" y1="61.69" x2="337.78" y2="61.69" xlink:href="#a"/><linearGradient id="c" x1="285.72" y1="44.6" x2="344.61" y2="64.04" gradientUnits="userSpaceOnUse"><stop offset="0" stop-color="#405051"/><stop offset="1" stop-color="#111000"/></linearGradient><linearGradient id="d" x1="300.69" y1="132.57" x2="309.96" y2="132.57" xlink:href="#a"/><clipPath id="e" transform="translate(.53)"><path d="M325.52 14.43a8.06 8.06 0 0 1 4.65-1.79 7 7 0 0 1 6.38 4.61 16.33 16.33 0 0 1-.33 4.82 39.5 39.5 0 0 0-2.22 4.05l-1.43 3.39s-.27 1.6-.94 1.55l-4.82-.33s-.88 0-.79-1.35a27.6 27.6 0 0 0-1.25-4.46s-1.59-4.12-1.5-5.36c0 0-.62-2.38 2.23-5.13z" fill="none"/></clipPath></defs><g style="isolation:isolate"><path fill="#ab80ff" d="M0 0h401.06v225H0z"/><ellipse cx="205.74" cy="174.6" rx="172.05" ry=".9" fill="#ab80ff"/><path fill="#fff" fill-rule="evenodd" d="M264.43 50.92l-51.6 45.3-29.25-12.37-19.17 20.96-27.4-10.27-24.03 26.31-22.76-12.09-41.91 44.31 42.51-39.76 22.96 12.2 24.29-26.59 27.39 10.27 19.09-20.87 28.98 12.25 53.36-46.84 1.8 2.05 3.87-9.51-9.93 2.61 1.8 2.04z"/><circle cx="210.76" cy="117.82" r="11.29" transform="rotate(-60.76 211.029 117.373)" fill="#1863b2"/><circle cx="210.76" cy="117.82" r="9.78" transform="rotate(-60.76 211.034 117.365)" fill="#fff"/><path d="M218.12 121.64a7.83 7.83 0 1 1-3-10.75 7.89 7.89 0 0 1 3 10.75zm-12.53-7a6.54 6.54 0 1 0 9-2.61 6.6 6.6 0 0 0-9.01 2.6z" fill="#d04874" fill-rule="evenodd"/><path d="M215.23 120a4.52 4.52 0 1 1-1.65-6.29 4.61 4.61 0 0 1 1.65 6.29zm-6.75-3.78a3.23 3.23 0 1 0 4.47-1.39 3.32 3.32 0 0 0-4.47 1.41z" fill="#d04874" fill-rule="evenodd"/><circle cx="210.84" cy="117.77" r="1.7" transform="rotate(-60.76 211.117 117.322)" fill="#d04874"/><path fill="#f9b05b" fill-rule="evenodd" d="M224.54 114.54l3.46.88 2.81-.82-1.92-1.3-4.35 1.24zm-.07-.95l2.31-2.53 2.83-.76-.97 2.11-4.17 1.18z"/><path d="M211.23 117.3a.493.493 0 1 0 .3.94l17.36-4.94-.25-.89z" fill="#0e263b" fill-rule="evenodd"/><ellipse cx="228.24" cy="112.86" rx=".25" ry=".47" transform="rotate(-12.48 228.599 110.465)" fill="#3d6996"/><path d="M207.31 73a2 2 0 1 1-2 2 2 2 0 0 1 2-2zm3 5.76a4.82 4.82 0 0 0 .73-.73l1.5.45a6.25 6.25 0 0 0 .38-.66l-1.14-1.07a4.76 4.76 0 0 0 .27-1l1.53-.36v-.76l-1.53-.36a4.74 4.74 0 0 0-.27-1l1.14-1.07a6.25 6.25 0 0 0-.38-.66l-1.5.45a4.81 4.81 0 0 0-.73-.73l.45-1.5a6.3 6.3 0 0 0-.66-.38l-1.07 1.14a4.75 4.75 0 0 0-1-.27l-.36-1.52h-.77l-.37 1.52a4.8 4.8 0 0 0-1 .27l-1-1.15a6.32 6.32 0 0 0-.66.38l.45 1.5a4.8 4.8 0 0 0-.79.75l-1.5-.45a6.34 6.34 0 0 0-.38.66l1.14 1.07a4.8 4.8 0 0 0-.27 1l-1.52.36v.76l1.52.36a4.8 4.8 0 0 0 .27 1l-1.14 1.07a6.34 6.34 0 0 0 .38.66l1.5-.49a4.81 4.81 0 0 0 .73.73l-.45 1.5a6.28 6.28 0 0 0 .66.38l1.06-1.12a4.77 4.77 0 0 0 1 .27l.36 1.52h.77l.36-1.52a4.8 4.8 0 0 0 1-.27l1.07 1.14a6.26 6.26 0 0 0 .66-.38z" fill="#1863b2" fill-rule="evenodd"/><path d="M216.53 67.79a1.59 1.59 0 1 1-1.86 1.27 1.59 1.59 0 0 1 1.86-1.27zm1.5 4.91a3.86 3.86 0 0 0 .67-.46l1.1.57a5 5 0 0 0 .39-.46l-.73-1a3.75 3.75 0 0 0 .35-.73l1.23-.06c0-.1 0-.2.07-.3s0-.2 0-.3l-1.13-.5a3.77 3.77 0 0 0-.06-.81l1-.67a4.86 4.86 0 0 0-.2-.57l-1.23.13a3.82 3.82 0 0 0-.46-.67l.57-1.1a4.94 4.94 0 0 0-.46-.39l-1 .73a3.77 3.77 0 0 0-.73-.35l-.06-1.23-.3-.06h-.3l-.5 1.13a3.79 3.79 0 0 0-.81.06l-.67-1a5 5 0 0 0-.57.2l.13 1.23a3.81 3.81 0 0 0-.67.46l-1.1-.57a5 5 0 0 0-.39.46l.73 1a3.79 3.79 0 0 0-.35.73l-1.23.06q0 .14-.07.3v.3l1.13.5a3.75 3.75 0 0 0 .06.81l-1 .67a5 5 0 0 0 .2.57l1.23-.13a3.83 3.83 0 0 0 .46.67l-.57 1.1a4.9 4.9 0 0 0 .46.39l1-.73a3.73 3.73 0 0 0 .73.35l.06 1.23.29.06h.3l.5-1.13a3.78 3.78 0 0 0 .81-.06l.67 1a5 5 0 0 0 .57-.2zm18.31-17.91c-1.51.47-2.61 2.32-2.57 4.51v.25l6.7-.12v-.25c0-2.19-1.2-4-2.73-4.42a2.2 2.2 0 1 0-1.41 0z" fill="#1863b2" fill-rule="evenodd"/><path d="M231.44 54.91c-1.27.39-2.2 2-2.16 3.79v.21l4-.07a6 6 0 0 1 .76-2.68l.07-.12a2.79 2.79 0 0 0-1.52-1.16 1.85 1.85 0 1 0-1.19 0zm10.02-.17a2.79 2.79 0 0 0-1.49 1.26l.08.12a6 6 0 0 1 .85 2.65l4-.07v-.21c0-1.84-1-3.37-2.29-3.72a1.85 1.85 0 1 0-1.19 0z" fill="#f9b05b" fill-rule="evenodd"/><path d="M176.12 70.35a6.56 6.56 0 0 0 5 6l1.24-6.07z" fill="#1863b2" fill-rule="evenodd"/><path d="M181.99 75.68a6.29 6.29 0 1 0-4.86-6.12v.1l6.06-.05z" fill="#f9b05b" fill-rule="evenodd"/><path d="M104.73 102.13a7.1 7.1 0 1 0-5-8.7 7.11 7.11 0 0 0 5 8.7z" fill="#1863b2" fill-rule="evenodd"/><path d="M104.91 101.47a6.41 6.41 0 1 0-4.53-7.86 6.42 6.42 0 0 0 4.53 7.86z" fill="#124b87" fill-rule="evenodd"/><path d="M105.01 101.11a6 6 0 1 0-4.27-7.4 6.05 6.05 0 0 0 4.27 7.4z" fill="#dae9f7" fill-rule="evenodd"/><path d="M108.14 89.44a6.041 6.041 0 1 0-3.13 11.67z" fill="#dae9f7" fill-rule="evenodd"/><path fill="#124b87" fill-rule="evenodd" d="M107.68 91.16l-.33 2.08-.32 2.08-.44-.11-.44-.12.76-1.97.77-1.96z"/><path fill="#124b87" fill-rule="evenodd" d="M103.25 94.39l1.71.27 1.71.27-.1.35-.1.36-1.61-.62-1.61-.63z"/><circle cx="106.04" cy="95.27" r=".68" transform="rotate(-74.98 106.305 94.928)" fill="#4673a1"/><circle cx="106.04" cy="95.27" r=".56" transform="rotate(-74.98 106.316 94.927)" fill="#f9b05b"/><path d="M107.74 90.29l.31.08.2-.76h-.32zm2.9.71l-.56.56.23.23.56-.56zm1.6 2.59l-.76.2.08.31.76-.2q-.03-.16-.08-.31zm.08 3.06l-.76-.2-.08.31.76.2v-.16zm-1.46 2.69l-.56-.56-.23.23.56.56zm-2.6 1.6l-.2-.76-.31.08.2.76zm-3.06.06l.2-.76-.31-.08-.2.76h.16zm-2.67-1.44l.56-.56-.23-.23-.56.56zM100.91 97l.76-.2-.08-.31-.76.2c.02.06.05.16.08.31zm-.08-3.1l.76.2.08-.31-.76-.2v.16zm1.45-2.69l.56.56.23-.23-.54-.54zm2.61-1.6l.2.76.31-.08-.2-.76z" fill="#1863b2" fill-rule="evenodd"/><path fill="#dae9f7" d="M83.919 144.385l5.487-16.839 14.043 4.577-5.487 16.838z"/><path fill="#fff" fill-rule="evenodd" d="M90.85 127.05l-6.44 16.41 10.25 4.03 5.03-2.76 4.84-12.31-13.68-5.37z"/><path fill="#f9b062" d="M86.704 141.857l1.246-3.174 1.22.479-1.247 3.174z"/><path fill="#e95a41" d="M88 142.357l1.738-4.43 1.22.478-1.74 4.431z"/><path fill="#f9b062" d="M89.294 142.885l1.44-3.667 1.22.479-1.44 3.667z"/><path fill="#e95a41" d="M90.6 143.38l1.605-4.086 1.22.478-1.605 4.087z"/><path fill="#f9b062" d="M91.909 143.899l2.036-5.185 1.22.479-2.037 5.184z"/><path fill="#3475a7" fill-rule="evenodd" d="M86.39 142.05l.03-.08 2.11-5.38.09.03-2.11 5.38 6.54 2.57-.03.08-6.63-2.6z"/><path fill="#94b8dd" d="M91.363 129.63l.066-.167 11.059 4.34-.066.168zm-.094.258l.065-.167 11.059 4.34-.066.168zm-.104.245l.066-.168 11.058 4.34-.066.168zm-.105.254l.067-.167 11.058 4.34-.065.168zm-.094.258l.066-.167 11.059 4.34-.066.168z"/><path fill="#94b8dd" fill-rule="evenodd" d="M90.93 130.73l11.06 4.34-.06.17-11.06-4.34.06-.17z"/><path fill="#94b8dd" d="M90.768 131.158l.066-.168 11.059 4.34-.066.168zm-.1.245l.066-.168 11.058 4.34-.065.168zm-.104.244l.066-.167 11.059 4.34-.066.168zm-.094.258l.065-.167 11.059 4.34-.066.168zm-.104.255l.066-.168 11.058 4.34-.066.168zm5.782 7.56l.066-.168 2.662 1.045-.065.167z"/><path fill="#94b8dd" fill-rule="evenodd" d="M96.11 139.82l2.66 1.04-.07.16-2.66-1.04.07-.16z"/><path fill="#94b8dd" d="M95.95 140.222l.066-.168 2.662 1.045-.066.168zm-.114.254l.066-.167 2.662 1.044-.066.168zm-.094.264l.066-.167 2.662 1.045-.065.167z"/><path fill="#94b8dd" fill-rule="evenodd" d="M95.71 140.83l2.66 1.05-.07.16-2.66-1.04.07-.17z"/><path fill="#94b8dd" d="M95.544 141.253l.066-.168 2.662 1.045-.066.168zm-.104.254l.066-.167 2.662 1.045-.066.167zm-.094.249l.065-.168 2.663 1.045-.066.167z"/><path fill="#94b8dd" fill-rule="evenodd" d="M95.31 141.85l2.66 1.04-.06.17-2.67-1.05.07-.16z"/><path fill="#94b8dd" d="M95.147 142.258l.066-.168 2.662 1.045-.065.168zm-.103.254l.065-.167 2.663 1.045-.066.167z"/><path fill="#94b8dd" fill-rule="evenodd" d="M95.01 142.61l2.66 1.04-.06.17-2.67-1.05.07-.16z"/><path fill="#94b8dd" d="M94.845 143.025l.066-.168 2.662 1.045-.066.168zm-.104.265l.066-.168 2.662 1.045-.065.167zm-.091.238l.066-.167 2.663 1.044-.066.168zm-.107.264l.066-.168 2.662 1.045-.066.168zm-.103.254l.065-.167 2.662 1.045-.066.167zm-.095.248l.065-.167 2.663 1.045-.066.167zm-.098.274l.066-.167 2.662 1.045-.066.168zm-.101.229l.066-.168 2.662 1.045-.065.168zm-.103.264l.065-.167 2.663 1.045-.066.167z"/><path d="M96.28 143.39c-.46 2.19-.87 3.21-1.61 4.1l5-2.76c-.99.07-1.85-.26-3.39-1.34z" fill="#b6d0ea" fill-rule="evenodd"/><path fill="#94b8dd" d="M94.065 130.066l.292-.744 6.06 2.378-.292.745z"/><path d="M99.48 136.31a1.73 1.73 0 0 0-.25-.11h-.11l-.3-.07h-.71l-.28.1-.13.07a1.73 1.73 0 0 0-.6.6 1.74 1.74 0 1 0 2.39-.63z" fill="#e95a41" fill-rule="evenodd"/><path d="M99.48 136.31l-.24-.12-.64 1.62.75 1.58a1.75 1.75 0 0 0 .13-3.08z" fill="#f39431" fill-rule="evenodd"/><path fill="#94b8dd" fill-rule="evenodd" d="M90.1 132.85l6.81 2.67-.06.16-6.81-2.67.06-.16zm-.1.25l6.81 2.67-.06.17-6.81-2.68.06-.16z"/><path fill="#94b8dd" d="M89.84 133.523l.065-.168 6.805 2.67-.066.168zm-.104.244l.066-.167 6.804 2.67-.066.168zm-.104.254l.066-.167 6.804 2.67-.065.168zm-.095.259l.066-.168 6.805 2.67-.066.168zm-.103.244l.065-.168 6.805 2.671-.066.168zm-.094.258l.065-.167 6.805 2.67-.066.168zm.217.959l.067-.167 6.798 2.704-.066.168zm-.104.245l.066-.167 6.799 2.705-.067.167z"/><path fill="#94b8dd" d="M89.047 135.559l.066-.168 6.804 2.671-.065.168z"/><path d="M143.35 76.22l-1.84.06A9.78 9.78 0 0 0 137.75 87c.21.73.82 2.43 6 2.25s5.71-1.92 5.87-2.66a9.78 9.78 0 0 0-4.48-10.42z" fill="#f9b05b" fill-rule="evenodd"/><path d="M143.26 84.32l-.06-1.7a2.23 2.23 0 0 1-1.19-.65 1.73 1.73 0 0 1-.41-1.11 1.59 1.59 0 0 1 .38-1.13 1.68 1.68 0 0 1 1.1-.56v-.4h.59v.4a1.76 1.76 0 0 1 1.05.41 1.71 1.71 0 0 1 .52 1l-1 .17a.84.84 0 0 0-.52-.63l.06 1.59a2.64 2.64 0 0 1 1.36.64 1.62 1.62 0 0 1 .39 1.07 1.8 1.8 0 0 1-.4 1.25 2 2 0 0 1-1.22.67v.76h-.59v-.75a1.88 1.88 0 0 1-1.16-.48 2.14 2.14 0 0 1-.6-1.21l1.05-.16a1.33 1.33 0 0 0 .26.55 1.11 1.11 0 0 0 .41.33zm-.15-4.27a.77.77 0 0 0-.37.29.73.73 0 0 0-.12.44.7.7 0 0 0 .14.4.89.89 0 0 0 .4.28v-1.41zm.74 4.31a.88.88 0 0 0 .49-.31.79.79 0 0 0 .17-.54.72.72 0 0 0-.18-.46 1 1 0 0 0-.54-.28z" fill="#1863b2" fill-rule="evenodd"/><path d="M143.31 75.9l-1.09-3.41a10.8 10.8 0 0 0-1.76.73 4.69 4.69 0 0 0-1 .74l2.11 2h.73z" fill="#f9b05b" fill-rule="evenodd"/><path fill="#c4afa8" fill-rule="evenodd" d="M141.96 73.95l-.46-.74.72-.72.41.89-.67.57z"/><path d="M141.53 73.23a7.13 7.13 0 0 1 2.52-.72c0 .17.13 3.46 0 3.44a12 12 0 0 1-1.63.3c.03-.12-.89-3.02-.89-3.02z" fill="#f9b05b" fill-rule="evenodd"/><path fill="#c4afa8" fill-rule="evenodd" d="M143.72 73.95l-.4-1.17.7-.27.14.99-.44.45z"/><path d="M143.32 72.78c.29 0 3.39.21 3.27.26a21 21 0 0 0-1.62 2.96c0 .19-1.49-.1-1.49-.1s-.15-3.13-.16-3.12z" fill="#f9b05b" fill-rule="evenodd"/><path fill="#1863b2" fill-rule="evenodd" d="M141.36 76.37l3.83-.22.02-.74-4.04.18.19.78z"/><rect x="68.5" y="110.77" width="2.22" height="1.28" rx=".4" ry=".4" transform="rotate(-63.43 69.878 110.984)" fill="#7d5965"/><path fill="#ebd4d5" fill-rule="evenodd" d="M67.04 116.87l1.55-2.48-1.43-.87-1.06 3.39.94-.04z"/><path d="M67.09 116.2l.39-1.54c.17-.58 0-1.36-.55-1.53l-1.76-.94a1.1 1.1 0 0 0-1.36.74l-.94 3.13c-.17.58 1.32.85 1.9 1l1.91.06c.58.2.24-.34.41-.92z" fill="#ebd4d5" fill-rule="evenodd"/><path d="M64.3 116.73a1.34 1.34 0 0 0 1.73-.73l1.63-4.07a1.337 1.337 0 0 0-2.48-1L63.53 115a1.34 1.34 0 0 0 .77 1.73z" fill="#d17962" fill-rule="evenodd"/><path d="M63.41 113.06l1.76.91a.47.47 0 0 0 .63-.2.47.47 0 0 0-.2-.63l-1.76-.91a.47.47 0 0 0-.63.2.47.47 0 0 0 .2.63zm-.42.94l1.87 1a.48.48 0 0 0 .45-.85l-1.87-1a.48.48 0 0 0-.45.85z" fill="#e3ced3" fill-rule="evenodd"/><path d="M62.77 115l1.71.85a.46.46 0 0 0 .62-.21.46.46 0 0 0-.21-.62l-1.71-.85a.46.46 0 0 0-.62.21.46.46 0 0 0 .21.62zm.07 1.35l1.46.48a.43.43 0 0 0 .54-.27v-.09a.43.43 0 0 0-.27-.54l-1.46-.48a.43.43 0 0 0-.54.27v.09a.43.43 0 0 0 .27.54z" fill="#e3ced3" fill-rule="evenodd"/><circle cx="58.32" cy="105.95" r="1.51" transform="rotate(-65.11 58.59 105.544)" fill="#dae9f7"/><path d="M57.12 110.56s2.81-1 4.37-.26l2.23 1 2.31-.19L67.2 108l-1.06-1.93-2.19-1a5.4 5.4 0 0 1-2.59-3.58z" fill="#dae9f7" fill-rule="evenodd"/><path d="M69.53 107.64a2.19 2.19 0 0 1 1 2.93l-.56 1.21a2.19 2.19 0 0 1-2.89 1.12l-3.41-1.58 2.44-5.26z" fill="#ec7a3b" fill-rule="evenodd"/><path d="M68.82 115.78l.07-.78a6 6 0 0 0-2-2.15l-1.8-.11c-.35 0-.77.22-.69.57s1.51.49 2 .58c-.3 2.33 2.39 2.23 2.42 1.89z" fill="#ebd4d5" fill-rule="evenodd"/><path fill="#dfeaf7" fill-rule="evenodd" d="M67.93 118.27l1.68-3.73-1.3-.63-1.59 3.76 1.21.6z"/><path fill="#1863b2" fill-rule="evenodd" d="M68.7 113.99l-1.45 4.62 5.7 1.99 1.51-4.66-5.76-1.95z"/><path fill="#10447a" fill-rule="evenodd" d="M67.97 116.3l-.72 2.31 5.7 1.99.67-2.06-5.65-2.24z"/><path d="M56.01 110.12a.65.65 0 0 0 1.17.54l4.25-9.17a.65.65 0 1 0-1.17-.54z" fill="#ec7a3b" fill-rule="evenodd"/><circle cx="263.87" cy="38.92" r="6.99" fill="#1863b2"/><path d="M262 39.37a3.1 3.1 0 0 0 .58.9 1.7 1.7 0 0 0 .74.46.85.85 0 0 0 .61 0 .64.64 0 0 0 .36-.42.65.65 0 0 0 0-.54 2.35 2.35 0 0 0-.74-.6 3.29 3.29 0 0 1-1.21-1.1 1.61 1.61 0 0 1-.07-1.25 2 2 0 0 1 1-1.27 2.59 2.59 0 0 1 1.75-.2l.18-.62.58.17-.17.61a3.21 3.21 0 0 1 .71.4 3.75 3.75 0 0 1 .63.6l-.94 1.11a2.45 2.45 0 0 0-.5-.56 1.74 1.74 0 0 0-.59-.31.88.88 0 0 0-.56 0 .49.49 0 0 0-.31.33.51.51 0 0 0 .06.44 2 2 0 0 0 .6.48h.05a3.47 3.47 0 0 1 1.25 1.07 1.72 1.72 0 0 1 .19.68 2.25 2.25 0 0 1-.09.78 2.28 2.28 0 0 1-1 1.37 2.38 2.38 0 0 1-1.71.27l-.32 1.08-.58-.17.31-1.07a3.19 3.19 0 0 1-1.1-.58 3.59 3.59 0 0 1-.82-1l1.19-1.07z" fill="#fff"/><path fill="#c49640" d="M161.35 127.52l-10.08-.96 4.08-9.26 10.08.95-4.08 9.27z"/><path fill="#fff" d="M150.731 121.206l10.289-6.039 7.375 12.566-10.289 6.039z"/><path fill="#84958f" d="M153.999 123.16l7.133-4.186.349.595-7.133 4.185zm.638 1.104l7.133-4.185.35.595-7.133 4.185zm.653 1.086l7.132-4.186.35.595-7.133 4.186zm.648 1.112l7.133-4.186.349.595-7.132 4.186zm.642 1.118l7.133-4.186.35.595-7.133 4.186z"/><path fill="#ffddbe" d="M157.247 128.68l7.141-4.19.35.596-7.142 4.19z"/><path fill="#f7ac2c" d="M161.35 127.52l-10.08-.96 4.91 8.36 14.16-8.31-4.91-8.36-4.08 9.27z"/><path fill="#ffcc8f" d="M159.51 127.34l-3.33 7.58 14.16-8.31-8.25-.78-2.58 1.51z"/><path d="M280.87 48.32c.27 0 .4.39.29.87s-.42.88-.69.88-.4-.39-.29-.88.42-.87.69-.87z" fill="#2e5983" fill-rule="evenodd"/><path d="M334.07 200.7c.88 1.8 1.92 7.23 1.08 8.35l-5.9-.07c-.18 0-.12-.68-.28-.67s-.23.6-.66.62c-2.38.1-8.39.37-9.77.11-1.64-.3-.46-1.12 3-2.62s6.35-5.75 6.35-5.75z" fill="#13314a" fill-rule="evenodd"/><path d="M336.2 127.29c-2 .94-16.87 1.64-16.87 1.64s.65 27.45 1.57 30.85c1.59 5.91 5.36 43.11 6.15 43l7.58-1.06s.26-53.25 1.44-56.65 2.16-14.49 2.16-15.54-2.03-2.24-2.03-2.24z" fill="#122f4a" fill-rule="evenodd"/><path d="M330.53 201.06c.88 1.8 1.92 7.23 1.08 8.35l-5.9-.07c-.18 0-.12-.68-.28-.67s-.23.6-.66.62c-2.38.1-8.39.37-9.77.11-1.64-.3-.46-1.12 3-2.62s6.33-5.78 6.33-5.78z" fill="#13314a" fill-rule="evenodd"/><path d="M332.43 127.4c-2 .94-16.87 1.64-16.87 1.64s.65 27.45 1.57 30.85c1.59 5.91 7 40.72 4.92 43.85-.4.61 9-1.37 9-1.37s.73-54.68 1.91-58.08 3.66-12.32 3.66-13.37-4.19-3.52-4.19-3.52z" fill="#14324e" fill-rule="evenodd"/><path d="M281.62 56.18a21.46 21.46 0 0 1-.86-3.61c.15-.3 1.12-3.65.89-4.13a8.66 8.66 0 0 0-3.51-2.67c-1.18-.26-5.08.78-4.6 1.14a24.82 24.82 0 0 0 2.47.59c0 .18-.12.55-.57 1.28-.24.39-2.41-.78-2.9-.5-1.37.78 1.45 3.91 2.55 4.88s1.23 1 1.23 1l2.57 5.25z" transform="translate(.53)" fill-rule="evenodd" fill="url(#a)"/><path d="M280.35 50l-8.11-2.17s-.65-.07-.65-.52a1.12 1.12 0 0 1 .37-.76l9 1.79z" fill="#1c4063" fill-rule="evenodd"/><path d="M272.64 47l-.68-.46-1.83.16 1.62 1z" fill="#1c4063" fill-rule="evenodd"/><path d="M281.37 52.83c-1.22 1.92-3.52 4.22-4.74 6.14 9.76 17.43 29.63 24.38 37.69 27.17 0 0 3.85 1.36 6.19-3.14s2-6.83 2-6.83c-14.55-2.92-32.27-10.82-41.14-23.34z" fill="#183857" fill-rule="evenodd"/><path d="M314.8 52.81a8.48 8.48 0 0 0-1.19 3.68c-3.54 3.93-3.38 11.72-.39 15.61 5.28 6.85 17.72 7.52 22.48-4 3.36-8.17 2.55-16.4-1.77-19.68-5.57-4.27-15.34-1.47-19.13 4.39z" transform="translate(.53)" fill-rule="evenodd" fill="url(#b)"/><path d="M339.16 58.58s1.64-1.1.61-4.45c-1-3.09-3.24-5-6.15-6.75-4-2.33-9.11-4.21-13.69-7.94-2.48 7.47-4.82 10-.45 15.91-.45.28-2.33 4.16-1.46 3.66s2.9-2.34 4-1.06c1.81 2 .53 5-3.36 7.36 0 0 1.29 2 2.4 4.13A35.44 35.44 0 0 0 324 73.1h.41a7.41 7.41 0 0 0 3.8 1.88c5.32-.11 15.48-11.82 10.95-16.4z" transform="translate(.53)" fill-rule="evenodd" fill="url(#c)"/><path d="M313.7 83.75c.48-.92.2-3.15.22-3.41.61-8.77 20.61-10.06 18.61-5.89l-.69 5z" fill="#fff" fill-rule="evenodd"/><path d="M324.53 85.91c-2.61-2.22-10.33-6.8-10.33-6.8-3.54 19.24-3.7 36.25 1.14 55.71 0 0 17.17-7.6 17-8.39s-7.81-40.52-7.81-40.52z" fill="#fff" fill-rule="evenodd"/><path d="M317.04 131.34c2.23 4.6 16.76 5.78 23 .69-4.7-24.56-3.36-54-8.6-57.47-2.81-1.66-11.14.45-15.73 4.66-8.67 7.91-.18 45.07 1.33 52.12z" fill="#183857" fill-rule="evenodd"/><path d="M320.84 58.54a1.43 1.43 0 0 1 1.58 1.31c.12.93-1.39 3.11-2.32 3.48s-1.91 0-1.79-1 1-.49 1.19-1.32-.79-.7-.31-1.42a3.21 3.21 0 0 1 1.65-1.05z" fill="#e3b5c8" fill-rule="evenodd"/><path fill="#ee8268" fill-rule="evenodd" d="M301.61 112.54l29.87 4.54-1.75 20.08-1.75.62-28.24-6.29 1.87-18.95z"/><path fill="#fffbec" fill-rule="evenodd" d="M301.72 112.85l29.16 4.59-1.57 19.38-1.28.39-28.83-5.08 1.13-18.9 1.39-.38z"/><path fill="#f7ac2c" fill-rule="evenodd" d="M299.86 113.16l29.88 4.54-1.76 20.08-29.12-5.72 1-18.9z"/><path d="M314.62 77l-1.15 5.76c1.29-1.22 9.64-8.52 10.66-8.35l-1.6-1.18c-1.17-.9-6.69 2.48-7.91 3.77z" fill="#fff" fill-rule="evenodd"/><path d="M308.83 129.74s-2.74-.45-3.07-.42a19.14 19.14 0 0 0-3.82 2c-2.26 1.6-.83 1.88-.4 1.93a3.63 3.63 0 0 1 .56.08s-.18.59.15.9a2.13 2.13 0 0 0 1.08.36 1.13 1.13 0 0 0 .75.56 3.66 3.66 0 0 0 1 0s.15.49.57.52a1.61 1.61 0 0 0 .6 0s.07.31.8.16 2.86-2.32 2.86-2.32z" transform="translate(.53)" fill-rule="evenodd" fill="url(#d)"/><path d="M318.67 87.86C317.91 75 331.88 72 332.83 86c1.75 25.89-21.86 47.84-22.42 47.72s-4.51-.95-4.12-4.36c14.49-21.93 13.16-42.43 12.38-41.5z" fill="#1b3f62" fill-rule="evenodd"/><path d="M332.74 31.87l-6.31-.43a.44.44 0 0 0-.5.36v.26a.44.44 0 0 0 .45.42l6.3.44a.44.44 0 0 0 .5-.36v-.26a.44.44 0 0 0-.44-.43zm-.08 1.13l-6.3-.43a.44.44 0 0 0-.5.36v.26a.44.44 0 0 0 .45.42l6.31.43a.44.44 0 0 0 .5-.36v-.26a.44.44 0 0 0-.45-.42zm-.13 1.23l-6.31-.43a.44.44 0 0 0-.5.36v.26a.44.44 0 0 0 .45.42l6.31.43a.44.44 0 0 0 .5-.36v-.26a.44.44 0 0 0-.45-.42zm-5.55.77l4.73.33c-.05.78-1.35 1.22-2.45 1.14s-2.33-.69-2.28-1.47z" fill="#1863b2"/><path d="M326.05 14.43a8.06 8.06 0 0 1 4.65-1.79 7 7 0 0 1 6.38 4.61 16.33 16.33 0 0 1-.33 4.82 39.5 39.5 0 0 0-2.22 4.05l-1.43 3.39s-.27 1.6-.94 1.55l-4.82-.33s-.88 0-.79-1.35a27.6 27.6 0 0 0-1.25-4.46s-1.59-4.12-1.5-5.36c0 0-.62-2.38 2.23-5.13z" fill="#f9b063"/><g clip-path="url(#e)"><path d="M327.53 30.35a14.06 14.06 0 0 0 .89-1.89 25.17 25.17 0 0 0 1-3 7.74 7.74 0 0 0 .36-2.72 1.6 1.6 0 0 0-.29-.85.87.87 0 0 0-.9-.34c-.36.15-.42.65-.38 1a1.86 1.86 0 0 0 .63 1.24 2.23 2.23 0 0 0 1.34.35 1.78 1.78 0 0 0 1.32-.49 1.42 1.42 0 0 0 .32-1.37.73.73 0 0 0-.79-.58c-.37.08-.54.5-.57.84a2.36 2.36 0 0 0 .63 1.69 1.1 1.1 0 0 0 1.11.32 1.75 1.75 0 0 0 1-1.06c.13-.3.43-1.12.07-1.38s-.68.35-.8.52a4.93 4.93 0 0 0-.58 1.81 13.66 13.66 0 0 0-.21 2.13c0 1.46.07 2.92 0 4.39 0 .13.23-.12.24-.22.07-1.59-.07-3.18 0-4.77a12.26 12.26 0 0 1 .36-2.48 2 2 0 0 1 .47-1c.21-.2.38-.06.41.18.06.67-.36 1.64-1.13 1.61s-1-.66-1.18-1.18a1.61 1.61 0 0 1-.09-1c.06-.18.36-.11.48 0a1 1 0 0 1 .21 1.42 2 2 0 0 1-1.59.28 1.48 1.48 0 0 1-1.16-.76 2.07 2.07 0 0 1-.23-.75 1.08 1.08 0 0 1 0-.34c0-.12.17-.09.26-.08a1 1 0 0 1 .73.65 4.58 4.58 0 0 1-.1 2.53 21.17 21.17 0 0 1-1 3.06 14.3 14.3 0 0 1-1 2.17c-.11.18 0 .26.12.08z" fill="#01387f"/></g><path d="M330.91 12.39a7.05 7.05 0 0 0-7.52 6.55 7.25 7.25 0 0 0 .69 3.58 18.58 18.58 0 0 1 2 6.72c.14 1.43.44 1.79 1.51 1.86l2 .14 2 .14c1.07.07 1.42-.24 1.75-1.64a18.7 18.7 0 0 1 2.92-6.38 7.21 7.21 0 0 0 1.18-3.45 7.05 7.05 0 0 0-6.55-7.52zM335.75 23a19.36 19.36 0 0 0-3 6.58 2.76 2.76 0 0 1-.41 1c-.07.07-.21.13-.68.1l-2-.14-2-.14c-.47 0-.6-.11-.66-.19a2.72 2.72 0 0 1-.27-1.1 19.33 19.33 0 0 0-2.07-6.93 6.59 6.59 0 0 1-.63-3.18 6.42 6.42 0 0 1 12.8.88 6.55 6.55 0 0 1-1.08 3.12z" fill="#fff"/><path d="M326.83 17.25c-.29.2-1.65 1.34-.43 3.59a.33.33 0 0 1-.13.45.32.32 0 0 1-.18 0 .34.34 0 0 1-.27-.17c-1.49-2.74.26-4.17.62-4.44a.33.33 0 1 1 .38.53z" fill="#fff"/><path d="M340.96 19.56l-2.3-.16a.25.25 0 0 0-.27.24.25.25 0 0 0 .23.27l2.3.16a.255.255 0 0 0 0-.51zM338.15 16a.25.25 0 0 0 .13 0l2.07-1a.25.25 0 0 0 .12-.34.26.26 0 0 0-.34-.12l-2.07 1a.25.25 0 0 0 .09.48zm-2.91-3.62a.2.2 0 0 0 .12 0 .26.26 0 0 0 .23-.11l1.28-1.92a.26.26 0 0 0-.07-.35.25.25 0 0 0-.35.07L335.17 12a.25.25 0 0 0 .07.38zm-12.28 1.89L321.05 13a.252.252 0 1 0-.28.42l1.91 1.29a.25.25 0 0 0 .12 0 .26.26 0 0 0 .23-.11.25.25 0 0 0-.07-.33zm16.74 10.05L337.79 23a.25.25 0 0 0-.35.07.26.26 0 0 0 .07.35l1.91 1.29a.24.24 0 0 0 .13 0 .25.25 0 0 0 .16-.46zm-17.54-2.15l-2.07 1a.25.25 0 0 0-.11.34.25.25 0 0 0 .21.14.24.24 0 0 0 .13 0l2.07-1a.253.253 0 1 0-.23-.45zm3.69-10.76a.26.26 0 0 0 .34.12.25.25 0 0 0 .12-.34l-1-2.08a.255.255 0 1 0-.46.22zm5.03-.47a.25.25 0 0 0 .27-.23l.16-2.3a.25.25 0 1 0-.5 0l-.16 2.3a.25.25 0 0 0 .23.23zm-8.35 7.61a.25.25 0 0 0-.23-.27l-2.3-.16a.255.255 0 0 0 0 .51l2.3.16a.25.25 0 0 0 .23-.24z" fill="#e0f7fe"/></g></svg>