<svg xmlns="http://www.w3.org/2000/svg" viewBox="0 0 400 225.08"><path fill="#4c926a" d="M0 0h400v225H0z"/><circle cx="200" cy="122.02" r="82.67" fill="#cafff9"/><circle cx="200" cy="122.02" r="88.81" fill="none" stroke="#00c9bf" stroke-miterlimit="10" stroke-width="2" stroke-dasharray="7.9714765548706055,7.9714765548706055"/><path d="M253.65 167.06a15.84 15.84 0 1 0 15.84 15.84 15.84 15.84 0 0 0-15.84-15.84z" fill="#ed3521" fill-rule="evenodd"/><path d="M269.49 182.9a15.84 15.84 0 0 0-15.84-15.84v31.67a15.84 15.84 0 0 0 15.84-15.83z" fill="#dd2b1d" fill-rule="evenodd"/><circle cx="253.65" cy="182.9" r="12.91" fill="#f1f2f2"/><path d="M266.56 182.9a12.9 12.9 0 0 0-12.91-12.9v25.8a12.91 12.91 0 0 0 12.91-12.9z" fill="#e3e5e5" fill-rule="evenodd"/><path d="M238.88 168a1.68 1.68 0 0 1 1.85-.36 7.09 7.09 0 0 1 6.79-.43 16.86 16.86 0 0 0-9.45 9.36 7.09 7.09 0 0 1 .46-6.73 1.68 1.68 0 0 1 .36-1.85z" fill="#ed3521" fill-rule="evenodd"/><path d="M254 184.39a1.41 1.41 0 0 1-1-.19l-7.2 5.26-.25-.31 6.79-6a1.41 1.41 0 1 1 2.8.13l8.45 3.26-.15.39-8.43-3.25a1.41 1.41 0 0 1-1 .76z" fill="#9e451e" fill-rule="evenodd"/><path d="M243.5 193.58a16.84 16.84 0 0 0 2.9 2.22l-2.4 2.4a1.81 1.81 0 0 1-2.56 0 1.81 1.81 0 0 1 0-2.56l.59-.59z" fill="#ed3521" fill-rule="evenodd"/><path d="M268.42 168a1.68 1.68 0 0 1 .36 1.85 7.1 7.1 0 0 1 .46 6.71 16.86 16.86 0 0 0-9.43-9.35 7.09 7.09 0 0 1 6.77.44 1.68 1.68 0 0 1 1.84.35zm-3.17 27.05l.59.59a1.81 1.81 0 0 1 0 2.56 1.81 1.81 0 0 1-2.56 0l-2.38-2.4a16.85 16.85 0 0 0 2.9-2.22z" fill="#dd2b1d" fill-rule="evenodd"/><circle cx="253.65" cy="172.15" r="1.31" fill="#9e451e"/><circle cx="253.65" cy="193.64" r="1.31" fill="#9e451e"/><circle cx="264.39" cy="182.9" r="1.31" fill="#9e451e"/><circle cx="242.91" cy="182.9" r="1.31" fill="#9e451e"/><path d="M274.45 149.88l3.5 10.6c-5.37 1.28-48.36 10.23-63.09-27.84l21-11.49s-1.11 28.37 38.59 28.73z" fill="#453647"/><path d="M282.54 134.17H270l3.94 33.34c0 1 3.86 1.73 8.61 1.73s8.61-.77 8.61-1.73l3.94-33.34z" fill="#544356"/><path d="M295.31 134.17h-25.64a1.61 1.61 0 0 1-1.61-1.61 1.61 1.61 0 0 1 1.61-1.61h25.64a1.61 1.61 0 0 1 1.61 1.61 1.61 1.61 0 0 1-1.61 1.61z" fill="#665368"/><path fill="#b39eb7" d="M272.66 156.84h19.75l1.69-14.25h-23.12l1.68 14.25z"/><ellipse cx="282.35" cy="149.71" rx="4.9" ry="3.51" transform="rotate(-45 282.346 149.719)" fill="#665368"/><path d="M285.14 146.93a2.6 2.6 0 0 0-2.79 1.53c-.89 1.62-.87 2.89-2.88 3.88a2.58 2.58 0 0 0 2.11-.5 4.63 4.63 0 0 0 1.67-2.84 3.51 3.51 0 0 1 1.89-2.07zm8.47-18.93h-22.46a1.48 1.48 0 0 0-1.48 1.48V131h25.42v-1.46a1.48 1.48 0 0 0-1.48-1.54z" fill="#453647"/><path fill="#665368" d="M293.61 128.03h-9.36l3.4-2.32h5.96v2.32z"/><path d="M291.15 167.52l1.26-10.67 1.68-14.26 1-8.41h.22a1.61 1.61 0 1 0 0-3.21h-.22v-1.46a1.48 1.48 0 0 0-1.48-1.48v-2.32h-6l-3.4 2.32h-1.72v41.21c4.8 0 8.66-.77 8.66-1.72z" fill="#453647" opacity=".48"/><path d="M289.85 151.83h5a1.86 1.86 0 0 0 1.86-1.86 1.86 1.86 0 0 0-1.86-1.86h-5A1.86 1.86 0 0 0 288 150a1.86 1.86 0 0 0 1.85 1.83z" fill="#fecd9b"/><path d="M289.85 155.55h5a1.86 1.86 0 0 0 1.86-1.86 1.86 1.86 0 0 0-1.86-1.86h-5a1.86 1.86 0 0 0-1.86 1.86 1.86 1.86 0 0 0 1.86 1.86z" fill="#fecd9b"/><path d="M289.85 159.26h5a1.86 1.86 0 0 0 1.86-1.86 1.86 1.86 0 0 0-1.86-1.86h-5a1.86 1.86 0 0 0-1.85 1.86 1.86 1.86 0 0 0 1.85 1.86zm0 3.74h5a1.86 1.86 0 0 0 1.86-1.86 1.86 1.86 0 0 0-1.86-1.86h-5a1.86 1.86 0 0 0-1.86 1.86 1.86 1.86 0 0 0 1.86 1.86z" fill="#fecd9b"/><path d="M289.85 161.92h5a1.85 1.85 0 0 0 1.77-1.33 1.84 1.84 0 0 1 .09.53 1.86 1.86 0 0 1-1.86 1.86h-5a1.86 1.86 0 0 1-1.86-1.86 1.84 1.84 0 0 1 .09-.53 1.85 1.85 0 0 0 1.77 1.33zm0-3.71h5a1.85 1.85 0 0 0 1.77-1.33 1.84 1.84 0 0 1 .09.53 1.86 1.86 0 0 1-1.86 1.86h-5a1.86 1.86 0 0 1-1.85-1.87 1.84 1.84 0 0 1 .09-.53 1.85 1.85 0 0 0 1.76 1.34zm0-3.72h5a1.85 1.85 0 0 0 1.77-1.33 1.84 1.84 0 0 1 .09.53 1.86 1.86 0 0 1-1.86 1.86h-5a1.86 1.86 0 0 1-1.86-1.86 1.84 1.84 0 0 1 .09-.53 1.85 1.85 0 0 0 1.77 1.33zm0-3.72h5a1.85 1.85 0 0 0 1.77-1.33 1.84 1.84 0 0 1 .09.53 1.86 1.86 0 0 1-1.86 1.86h-5A1.86 1.86 0 0 1 288 150a1.84 1.84 0 0 1 .09-.53 1.85 1.85 0 0 0 1.76 1.3z" fill="#f4b073"/><path d="M270.89 151.3h5a1.86 1.86 0 0 0 1.86-1.86 1.86 1.86 0 0 0-1.86-1.86h-5a1.86 1.86 0 0 0-1.86 1.86 1.86 1.86 0 0 0 1.86 1.86z" fill="#fecd9b"/><path d="M270.89 150.24h5a1.85 1.85 0 0 0 1.77-1.33 1.84 1.84 0 0 1 .09.53 1.86 1.86 0 0 1-1.86 1.86h-5a1.86 1.86 0 0 1-1.86-1.86 1.84 1.84 0 0 1 .09-.53 1.85 1.85 0 0 0 1.77 1.33z" fill="#f4b073"/><path fill="#665368" d="M105 198.64h190.01v26.44H105z"/><path fill="#544356" d="M262.44 198.64h32.57v26.44h-32.57z"/><path fill="#544356" d="M105 198.64h190.01v9.85H105z"/><path fill="#f4b073" d="M193.88 104.92h12.23v11.83h-12.23z"/><path fill="#453647" d="M201.81 122.02l4.31 59.54-6.13 2.5-6.12-2.5 4.24-59.54h3.7z"/><path fill="#544356" d="M205.58 120.83l-5.56 4.27-5.62-4.27 5.59-4.57 5.59 4.57z"/><path fill="#f1f2f2" d="M208.78 106.65l-4.02 15.47-4.77-5.86 6.11-10.06 2.68.45z"/><path d="M221.75 108.82l-13-2.18-6.66 25.63-2.09 27.31v27.28h32.6v-65.21a13 13 0 0 0-10.85-12.83z" fill="#453647"/><path fill="#544356" d="M208.67 107.08l4.52 19.8-7.17 4.5 2.65 9.47-8.68 18.73 2.13-27.3 6.55-25.2z"/><path fill="#f1f2f2" d="M191.2 106.65l4.02 15.47 4.77-5.86-6.11-10.06-2.68.45z"/><path d="M178.23 108.82l13-2.18 6.66 25.63 2.13 27.3v27.28h-32.64v-65.2a13 13 0 0 1 10.85-12.83z" fill="#544356"/><path fill="#665368" d="M191.32 107.08l-4.53 19.8 7.18 4.5-2.65 9.47 8.67 18.73-2.13-27.3-6.54-25.2z"/><path d="M200 47.9a23.27 23.27 0 0 1 9.24 1.87c8 3.37 12.72 10.5 12.51 18-.31 11.16-2.24 23-4.64 27.68-3.07 6-10 11.64-17.1 11.64z" fill="#f4b073"/><path d="M223 75.57a3.4 3.4 0 0 0-2.81.53c-.1.49-.22 1-.36 1.44l-3.91 12.18c2.52 2.12 6.51.67 8.55-3 3.17-5.72 2-9.87-1.47-11.15z" fill="#f4b073"/><path d="M221.26 80.31h-.07c-.83-.33-1.23 0-2.11.2.84-1.2 1.89-1.9 3-1.27 2.48 1.4 1 5.94 1 5.94a9.25 9.25 0 0 0-1-4.1c-.17 3.71-2.62 3.7-2.62 3.7 1.13-.78 1.65-3.48 1.8-4.47z" fill="#ea9957"/><path d="M200 47.9a23.27 23.27 0 0 0-9.24 1.87c-8 3.37-12.72 10.5-12.51 18 .31 11.16 2.24 23 4.64 27.68 3.07 6 10 11.64 17.1 11.64z" fill="#fecd9b"/><path d="M177 75.57a3.4 3.4 0 0 1 2.81.53c.1.49.22 1 .36 1.44l3.91 12.18c-2.52 2.12-6.51.67-8.55-3-3.18-5.72-2.01-9.87 1.47-11.15z" fill="#fecd9b"/><path d="M178.72 80.31h.07c.83-.33 1.23 0 2.11.2-.84-1.2-1.89-1.9-3-1.27-2.48 1.4-1 5.94-1 5.94a9.25 9.25 0 0 1 1-4.1c.17 3.71 2.62 3.7 2.62 3.7-1.13-.78-1.64-3.48-1.8-4.47z" fill="#f4b073"/><path d="M222.58 55c-5.51-8-17.41-9.61-22.59-9.61S182.91 47.06 177.4 55c-4.23 6.11 1.31 20.57 1.31 20.57s2.05.45 2.9 3.39l1.84-15.74L200 65.06l16.54-1.84L218.37 79c.85-2.94 2.9-3.39 2.9-3.39s5.54-14.49 1.31-20.61z" fill="#7a3814"/><path d="M183.46 63.23l-7.62-.85a48.6 48.6 0 0 0 2.88 13.2s2.05.45 2.9 3.39zm33.07 0l7.62-.85a48.6 48.6 0 0 1-2.88 13.2s-2.05.45-2.9 3.39zm-18.45.77s-9.45-1.51-9-10c0 0-5.22 5.55-.83 10.29 3.98 4.25 9.83-.29 9.83-.29z" fill="#9e451e"/><path d="M196.4 65.38s-9.19-6.85.78-18c0 0-3 12.07 9.1 16.05 0-.03-4.96 4.57-9.88 1.95z" fill="#9e451e"/><path d="M203.1 63s-3.29-3.66-1-9.92c0 0 1.44 9.28 14.41 10.13.04.02-7.77 5.57-13.41-.21z" fill="#9e451e"/><circle cx="199.99" cy="167.62" r="1.88" fill="#186884"/><circle cx="199.99" cy="179.43" r="1.88" fill="#186884"/><path d="M193.37 80.07h-1.57a1.8 1.8 0 0 0-3.6 0h-1.57a3.37 3.37 0 0 1 6.75 0zm20.09 0h-1.57a1.8 1.8 0 1 0-3.6 0h-1.57a3.37 3.37 0 1 1 6.75 0z" fill="#7a3814"/><path d="M181.62 79a38.1 38.1 0 0 0-.42 11.73 25.48 25.48 0 0 0 1.69 4.74c3.07 6 10 11.64 17.1 11.64V86.63a26.84 26.84 0 0 0-9.54 2.37c-5.55 2.83-8.83-10-8.83-10z" fill="#9e451e"/><path d="M218.37 79a38.1 38.1 0 0 1 .42 11.73 25.48 25.48 0 0 1-1.69 4.74c-3.07 6-10 11.64-17.1 11.64V86.63a26.84 26.84 0 0 1 9.55 2.37c5.54 2.83 8.82-10 8.82-10z" fill="#7a3814"/><ellipse cx="199.99" cy="86.63" rx="4.56" ry="2.86" fill="#f4b073"/><path d="M200 101.15a8.12 8.12 0 0 0 8.12-8.15h-16.24a8.12 8.12 0 0 0 8.12 8.15z" fill="#c90d55"/><path d="M200 96.53a21 21 0 0 0-6.71 1.07 8.12 8.12 0 0 0 13.42 0 21 21 0 0 0-6.71-1.07z" fill="#ee2a7b"/><path d="M204.55 86.63c0-1.58-2-2.86-4.56-2.86v5.73c2.52 0 4.56-1.29 4.56-2.87z" fill="#ea9957"/><path d="M192.27 95.51h15.46a8.11 8.11 0 0 0 .39-2.49h-16.24a8.11 8.11 0 0 0 .39 2.49zm2.07 3.33a8.11 8.11 0 0 0 11.33 0z" fill="#fff"/><path d="M132.32 84.34h-11.16c.47 5.5 5.46 49.13 46.23 51.18l4.32-23.52s-26.59 9.91-39.39-27.66z" fill="#544356"/><path d="M125.54 149.88l-3.5 10.6c5.37 1.28 48.36 10.23 63.09-27.84l-21-11.49s1.1 28.37-38.59 28.73z" fill="#544356"/><path fill="#9e451e" d="M113.26 61.99l21.16-17.55 21.17 17.55v24.84h-42.33V61.99z"/><rect x="119.78" y="48.05" width="29.28" height="28.82" rx=".39" ry=".39" fill="#f1f2f2"/><path d="M125.46 70.1v1.22h-1.22V70.1h1.22m.16-.16h-1.54v1.54h1.54v-1.53z" fill="#d1d3d4"/><path fill="#00c9bf" d="M124.86 71.28l-.41-.74.14-.08.27.5.71-1.29.14.08-.85 1.53z"/><path d="M124.86 71.44l-.52-.94.27-.15.24.44.68-1.23.27.15zm-.31-.88l.31.55.74-1.34-.74 1.34z" fill="#00c9bf"/><path fill="#d1d3d4" d="M127.67 60.85h17.7v1.54h-17.7zm0 6.06h17.7v1.54h-17.7zm0-3.03h17.7v1.54h-17.7zm0 6.07h17.7v1.54h-17.7zm-4.19 3.03h21.9v1.54h-21.9z"/><path fill="#facb34" d="M113.26 61.99l17.55 12.42-17.55 12.42V61.99zm42.33 0l-17.55 12.42 17.55 12.42V61.99z"/><path fill="#f8a81d" d="M138.05 74.41h-7.24v-.01l-17.55 12.43h42.33l-17.54-12.42z"/><circle cx="134.42" cy="54.66" r="3.22" fill="#ed3521"/><path d="M155.59 86.83V62l-6.52-5.41v-8.15a.39.39 0 0 0-.39-.39h-9.9l-4.35-3.61v42.39z" fill="#590f18" opacity=".1"/><path d="M117.24 73h-5a1.86 1.86 0 0 1-1.86-1.86 1.86 1.86 0 0 1 1.86-1.86h5a1.86 1.86 0 0 1 1.86 1.86 1.86 1.86 0 0 1-1.86 1.86z" fill="#fecd9b"/><path d="M117.24 76.74h-5a1.86 1.86 0 0 1-1.86-1.86 1.86 1.86 0 0 1 1.9-1.88h5a1.86 1.86 0 0 1 1.86 1.86 1.86 1.86 0 0 1-1.9 1.88z" fill="#fecd9b"/><path d="M117.24 80.46h-5a1.86 1.86 0 0 1-1.86-1.86 1.86 1.86 0 0 1 1.86-1.86h5a1.86 1.86 0 0 1 1.86 1.86 1.86 1.86 0 0 1-1.86 1.86zm0 3.72h-5a1.86 1.86 0 0 1-1.86-1.86 1.86 1.86 0 0 1 1.86-1.86h5a1.86 1.86 0 0 1 1.86 1.86 1.86 1.86 0 0 1-1.86 1.86z" fill="#fecd9b"/><path d="M117.24 83.12h-5a1.85 1.85 0 0 1-1.77-1.33 1.84 1.84 0 0 0-.09.53 1.86 1.86 0 0 0 1.86 1.86h5a1.86 1.86 0 0 0 1.86-1.86 1.84 1.84 0 0 0-.09-.53 1.85 1.85 0 0 1-1.77 1.33zm0-3.72h-5a1.85 1.85 0 0 1-1.77-1.33 1.84 1.84 0 0 0-.09.53 1.86 1.86 0 0 0 1.86 1.86h5a1.86 1.86 0 0 0 1.86-1.86 1.84 1.84 0 0 0-.09-.53 1.85 1.85 0 0 1-1.77 1.33zm0-3.71h-5a1.85 1.85 0 0 1-1.77-1.33 1.84 1.84 0 0 0-.09.53 1.86 1.86 0 0 0 1.86 1.86h5a1.86 1.86 0 0 0 1.86-1.86 1.84 1.84 0 0 0-.09-.53 1.85 1.85 0 0 1-1.77 1.33zm0-3.69h-5a1.85 1.85 0 0 1-1.77-1.33 1.84 1.84 0 0 0-.09.53 1.86 1.86 0 0 0 1.9 1.8h5a1.86 1.86 0 0 0 1.86-1.86 1.84 1.84 0 0 0-.09-.53 1.85 1.85 0 0 1-1.81 1.39z" fill="#f4b073"/><path d="M267.66 84.34h11.17c-.47 5.5-5.46 49.13-46.23 51.18L228.28 112s26.59 9.91 39.38-27.66z" fill="#453647"/><rect x="241.73" y="27.14" width="45" height="59.69" rx="3.21" ry="3.21" fill="#665368"/><rect x="244.17" y="29.57" width="40.11" height="54.83" rx="3.34" ry="3.34" fill="#f1f2f2"/><path d="M284.28 82.31V31.66a2.09 2.09 0 0 0-2.09-2.09h-17.94V84.4h17.94a2.09 2.09 0 0 0 2.09-2.09z" fill="#590f18" fill-rule="evenodd" opacity=".1"/><path d="M282.75 73h5a1.86 1.86 0 0 0 1.86-1.86 1.86 1.86 0 0 0-1.86-1.86h-5a1.86 1.86 0 0 0-1.86 1.86 1.86 1.86 0 0 0 1.86 1.86z" fill="#fecd9b"/><path d="M282.75 76.74h5a1.86 1.86 0 0 0 1.86-1.86A1.86 1.86 0 0 0 287.7 73h-5a1.86 1.86 0 0 0-1.86 1.86 1.86 1.86 0 0 0 1.91 1.88z" fill="#fecd9b"/><path d="M282.75 80.46h5a1.86 1.86 0 0 0 1.86-1.86 1.86 1.86 0 0 0-1.86-1.86h-5a1.86 1.86 0 0 0-1.86 1.86 1.86 1.86 0 0 0 1.86 1.86zm0 3.72h5a1.86 1.86 0 0 0 1.86-1.86 1.86 1.86 0 0 0-1.86-1.86h-5a1.86 1.86 0 0 0-1.86 1.86 1.86 1.86 0 0 0 1.86 1.86z" fill="#fecd9b"/><path d="M282.75 83.12h5a1.85 1.85 0 0 0 1.77-1.33 1.84 1.84 0 0 1 .09.53 1.86 1.86 0 0 1-1.86 1.86h-5a1.86 1.86 0 0 1-1.86-1.86 1.84 1.84 0 0 1 .09-.53 1.85 1.85 0 0 0 1.77 1.33zm0-3.72h5a1.85 1.85 0 0 0 1.77-1.33 1.84 1.84 0 0 1 .09.53 1.86 1.86 0 0 1-1.86 1.86h-5a1.86 1.86 0 0 1-1.86-1.86 1.84 1.84 0 0 1 .09-.53 1.85 1.85 0 0 0 1.77 1.33zm0-3.71h5a1.85 1.85 0 0 0 1.77-1.33 1.84 1.84 0 0 1 .09.53 1.86 1.86 0 0 1-1.86 1.86h-5a1.86 1.86 0 0 1-1.86-1.86 1.84 1.84 0 0 1 .09-.53 1.85 1.85 0 0 0 1.77 1.33zm0-3.69h5a1.85 1.85 0 0 0 1.77-1.33 1.84 1.84 0 0 1 .09.53 1.86 1.86 0 0 1-1.91 1.8h-5a1.86 1.86 0 0 1-1.86-1.86 1.84 1.84 0 0 1 .09-.53 1.85 1.85 0 0 0 1.82 1.39z" fill="#f4b073"/><path fill="#00c9bf" d="M250.05 80.31v-9.24h4.63v9.24zm5.94-.01V66.12h4.63V80.3zm5.94 0V68.81h4.63V80.3zm5.95 0V62.28h4.63V80.3zm5.93 0V55.85h4.63V80.3z"/><path d="M252.37 63.33a.89.89 0 0 1-.67-1.48l6.41-7.23 5.94 3.2 11.41-13A.89.89 0 0 1 276.8 46l-12.35 14-5.94-3.2L253 63a.89.89 0 0 1-.63.33z" fill="#ed3521"/><path fill="#ed3521" d="M274.29 47.19l-3.16-2.84 4.04-1.32 4.04-1.31-.88 4.15-.88 4.16-3.16-2.84z"/><path fill="#544356" d="M256.63 25.3h15.19V30h-15.19z"/><path fill="#665368" d="M258.79 28.08h10.89v3.84h-10.89z"/><path fill="#00c9bf" d="M250.05 36.54h17.08v1.64h-17.08zm0 2.86h9.56v1.64h-9.56zm0 2.86h9.56v1.64h-9.56z"/><path d="M125.46 61v1.22h-1.22V61h1.22m.16-.16h-1.54v1.54h1.54v-1.53z" fill="#d1d3d4"/><path fill="#00c9bf" d="M124.86 62.18l-.41-.74.14-.08.27.5.71-1.29.14.08-.85 1.53z"/><path d="M124.86 62.34l-.52-.94.27-.15.24.44.68-1.23.27.15zm-.31-.88l.31.55.74-1.34-.74 1.33z" fill="#00c9bf"/><path d="M125.46 64v1.22h-1.22V64h1.22m.16-.16h-1.54v1.54h1.54v-1.5z" fill="#d1d3d4"/><path fill="#00c9bf" d="M124.86 65.21l-.41-.74.14-.08.27.5.71-1.28.14.07-.85 1.53z"/><path d="M124.86 65.38l-.52-.94.27-.15.24.44.68-1.23.27.15zm-.31-.88l.31.55.74-1.34-.74 1.34z" fill="#00c9bf"/><path d="M125.46 67.07v1.22h-1.22v-1.22h1.22m.16-.16h-1.54v1.54h1.54v-1.54z" fill="#d1d3d4"/><path fill="#00c9bf" d="M124.86 68.25l-.41-.75.14-.07.27.49.71-1.28.14.08-.85 1.53z"/><path d="M124.86 68.41l-.52-.94.27-.15.24.44.68-1.23.27.15zm-.31-.88l.31.55.74-1.34-.74 1.34z" fill="#00c9bf"/><path fill="#746277" d="M87.24 198.64h225.51v7.8H87.24z"/><path fill="#665368" d="M274.1 198.64h38.65v7.8H274.1z"/><rect x="146.78" y="141.73" width="85.82" height="49.71" rx="7.09" ry="7.09" fill="#746277"/><path d="M228.16 141.73h-38.47v49.71h38.47a4.44 4.44 0 0 0 4.44-4.44v-40.83a4.44 4.44 0 0 0-4.44-4.44z" fill="#665368"/><path d="M228.16 141.73h-76.94a4.44 4.44 0 0 0-4.44 4.44v1a4.44 4.44 0 0 1 4.44-4.44h76.94a4.44 4.44 0 0 1 4.44 4.44v-1a4.44 4.44 0 0 0-4.44-4.44z" fill="#806d84"/><path d="M228.74 188.62h-78.1a3.86 3.86 0 0 1-3.86-3.86v2.82a3.86 3.86 0 0 0 3.86 3.86h78.1a3.86 3.86 0 0 0 3.86-3.86v-2.82a3.86 3.86 0 0 1-3.86 3.86z" fill="#665368"/><path d="M228.74 188.62h-39.05v2.82h38.47a4.44 4.44 0 0 0 4.44-4.44v-2.23a3.86 3.86 0 0 1-3.86 3.85z" fill="#544356"/><path d="M227.57 198.64h-75.76a5 5 0 0 1-5-5h85.79a5 5 0 0 1-5.03 5z" fill="#746277"/><path d="M189.69 198.64h37.88a5 5 0 0 0 5-5h-42.88z" fill="#665368"/><path d="M227.57 197h-75.76a5 5 0 0 1-4.76-3.4h-.28a5 5 0 0 0 5 5h75.76a5 5 0 0 0 5-5h-.28a5 5 0 0 1-4.68 3.4z" fill="#665368"/><circle cx="208.26" cy="196.12" r="1.25" fill="#544356"/><circle cx="203.77" cy="196.12" r="1.25" fill="#544356"/><circle cx="189.69" cy="166.58" r="4.39" fill="#544356"/><circle cx="189.69" cy="166.58" r="4.39" fill="#544356"/><path fill="#544356" d="M159.06 191.43h11.64v2.17h-11.64zm49.6 0h11.64v2.17h-11.64z"/><rect x="106.43" y="126.02" width="24.25" height="42.47" rx="1.67" ry="1.67" fill="#665368"/><rect x="116.33" y="127.24" width="6.41" height=".48" rx=".24" ry=".24" fill="#544356"/><circle cx="115.07" cy="127.48" r=".48" fill="#544356"/><path d="M129 127.24h-4.1a.84.84 0 0 0-.62.28l-.91 1a.84.84 0 0 1-.62.28h-8.39a.84.84 0 0 1-.62-.28l-.91-1a.84.84 0 0 0-.62-.28h-4.14a.41.41 0 0 0-.41.41v39.2a.41.41 0 0 0 .41.41h21a.41.41 0 0 0 .41-.41v-39.2a.41.41 0 0 0-.48-.41z" fill="#15b0bf"/><path d="M129 127.24h-4.1a.84.84 0 0 0-.62.28l-.91 1a.84.84 0 0 1-.62.28h-8.39a.84.84 0 0 1-.62-.28l-.91-1a.84.84 0 0 0-.62-.28h-4.14a.41.41 0 0 0-.41.41V163h21.8v-35.35a.41.41 0 0 0-.46-.41z" fill="#78ddd5"/><path d="M129 127.24h-4.1a.84.84 0 0 0-.62.28l-.91 1a.84.84 0 0 1-.62.28h-4V163h10.73v-35.35a.41.41 0 0 0-.48-.41z" fill="#61cec3"/><path d="M112.06 165.89l-1.32-.76 1.32-.76zm-1-.76l.79.45v-.91zm8.45.7h-1.58v-.74l.79-.68.79.68zm-1.4-.18h1.23v-.48l-.61-.53-.61.53zm7.56.18a.7.7 0 1 1 .7-.7.7.7 0 0 1-.7.7zm0-1.21a.52.52 0 1 0 .52.52.52.52 0 0 0-.52-.53z" fill="#fff"/><path d="M115.31 143.43a3.8 3.8 0 0 1 1.93-1.33 2.76 2.76 0 0 0 2.94 0 3.8 3.8 0 0 1 1.93 1.33 5.28 5.28 0 1 0-6.81 0zm3.4-7.21a2.82 2.82 0 1 1-2.81 2.78 2.82 2.82 0 0 1 2.82-2.78z" fill="#fff" fill-rule="evenodd"/><circle cx="122.89" cy="153.05" r="2.5" fill="#ed3521"/><circle cx="114.54" cy="153.05" r="2.5" fill="#15b0bf"/><path d="M124.63 146.65h-11.82a.76.76 0 0 1-.76-.76.76.76 0 0 1 .76-.76h11.82a.76.76 0 0 1 .76.76.76.76 0 0 1-.76.76z" fill="#fff"/><path d="M110.13 151.83h-5a1.86 1.86 0 0 1-1.86-1.86 1.86 1.86 0 0 1 1.86-1.86h5A1.86 1.86 0 0 1 112 150a1.86 1.86 0 0 1-1.87 1.83z" fill="#fecd9b"/><path d="M110.13 155.55h-5a1.86 1.86 0 0 1-1.86-1.86 1.86 1.86 0 0 1 1.86-1.86h5a1.86 1.86 0 0 1 1.86 1.86 1.86 1.86 0 0 1-1.86 1.86z" fill="#fecd9b"/><path d="M110.13 159.26h-5a1.86 1.86 0 0 1-1.86-1.86 1.86 1.86 0 0 1 1.86-1.86h5a1.86 1.86 0 0 1 1.87 1.86 1.86 1.86 0 0 1-1.87 1.86zm0 3.74h-5a1.86 1.86 0 0 1-1.86-1.86 1.86 1.86 0 0 1 1.86-1.86h5a1.86 1.86 0 0 1 1.86 1.86 1.86 1.86 0 0 1-1.86 1.86z" fill="#fecd9b"/><path d="M110.13 161.92h-5a1.85 1.85 0 0 1-1.77-1.33 1.84 1.84 0 0 0-.09.53 1.86 1.86 0 0 0 1.86 1.86h5a1.86 1.86 0 0 0 1.86-1.86 1.84 1.84 0 0 0-.09-.53 1.85 1.85 0 0 1-1.77 1.33zm0-3.71h-5a1.85 1.85 0 0 1-1.77-1.33 1.84 1.84 0 0 0-.09.53 1.86 1.86 0 0 0 1.86 1.86h5a1.86 1.86 0 0 0 1.87-1.87 1.84 1.84 0 0 0-.09-.53 1.85 1.85 0 0 1-1.78 1.34zm0-3.72h-5a1.85 1.85 0 0 1-1.77-1.33 1.84 1.84 0 0 0-.09.53 1.86 1.86 0 0 0 1.86 1.86h5a1.86 1.86 0 0 0 1.86-1.86 1.84 1.84 0 0 0-.09-.53 1.85 1.85 0 0 1-1.77 1.33zm0-3.72h-5a1.85 1.85 0 0 1-1.77-1.33 1.84 1.84 0 0 0-.09.53 1.86 1.86 0 0 0 1.86 1.86h5A1.86 1.86 0 0 0 112 150a1.84 1.84 0 0 0-.09-.53 1.85 1.85 0 0 1-1.78 1.3z" fill="#f4b073"/><path d="M130.82 150.93h-5a1.86 1.86 0 0 1-1.86-1.86 1.86 1.86 0 0 1 1.86-1.86h5a1.86 1.86 0 0 1 1.86 1.86 1.86 1.86 0 0 1-1.86 1.86z" fill="#fecd9b"/><path d="M130.82 149.88h-5a1.85 1.85 0 0 1-1.77-1.33 1.84 1.84 0 0 0-.09.53 1.86 1.86 0 0 0 1.86 1.86h5a1.86 1.86 0 0 0 1.86-1.86 1.84 1.84 0 0 0-.09-.53 1.85 1.85 0 0 1-1.77 1.33z" fill="#f4b073"/><path d="M123.47 153.39l-.2.2.63.63.2-.2a.06.06 0 0 0 0-.09l-.54-.54a.06.06 0 0 0-.09 0zm-1.94-.74a3.44 3.44 0 0 0 1.68 1.68.83.83 0 0 0 .63-.06l-.62-.62c-.06 0-.22.07-.5-.25l-.16-.16c-.32-.28-.28-.44-.25-.5l-.62-.62a.83.83 0 0 0-.15.52zm.31-.88l-.2.2.63.63.2-.2a.06.06 0 0 0 0-.09l-.54-.54a.06.06 0 0 0-.09-.01zm-6.72 1.62l-.2.2.63.63.2-.2a.06.06 0 0 0 0-.09l-.54-.54a.06.06 0 0 0-.09 0zm-1.94-.74a3.44 3.44 0 0 0 1.68 1.68.83.83 0 0 0 .63-.06l-.62-.62c-.06 0-.22.07-.5-.25l-.16-.16c-.32-.28-.28-.44-.25-.5l-.62-.62a.83.83 0 0 0-.15.52zm.31-.88l-.2.2.63.63.2-.2a.06.06 0 0 0 0-.09l-.54-.54a.06.06 0 0 0-.09-.01z" fill="#fff"/><path d="M126.23 192.72H99.15a.8.8 0 0 0-.8.8v4.32a.8.8 0 0 0 .8.8h27.08z" fill="#f6334c"/><path d="M98.35 195.6v2.24a.8.8 0 0 0 .8.8h27.08v-3z" fill="#e00332"/><path fill="#f1f2f2" d="M126.34 193.81h11.56v3.74h-11.56z"/><path fill="#e6e7e8" d="M126.34 196.91h11.56v.23h-11.56zm0-.66h11.56v.23h-11.56zm0-.65h11.56v.23h-11.56zm0-.65h11.56v.23h-11.56zm0-.65h11.56v.23h-11.56z"/><path d="M126.34 193.81h12.37a.54.54 0 0 0 .54-.54.54.54 0 0 0-.54-.54h-12.37zm0 4.83h12.37a.54.54 0 0 0 .54-.54.54.54 0 0 0-.54-.54h-12.37z" fill="#e00332"/><path d="M126.34 197.52v-3.68a1.12 1.12 0 0 1 1.12-1.12h-1.23a1.12 1.12 0 0 0-1.12 1.12v3.68a1.12 1.12 0 0 0 1.12 1.12h1.23a1.12 1.12 0 0 1-1.12-1.12z" fill="#e00332"/><path fill="#f1f2f2" d="M122.71 192.72h1.07v5.92h-1.07zm-22.69 0h1.07v5.92h-1.07z"/><path d="M129.9 178h-26.55a1.34 1.34 0 0 0-1.34 1.34v3.25a1.34 1.34 0 0 0 1.34 1.34h26.55z" fill="#04aca6"/><path d="M103.35 184h26.55v-3H102v1.7a1.34 1.34 0 0 0 1.35 1.3z" fill="#038e86"/><path fill="#f1f2f2" d="M130.01 179.13h11.56v3.74h-11.56z"/><path fill="#e6e7e8" d="M130.01 182.23h11.56v.23h-11.56zm0-.65h11.56v.23h-11.56zm0-.65h11.56v.23h-11.56zm0-.65h11.56v.23h-11.56zm0-.65h11.56v.23h-11.56z"/><path d="M130 179.13h12.37a.54.54 0 0 0 .54-.54.54.54 0 0 0-.54-.54H130zm0 4.87h12.37a.54.54 0 0 0 .54-.54.54.54 0 0 0-.54-.54H130z" fill="#038e86"/><path d="M130 182.84v-3.68a1.12 1.12 0 0 1 1.12-1.12h-1.22a1.12 1.12 0 0 0-1.12 1.12v3.68a1.12 1.12 0 0 0 1.12 1.16h1.23a1.12 1.12 0 0 1-1.13-1.16z" fill="#038e86"/><path fill="#f1f2f2" d="M126.37 178.05h1.07v5.92h-1.07zm-1.93 0h1.07v5.92h-1.07zm-20.76 0h1.07v5.92h-1.07z"/><path d="M121 184H94.47a1.34 1.34 0 0 0-1.34 1.34v6.08a1.34 1.34 0 0 0 1.34 1.34H121z" fill="#facb34"/><path d="M93.13 188.38v3a1.34 1.34 0 0 0 1.34 1.34H121v-4.34z" fill="#f8a81d"/><path fill="#f1f2f2" d="M121.12 185.06h13.7v6.57h-13.7z"/><path fill="#e6e7e8" d="M121.12 188.15h13.7v.23h-13.7zm0-.65h13.7v.23h-13.7zm0-.65h13.7v.23h-13.7zm0-.65h13.7v.23h-13.7zm0-.65h13.7v.23h-13.7zm0 5.21h13.7v.23h-13.7zm0-.65h13.7v.23h-13.7zm0-.66h13.7v.23h-13.7zm0-.65h13.7v.23h-13.7z"/><path d="M121.12 185.06h14.51a.54.54 0 0 0 .54-.54.54.54 0 0 0-.54-.54h-14.51zm0 7.66h14.51a.54.54 0 0 0 .54-.54.54.54 0 0 0-.54-.54h-14.51z" fill="#f29e22"/><path d="M121.12 191.6v-6.51a1.12 1.12 0 0 1 1.12-1.12H121a1.12 1.12 0 0 0-1.12 1.12v6.51a1.12 1.12 0 0 0 1.12 1.12h1.23a1.12 1.12 0 0 1-1.11-1.12z" fill="#f29e22"/><path fill="#f1f2f2" d="M117.49 183.97h1.07v8.75h-1.07zm-21.18 0h1.07v8.75h-1.07zm15.2 5.71h-6.57a1.26 1.26 0 0 1-1.26-1.26 1.26 1.26 0 0 1 1.26-1.26h6.57a1.26 1.26 0 0 1 1.26 1.26 1.26 1.26 0 0 1-1.26 1.26zm-5.1-9.4h16.58v1.3h-16.58z"/><circle cx="112.77" cy="195.6" r="1.77" fill="#f1f2f2"/><path fill="#544356" d="M275.25 194.95h27.08v3.69h-27.08z"/><path fill="#fed6a4" d="M304.51 194.96h1.61l4.05-1.7-4.05-1.69h-1.61v3.39z"/><path fill="#663412" d="M273.72 191.57h.94v3.39h-.94z"/><path fill="#54290c" d="M273.72 194.11h.94v.84h-.94z"/><path fill="#7f4219" d="M273.72 191.57h.94v.84h-.94z"/><path d="M271.19 192.13v2.27a.56.56 0 0 0 .56.56h2v-3.39h-2a.56.56 0 0 0-.56.56z" fill="#fc7abb"/><path d="M271.19 192.13v.87a.56.56 0 0 1 .56-.56h2v-.85h-2a.56.56 0 0 0-.56.54z" fill="#f98fc9"/><path d="M305.16 194.2a.11.11 0 0 1 0-.17l.85-.67a.11.11 0 0 0 0-.17l-.85-.67a.11.11 0 0 1 0-.17l1-.76h-31.5V195h31.46z" fill="#f6334c"/><path d="M308.49 192.56a2.35 2.35 0 0 0 0 1.41l1.68-.7z" fill="#54290c"/><path d="M305.16 194.2a.11.11 0 0 1 0-.08h-30.5v.88h31.46z" fill="#e00332"/><path d="M305.16 192.33a.11.11 0 0 0 0 .08h-30.5v-.84h31.46z" fill="#f6334c"/><path d="M305.16 192.33a.11.11 0 0 0 0 .08h-30.5v-.84h31.46z" fill="#fff" opacity=".16"/><rect x="146.18" y="18.5" width="39.13" height="24.22" rx="5.5" ry="5.5" fill="#ed3521"/><path d="M181.87 18.5h-16.12v24.22h16.12a3.45 3.45 0 0 0 3.45-3.45V21.95a3.45 3.45 0 0 0-3.45-3.45z" fill="#dd2b1d"/><path fill="#dd2b1d" d="M175.74 51.35l-9.99-9.99h9.99v9.99z"/><circle cx="155.55" cy="30.92" r="2.2" fill="#fff"/><circle cx="165.48" cy="30.92" r="2.2" fill="#fff"/><circle cx="175.41" cy="30.92" r="2.2" fill="#fff"/><path d="M227.57 197h-37.88v1.63h37.88a5 5 0 0 0 5-5h-.28a5 5 0 0 1-4.72 3.37z" fill="#5d5d5d"/><path d="M228.16 141.73h-38.47v1h38.47a4.44 4.44 0 0 1 4.44 4.44v-1a4.44 4.44 0 0 0-4.44-4.44z" fill="#746277"/><path d="M127 128l-.1.05v-.06l.13-.07H127v.58zm.24.46l.06-.06c.15-.14.21-.21.21-.3a.1.1 0 0 0-.11-.11.2.2 0 0 0-.12 0v-.05a.25.25 0 0 1 .16-.06.16.16 0 0 1 .18.17c0 .11-.08.19-.2.31h.26v.06zm.46-.04a.05.05 0 0 1 .05-.06.05.05 0 0 1 .05.06.05.05 0 1 1-.11 0zm.56-.25c0 .2-.07.3-.2.3s-.19-.11-.19-.3.08-.3.2-.3.19.13.19.3zm-.31 0c0 .15 0 .23.12.23s.12-.09.12-.24 0-.23-.12-.23-.07.07-.07.25zm.77 0c0 .2-.07.3-.2.3s-.19-.11-.19-.3.08-.3.2-.3.19.13.19.3zm-.31 0c0 .15 0 .23.12.23s.12-.09.12-.24 0-.23-.12-.23-.12.07-.12.25zm-3.41-.33v.08l.36.23h.13l.35-.24v-.07zm.42.41a.24.24 0 0 1-.1 0L125 128v.43h.83V128l-.3.21a.2.2 0 0 1-.07.04zm-14.11-.25a.15.15 0 1 1-.15.15.15.15 0 0 1 .15-.15m0-.08a.23.23 0 1 0 .23.23.23.23 0 0 0-.23-.23zm-.69.08a.15.15 0 1 1-.15.15.15.15 0 0 1 .15-.15m0-.08a.23.23 0 1 0 .23.23.23.23 0 0 0-.23-.23z" fill="#fff"/><circle cx="109.94" cy="128.14" r=".23" fill="#fff"/><circle cx="109.26" cy="128.14" r=".23" fill="#fff"/><circle cx="108.58" cy="128.14" r=".23" fill="#fff"/></svg>