<svg xmlns="http://www.w3.org/2000/svg" viewBox="0 0 400 225"><g style="isolation:isolate"><path fill="#69a7bf" d="M0 0h400v225H0z" data-name="Calque 2"/><path d="M332.23 132.3c-4.78-13.33-12.31-17.38-19.47-25.93-8.75-10.44-14.64-18-12.37-31.46 3.71-21.95 5.3-76.68-52.8-69.52-20.82 2.56-37.28 18.52-49.25 34.45-10.19 13.55-28.51 14.75-43.26 17.91-18.08 3.87-36.58 9.74-53.34 18.33-34.53 17.7-44.84 43.14-43.44 75.69.43 9.83 1.82 25.33 18.43 43.45 22.42 24.47 55 27.74 94.22 16.51 9-2.57 17.46-6.61 26.29-9.64a124.08 124.08 0 0 1 28.38-6.16c22.52-2.18 45.87 1.76 67.48-5a71.2 71.2 0 0 0 30.18-18.72c10.33-10.77 14-25.85 8.95-39.91z" fill="#eae6ff"/><ellipse cx="167.86" cy="182.51" rx="91.12" ry="5.82" fill="#cdccff"/><ellipse cx="109.21" cy="189.7" rx="23.13" ry="3.64" fill="#cdccff"/><ellipse cx="286.22" cy="190.46" rx="38.81" ry="2.88" fill="#cdccff"/><path fill="#4a41a3" d="M179.15 165.74h40.38v10.86h-40.38z"/><rect x="129.55" y="68.57" width="140" height="100.72" rx="9.39" ry="9.39" fill="#5851bc"/><rect x="133.46" y="72.24" width="131.75" height="87.38" rx="5.77" ry="5.77" fill="#c4c3fc"/><path d="M167.79 175.66h63.1a6 6 0 0 1 6 6v.85h-75.1v-.85a6 6 0 0 1 6-6z" fill="#5851bc"/><rect x="164.93" y="78.28" width="92.19" height="61.96" rx="4.04" ry="4.04" fill="#fff" opacity=".35"/><g style="mix-blend-mode:multiply" opacity=".25"><path fill="#fca70c" d="M173.69 123.54h4.02v10.08h-4.02z"/><path fill="#b1affd" d="M182.74 114.69h4.02v18.93h-4.02z"/><path fill="#fca70c" d="M191.78 116.65h4.02v16.97h-4.02z"/><path fill="#b1affd" d="M200.83 107.07h4.02v26.56h-4.02z"/><g opacity=".15"><path opacity=".26" d="M182.74 114.69h1.84v18.93h-1.84z"/></g><g opacity=".15"><path opacity=".26" d="M173.69 123.54h1.84v10.08h-1.84z"/></g><g opacity=".62"><path opacity=".26" d="M200.83 107.07h1.84v26.56h-1.84z"/></g><g opacity=".15"><path opacity=".26" d="M191.78 116.65h1.84v16.97h-1.84z"/></g><path fill="#d5dbda" d="M206.97 136.4h-35.94V98.13h.55v37.72h35.39v.55z"/><path fill="#d5dbda" d="M174.73 118.82l-.37-.41 9.4-8.44 8.71 1.89 9.43-10.5.41.37-9.65 10.74-8.74-1.9-9.19 8.25z"/><path fill="#d5dbda" d="M203.04 103.28l-2.65-2.55 3.43-.92-.78 3.47z"/><path fill="#b1affd" d="M210.38 122.83h2.76v2.76h-2.76z"/><path fill="#fca70c" d="M210.38 127.66h2.76v2.76h-2.76z"/><path fill="#efefef" d="M213.89 128.85h8.74v1.57h-8.74zm0-4.83h8.74v1.57h-8.74z"/><path fill="#b1affd" d="M226.59 122.83h2.76v2.76h-2.76z"/><path fill="#fca70c" d="M226.59 127.66h2.76v2.76h-2.76z"/><path fill="#efefef" d="M230.11 128.85h8.74v1.57h-8.74zm0-4.83h8.74v1.57h-8.74z"/><path fill="#b1affd" d="M241.2 122.83h2.76v2.76h-2.76z"/><path fill="#fca70c" d="M241.2 127.66h2.76v2.76h-2.76z"/><path fill="#efefef" d="M244.72 128.85h5.75v1.57h-5.75zm0-4.83h5.75v1.57h-5.75zm-33.83-27.54h39.58v.72h-39.58zm-39.86-8.83h79.43v1.65h-79.43zm39.74 11.07h39.69v.72h-39.69zm0-4.48h39.69v.72h-39.69zm0 6.71h39.69v.72h-39.69zm0 2.24h39.69v.72h-39.69zm0 2.24h39.69v.72h-39.69zm0 2.24h39.69v.72h-39.69zm0 2.23h39.69v.72h-39.69zm0 2.24h39.69v.72h-39.69zm4.86 2.24h34.83v.72h-34.83z"/><path d="M253.07 78.28H169a4 4 0 0 0-4 4v3.54h92.19v-3.5a4 4 0 0 0-4.12-4.04z" fill="#7a7ae5"/><circle cx="244.09" cy="82.2" r="1.16" fill="#cfcfff"/><circle cx="248.84" cy="82.2" r="1.16" fill="#cfcfff"/><circle cx="253.58" cy="82.2" r="1.16" fill="#cfcfff"/></g><rect x="140.44" y="91.98" width="92.19" height="61.96" rx="4.04" ry="4.04" style="mix-blend-mode:multiply" fill="#c4c3fc" opacity=".55"/><rect x="142.31" y="89.57" width="92.19" height="61.96" rx="4.04" ry="4.04" fill="#fff"/><path fill="#fca70c" d="M151.07 134.83h4.02v10.08h-4.02z"/><path fill="#b1affd" d="M160.12 125.98h4.02v18.93h-4.02z"/><path fill="#fca70c" d="M169.17 127.94h4.02v16.97h-4.02z"/><path fill="#b1affd" d="M178.21 118.36h4.02v26.56h-4.02z"/><g opacity=".15"><path opacity=".26" d="M160.12 125.98h1.84v18.93h-1.84z"/></g><g opacity=".15"><path opacity=".26" d="M151.07 134.83h1.84v10.08h-1.84z"/></g><g opacity=".62"><path opacity=".26" d="M178.21 118.36h1.84v26.56h-1.84z"/></g><g opacity=".15"><path opacity=".26" d="M169.17 127.94h1.84v16.97h-1.84z"/></g><path fill="#d5dbda" d="M184.35 147.69h-35.93v-34.85h.55v34.3h35.38v.55z"/><path fill="#d5dbda" d="M152.11 130.11l-.37-.4 9.4-8.45 8.71 1.9 9.43-10.5.41.37-9.64 10.73-8.75-1.9-9.19 8.25z"/><path fill="#d5dbda" d="M180.43 114.58l-2.66-2.55 3.43-.92-.77 3.47z"/><path fill="#b1affd" d="M187.76 134.12h2.76v2.76h-2.76z"/><path fill="#fca70c" d="M187.76 138.95h2.76v2.76h-2.76z"/><path fill="#efefef" d="M191.28 140.14h8.74v1.57h-8.74zm0-4.83h8.74v1.57h-8.74z"/><path fill="#b1affd" d="M203.98 134.12h2.76v2.76h-2.76z"/><path fill="#fca70c" d="M203.98 138.95h2.76v2.76h-2.76z"/><path fill="#efefef" d="M207.49 140.14h8.74v1.57h-8.74zm0-4.83h8.74v1.57h-8.74z"/><path fill="#b1affd" d="M218.58 134.12h2.76v2.76h-2.76z"/><path fill="#fca70c" d="M218.58 138.95h2.76v2.76h-2.76z"/><path fill="#efefef" d="M222.1 140.14h5.75v1.57h-5.75zm0-4.83h5.75v1.57h-5.75zm-33.83-27.54h39.58v.72h-39.58zm-39.85-8.83h79.43v1.65h-79.43zm39.74 11.07h39.69v.72h-39.69zm0-4.48h39.69v.72h-39.69zm0 6.72h39.69v.72h-39.69zm0 2.23h39.69v.72h-39.69zm0 2.24h39.69v.72h-39.69zm0 2.24h39.69v.72h-39.69zm0 2.24h39.69v.72h-39.69zm0 2.23h39.69v.72h-39.69zm4.86 2.24h34.83v.72h-34.83z"/><path d="M230.45 89.57h-84.1a4 4 0 0 0-4 4v3.54h92.19v-3.5a4 4 0 0 0-4.09-4.04z" fill="#a4a4f7"/><circle cx="221.47" cy="93.5" r="1.16" fill="#cfcfff"/><circle cx="226.22" cy="93.5" r="1.16" fill="#cfcfff"/><circle cx="230.97" cy="93.5" r="1.16" fill="#cfcfff"/><path d="M261.57 68.64H240q.22 10.5.36 21a8.33 8.33 0 0 1-.39 3.16c-.29 0-.16.07-.26.59a6.48 6.48 0 0 1-4.3 2.61.42.42 0 0 0 0 .23.53.53 0 0 0-.17.65c.1.23 1.34.55 3 .37a8 8 0 0 0 1.87-.52 2.93 2.93 0 0 0 .69-.47 2.42 2.42 0 0 0 .63-.15l.07.06 1.93-.84s-.21-1.22-.38-1.85a1.11 1.11 0 0 0-.13-.3 88.58 88.58 0 0 0 3.79-13.47c-.35 5.69-2.39 17.24-2.55 17.63a3 3 0 0 1-2.46 1.72c-.46 0-2.71-.09-2.46.94.06.25 1.23.77 2.92.89a8 8 0 0 0 1.93-.19 3.58 3.58 0 0 0 1.2-.66l.26.35 2-.49v-1.17a2.61 2.61 0 0 0-.44-1.25v-1.17l1.14-.13s2.28-7.37 3.36-9.88a22.13 22.13 0 0 0 1.39-3.15 22.66 22.66 0 0 0 .47-3.93 34.79 34.79 0 0 1 1.32-7.1 1.05 1.05 0 0 1 .19-.41 1.1 1.1 0 0 1 .75-.26c2.9-.27 4.23.23 6-.34 2.39-.74 2.65-1.83 2.76-1.88a7.53 7.53 0 0 0-2.92-.59z" style="mix-blend-mode:multiply" fill="#5851bc" opacity=".35"/><path d="M269.55 117V92c-3.73 4.89-7.43 9.27-11.16 14.15-1.62 2.12-8 9.14-3.64 12 1.1.72 3 .69 4 .75 3.45.24 6.87-.71 10.23-1.66z" fill="#5851bc" opacity=".35"/><path d="M269.55 122.34l-2.08.16v-.12l-1.62.13-.49-1.38a2.09 2.09 0 0 0-2-1.29 1.11 1.11 0 0 0-1 1.55l.48 1.36-1.7.13v.12l-3.51.27c-.55 0-1.37.72-1.19 1.22v.07a.72.72 0 0 0 0 .13l3 8.56-.08 36h3.52l6.66-25.89zm-5.47-.27a1.17 1.17 0 0 1-1.14-.73.62.62 0 0 1 .58-.87 1.17 1.17 0 0 1 1.14.73.62.62 0 0 1-.58.88zM138.35 107.5a17.6 17.6 0 0 0-2.08 3.49 3.48 3.48 0 0 1-1.94 1.75c-1.54.7-3.19 1.38-4.78 2v4.09c3.22-1.94 6.14-3.75 6.19-3.77 2.46.94 4.53-1.11 5.19-2.59.3-.66-.15-.93-.17-1.25 0-.16.2-1.12.17-1.25-.19-.86-2.51-.11-2.32-.52a2.94 2.94 0 0 1 1-1.45c1.13-.77 2-1.63 2-2-.03-.51-2.99 1.2-3.26 1.5z" style="mix-blend-mode:multiply" fill="#5851bc" opacity=".35"/><rect x="263.24" y="128.27" width="54.43" height="62.95" rx="6.95" ry="6.95" fill="#a2a7f4"/><rect x="268.28" y="134.86" width="46.03" height="12.93" rx="1.77" ry="1.77" fill="#9090f4"/><rect x="268.28" y="152.38" width="11.84" height="8.21" rx="1.77" ry="1.77" fill="#9090f4"/><rect x="285.38" y="152.38" width="11.84" height="8.21" rx="1.77" ry="1.77" fill="#9090f4"/><rect x="302.48" y="152.38" width="11.84" height="8.21" rx="1.77" ry="1.77" fill="#9090f4"/><rect x="268.28" y="165.57" width="11.84" height="8.21" rx="1.77" ry="1.77" fill="#9090f4"/><rect x="285.38" y="165.57" width="11.84" height="8.21" rx="1.77" ry="1.77" fill="#9090f4"/><rect x="268.28" y="178.76" width="11.84" height="8.21" rx="1.77" ry="1.77" fill="#9090f4"/><rect x="285.38" y="178.76" width="11.84" height="8.21" rx="1.77" ry="1.77" fill="#9090f4"/><rect x="302.48" y="165.57" width="11.84" height="21.4" rx="1.77" ry="1.77" fill="#9090f4"/><g opacity=".45" fill="#e2deff"><path d="M267.44 135.45a1.43 1.43 0 0 1 1.43-1.43H312a1.43 1.43 0 0 1 1.43 1.43v10.07A1.43 1.43 0 0 1 312 147h-43.13"/><rect x="267.44" y="151.54" width="11.84" height="8.21" rx="1.77" ry="1.77"/><rect x="284.54" y="151.54" width="11.84" height="8.21" rx="1.77" ry="1.77"/><rect x="301.64" y="151.54" width="11.84" height="8.21" rx="1.77" ry="1.77"/><rect x="267.44" y="164.73" width="11.84" height="8.21" rx="1.77" ry="1.77"/><rect x="284.54" y="164.73" width="11.84" height="8.21" rx="1.77" ry="1.77"/><rect x="267.44" y="177.93" width="11.84" height="8.21" rx="1.77" ry="1.77"/><rect x="284.54" y="177.93" width="11.84" height="8.21" rx="1.77" ry="1.77"/></g><rect x="301.64" y="164.73" width="11.84" height="21.4" rx="1.77" ry="1.77" fill="#fca70c"/><path d="M302.48 185.54V167a1.43 1.43 0 0 1 1.43-1.43h9a1.42 1.42 0 0 1 .5.09 1.43 1.43 0 0 0-1.34-.93h-9a1.43 1.43 0 0 0-1.43 1.43v18.54a1.43 1.43 0 0 0 .93 1.34 1.42 1.42 0 0 1-.09-.5z" fill="#f9c110"/><path d="M263.24 143.12l1.46 3.88h6.1s-.42 16.59-.45 19.7 2.56 24.56 2.56 24.56h3.53l-.37-27 5-13.88s3.77 18.58 5.33 21.69 10 19.24 10 19.24h3.24l-8.32-35.58-3.57-12.36-18-8.42-6.46.64" style="mix-blend-mode:multiply" fill="#5851bc" opacity=".35"/><path d="M113.9 90.5c1.08 1.87.15 4.42 1.24 6.28.44.75 1.18 1.33 1.39 2.17a1.89 1.89 0 0 1-2.72 2.13 2.33 2.33 0 0 0-.42-.21c-.54-.16-1 .32-1.49.64a2.28 2.28 0 0 1-2 .35 2.91 2.91 0 0 1-1.64-2c-.78-2.34-.23-4.91.5-7.27.36-1.18.89-2.49 2-2.92" fill="#5045af"/><path d="M139 110.37c0 .26.41.48.15 1-.59 1.22-2.42 2.91-4.6 2.13-.1 0-12.09 7-13 7s-7.22-6-9.28-13.32c-.49-1.76-.3-3.83 1.35-4.72a3.89 3.89 0 0 1 2.26 2c1.36 2.57 5.45 11.1 6.35 11.42 1.13-.75 6.62-2.38 11.07-4.27a3 3 0 0 0 1.72-1.44 14.33 14.33 0 0 1 1.85-2.88c.24-.24 2.87-1.65 2.87-1.19 0 .27-.77 1-1.78 1.62a2.41 2.41 0 0 0-.86 1.19c-.17.34 1.89-.28 2.06.43.04.1-.16.89-.16 1.03z" fill="#ffb9b0"/><path d="M113.14 102.24a5.4 5.4 0 0 1 3.58 2.78 11.18 11.18 0 0 1 .49 1.12c.64 1.62 1.52 3.1 2.16 4.72a9.57 9.57 0 0 1-2.82 1.36 6 6 0 0 1-2.63.35 1.33 1.33 0 0 1-.44-.1 1.46 1.46 0 0 1-.46-.39q-.41-.47-.8-1a2.64 2.64 0 0 1-.54-.92 2.78 2.78 0 0 1 .13-1.43" fill="#7762ef"/><path d="M114.71 106.68a.55.55 0 0 0-.21-.18.37.37 0 0 0-.43.19 1 1 0 0 0-.09.5 6.82 6.82 0 0 0 .31 1.95l-.2 3.43a6 6 0 0 0 2.46-.36c.37-.14.77-.28 1.17-.44a12.41 12.41 0 0 0-3.01-5.09z" fill="#7762ef" opacity=".35"/><path d="M109.4 98.84s0 2.15.28 2.29a8.41 8.41 0 0 0 1.39.43V106l-5.92-.89-4.07-2.27s4.23-1.4 4.27-1.83-.23-2.8-.23-2.8m-4.82 64.89c-1.62 7.68-.85 18.23-1.21 24 .08 0 2.2.29 2.2.29s5-24.37 5.92-29a6.63 6.63 0 0 0 .12-.9c.22-3.51-2.95-3.69-4.73-.79a12.31 12.31 0 0 0-.82 1.57c-.1.23-.19.46-.29.71a22.75 22.75 0 0 0-.79 2.45v.09c-.07.25-.13.49-.19.74v.06c-.1.25-.15.51-.21.78z" fill="#ffb9b0"/><path d="M109.79 135.53c-.06.64-.4 3.66-.8 7.23-.35 3-.73 6.38-1 9.06-.22 2-.38 3.61-.45 4.36a9.77 9.77 0 0 1-.18 1.3c-.76 3.51-3.19 3.71-4.66 2.9a3 3 0 0 1-.56-.38 1.88 1.88 0 0 1-.63-1c-.09-.72-.19-1.7-.27-2.87V156c-.18-2.28-.33-5.21-.47-8.07-.16-3.51-.26-6.89-.29-8.79v-.31c0-5.85 5.35-9.59 8.68-7.78l.12.06.13.08c.38.25.51 1.13.52 2.13-.04.75-.09 1.55-.14 2.21z" fill="#ffb9b0"/><path d="M101.61 157.59l-.41-1.53a24.44 24.44 0 0 1-.51 5.35v.09c-.06.24-.12.5-.19.74v.06a4.11 4.11 0 0 0-.17.78c0 .69 1.47-2.39 1.81-3.11l.07-.14-.4-1.61zm11.58 6.98c-.15 8 2.33 17.5 3 23.34.08 0 2-.26 2-.26s.37-24.64.4-29.51a7.53 7.53 0 0 0 0-.93c-.4-3.55-3.28-2.94-4.39.39a14.43 14.43 0 0 0-.47 1.76c-.05.25-.1.51-.14.78a26.5 26.5 0 0 0-.29 2.63v.94c-.1.29-.11.58-.11.86z" fill="#ffb9b0"/><path d="M114.86 161.29a2.11 2.11 0 0 1-.57-.25 1.61 1.61 0 0 1-.74-.87 58.3 58.3 0 0 1-.74-2.8c-.54-2.22-1.19-5.1-1.79-7.9-.74-3.45-1.41-6.79-1.75-8.68 0-.1-.32-1.48-.34-1.58-1-5.87 3.55-9.7 6.88-8.58h.13c.67.27.86 2.62 1 4.22s1.28 18.09 1.56 21.07a12 12 0 0 1 .06 1.34c-.09 3.66-2.24 4.47-3.7 4.03z" fill="#ffb9b0"/><path d="M113.43 158.76l-.63-1.42a27.36 27.36 0 0 1 .45 5.44v.94a4.74 4.74 0 0 0 0 .82c.11.69.92-2.74 1.1-3.54v-.16l-.63-1.5z" fill="#ffb9b0"/><path d="M103.22 124.25s-4.31 5.48-3.87 11c.18 2.29.47 4.31.73 6.61 0 .33.55 5.17.41 5.18s8.88 2.75 17.47-.85c0-.59.69-11.85-4-22.59a74.78 74.78 0 0 1-10.74.65z" fill="#5146af"/><path d="M116.72 111.6c0 1.57-.87 2.52-2.07 3.85a46.78 46.78 0 0 0-.65 6.06c-.07 1.21.45 2 0 2.07-1.72 1.5-7.94 2.72-10.78.67.3-2.53-.83-8.1-1.6-10.93-.12-.44-.22-.8-.32-1.09-.71-2.15-2-9.05-1-9.35l.83-.24c1.49-.45 3.69-1.22 3.69-1.22s1.29 3.82 4.65 4.28c1.83-.75 1.67-3.07 1.65-4.14.6.17.86.33 2.72.88.52.75.07 2.32.91 4.65.16.57 2.02 2.6 1.97 4.51z" fill="#7762ef"/><path d="M113.68 90.07s.34 4.15-.37 6.32a5.16 5.16 0 0 1-4.48 3.09c-5 0-5.84-6.73-5.82-7.05s7.31-3.15 7.31-3.15z" fill="#ffb9b0"/><path d="M123.12 190.25c-1.76.32-3.65-.18-4.42 0s-2.28.52-2.89 0-.51-2.5.19-2.76a2.59 2.59 0 0 0 .46.11 4.83 4.83 0 0 0 2.09-.17 11.12 11.12 0 0 0 2.92 1.1 9.93 9.93 0 0 1 1.94.59c.65.23.7.95-.29 1.13zm-19.04.75c-1.77-.3-2.89-1.27-3.66-1.41s-2.24-.43-2.41-1.08c-.13-.49.36-2.53 1.11-2.53a2.59 2.59 0 0 0 .39.26 4.83 4.83 0 0 0 2 .54 11.11 11.11 0 0 0 2.37 2 9.93 9.93 0 0 1 1.63 1.21c.55.55-.43 1.2-1.43 1.01z" fill="#5045af"/><path d="M78.34 108.64l1.66-1.93 9.9 8.85s4.83-6.43 6.16-8.44c1.46-2.21 2.78-4.1 4.92-4.47.49.3-.17 8.24-.42 8.43-3 2.23-8.8 9.44-10.65 9.81-2.18.44-11.57-12.25-11.57-12.25z" fill="#ffb9b0"/><path d="M101.67 102.3a5.91 5.91 0 0 0-2.89.74c-.87.72-5 7.3-5 7.3a2.93 2.93 0 0 0 1.09 2.29 6.06 6.06 0 0 0 3 1.3s2.09-2.08 3.26-3c.73-.59.8.87.8.87l3.68-3.59z" fill="#7762ef"/><path d="M100.45 102.38l-.32-.18a2.73 2.73 0 0 1-1.33-1.34 4.44 4.44 0 0 1 0-3.26 12.92 12.92 0 0 1 1.33-1.6 4.81 4.81 0 0 0 .8-2.71 17.87 17.87 0 0 1 .19-2.86 7 7 0 0 1 2-4.15c2-1.65 5.93-2.63 8.08-.79.39.33.47.6 1 .65a3.89 3.89 0 0 1 1.8.53c.71.41 1.56 1 1.46 1.91a3.31 3.31 0 0 1-1.35 2 1.63 1.63 0 0 1-.76.17c-.84 0-1.53-.53-2.36-.44a1.57 1.57 0 0 0-1 .57c-.3.37-.26.88-.6 1.22-.56.55-1.42.5-2.07.86a.69.69 0 0 0-.28.23.74.74 0 0 0-.07.35v1c-.33-.14-.36-.61-.63-.84a.75.75 0 0 0-.94.06 1.58 1.58 0 0 0-.45.9 2.61 2.61 0 0 0 .18 1.24c.22.71.82 1.34 1.31.88.35.52 0 1.39 0 2s0 1.39.44 1.7 1 .07 1.06.8a1.4 1.4 0 0 1-1.31 1.27 4.89 4.89 0 0 1-2-.34 3.07 3.07 0 0 0-2-.1 5.94 5.94 0 0 1-1.1.5 1.72 1.72 0 0 1-1.08-.23z" fill="#5045af"/><path d="M82.46 109a15.08 15.08 0 0 1-2.46-2.42c-.16-.51-.19-1.06-.38-1.56a2.91 2.91 0 0 0-1.62-1.6c-.58-.24-.3-.44-.92-.32-.94.18-1.39 1.11-1.77 1.83-1.61 3.08 2.79 3.66 2.95 3.67.32 0 2 1.87 2 1.87" fill="#ffb9b0"/><path d="M75.45 106a3.21 3.21 0 0 1 .56-2.4 5.24 5.24 0 0 1 .57-.62.8.8 0 0 1 .34-.23 1.09 1.09 0 0 1 .75.17 1.36 1.36 0 0 1 .61.61.81.81 0 0 1-.45 1 .17.17 0 0 0-.08.08c0 .06 0 .13.06.19a1.38 1.38 0 0 1 .24.8.47.47 0 0 1-.55.41c-.12 0-.28-.07-.32 0a.21.21 0 0 0 0 .1.85.85 0 0 1-.19.67.24.24 0 0 1-.15.09.4.4 0 0 1-.15 0 2.13 2.13 0 0 1-.54-.24" fill="#ffb9b0"/><path d="M80 106.71a12.31 12.31 0 0 1-.19-1.25 2.85 2.85 0 0 0-1.35-2.34.34.34 0 0 0-.22-.06.24.24 0 0 0-.18.21.65.65 0 0 0 0 .29c.09.3.51.85.38 1.16a3.47 3.47 0 0 0-.33 1.45c0 .44.22 1.16.75 1.23" fill="#ffb9b0"/><path fill="none" stroke="#c4c4f7" stroke-linecap="round" stroke-linejoin="round" stroke-width=".75" d="M68.13 83.28l2.05 4.83m-6.33-.53l4.2 3.15m-6.91 2.71l5.23.51"/><path d="M228.7 42.53s-1.88-1.33-1.95-1.88a12.9 12.9 0 0 0-1.8-3.26 10.08 10.08 0 0 0-3.09-1.28c-.47-.07-3.17.16-2.83.53s2.08.23 2.42.43l.34.2s-.34.45-.2.73-.58.7-.31 1.17-.11.44.13.93c.4.81 1.41 1.26 1.68 1 .2.48 1 1.46 1.69 1.39s2.48 1.58 2.48 1.58m30.08-10.97c.06 1.26 0 3.46.34 3.78s1.53.27 1.53.27-4.17 5.27-4.54 5-5.3-4.31-4.19-4.51 2.19-.16 2.16-.74l-.09-1.72" fill="#ffb9b0"/><path d="M262.09 61.24s-8.13.92-10 1-1.78-.94-1.78-.94a74.47 74.47 0 0 0-.83-8.56c-.36-1.54-.52-2.1-.84-3.56-.7-3.25-.67-3.86-1.41-7.87l4.86-3.9a2.56 2.56 0 0 0 2.54 1.52A3.7 3.7 0 0 0 258.2 37l6.63 4.4.62 10.7-.79 8.81" fill="#fca70c"/><path d="M257.43 32a14 14 0 0 1-.57 1.87 2.12 2.12 0 0 1-2.24 1.55l-2.49.06a2.85 2.85 0 0 1-1.95-.41 2.91 2.91 0 0 1-.63-1.8q-.22-1.18-.35-2.37a35 35 0 0 1-.22-4.69 3.4 3.4 0 0 1 .06-.64.46.46 0 0 1 .11-.24.52.52 0 0 1 .3-.12 25.55 25.55 0 0 1 4.71-.3 5.35 5.35 0 0 1 3.17.84 6 6 0 0 1 1.67 2.81c.06.17.11.39 0 .5" fill="#ffb9b0"/><path d="M239.19 90.25a17.76 17.76 0 0 0 .48 2.17c.22.55 2 0 2.15-.31a16.63 16.63 0 0 0-.57-3" fill="#ed9c80"/><path d="M242.46 92.57c.16.6.35 1.74.35 1.74l-1.81.79-.3-.28a3.36 3.36 0 0 1-1 .8 7.53 7.53 0 0 1-1.76.49c-1.58.17-2.75-.13-2.84-.35-.39-.92 1.71-1.16 2.12-1.27a2.78 2.78 0 0 0 2-2c.09-.48 0-.57.24-.55a.64.64 0 0 1 .45.21 1.15 1.15 0 0 0 1.29.3 1.37 1.37 0 0 0 .64-.54.79.79 0 0 1 .62.66z" fill="#38287c"/><path d="M247.21 69.11a30.73 30.73 0 0 1-9.26.22 34.22 34.22 0 0 1 1.76 4.24c1.24 5.34 1.66 12.51 2 17 0 0-.59 1.14-2.49.27-2.84-7-7.8-21.23-7.75-24.31.06-3.93 9.86-4.87 17-5.84" fill="#453087"/><path d="M259.72 61.25c2.26 1.65-12.52 7.86-12.52 7.86a24.56 24.56 0 0 1-4.84.46 3.54 3.54 0 0 1-.36-.92c-.09-.43 0-.88-.12-1.31a3 3 0 0 0-1.48-2 6.65 6.65 0 0 0-2.41-.78 32.43 32.43 0 0 0-5.49-.1c4.44-3.27 13.53-3.7 17.76-4 .82 1.39 9.14.54 9.46.79z" fill="#38287c"/><path d="M243.87 94a17.75 17.75 0 0 0 .1 2.22c.12.58 2 .39 2.17.06a16.63 16.63 0 0 0 0-3" fill="#ed9c80"/><path d="M246.69 96.83c.05.61 0 1.78 0 1.78l-1.92.46-.24-.33a3.36 3.36 0 0 1-1.13.62 7.53 7.53 0 0 1-1.81.18c-1.59-.11-2.68-.6-2.74-.83-.23-1 1.88-.85 2.31-.89a2.78 2.78 0 0 0 2.31-1.62c.17-.46.07-.56.33-.5a.64.64 0 0 1 .41.29 1.15 1.15 0 0 0 1.22.52 1.37 1.37 0 0 0 .73-.42.79.79 0 0 1 .53.74z" fill="#38287c"/><path d="M264.65 60.92a91.59 91.59 0 0 1-10 .32c-1.28 0-10.95 1.81-11.87 3.45-1.52 2.69 1 18.45.76 29.72a3.08 3.08 0 0 0 3.21.06c.51-5.54 3.78-18.61 1.53-24.71 5.33.71 9.63 1.41 14.48-.2a3.87 3.87 0 0 0 2.49-2.64 9.26 9.26 0 0 0-.6-6z" fill="#453087"/><path d="M252.09 37.36l-1.39.08a10.69 10.69 0 0 0-2.87.54c-1.32.49-2.25 1.71-3.32 2.67s-6.38 6-7.38 6.21-9.76-5.82-9.76-5.82l-2.14 2.14s9.5 8.82 12.34 8.82c1.38 0 9-4 11.4-5.54z" fill="#fca70c"/><path d="M237.59 50.31c-2 .11-10.91-6.73-12-7.53l-.42.42s9.56 8.8 12.4 8.8c1.15 0 6.61-2.77 9.8-4.59l.83-.48-.5-3s-8.03 6.26-10.11 6.38z" style="mix-blend-mode:multiply" fill="#ce4a30" opacity=".25"/><path d="M228.47 62.68h21.77L246.33 50a1.67 1.67 0 0 0-1.6-1.18h-19.06a1.09 1.09 0 0 0-1 1.4z" fill="#a4a4f7"/><path d="M228.19 62.68h21.44L245.73 50a1.67 1.67 0 0 0-1.6-1.18h-19.06a1.09 1.09 0 0 0-1 1.4l3.74 12.19a.44.44 0 0 0 .38.27z" fill="#7a74d1"/><path d="M261.66 43.5a85.11 85.11 0 0 0-1.58 12.23c-3.8 1.48-5.35 3.67-9.07 5.33 0 0-2.94-.49-3.25.62-.18.64 3.44 1.15 3.44 1.15 3.45 0 12.55-2.5 13.16-2.67s2.41-11.73 2.48-18a3.94 3.94 0 0 0-.58-2.55 3.34 3.34 0 0 0-1.12-.83A15.65 15.65 0 0 0 258.2 37" fill="#ce4a30" opacity=".25"/><path d="M251.52 61.82a2.18 2.18 0 0 0-1.81-.57 13.24 13.24 0 0 0-1.45.12c-.22 0-.47.08-.5.32s1.07 0 1.64.16a28.82 28.82 0 0 1-3.37.09 1 1 0 0 0-.39 0 .32.32 0 0 0-.22.29.4.4 0 0 0 .15.26 2.28 2.28 0 0 0 1.16.47 8.92 8.92 0 0 0 5.12-.45" fill="#ffb9b0"/><path d="M261.43 43.4c-.09 5.24-.46 7.63-.36 12.87-2.63.56-6.27 3.54-10 5.19a2 2 0 0 0 .12 1.36c.28.1 12.55-2.88 13.53-3.78s2-10.62 2.11-16.9a3.94 3.94 0 0 0-.58-2.55 3.34 3.34 0 0 0-1.12-.83A15.65 15.65 0 0 0 258.2 37" fill="#fca70c"/><path d="M239.26 55.95c.08 1.12-1.24 2-2.94 2s-3.15-.9-3.23-2 1.24-2 2.94-2 3.15.88 3.23 2z" fill="none" stroke="#a4a4f7" stroke-miterlimit="10" opacity=".45"/><path d="M238.13 55.95c0 .62-.79 1.12-1.87 1.12s-2-.5-2-1.12.79-1.12 1.87-1.12 1.95.5 2 1.12z" fill="#a4a4f7"/><path d="M253.6 28.6c0-.2-.48-.23-.91-.18a7 7 0 0 0-1.84.39c-.24.19-.23.32-.35.33s-.13-.12-.41-.24a3.69 3.69 0 0 0-1.39 0c-.44.05-.85.15-.84.35a1.12 1.12 0 0 0 .17.6c.09.06.09 0 .43.84a.83.83 0 0 0 1.05.57c.72-.16.76-1 .82-1.32s.11-.39.22-.41.18 0 .32.34.24 1 1 1.09c1 .05 1.38-.28 1.51-.89.18-.84.14-.84.21-.92a4.62 4.62 0 0 1 .72.06v-.25a5.41 5.41 0 0 1-.71-.36zm-3.5 1.69a.84.84 0 0 1-.71.88c-.44.06-.64-.18-.88-.74a1.46 1.46 0 0 1-.14-1c.08-.14.31-.13.86-.17s.73 0 .82.2a3 3 0 0 1 .05.83zm3.14-.46c-.09.61-.31.9-.92 1-.86.1-1-.24-1.15-.64a3 3 0 0 1-.16-.84c0-.26.21-.29.75-.39s1.26-.23 1.37-.11a1.46 1.46 0 0 1 .11.98z" fill="#483a99"/><path d="M259.42 27.27a9.43 9.43 0 0 0-.24-1.29 4.12 4.12 0 0 0-2-2.64 6.44 6.44 0 0 0-4.55-.45c-.83.23-1.14.67-1.57.66a4.73 4.73 0 0 1-1.16-.38c-3.26-1.17-2.71 2-2.36 2.89.15.39.89.67 1 .83a9.83 9.83 0 0 1 .15 1.3.69.69 0 0 0 .41.48v-1.16a1.29 1.29 0 0 1 .48-1 3 3 0 0 1 1.17-.33 8.9 8.9 0 0 1 2.4.4 4.81 4.81 0 0 1 .93 2.41c.08.33.16.55.3.54.1-1 .44-1 1-.66a1.68 1.68 0 0 1 .49 1.3 1.38 1.38 0 0 1-1 1.42c-.23 0 .46 1.36.78 1.69a1.75 1.75 0 0 0 .34.3 1.55 1.55 0 0 0 .39.15l.47.13a1.21 1.21 0 0 0 .64.05c.34-.1.52-.46.68-.78.25-.53.55-1 .75-1.59a9.43 9.43 0 0 0 .5-4.27z" fill="#483a99"/><path d="M318.07 75.51h-41.2l4.93-3.65V54a2.69 2.69 0 0 1 2.69-2.69h33.57a2.69 2.69 0 0 1 2.7 2.69v18.81a2.69 2.69 0 0 1-2.69 2.7z" fill="#d5d2ff"/><path fill="#fff" opacity=".45" d="M298.35 54.82h18.83v1.8h-18.83zm0 2.69h18.83v1.8h-18.83zm0 2.69h18.83V62h-18.83zm0 2.63h18.83v1.8h-18.83zm0 3.13h13.13v1.8h-13.13z"/><rect x="285.05" y="54.82" width="11.83" height="13.83" rx="3.39" ry="3.39" fill="#a9adff"/><path fill="#fff" opacity=".45" d="M285.05 70.37h11.83v1.48h-11.83z"/><path d="M165 50.62h52.49L211.22 46V17.25a3.43 3.43 0 0 0-3.43-3.43H165a3.43 3.43 0 0 0-3.43 3.43v29.94a3.43 3.43 0 0 0 3.43 3.43z" fill="#d5d2ff"/><path d="M190.14 21.44h-23.99v-2.3h23.99zm0 3.43h-23.99v-2.3h23.99zm0 3.43h-23.99V26h23.99zm0 3.34h-23.99v-2.3h23.99zm0 3.34h-23.99v-2.3h23.99zm0 6.07h-23.99v-2.3h23.99zm16.95 3.62h-40.94v-2.3h40.94z" opacity=".45" fill="#fff"/><rect x="192.02" y="19.15" width="15.07" height="17.62" rx="4.31" ry="4.31" transform="rotate(180 199.555 27.955)" fill="#c4c4f7"/><path fill="#fff" opacity=".45" d="M207.09 40.85h-15.07v-1.89h15.07z"/><ellipse cx="286.42" cy="199.35" rx="23.13" ry="2.44" fill="#eae6ff"/><path d="M274 195.89a5.82 5.82 0 0 1-2.41 1.83c-1.29.57-4 .85-2.5 1.35a9.1 9.1 0 0 0 4.18.06 18 18 0 0 1 2.82-.17c1.39 0 1.4-.1 1.22-1.67-.26-2.16-2.68-2.62-3.31-1.4zm25.26-.79c-.08.44.54 1.76-.57 2.73s-3.62 2-2 2a9.71 9.71 0 0 0 4.12-.77c.85-.42.17-1.08 1.22-1.41 1.39-.44 1.1-1.46.38-2.09-.88-2.04-2.9-1.87-3.15-.46z" fill="#9aa3f4"/><path d="M293.95 151.07s3.32-9.77-6.1-17.81a35.84 35.84 0 0 1-9.1 2.25 22.47 22.47 0 0 1-4.8-.1s-.27 8.68-.28 13.35zM272.9 167.3c-.18-4.37 4.55-3.79 6.3-.53 3.61 6.75-1.33 22.28-2 29.64a3.75 3.75 0 0 1-2.5.16 1.75 1.75 0 0 1-.73-.8c.13-9.04-.87-23.77-1.07-28.47z" fill="#4a41a3"/><path d="M279 168c-.54 1.78-6.59 3.66-6.1-2.83.22-2.88.8-18.77.91-20.31s.37-3.77 1.11-4.05c3.7-1.4 10.25 3.44 9.28 9.2-.61 3.8-4.03 14.25-5.2 17.99zm9.55 2.44c-1.46-4.12 3.29-4.85 6-2.31 6.31 5.94 6.55 19.94 8.09 27.17a5.51 5.51 0 0 1-2.76.79 1 1 0 0 1-.75-.38c-2.58-8.71-9.02-20.87-10.58-25.27z" fill="#4a41a3"/><path d="M294.79 169.09c.16 1.86-4.87 5.69-6.86-.5-.88-2.75-4.64-19-5.12-20.46s-.34-4.48.24-5c2.91-2.69 9.47-.32 10.73 5.37.84 3.8.66 16.74 1.01 20.59z" fill="#4a41a3"/><path d="M268.84 98c.17-.18.34-.36.5-.56 1.19-1.53 1.37-2.88 2.47-4.65a13.77 13.77 0 0 1 .8-1.54 6.46 6.46 0 0 1 1.79-1.47c.52-.27.07.87.07.87s.44-.64.86-.59c.17 0 .19 1 .2 1.16a8.15 8.15 0 0 1-.91 3.86 2 2 0 0 0-.31.88 2 2 0 0 0 1-.51 1.26 1.26 0 0 1 1.09-.32 2.9 2.9 0 0 1-.21.45 4.77 4.77 0 0 1-1.91 2.26c-.54.26-1.17.3-1.7.58-1 .51-1.42 1.68-2.39 2.16" fill="#f2a181"/><rect x="272.49" y="90.4" width="4.13" height="7.6" rx=".65" ry=".65" transform="rotate(22.7 274.541 94.203)" fill="#5e5dbb"/><path fill="#b4b4db" d="M274.369 90.458l3.192 1.335-2.617 6.255-3.192-1.335z"/><path d="M277.56 104.14a22.56 22.56 0 0 0-4.61.78c-3.28 1-4.41 2.5-5.54 3.13 2.2-2.8 4.66-8.73 4.66-8.73s-3-2.43-3.3-1.86-12.77 15.12-12.38 17.47a3 3 0 0 0 2.87 1.89c3.52-.12 7.61-1.4 11.9-2.81 1.89-.62 2.47.71 2.47.71" fill="#7a74d1"/><path d="M267.41 108s-1.56 3.15-2 3.36 1.14-.66 2-1.57a18.65 18.65 0 0 0 2.09-3.3 18.2 18.2 0 0 0-2.09 1.51z" fill="#6960c4"/><path d="M272.32 92.77a.71.71 0 0 1 .22.5 3.9 3.9 0 0 1-.06 2.09 3 3 0 0 1-.84 1.07 6.61 6.61 0 0 1-1.28.88" fill="#f2a181"/><path d="M277.64 87.52c-.83.24-1.27 1.31-1.55 2a11.41 11.41 0 0 0-.62 2.76 3.78 3.78 0 0 0 .14 1.94 4.08 4.08 0 0 0 .54.84 1.78 1.78 0 0 0 .39.41.6.6 0 0 0 .54.09c.26-.1.36-.4.44-.67a17.68 17.68 0 0 1 2-5" fill="#170d54"/><path d="M276.72 93c0-.55-.6-.92-1.11-.34a3.55 3.55 0 0 0-.55 2c0 .8.59 1 1.1 1.07" fill="#f2a181"/><path d="M271.17 107c1-1.18 4.28-3.11 8.62-3 3 .09 11.15.59 12.06 2.59.47 1 1 11.51.28 15.12-.51 2.72-1.82 9.45-1.82 11.08s.87 2.32.47 2.79c-.91 1.06-7.15 1.5-10.08 1.5-2.61 0-7-.69-7.27-1.53-.33-1.24.51-1.19.62-2.49s.44-9.74 0-11.12c-.86-2.49-1.28-6.56-2-8.4-.52-1.37-1.9-5.36-.88-6.54z" fill="#7a74d1"/><path d="M289.85 115.48c.31.65 2.42 4 2.42 4l.09.41a17 17 0 0 1-.21 1.81c-.51 2.72-1.82 9.45-1.82 11.08s.84 2.29.47 2.79c-.72 1-12.48 3.17-11.9.45.05-.25 9.87-7.74 9.93-8 .45-2.15.85-3.7 1-5.27.49-3.75-.3-7.91.02-7.27z" fill="#6960c4"/><path d="M277.43 100.28a32.12 32.12 0 0 1-.17 3.55 5.39 5.39 0 0 1-.81.46s.48 3 1.22 2.74 5.65-2.7 5.65-2.7-.7-.28-.7-.56.66-5.64.66-5.64" fill="#ffbe9d"/><path d="M280.83 87.89c-.71.19-2.6-.19-3.12.58a17.74 17.74 0 0 0-1.17 3.18c-.39 1-.64 2.14-.92 3.21-.37 1.39-1 3.94.39 5.1a1.81 1.81 0 0 0 1 .53l1.93.36a6.47 6.47 0 0 0 3.09.07c1.32-.43 2.05-2.25 2.39-3.49l1.95-7.08z" fill="#ffbe9d"/><path d="M277.31 108.35s-.29 13.31-.83 21.4l2 2.7 1.35-3.38a102.93 102.93 0 0 0-1.27-20.63z" fill="#3b2e7a"/><path d="M276.85 107.19v.18a3.72 3.72 0 0 0 .4 1l1.2.09s.82-.43.92-.89-1.34-1.21-1.34-1.21l-.18.07a2.61 2.61 0 0 0-1 .75z" fill="#3b2e7a"/><path d="M282.71 102.94a5 5 0 0 1 1.37 1.39 14.2 14.2 0 0 1-3.55 5.07 6.94 6.94 0 0 0-2.44-3s4.19-.8 4.62-3.46zm-4.62 3.41a5.16 5.16 0 0 0-2.39 2.27 11.42 11.42 0 0 1 .32-4.21s1-1.26 1.32-1.28a6.6 6.6 0 0 0 .75 3.22z" fill="#fff"/><path d="M278.28 136.06a4.43 4.43 0 0 0-2.88 1.6.31.31 0 0 0-.13.25c0 .12.16.17.28.19.69.11.8-.33 1.45-.6l1.3-.56" fill="#f2a181"/><path d="M273.23 125.22l5.27 16.89a.6.6 0 0 1-.56.85l-11 1a1 1 0 0 1-.92-.71l-5.67-16.64c-.14-.45.51-1.1 1-1.1l11-1a1 1 0 0 1 .88.71z" fill="#e9e6ff"/><path d="M272.87 125.66l5.2 16.63a.6.6 0 0 1-.56.85l-11 1a1 1 0 0 1-.92-.71l-5.2-16.63a.6.6 0 0 1 .56-.85l11-1a1 1 0 0 1 .92.71z" fill="#e0d9ff"/><path fill="#fff" d="M264.08 125.12l.39 1.46 5.15-.46-.43-1.45-5.11.45z"/><path d="M265.06 123.76l.52 1.65 2.46-.23-.52-1.65a1.67 1.67 0 0 0-1.63-1.17 1 1 0 0 0-.83 1.4zm.54 0a.56.56 0 0 1 .46-.79.94.94 0 0 1 .91.66.56.56 0 0 1-.46.79.94.94 0 0 1-.91-.69z" fill="#fff"/><path d="M282.47 134.88c-1.15.24-4.23 1.16-4.55 1.31a13.52 13.52 0 0 0-2 1.45c-1.16 1.16-.57 1.7-1 3.28a.9.9 0 0 0 0 .25c0 .16.22.31.45.15.12.2.48.08.65-.14 0 .16.22.26.57.06.19-.11.16-.1.6-.49a4.66 4.66 0 0 1 1.25-.76 9.11 9.11 0 0 0 1.22-.56c.47-.31 1.3-.38 1.71-1.71a1.33 1.33 0 0 1 .64-.64l1.88-1.18" fill="#ffbe9d"/><path d="M289.56 113.24c.49 1.74 2.52 13.83 2.52 13.83l-11.46 8.3 1 2.51s13.72-4.61 14.8-7.75 1-17.37-2.78-22.36a8.7 8.7 0 0 0-3.64-2.39" fill="#7a74d1"/><path d="M277.8 139.23a10.54 10.54 0 0 0-.86.86 4.27 4.27 0 0 1-.86.89 4.33 4.33 0 0 1 .68-1 2 2 0 0 1 .49-.41 4.66 4.66 0 0 1 .55-.34zm-.63-.76a3.37 3.37 0 0 0-.48.61 4.85 4.85 0 0 0-.39.65 4.86 4.86 0 0 1-.83 1.34 11.89 11.89 0 0 1 .62-1.44 2.81 2.81 0 0 1 .47-.66 2 2 0 0 1 .61-.5zm-.72-.61a5.5 5.5 0 0 1-.44.62 2.45 2.45 0 0 0-.32.65c-.19.46-.35.93-.56 1.4a3.43 3.43 0 0 1 .35-1.49 2 2 0 0 1 .43-.66c.15-.19.37-.38.54-.52z" fill="#f2a181"/><path d="M285.2 96.21c-.45-.26-.79-.54-1.09-.11-.16.23-.25.54-.51.62a.53.53 0 0 1-.6-.43 1.54 1.54 0 0 1 .1-.81l.54-1.74a2.62 2.62 0 0 0 .13-1.75 1.91 1.91 0 0 0-.55-.7 5.83 5.83 0 0 0-2.67-1.14 28.52 28.52 0 0 1-2.88-.59 3.11 3.11 0 0 1-1.1-.55 2.36 2.36 0 0 1-.78-1.77 3.66 3.66 0 0 1 .56-1.89 3.15 3.15 0 0 0 .29.66 2.44 2.44 0 0 1 .52-.82c.28 1.56 6.85 1 8.38 1.73 1.06.48 1.94.79 1.91 2.51a.63.63 0 0 0 .21.27 4.8 4.8 0 0 1 1.47 3.48c.14 1.91-1 4-2.06 5.56a3.56 3.56 0 0 1-.81 1 2.15 2.15 0 0 1-1.53.34c-.47-.09-1.41 0-1.42-.53s.73-1 .94-1.24" fill="#3b2e7a"/><path d="M283.48 98a.6.6 0 0 0 .9.68 2.08 2.08 0 0 0 1.31-1.61c.15-.83-.29-1.66-1-1.44a1.12 1.12 0 0 0-.72 1.09" fill="#ffbe9d"/><path d="M277.43 100.57l2.11.39a2.94 2.94 0 0 1-2.13.79" fill="#f2a181"/><g opacity=".3" fill="#3939d3"><path d="M112 64.44l2.82 1.42-1.41-3.46"/><ellipse cx="109.21" cy="60.01" rx="5.97" ry="5.63"/></g><g opacity=".3" fill="#3939d3"><path d="M307.27 107.25l-2.82 1.43 1.41-3.47"/><ellipse cx="310.07" cy="102.83" rx="5.97" ry="5.63"/></g><g opacity=".3" fill="#3939d3"><path d="M216.97 58.39l2.06-2.23-2.82.56"/><ellipse cx="213.67" cy="58.91" rx="4.33" ry="4.08"/></g><path d="M237.12 28.54a6.37 6.37 0 1 0-1.45 1.34l2.47 1.32z" fill="#3939d3" opacity=".3"/></g></svg>