<svg xmlns="http://www.w3.org/2000/svg" xmlns:xlink="http://www.w3.org/1999/xlink" viewBox="0 0 400 225"><defs><radialGradient id="b" cx="200" cy="112.5" r="162.26" gradientUnits="userSpaceOnUse"><stop offset="0" stop-color="#cbb7da"/><stop offset=".65" stop-color="#87b8e4"/><stop offset="1" stop-color="#68b9e8"/></radialGradient><linearGradient id="a" x1="-23.33" y1="183.82" x2="-24.21" y2="199.06" gradientTransform="matrix(-1 0 0 1 83.99 0)" gradientUnits="userSpaceOnUse"><stop offset="0" stop-color="#2d2c74"/><stop offset=".99" stop-color="#185faa"/></linearGradient><linearGradient id="c" x1="228.74" y1="108.57" x2="226.26" y2="123.85" xlink:href="#a"/><linearGradient id="d" x1="288.92" y1="186.05" x2="284.04" y2="198.24" gradientUnits="userSpaceOnUse"><stop offset="0" stop-color="#2d2c74" stop-opacity=".8"/><stop offset=".99" stop-color="#185faa" stop-opacity="0"/></linearGradient></defs><path fill="url(#b)" d="M0 0h400v225H0z" data-name="Calque 2"/><g data-name="Calque 1"><path fill="#f5f4f4" d="M111.73 153.25l-.62 5.27-3.71 9.62 3.39 1.04 2.61-10.03.34-5.66-2.01-.24z"/><path fill="url(#a)" d="M103.81 178.7l1.65 16.75-.55 14.72h5.7l.31-1.09-3.91-.53 2.09-13.03 1.88-16.21-7.17-.61z"/><path fill="#2d6eb5" d="M101.92 178.51l-1.3 14.27-8.73 11.6 1.04 5.48h2.61l-1.57-1.18-.26-3.52 8.35-9.38 7.56-16.82-7.7-.45z"/><path fill="#ed6a5f" d="M113.74 153.49l-.1-5.31-1.07-.13-.84 5.2 2.01.24zm-10.37 7.35c-.39 1.93-.41 4.88 2.48 5.34a4.2 4.2 0 0 0 5-3.28 3.72 3.72 0 0 0-3.26-4.78 4 4 0 0 0-4.22 2.72z"/><path d="M105.45 166c-2.07-.56-2.85-2.55-2.55-4.56a4 4 0 0 1 4.72-3.37c.12 0 .22.07.33.11a1.93 1.93 0 0 1-.06.85 3.35 3.35 0 0 1-2.14 2s-.61 4.39-.3 4.97z" fill="#2a3179"/><path d="M105.21 161.44a1.39 1.39 0 0 0-.85.17c-.84.46-.54 1.71.2 2.11a2.05 2.05 0 0 0 .78.22 1.1 1.1 0 0 0 .68-.11.83.83 0 0 0 .36-.56 1.66 1.66 0 0 0 0-.68 1.57 1.57 0 0 0-1.17-1.15z" fill="#ed6a5f"/><ellipse cx="109.34" cy="159.91" rx="1.03" ry="1.36" transform="rotate(-20.47 109.302 159.877)" fill="#f8f5ef"/><circle cx="113.17" cy="147.45" r="1.2" fill="#a05849"/><path d="M117.61 155.5l-1.82.6a14.51 14.51 0 0 1-3.6 5.67l-3.41 3.31-4.2 2.83-3.12 11.57 9.75.92.32-12.74 3.62-4.53a14.51 14.51 0 0 0 2.93-6.4z" fill="#f8f5ef"/><rect x="104.43" y="126.67" width="22.01" height="22.01" rx="4.21" ry="4.21" fill="#f8f5ef"/><circle cx="119.17" cy="148.25" r="1.2" fill="#ed6a5f"/><path fill="#ed6a5f" d="M115.6 156.74l2.4.85 1.92-8.79-1.37-.31-2.95 8.25zm5.17-21.82c0 3.08-5.58 11.26-5.58 11.26s-5.58-8.18-5.58-11.26a5.58 5.58 0 1 1 11.16 0z"/><circle cx="115.19" cy="134.45" r="2.67" fill="#f8f5ef"/><path fill="none" stroke="#185faa" stroke-linecap="round" stroke-miterlimit="10" stroke-width="2" opacity=".5" d="M87.19 210.06h43.17"/><rect x="169.81" y="47.01" width="57.47" height="123.85" rx="4.88" ry="4.88" fill="#f8f5ef"/><path d="M222.4 47h-47.71a4.88 4.88 0 0 0-4.88 4.88v4.94h57.47v-4.93A4.88 4.88 0 0 0 222.4 47zm-52.59 112.76V166a4.88 4.88 0 0 0 4.88 4.88h47.71a4.88 4.88 0 0 0 4.88-4.88v-6.22z" fill="#2a3179"/><rect x="200.45" y="60.19" width="22.01" height="22.01" rx="4.21" ry="4.21" fill="#ed6a5f"/><rect x="200.45" y="126.96" width="22.01" height="22.01" rx="4.21" ry="4.21" fill="#a8c6e9"/><rect x="174.46" y="126.96" width="22.01" height="22.01" rx="4.21" ry="4.21" fill="#ed6a5f"/><path fill="none" stroke="#185faa" stroke-linecap="round" stroke-miterlimit="10" stroke-width="2" opacity=".5" d="M169.58 171.42h61.92"/><path fill="#2a3179" d="M241.344 128.463l.563-.093 7.546 45.387-.562.093zm-13.852.002l.562-.094 7.546 45.387-.562.094z"/><path fill="#2a3179" d="M229.38 137.79h13.98v.57h-13.98zm.99 6.06h13.98v.57h-13.98zm.99 6.06h13.97v.57h-13.97zm.99 6.06h13.97v.57h-13.97zm.98 6.06h13.98v.57h-13.98zm.99 6.06h13.98v.57h-13.98z"/><path fill="#2d6eb5" d="M219.254 172.44l7.362-45.55.564.091-7.361 45.55zm14.136 1.336l7.554-45.386.562.094-7.554 45.386z"/><path fill="#2d6eb5" d="M225.63 137.79h13.97v.57h-13.97zm-.99 6.06h13.97v.57h-13.97zm-.99 6.06h13.98v.57h-13.98zm-.99 6.06h13.98v.57h-13.98zm-.99 6.06h13.98v.57h-13.98zm-.99 6.06h13.98v.57h-13.98z"/><path fill="#185faa" d="M226.23 127.72h17.04v1.7h-17.04z"/><path fill="#f8f5ef" d="M258.15 120.06l-1.67-17.16-2.14-18.35 1.67-.24 3.81 17.4 5.96.48 6.2-17.64 1.66.24-4.52 18.83.24 15.97-11.21.47z"/><path d="M260.27 96.62c-.45 1.64.26 4.28 1.91 4.73s3.6-1.46 4.05-3.1a3.09 3.09 0 0 0-6-1.63z" fill="#ed6a5f"/><path d="M262.47 95.67a1.73 1.73 0 0 1-1-.64.48.48 0 0 1 0-.09 3.08 3.08 0 0 1 4.78 3.31 4.9 4.9 0 0 1-2.61 3 5.25 5.25 0 0 1 .19-1q.51-2 1.14-3.87a16.56 16.56 0 0 1-2.5-.71z" fill="#2b3088"/><path d="M264.39 98.18a.82.82 0 0 1 .78-.13.5.5 0 0 1 .16.11.61.61 0 0 1 .14.48 1.24 1.24 0 0 1-.89 1 .91.91 0 0 1-.4 0 .51.51 0 0 1-.34-.2c-.29-.34.23-1.02.55-1.26z" fill="#ed6a5f"/><path fill="#2d6eb5" d="M269.36 119.59l-1.66 26.32h-1.82l-1.55-26.11-1.62.07-1 26.69-1.4-.04-2.16-26.46-.32-3.25 11.48.14.05 2.64z"/><path fill="#2d6eb5" d="M267.7 145.91l4 .44-.14.62h-5.86l.18-1.06h1.82zm-5.99.65v.74l-5.5.21v-.69l4.1-.3 1.4.04z"/><path d="M263.22 98.85c-1 .11-1.8-.9-2.8-1a.34.34 0 0 0-.19 0 .38.38 0 0 0-.15.19l-.38.74a3.12 3.12 0 0 0-.32.79 3.72 3.72 0 0 0 .25 1.79 1.91 1.91 0 0 0 1.07.91 3.3 3.3 0 0 0 1.42.15 2.61 2.61 0 0 0 .95-.24 1.78 1.78 0 0 0 .93-1.81 2.07 2.07 0 0 1-.06-.53 1.3 1.3 0 0 1 .19-.48c.1-.17.76-1 .24-1-.16 0-.38.27-.52.35a1.63 1.63 0 0 1-.63.14z" fill="#2b3088"/><path d="M269.84 90.63h2.4l1.4-5.84-1.66-.24-2.14 6.08zm-13.83-6.32l-1.67.24.71 6.08h2.34l-1.38-6.32z" opacity=".4" fill="#a8c6e9"/><rect x="236.26" y="65.75" width="65.44" height="18.15" rx="4.94" ry="4.94" fill="#2d6eb5"/><rect x="234.62" y="65.75" width="65.44" height="18.15" rx="4.94" ry="4.94" fill="#f8f5ef"/><path d="M295.92 79.71l-2.67-2.77a4.54 4.54 0 1 0-.87.8l2.69 2.8a.59.59 0 0 0 .83 0 .59.59 0 0 0 0-.83zm-6.13-9a3.34 3.34 0 1 1-3.34 3.29 3.35 3.35 0 0 1 3.34-3.34zm0 0" fill="#a8c6e9"/><path fill="none" stroke="#185faa" stroke-linecap="round" stroke-miterlimit="10" stroke-width="2" opacity=".5" d="M240.02 147.57h59.08"/><circle cx="254.96" cy="83.6" r="1.43" fill="#ed6a5f"/><circle cx="272.23" cy="84" r="1.43" fill="#ed6a5f"/><circle cx="202.47" cy="88.76" r="1.57" transform="rotate(-20.93 202.511 88.773)" fill="#a8c6e9"/><rect x="179.6" y="80.04" width="22.01" height="22.01" rx="4.21" ry="4.21" transform="rotate(-80.04 190.607 91.042)" fill="#2d6eb5"/><path d="M134.39 157.32h9.85a.57.57 0 0 0 .42-1l-9.47-10.23-.83.77 8.59 9.27h-8.55z" fill="#2d6eb5"/><path fill="#e94737" d="M203.57 88.37l4.23 1.66 12.29 1.16-4.1 2.89-8.64-2.07-4.41-2.02.63-1.62z"/><circle cx="215.2" cy="87.74" r="3.45" transform="rotate(-20.94 215.161 87.72)" fill="#a8c6e9"/><path fill="url(#c)" d="M231.33 100.76l-1.42 14.35.47 12.61h-4.89l-.26-.94 3.35-.45-1.79-11.16-1.61-13.89 6.15-.52z"/><path d="M201.6 89.86c1.8.73 7.85 2.34 9.78 2.18l4.06-.33 4.19-1.11 9.21 4.52-4.91 6.8-8.39-7-5-.22c-2-.09-7.83-2.3-9.58-3.34z" fill="#ed6a5f"/><path d="M219 85.63c-.72-1.62-3.6-2-5.21-1.26a3.14 3.14 0 0 0-.27.16 1.74 1.74 0 0 0 .23.74 3 3 0 0 0 2.25 1.35l.17.46a1 1 0 0 1 .36-.27 1.25 1.25 0 0 1 .79 0c.83.23.82 1.39.25 1.89a1.85 1.85 0 0 1-.64.35h-.09c-.08 1.12 0 1.25.24 1.6 1.31-.98 2.82-2.88 1.92-5.02z" fill="#2a3179"/><path fill="#2d6eb5" d="M246.37 98.86l-8.25 3.59-9.49-7.3-4.87 6.68 14.36 4.41 8.5-5.7 1.8 2.02.61-.59-2.66-3.11z"/><circle cx="200.65" cy="90.37" r="1.57" transform="rotate(-20.93 200.705 90.371)" fill="#a8c6e9"/><path d="M133.88 50.18H145v111.73h-11.12zm10 1.14H135v109.46h8.84z" fill="#2d6eb5"/><path fill="#f8f5ef" d="M146.52 166.08h-14.16v-10.15h14.16z"/><path d="M134.39 115.32h9.85a.57.57 0 0 0 .42-1l-9.47-10.23-.83.77 8.59 9.27h-8.55z" fill="#2d6eb5"/><path d="M134.39 125.82h9.85a.57.57 0 0 0 .42-1l-9.47-10.23-.83.77 8.59 9.27h-8.55z" fill="#2d6eb5"/><path d="M134.39 136.32h9.85a.57.57 0 0 0 .42-1l-9.47-10.23-.83.77 8.59 9.27h-8.55z" fill="#2d6eb5"/><path d="M134.39 146.82h9.85a.57.57 0 0 0 .42-1l-9.47-10.23-.83.77 8.59 9.27h-8.55zm0-41.74h9.85a.57.57 0 0 0 .42-1l-9.47-10.18-.83.77 8.59 9.27h-8.55z" fill="#2d6eb5"/><path d="M134.39 94.81h9.85a.57.57 0 0 0 .42-1l-9.47-10.23-.83.77 8.59 9.27h-8.55z" fill="#2d6eb5"/><path d="M134.39 84.57h9.85a.57.57 0 0 0 .42-1l-9.47-10.23-.83.77 8.59 9.27h-8.55z" fill="#2d6eb5"/><path d="M134.39 74.32h9.85a.57.57 0 0 0 .42-1l-9.47-10.23-.83.77 8.59 9.27h-8.55z" fill="#2d6eb5"/><path d="M134.39 64.08h9.85a.57.57 0 0 0 .42-1l-9.47-10.23-.83.77 8.59 9.27h-8.55z" fill="#2d6eb5"/><path d="M134.39 53.83h9.85a.57.57 0 0 0 .42-1l-9.47-10.23-.83.77 8.59 9.27h-8.55z" fill="#2d6eb5"/><path fill="#2a3179" d="M151.93 54.03h-18.02V38.84h18.02zm-27.09-6.46h-18.02v-8.73h18.02z"/><path d="M107.12 40h89a.57.57 0 0 0 0-1.14h-89a.57.57 0 1 0 0 1.14zm84.31 2.03h.57v36.93h-.57zm-40.08 126.7h-23.82v-4.46h23.82z" fill="#2d6eb5"/><path d="M142.85 39.8a.28.28 0 0 0 .2-.08l4.74-4.72h43.51l4.46 4.46a.28.28 0 1 0 .4-.4l-4.63-4.63h-44l-4.91 4.91a.28.28 0 0 0 .2.48zm-36.11 0a.28.28 0 0 0 .25-.15l4.75-9.07h11.52l4.47 8.79a.28.28 0 1 0 .51-.26L123.61 30H111.4l-4.91 9.38a.28.28 0 0 0 .25.42z" fill="#2d6eb5"/><circle cx="191.71" cy="42.03" r="2.08" fill="#f8f5ef"/><path d="M179.39 35a.28.28 0 0 0 .08-.56l-42.05-12.85a.28.28 0 0 0-.19 0L117.29 30a.28.28 0 0 0 .22.52l19.84-8.37 42 12.79z" fill="#2d6eb5"/><path d="M143.95 39.84a.57.57 0 0 0 .53-.77l-6.62-17.43a.57.57 0 0 0-1.09.09l-3.42 17a.57.57 0 0 0 1.11.22l3-15.07 5.92 15.59a.57.57 0 0 0 .57.37z" fill="#2d6eb5"/><circle cx="137.33" cy="21.84" r="1.14" fill="#b9cbea"/><path d="M185.38 39.86a.28.28 0 0 0 .18-.06l5.58-4.51v4.21a.28.28 0 0 0 .57 0v-4.81a.28.28 0 0 0-.46-.22l-6 4.88a.28.28 0 0 0 .18.5z" fill="#2d6eb5"/><path d="M180 39.86a.28.28 0 0 0 .18-.06l5.58-4.51v4.21a.28.28 0 0 0 .57 0v-4.81a.28.28 0 0 0-.46-.22l-6 4.88a.28.28 0 0 0 .18.5z" fill="#2d6eb5"/><path d="M174.59 39.86a.28.28 0 0 0 .18-.06l5.58-4.51v4.21a.28.28 0 0 0 .57 0v-4.81a.28.28 0 0 0-.46-.22l-6 4.88a.28.28 0 0 0 .18.5z" fill="#2d6eb5"/><path d="M169.2 39.86a.28.28 0 0 0 .18-.06l5.62-4.52v4.22a.28.28 0 0 0 .57 0v-4.81a.28.28 0 0 0-.46-.22l-6 4.88a.28.28 0 0 0 .18.5z" fill="#2d6eb5"/><path d="M163.8 39.86a.28.28 0 0 0 .18-.06l5.58-4.51v4.21a.28.28 0 1 0 .57 0v-4.81a.28.28 0 0 0-.46-.22l-6 4.88a.28.28 0 0 0 .18.5z" fill="#2d6eb5"/><path d="M158.41 39.86a.28.28 0 0 0 .18-.06l5.58-4.51v4.21a.28.28 0 0 0 .57 0v-4.81a.28.28 0 0 0-.46-.22l-6 4.88a.28.28 0 0 0 .18.5z" fill="#2d6eb5"/><path d="M153 39.86a.28.28 0 0 0 .18-.06l5.58-4.51v4.21a.28.28 0 0 0 .57 0v-4.81a.28.28 0 0 0-.46-.22l-6 4.88a.28.28 0 0 0 .18.5z" fill="#2d6eb5"/><path d="M147.62 39.86a.28.28 0 0 0 .18-.06l5.58-4.51v4.21a.28.28 0 1 0 .57 0v-4.81a.28.28 0 0 0-.46-.22l-6 4.88a.28.28 0 0 0 .18.5zm-31.89 0a.28.28 0 0 0 .22-.1l7.25-8.55v8.3a.28.28 0 1 0 .57 0v-9.08a.28.28 0 0 0-.5-.18l-7.75 9.14a.28.28 0 0 0 .22.47z" fill="#2d6eb5"/><path d="M110.15 39.86a.28.28 0 0 0 .24-.13l5.52-8.35v8.12a.28.28 0 1 0 .57 0v-9.07a.28.28 0 0 0-.52-.16l-6 9.14a.28.28 0 0 0 .24.44z" fill="#2d6eb5"/><circle cx="191.71" cy="79.72" r="1.79" fill="#2a3179"/><path fill="none" stroke="#185faa" stroke-linecap="round" stroke-miterlimit="10" stroke-width="2" opacity=".5" d="M117.3 169.16h43.18"/><path fill="#ed6a5f" d="M297.04 187.53l-.65-8.91 1-6.56 3.38-19.32-1.63-.23-3.74 17.04-5.84.47-6.06-17.28-1.64.23 4.44 18.45 1.55 7.05-.18 8.59 9.37.47z"/><path fill="#2a3179" d="M288.99 163.71l-.57 5.1 3.46.27 2.12-5.37h-5.01z"/><circle cx="291.89" cy="165.58" r="3.5" fill="#f8f5ef"/><rect x="280.56" y="131.21" width="22.01" height="22.01" rx="4.21" ry="4.21" fill="#185faa"/><path d="M293.17 165.35a.28.28 0 0 0 .22 0c.07 0 .11-.1.15-.16a.55.55 0 0 1 .79 0 .71.71 0 0 1 .09.83 1 1 0 0 1-.73.47 6.64 6.64 0 0 0-.24 2.14l1.44.11a.39.39 0 0 0 .27 0 .38.38 0 0 0 .11-.23 11.72 11.72 0 0 0 .27-2.51 4.6 4.6 0 0 0-.52-2.38c-.51-.84-2.59-2.23-3.61-1.45s.99 2.83 1.76 3.18z" fill="#2a3179"/><path d="M290.27 164.14a3.44 3.44 0 0 1-2.19 1.06 3.13 3.13 0 0 1 1.07-2.46c.4-.34 1.72-1.09 2.27-.73s-.75 1.74-1.15 2.13z" fill="#2a3179"/><path fill="#185faa" d="M296.69 181.21l-8.92-.42-6.87 30.76-3.19-1.94 3.88 4.72 9.15-25.36-.14 11.5 6.2 8.22.39 2.96.17 1.26 1.1-.13.21-4.52-4.8-7.8 3.38-12.93-.56-6.32z"/><path fill="#f8f5ef" d="M297.26 161.08l1.93.67 1.58-9.01-1.63-.23-1.88 8.57zM286 159.87l-2.26.9-1.88-7.8 1.64-.23 2.5 7.13zm7.57 9.83l-1.67 2.97-.84-2.77 2.51-.2z"/><circle cx="282.53" cy="151.81" r="1.4" fill="#f8f5ef"/><circle cx="300.12" cy="152.07" r="1.4" fill="#f8f5ef"/><path d="M288.22 195.94l2.16-6 .2-1.9-2.81-7.27-3 13.36c1.29.71 2.54 1.35 3.45 1.81z" fill="url(#d)"/><circle cx="291.51" cy="138.46" r="2.88" fill="#f8f5ef"/><path d="M297.17 147.2a5.52 5.52 0 0 0-11 0z" fill="#f8f5ef"/><path fill="none" stroke="#185faa" stroke-linecap="round" stroke-miterlimit="10" stroke-width="2" opacity=".5" d="M269.64 213.76h43.17M211.68 173.7h43.18"/><rect x="149.32" y="103.37" width="22.01" height="22.01" rx="4.21" ry="4.21" fill="#185faa"/><path fill="#f8f5ef" d="M154.59 161.09l-1.66-17.05-2.13-18.22 1.66-.24 3.78 17.28 5.92.48 6.15-17.52 1.66.24-4.5 18.69.24 15.87-11.12.47z"/><circle cx="151.98" cy="124.87" r="1.42" fill="#ed6a5f"/><circle cx="168.55" cy="125.35" r="1.42" fill="#ed6a5f"/><circle cx="159.34" cy="137.68" r="3.61" fill="#ed6a5f"/><circle cx="159.34" cy="138.25" r="3.61" fill="#2a3179"/><path fill="#2d6eb5" d="M165.71 160.62l-1.64 26.14h-1.81l-1.54-25.93-1.61.07-.99 26.5-1.39-.04-2.14-26.27-.32-3.24 11.4.15.04 2.62z"/><path fill="#2d6eb5" d="M164.07 186.76l3.97.43-.14.62h-5.82l.18-1.05h1.81zm-5.95.64v.74l-5.46.2v-.68l4.07-.3 1.39.04z"/><path fill="none" stroke="#185faa" stroke-linecap="round" stroke-miterlimit="10" stroke-width="2" opacity=".5" d="M146.35 188.19h31.81"/><path d="M208.45 194.46a.52.52 0 0 1 0 .13v.1l-.09.12-.11.11-.15.12-.15.09h-.06l-.18.08h-.07l-.28.11-9.69 3.35-.29.08-.44.12-.57.11h-2.46l-.76-.07-.7-.12a6.26 6.26 0 0 1-.65-.18l-9.8-2.99-.15-.06-.13-.05-.13-.06-.12-.06-.1-.06-.11-.06-.08-.06-.09-.07-.07-.07-.02-.07-.06-.08v-.12a.54.54 0 0 1 0-.21v4.27a.54.54 0 0 0 0 .21v.12l.06.08.06.05.08.08h.06l.11.08h.08l.13.07h.09l.16.07h.11l.17.06 9.54 3.27.33.1.29.07h4.04l.41-.08h.05l.44-.12.23-.06h.06l9.69-3.35.27-.1h.07l.14-.07h.21l.12-.09.07-.07.06-.09v-.16a.51.51 0 0 0 0-.1z" fill="#94372a"/><path d="M207.24 193.46c1.63.56 1.6 1.48 0 2l-9.69 3.35a10.63 10.63 0 0 1-5.94 0l-9.61-3.19c-1.63-.56-1.61-1.48 0-2l9.69-3.35a10.66 10.66 0 0 1 6 0z" fill="#ed6a5f"/><path d="M246 190.8a.52.52 0 0 1 0 .13v.1l-.09.12-.11.11-.15.12-.15.09h-.06l-.18.08h-.07l-.28.11-9.69 3.35-.29.08-.44.12-.57.11h-2.46l-.76-.07-.7-.12a6.26 6.26 0 0 1-.65-.18l-9.78-2.95-.15-.06-.13-.05-.13-.06-.12-.06-.1-.06-.11-.06-.08-.06-.09-.07-.07-.07-.06-.06-.06-.08v-.12a.54.54 0 0 1 0-.21v4.27a.54.54 0 0 0 0 .21v.12l.06.08.06.05.08.08h.06l.11.08h.08l.13.07h.09l.16.07h.11l.17.06 9.54 3.27.33.1.29.07h4.04l.41-.08h.05l.44-.12.23-.06h.06l9.69-3.35.27-.1h.07l.14-.07h.21l.12-.09.07-.07.06-.09v-.16a.51.51 0 0 0 0-.1z" fill="#2a3179"/><path d="M244.79 189.8c1.63.56 1.6 1.48 0 2l-9.69 3.35a10.63 10.63 0 0 1-5.94 0l-9.59-3.15c-1.63-.56-1.61-1.48 0-2l9.69-3.35a10.66 10.66 0 0 1 6 0z" fill="#2d6eb5"/></g></svg>