<svg data-name="Слой 1" xmlns="http://www.w3.org/2000/svg" viewBox="0 0 400 225"><path fill="#5f5fff" d="M0 0h400v225H0z"/><path fill="#78c2ff" d="M85.36 100.74H69.91v13.56l2.36-2.36h13.09v-11.2z"/><path d="M62.35 105.15s3.77 1.85 2.84 6.85-1.35 5.71-.3 7.67 2.28 10.34 1.34 11.93-11.64-7-13.12-14.17.94-10.39 1.8-11.58 4.09-2.39 7.44-.7z" fill="#0e2d3d"/><path d="M63.39 123.3a5.26 5.26 0 0 1 3 2c.75 1.11.81 3.56.92 4s1.54 5.7 1.54 5.7l-4 2.68z" fill="#285173"/><path d="M78.19 212.83s2.61 3.52 2.26 4.08-3.11.64-4.78 0-1.71-4.76-2.47-6.53c-.32-.74.36-2.93 1.31-3.09a4 4 0 0 1 2 .31s-1 2.49 1.68 5.23z" fill="#1d3b54"/><path d="M76.52 207.57a16.63 16.63 0 0 1 .75 2.93c.17 1.19 1.86 3.71 1.78 4s-2.23.61-3.11-.21-1.44-3.21-1.63-4.64a11.52 11.52 0 0 0-.41-2s1.78-.96 2.62-.08z" fill="#eea886"/><path d="M55.44 212.89s2.52 3.46 2.16 4-3.11.64-4.78 0-1.71-4.76-2.47-6.53c-.32-.74.36-2.93 1.31-3.09a4.28 4.28 0 0 1 2.07.34s-.97 2.54 1.71 5.28z" fill="#1d3b54"/><path d="M53.73 207.63a23.54 23.54 0 0 0 .52 2.79c.32 1.16 2 3.79 2 4.1s-2.23.61-3.11-.21-1.55-3.2-1.63-4.64a7.66 7.66 0 0 1 .2-2.38 2 2 0 0 1 2.02.34z" fill="#eea886"/><path d="M66.33 150.33s2.24 10.44 2.76 13.06 2 15.35 2.11 17.52 2.34 10.32 2.24 11.09 3.24 16.3 3.24 16.3a2 2 0 0 1-2.35.08C73.71 208 67 193.85 67 190c0-5.34-3.95-12.31-4.46-13.51-4.73-11.1-3.8-14.5-4.42-15.22s-.67.45-1 2-1.13 15.4-1.6 17.16-.1 7.68-.36 10.67-1.39 16.5-1.39 16.5a1.23 1.23 0 0 1-2.11 0c-.26-.29-2.12-15.06-2.17-18.61s-.11-8.46-.21-10c-1-14.73-3.3-16.84.39-27.26 6.89-19.46 16.66-1.4 16.66-1.4z" fill="#eea886"/><path d="M51.26 147.41s-6.39 8.94-3.64 28c0 0 15.16 2.06 23.28-2.39 0 0-3.36-19.62-4.58-22.67s-15.06-2.94-15.06-2.94zm21.87 62.66v3.68h.48v-2.84l-.48-.84zm-22.85 0v3.68h.48v-2.84l-.48-.84z" fill="#1d3b54"/><path d="M59.84 122a24.6 24.6 0 0 0 3.16 1.27c.82.16 4 4.28 4.55 5.79s0 3.76-1.14 6.41-.07 3.53-.59 6.18a61.64 61.64 0 0 0-.88 9.73c.1 1.47-13.23 1.75-16.27-.93 0 0 3.06-4.58 3.45-5.23s.07-4.22-.29-5.13-2.75-8.7-2.75-8.7-2-6-.19-7.35c1.54-1.19 5.73-1.62 6.48-1.88a12.85 12.85 0 0 1 4.47-.16z" fill="#eddad3"/><path d="M60.59 127.24l1.41-1.67-1.24-4.41a29.12 29.12 0 0 0-.17 6.08z" fill="#d6c5be"/><path d="M61 119.28s-.06.59-.14 1.41c0 .36-.07.77-.1 1.19a27 27 0 0 0-.13 3.13s-2.45 2.45-5.23-2.86a7.3 7.3 0 0 0 .29-5.17c-.92-2.98 5.31 2.3 5.31 2.3z" fill="#eea886"/><path fill="#eea886" d="M60.59 125v2.25l-2.81-2.11 2.81-.14z"/><path fill="#d6c5be" d="M60.59 127.25l-1.17-1.45-3.94-3.93-1.27 1.23 6.38 4.15z"/><path d="M54.94 122.25s3.3 5 3.46 7.22a200.19 200.19 0 0 1-2.34 24c-1.11 5.31-9.13-.6-9.13-.6s5.39-8.72 3.32-15.71-2.82-9.78-2.82-9.78.71-3.89 3.23-4.44c2.22-.44 4.28-.69 4.28-.69zm12.83 7.48s.6 2.11-1.73 6.77c0 0 0 6 .1 7.83s1.38 8.57 1.38 8.57l-3.17 1.69a.65.65 0 0 1-1-.64c.65-5.36 2.77-25.71-1.8-31.18l1.83.54a14.84 14.84 0 0 1 4.39 6.42z" fill="#285173"/><path fill="#fae6de" d="M62.02 125.57l1.81.5-3.05-4.91 1.24 4.41zm-2.6.23l-1.64 2.16-3.38-5.64 1.08-.45 3.94 3.93z"/><path fill="#eb4747" d="M61.804 134.522l.47-.372 4.372 5.53-.471.373z"/><path d="M61.54 139.43a1.28 1.28 0 0 0 .69-.2c.47-.36.65-1.24 1.48-1.17s1.23 2.69 1 3.19-1.37.75-3.09.4-.08-2.22-.08-2.22z" fill="#eea886"/><path d="M63.42 138.07a26.22 26.22 0 0 1 2.59-.71c1.22-.26 2.68-.35 2.82-.14s-1.19.44-2.38.78-.84.43-.84.43-.07 0 1.18-.15 2.74-.12 2.88.15 0 .22-.47.34c.29 0 .33.06.34.18.06.61-1.91 1.09-2.69 1.28.6-.14 1.06-.19.84.22s-3.06 1-4 1.32-.27-3.7-.27-3.7z" fill="#eea886"/><path d="M51.13 123.07c-.83-.27-3.26.59-3.67 3.09s-.58 5.26-1 6.6-1.32 7.24-.46 7.78a9.31 9.31 0 0 0 4.56.94c2.25 0 11 .39 11 .39l.55-3.1s-3.32-.17-5-.43c-1.53-.23-3.65-.88-6.15-1.16a41.86 41.86 0 0 1 .91-4.72c.3-1.05 2.99-8.19-.74-9.39z" fill="#285173"/><path fill="#eea886" d="M67.12 139l.41 1-.88-.62.47-.38z"/><path fill="#e8734d" d="M62.3 144.21l8.81-1.74 6.52-13.97-9.39.98-5.94 14.73z"/><path d="M72.2 140.1a7.13 7.13 0 0 0 .91-1.08 16 16 0 0 0 1.71-3.17 4.78 4.78 0 0 0-2.6.14c-.38.34.37.47.37.47s-1.14.12-1.06.44.77.23.77.23-.92.18-.78.46.58.28.58.28-.81.1-.71.41 1.39.6 1.22.86a6 6 0 0 0-.41.96z" fill="#eea886"/><path d="M61.8 105.71s5.49 1.72 2.51 11.19-10.47-1.1-9.69-6.87 7.18-4.32 7.18-4.32z" fill="#eea987"/><path d="M64.87 111.23a12.37 12.37 0 0 1-7.29 3 11.56 11.56 0 0 0-1.89 2.86s-4.07-6.94.93-11.1 10.09 3.53 8.25 5.24z" fill="#0e2d3d"/><path d="M57.63 114.43c0-.69-.46-2.26-1.48-1.82s.06 3.63.74 3.44c0-.05.83.01.74-1.62z" fill="#eea987"/><path d="M60.82 120.69c0 .36-.07.77-.1 1.19-3.17-1.57-3.66-3.88-3.72-3.88 2.31 2.9 3.82 2.69 3.82 2.69z" fill="#a77860"/><path d="M152.26 136.29a12.87 12.87 0 0 0 3.25 9.69c4 4.21 12.89 2.71 12.89 2.71s-1.48-5-4.71-7-9.61-2.78-11.43-5.4z" fill="#869135"/><path d="M156.86 125.89a16.21 16.21 0 0 0-.46 12.86c2.8 6.71 14 8.9 14 8.9s.46-6.52-2.45-10.37-10.09-7.49-11.09-11.39z" fill="#48753a"/><path d="M303.35 46.88s5.55 8.42.87 12.89-5.23-.52-5.23-.52-2.5.16 2.47-5.53c2.34-2.72 1.89-6.84 1.89-6.84z" fill="#bbd070"/><path d="M318.2 42.58s4 7.65-5.36 14.81-9.27 12.1-9.27 12.1S297 51.77 318.2 42.58z" fill="#97a43c"/><path d="M302.38 66.24c-3.54-.1 1.65-9.09 7.41-10.91s10.37-1.07 13.88-3.3c0-.03-3.85 14.69-21.29 14.21z" fill="#48753a"/><path fill="#78c2ff" d="M160.94 37.59h.74v89.12h-.74z"/><path fill="#78c2ff" d="M106.33 101.72h61.53v.75h-61.53z"/><path d="M314.43 172.13H193.64a10.42 10.42 0 0 1-10.17-10.62v-85a10.42 10.42 0 0 1 10.17-10.62h120.79a10.41 10.41 0 0 1 10.17 10.57v85a10.42 10.42 0 0 1-10.17 10.67zM193.64 66.73a9.52 9.52 0 0 0-9.28 9.73v85a9.52 9.52 0 0 0 9.28 9.73h120.79a9.52 9.52 0 0 0 9.28-9.73v-85a9.52 9.52 0 0 0-9.28-9.73z" fill="#4da8f2"/><path d="M273.32 134.28h-.91v-.89h4v.89c-.99-.01-2.04 0-3.09 0zm-4.94-.07c-1.35 0-2.71-.1-4-.17v-.89c1.32.07 2.67.13 4 .17zm12.11-.08v-.89c1.34-.06 2.69-.14 4-.23l.06.89c-1.34.1-2.7.16-4.05.22zm-20.17-.36c-2.53-.21-4-.4-4-.4l.12-.89s1.48.19 4 .4zm28.23-.22l-.09-.89c1.34-.13 2.68-.29 4-.46l.12.89c-1.32.16-2.67.32-4.02.45zm8-1.05l-.14-.88c1.33-.22 2.66-.46 3.95-.72l.18.88c-1.29.22-2.63.49-3.97.71zm7.92-1.6l-.21-.87c1.31-.32 2.62-.66 3.87-1l.25.86c-1.25.33-2.56.68-3.89 1zm7.77-2.25l-.29-.85c1.28-.44 2.54-.9 3.76-1.39l.33.83c-1.21.49-2.48.96-3.78 1.4zm7.52-3l-.38-.81c1.22-.57 2.42-1.19 3.56-1.82l.43.78c-1.13.62-2.37 1.2-3.59 1.82zm7.1-3.93l-.49-.75a49.52 49.52 0 0 0 3.25-2.3l.54.71c-1.02.78-2.16 1.57-3.28 2.31zm6.42-5l-.6-.66c1-.9 1.92-1.85 2.8-2.82l.66.6c-.88 1.01-1.84 1.98-2.85 2.9zm5.44-6l-.72-.53c.79-1.06 1.53-2.17 2.21-3.3l.77.46c-.69 1.16-1.45 2.29-2.25 3.38zm4.16-7l-.81-.38c.56-1.18 1.07-2.42 1.52-3.67l.84.3c-.43 1.34-.97 2.6-1.54 3.8zm2.75-7.62l-.86-.23c.33-1.26.61-2.57.84-3.89l.88.15c-.23 1.41-.49 2.74-.85 4.03zm1.39-8l-.89-.09c.12-1.29.2-2.63.24-4h.89c-.02 1.5-.1 2.86-.26 4.18zm-.67-8.06c0-1.3-.13-2.64-.25-4l.89-.08c.12 1.36.21 2.72.26 4zm-.72-8c-.18-1.29-.4-2.62-.65-4l.88-.16c.25 1.34.47 2.68.65 4zm-1.46-7.87c-.11-.48-.22-1-.34-1.45-.2-.82-.41-1.63-.64-2.41l.86-.25c.23.8.45 1.62.66 2.45.12.49.23 1 .34 1.47zm-2.26-7.63c-.48-1.24-1-2.47-1.59-3.63l.8-.4c.59 1.19 1.13 2.44 1.62 3.71zM67.22 51.16l-.81-.37c.56-1.23 1.15-2.46 1.73-3.64l.8.4c-.58 1.16-1.16 2.38-1.72 3.61zm271.21-1.6a38.49 38.49 0 0 0-2.25-3.26l.71-.54c.82 1.06 1.59 2.19 2.3 3.33zM70.78 44l-.78-.44c.64-1.2 1.31-2.38 2-3.52l.77.45c-.69 1.13-1.35 2.3-1.99 3.51zm262.84-.7c-.89-1-1.85-1.88-2.85-2.75l.59-.67c1 .89 2 1.84 2.91 2.81zm-5.95-5.3c-1-.76-2.16-1.51-3.31-2.21l.47-.76c1.17.71 2.3 1.47 3.37 2.25zM74.84 37l-.75-.48c.74-1.14 1.5-2.27 2.26-3.35l.73.52c-.76 1.15-1.51 2.31-2.24 3.39zm246-3.19c-1.15-.59-2.37-1.16-3.61-1.7l.35-.82c1.26.54 2.49 1.12 3.66 1.72zm-7.32-3.17c-1.22-.44-2.49-.87-3.79-1.28l.26-.85c1.31.41 2.6.84 3.83 1.29zm-234.1-.16l-.7-.55c.84-1.07 1.7-2.12 2.57-3.12l.68.59c-.82 1.06-1.68 2.1-2.5 3.16zm226.45-2.21c-1.25-.33-2.56-.65-3.89-.95l.2-.87c1.34.3 2.66.62 3.93 1zm-7.82-1.76c-1.28-.24-2.61-.48-4-.69l.14-.88c1.35.22 2.69.46 4 .7zm-7.92-1.29c-1.28-.18-2.62-.35-4-.51l.1-.89c1.37.16 2.71.33 4 .51zm-205.43-.7l-.64-.62c.94-1 1.91-1.93 2.89-2.83l.61.66a68.2 68.2 0 0 0-2.86 2.79zm197.49-.17l-4-.37.08-.89 4 .38zm-8-.7l-4-.28.06-.89 4 .28zm-8-.53l-4-.23V22l4 .23zm-8-.44l-3.83-.19h-.19v-.89h.19l3.83.19zm-8-.41l-4-.21v-.89l4 .21zm-8.19-.43l-4-.25.06-.89 4 .25zm-8-.53l-4-.31.08-.89 4 .32zm-8-.7c-1.37-.14-2.72-.28-4-.43l.1-.89c1.29.15 2.63.3 4 .43zm-8-.94c-1.36-.19-2.7-.39-4-.59l.14-.88c1.28.21 2.62.4 4 .59zm-127.43-.56l-.57-.69c1-.85 2.12-1.68 3.21-2.47l.52.73a66.33 66.33 0 0 0-3.16 2.43zM210 18.39c-1.35-.25-2.68-.52-4-.8l.19-.87c1.27.28 2.59.55 3.93.8zm-7.89-1.74l-1.74-.46-2.14-.59.24-.86 2.14.59 1.73.46zm-7.77-2.12l-3.88-1.05.23-.86 3.88 1.05zM97 14.45l-.47-.76c1.14-.71 2.32-1.4 3.5-2l.42.79c-1.12.59-2.28 1.27-3.45 1.97zm89.51-2l-3.89-1 .22-.87 3.9 1zm-82.49-1.79l-.37-.81c1.21-.56 2.47-1.09 3.73-1.58l.32.83c-1.2.48-2.44 1-3.64 1.55zm74.7-.19l-3.91-.93.2-.87 3.92.94zm-7.83-1.82c-1.33-.29-2.65-.57-3.93-.83l.18-.88c1.28.26 2.61.54 3.94.84zm-59.39-.87l-.27-.85c1.27-.4 2.58-.78 3.89-1.11l.22.87c-1.34.31-2.58.69-3.84 1.09zM163.06 7c-1.34-.25-2.67-.48-4-.7l.15-.88c1.29.21 2.63.45 4 .7zm-43.81-1.19l-.17-.88c1.3-.26 2.65-.48 4-.67l.13.88c-1.35.19-2.68.41-3.96.67zm35.89-.08c-1.34-.19-2.68-.37-4-.52l.11-.89c1.3.15 2.65.33 4 .53zm-8-.94c-1.35-.12-2.69-.23-4-.3l.05-.89c1.31.08 2.67.18 4 .31zm-20-.11l-.08-.89c1.32-.12 2.67-.22 4-.29v.89c-1.25.06-2.59.15-3.89.28zm12-.37h-4v-.94h4z" fill="#c2bebc"/><path d="M338.45 46.38a25.91 25.91 0 0 0-2.77-6.68l2.82-4.24-3.91-3.92-3.92-3.92-4.25 2.82a25.93 25.93 0 0 0-6.68-2.77l-1-5h-11.08l-1 5a25.93 25.93 0 0 0-6.66 2.78l-4.24-2.82-3.92 3.92-3.92 3.92 2.82 4.24a25.94 25.94 0 0 0-2.77 6.68l-5 1v11.07l5 1a25.93 25.93 0 0 0 2.77 6.68l-2.82 4.24 3.92 3.92 3.92 3.92 4.24-2.81a25.93 25.93 0 0 0 6.68 2.77l1 5h11.07l1-5a25.93 25.93 0 0 0 6.68-2.77l4.25 2.82 3.92-3.92 3.91-3.92-2.82-4.24a25.9 25.9 0 0 0 2.77-6.68l5-1V47.39zm-25.26 25.95a19.4 19.4 0 1 1 19.4-19.4 19.4 19.4 0 0 1-19.4 19.4z" fill="#73c0ff"/><rect x="166.39" y="55.33" width="146.81" height="105.4" rx="10.18" ry="10.18" fill="#dae8f5"/><path d="M234.47 81.94a30.11 30.11 0 1 0-56.71 20.28c.23.64.48 1.26.74 1.88a30.12 30.12 0 0 0 56-22.16zm-20.75 31.4a22.55 22.55 0 0 1-28.31-12.25q-.3-.69-.56-1.41a22.58 22.58 0 1 1 28.86 13.66z" fill="#78c2ff"/><path d="M184.57 85.35l-7.19-2.25A30.16 30.16 0 0 1 205.22 62l.22 7.53a22.61 22.61 0 0 0-20.88 15.85z" fill="#1a598c"/><path d="M185.42 101.09l-6.91 3c-.27-.61-.51-1.24-.74-1.88a30 30 0 0 1-.39-19.12l7.19 2.25a22.48 22.48 0 0 0 .29 14.33q.26.73.56 1.42z" fill="#2273b5"/><path d="M183.17 111.6a30 30 0 0 1-4.67-7.5l6.91-3a22.45 22.45 0 0 0 3.5 5.62z" fill="#4da8f2"/><path d="M185 154.9a15.26 15.26 0 1 0 13.05-27.59c-.31-.15-.62-.28-.94-.41a15.26 15.26 0 0 0-12.12 28zm-3.82-18.69a11.44 11.44 0 0 1 11.26-6.51 11.33 11.33 0 0 1 3.27.76l.7.3a11.44 11.44 0 1 1-15.24 5.45z" fill="#6eb2eb"/><path d="M201.71 135.8l3.38-1.77a15.28 15.28 0 0 1-2.41 17.55l-2.77-2.58a11.46 11.46 0 0 0 1.8-13.16z" fill="#1a598c"/><path d="M195.76 130.46l1.4-3.56c.31.12.63.26.94.41a15.19 15.19 0 0 1 7 6.71l-3.38 1.77a11.39 11.39 0 0 0-5.24-5z" fill="#2273b5"/><path d="M192.8 125.89a15.21 15.21 0 0 1 4.36 1l-1.4 3.56a11.33 11.33 0 0 0-3.27-.76zM313.19 65.5v85A10.18 10.18 0 0 1 303 160.73h-56V55.33h56a10.18 10.18 0 0 1 10.19 10.17z" fill="#4da8f2"/><rect x="255.54" y="66.26" width="49.16" height="5.36" rx="1.63" ry="1.63" fill="#e3f2ff"/><rect x="255.54" y="77.75" width="49.16" height="5.36" rx="1.63" ry="1.63" fill="#73c0ff"/><rect x="255.54" y="90.93" width="49.16" height="60.56" rx="5.47" ry="5.47" fill="#73c0ff"/><rect x="252.34" y="88.35" width="17.46" height="44.89" rx="6.73" ry="6.73" fill="#e0f1ff" opacity=".58"/><path fill="#78c2ff" d="M138.66 50.46h112.19v.75H138.66z"/><path d="M149.9 44.3a6 6 0 1 1 6-6 6 6 0 0 1-6 6zm0-11.13a5.12 5.12 0 1 0 5.1 5.11 5.12 5.12 0 0 0-5.1-5.12z" fill="#4da8f2"/><path d="M133.78 112.82s5.62 1 5.67 5.76-4.3 11.65-7.13 11.14-6-3-5.94-5.91.91-6.7 2.22-8.78a5.36 5.36 0 0 1 5.18-2.21z" fill="#eea886"/><path d="M126.57 121.6s0 1 1.94 1.74 5.48-.31 6.37-.13S136 123 136 123l.06.95.76.51s.53-2.53 2.12-2.75 2.91-7.47-3.93-8.85c0 0-5.07-1.38-6.37 1.19s-2.31 5.74-2.07 7.55z" fill="#e8734d"/><rect x="117.85" y="147.15" width="57.15" height="57.15" rx="8.05" ry="8.05" fill="#87c9ff" opacity=".82"/><rect x="113.42" y="55.33" width="57.15" height="43.41" rx="5.73" ry="5.73" fill="#e3f2ff"/><rect x="148.44" y="155.55" width="22.2" height="6.15" rx="1.65" ry="1.65" fill="#e3f2ff"/><rect x="148.44" y="164.82" width="22.2" height="32.58" rx="3.79" ry="3.79" fill="#e3f2ff"/><path d="M130.69 172.89a10.21 10.21 0 0 0 13.49-9.54v-.68a10.21 10.21 0 1 0-13.47 10.23zm-4.38-9.77a7.66 7.66 0 0 1 14.86-2.52 7.63 7.63 0 0 1 .45 2.2v.51a7.66 7.66 0 1 1-15.31-.2z" fill="#e3f2ff"/><path d="M140 167.9l2 1.57a10.23 10.23 0 0 1-11.35 3.42l.82-2.42a7.67 7.67 0 0 0 8.53-2.57z" fill="#1a598c"/><path d="M141.61 162.8l2.55-.14v.68a10.17 10.17 0 0 1-2.14 6.12l-2-1.57a7.62 7.62 0 0 0 1.6-4.59q.01-.3-.01-.5z" fill="#2273b5"/><path d="M141.61 162.8a7.63 7.63 0 0 0-.45-2.2l2.4-.87a10.16 10.16 0 0 1 .6 2.94z" fill="#2273b5"/><path d="M127.82 155.05a10.21 10.21 0 0 1 15.74 4.67l-2.4.88a7.66 7.66 0 0 0-11.84-3.47z" fill="#4da8f2"/><path fill="#d6d6d6" d="M58.72 74.67l12.31-19.24-6.25 2.84-6.06 16.4z"/><path fill="#e8e8e8" d="M58.72 74.67l.75-11.6 4.47-2.55-5.22 14.15z"/><path fill="#c2c2c2" d="M68.2 59.85l1.53 2.03-11.01 12.79 9.48-14.82z"/><path d="M144.25 150.09a1.7 1.7 0 0 0 .87-.4c.55-.56.6-1.76 1.72-1.84s2.14 3.3 2 4-1.66 1.25-4 1.14-.59-2.9-.59-2.9z" fill="#eea886"/><path d="M146.46 147.93a34.92 34.92 0 0 1 3.27-1.44c1.55-.59 3.47-1 3.68-.74.46.59-1.35 1-2.85 1.69l-1.15.53s-.1 0 1.52-.43 3.58-.7 3.81-.37c.11.16.32.72-.42.69.38-.07.32-.13.36 0 .2.79-2.3 1.81-3.29 2.22.76-.31 1.35-.45 1.15.12s-3.82 2-5.06 2.54-1.02-4.81-1.02-4.81z" fill="#eea886"/><path d="M119.86 126.83a42.54 42.54 0 0 0-6 0c-2.48.25-5.9 2.28-8 2.87s-7.07 3.94-6.94 4.4a37.34 37.34 0 0 0 5.65 10.37c3.11 3.79 15.29-17.64 15.29-17.64z" fill="#d4d8e8"/><path d="M112.29 129s-3.78 2.8-5.1 5.37a20.77 20.77 0 0 0-1.77 5.62z" fill="#a9adba"/><path d="M115.15 212.45a9.19 9.19 0 0 0 1.71 1.45c.62.3 8.09 1.59 8.6 2.19s.51 3-1.42 3h-9.42c-1.08 0-5.65.95-6.12 0s-.43-5.36.41-6.42 6.24-.22 6.24-.22z" fill="#1c4154"/><path d="M114.92 211.11l.23 1.34s-2 .91-6.25.24v-1.39z" fill="#2a617d"/><path d="M69.59 208.74a7.38 7.38 0 0 0-1.25 2.26c-.26.81-1.52 4.56-1 5.47s4.8 1 6.92.71 6.75.37 7.23-.54.74-2.24-.64-2.76-4.56-1.87-5.13-3.29-6.13-1.85-6.13-1.85z" fill="#1c4154"/><path d="M76.33 209l-.59 1.52s-6.1-.46-6.15-1.82l1.93-2.8z" fill="#2a617d"/><path d="M126.39 124.24s-3.4 2.89-4.37 2.65 3.33 6.11 3.33 6.11 4.09-4 5-4.15-3.96-4.61-3.96-4.61z" fill="#eea886"/><path d="M126.62 135.63c-1.16.7-1.35.92-1.22 4.23s1.51 6 1.61 6.89 1.94 10 2.45 10.46 6.56-.67 7.79-1.05c1.83-.57 9.59-3.2 9.59-3.2l-1.71-3.56s-9.8 2.18-10.11 1.42-1.08-7.19-1.35-8.59.2-3.59-1.47-6.9c-1.49-2.95-5.58.3-5.58.3z" fill="#d4d8e8"/><path d="M115.13 160.54s2.08 2.21 2.66 2.93A115.68 115.68 0 0 1 127.86 179c.68 1.58-3.35 12.72-5 16.62-.87 2-6.6 16.11-6.42 16.43s-6.06.52-8.85-.92c0 0 4-11.89 4.86-14.23 1.28-3.52 5.71-13.28 5.84-14.22s-7.16-8.74-9.59-10.23a92.5 92.5 0 0 1-9.06-7.45c-.68-.68-4.5-2.48-4.14-5.9a12 12 0 0 1 2.9-6.1z" fill="#326ea0"/><path d="M104.22 169l-.91 2.4c-1.15 3-3 7.86-3.3 8.63-.45 1.13-2.7 6-3.78 6.94s-18.88 22.3-18.93 22.48-6.66-3.24-7.07-4.55c0 0 9.64-12.56 11.12-14.41s4.59-4.59 5.63-9 8.46-21.17 8.49-21.8c0 0 1.2-5.18 2.93-6.75s8 .27 9 3.56-3.18 12.5-3.18 12.5z" fill="#326ea0"/><path d="M121.71 126.86l1.44-.57a10.79 10.79 0 0 1 5.72 3.74l-.18.87s-5.53-1.2-6.98-4.04z" fill="#d4d8e8"/><path d="M127.25 148a5.77 5.77 0 0 1-.68.83l-.37.31-.14-5.45.78 2.41c.16.32.41 1.9.41 1.9z" fill="#a9adba"/><path d="M104.22 169l-.91 2.4a59.75 59.75 0 0 1-4-6.66c.18.13.76.67.89.79z" fill="#215b8a"/><path d="M135.16 122.78c.13-.41-.18-2-1.19-1.09s-1 2.91-.43 3.07 1.29-.93 1.62-1.98z" fill="#eea886"/><path d="M131.39 113.92s-4.87-3.47-4.9 8.35z" fill="#e8734d"/><path d="M127.25 148a5.77 5.77 0 0 1-.68.83l-.37.31a56.93 56.93 0 0 1-5.89 4c-1.58.86-4.57 8.07-4.57 8.07s-14.1-1-17.34-8.25a64.53 64.53 0 0 1 4.39-8.17c2.09-3 6.69-14 9.12-15.54s4.53-2.57 9.32-2.43a10.06 10.06 0 0 1 7.45 3.94s3.65 3.92 4 6c.32 1.78-3.68 8.74-5.43 11.24z" fill="#d4d8e8"/><path d="M170.57 61.05l-.1 3.18h-57.15l.1-3.18a5.72 5.72 0 0 1 5.73-5.73h45.7a5.72 5.72 0 0 1 5.72 5.73z" fill="#4da8f2"/><path d="M131.35 95.07h-11.5a2.7 2.7 0 0 1-2.69-2.69V69.46a2.7 2.7 0 0 1 2.69-2.69h11.5a2.7 2.7 0 0 1 2.65 2.69v22.92a2.7 2.7 0 0 1-2.65 2.69zm-11.5-27.42a1.8 1.8 0 0 0-1.8 1.8v22.93a1.8 1.8 0 0 0 1.8 1.8h11.5a1.8 1.8 0 0 0 1.8-1.8V69.46a1.8 1.8 0 0 0-1.8-1.8z" fill="#78c2ff"/><rect x="137.09" y="67.21" width="29.19" height="2.38" rx="1.1" ry="1.1" fill="#78c2ff"/><rect x="137.09" y="72.05" width="29.19" height="2.38" rx="1.1" ry="1.1" fill="#78c2ff"/><rect x="212.43" y="129.26" width="20.86" height="5.56" rx="1.7" ry="1.7" fill="#6eb2eb"/><rect x="212.43" y="138.33" width="20.86" height="5.56" rx="1.7" ry="1.7" fill="#4da8f2"/><rect x="212.43" y="147.39" width="20.86" height="5.56" rx="1.7" ry="1.7" fill="#2273b5"/><circle cx="120.09" cy="60.16" r="2.48" fill="#e3f2ff"/><path d="M309.38 146s10.1 3.26 12.43 2.68c1.23-.3 3.16-2.05 4.95-3.94l.87-.94c2-2.17 3.59-4.24 3.59-4.24s4.89-5.73 1-8.29a5.24 5.24 0 0 0-3 1.56 20 20 0 0 0-2.88 4.38c-.34.75-5.15 7.68-5.4 7.83s-2.35-.4-4-.54a36.83 36.83 0 0 1-6.85-1.63z" fill="#2273b5"/><path d="M323.26 208.21a11.42 11.42 0 0 1-2 2.76c-1 .58-2.8 2.44-3.44 2.53s-3 .5-2.51 1.8c.37 1.07 5.89.92 6.52.38s2.49-2.46 3.24-2.42.47 2.78.47 2.78h.82s.29-2.66.32-3.12c.1-1.36-.86-2.35-.91-3.13s-.09-1.35-.09-1.35z" fill="#16202e"/><path d="M318 213.44a4.41 4.41 0 0 0 3.22-.18c1.4-.81 4.09-2 5-2 0 0-.52-1.59-.53-1.76s-.07-1-.07-1l-2.35-.38a20.37 20.37 0 0 1-2.2 2.77 38.07 38.07 0 0 0-3.07 2.55zm27.48-3.07a9.87 9.87 0 0 1-.48 2c-.25.43-.93 2.65-1.24 3.06s-1 3.51 0 3.88 3.33 1 4.11-.25a5.1 5.1 0 0 0 .76-3.43c-.12-1-1.07-5.31-1.05-5.74s-2.1.48-2.1.48z" fill="#eea886"/><path d="M344.16 214.6s-.16 2.4 1.71 2.4 2.62-2.19 2.62-2.19.62 1.08 0 3.37-3.2 1.82-3.78 1.74-3.32-.81-.55-5.32z" fill="#16202e"/><g data-name="&lt;Groupe&gt;"><g data-name="&lt;Groupe&gt;"><path data-name="&lt;Tracé&gt;" fill="#d33740" d="M292.43 117.44l-5.67 3.27 5.67 3.27 5.67-3.27-5.67-3.27z"/><g data-name="&lt;Groupe&gt;"><path data-name="&lt;Tracé&gt;" fill="#e2444c" d="M278.27 115.81l-.01-.01v23.93l8.5 4.9v-23.92l5.67 3.27-9.92-23.72-9.91 12.27 5.67 3.28z"/><path data-name="&lt;Tracé&gt;" fill="#ff5c5d" d="M283.94 112.54l-.01-.01v23.93l8.5 4.9v-23.92l5.67 3.27-9.92-23.72-9.92 12.27 5.68 3.28z"/></g><path data-name="&lt;Tracé&gt;" fill="#d33740" d="M288.18 96.99l-5.67 3.27-9.91 12.27 5.66-3.27 9.92-12.27z"/><path data-name="&lt;Tracé&gt;" fill="#ff8086" d="M283.93 136.46l-5.67 3.27 8.5 4.9 5.67-3.27-8.5-4.9z"/></g><path data-name="&lt;Tracé&gt;" fill="#ff5c5d" d="M278.26 109.26l19.84 11.45-9.92-23.72-9.92 12.27z"/></g><path d="M342.48 155.53a29.38 29.38 0 0 1 3.18 5c.83 2 2.21 6.32 2 9.69s-1.29 9.68-1 11.1.64 4.38 1 5.39a23.46 23.46 0 0 1 1.87 7c.14 3-1 16.38-.89 17.62s-4 .48-4 .48-.11-12-.57-14.1-1-9.12-1.43-9.63-1.58-5.85-1.65-6.72-5-15.46-5.28-17.94-6.45-7.87-6.45-7.87a21.54 21.54 0 0 1 13.22-.02z" fill="#1a598c"/><path d="M327.17 208.87c.88-.14 3.22-13.61 2.94-16s-.55-7.5.23-9.58c.51-1.36 3.72-8.3 5.89-13.16l.84-1.92a21.62 21.62 0 0 0 1.15-2.94c0-.92 3.05-16.79-8.82-9.73a14.18 14.18 0 0 1-.26 1.72c-.14.46-3.32 12.21-3.64 16.72a89.31 89.31 0 0 1-1.29 9.31 20 20 0 0 0 .41 5c.28.83-1.8 19.55-1.94 20s3.61.71 4.49.58z" fill="#1a598c"/><path d="M334.06 130.45a23.53 23.53 0 0 1-3 1.22c-.78.16-3.81 4.08-4.34 5.52s0 3.59 1.09 6.11.06 3.37.56 5.9a58.72 58.72 0 0 1 .84 9.28c-.09 1.4 12.61 1.67 15.51-.88 0 0-2.91-4.37-3.29-5s-.06-4 .28-4.9 2.77-8.09 2.77-8.09 1.72-5.92 0-7.23c-1.47-1.14-5.46-1.55-6.18-1.79a12.25 12.25 0 0 0-4.24-.14z" fill="#eddad3"/><path d="M333.34 135.46l-1.36-1.6 1.19-4.21a27.75 27.75 0 0 1 .17 5.81z" fill="#d6c5be"/><path d="M333 127.86a53.77 53.77 0 0 1 .35 5.46s2.33 2.34 5-2.73a7 7 0 0 1-.28-4.94c.82-2.84-5.07 2.21-5.07 2.21z" fill="#eea886"/><path fill="#eea886" d="M333.34 133.32v2.14l2.69-2.01-2.69-.13z"/><path fill="#d6c5be" d="M333.34 135.46l1.11-1.38 3.76-3.74 1.22 1.17-6.09 3.95z"/><path d="M337.65 160.5c1.06 5.06 8.71-.57 8.71-.57s-5-8.33-3-15v-.16q.19-.63.38-1.2l.07-.2c.43-1.31.78-2.39 1.07-3.28.88-2.74 1.14-3.64 1.14-3.64s-.38-4.27-2.48-4.74-4.35-.91-4.35-.91-3.65 4.69-3.81 6.79a190.84 190.84 0 0 0 2.27 22.91zm-11.27-22.34a13.52 13.52 0 0 0 1.76 6.71s0 5.1-.11 6.88-.49 8.5-.49 8.5l2.19 1.28a.62.62 0 0 0 .93-.61c-.62-5.12-2.63-24.52 1.73-29.74l-1.94.67s-4.07 4.28-4.07 6.31z" fill="#2273b5"/><path fill="#fae6de" d="M331.98 133.86l-1.72.47 2.9-4.68-1.18 4.21zm2.47.22l1.57 2.06 3.21-5.35-1.02-.45-3.76 3.74z"/><path d="M334.61 114.56a5.59 5.59 0 0 0-6.11 4.83 13.56 13.56 0 0 0 .32 2.12c.24.94-.72 3.62-.51 3.77a6 6 0 0 0 1.09.36s.82 3 1.87 3a8.68 8.68 0 0 0 7.08-4.22c2.05-3.56 2.9-9.22-3.74-9.86z" fill="#eea886"/><path d="M328.51 119.4a14.82 14.82 0 0 0 5.22 2.44c2.64.49 4.06 5.08 4.06 5.08s4.42-6.64 1.36-10.9-10.98-1.74-10.64 3.38z" fill="#344052"/><path d="M334.84 121.77a.82.82 0 0 1 1.46-.51c.81.74-.44 3.13-1.12 2.86s-.38-1.82-.34-2.35z" fill="#eea886"/><path d="M333 128.46c.06.32.12.69.17 1.09a11.48 11.48 0 0 0 3.37-2.87 13 13 0 0 1-3.54 1.78z" fill="#a77860"/><path d="M285.95 156.29l32.79.16a3.25 3.25 0 0 0 3.27-3.23l.11-21.88a3.25 3.25 0 0 0-3.24-3.27l-32.79-.16a3.25 3.25 0 0 0-3.27 3.24l-.11 21.85a3.25 3.25 0 0 0 3.24 3.29z" fill="#e0f1ff" opacity=".86"/><path d="M300.55 154.1l16.71.08a2.13 2.13 0 0 0 2.14-2.12l.09-18.59a2.13 2.13 0 0 0-2.12-2.14l-16.71-.08a2.13 2.13 0 0 0-2.14 2.12l-.1 18.63a2.13 2.13 0 0 0 2.13 2.1zm-4.12.049l-9.39-.046a.73.73 0 0 1-.727-.734l.01-2a.73.73 0 0 1 .734-.726l9.39.046a.74.74 0 0 1 .736.744l-.01 2a.74.74 0 0 1-.744.736z" fill="#a1d4ff"/><rect x="291.24" y="143.63" width="1.03" height="10.86" rx=".33" ry=".33" transform="rotate(-89.72 291.753 149.059)" fill="#a1d4ff"/><path d="M323.32 147.27a1.21 1.21 0 0 1-.68 0c-.51-.24-.85-1-1.61-.8s-.61 2.74-.32 3.16 1.42.42 3-.23-.39-2.13-.39-2.13z" fill="#eea886"/><path d="M321.3 146.38a25 25 0 0 0-2.55-.15 5.56 5.56 0 0 0-2.65.43c-.1.25 1.19.17 2.37.25s.86.23.86.23.06 0-1.13.09-2.57.43-2.65.7 0 .21.5.23c-.27 0-.3.12-.29.23.07.58 2 .64 2.76.66-.59 0-1 0-.74.37s3 .35 4 .43-.48-3.47-.48-3.47z" fill="#eea886"/><ellipse cx="339.86" cy="121.98" rx="3.64" ry="2.79" transform="rotate(-66.27 339.882 121.967)" fill="#344052"/><path d="M344 131.86a5.21 5.21 0 0 0-3.13 2 23 23 0 0 0-2.3 4.71c-.2.8-4.13 8.11-4.34 8.31s-2.38 0-4.06.2a36.9 36.9 0 0 1-7-.37v3.16s10.52 1.39 12.71.41C338.5 149.07 345 140 345 140s3.34-6.33-1-8.14z" fill="#2273b5"/><path d="M339.77 146.65l4.1-3.28c.43-1.31.78-2.39 1.07-3.28-.01-.01-4.16 5.44-5.17 6.56zm-13.01-1.89l.87-.94a22.7 22.7 0 0 1-1.18-4.2 18.3 18.3 0 0 0 .31 5.14z" fill="#1a598c"/><path d="M295.65 133.94a4.8 4.8 0 1 0-9 3.23c0 .1.08.2.12.3a4.8 4.8 0 0 0 8.91-3.53zm-3.31 5a3.6 3.6 0 0 1-4-1.06 3.55 3.55 0 0 1-.56-.89l-.09-.22a3.6 3.6 0 1 1 4.6 2.18z" fill="#73c0ff"/><path d="M287.7 134.48l-1.15-.36a4.8 4.8 0 0 1 4.44-3.37v1.2a3.6 3.6 0 0 0-3.33 2.52zm.13 2.52l-1.1.48c0-.1-.08-.2-.12-.3a4.78 4.78 0 0 1-.06-3l1.15.36a3.58 3.58 0 0 0 0 2.28z" fill="#73c0ff"/><path d="M287.48 138.66a4.76 4.76 0 0 1-.74-1.19l1.1-.48a3.55 3.55 0 0 0 .56.89zm2.77 3.7a2 2 0 0 0-1.91-1.31 1.94 1.94 0 0 0-.6.11 2 2 0 0 0-1.19 2.52v.12a2 2 0 0 0 3.66-1.45zm-1.36 2.05a1.48 1.48 0 0 1-1.85-.8v-.09a1.48 1.48 0 0 1 .89-1.89 1.48 1.48 0 0 1 1 2.78z" fill="#73c0ff"/><path d="M287 142.58l-.47-.15a2 2 0 0 1 1.22-1.27 1.94 1.94 0 0 1 .6-.11v.49a1.49 1.49 0 0 0-.45.09 1.47 1.47 0 0 0-.9.95zm0 1.03l-.45.2v-.12a2 2 0 0 1 0-1.25l.47.15a1.46 1.46 0 0 0 0 .94zm-.11.69a2 2 0 0 1-.31-.49l.45-.2a1.48 1.48 0 0 0 .23.37z" fill="#73c0ff"/><path fill="#78c2ff" d="M137.77 81.82h3.48v12.8h-3.48zm4.96-1.29h3.48v14.1h-3.48zm5.02 2.68h3.48v11.41h-3.48zm5.02-5.29h3.48v16.7h-3.48zm5.26 1.67h3.48v15.04h-3.48z"/><g data-name="&lt;Groupe&gt;"><path data-name="&lt;Tracé&gt;" fill="#74d350" d="M215.33 89.64l-7.38 20.25-4.22-2.43-3.16-9.29 4.22-2.44-.01-16.87 2.11-4.58 4.22 2.43.01-.01v10.51l4.21 2.43z"/><path data-name="&lt;Tracé&gt;" fill="#93e85d" d="M211.11 87.21l-7.38 20.25-7.38-11.72 4.22-2.44-.01-15.37 6.33-3.65.01-.01v15.38l4.21-2.44z"/></g></svg>