<svg xmlns="http://www.w3.org/2000/svg" viewBox="0 0 400 225.55"><g style="isolation:isolate"><g data-name="Calque 2"><path fill="#4ca37d" d="M.33 0l399.64.558-.315 225L.015 225z"/><path fill="#027295" d="M0 .03h400v161.03H0z"/></g><g data-name="Calque 1"><path style="mix-blend-mode:overlay" fill="#6fc7ef" opacity=".2" d="M29.86 18.57L0 35.81v38.74l.04.03 63.37-36.6-33.55-19.41zm111.71 57.56l51.77-29.89 27.42 15.85-51.77 29.9-27.42-15.86zM58.68 64.57l51.77-29.9 27.41 15.86-51.77 29.89-27.41-15.85zm183.97 28.77l-.08-.04-51.76 29.89 27.41 15.86 24.43-14.11v-31.6zm0-93.08h-46.19l-18.38 10.61 27.41 15.86 37.16-21.45V.26z"/><path fill="#6fc7ef" d="M306.47 51.1v35.24l-54.49-31.52V19.58l54.49 31.52z"/><path d="M307.4 110.28l-12.05 7.75-5.37 5-205.21 44-3.43-3.15-15.2-3.2v11.8a2 2 0 0 0 1 1.76l2.44 1.41 74.37 43a3.6 3.6 0 0 0 3.6 0l153.3-88.51 9.35-5.39a3.47 3.47 0 0 0 1.75-3.15v-11.77z" fill="#5e5e6e"/><path d="M311.93 121.63v-11.8l-4.54.45-12.04 7.75-5.37 5-67.43 14.49-76.29 65.9v15.71a3.59 3.59 0 0 0 1.27-.44l153.3-88.51 9.35-5.39a3.47 3.47 0 0 0 1.75-3.16z" fill="#6d6d7b"/><path fill="#42404f" d="M75.53 170.99v4.54l-4.18-2.41v-4.55l4.18 2.42zm5.7 3.27v4.55l-4.18-2.42v-4.54l4.18 2.41zm5.7 3.28v4.54l-4.18-2.41v-4.55l4.18 2.42zm53.25 30.99v4.55l-13.01-7.54v-4.55l13.01 7.54zm24.89-8.11v4.55l13.02-7.54v-4.54l-13.02 7.53z"/><path fill="#6fc7ef" d="M84.21 153.34l140.45-81.09 74.37 43.02-140.45 81.1-74.37-43.03z"/><path fill="#79cbe6" d="M224.66 72.25l-66.08 124.12-74.37-43.03 140.45-81.09z"/><path fill="#74a4d8" d="M293.24 118.61l5.79-3.34-74.37-43.02-5.79 3.34 74.37 43.02zm-134.66 77.75l5.79-3.34L90 150l-5.79 3.34 74.37 43.02z"/><path fill="#e7e8e9" d="M297.32 115.23l-2.3-1.33-3.98 2.3 2.3 1.33 3.98-2.3zm-2.82-1.63l-2.29-1.32-3.98 2.29 2.29 1.33 3.98-2.3zm-2.81-1.62l-2.3-1.33-3.98 2.3 2.3 1.33 3.98-2.3zm-2.81-1.63l-2.3-1.33-3.98 2.3 2.3 1.33 3.98-2.3zm-25.02-14.39l-6.53-3.8-3.98 2.3 6.53 3.8 3.98-2.3zm-101.64 96.8l-6.53-3.8-3.98 2.3 6.53 3.8 3.98-2.3zm-34.64-20l-6.53-3.8-3.99 2.3 6.53 3.8 3.99-2.3zm-30.72-17.81l-6.53-3.8-3.98 2.3 6.53 3.8 3.98-2.3z"/><path d="M310.19 106.91l-.14-.08-74.37-43a3.6 3.6 0 0 0-3.6 0L82.41 150.22l-15.29 8.81a2 2 0 0 0 0 3.41l2.44 1.41 74.37 43a3.6 3.6 0 0 0 3.6 0l153.3-88.51 9.35-5.39a3.51 3.51 0 0 0 .01-6.04zm-151.61 89.45l-74.37-43 140.45-81.1 74.37 43z" fill="#42404f"/><path d="M293.73 131.13l-.06-.05-.06-.07v-.11l-.05-.09v-1.11c0-.05 0 0 0 0v-1.41l.06-.14.05-.11v-.15l.11-.19v-.3l.14-.21.11-.14.09-.11.1-.12.08-.08.07-.07.06-.06h.05l.06-.06h.05l.07-.06h.05l.07-.06.08-.06.12-.08.12-.08.11-.06h1.44l-1.21-.71h-.09a1.63 1.63 0 0 0-1.13 0 3.35 3.35 0 0 0-1 .56h-.05a5.54 5.54 0 0 0-2 3.73 2.44 2.44 0 0 0 .28 1.46v.11l.06.07.06.05h.13l1.21.71h-.08z" fill="#57576a"/><path d="M295.67 125.24a5.56 5.56 0 0 0-2.52 4.37c0 1.61 1.14 2.26 2.54 1.45a5.56 5.56 0 0 0 2.52-4.37c-.01-1.66-1.14-2.26-2.54-1.45z" fill="#878796"/><path d="M280.65 138.68l-.06-.05-.06-.07v-.11l-.05-.09v-1.14c0-.05 0 0 0 0v-1.46l.06-.14.05-.11v-.14l.11-.2v-.3l.14-.2.11-.14.09-.11.1-.12.08-.08.07-.07.06-.06h.05l.06-.06h.05l.07-.06h.05l.07-.06.08-.06.12-.08.12-.08.11-.06h.08l.12-.05h1.97l-1.21-.7H283a1.62 1.62 0 0 0-1.13 0 3.31 3.31 0 0 0-1 .56h-.05a5.55 5.55 0 0 0-2 3.73 2.46 2.46 0 0 0 .29 1.46v.11l.06.07.06.05h.13l1.21.71h-.08z" fill="#57576a"/><path d="M282.59 132.79a5.56 5.56 0 0 0-2.52 4.37c0 1.61 1.14 2.25 2.54 1.45a5.56 5.56 0 0 0 2.52-4.37c0-1.61-1.13-2.21-2.54-1.45z" fill="#878796"/><path d="M308.11 45.03l-53.7-31a1.08 1.08 0 0 0-1.08 0l-2.06 1.19 1.51 5.41v35.51a3.62 3.62 0 0 0 1.81 3.14l51.73 29.93.6 1.62 2.08-1.2a2 2 0 0 0 1-1.72v-39.6a3.77 3.77 0 0 0-1.89-3.28z" fill="#6d6d7b"/><path d="M307.92 49.52v39.6a2 2 0 0 1-3 1.71l-52.41-30.35a3.62 3.62 0 0 1-1.81-3.14V16.13a1.1 1.1 0 0 1 1.64-.95L306 46.25a3.77 3.77 0 0 1 1.92 3.27z" fill="#42404f"/><path fill="#ed993c" d="M306.47 51.1v35.24l-54.49-31.52V19.58l54.49 31.52z"/><path fill="#e7e8e9" d="M265.93 32.3v-1.28l-11.55-6.68v1.29l11.55 6.67zm0 2.47v-1.29l-11.55-6.67v1.28l11.55 6.68zm0 2.47v-1.29l-11.55-6.67v1.28l11.55 6.68zm6.47-2.42v1.29l11.54 6.68V41.5l-11.54-6.68zm0 3.76l11.54 6.68v-1.29l-11.54-6.68v1.29zm0 2.47l11.54 6.67v-1.28l-11.54-6.68v1.29zm0 6.18l11.54 6.68v-1.29l-11.54-6.67v1.28zm0 2.47l11.54 6.68v-1.29l-11.54-6.68v1.29zm0 2.47l11.54 6.68v-1.29l-11.54-6.68v1.29zm0 6.19l11.54 6.67v-1.28l-11.54-6.68v1.29zm0 2.46l11.54 6.68v-1.28l-11.54-6.68v1.28zm0 2.47l11.54 6.68v-1.28l-11.54-6.68v1.28zm-6.47-23.58v-1.29l-11.55-6.68v1.29l11.55 6.68zm26.61 21.72l-4.08-2.36v13.36l4.08 2.36V61.43zm5.4-4.12l-4.08-2.36v20.61l4.08 2.36V57.31zm5.39-4.08l-4.08-2.37v27.83l4.08 2.36V53.23zm-42.13-4.49v-7.48l-.38-.24c-3.54-2-6.42-.4-6.43 3.67a14.09 14.09 0 0 0 6.39 11.07c3.54 2 6.42.4 6.43-3.67v-.18zm11.58 71.49l-10.3-6a3.61 3.61 0 0 0-3.61 0l-10.76 6.21a2.35 2.35 0 0 0 0 4.07l9.71 5.65a4.29 4.29 0 0 0 4.29 0l10.67-6.13a2.18 2.18 0 0 0 0-3.77zm-.66 2.64l-10.68 6.16a3 3 0 0 1-3 0l-9.71-5.65a1 1 0 0 1 0-1.81l10.76-6.21a2.29 2.29 0 0 1 2.29 0l10.3 6a.87.87 0 0 1 0 1.5zm-22.74-14.94a2.16 2.16 0 0 0-1.08-1.9l-10.3-6a3.6 3.6 0 0 0-3.61 0l-10.76 6.21a2.35 2.35 0 0 0 0 4.07l9.7 5.65a4.29 4.29 0 0 0 4.29 0l10.68-6.17a2.16 2.16 0 0 0 1.08-1.86zm-1.75.75L237 114.85a3 3 0 0 1-3 0l-9.7-5.65a1 1 0 0 1 0-1.81l10.7-6.21a2.29 2.29 0 0 1 2.29 0l10.31 6a.87.87 0 0 1 0 1.5zM224.9 93.75a2.16 2.16 0 0 0-1.08-1.89l-10.3-6a3.61 3.61 0 0 0-3.61 0l-10.77 6.17a2.35 2.35 0 0 0 0 4.07l9.7 5.65a4.29 4.29 0 0 0 4.29 0l10.68-6.17a2.16 2.16 0 0 0 1.09-1.83zm-1.75.75l-10.68 6.17a3 3 0 0 1-3 0l-9.68-5.64a1 1 0 0 1 0-1.8l10.76-6.2a2.29 2.29 0 0 1 2.29 0l10.3 6a.87.87 0 0 1 0 1.5z"/><path fill="#6fc7ef" d="M133.2 35.89v35.24l54.48-31.52V4.37L133.2 35.89zM62.58 94.58v35.24l54.48-31.52V63.06L62.58 94.58z"/><path d="M283.22 108.23a2 2 0 0 0-.1-.5 2 2 0 0 0-.13-.31 2.56 2.56 0 0 0-.41-.57 3.79 3.79 0 0 0-.87-.67 6 6 0 0 0-1.4-.57 8 8 0 0 0-1.71-.27h-.91a.75.75 0 0 0-.35.11c-.06 0-.16.12-.16.2a.27.27 0 0 0 .16.22 1.44 1.44 0 0 0 .75.08 5.84 5.84 0 0 1 2.9.69 2.07 2.07 0 0 1 1.18 1.55v.22a.27.27 0 0 0 .16.22.8.8 0 0 0 .79 0 .39.39 0 0 0 .1-.4z" fill="#e7e8e9"/><path d="M281.27 108.18a1.3 1.3 0 0 0-.27-.69 2.1 2.1 0 0 0-.62-.53 4.25 4.25 0 0 0-2.11-.5 2.89 2.89 0 0 0-.71 0c-.14 0-.35.13-.34.3a.29.29 0 0 0 .17.23 1 1 0 0 0 .42.11h.44a2.7 2.7 0 0 1 1.32.32 1.23 1.23 0 0 1 .46.42.71.71 0 0 1 .09.26v.33a.3.3 0 0 0 .15.17c.31.18.94.17 1-.28a.79.79 0 0 0 0-.14zm-2.48-.32a1.41 1.41 0 0 0-1.31 0c-.36.21-.38.55 0 .77a1.45 1.45 0 0 0 1.31 0c.36-.23.36-.6 0-.77z" fill="#e7e8e9"/><path d="M177.93 177.28l-14.3-8.25a1.35 1.35 0 0 0-1.35 0l-14.21 8.17a1.36 1.36 0 0 0 0 2.35l14.3 8.25a1.35 1.35 0 0 0 1.35 0l14.21-8.18a1.35 1.35 0 0 0 0-2.34zm-47.28-28.42l-14.3-8.25a1.35 1.35 0 0 0-1.35 0l-14.21 8.18a1.35 1.35 0 0 0 0 2.35l14.3 8.25a1.35 1.35 0 0 0 1.35 0l14.21-8.18a1.35 1.35 0 0 0 0-2.35zm29.55-17.22l-14.3-8.25a1.36 1.36 0 0 0-1.35 0l-14.21 8.18a1.35 1.35 0 0 0 0 2.34l14.3 8.25a1.35 1.35 0 0 0 1.35 0l14.2-8.13a1.35 1.35 0 0 0 .01-2.39zm26.31-15.31l-14.3-8.25a1.35 1.35 0 0 0-1.35 0l-14.21 8.17a1.35 1.35 0 0 0 0 2.35l14.3 8.25a1.36 1.36 0 0 0 1.35 0l14.21-8.18a1.35 1.35 0 0 0 0-2.34zm21.19 43.3l-14.3-8.25a1.35 1.35 0 0 0-1.35 0l-14.21 8.18a1.35 1.35 0 0 0 0 2.35l14.3 8.25a1.35 1.35 0 0 0 1.35 0l14.21-8.13a1.35 1.35 0 0 0 0-2.4zm26.79-15.31l-14.3-8.29a1.35 1.35 0 0 0-1.35 0l-14.21 8.18a1.35 1.35 0 0 0 0 2.34l14.3 8.25a1.35 1.35 0 0 0 1.35 0l14.21-8.18a1.35 1.35 0 0 0 0-2.3z" style="mix-blend-mode:multiply" fill="#2d3b8e" opacity=".2"/><path d="M178.24 109.59a5 5 0 0 0 2.25-.46c.72-.49 2.41 1.55.75 2.62s-3.39 2.16-4.29 2-1.39-.31-1.46-.51-.1-3.8-.1-3.8z" fill="#363142"/><path d="M178.87 106.88v4.15s-2.32 1-3.84.43l-.58-2.73z" fill="#a55a33"/><path d="M184.81 111.95a5 5 0 0 0 2.25-.46c.72-.49 2.41 1.55.75 2.62s-3.39 2.15-4.29 2-1.39-.31-1.46-.51-.1-3.8-.1-3.8z" fill="#363142"/><path d="M184.45 94.1a19.81 19.81 0 0 1 1.14-1.77c.51-.66 1.19-1.71.56-2.25a4.86 4.86 0 0 0-2.39-1.14c-.57 0-1.48.78-1.18 1.14s-.26 2.16-.26 2.16z" fill="#f7ca82"/><path d="M162.7 82.4a2.3 2.3 0 0 1 2.38-.65l1.79.53 4.88 2.27 3.38 1.77.29 10.79.34 5.27-2 1.7c-2.39 2.23-9.71-1.7-9.71-1.7-1.24-4.07-3.05-15.35-3.05-15.35a7.11 7.11 0 0 1 1.7-4.63z" fill="#e7e8e9"/><path d="M174.94 99.62s5.11-1.08 8.24-1.36a2 2 0 0 1 2.19 1.9 98.2 98.2 0 0 1-.11 12.55l-1.89 1.18a1.33 1.33 0 0 1-2-1.06l-.35-7c0-.6-.74.13-1.19.52-1.43 1.22-4.86 2.6-6.95 1.87 0 0-6.26-1.93-7.77-6z" fill="#a55a33"/><path d="M171.88 109.6l1.77-.91-1 15.56a1 1 0 0 1-.3.66 1.34 1.34 0 0 1-.66.33c-.45.07-.83-.4-.79-1zm-12.76-6.57l1.72-.91-1.15 14.33a1 1 0 0 1-.31.67 1.35 1.35 0 0 1-.51.29c-.48.14-.93-.39-.87-1zm23.62 3.15l2 12.48a.86.86 0 0 1-.2.75.91.91 0 0 1-.38.22c-.28.08-.55-.16-.63-.53l-2.48-12.34z" fill="#d1d2d4"/><path d="M168.51 72.95a5.66 5.66 0 0 1 3-.08c1.9.56 2.9 2.36 3.36 4.16s.6 4.46-.44 6.14c-.65 1.05-2.09.86-3.13.58a12.18 12.18 0 0 1-3.9-1.64c-1.43-1.08-2.18-3.44-2.27-5.14a4.67 4.67 0 0 1 3.38-4.02z" fill="#f7ca82"/><path d="M166.87 81.66a3.74 3.74 0 0 0 .49.44 12.17 12.17 0 0 0 3.9 1.64l.64.14-.15.68a9.84 9.84 0 0 1-3.63.22 1.41 1.41 0 0 1-1.25-1.41v-1.71z" fill="#f8b479"/><path d="M173.33 86.03s2.81-.08 3.51 1.89 2.27 5.89 2.27 5.89a17.42 17.42 0 0 1 3.27-2.08s2 1 2.43 2.08c0 0-3 5.12-6.59 6.63a25.36 25.36 0 0 1-5.83-8.95s-2.34-3.89.94-5.46z" fill="#f1f2f2"/><path d="M159.79 87.67c7.36 1.53 11.1 5.46 12.28 6.94a2 2 0 0 1 .42 1.22v14.14c-9.86-1.64-14.07-7.45-14.07-7.45V88.79a1.14 1.14 0 0 1 1.37-1.12zm12.7 22.3s8.5-.85 11.12-3.79c0 0 .19-2-.62-1.71a31.19 31.19 0 0 1-10.5 3.24z" fill="#2075bb"/><path d="M174.24 73.83l1.31-.55a10 10 0 0 0-7.07-.6 3.32 3.32 0 0 0-.94.3 5 5 0 0 0-2.46 4c.09 1.7.84 4.06 2.27 5.14a10.26 10.26 0 0 0 3 1.38c.29-.14.73-1.73.73-1.73-.6-.35-1.06-2.33-.42-2.68s1.06.89 1.06.89a.94.94 0 0 0 .62-1.29 1.82 1.82 0 0 1-.14-.71.82.82 0 0 1 .76-.8l.55-.06a18.7 18.7 0 0 1 3.14.09 11.41 11.41 0 0 0-2.41-3.38z" fill="#b74e51"/><path d="M226.06 137.58a5 5 0 0 0 2.25-.46c.72-.49 2.41 1.55.74 2.62s-3.39 2.15-4.29 2-1.39-.31-1.46-.51-.1-3.8-.1-3.8z" fill="#9e5a32"/><path d="M226.69 134.87v4.1s-2.31 1-3.84.43l-.58-2.73z" fill="#363142"/><path d="M232.63 139.94a5 5 0 0 0 2.25-.46c.72-.49 2.41 1.55.74 2.62s-3.39 2.15-4.29 2-1.39-.31-1.46-.51-.1-3.8-.1-3.8z" fill="#9e5a32"/><path d="M210.74 110.61a2.48 2.48 0 0 1 2.44-.78l1.5.45 4.88 2.27 3.38 1.77.29 10.8.34 5.27-2 1.69c-2.39 2.23-9.71-1.69-9.71-1.69-1.23-4.08-2.57-15.19-2.57-15.19a7 7 0 0 1 1.45-4.59z" fill="#c49a6c"/><path d="M222.77 127.61s5.85-1.2 9-1.48a2 2 0 0 1 2.18 1.9 119.72 119.72 0 0 1-.85 12.68l-1.89 1.18a1.33 1.33 0 0 1-2-1.06l-.35-7c0-.6-.74.13-1.19.52-1.43 1.22-4.86 2.6-6.95 1.87 0 0-6.26-1.93-7.77-6z" fill="#42404f"/><path d="M219.7 137.59l1.77-.91-1 15.56a1 1 0 0 1-.31.66 1.31 1.31 0 0 1-.66.33c-.45.07-.83-.4-.79-1zm-12.75-6.56l1.72-.91-1.15 14.33a1 1 0 0 1-.31.67 1.36 1.36 0 0 1-.51.3c-.48.14-.93-.39-.87-1zm23.62 3.14l2 12.48a.86.86 0 0 1-.2.75.93.93 0 0 1-.38.22c-.28.08-.55-.16-.63-.53l-2.47-12.34z" fill="#d1d2d4"/><path d="M216.34 100.94a5.67 5.67 0 0 1 3-.08c1.9.56 2.9 2.36 3.36 4.16s.6 4.46-.44 6.14c-.65 1.05-2.09.86-3.13.58a12.17 12.17 0 0 1-3.9-1.64c-1.42-1.08-2.18-3.43-2.27-5.14a4.67 4.67 0 0 1 3.38-4.02z" fill="#f7ca82"/><path d="M219.08 111.73a12.17 12.17 0 0 1-3.9-1.64 3.67 3.67 0 0 1-.49-.44v1.71a2.27 2.27 0 0 0 1.85 1 6.28 6.28 0 0 0 3 .16l.15-.68z" fill="#f8b479"/><path d="M207.61 115.66c7.37 1.53 11.1 5.46 12.28 6.94a2 2 0 0 1 .42 1.22v14.14c-9.86-1.64-14.07-7.45-14.07-7.45v-13.73a1.14 1.14 0 0 1 1.37-1.12zm12.7 22.3s8.5-.85 11.12-3.79c0 0 .19-2-.62-1.71a31.28 31.28 0 0 1-10.5 3.24z" fill="#2075bb"/><path d="M214.59 109.98l-.38 1.14a5.29 5.29 0 0 0 6 1.77l-.54-.68s-3.51.09-5.08-2.23z" fill="#e7e8e9"/><path d="M232.12 124.77a5.49 5.49 0 0 1 1.19-.14c.44 0 .73.56 1.08.76a2.18 2.18 0 0 1 1 1.65c0 .76-.34 1.59-.76 1.59s-.51.08-.63-.23a14.61 14.61 0 0 0-.86-1.38z" fill="#f7ca82"/><path d="M232.51 124.34c-.89.23-5.81.59-5.81.59s-.6-6.26-1.29-8.22a3.94 3.94 0 0 0-2.58-2.42c-3.27 1.58-1.57 5.67-1.57 5.67a49.08 49.08 0 0 1 2.15 8 1.27 1.27 0 0 0 1.46 1c4.36-.71 8.46-1.7 8.46-1.7a5.59 5.59 0 0 0-.82-2.92z" fill="#e7e8e9"/><path d="M222.56 101.7c-2.69-2.24-6.38-1-6.38-1a3.24 3.24 0 0 0-.81.27 5 5 0 0 0-2.46 4c.09 1.7.84 4.06 2.27 5.14a10.25 10.25 0 0 0 3 1.38c.29-.14.73-1.73.73-1.73-.6-.35-1.06-2.33-.42-2.68s1.06.89 1.06.89a.94.94 0 0 0 .62-1.29 2.19 2.19 0 0 1 0-1.5c2.66-.07 3 .87 3 .87a4 4 0 0 0-.61-4.35z" fill="#8f4e51"/><path d="M151.61 124.9a5 5 0 0 0 2.25-.46c.72-.49 2.41 1.55.74 2.62s-3.39 2.15-4.29 2-1.39-.31-1.46-.51-.1-3.8-.1-3.8z" fill="#2075bb"/><path d="M152.24 122.19v4.1s-2.32 1-3.84.43l-.58-2.73z" fill="#363142"/><path d="M158.18 127.26a5 5 0 0 0 2.25-.46c.72-.49 2.41 1.55.74 2.62s-3.39 2.16-4.29 2-1.39-.31-1.46-.51-.1-3.8-.1-3.8z" fill="#2075bb"/><path d="M136.07 97.71a2.3 2.3 0 0 1 2.38-.65l1.79.53 4.88 2.27 3.38 1.77.29 10.8.34 5.27-2 1.7c-2.39 2.23-9.71-1.7-9.71-1.7-1.23-4.08-3-15.33-3-15.33a7.11 7.11 0 0 1 1.65-4.66z" fill="#e94762"/><path d="M148.31 114.93s5.11-1.08 8.24-1.36a2 2 0 0 1 2.18 1.9 98.26 98.26 0 0 1-.1 12.55l-1.89 1.18a1.33 1.33 0 0 1-2-1.06l-.35-7c0-.6-.74.13-1.19.52-1.43 1.22-4.86 2.6-6.95 1.87 0 0-6.26-1.93-7.77-6z" fill="#363142"/><path d="M145.25 124.91l1.75-.88-1 15.56a1 1 0 0 1-.3.66 1.31 1.31 0 0 1-.66.33c-.45.07-.83-.4-.79-1zm-12.75-6.54l1.72-.91-1.15 14.33a1 1 0 0 1-.31.67 1.35 1.35 0 0 1-.51.29c-.48.14-.93-.39-.87-1zm23.61 3.12l2 12.48a.86.86 0 0 1-.2.75.92.92 0 0 1-.38.22c-.28.08-.55-.16-.62-.54l-2.43-12.37z" fill="#d1d2d4"/><path d="M141.89 88.26a5.67 5.67 0 0 1 3-.08c1.9.56 2.9 2.36 3.36 4.16s.6 4.45-.44 6.14c-.65 1.05-2.09.86-3.13.58a12.17 12.17 0 0 1-3.9-1.64c-1.43-1.08-2.18-3.44-2.27-5.14a4.67 4.67 0 0 1 3.38-4.02z" fill="#f7ca82"/><path d="M140.24 96.97a3.81 3.81 0 0 0 .49.44 12.17 12.17 0 0 0 3.9 1.64l.64.14-.15.68a6.17 6.17 0 0 1-3 0c-.71-.08-1.92-.43-1.92-1.15v-1.76z" fill="#f8b479"/><path d="M133.16 103.03c7.37 1.53 11.1 5.46 12.28 6.94a2 2 0 0 1 .42 1.22v14.14c-9.86-1.64-14.07-7.45-14.07-7.45V104.1a1.14 1.14 0 0 1 1.37-1.07zm12.7 22.25s8.5-.85 11.12-3.79c0 0 .19-2-.62-1.71a31.24 31.24 0 0 1-10.5 3.24z" fill="#2075bb"/><path d="M157.42 111.6a5.39 5.39 0 0 1 1.19-.14c.44 0 .73.56 1.08.76a2.18 2.18 0 0 1 1 1.65c0 .76-.34 1.59-.76 1.59s-.51.08-.63-.23a14.38 14.38 0 0 0-.86-1.38z" fill="#f7ca82"/><path d="M156.95 111.37l.86-.18a6.42 6.42 0 0 1 .74 2.74l-.76.18z" fill="#e7e8e9"/><path d="M157.21 111.23c-.89.23-5.81.59-5.81.59s-.6-6.26-1.29-8.22a3.94 3.94 0 0 0-2.58-2.43c-3.27 1.58-1.57 5.67-1.57 5.67a48.86 48.86 0 0 1 2.15 8 1.27 1.27 0 0 0 1.46 1c4.36-.71 8.46-1.7 8.46-1.7a5.58 5.58 0 0 0-.82-2.91z" fill="#ec6062"/><path d="M148.11 92.03s3.27-3.44 0-4.39-6.38-.9-8.73.25-2.08 4.6-1.64 5.45a16 16 0 0 0 2.68 3.85.36.36 0 0 0 .14.08l.16.14a10.28 10.28 0 0 0 3 1.38c.29-.14.73-1.73.73-1.73-.6-.35-1.06-2.33-.42-2.68s1.06.89 1.06.89a.94.94 0 0 0 .62-1.29 2.19 2.19 0 0 1 0-1.5 5.42 5.42 0 0 0 2.4-.45z" fill="#f6a043"/><path d="M140.24 97.28l-.53 1.17a4.63 4.63 0 0 0 5.81 1.63l-.29-.7s-3.42.23-4.99-2.1z" fill="#e7e8e9"/><path d="M199.43 152.89a5 5 0 0 0 2.25-.46c.72-.49 2.41 1.54.74 2.62s-3.39 2.15-4.29 2-1.39-.31-1.46-.51-.1-3.8-.1-3.8z" fill="#9e5a32"/><path d="M200.06 150.18v4.1s-2.32 1-3.84.43l-.58-2.73z" fill="#363142"/><path d="M206 155.25a5 5 0 0 0 2.25-.46c.72-.49 2.41 1.54.74 2.62s-3.39 2.15-4.29 2-1.39-.31-1.46-.51-.1-3.8-.1-3.8z" fill="#9e5a32"/><path d="M205.64 137.4a19.76 19.76 0 0 1 1.14-1.77c.51-.66 1.2-1.71.56-2.25a4.85 4.85 0 0 0-2.39-1.14c-.57 0-1.48.78-1.18 1.15s-.26 2.16-.26 2.16z" fill="#f7ca82"/><path d="M183.89 125.7a2.3 2.3 0 0 1 2.38-.65l1.79.53 4.88 2.27 3.38 1.77.29 10.79.34 5.27-2 1.69c-2.39 2.23-9.71-1.69-9.71-1.69-1.23-4.08-3-15.33-3-15.33a7.11 7.11 0 0 1 1.65-4.65z" fill="#f9dc34"/><path d="M196.14 142.92s5.11-1.08 8.24-1.36a2 2 0 0 1 2.19 1.9 98.44 98.44 0 0 1-.1 12.55l-1.89 1.19a1.33 1.33 0 0 1-2-1.06l-.35-7c0-.6-.74.13-1.19.51-1.43 1.23-4.86 2.6-6.95 1.87 0 0-6.27-1.93-7.77-6z" fill="#363142"/><path d="M193.07 152.9l1.77-.91-1 15.56a1 1 0 0 1-.3.66 1.31 1.31 0 0 1-.66.33c-.45.07-.83-.4-.79-1zm-12.75-6.54l1.72-.91-1.15 14.33a1 1 0 0 1-.31.67 1.34 1.34 0 0 1-.51.29c-.48.14-.92-.39-.87-1zm23.62 3.12l2 12.48a.86.86 0 0 1-.2.75.9.9 0 0 1-.38.22c-.28.08-.55-.16-.63-.54l-2.43-12.36z" fill="#d1d2d4"/><path d="M189.71 116.25a5.66 5.66 0 0 1 3-.08c1.9.56 2.9 2.36 3.36 4.16s.6 4.46-.44 6.14c-.65 1.05-2.09.86-3.13.58a12.19 12.19 0 0 1-3.9-1.64c-1.43-1.08-2.18-3.43-2.27-5.14a4.67 4.67 0 0 1 3.38-4.02z" fill="#f7ca82"/><path d="M188.06 124.95a3.76 3.76 0 0 0 .49.45 12.19 12.19 0 0 0 3.9 1.64l.64.14-.15.68a9.87 9.87 0 0 1-3.63.22 1.41 1.41 0 0 1-1.25-1.41v-1.72z" fill="#f8b479"/><path d="M194.52 129.33s2.81-.08 3.51 1.89 2.27 5.89 2.27 5.89a17.42 17.42 0 0 1 3.27-2.08s2 1 2.43 2.08c0 0-3 5.12-6.59 6.63a25.36 25.36 0 0 1-5.83-9s-2.34-3.84.94-5.41z" fill="#ffe252"/><path d="M181 130.97c7.36 1.53 11.1 5.46 12.28 6.94a2 2 0 0 1 .42 1.22v14.14c-9.86-1.64-14.07-7.45-14.07-7.45v-13.73a1.14 1.14 0 0 1 1.37-1.12z" fill="#2075bb"/><path d="M193.68 153.27s8.5-.85 11.12-3.79c0 0 .19-2-.62-1.71a31.18 31.18 0 0 1-10.5 3.24z" fill="#2075bb"/><path d="M195.93 120.03s2.09-1.81.64-2.79c-.45-.31-.93-.34-1.27-.78a4.35 4.35 0 0 0-1.34-1.27c-.51-.26-.94.25-1.41.37-.89.24-1.55-.79-2.42-.56a3.2 3.2 0 0 0-.79.48c-.67.41-2.38.08-2.31 1.22a1.73 1.73 0 0 1-.77 1.57 1.5 1.5 0 0 0-.76 1.53 3.85 3.85 0 0 0 .36.72 3.18 3.18 0 0 1 .19 1 3.56 3.56 0 0 0 .68 2 10.11 10.11 0 0 0 1.82 2 10.25 10.25 0 0 0 3 1.38c.29-.14.73-1.73.73-1.73-.6-.35-1.06-2.33-.42-2.68s1.06.89 1.06.89a.94.94 0 0 0 .62-1.29 2.18 2.18 0 0 1 0-1.5 5.45 5.45 0 0 0 2.39-.56z" fill="#414142"/><path d="M121.47 142.55a5 5 0 0 0 2.25-.46c.72-.49 2.41 1.55.74 2.62s-3.39 2.15-4.29 2-1.39-.31-1.46-.51-.1-3.8-.1-3.8z" fill="#9e5a32"/><path d="M122.1 139.84v4.1s-2.32 1-3.84.43l-.58-2.73z" fill="#363142"/><path d="M128 144.91a5 5 0 0 0 2.25-.46c.72-.49 2.41 1.55.74 2.62s-3.39 2.15-4.29 2-1.39-.31-1.46-.51-.1-3.8-.1-3.8z" fill="#9e5a32"/><path d="M127.69 127.03a19.52 19.52 0 0 1 1.14-1.77c.51-.66 1.2-1.71.56-2.25a4.86 4.86 0 0 0-2.4-1.14c-.57 0-1.48.78-1.17 1.14s-.26 2.16-.26 2.16z" fill="#f7ca82"/><path d="M105.94 115.36a2.3 2.3 0 0 1 2.38-.65l1.79.53 4.88 2.27 3.38 1.77.29 10.8.34 5.27-2 1.7c-2.39 2.23-9.71-1.7-9.71-1.7-1.23-4.08-3-15.33-3-15.33a7.11 7.11 0 0 1 1.65-4.66z" fill="#00a79d"/><path d="M118.18 132.58s5.11-1.08 8.24-1.36a2 2 0 0 1 2.19 1.9 98.38 98.38 0 0 1-.11 12.55l-1.89 1.18a1.33 1.33 0 0 1-2-1.06l-.35-7c0-.6-.74.13-1.19.52-1.43 1.22-4.86 2.6-6.95 1.87 0 0-6.26-1.93-7.77-6z" fill="#363142"/><path d="M115.11 142.56l1.77-.91-1 15.56a1 1 0 0 1-.3.66 1.32 1.32 0 0 1-.66.33c-.45.07-.83-.4-.79-1zm-12.75-6.53l1.72-.91-1.15 14.33a1 1 0 0 1-.31.67 1.34 1.34 0 0 1-.51.29c-.48.14-.93-.39-.87-1zm23.64 3.11l2 12.48a.86.86 0 0 1-.2.75.91.91 0 0 1-.38.22c-.28.08-.55-.16-.62-.53l-2.48-12.34z" fill="#d1d2d4"/><path d="M111.75 105.9a5.66 5.66 0 0 1 3-.08c1.9.56 2.9 2.36 3.36 4.16s.6 4.46-.44 6.14c-.65 1.05-2.09.86-3.13.58a12.16 12.16 0 0 1-3.9-1.64c-1.43-1.08-2.18-3.44-2.27-5.14a4.67 4.67 0 0 1 3.38-4.02z" fill="#f7ca82"/><path d="M110.79 105.92a6 6 0 0 1 3.91-.1 5.28 5.28 0 0 1 3.27 3.87 5.43 5.43 0 0 1-2.41.43 2.19 2.19 0 0 0 0 1.5.94.94 0 0 1-.62 1.29s-.42-1.23-1.06-.89-.17 2.33.42 2.68c0 0-.44 1.59-.73 1.73a10.25 10.25 0 0 1-3-1.38c-1.43-1.08-2.18-3.44-2.27-5.14a5 5 0 0 1 2.49-3.99z" fill="#b74e51"/><path d="M110.1 114.61a3.88 3.88 0 0 0 .49.44 12.16 12.16 0 0 0 3.9 1.64c.2.05.42.1.64.14l-.15.68a9.83 9.83 0 0 1-3.63.22 1.41 1.41 0 0 1-1.25-1.41v-1.71z" fill="#f8b479"/><path d="M116.56 119.03s2.81-.08 3.5 1.89 2.27 5.89 2.27 5.89a17.47 17.47 0 0 1 3.27-2.08s2 1 2.43 2.08c0 0-3 5.12-6.59 6.63a25.35 25.35 0 0 1-5.83-9s-2.32-3.88.95-5.41z" fill="#39b6ab"/><path d="M103 120.63c7.37 1.53 11.1 5.46 12.28 6.94a2 2 0 0 1 .42 1.22v14.14c-9.86-1.64-14.07-7.45-14.07-7.45v-13.73a1.14 1.14 0 0 1 1.37-1.12zm12.72 22.3s8.5-.85 11.12-3.79c0 0 .19-2-.62-1.71a31.2 31.2 0 0 1-10.5 3.24z" fill="#2075bb"/><path d="M174.9 157.19a5.33 5.33 0 0 1 1.19-.14c.44 0 .73.56 1.08.76a2.18 2.18 0 0 1 1 1.65c0 .76-.34 1.59-.76 1.59s-.51.09-.63-.23a14.43 14.43 0 0 0-.86-1.38z" fill="#f7ca82"/><path d="M169.29 170.54a5 5 0 0 0 2.25-.46c.72-.49 2.41 1.54.74 2.62s-3.39 2.15-4.29 2-1.39-.31-1.46-.51-.1-3.8-.1-3.8z" fill="#42404f"/><path d="M169.93 167.83v4.1s-2.32 1-3.84.43l-.58-2.73z" fill="#363142"/><path d="M175.86 172.9a5 5 0 0 0 2.25-.46c.72-.49 2.41 1.55.75 2.62s-3.39 2.15-4.29 2-1.39-.31-1.46-.51-.1-3.8-.1-3.8zm-22.1-29.55a2.3 2.3 0 0 1 2.38-.65l1.79.53 4.88 2.27 2.21 1.25 1.45 11.28.34 5.27-2 1.69c-2.39 2.23-9.71-1.69-9.71-1.69-1.23-4.08-3-15.33-3-15.33a7.11 7.11 0 0 1 1.66-4.62z" fill="#42404f"/><path d="M166 160.57s5.64-1.08 8.77-1.36a2 2 0 0 1 2.19 1.9 111.29 111.29 0 0 1-.63 12.55l-1.89 1.18a1.33 1.33 0 0 1-2-1.06l-.35-7c0-.6-.74.13-1.19.52-1.43 1.22-4.86 2.6-6.95 1.87 0 0-6.26-1.93-7.77-6z" fill="#363142"/><path d="M162.94 170.55l1.77-.91-1 15.56a1 1 0 0 1-.3.66 1.32 1.32 0 0 1-.66.33c-.45.07-.83-.4-.79-1zm-12.76-6.52l1.72-.91-1.15 14.33a1 1 0 0 1-.31.67 1.36 1.36 0 0 1-.51.29c-.48.14-.93-.39-.87-1zm23.62 3.1l2 12.48a.86.86 0 0 1-.2.75.89.89 0 0 1-.38.22c-.28.08-.55-.16-.62-.53l-2.48-12.34z" fill="#d1d2d4"/><path d="M159.57 133.89a5.68 5.68 0 0 1 3-.08c1.9.56 2.9 2.36 3.36 4.16s.6 4.46-.44 6.14c-.65 1.05-2.09.86-3.13.58a12.2 12.2 0 0 1-3.9-1.64c-1.43-1.08-2.18-3.43-2.27-5.14a4.67 4.67 0 0 1 3.38-4.02z" fill="#f7ca82"/><path d="M157.93 142.6a3.68 3.68 0 0 0 .49.45 12.2 12.2 0 0 0 3.9 1.64c.2.05.41.1.64.14l-.15.68c-1.33.37-2.32-.2-3.26-.3-.71-.08-1.41-.25-1.62-.89v-1.72z" fill="#f8b479"/><path d="M150.85 148.62c7.37 1.53 11.1 5.46 12.28 6.93a2 2 0 0 1 .42 1.22v14.14c-9.86-1.64-14.07-7.45-14.07-7.45v-13.72a1.14 1.14 0 0 1 1.37-1.12zm12.7 22.3s8.5-.85 11.12-3.79c0 0 .19-2-.62-1.71a31.19 31.19 0 0 1-10.5 3.24z" fill="#2075bb"/><path d="M166.81 133.64a2.1 2.1 0 0 1-3 0c-1.66-1.47-8.21-1-7.85 5l.79 1.92a5.61 5.61 0 0 0 1.7 2.49 10.26 10.26 0 0 0 3 1.38c.29-.14.73-1.73.73-1.73-.6-.35-1.06-2.33-.42-2.68s1.06.89 1.06.89a.94.94 0 0 0 .62-1.29 2.19 2.19 0 0 1 0-1.5 5.41 5.41 0 0 0 2.41-.44 3.85 3.85 0 0 0 .96-4.04z" fill="#414142"/><path d="M157.83 143.1s1.23 1.71 5.07 2l.59.81a21.32 21.32 0 0 1-4.46-.55c-1-.41-1.33-.75-1.35-1.51zm16.6 13.86l.86-.18a6.42 6.42 0 0 1 .74 2.74l-.76.18z" fill="#e7e8e9"/><path d="M174.69 156.82c-.89.23-5.81.59-5.81.59s-.6-6.26-1.29-8.22a3.94 3.94 0 0 0-2.58-2.43c-3.27 1.58-1.57 5.67-1.57 5.67a49 49 0 0 1 2.15 8 1.27 1.27 0 0 0 1.46 1c4.36-.71 8.46-1.7 8.46-1.7a5.58 5.58 0 0 0-.82-2.91z" fill="#595967"/><ellipse cx="235.66" cy="90.71" rx="13.21" ry="4.02" style="mix-blend-mode:multiply" fill="#2d3b8e" opacity=".2"/><path d="M222.25 59.4a1.39 1.39 0 0 0 .11-.49c0-.19-.15-.06-.25 0-.26.3-.43.66-.7 1-.08.09-.28.21-.3 0a3.36 3.36 0 0 1 .58-1.68 9 9 0 0 1 .62-1c.12-.17.25-.33.38-.49s.29-.25.31-.37a1.46 1.46 0 0 0 0-.16l2.44.3a5.2 5.2 0 0 1 .09 1 3.54 3.54 0 0 1-.47 1.95 2.92 2.92 0 0 0-.19 1.34c0 .49.31.81.11 1.27s-1.56.58-2.35-.15a2.11 2.11 0 0 1-.54-1.52 4.09 4.09 0 0 1 .07-.84 1.51 1.51 0 0 1 .09-.16z" fill="#f7ca82"/><path d="M222.78 55.51l-.18.92a6.56 6.56 0 0 0 3.2.6l.25-1.07z" fill="#e7e8e9"/><path d="M225.47 34.33s-1.16 12.28-2.87 21.4a5.18 5.18 0 0 0 3.45.63l1.88-10z" fill="#e94762"/><path d="M241.32 53.25a1.09 1.09 0 0 0-.69.71c-.25.62-1.09 1.66-1.37 1.49s0-2.76 0-2.76l.5-1.12z" fill="#f8b479"/><path fill="#e7e8e9" d="M242 53.17l-.51.66-2.24-2.33.65-.73 2.1 2.4z"/><path d="M243.53 85.59s.16 2 1 2.7c2.13 1.72 3.07 3.36 1.18 3.92s-5.85-1.59-6.23-3l.28-4.33zm-15.53 0s-.17 2-1 2.7c-2.13 1.72-3.07 3.36-1.18 3.92s5.85-1.59 6.23-3l-.28-4.33z" fill="#363142"/><path d="M226.47 52.91v34.37s3.31 1.27 6.06-.42c0 0-.14-16.41.42-24.94 0 0 .42-.56.74.46 0 0 4 16.8 5.06 24.78a8.68 8.68 0 0 0 5.73-.75s-2.54-14.66-2.82-16.54-2.43-16.13-2.43-16.13-8.98-2.06-12.76-.83z" fill="#a55a33"/><path d="M237.95 27.92l-1 .26-.11 1.62c1.29.09 1.11-1.88 1.11-1.88zm-8.95 0l1 .26.11 1.62c-1.26.09-1.11-1.88-1.11-1.88z" fill="#f8b479"/><path d="M230.46 31.74a13.92 13.92 0 0 1 6-.06l-.33 1-4.4.88-1.07-1.1z" fill="#bdbec0"/><path d="M236.35 32.3s5.13 1.08 5.65 1.65-.75 8.22-1.32 9.86-1.45 9.94-1.45 9.94a16.53 16.53 0 0 1-12.76-.85s-.33-6-.63-9.09c-.26-2.75-.37-9.48-.37-9.48a10.81 10.81 0 0 1 5-1.83 34.38 34.38 0 0 1 5.88-.2z" fill="#ec6062"/><path d="M242 33.94s5.34 8.16 6.89 12.25L242 53.47l-2.35-2.6 4.59-4.65-2.62-4.62-3.38-4.57z" fill="#ec6062"/><path d="M236.23 28.45L236 32.5s-1.93 1.87-5.17 0v-4.33z" fill="#f8b479"/><ellipse cx="233.45" cy="26.89" rx="3.87" ry="5.35" fill="#f7ca82"/><path d="M233.3 25.4s3-1.45 3.11 3a2.15 2.15 0 0 0 1.78-.3s1.45-7.84-4.85-7.11c0 0-5.41-.49-4.6 7.24a2.53 2.53 0 0 0 2 .1s-.39-3.48 2.56-2.93z" fill="#b74e51"/><path fill="#f8b479" d="M230.91 32.6l2.57 2.01 2.02-1.47-.27-.48-4.32-.06z"/><path fill="#f1f2f2" d="M236.43 31.68l-2.95 2.93 2.23 1.4 1.07-3.61-.35-.72zm-5.97.06l3.02 2.87-2.23 1.4-1.32-3.46.53-.81zm-4.18 17.29v.69a27 27 0 0 0 13.25.6l.08-.72c-7.23 1.24-11.53.12-13.33-.57zm.1 2v.68a27 27 0 0 0 13 .61l.07-.73c-7.01 1.17-11.23.12-13.07-.56z"/><path d="M239.64 51.6a1.38 1.38 0 0 1 .2.76c-.2 1.19.12 1.27.18 1.92a1.71 1.71 0 0 1-.28 1.1c-.13.21-.38.59-.68.56a1.51 1.51 0 0 1-1-1.7 2.23 2.23 0 0 0 .22-1.35c-.08-.48.1-.65.49-.91.08-.04.8-.49.87-.38z" fill="#f7ca82"/><path fill="#e7e8e9" d="M136.02 45.48l4.08-2.36v20.6l-4.08 2.36v-20.6zm5.8-3.33l4.08-2.37v20.61l-4.08 2.36v-20.6zm5.81-3.34l4.08-2.36v20.6l-4.08 2.37V38.81zm5.8-3.33l4.08-2.36v20.6l-4.08 2.36v-20.6zm31.51-26.26v1.29l-11.55 6.68V15.9l11.55-6.68zm0 3.76l-11.55 6.68v-1.29l11.55-6.68v1.29zm0 2.47l-11.55 6.67v-1.28l11.55-6.68v1.29zm0 2.46l-11.55 6.68v-1.28l11.55-6.68v1.28zm0 4.21v1.29l-11.55 6.68V28.8l11.55-6.68zm0 3.76l-11.55 6.67v-1.28l11.55-6.68v1.29zm0 2.47l-11.55 6.67v-1.28l11.55-6.68v1.29zm0 2.46l-11.55 6.68v-1.28l11.55-6.68v1.28zM77.12 90.34v1.29l-11.54 6.68v-1.29l11.54-6.68zm0 3.76l-11.54 6.67v-1.28l11.54-6.68v1.29zm0 2.46l-11.54 6.68v-1.28l11.54-6.68v1.28zm0 2.47l-11.54 6.68v-1.29l11.54-6.67v1.28zm0 3.12v1.29l-11.54 6.67v-1.28l11.54-6.68zm0 3.76l-11.54 6.67v-1.28l11.54-6.68v1.29zm0 2.46l-11.54 6.68v-1.28l11.54-6.68v1.28zm0 2.47l-11.54 6.68v-1.29l11.54-6.67v1.28zm-12.6 13.03v2.32l50.83-29.41v-2.32l-50.83 29.41zm40.6-45.94a15.48 15.48 0 0 0-7 12.17c0 4.47 3.18 6.28 7.07 4a15.48 15.48 0 0 0 7-12.17c-.01-4.45-3.19-6.25-7.07-4z"/><path style="mix-blend-mode:overlay" fill="#ed993c" d="M251.98 19.58l54.49 66.76V51.1l-54.49-31.52z"/></g></g></svg>