<svg xmlns="http://www.w3.org/2000/svg" xmlns:xlink="http://www.w3.org/1999/xlink" viewBox="0 0 400 225"><defs><linearGradient id="a" x1="-69.44" y1="-164.47" x2="531.95" y2="453.73" gradientUnits="userSpaceOnUse"><stop offset="0" stop-color="#6fc7da"/><stop offset=".37" stop-color="#0d71b9"/><stop offset=".76" stop-color="#9e1460"/><stop offset="1" stop-color="#e7267a"/></linearGradient><linearGradient id="c" x1="195.76" y1="43.69" x2="217.99" y2="213.72" xlink:href="#a"/><linearGradient id="d" x1="312.76" y1="184.05" x2="94.2" y2="-16.73" xlink:href="#a"/><linearGradient id="e" x1="212.49" y1="137.97" x2="194.15" y2="82.81" gradientUnits="userSpaceOnUse"><stop offset="0" stop-color="#352e87"/><stop offset="1" stop-color="#5f2e88"/></linearGradient><linearGradient id="f" x1="181.29" y1="211.26" x2="183.79" y2="134.77" gradientUnits="userSpaceOnUse"><stop offset="0" stop-color="#ec6426"/><stop offset="1" stop-color="#fabb68"/></linearGradient><linearGradient id="g" x1="200.06" y1="78.15" x2="143.31" y2="-21.35" gradientUnits="userSpaceOnUse"><stop offset="0" stop-color="#6fc7da"/><stop offset="1" stop-color="#9e1460"/></linearGradient><linearGradient id="b" x1="171.84" y1="88.41" x2="129.17" y2="83.75" gradientUnits="userSpaceOnUse"><stop offset="0" stop-color="#6fc7da"/><stop offset=".69" stop-color="#9e1460"/><stop offset="1" stop-color="#e7267a"/></linearGradient><linearGradient id="h" x1="280.04" y1="68.98" x2="332.54" y2="-15.02" gradientTransform="rotate(67.83 289.742 53.5)" xlink:href="#b"/><linearGradient id="i" x1="117.46" y1="163.33" x2="213.46" y2="64.66" gradientTransform="rotate(17.35 148.914 130.93)" xlink:href="#b"/></defs><g data-name="Calque 1"><path fill="url(#a)" d="M0 0h400v225H0z"/><ellipse cx="179.71" cy="214.19" rx="25.76" ry="3.25" fill="#e0e0e1"/><path d="M257.84 61.58L195.6 38.47a3.63 3.63 0 0 0-4.66 2.15l-42 113.22a3.62 3.62 0 0 0 2.14 4.66l62.24 23.11a3.62 3.62 0 0 0 4.66-2.14L260 66.24a3.63 3.63 0 0 0-2.16-4.66z" fill="url(#c)"/><path d="M188.9 28.94c-4.33 1.8-21 8.75-30.3 26.72-2 3.82-11.28 21.79-4.43 37.67 9.07 21 36.74 15.91 49.43 35.68 10.92 17-11.7 33.73-2 54 5.08 10.58 16.79 19.4 27.63 20.22 33.82 2.54 94.55-70.32 69.85-127.46-17.93-41.61-75.33-61.36-110.18-46.83z" fill="url(#d)"/><path d="M222.76 196.84c-1 0-1.9 0-2.79-.07-17.56-.87-31.3-6.85-38.69-16.85-7.92-10.72-6.2-22.1-4.37-34.15 1.63-10.74 3.31-21.84-2.27-32.73-5-9.69-14.45-11.54-24.5-13.5-10.27-2-20.89-4.07-27.94-14.47-7.45-11-9.16-27.32-4-38 7.62-15.7 33.86-28.19 65.31-31.09 40.83-3.77 76.55 9.35 95.56 35.1 30.32 41.07 16.23 106.66-16.57 131.55l-.3-.4.3.4c-15.16 11.5-29.56 14.21-39.74 14.21zM197.18 16.35q-6.67 0-13.56.63c-31.11 2.87-57 15.14-64.5 30.53-5 10.38-3.36 26.28 3.91 37 6.83 10.06 17.24 12.09 27.31 14.05 10.29 2 20 3.9 25.2 14 5.72 11.18 4 22.44 2.36 33.34-1.8 11.84-3.49 23 4.19 33.41 7.21 9.75 20.68 15.59 37.93 16.44 10.07.5 25.51-1.52 41.89-13.94l.3.4-.3-.4c32.45-24.62 46.38-89.51 16.37-130.16-16.67-22.55-46.38-35.3-81.1-35.3z" style="mix-blend-mode:color-dodge" fill="#aaaad5" opacity=".35"/><path d="M220.53 119.59q-2.35 0-4.76-.13c-24.18-1.33-43.91-12.08-52.79-28.77C148.81 64.08 162.72 27 184 15.28c10.79-5.92 20.13-5.76 26.06-4.58 10.18 2 17.68 6.7 21.13 13.18 3.69 6.94 1.7 13.43-.41 20.31-1.88 6.14-3.83 12.49-1.51 19.36 2.07 6.12 7.47 8 13.18 10s11.84 4.18 15.06 10.86c3.4 7.05 3 16.73-1 22.51-5.22 7.81-19.38 12.67-35.98 12.67zm-17.15-109a39.4 39.4 0 0 0-19.1 5.17c-21.12 11.59-34.89 48.36-20.86 74.74 8.79 16.53 28.37 27.18 52.37 28.5 18.46 1 34.68-3.92 40.39-12.29 3.85-5.64 4.25-15.1.92-22-3.13-6.49-9-8.58-14.77-10.6s-11.35-4-13.49-10.35c-2.37-7-.4-13.45 1.51-19.67 2.08-6.77 4-13.17.44-19.93C227.41 17.77 220 13.18 210 11.19a34 34 0 0 0-6.62-.64zm-19.22 5z" style="mix-blend-mode:color-dodge" fill="#aaaad5" opacity=".09"/><path fill="#eeedf3" opacity=".2" d="M242.76 55.98l-6.88 4.61-60.2 40.41-9.54 6.42 13.12-35.36 9.55-6.4 21.61-14.51 6.88-4.63 25.46 9.46zm13.71 5.08l-6.89 4.63-80.97 54.34v.02l-9.54 6.39 4.62-12.44v-.02l9.55-6.4 67.37-45.23 6.89-4.62 8.97 3.33z"/><path fill="#e83c3b" d="M220.787 129.414l50.84-8.098 4.57 28.699-50.839 8.097z"/><path fill="#ee7375" d="M248.49 139.71l23.14-18.4-50.84 8.1 27.7 10.3z"/><path d="M203.43 79.27c2-1.71 3.68-10.11-.71-8s-1 8.06-1 8.06z" fill="#282e69"/><path d="M204.62 97.49a8.18 8.18 0 0 0 7.76-1.81c.94-.93-1.54-2.29-2.35-3.45a3.13 3.13 0 0 1-.32-2.14 24.91 24.91 0 0 1 1.15-4.51l-8-2.46s-.24 4.13-.44 5.66a2.32 2.32 0 0 1-.19.7c-.42.92-1.44 1.2-3.15 2.26-2.03 1.26 1.56 4.7 5.54 5.75z" fill="#f7b7b1"/><path d="M202.47 88.77a2.43 2.43 0 0 1-.05.28 4.76 4.76 0 0 0 2.6 1.83 7.37 7.37 0 0 0 4.78-1.47 31.2 31.2 0 0 1 1.06-3.84l-8-2.46s-.19 4.13-.39 5.66z" fill="#e49f99"/><path d="M213.75 80.69c-.89 3.91-1.4 5.79-3.33 7.19a7.73 7.73 0 0 1-5.23 1.77c-1.78-.22-4.07-3.36-4.31-5.09a30.9 30.9 0 0 1 .76-10.6 6.44 6.44 0 0 1 6.4-4.13c2.8.35 7.89 1.32 5.71 10.86z" fill="#f7b7b1"/><ellipse cx="201.51" cy="79.55" rx="1.41" ry="2.7" transform="rotate(-5.4 201.646 79.641)" fill="#f7b7b1"/><path d="M237.44 118l-18.36 4.79-4.89-13.86s-3.82 23.23-4.56 25.91-1.4 2.77-2.55 2.57l-18.49-3.24c-1.27-.22-1.93-1.74-1.29-4.11.52-1.93 4.55-17.64 5.27-24.86a76.54 76.54 0 0 1-5.91 11l-17.41-6.64 1.92-5.34 12.14 3.33s4.1-8.45 8.65-13.45a17.1 17.1 0 0 1 7.61-3.83 13.34 13.34 0 0 1 1.79-.22A4.5 4.5 0 0 0 205 94c1.62.28 4.88-.25 5.34-1.93a9 9 0 0 1 1.87 1c2.33 1.55 3.82 2.07 4.85 4.11 1.66 3.28 6.73 17.93 6.73 17.93l13.82-3.1z" fill="url(#e)"/><path d="M196.12 206.89a12.61 12.61 0 0 0 5 4.23c2.71 1.42 8.39 2.66 5 3.47s-5.63.7-10.75-1c-2.15-.62-1.94-.72-4.25-.63s-4 .71-2.91-3.75 6.74-4.99 7.91-2.32zm-39.62-18.68c-.18.88-2.51 2.9-4.86 4.86s-5.09 3-3.23 4c3.22 1.74 4.81.22 9.45-2.52 2-1.06 1.87-.66 4-1.51 1.47-.58 2.71-1.35 2.05-4.28-.99-4.47-6.83-3.4-7.41-.55z" fill="#3f328a"/><path d="M209.47 136.41s-2.57 17.87-4.31 28.59c-.2 1.21-.38 2.32-.55 3.28-.24 1.4-.44 2.49-.59 3.15-.26 1.18-.74 3.44-1.32 6.24-.21 1-.43 2.1-.67 3.24-1.91 9.34-4.39 21.86-4.51 23.47a26.18 26.18 0 0 0 0 3.66.31.31 0 0 1-.45.3l-2.54-1.17a.33.33 0 0 0-.24 0c-.82.31-5.56 2.07-6.25 2.88s.3-2.2.56-5.52c.2-2.47 3.17-17.36 5.08-26.71.24-1.18.46-2.27.66-3.24.39-1.9.68-3.33.82-4a46.22 46.22 0 0 0 .46-5.62c.05-1.08.09-2.24.13-3.44.19-6.28.22-13.57.23-15a.32.32 0 0 0-.24-.3l-4.14-1.1a.26.26 0 0 0-.21 0c-1.06.52-10.57 5.18-15.13 9.1a7.88 7.88 0 0 0-2.26 2.66 2.44 2.44 0 0 0-.11.32c-.91 3.67-1.79 6.64-2.55 8.78-.27.78-.53 1.46-.78 2-.12.27-.27.62-.43 1-1.68 4.06-5.42 14.07-6.08 16-.42 1.21 0 2.07 0 3 0 1.44-2.32 2.09-3.53 1.51-.9-.43-2.71-1.65-3.77-1.44a.32.32 0 0 1-.4-.37c.68-2.83 3.18-13.14 5.44-21.77.29-1.09.57-2.16.85-3.18a87.43 87.43 0 0 1 2.76-9.06 14.16 14.16 0 0 1 2-2.77c5.48-6.48 19.15-18.61 19.15-18.61s.49-1.49 1.31-1.37c1.79.27 1.93.58 11 2.39 9.71 2 10.89 1.01 10.61 3.1z" fill="url(#f)"/><path d="M213.1 74c-5.41-.63-9.21-1.45-11-3.94s-.15-2.77 1.22-1.91a1.87 1.87 0 0 1 3-.85 3.46 3.46 0 0 1 4.77 1s3.71-1.11 4 1.79c-.01.02 2.78 4.46-1.99 3.91z" fill="#282e69"/><path d="M215.59 72.8c1.48 2.15 1.07 10.7-2.67 7.58s.51-7.43.51-7.43z" fill="#282e69"/><ellipse cx="213.82" cy="81.1" rx="2.7" ry="1.41" transform="rotate(-60.62 213.832 81.096)" fill="#f7b7b1"/><path d="M209.38 136.24l-22.65-4.09a.26.26 0 0 1-.2-.34l.8-2.26a.26.26 0 0 1 .29-.17l22.29 3.9a.26.26 0 0 1 .21.3l-.43 2.45a.26.26 0 0 1-.31.21z" fill="#282e69"/><path d="M212.24 93.07a7.33 7.33 0 0 1-6.9 2.72 7.46 7.46 0 0 1-5.78-5.54 13.34 13.34 0 0 1 1.79-.22A4.5 4.5 0 0 0 205 94c1.62.28 4.88-.25 5.34-1.93a9 9 0 0 1 1.9 1z" fill="#eff8fe"/><path d="M216.93 72.79a1.19 1.19 0 0 0-.53-1.6l-1.08 2.13a1.19 1.19 0 0 0 1.61-.53zM204.1 73a3.77 3.77 0 0 0 2.43-4.74l-7.17 2.31A3.77 3.77 0 0 0 204.1 73z" fill="#282e69"/><path d="M207.13 73.75a2.51 2.51 0 0 0 .21-3.54l-3.75 3.34a2.51 2.51 0 0 0 3.54.2zm9.58.55a1.19 1.19 0 0 0 .94-1.4l-2.34.46a1.19 1.19 0 0 0 1.4.94z" fill="#282e69"/><path d="M257.84 61.57l-1.37-.51-9-3.33-4.71-1.73-25.46-9.48-21.7-8.06a3.64 3.64 0 0 0-4.66 2.15l-11.68 31.44-13.12 35.36-2.45 6.59-4.62 12.45-10.17 27.37a3.78 3.78 0 0 0-.21 1 3.59 3.59 0 0 0 2.35 3.63l11.56 4.29 8.72 3.24 23 8.54 8.38 3.11 10.58 3.93a3.63 3.63 0 0 0 4.66-2.13L259.2 68.3l.77-2.06a3.63 3.63 0 0 0-2.13-4.67zm-5.92 7.06L251 71l-35.5 95.74a2 2 0 0 1-2.53 1.15l-7.81-2.9-9.43-3.5-19.49-7.24-8.92-3.31-7.11-2.64a1.94 1.94 0 0 1-1.27-1.76 1.83 1.83 0 0 1 .11-.76l9.56-25.78 4.63-12.45 2.44-6.57 13.13-35.35 6.67-18a2 2 0 0 1 2.52-1.1l12.42 4.61 25.46 9.45 4.73 1.76 9 3.33 1.18.44a1.94 1.94 0 0 1 1.13 2.51z" fill="#eeedf3"/><path d="M193.66 177.79l8.34 3.11c.24-1.14.46-2.22.67-3.24l-8.38-3.11c-.17.97-.39 2.06-.63 3.24zM161.75 166l8.36 3.1c.16-.41.31-.76.43-1 .25-.55.51-1.23.78-2l-8.72-3.24c-.28.93-.6 2-.85 3.14z" fill="#e0e0e1"/><path d="M180.4 165.38a3.41 3.41 0 0 1-2-4.38 3.41 3.41 0 0 1 4.38-2 3.41 3.41 0 0 1 2 4.38 3.41 3.41 0 0 1-4.38 2z" fill="#c9c7d9"/><path d="M166.4 106.7a5.48 5.48 0 0 0 3-.44c.67-.35 1.31-2.4 1.52-3.87s-1.68-1.28-1.68-1.28a9.12 9.12 0 0 1 1.94-.46c1.2-.16 1.68-1.54-.06-1.52s-3.44.85-5.05 4.16c0 0-1.66 3.07 0 4.4zm79.22 2.71c0-1.16-2-3-2.56-2.28s-2.08 3.44-1.82 4.76a7.11 7.11 0 0 0 .93 2.31l-.38 1s3.79-.74 3.83-5.79z" fill="#f7b7b1"/><path d="M214.38 23.28l-75.66 6.25a3.32 3.32 0 0 0-3 3.58l1.83 22.14a3.32 3.32 0 0 0 3.58 3l7.46-.62 3.62-.3c.71.78 2.53 2.75 3.29 3.46a1.64 1.64 0 0 0 2.4-.2c.63-.83 2.1-3.07 2.67-4l18.39-1.52L216.75 52a3.32 3.32 0 0 0 3-3.58L218 26.31a3.32 3.32 0 0 0-3.62-3.03z" style="mix-blend-mode:multiply" fill="#3f3f3f" opacity=".1"/><rect x="240.06" y="20.48" width="27.74" height="27.74" rx="1.86" ry="1.86" transform="rotate(-83.18 253.918 34.358)" style="mix-blend-mode:multiply" fill="#3f3f3f" opacity=".1"/><path d="M163.45 72a4.32 4.32 0 0 0-5.45-2.84L130.21 78a4.32 4.32 0 0 0-2.82 5.43l5.74 18.11a4.32 4.32 0 0 0 5.43 2.82l2.72-.86s5.07 3.52 6.84 4.57a2.59 2.59 0 0 0 3.62-1.15c.85-1.88 3-7.68 3-7.68l11.68-3.7a4.32 4.32 0 0 0 2.82-5.43zm93.35 8.19a1.33 1.33 0 0 0-2.42-.39l-2.51 4.08-1.41-5.88a2.23 2.23 0 0 0-2.68-1.65l-16.29 3.85a2.23 2.23 0 0 0-1.65 2.68l3.88 16.28a2.23 2.23 0 0 0 2.68 1.65l16.28-3.88a2.23 2.23 0 0 0 1.65-2.68l-1.41-5.92 4.08 2.52a1.33 1.33 0 0 0 2-1.44zM109.89 52.87a2.21 2.21 0 0 0-4.08.22l-5.25 14.85a2.21 2.21 0 0 0 3 2.73l10.05-4.8a2.21 2.21 0 0 0 1-2.95z" style="mix-blend-mode:multiply" fill="#3f3f3f" opacity=".1"/><circle cx="117.14" cy="18.52" r="6.48" transform="rotate(-17.58 117.156 18.513)" style="mix-blend-mode:multiply" fill="#3f3f3f" opacity=".1"/><circle cx="290.55" cy="179.8" r="4.34" transform="rotate(-53.1 290.57 179.803)" style="mix-blend-mode:multiply" fill="#3f3f3f" opacity=".1"/><circle cx="283.87" cy="58.62" r="8.2" transform="rotate(-67.83 283.896 58.61)" style="mix-blend-mode:multiply" fill="#3f3f3f" opacity=".1"/><circle cx="153.95" cy="128.69" r="11.14" transform="rotate(-17.35 153.904 128.677)" style="mix-blend-mode:multiply" fill="#3f3f3f" opacity=".1"/><path d="M215.7 17.88l-81.17 6.71a3.56 3.56 0 0 0-3.25 3.84l2 23.75a3.56 3.56 0 0 0 3.84 3.25l8-.66 3.88-.32c.77.83 2.72 3 3.53 3.72a1.76 1.76 0 0 0 2.57-.21c.67-.89 2.25-3.3 2.87-4.25l19.73-1.63 40.58-3.35a3.56 3.56 0 0 0 3.25-3.84l-2-23.75a3.56 3.56 0 0 0-3.83-3.26z" fill="url(#g)"/><path d="M151 39.48a3.91 3.91 0 0 0 1.06-3l-.06-1.95a4 4 0 0 0-4.13-3.76 3.93 3.93 0 0 0-3.76 4.23l.17 2.09a3.91 3.91 0 0 0 1.54 2.8 8.3 8.3 0 0 0-4.9 6.2 1.69 1.69 0 0 0 1.83 1.91l12.68-1a1.69 1.69 0 0 0 1.48-2.21 8.3 8.3 0 0 0-5.91-5.31zm32.8-11.7l-16.18 1.34a2.41 2.41 0 0 0-2.2 2.6l.66 7.95a2.41 2.41 0 0 0 2.6 2.2l1.58-.13s2.31 2.54 3.15 3.32a1.44 1.44 0 0 0 2.1-.17c.69-.91 2.56-3.8 2.56-3.8l6.79-.56a2.41 2.41 0 0 0 2.2-2.6l-.67-7.93a2.41 2.41 0 0 0-2.59-2.22z" fill="#fff"/><path d="M169.41 33.16a1 1 0 0 1-.08-2l13.12-1.08a1 1 0 1 1 .16 2l-13.11 1.08zm.29 3.44a1 1 0 0 1-.08-2l13.11-1.08a1 1 0 1 1 .16 2l-13.11 1.08zm.3 3.4a1 1 0 0 1-.08-2l5.91-.49a1 1 0 1 1 .16 2l-5.91.49z" fill="#e2e1e1"/><path d="M214.14 38.84a7.28 7.28 0 0 0-1.79-4.22l-.14-1.71a5.88 5.88 0 0 0-5.31-5.37v-.5a1 1 0 1 0-2.05.17v.5a5.88 5.88 0 0 0-4.36 6.16l.14 1.71a7.31 7.31 0 0 0-1.07 4.42l.06.74a.69.69 0 0 0 .74.63l2.9-.24a.58.58 0 0 0 .27.58 5.89 5.89 0 0 0 7-.57.58.58 0 0 0 .17-.61l2.9-.24a.69.69 0 0 0 .63-.74z" fill="#fff"/><circle cx="198.61" cy="40.71" r="3.1" transform="rotate(-4.73 198.415 40.695)" fill="#e83c3b"/><rect x="243.25" y="14.87" width="29.75" height="29.75" rx="2" ry="2" transform="rotate(6.82 258.277 29.747)" fill="#f8aa09"/><rect x="246.01" y="17.64" width="24.23" height="24.23" rx="1.21" ry="1.21" transform="rotate(96.82 258.134 29.763)" fill="#fbba38"/><path d="M258.7 31.72l-2.7 2.09a1.13 1.13 0 0 1-1.58-.19 1.13 1.13 0 0 0-1.58-.19l-3.94 3.1a1.13 1.13 0 0 0 .56 2l.46.06 9.28 1.11 5.22.62a1.13 1.13 0 0 0 1-1.82l-5.19-6.6a1.13 1.13 0 0 0-1.53-.18z" fill="#ee9f05"/><circle cx="251.94" cy="27.01" r="1.99" transform="rotate(-83.18 251.934 27.017)" fill="#ee9f05"/><path d="M153.25 65l-29.84 9.45a4.64 4.64 0 0 0-3 5.82l6.15 19.43a4.64 4.64 0 0 0 5.82 3l2.92-.92s5.44 3.78 7.34 4.9a2.78 2.78 0 0 0 3.88-1.23c.91-2 3.18-8.23 3.18-8.23l12.53-4a4.64 4.64 0 0 0 3-5.82l-6.15-19.43a4.64 4.64 0 0 0-5.83-2.97z" fill="url(#b)"/><path d="M153.34 75.11l-24.19 7.66a1.5 1.5 0 0 1-.91-2.86l24.19-7.66a1.5 1.5 0 1 1 .91 2.86zm2.16 6.83l-24.2 7.66a1.5 1.5 0 0 1-.91-2.86l24.19-7.66a1.5 1.5 0 0 1 .91 2.86zM144.37 93l-10.91 3.45a1.5 1.5 0 1 1-.91-2.86l10.91-3.45a1.5 1.5 0 0 1 .91 2.86z" fill="#edb7d5"/><path d="M256.32 75.38l-2.7 4.38-1.51-6.35a2.39 2.39 0 0 0-2.88-1.77l-17.47 4.16a2.39 2.39 0 0 0-1.76 2.89l4.16 17.47a2.39 2.39 0 0 0 2.84 1.77l17.47-4.16a2.39 2.39 0 0 0 1.77-2.88l-1.51-6.35 4.38 2.7a1.43 1.43 0 0 0 2.13-1.54l-2.36-9.89a1.43 1.43 0 0 0-2.56-.43z" fill="#e83b5b"/><path fill="#fff" d="M240.02 80.08l6.38 3.93-3.93 6.38"/><path d="M108.76 60.41l-5.15-10.79a2.37 2.37 0 0 0-4.37.23L93.6 65.79a2.37 2.37 0 0 0 3.26 2.93l10.79-5.15a2.37 2.37 0 0 0 1.11-3.16z" fill="#ef7b4a"/><path d="M105.44 58.64l-1.25-2 .08-.22a.52.52 0 1 0-1-.35L101.55 61a3.52 3.52 0 0 0-1.32-.81c-1.33-.47-2.66-.15-3 .71s.52 1.95 1.85 2.42 2.62.16 2.95-.68l1.22-3.45.73 1.15a.61.61 0 0 0 1.1-.12l.37-1.06a.61.61 0 0 0-.01-.52z" fill="#fff"/><circle cx="113.22" cy="14.51" r="6.95" transform="matrix(.95 -.3 .3 .95 .91 34.88)" fill="#e83c3b"/><path d="M115.92 11.17a2.48 2.48 0 0 0-3.45 1 2.48 2.48 0 0 0-3.39 1.17 2.53 2.53 0 0 0 1.17 3.27l3.48 1.8A1 1 0 0 0 115 18l1.8-3.48a2.53 2.53 0 0 0-.88-3.35z" fill="#fff"/><circle cx="294.39" cy="182.77" r="4.66" transform="rotate(-53.1 294.403 182.769)" fill="#e83c3b"/><path d="M297.27 182.94a49.81 49.81 0 0 0-3.85-2.89 1.69 1.69 0 0 0-1.32 1.95l.37 2.6a.65.65 0 0 0 .74.55l2.6-.37a1.69 1.69 0 0 0 1.46-1.84z" fill="#fff"/><circle cx="289.73" cy="53.49" r="8.8" transform="rotate(-67.83 289.75 53.485)" fill="url(#h)"/><path d="M292.93 48.93a1 1 0 0 0-1.36-.11 15.55 15.55 0 0 1-2.57 2.11l-.83-.34a.14.14 0 0 0-.18.07l-1.79 4.4a.14.14 0 0 0 .07.18l.62.25a2.37 2.37 0 0 0 1.47 1.93l.37.15 2.41 1 .54.22a1 1 0 0 0 1.24-1.27l.39.16a1 1 0 0 0 1.2-1.36 1 1 0 0 0 .4-1.85 1 1 0 0 0 0-1.78l-3.39-1.38c.78-.71 2.02-1.69 1.41-2.38z" fill="#fff"/><rect x="284.74" y="49.54" width="1.91" height="5.55" rx=".35" ry=".35" transform="rotate(22.16 285.758 52.34)" fill="#fff"/><circle cx="148.95" cy="130.96" r="11.95" transform="rotate(-17.35 148.899 130.931)" fill="url(#i)"/><path d="M148.37 123.42a1.32 1.32 0 0 0-1.52 1.06 21.11 21.11 0 0 1-.93 4.47l-1.17.36a.19.19 0 0 0-.12.23l1.92 6.15a.19.19 0 0 0 .23.12l.87-.27a3.23 3.23 0 0 0 3.2.76l.51-.16 3.38-1.05.76-.24a1.3 1.3 0 0 0 .2-2.41l.54-.17a1.3 1.3 0 0 0 .08-2.46 1.3 1.3 0 0 0-1.17-2.28 1.3 1.3 0 0 0-1.53-1.87l-4.75 1.48c.28-1.42.73-3.52-.5-3.72z" fill="#fff"/><rect x="142.41" y="129.45" width="2.6" height="7.54" rx=".47" ry=".47" transform="rotate(-17.35 143.66 133.183)" fill="#fff"/></g></svg>