<svg xmlns="http://www.w3.org/2000/svg" viewBox="0 0 400 225"><defs><radialGradient id="a" cx="199.67" cy="112.83" r="217.83" gradientTransform="matrix(2 0 0 1.13 -200 -14.06)" gradientUnits="userSpaceOnUse"><stop offset="0" stop-color="#fff"/><stop offset=".13" stop-color="#fbfbfb"/><stop offset=".26" stop-color="#efefef"/><stop offset=".38" stop-color="#dcdcdc"/><stop offset=".5" stop-color="silver"/><stop offset=".63" stop-color="#9d9d9d"/><stop offset=".75" stop-color="#717171"/><stop offset=".87" stop-color="#3e3e3e"/><stop offset=".99" stop-color="#040404"/><stop offset="1"/></radialGradient><radialGradient id="b" cx="16986.94" cy="-296.57" r="20.46" gradientTransform="matrix(0 -.35 2.95 -.04 1183.06 6055.88)" gradientUnits="userSpaceOnUse"><stop offset="0"/><stop offset=".01" stop-color="#090909"/><stop offset=".05" stop-color="#373737"/><stop offset=".09" stop-color="#626262"/><stop offset=".14" stop-color="#888"/><stop offset=".2" stop-color="#a8a8a8"/><stop offset=".25" stop-color="#c4c4c4"/><stop offset=".32" stop-color="#dadada"/><stop offset=".4" stop-color="#ebebeb"/><stop offset=".49" stop-color="#f6f6f6"/><stop offset=".63" stop-color="#fdfdfd"/><stop offset="1" stop-color="#fff"/></radialGradient></defs><g data-name="Layer 1"><path fill="url(#a)" d="M0 0h400v225H0z"/><path d="M226 170c33.27-.38 60.23 2.45 60.28 6.38s-26.85 7.41-60.08 7.83-60.23-2.44-60.31-6.38S192.8 170.49 226 170z" style="mix-blend-mode:multiply" opacity=".5" fill="url(#b)"/><path d="M141.18 94.91a.26.26 0 0 1-.2-.12.26.26 0 0 1 0-.27l20.59-36.15a.27.27 0 0 1 .28-.13.26.26 0 0 1 .2.24l2.46 34.92a.26.26 0 0 1-.06.19.26.26 0 0 1-.18.09l-23.06 1.24zm20.42-35.53l-19.93 35L164 93.17z" fill="#4d4d4d"/><path d="M164.23 93.68h-.07a.26.26 0 0 1-.17-.23l-2.46-34.92a.26.26 0 0 1 .44-.2l18.7 18.42a.26.26 0 0 1 0 .37L164.44 93.6a.26.26 0 0 1-.21.08zm-2.13-34.51l2.37 33.65 15.65-15.9z" fill="#4d4d4d"/><path d="M181.47 107.89a.27.27 0 0 1-.14-.06l-17.24-14.21a.26.26 0 0 1-.09-.19.26.26 0 0 1 .07-.2l16.24-16.5a.26.26 0 0 1 .45.17l1 30.71a.26.26 0 0 1-.28.27zM164.64 93.4l16.57 13.66-1-29.52z" fill="#4d4d4d"/><path d="M175 114a.26.26 0 0 1-.19-.13L164 93.54a.26.26 0 0 1 .4-.33l17.24 14.21a.27.27 0 0 1 .1.19.26.26 0 0 1-.08.2l-6.42 6.1a.26.26 0 0 1-.24.09zm-9.94-19.54l10 18.85 6-5.67zm70.03-8.09a.26.26 0 0 1-.17-.09L221.44 71a.25.25 0 0 1-.06-.21.26.26 0 0 1 .12-.18L234.94 62a.26.26 0 0 1 .4.22v23.85a.26.26 0 0 1-.17.24zM222 70.86l12.81 14.55V62.73zm-22.39 7.65a.27.27 0 0 1-.18-.15l-6.75-16.08a.26.26 0 0 1 .06-.29.25.25 0 0 1 .29 0l16.83 7.93a.25.25 0 0 1 .15.2.26.26 0 0 1-.09.23l-10.12 8.1a.26.26 0 0 1-.19.06zm-6.23-15.82l6.35 15.14 9.48-7.67zM224 173.65a.26.26 0 0 1-.17-.08l-2.9-3.07a.26.26 0 0 1-.06-.27.25.25 0 0 1 .21-.17l8.38-1.08a.26.26 0 0 1 .29.22c.36 2.11.64 3.41.64 3.42a.25.25 0 0 1 0 .21.27.27 0 0 1-.18.11l-6.13.71zm-2.34-3.14l2.46 2.61 5.71-.67c-.1-.47-.3-1.49-.54-2.91zM161.77 58.76l-3.76-1a.26.26 0 0 1-.11-.45 19.38 19.38 0 0 1 2.45-1.85.26.26 0 0 1 .21 0 .27.27 0 0 1 .16.14l1.28 2.79a.26.26 0 0 1-.26.37zm-3.19-1.38l2.74.72-1-2a18.79 18.79 0 0 0-1.74 1.28z" fill="#4d4d4d"/><path d="M235.09 86.37a.26.26 0 0 1-.24-.26V62.26A.26.26 0 0 1 235 62a.26.26 0 0 1 .29.07l16.65 19a.26.26 0 0 1 .06.11 10.38 10.38 0 0 1 .2 1.14 10.24 10.24 0 0 1 0 2.16 7.21 7.21 0 0 1 1.41 1.32.26.26 0 0 1-.2.43l-18.31.14zm.25-23.37v22.89l17.47-.13a6.53 6.53 0 0 0-1.05-.88.27.27 0 0 1-.12-.25 9.82 9.82 0 0 0 0-2.2c0-.33-.1-.66-.18-1zm-61.52 62.65l-7-.87a.27.27 0 0 1-.18-.11 21.18 21.18 0 0 1-2.93-6.11.26.26 0 0 1 .15-.32l11.14-4.75a.26.26 0 0 1 .36.27l-1.23 11.66a.26.26 0 0 1-.28.23zm-6.82-1.37l6.58.82 1.16-11-10.46 4.49a20.71 20.71 0 0 0 2.72 5.69zm54 46.36h-.09a.26.26 0 0 1-.15-.23h.24-.25a.28.28 0 0 1 .09-.21.26.26 0 0 1 .21-.07h.07a.26.26 0 0 1 .21.2.26.26 0 0 1-.1.27l-.07.05a.27.27 0 0 1-.16-.01zm-40.52-93.46a.26.26 0 0 1-.16-.07l-18.7-18.42a.26.26 0 0 1 .3-.42l23.63 12a.27.27 0 0 1 .14.18.26.26 0 0 1 0 .22l-4.93 6.42a.25.25 0 0 1-.19.1zm-17.3-17.68l17.29 17 4.53-5.91z" fill="#4d4d4d"/><path d="M180.48 77.18a.26.26 0 0 1-.22-.15.26.26 0 0 1 0-.27l4.93-6.42a.26.26 0 0 1 .33-.07L199.76 78a.26.26 0 0 1 .12.3.26.26 0 0 1-.27.19l-19.14-1.33zm5-6.34L181 76.69l17.46 1.22z" fill="#4d4d4d"/><path d="M185.4 70.76h-.09a.26.26 0 0 1-.15-.27L187 58.4a.26.26 0 0 1 .4-.18l5.6 3.73a.26.26 0 0 1 .05.39l-7.46 8.34a.26.26 0 0 1-.19.08zm2.05-11.88l-1.64 10.79 6.67-7.46z" fill="#4d4d4d"/><path d="M199.61 78.51h-.1l-14.21-7.78a.26.26 0 0 1-.07-.4l7.46-8.33a.26.26 0 0 1 .24-.08.26.26 0 0 1 .2.16l6.75 16.08a.26.26 0 0 1-.26.36zm-13.77-8.08l13.26 7.23-6.3-15zm-6.47 62.86c-.41-.09-.82-.21-1.22-.33a.26.26 0 0 1-.15-.12l-4.35-7.32a.26.26 0 0 1 .31-.38l8.43 2.74a.26.26 0 0 1 .14.38l-2.88 4.89a.26.26 0 0 1-.28.14zm-1-.8l.9.24 2.62-4.45-7.46-2.43zm76.25-38.67h-.07L235 86.35a.26.26 0 0 1 .09-.51l18.31-.14a.26.26 0 0 1 .2.09 7.1 7.1 0 0 1 1.51 5.83.26.26 0 0 1 0 .18l-.29 1.79a.26.26 0 0 1-.28.22zm-18.12-7.46l17.93 6.84.22-1.36a.27.27 0 0 1-.05-.18 6.6 6.6 0 0 0-1.3-5.43z" fill="#4d4d4d"/><path d="M256.08 95.27a.25.25 0 0 1-.16-.07l-1.47-1.45a.26.26 0 0 1-.07-.23l.29-1.79a.26.26 0 0 1 .41-.17 7.1 7.1 0 0 1 1.16 1.05.25.25 0 0 1 .07.17l.06 2.23a.26.26 0 0 1-.16.25.25.25 0 0 1-.13.01zm-1.17-1.8l.91.9v-1.48a7 7 0 0 0-.67-.64zm-115.74 20.34a.26.26 0 0 1-.18-.1l-8.48-10.61a.27.27 0 0 1-.06-.13v-.45a20 20 0 0 1 .21-6 .26.26 0 0 1 .21-.21l10.34-1.88a.27.27 0 0 1 .23.06.26.26 0 0 1 .08.22l-2 18.89a.26.26 0 0 1-.19.22zm-8.21-11l8 10.06L140.91 95l-9.82 1.79a19.43 19.43 0 0 0-.18 5.69v.27zM221 174a.26.26 0 0 1-.16-.07.25.25 0 0 1-.08-.2v-3.36a.26.26 0 0 1 .11-.21l.07-.05a.26.26 0 0 1 .39.1l1.46 3.24a.26.26 0 0 1 0 .24.27.27 0 0 1-.2.13L221 174zm.32-2.62v2.07l.91-.11z" fill="#4d4d4d"/><path d="M222.55 173.82a.26.26 0 0 1-.22-.15l-1.46-3.24a.26.26 0 0 1 .43-.29l2.9 3.07a.27.27 0 0 1 .06.27.26.26 0 0 1-.22.17l-1.44.17zm-.56-2.2l.75 1.65.73-.09zm34.09-76.35h-.11a.27.27 0 0 1-.13-.22l-.06-2.23a.26.26 0 0 1 .45-.18 7 7 0 0 1 1.14 1.71.26.26 0 0 1-.11.34l-1 .58a.26.26 0 0 1-.18 0zm.24-1.72v1l.44-.25a6.23 6.23 0 0 0-.44-.75zM185.4 70.76h-.1l-23.63-12a.26.26 0 0 1 0-.48l18.15-5.69a.27.27 0 0 1 .2 0 .26.26 0 0 1 .13.15l5.48 17.69a.26.26 0 0 1-.27.34zm-22.92-12.2L185 70l-5.22-16.85z" fill="#4d4d4d"/><path d="M185.4 70.76a.26.26 0 0 1-.23-.18l-5.47-17.7a.26.26 0 0 1 .1-.29.26.26 0 0 1 .31 0l7.31 5.63a.26.26 0 0 1 .1.25l-1.83 12.06a.26.26 0 0 1-.24.22zm-5-17.24l4.9 15.82 1.7-10.79zm-6.58 72.13a.26.26 0 0 1-.24-.29l1.23-11.66a.26.26 0 0 1 .16-.21.27.27 0 0 1 .26 0l11.1 8.92a.26.26 0 0 1 .09.26.26.26 0 0 1-.2.19l-12.33 2.74zm1.46-11.42l-1.14 10.83 11.45-2.54z" fill="#4d4d4d"/><path d="M182.25 128.4h-.06l-8.43-2.75a.26.26 0 0 1-.18-.26.26.26 0 0 1 .21-.24l12.33-2.74a.26.26 0 0 1 .27.11.26.26 0 0 1 0 .3l-3.9 5.49a.26.26 0 0 1-.24.09zm-7.42-3l7.34 2.39 3.4-4.78z" fill="#4d4d4d"/><path d="M186.15 122.92a.25.25 0 0 1-.14-.06l-11.1-8.92a.26.26 0 0 1-.1-.19.26.26 0 0 1 .08-.2l6.43-6.11a.26.26 0 0 1 .24-.06.26.26 0 0 1 .18.17l4.68 15a.26.26 0 0 1-.1.3.26.26 0 0 1-.17.07zm-10.68-9.2l10.2 8.2-4.3-13.81z" fill="#4d4d4d"/><path d="M186.15 122.92a.26.26 0 0 1-.23-.18l-4.68-15a.26.26 0 0 1 .07-.27.26.26 0 0 1 .28 0l28.2 12.28a.26.26 0 0 1-.07.5L186.19 123zm-4.24-14.82l4.44 14.28 22.35-2.62zm-40.73-13.19h-.09L132.8 91a.26.26 0 0 1-.14-.15.25.25 0 0 1 0-.21 20.08 20.08 0 0 1 1.12-1.83 20.09 20.09 0 0 1 8.32-15.42 20.07 20.07 0 0 1 4.75-8.39l.08-.06 14.75-6.66a.26.26 0 0 1 .3.06.26.26 0 0 1 0 .3l-20.55 36.14a.26.26 0 0 1-.25.13zm-7.91-4.23l7.82 3.63 20.08-35.25-14 6.31a19.53 19.53 0 0 0-4.6 8.27.25.25 0 0 1-.1.15 19.56 19.56 0 0 0-8.18 15.14.24.24 0 0 1 0 .14c-.37.51-.7 1.05-1.02 1.62z" fill="#4d4d4d"/><path d="M130.84 96.8a.26.26 0 0 1-.16-.08.26.26 0 0 1-.07-.23 19.9 19.9 0 0 1 2.07-5.81.26.26 0 0 1 .34-.11l8.3 3.85a.26.26 0 0 1-.06.49l-10.35 1.89zm2.16-5.65a19.41 19.41 0 0 0-1.83 5.07l9.15-1.67zm97.43 51.08a.26.26 0 0 1-.19-.11L214.18 120a.26.26 0 0 1 .17-.41l7.49-1.2a.26.26 0 0 1 .29.17l8.57 23.34a.26.26 0 0 1-.12.32.25.25 0 0 1-.15.01zM214.85 120l14.7 20.27-7.84-21.36z" fill="#4d4d4d"/><path d="M230.43 142.23a.26.26 0 0 1-.22-.17l-8.57-23.33a.26.26 0 0 1 .32-.34l8.07 2.46a.26.26 0 0 1 .18.24l.49 20.87a.26.26 0 0 1-.21.26zM222.31 119l7.84 21.36-.45-19.11zm-35.07-60.3a.25.25 0 0 1-.14-.05L179.79 53a.26.26 0 0 1 0-.43l9.67-5.82h.53a11.88 11.88 0 0 1 5 .5.26.26 0 0 1 .13.4l-7.7 11a.26.26 0 0 1-.17.11zm-6.83-5.87l6.79 5.23 7.34-10.51a11.34 11.34 0 0 0-4.48-.37h-.35zm2.05 80.95a21.12 21.12 0 0 1-3.13-.49.26.26 0 0 1-.18-.15.26.26 0 0 1 0-.24L182 128a.26.26 0 0 1 .2-.13.26.26 0 0 1 .22.08l4.84 5.24a.26.26 0 0 1-.15.43h-.46a21.57 21.57 0 0 1-4.19.16zm-2.67-.92a20.89 20.89 0 0 0 6.78.33l-4.26-4.61z" fill="#4d4d4d"/><path d="M187.09 133.64a.27.27 0 0 1-.17-.08l-4.84-5.24a.26.26 0 0 1 0-.33l3.9-5.48a.26.26 0 0 1 .22-.11.23.23 0 0 1 .21.12l5.94 9.39a.26.26 0 0 1 0 .22.26.26 0 0 1-.15.16 21.31 21.31 0 0 1-5.07 1.35zm-4.48-5.52l4.6 5a21 21 0 0 0 4.52-1.18l-5.57-8.8z" fill="#4d4d4d"/><path d="M208 134.28h-.07a13.46 13.46 0 0 1-7.75-7.59 21.4 21.4 0 0 1-8 5.61.27.27 0 0 1-.32-.1l-5.94-9.39a.26.26 0 0 1 .19-.4l23.53-2.75a.25.25 0 0 1 .21.08.26.26 0 0 1 .08.21l-1.69 14.12a.26.26 0 0 1-.12.19.25.25 0 0 1-.12.02zm-7.71-8.37a.27.27 0 0 1 .2.17 12.92 12.92 0 0 0 7.29 7.57l1.61-13.46-22.78 2.67 5.6 8.85a20.88 20.88 0 0 0 7.84-5.71.26.26 0 0 1 .22-.08zm20.8 44.67H221a.27.27 0 0 1-.22-.26.31.31 0 0 1 .17-.27.25.25 0 0 1 .28 0l.07.08a.26.26 0 0 1-.21.44z" fill="#4d4d4d"/><path d="M210.15 136.4a.27.27 0 0 1-.21-.15 13.68 13.68 0 0 1-.65-1.54 12.62 12.62 0 0 1-1.37-.44.26.26 0 0 1-.17-.28l1.69-14.12a.26.26 0 0 1 .26-.23l4.7-.06a.28.28 0 0 1 .21.1.26.26 0 0 1 0 .23l-4.23 16.3a.26.26 0 0 1-.23.19zm-1.86-2.54a13 13 0 0 0 1.26.38.26.26 0 0 1 .19.17c.1.31.23.63.37 1l4-15.26-4.13.05zm23.53-43.54a.26.26 0 0 1-.2-.14l-10.2-19.25a.26.26 0 0 1 .08-.34.26.26 0 0 1 .35 0l13.47 15.3a.26.26 0 0 1 0 .34l-3.27 4a.26.26 0 0 1-.23.09zm-8.91-17.67l9 16.95 2.88-3.48zm15.98 70.29l-8.46-.71a.26.26 0 0 1-.24-.25l-.49-20.87a.26.26 0 0 1 .48-.15l12.65 19.55a.26.26 0 0 1-.06.35 13.39 13.39 0 0 1-3.78 2.07zm-8.18-1.21l8.17.68a12.82 12.82 0 0 0 3.39-1.83l-12-18.57z" fill="#4d4d4d"/><path d="M242.59 140.91a.28.28 0 0 1-.18-.12l-12.65-19.55a.26.26 0 0 1 .1-.38l8.75-4.27a.27.27 0 0 1 .23 0 .26.26 0 0 1 .14.18l4.82 23a.26.26 0 0 1-.08.24c-.29.28-.61.55-.94.8a.27.27 0 0 1-.19.1zm-12.25-19.7l12.34 19.06c.2-.16.39-.33.57-.5l-4.73-22.55z" fill="#4d4d4d"/><path d="M243.5 140.12h-.06a.26.26 0 0 1-.18-.2l-4.83-23a.26.26 0 0 1 .06-.22.26.26 0 0 1 .21-.09l14.86.86a.24.24 0 0 1 .2.12.26.26 0 0 1 0 .23l-4.7 12.76a.26.26 0 0 1-.11.14c-.25.14-.5.28-.76.41l-.31.14a13.41 13.41 0 0 1-4.22 8.82.26.26 0 0 1-.16.03zm-4.48-23l4.66 22.23a12.9 12.9 0 0 0 3.73-8.3.26.26 0 0 1 .15-.22h.08l.35-.17.65-.35 4.54-12.34z" fill="#4d4d4d"/><path d="M248.85 130.72a.25.25 0 0 1-.15-.06.27.27 0 0 1-.08-.29l4.7-12.76a.26.26 0 0 1 .25-.17.26.26 0 0 1 .24.19l1.43 5a.27.27 0 0 1 0 .15 13.39 13.39 0 0 1-6.25 7.94.25.25 0 0 1-.14 0zm4.69-12.19l-4.16 11.31a12.87 12.87 0 0 0 5.36-7.17zm-72.07-10.64h-.05a.26.26 0 0 1-.19-.24l-1-30.71a.26.26 0 0 1 .13-.23.26.26 0 0 1 .27 0l15.91 9.82a.26.26 0 0 1 .07.37l-14.91 20.88a.26.26 0 0 1-.23.11zm-.7-30.49l1 29.45 14.31-20z" fill="#4d4d4d"/><path d="M196.39 87a.27.27 0 0 1-.12 0l-15.91-9.82a.26.26 0 0 1 .16-.48l19.13 1.3a.22.22 0 0 1 .2.12.27.27 0 0 1 0 .23l-3.23 8.49a.27.27 0 0 1-.16.15zm-14.85-9.75l14.74 9.1 3-7.86z" fill="#4d4d4d"/><path d="M181.47 107.89a.26.26 0 0 1-.18-.1.26.26 0 0 1 0-.31l14.91-20.89a.26.26 0 0 1 .31-.09l17.41 7.37a.26.26 0 0 1 0 .48l-32.33 13.51a.25.25 0 0 1-.12.03zm15-20.83l-14.26 20 30.91-12.92z" fill="#4d4d4d"/><path d="M209.68 120.16h-.08l-28.2-12.28a.26.26 0 0 1 0-.48l32.33-13.52a.26.26 0 0 1 .36.28L210 119.94a.26.26 0 0 1-.13.19.25.25 0 0 1-.19.03zm-27.52-12.53l27.33 11.9 4-25z" fill="#4d4d4d"/><path d="M213.8 94.37h-.08L196.31 87a.26.26 0 0 1-.14-.33l3.23-8.49a.26.26 0 0 1 .2-.16.25.25 0 0 1 .24.08L214 93.94a.26.26 0 0 1 0 .33.26.26 0 0 1-.2.1zm-17.06-7.78l16.1 6.82-13.11-14.67z" fill="#4d4d4d"/><path d="M213.8 94.37a.27.27 0 0 1-.17-.09l-14.19-15.86a.27.27 0 0 1-.07-.2.26.26 0 0 1 .1-.18l10.08-8.15a.26.26 0 0 1 .25 0 .27.27 0 0 1 .17.2l4.11 24a.26.26 0 0 1-.15.28.26.26 0 0 1-.13 0zM200 78.28l13.4 15-3.88-22.68z" fill="#4d4d4d"/><path d="M209.68 120.16a.26.26 0 0 1-.18-.09.26.26 0 0 1-.06-.21l4.12-25.79a.26.26 0 0 1 .27-.22.26.26 0 0 1 .24.26l.58 25.73a.26.26 0 0 1-.26.27l-4.7.06zM213.62 97L210 119.64l4.13-.06z" fill="#4d4d4d"/><path d="M214.37 120.1a.26.26 0 0 1-.24-.25l-.58-25.73a.26.26 0 0 1 .51-.09l8.06 24.53a.27.27 0 0 1 0 .22.25.25 0 0 1-.18.12l-7.48 1.2zm-.25-24.24l.53 23.67 6.89-1.1z" fill="#4d4d4d"/><path d="M213.8 94.37a.26.26 0 0 1-.24-.22l-4.11-24a.26.26 0 0 1 .27-.3l11.93.71a.25.25 0 0 1 .2.11.27.27 0 0 1 0 .23l-7.82 23.3a.25.25 0 0 1-.23.17zm-3.77-24L213.9 93l7.38-22z" fill="#4d4d4d"/><path d="M213.8 94.37a.26.26 0 0 1-.23-.34l7.82-23.3a.26.26 0 0 1 .23-.18.26.26 0 0 1 .25.14l10.2 19.25a.25.25 0 0 1 0 .23.26.26 0 0 1-.18.15l-18 4.05zm7.89-22.9l-7.48 22.29 17.23-3.88zm-59.92-12.71a.26.26 0 0 1-.2-.15l-1.35-2.82a.26.26 0 0 1 .1-.33 19.23 19.23 0 0 1 6-2.53.26.26 0 0 1 .25.42L162 58.67a.26.26 0 0 1-.23.09zm-1-3l1.09 2.24 3.8-4.39a18.7 18.7 0 0 0-4.88 2.17z" fill="#4d4d4d"/><path d="M161.77 58.76a.26.26 0 0 1-.18-.43L166.2 53a.26.26 0 0 1 .14-.08 19.74 19.74 0 0 1 2.13-.37c.38 0 .76-.07 1.14-.1a19.36 19.36 0 0 1 9.32-3.71c.48-.05 1-.09 1.42-.11a.25.25 0 0 1 .2.08.26.26 0 0 1 .07.21l-.42 3.91a.26.26 0 0 1-.18.22l-18.15 5.69zm4.77-5.34L162.59 58l17.11-5.37.37-3.43c-.35 0-.72.05-1.08.1a18.84 18.84 0 0 0-9.13 3.65.26.26 0 0 1-.14.05c-.4 0-.79.05-1.19.1a19.58 19.58 0 0 0-1.99.32z" fill="#4d4d4d"/><path d="M179.93 53.07a.26.26 0 0 1-.12 0 .26.26 0 0 1-.12-.25l.42-3.91a.26.26 0 0 1 .25-.23 19.45 19.45 0 0 1 4 .24 11.9 11.9 0 0 1 5.22-2.16.26.26 0 0 1 .17.48L180.08 53a.25.25 0 0 1-.15.07zm.67-3.91l-.34 3.16 7.83-4.71a11.32 11.32 0 0 0-3.51 1.77.26.26 0 0 1-.2 0 18.87 18.87 0 0 0-3.78-.23zM147.78 120a20 20 0 0 1-9.82-4.07.26.26 0 0 1-.07-.32l1.09-2.19a.26.26 0 0 1 .34-.12l12.85 5.8a.26.26 0 0 1 .15.28.26.26 0 0 1-.23.22l-4.24.41zm-9.34-4.36a19.41 19.41 0 0 0 9.37 3.83l3.24-.31-11.72-5.29z" fill="#4d4d4d"/><path d="M148.59 120.1l-.82-.08a.26.26 0 0 1 0-.52l4.24-.41a.26.26 0 0 1 .23.1.26.26 0 0 1 0 .25l-.18.49a.26.26 0 0 1-.22.17 20.11 20.11 0 0 1-3.25 0z" fill="#4d4d4d"/><path d="M152 119.61h-.09l-12.85-5.8a.26.26 0 0 1-.15-.27l2-18.89a.26.26 0 0 1 .5-.08l10.84 24.69a.26.26 0 0 1-.26.36zm-12.55-6.22l12.06 5.44-10.15-23.17z" fill="#4d4d4d"/><path d="M152 119.61a.26.26 0 0 1-.22-.16L141 94.76a.26.26 0 0 1 .23-.37l23.05-1.24a.26.26 0 0 1 .25.37l-12.22 25.93a.26.26 0 0 1-.24.15zm-10.41-24.72L152 118.71l11.79-25z" fill="#4d4d4d"/><path d="M151.89 120.09a.3.3 0 0 1-.21-.1.27.27 0 0 1-.07-.25l.18-.49a.26.26 0 0 1 .23-.17.26.26 0 0 1 .25.15l.22.45a.26.26 0 0 1-.21.37h-.34zm12.11-1.35h-.09a.26.26 0 0 1-.14-.16 19.5 19.5 0 0 1-.48-2 .26.26 0 0 1 .19-.31l11.52-2.79a.26.26 0 0 1 .31.17.26.26 0 0 1-.14.32l-11.08 4.75zm-.15-2c.1.47.21.93.34 1.39l7.93-3.4z" fill="#4d4d4d"/><path d="M152.24 120.06a.26.26 0 0 1-.21-.15l-.22-.45a.26.26 0 0 1 .17-.37l7.68-1.87a.26.26 0 0 1 .31.16.26.26 0 0 1-.12.32 19.85 19.85 0 0 1-7.3 2.33h-.26zm5-1.7l-4.79 1.17h.07a19.37 19.37 0 0 0 4.69-1.18z" fill="#4d4d4d"/><path d="M152 119.61a.26.26 0 0 1-.21-.37L164 93.31a.26.26 0 0 1 .47 0l10.81 20.31a.26.26 0 0 1-.17.38l-11.55 2.81a.25.25 0 0 1-.2 0 .26.26 0 0 1-.12-.17c-.08-.4-.14-.76-.19-1.11a20 20 0 0 1-3.23 2.21h-.06l-7.68 1.87zM164.27 94l-11.76 25 7.11-1.73a19.48 19.48 0 0 0 3.47-2.45.26.26 0 0 1 .43.17c0 .4.11.82.2 1.28l11-2.67zm28.59-31.58a.26.26 0 0 1-.12 0l-5.63-3.72a.26.26 0 0 1-.11-.18.27.27 0 0 1 .06-.21l9-10.53a.26.26 0 0 1 .31-.07h.08a11.87 11.87 0 0 1 2.64-.88.26.26 0 0 1 .25.09.26.26 0 0 1 0 .27l-6.26 15.07a.26.26 0 0 1-.17.15zm-5.22-4l5.12 3.39 5.94-14.31a11.29 11.29 0 0 0-2.14.78.27.27 0 0 1-.23 0z" fill="#4d4d4d"/><path d="M187.24 58.7a.26.26 0 0 1-.19-.41l7.7-11a.25.25 0 0 1 .29-.1 11.78 11.78 0 0 1 1.3.52.26.26 0 0 1 .09.41l-9 10.52a.26.26 0 0 1-.19.06zm7.83-11l-4.49 6.43 5.23-6.13c-.25-.1-.5-.19-.75-.28zm45.47 17.08h-.08L235 62.5a.26.26 0 0 1-.13-.36l1-2a.26.26 0 0 1 .32-.12 8.19 8.19 0 0 1 4.58 4.37.26.26 0 0 1-.26.37zm-5.1-2.65L240 64a7.69 7.69 0 0 0-3.78-3.4z" fill="#4d4d4d"/><path d="M251.7 81.5a.26.26 0 0 1-.17-.09l-16.65-19a.26.26 0 0 1 0-.32.26.26 0 0 1 .31-.09l5.49 2.26a.26.26 0 0 1 .14.14 8 8 0 0 1 .43 1.29A10.25 10.25 0 0 1 247 73.8c0 .26.05.52.06.78a10.33 10.33 0 0 1 4.9 6.6.26.26 0 0 1-.28.32zM236 62.93l15.13 17.24a9.83 9.83 0 0 0-4.44-5.17.27.27 0 0 1-.13-.22c0-.29 0-.59-.06-.88a9.74 9.74 0 0 0-5.59-7.74.26.26 0 0 1-.14-.18 7.61 7.61 0 0 0-.39-1.22zM138.08 116a.26.26 0 0 1-.14-.05 20.09 20.09 0 0 1-5.42-6.49.26.26 0 0 1 .37-.34l6.43 4.22a.26.26 0 0 1 .09.33l-1.09 2.19a.26.26 0 0 1-.18.14zm-4.58-5.87a19.63 19.63 0 0 0 4.51 5.2l.84-1.7z" fill="#4d4d4d"/><path d="M139.17 113.81a.27.27 0 0 1-.12 0l-6.43-4.22a.25.25 0 0 1-.09-.1 19.86 19.86 0 0 1-2.07-6.48.26.26 0 0 1 .46-.2l8.48 10.61a.26.26 0 0 1-.22.42zm-6.17-4.66l5 3.28-6.83-8.55a19.32 19.32 0 0 0 1.83 5.27zm88.62-38.08a.27.27 0 0 1-.14-.05.26.26 0 0 1-.09-.28l3.16-10.43a.26.26 0 0 1 .3-.18L235.12 62a.26.26 0 0 1 .09.48L221.78 71a.27.27 0 0 1-.16.07zM225 60.68l-2.89 9.53 12.28-7.81z" fill="#4d4d4d"/><path d="M224.78 60.64a.26.26 0 0 1-.12 0 .26.26 0 0 1-.12-.19l-.84-7.2a.26.26 0 0 1 .16-.27.26.26 0 0 1 .3.08 8.09 8.09 0 0 1 7.33 5 .26.26 0 0 1 0 .21.27.27 0 0 1-.15.14l-6.5 2.23zm-.51-7.05L225 60l5.92-2a7.57 7.57 0 0 0-6.65-4.41z" fill="#4d4d4d"/><path d="M235.06 62.52l-10.28-1.88a.26.26 0 0 1 0-.52l10.57-.34h.08a7.55 7.55 0 0 1 .79.26.26.26 0 0 1 .15.15.26.26 0 0 1 0 .21l-1 2a.26.26 0 0 1-.31.12zm-7.81-2l7.69 1.48.82-1.54-.42-.13z" fill="#4d4d4d"/><path d="M224.78 60.64a.26.26 0 0 1-.06-.51l6.5-2.23a.26.26 0 0 1 .32.15 8.13 8.13 0 0 1 .49 1.58l.36-.06a8.16 8.16 0 0 1 3 .22.26.26 0 0 1-.06.51l-10.57.34zm6.37-2.17l-4.62 1.59 5-.16a7.75 7.75 0 0 0-.38-1.43zm-38.29 3.95a.26.26 0 0 1-.19-.1.26.26 0 0 1 0-.26L198.9 47a.26.26 0 0 1 .19-.16c.35-.07.7-.13 1-.17a11.85 11.85 0 0 1 7.08 1.38.25.25 0 0 1 .11.07l10.61 11.29a.26.26 0 0 1 .06.27.26.26 0 0 1-.22.17l-24.85 2.58zm6.47-15.1l-6 14.54 23.88-2.48L207 48.52a11.32 11.32 0 0 0-6.79-1.33c-.3.03-.59.08-.88.13z" fill="#4d4d4d"/><path d="M209.69 70.35h-.09l-16.83-7.95a.26.26 0 0 1-.15-.28.26.26 0 0 1 .23-.22l24.85-2.58a.26.26 0 0 1 .25.13.26.26 0 0 1 0 .29l-8 10.51a.26.26 0 0 1-.26.1zm-15.85-8l15.79 7.44 7.53-9.86z" fill="#4d4d4d"/><path d="M217.71 59.84a.26.26 0 0 1-.17-.08l-10.61-11.29A.26.26 0 0 1 207 48a8.31 8.31 0 0 1 1.74-.4 8.2 8.2 0 0 1 5.26 1.22 8.11 8.11 0 0 1 4.54.79.26.26 0 0 1 .14.25L218 59.6a.26.26 0 0 1-.17.23zm-10.12-11.42L217.52 59l.7-9a7.56 7.56 0 0 0-4.09-.66H214a.25.25 0 0 1-.17 0 7.66 7.66 0 0 0-5-1.15 7.51 7.51 0 0 0-1.24.23z" fill="#4d4d4d"/><path d="M209.69 70.35a.26.26 0 0 1-.19-.42l8-10.51a.24.24 0 0 1 .25-.1.26.26 0 0 1 .21.17l3.91 11.22a.26.26 0 0 1 0 .24.26.26 0 0 1-.22.1l-11.93-.71zm8-10.23l-7.43 9.74 11 .66z" fill="#4d4d4d"/><path d="M221.62 71.07a.26.26 0 0 1-.22-.18l-3.91-11.22a.26.26 0 0 1 .28-.35l7.07.8a.27.27 0 0 1 .19.12.26.26 0 0 1 0 .22l-3.16 10.43a.26.26 0 0 1-.24.19zm-3.5-11.18l3.5 10.11 2.84-9.36z" fill="#4d4d4d"/><path d="M224.78 60.64l-7.07-.8a.26.26 0 0 1-.23-.28l.76-9.75a.26.26 0 0 1 .13-.21.26.26 0 0 1 .24 0c.28.14.5.26.7.39a8.13 8.13 0 0 1 4.86 3 .26.26 0 0 1 .05.13l.84 7.2a.26.26 0 0 1-.28.29zM218 59.35l6.49.73-.79-6.8a7.61 7.61 0 0 0-4.55-2.79h-.09l-.35-.21zm.08 90.65a.26.26 0 0 1-.23-.18 45.28 45.28 0 0 0-3.54-8.42 13.54 13.54 0 0 1-4.38-5.1.26.26 0 0 1 0-.18l4.23-16.3a.26.26 0 0 1 .22-.19.27.27 0 0 1 .26.14l13.7 26.52a.26.26 0 0 1 0 .14v.3a.25.25 0 0 1-.18.23l-10 3zm-7.64-13.85a13 13 0 0 0 4.22 4.85.26.26 0 0 1 .08.09 45.6 45.6 0 0 1 3.54 8.32l9.55-2.9v-.05l-13.36-25.84z" fill="#4d4d4d"/><path d="M221.09 170.58a.26.26 0 0 1-.17-.09l-.07-.08a.26.26 0 0 1-.07-.17 70.83 70.83 0 0 0-2.92-20.48.26.26 0 0 1 0-.2.25.25 0 0 1 .15-.13l10-3a.26.26 0 0 1 .34.27v.61l-6.94 23.1a.26.26 0 0 1-.19.18zm-2.65-20.72a70.4 70.4 0 0 1 2.84 19l6.51-21.66v-.18z" fill="#4d4d4d"/><path d="M228.08 146.62a.26.26 0 0 1-.21-.14L214.16 120a.26.26 0 0 1 .44-.27l16.05 22.13a.26.26 0 0 1 0 .27l-.33.7a.26.26 0 0 1-.32.13c-.43-.15-.82-.31-1.2-.48-.2 1.21-.35 2.51-.46 3.86a.3.3 0 0 1 0 .08.29.29 0 0 1-.29.24zm-11.86-23.82l11.7 22.64c.12-1.2.27-2.35.45-3.43a.27.27 0 0 1 .14-.19.25.25 0 0 1 .23 0 12.79 12.79 0 0 0 1.24.53l.16-.34zm4.87 47.78a.26.26 0 0 1-.23-.34l6.92-23a.26.26 0 0 1 .51.09 101.1 101.1 0 0 0 1.45 21.91.25.25 0 0 1 0 .2.26.26 0 0 1-.18.11l-8.38 1.08zm6.58-21.2l-6.2 20.62 7.71-1a105.63 105.63 0 0 1-1.51-19.61z" fill="#4d4d4d"/><path d="M233.44 143.65a13.5 13.5 0 0 1-3.41-.73.26.26 0 0 1-.15-.15.27.27 0 0 1 0-.21l.33-.7a.26.26 0 0 1 .26-.15l8.46.71a.26.26 0 0 1 .06.51 13.48 13.48 0 0 1-5.55.73zm-3-1.13a12.85 12.85 0 0 0 3 .61 12.88 12.88 0 0 0 2.52 0 13.39 13.39 0 0 0 1.49-.26l-6.89-.58zM169.64 128a.25.25 0 0 1-.16-.07 21.19 21.19 0 0 1-2.81-3.28.26.26 0 0 1 0-.29.3.3 0 0 1 .25-.12l7 .87a.26.26 0 0 1 .1.49l-4.23 2.4a.27.27 0 0 1-.15 0zm-2.2-3.17a20.9 20.9 0 0 0 2.26 2.59l3.32-1.89z" fill="#4d4d4d"/><path d="M178.16 133h-.05a21.46 21.46 0 0 1-8.63-5 .26.26 0 0 1-.08-.22.26.26 0 0 1 .13-.2l4.17-2.37a.26.26 0 0 1 .35.09l4.35 7.32a.26.26 0 0 1-.25.39zm-8.07-5.15a21 21 0 0 0 7.51 4.44l-3.87-6.51zm51.77-8.95a.26.26 0 0 1-.18-.17l-8.06-24.53a.26.26 0 0 1 .35-.32l24.76 10.57a.26.26 0 0 1 .16.2.26.26 0 0 1-.09.24l-16.7 14a.27.27 0 0 1-.24.01zm-7.61-24.32l7.75 23.61 16.08-13.44z" fill="#4d4d4d"/><path d="M238.56 104.94h-.08l-24.76-10.59a.26.26 0 0 1 0-.49l18-4.06a.26.26 0 0 1 .29.15l6.74 14.62a.26.26 0 0 1-.26.37zm-23.9-10.75l23.39 10-6.37-13.82z" fill="#4d4d4d"/><path d="M229.93 121.36h-.05l-8.08-2.46a.27.27 0 0 1-.18-.2.26.26 0 0 1 .09-.25l16.7-14a.26.26 0 0 1 .4.32l-8.62 16.42a.26.26 0 0 1-.26.17zm-7.52-2.83l7.41 2.26 7.91-15.06z" fill="#4d4d4d"/><path d="M229.93 121.36a.25.25 0 0 1-.16-.08.25.25 0 0 1 0-.3l8.62-16.42a.27.27 0 0 1 .29-.13.26.26 0 0 1 .2.25l.12 12.15a.27.27 0 0 1-.15.24l-8.75 4.27a.25.25 0 0 1-.17.02zm8.39-15.64l-7.77 14.8 7.88-3.85z" fill="#4d4d4d"/><path d="M238.56 104.94a.26.26 0 0 1-.22-.15l-6.74-14.62a.26.26 0 0 1 0-.28l3.27-4a.25.25 0 0 1 .27-.09.26.26 0 0 1 .19.2l3.47 18.58a.26.26 0 0 1-.18.3zm-6.42-14.84l5.79 12.57-3-16z" fill="#4d4d4d"/><path d="M238.56 104.94h-.08a.26.26 0 0 1-.16-.19l-3.47-18.57a.26.26 0 0 1 .35-.29l19.53 7.45a.26.26 0 0 1 .17.21.26.26 0 0 1-.11.25l-16.06 11.1a.26.26 0 0 1-.17.04zm-3.11-18.43l3.31 17.72 15.32-10.61z" fill="#4d4d4d"/><path d="M238.68 117.1a.26.26 0 0 1-.24-.26l-.12-12.15a.26.26 0 0 1 .43-.2l15 13a.26.26 0 0 1 .07.3.26.26 0 0 1-.26.16l-14.86-.86zm.16-11.84l.12 11.33 13.86.8z" fill="#4d4d4d"/><path d="M253.54 118a.26.26 0 0 1-.15-.06l-15-13a.26.26 0 0 1-.09-.22.26.26 0 0 1 .13-.2L256 94.78a.26.26 0 0 1 .27 0 .26.26 0 0 1 .11.25l-1.6 14.34a.26.26 0 0 1-.12.19 7.16 7.16 0 0 1-1.94.86 13.5 13.5 0 0 1 1.63 2.49.26.26 0 0 1 0 .15l-.52 4.66a.26.26 0 0 1-.17.21zM239 104.73l14.33 12.44.46-4.09a13 13 0 0 0-1.8-2.64.26.26 0 0 1-.05-.26.26.26 0 0 1 .19-.17 6.57 6.57 0 0 0 2.08-.82l1.53-13.71z" fill="#4d4d4d"/><path d="M238.56 104.94a.26.26 0 0 1-.13-.48l16.06-11.13a.26.26 0 0 1 .33 0l1.47 1.45a.26.26 0 0 1-.06.41l-17.53 9.67a.26.26 0 0 1-.14.08zm16.05-11L243 102l12.72-7z" fill="#4d4d4d"/><path d="M254.48 109.6a.26.26 0 0 1-.24-.29l1.6-14.31a.26.26 0 0 1 .17-.22l1.1-.42a.26.26 0 0 1 .33.14 7.09 7.09 0 0 1-.13 6 7.06 7.06 0 0 1 .62 2.17 7.19 7.19 0 0 1-3.29 6.88.26.26 0 0 1-.16.05zm1.87-14.41l-1.52 13.61a6.66 6.66 0 0 0 2.59-6.06 6.51 6.51 0 0 0-.62-2.11.26.26 0 0 1 0-.23 6.57 6.57 0 0 0 .27-5.47zM253.54 118h-.07a.26.26 0 0 1-.17-.28l.52-4.66a.26.26 0 0 1 .21-.23.26.26 0 0 1 .28.14l.09.16a13.58 13.58 0 0 1 .86 2.25.26.26 0 0 1 0 .21l-1.45 2.29a.26.26 0 0 1-.27.12zm.7-4l-.29 2.62.78-1.24a13 13 0 0 0-.49-1.38z" fill="#4d4d4d"/><path d="M255 122.93a.26.26 0 0 1-.23-.19l-1.43-5a.25.25 0 0 1 0-.21l1.45-2.29a.27.27 0 0 1 .26-.12.26.26 0 0 1 .21.19 13.43 13.43 0 0 1 0 7.42.26.26 0 0 1-.25.19zm-1.13-5.2l1.13 3.93a12.89 12.89 0 0 0-.07-5.62zm2.21-22.46a.26.26 0 0 1-.22-.15.26.26 0 0 1 .11-.34l1-.58a.26.26 0 0 1 .21 0 .27.27 0 0 1 .16.14v.11a.34.34 0 0 1 0 .24.29.29 0 0 1-.14.17l-1.1.42zM155.39 60.15a.26.26 0 0 1-.06-.51l.19-.06.24-.08a19.73 19.73 0 0 1 2.11-2.18.26.26 0 0 1 .24-.06l3.76 1a.26.26 0 0 1 0 .51l-6.39 1.39zm2.72-2.35a19.08 19.08 0 0 0-1.56 1.57l4.13-.9z" fill="#4d4d4d"/><path d="M147 65.42a.26.26 0 0 1-.19-.11.26.26 0 0 1 0-.33 20 20 0 0 1 8.48-5.35l6.41-1.39a.26.26 0 0 1 .3.17.26.26 0 0 1-.14.32l-14.71 6.67a.27.27 0 0 1-.15.02zm12.42-6.15l-4 .86a19.39 19.39 0 0 0-7.2 4.19z" fill="#4d4d4d"/><circle cx="180.27" cy="76.61" r="1.83" transform="rotate(-85.36 180.275 76.613)" fill="#4d4d4d"/><path d="M180.08 79a2.35 2.35 0 1 1 2.53-2.15 2.35 2.35 0 0 1-2.53 2.15zm.3-3.64a1.3 1.3 0 1 0 1.2 1.41 1.31 1.31 0 0 0-1.2-1.46z" fill="#4d4d4d"/><circle cx="192.89" cy="62.16" r="1.83" transform="rotate(-85.36 192.875 62.166)" fill="#4d4d4d"/><path d="M192.7 64.51a2.35 2.35 0 1 1 2.53-2.15 2.35 2.35 0 0 1-2.53 2.15zm.3-3.64a1.31 1.31 0 1 0 1.2 1.41 1.31 1.31 0 0 0-1.2-1.42z" fill="#4d4d4d"/><circle cx="187.45" cy="58.71" r="1.17" transform="rotate(-85.36 187.453 58.711)" fill="#4d4d4d"/><path d="M187.31 60.4a1.7 1.7 0 1 1 1.83-1.55 1.7 1.7 0 0 1-1.83 1.55zm.19-2.34a.65.65 0 1 0 .6.7.65.65 0 0 0-.6-.7z" fill="#4d4d4d"/><circle cx="224.77" cy="60.3" r="1.44" transform="rotate(-85.36 224.76 60.305)" fill="#4d4d4d"/><path d="M224.61 62.25a2 2 0 1 1 2.11-1.79 2 2 0 0 1-2.11 1.79zm.23-2.86a.91.91 0 1 0 .84 1 .91.91 0 0 0-.84-1z" fill="#4d4d4d"/><circle cx="217.73" cy="59.58" r="1.83" transform="rotate(-85.36 217.736 59.577)" fill="#4d4d4d"/><path d="M217.54 61.92a2.35 2.35 0 1 1 2.53-2.15 2.35 2.35 0 0 1-2.53 2.15zm.29-3.64a1.31 1.31 0 1 0 1.2 1.41 1.31 1.31 0 0 0-1.19-1.41z" fill="#4d4d4d"/><circle cx="209.71" cy="70.09" r="1.83" transform="rotate(-85.36 209.7 70.097)" fill="#4d4d4d"/><path d="M209.52 72.44a2.35 2.35 0 1 1 2.53-2.15 2.35 2.35 0 0 1-2.53 2.15zm.3-3.64a1.3 1.3 0 1 0 1.18 1.4 1.31 1.31 0 0 0-1.18-1.41z" fill="#4d4d4d"/><circle cx="213.81" cy="93.61" r="1.83" transform="rotate(-85.36 213.796 93.607)" fill="#4d4d4d"/><path d="M213.62 95.95a2.35 2.35 0 1 1 2.53-2.15 2.35 2.35 0 0 1-2.53 2.15zm.29-3.64a1.31 1.31 0 1 0 1.2 1.41 1.31 1.31 0 0 0-1.2-1.41z" fill="#4d4d4d"/><circle cx="238.32" cy="104.5" r="1.83" transform="rotate(-85.36 238.336 104.498)" fill="#4d4d4d"/><path d="M238.13 106.84a2.35 2.35 0 1 1 2.53-2.15 2.35 2.35 0 0 1-2.53 2.15zm.3-3.64a1.31 1.31 0 1 0 1.2 1.41 1.31 1.31 0 0 0-1.2-1.41z" fill="#4d4d4d"/><circle cx="235.12" cy="86.43" r="1.83" transform="rotate(-85.36 235.135 86.427)" fill="#4d4d4d"/><path d="M234.93 88.77a2.35 2.35 0 1 1 2.53-2.15 2.35 2.35 0 0 1-2.53 2.15zm.3-3.64a1.31 1.31 0 1 0 1.19 1.41 1.31 1.31 0 0 0-1.19-1.41z" fill="#4d4d4d"/><circle cx="196.41" cy="86.74" r="1.83" transform="matrix(.08 -1 1 .08 94.07 275.49)" fill="#4d4d4d"/><path d="M196.22 89.08a2.35 2.35 0 1 1 2.53-2.15 2.35 2.35 0 0 1-2.53 2.15zm.3-3.64a1.31 1.31 0 1 0 1.19 1.41 1.31 1.31 0 0 0-1.2-1.41z" fill="#4d4d4d"/><circle cx="221.79" cy="70.86" r="1.83" transform="rotate(-85.36 221.794 70.854)" fill="#4d4d4d"/><path d="M221.6 73.2a2.35 2.35 0 1 1 2.53-2.2 2.35 2.35 0 0 1-2.53 2.2zm.3-3.64a1.31 1.31 0 1 0 1.2 1.41 1.31 1.31 0 0 0-1.21-1.41z" fill="#4d4d4d"/><circle cx="235.23" cy="62.59" r="1.57" transform="rotate(-85.36 235.224 62.59)" fill="#4d4d4d"/><path d="M235.06 64.67a2.09 2.09 0 1 1 2.25-1.91 2.09 2.09 0 0 1-2.25 1.91zm.25-3.12a1 1 0 1 0 1 1.12 1 1 0 0 0-1-1.12z" fill="#4d4d4d"/><circle cx="180.07" cy="52.55" r="1.83" transform="rotate(-85.36 180.078 52.543)" fill="#4d4d4d"/><path d="M179.88 54.89a2.35 2.35 0 1 1 2.53-2.15 2.35 2.35 0 0 1-2.53 2.15zm.3-3.64a1.3 1.3 0 1 0 1.2 1.41 1.31 1.31 0 0 0-1.21-1.41z" fill="#4d4d4d"/><circle cx="185.31" cy="70.26" r="1.83" transform="rotate(-85.36 185.3 70.26)" fill="#4d4d4d"/><path d="M185.12 72.6a2.35 2.35 0 1 1 2.53-2.15 2.35 2.35 0 0 1-2.53 2.15zm.3-3.64a1.31 1.31 0 1 0 1.19 1.41 1.31 1.31 0 0 0-1.2-1.37z" fill="#4d4d4d"/><circle cx="221.88" cy="118.64" r="1.83" transform="rotate(-85.36 221.862 118.643)" fill="#4d4d4d"/><path d="M221.69 121a2.35 2.35 0 1 1 2.53-2.15 2.35 2.35 0 0 1-2.53 2.15zm.3-3.64a1.31 1.31 0 1 0 1.19 1.41 1.31 1.31 0 0 0-1.18-1.43z" fill="#4d4d4d"/><circle cx="209.48" cy="119.73" r="1.83" transform="rotate(-85.37 209.478 119.73)" fill="#4d4d4d"/><path d="M209.29 122.07a2.35 2.35 0 1 1 2.53-2.15 2.35 2.35 0 0 1-2.53 2.15zm.3-3.64a1.31 1.31 0 1 0 1.19 1.41 1.31 1.31 0 0 0-1.19-1.41z" fill="#4d4d4d"/><circle cx="186.17" cy="122.65" r="1.83" transform="matrix(.08 -1 1 .08 48.84 298.28)" fill="#4d4d4d"/><path d="M186 125a2.35 2.35 0 1 1 2.53-2.15A2.35 2.35 0 0 1 186 125zm.3-3.64a1.3 1.3 0 1 0 1.2 1.41 1.31 1.31 0 0 0-1.23-1.42z" fill="#4d4d4d"/><circle cx="238.75" cy="116.84" r="1.83" transform="rotate(-85.35 238.77 116.838)" fill="#4d4d4d"/><path d="M238.56 119.18a2.35 2.35 0 1 1 2.53-2.15 2.35 2.35 0 0 1-2.53 2.15zm.29-3.64a1.31 1.31 0 1 0 1.2 1.41 1.31 1.31 0 0 0-1.19-1.41z" fill="#4d4d4d"/><circle cx="174.84" cy="113.88" r="1.83" transform="matrix(.08 -1 1 .08 47.18 278.92)" fill="#4d4d4d"/><path d="M174.65 116.22a2.35 2.35 0 1 1 2.53-2.15 2.35 2.35 0 0 1-2.53 2.15zm.3-3.64a1.31 1.31 0 1 0 1.19 1.41 1.31 1.31 0 0 0-1.2-1.41z" fill="#4d4d4d"/><circle cx="181.63" cy="107.23" r="1.83" transform="rotate(-85.36 181.636 107.224)" fill="#4d4d4d"/><path d="M181.44 109.57a2.35 2.35 0 1 1 2.53-2.15 2.35 2.35 0 0 1-2.53 2.15zm.3-3.64a1.31 1.31 0 1 0 1.19 1.41 1.31 1.31 0 0 0-1.2-1.41z" fill="#4d4d4d"/><circle cx="164.08" cy="93.24" r="1.83" transform="matrix(.08 -1 1 .08 57.88 249.24)" fill="#4d4d4d"/><path d="M163.89 95.58a2.35 2.35 0 1 1 2.53-2.15 2.35 2.35 0 0 1-2.53 2.15zm.3-3.64a1.31 1.31 0 1 0 1.19 1.41 1.31 1.31 0 0 0-1.19-1.41z" fill="#4d4d4d"/><circle cx="141.1" cy="94.69" r="1.83" transform="rotate(-85.35 141.104 94.687)" fill="#4d4d4d"/><path d="M140.91 97a2.35 2.35 0 1 1 2.53-2.15 2.35 2.35 0 0 1-2.53 2.15zm.3-3.64a1.3 1.3 0 1 0 1.2 1.41 1.31 1.31 0 0 0-1.21-1.38z" fill="#4d4d4d"/><circle cx="161.67" cy="58.47" r="1.83" transform="rotate(-85.36 161.668 58.472)" fill="#4d4d4d"/><path d="M161.48 60.82a2.35 2.35 0 1 1 2.52-2.15 2.35 2.35 0 0 1-2.52 2.15zm.3-3.64a1.3 1.3 0 1 0 1.2 1.41 1.31 1.31 0 0 0-1.21-1.42z" fill="#4d4d4d"/><g data-name="&lt;Groupe&gt;" fill="#4d4d4d"><path data-name="&lt;Tracé&gt;" d="M157.06 157.32v3.85h9.21a8.17 8.17 0 0 1-2.1 4.85 9.43 9.43 0 0 1-7.11 2.82 10.24 10.24 0 0 1 0-20.48 9.79 9.79 0 0 1 6.94 2.76l2.71-2.71a13.3 13.3 0 0 0-9.65-3.91 14.09 14.09 0 1 0 0 28.19 12.92 12.92 0 0 0 9.83-3.95 12.75 12.75 0 0 0 3.34-9 12.38 12.38 0 0 0-.2-2.41z"/><path data-name="&lt;Tracé transparent&gt;" d="M181.74 154.19a9.1 9.1 0 1 0 9.13 9.1 9 9 0 0 0-9.13-9.1zm0 14.61a5.53 5.53 0 1 1 5.14-5.51 5.26 5.26 0 0 1-5.14 5.51zm44.76-12.57h-.14a6.31 6.31 0 0 0-4.79-2 8.85 8.85 0 0 0-8.5 9.1c0 5.1 4 9.1 8.5 9.1a6.21 6.21 0 0 0 4.79-2.07h.14v1.27c0 3.48-1.86 5.34-4.85 5.34a5 5 0 0 1-4.59-3.24l-3.48 1.44a8.67 8.67 0 0 0 8.06 5.37c4.68 0 8.64-2.76 8.64-9.47v-16.41h-3.78zm-4.59 12.57c-2.76 0-4.85-2.35-4.85-5.51s2.1-5.51 4.85-5.51 4.85 2.35 4.85 5.54-2.13 5.48-4.85 5.48zm-19.81-14.61a9.1 9.1 0 1 0 9.13 9.1 9 9 0 0 0-9.13-9.1zm0 14.61a5.53 5.53 0 1 1 5.14-5.51 5.26 5.26 0 0 1-5.14 5.51z"/><path data-name="&lt;Tracé&gt;" d="M233.42 144.88h3.93v27.51h-3.93z"/><path data-name="&lt;Tracé transparent&gt;" d="M249.48 168.8a4.63 4.63 0 0 1-4.42-2.76l12.17-5-.41-1c-.75-2-3.07-5.79-7.78-5.79s-8.58 3.68-8.58 9.1a8.89 8.89 0 0 0 9 9.1 9.08 9.08 0 0 0 7.58-4L254 166.3a5.21 5.21 0 0 1-4.48 2.51zm-.28-11.2a3.6 3.6 0 0 1 3.44 2l-8.22 3.4c0-3.81 2.71-5.39 4.78-5.39z"/></g><path d="M172.91 185.52a10.83 10.83 0 0 1 2-.17 3.31 3.31 0 0 1 2.34.66 2 2 0 0 1 .64 1.54 2.12 2.12 0 0 1-1.52 2.06 2 2 0 0 1 1.19 1.63 12.88 12.88 0 0 0 .62 2.22h-1.08a10.46 10.46 0 0 1-.54-1.93c-.24-1.12-.67-1.54-1.62-1.57h-1v3.5h-1zm1 3.68H175c1.12 0 1.82-.61 1.82-1.54s-.76-1.5-1.86-1.51a4.3 4.3 0 0 0-1 .1zm6.82 1.8l-.84 2.54h-1.08l2.75-8.08h1.26l2.76 8.08h-1.12l-.86-2.54zm2.65-.82l-.79-2.33c-.18-.53-.3-1-.42-1.48-.12.48-.25 1-.41 1.46l-.79 2.34zm3.39 3.32v-8.08h1.14l2.59 4.09a23 23 0 0 1 1.45 2.63c-.1-1.08-.12-2.06-.12-3.32v-3.38h1v8.08h-1.06l-2.57-4.1a25.72 25.72 0 0 1-1.51-2.7c.06 1 .08 2 .08 3.33v3.45zm7.9-8.08h1v3.9c.22-.31.43-.6.64-.86l2.47-3h1.3l-2.93 3.43 3.15 4.65h-1.23l-2.66-4-.77.89v3.08h-1zm9.04.1a10.14 10.14 0 0 1 1.91-.17 3.34 3.34 0 0 1 2.22.59 1.69 1.69 0 0 1 .67 1.43 1.92 1.92 0 0 1-1.37 1.78 2.08 2.08 0 0 1 1.67 2 2.18 2.18 0 0 1-.68 1.62 4.06 4.06 0 0 1-2.79.76 12 12 0 0 1-1.62-.1zm1 3.31h.95c1.1 0 1.75-.58 1.75-1.36 0-.95-.72-1.32-1.78-1.32a4.45 4.45 0 0 0-.92.07zm0 3.87a5.54 5.54 0 0 0 .88 0c1.08 0 2.08-.4 2.08-1.57s-.95-1.56-2.09-1.56h-.86zm5.51-7.18a10.83 10.83 0 0 1 2-.17 3.31 3.31 0 0 1 2.34.66 2 2 0 0 1 .64 1.54 2.12 2.12 0 0 1-1.52 2.06 2 2 0 0 1 1.19 1.63 12.83 12.83 0 0 0 .62 2.22h-1.08a10.36 10.36 0 0 1-.54-1.93c-.24-1.12-.67-1.54-1.62-1.57h-1v3.5h-1zm1 3.68h1.07c1.12 0 1.82-.61 1.82-1.54s-.76-1.5-1.86-1.51a4.3 4.3 0 0 0-1 .1zM218 191l-.84 2.54h-1.08l2.75-8.08h1.26l2.76 8.08h-1.12l-.86-2.54zm2.65-.82l-.79-2.33c-.18-.53-.3-1-.42-1.48-.12.48-.25 1-.41 1.46l-.79 2.34zm4.47-4.76v8.08h-1v-8.08zm1.83 8.08v-8.08h1.14l2.59 4.09a23 23 0 0 1 1.45 2.63c-.1-1.08-.12-2.06-.12-3.32v-3.38h1v8.08H232l-2.57-4.1a25.82 25.82 0 0 1-1.51-2.7c.06 1 .08 2 .08 3.33v3.45z" fill="#4d4d4d"/></g></svg>