<svg xmlns="http://www.w3.org/2000/svg" viewBox="0 0 400 225"><defs><clipPath id="a"><path data-name="&lt;Masque&gt;" d="M166.05 126.84c-3.71 0-5.92-3-5.92-8.13 0-8.22 5.79-18.24 12.91-22.35a10.93 10.93 0 0 1 5.29-1.65c3.71 0 5.92 3 5.92 8.13 0 8.22-5.79 18.24-12.91 22.35a10.92 10.92 0 0 1-5.29 1.65z" fill="none"/></clipPath><clipPath id="b"><path data-name="&lt;Masque&gt;" d="M164.36 125.35c-3.71 0-5.92-3-5.92-8.13 0-8.22 5.79-18.24 12.91-22.35a10.93 10.93 0 0 1 5.29-1.65c3.71 0 5.92 3 5.92 8.13 0 8.22-5.79 18.24-12.91 22.35a10.92 10.92 0 0 1-5.29 1.65z" fill="none"/></clipPath><clipPath id="c"><path data-name="&lt;Masque transparent&gt;" d="M186.68 94.4l-3.44-2-27.5 15.88 3.44 2zm3.23.74L152.09 117v7.94l38.13-22zm-.8 10.42l-34.38 19.85 1.22 1 34.38-19.85z" fill="none"/></clipPath><clipPath id="d"><path data-name="&lt;Masque&gt;" d="M285.23 172c3.71 0 5.92-3 5.92-8.13 0-8.22-5.79-18.24-12.9-22.35a10.93 10.93 0 0 0-5.29-1.65c-3.71 0-5.92 3-5.92 8.13 0 8.22 5.79 18.24 12.91 22.35a10.92 10.92 0 0 0 5.29 1.65z" fill="none"/></clipPath><clipPath id="e"><path data-name="&lt;Masque&gt;" d="M286.92 170.52c3.71 0 5.92-3 5.92-8.13 0-8.22-5.79-18.24-12.9-22.35a10.93 10.93 0 0 0-5.29-1.65c-3.71 0-5.92 3-5.92 8.13 0 8.22 5.79 18.24 12.91 22.35a10.92 10.92 0 0 0 5.29 1.65z" fill="none"/></clipPath><clipPath id="f"><path data-name="&lt;Masque transparent&gt;" d="M292.11 155.44l3.44-2L268 137.58l-3.44 2zm-31.05-7.38l38.13 22v-7.94l-37.82-21.83zm-.09 3.66l34.38 19.85 1.22-1-34.38-19.85z" fill="none"/></clipPath></defs><path data-name="&lt;Rectangle&gt;" fill="#42baec" d="M0 0h400v225H0z"/><g data-name="&lt;Groupe&gt;"><path data-name="&lt;Tracé&gt;" d="M116.36 146.52c-43.16 15.87-43 41.63.25 57.54S230 220 273.28 204.1s43.12-41.65-.25-57.54-113.51-15.91-156.67-.04z" fill="#5fd0f2"/><g data-name="&lt;Groupe&gt;"><path data-name="&lt;Tracé transparent&gt;" d="M179.06 22.87l-2 1.4a7.1 7.1 0 0 0-3.24-3.27l.48-1.49 1.59-5-4.24-.32-3.4 6.39a14.18 14.18 0 0 0-2.5.81 19.53 19.53 0 0 0-3.11 1.67l-.12.08-1.78-4.08-5 4.44.26 5.5a42.19 42.19 0 0 0-4.84 6.87l-4.58.73-2.8 6.6 3.7 1.36a27.06 27.06 0 0 0-1.12 7.15l-4.69 5.1 1 4.9 3.77-2.71 1.22-.87a7.26 7.26 0 0 0 2.69 2.94 6.31 6.31 0 0 0 .58.31l-2.07 6.5 4.24.32 2-3.79 1.39-2.61a17.63 17.63 0 0 0 5.73-2.55l1.43 3.28.35.8 2.75-2.46 2.22-2-.16-4.87c-4.53 3.83-8.92 4.36-11.25 1.77-3.07.4-5.44-1.2-6.17-4.72-.06-.3 2.07-.19 2-.51a15.37 15.37 0 0 1 .55-4.19 26.18 26.18 0 0 1 3.18-8.11c1.5-2.69 2-4.66 4.23-6.66.16-.14-.94-1.43-.78-1.56 4.53-3.82 8.92-4.36 11.25-1.76 3.07-.4 5.44 1.2 6.17 4.72.06.31.11.62.15.94a23 23 0 0 0 .25-3.17l4.7-5.1-1-4.9zM175 46.34l3.23-.51 2.8-6.6-3-1.11a26.11 26.11 0 0 1-3.03 8.22z" fill="#dbf0fc"/><path data-name="&lt;Tracé&gt;" fill="#c3e5f4" d="M182.1 20.72l4.67 1.53-5.01 3.56-4.67-1.54 5.01-3.55zm-13.42 44.16l-4.66-1.54-1.78-4.07 4.67 1.53 1.77 4.08zm-17.75-3.49l5.58.43-2.98 7.6-4.66-1.53 2.06-6.5z"/><path data-name="&lt;Tracé transparent&gt;" d="M187.78 27.15l-1-4.9-3.78 2.69-1.22.87a7.24 7.24 0 0 0-2.69-2.94 5.52 5.52 0 0 0-.58-.31l2.06-6.49-4.24-.32-2 3.78-1.39 2.61a17.63 17.63 0 0 0-5.73 2.55l-1.43-3.28-.35-.8-2.76 2.46-2.21 2 .18 4.93v.55a42 42 0 0 0-4.84 6.87l-1.35.22-3.22.51-2.8 6.6 3 1.11.69.25a30 30 0 0 0-.86 4 22.92 22.92 0 0 0-.25 3.17l-4.69 5.1 1 4.9 3-2.16 2-1.4a7.13 7.13 0 0 0 3.27 3.25l-.48 1.49-1.59 5 4.24.33 3.4-6.4a14.17 14.17 0 0 0 2.5-.81 19.86 19.86 0 0 0 3.1-1.66l.13-.08 1.78 4.08 5-4.44-.2-5.48a42.15 42.15 0 0 0 4.84-6.86l4.58-.73 2.8-6.6-3.69-1.4a27 27 0 0 0 1.12-7.16zM175 46.34a28 28 0 0 1-5.69 7.21l-.48.41c-4.53 3.83-8.92 4.36-11.25 1.77a6.67 6.67 0 0 1-1.5-3.19c-1.24-6 2.67-15.2 8.74-20.61a13.78 13.78 0 0 1 7.06-3.71c3.07-.4 5.44 1.2 6.17 4.72.06.31.11.62.15.94a14.77 14.77 0 0 1-.17 4.24 26.11 26.11 0 0 1-3.03 8.22z" fill="#fff"/><path data-name="&lt;Tracé&gt;" d="M178 32.95c.06.31.11.62.15.94a14.77 14.77 0 0 1-.17 4.24 26.11 26.11 0 0 1-3 8.22 28 28 0 0 1-5.69 7.21l-.48.41c-4.53 3.83-8.92 4.36-11.25 1.77a13.78 13.78 0 0 0 7.06-3.74c6.07-5.41 10-14.64 8.75-20.61a6.69 6.69 0 0 0-1.51-3.19c3.07-.38 5.44 1.22 6.14 4.75z" fill="#c3e5f4"/><path data-name="&lt;Tracé&gt;" fill="#eefaff" d="M155.75 23.52l4.67 1.53 4.98-4.44-4.67-1.53-4.98 4.44zm-9.2 13.07l4.66 1.54-2.8 6.6-4.67-1.54 2.81-6.6zm-4.92 20.22l4.66 1.53 1.02 4.9-4.66-1.54-1.02-4.89zm34.68-41.07l-4.67-1.53 4.24.32 4.67 1.54-4.24-.33z"/><path data-name="&lt;Tracé&gt;" fill="#c3e5f4" d="M155.75 23.52l4.67 1.53.21 5.48-4.67-1.54-.21-5.47zm-9.2 13.07l4.58-.73 4.66 1.54-4.58.73-4.66-1.54zm-2.81 6.6l4.67 1.54 3.69 1.36-4.66-1.54-3.7-1.36zm2.59 8.51l4.66 1.54-4.7 5.1-4.66-1.53 4.7-5.11zm29.98-35.96l-4.67-1.53-3.4 6.39 4.67 1.54 3.4-6.4z"/></g><g data-name="&lt;Groupe&gt;"><path data-name="&lt;Tracé transparent&gt;" d="M139.34 31l-1.58 1.12a5.7 5.7 0 0 0-2.62-2.61l.38-1.2 1.28-4-3.4-.26-2.73 5.13a11.37 11.37 0 0 0-2 .65 15.67 15.67 0 0 0-2.5 1.34l-.1.06-1.43-3.27-4 3.56.17 4.39a33.84 33.84 0 0 0-3.88 5.51l-3.67.58-2.26 5.25 3 1.09a21.7 21.7 0 0 0-.9 5.74l-3.77 4.09.82 3.93 3-2.16 1-.7a5.83 5.83 0 0 0 2.16 2.35 5.07 5.07 0 0 0 .46.25l-1.66 5.21 3.4.26 1.62-3 1.11-2.09a14.14 14.14 0 0 0 4.6-2l1.16 2.56.28.64 2.21-2 1.78-1.59-.15-4c-3.64 3.07-7.16 3.5-9 1.42-2.46.32-4.36-1-4.95-3.79-.05-.24 1.66-.15 1.63-.41a12.33 12.33 0 0 1 .44-3.36 21 21 0 0 1 2.55-6.5c1.2-2.16 1.59-3.74 3.39-5.34.13-.11-.75-1.15-.63-1.26 3.64-3.06 7.16-3.5 9-1.42 2.46-.32 4.36 1 4.95 3.79.05.25.09.5.12.76a18.45 18.45 0 0 0 .2-2.54l3.77-4.09-.82-3.93zm-3.28 18.83l2.59-.41 2.25-5.3-2.41-.89a21 21 0 0 1-2.42 6.55z" fill="#dbf0fc"/><path data-name="&lt;Tracé&gt;" fill="#c3e5f4" d="M141.78 29.22l3.74 1.24-4.02 2.85-3.74-1.23 4.02-2.86zm-10.77 35.43l-3.74-1.23-1.42-3.27 3.74 1.23 1.42 3.27zm-14.23-2.8l4.47.35-2.39 6.1-3.74-1.24 1.66-5.21z"/><path data-name="&lt;Tracé transparent&gt;" d="M146.34 34.39l-.82-3.93-3 2.16-1 .7a5.81 5.81 0 0 0-2.18-2.32 4.44 4.44 0 0 0-.46-.25l1.65-5.21-3.4-.26-1.62 3-1.11 2.09a14.15 14.15 0 0 0-4.6 2l-1.15-2.63-.28-.64-2.22 2-1.78 1.59.15 4v.44a33.66 33.66 0 0 0-3.88 5.51l-1.09.17-2.59.41-2.25 5.3 2.41.89.55.2a24 24 0 0 0-.69 3.19 18.39 18.39 0 0 0-.2 2.54l-3.77 4.09.82 3.93 2.44-1.73 1.58-1.12a5.72 5.72 0 0 0 2.62 2.61l-.38 1.2-1.28 4 3.4.26 2.79-5.15a11.37 11.37 0 0 0 2-.65 15.94 15.94 0 0 0 2.49-1.33l.11-.06 1.4 3.26 4-3.56-.16-4.4a33.81 33.81 0 0 0 3.88-5.51l3.67-.58 2.25-5.3-3-1.09a21.67 21.67 0 0 0 .9-5.74zm-10.27 15.39a22.44 22.44 0 0 1-4.57 5.79l-.38.33c-3.64 3.07-7.16 3.5-9 1.42a5.35 5.35 0 0 1-1.2-2.56c-1-4.79 2.15-12.19 7-16.53a11.05 11.05 0 0 1 5.66-3c2.46-.32 4.36 1 4.95 3.79.05.25.09.5.12.76a11.85 11.85 0 0 1-.14 3.4 21 21 0 0 1-2.44 6.6z" fill="#fff"/><path data-name="&lt;Tracé&gt;" d="M138.51 39c.05.25.09.5.12.76a11.85 11.85 0 0 1-.14 3.4 21 21 0 0 1-2.42 6.59 22.44 22.44 0 0 1-4.57 5.79l-.38.33c-3.64 3.07-7.16 3.5-9 1.42a11.05 11.05 0 0 0 5.66-3c4.87-4.34 8-11.74 7-16.53a5.37 5.37 0 0 0-1.21-2.56c2.43-.28 4.35 1 4.94 3.8z" fill="#c3e5f4"/><path data-name="&lt;Tracé&gt;" fill="#eefaff" d="M120.64 31.47l3.75 1.23 3.99-3.56-3.74-1.23-4 3.56zm-7.38 10.49l3.74 1.23-2.25 5.3-3.74-1.24 2.25-5.29zm-3.95 16.21l3.75 1.24.81 3.93-3.74-1.24-.82-3.93zm27.82-32.93L133.39 24l3.4.26 3.74 1.24-3.4-.26z"/><path data-name="&lt;Tracé&gt;" fill="#c3e5f4" d="M120.64 31.47l3.75 1.23.16 4.4-3.74-1.23-.17-4.4zm-7.38 10.49l3.67-.58 3.74 1.23-3.67.58-3.74-1.23zm-2.25 5.29l3.74 1.24 2.97 1.09-3.75-1.24-2.96-1.09zm2.07 6.83l3.74 1.23-3.76 4.1-3.75-1.24 3.77-4.09zm24.05-28.84L133.39 24l-2.73 5.13 3.74 1.23 2.73-5.12z"/></g><g data-name="&lt;Groupe&gt;"><g data-name="&lt;Groupe&gt;"><g data-name="&lt;Groupe&gt;"><path data-name="&lt;Tracé transparent&gt;" d="M118.1 153.3c.2.92 13.39 7.44 13.39 7.44l21.51-12.4-12.5-7.22a.76.76 0 0 1-.37-.58l-1.73-11.33-17.61 10.57s-2.89 12.59-2.69 13.52z" fill="#e4eff2"/><path data-name="&lt;Tracé&gt;" d="M119.31 138.91l-2 14a1.59 1.59 0 0 0 .77 1.62l13.39 7.75v-1.55l-12.56-7.25a.53.53 0 0 1-.25-.56l2.07-13.15z" fill="#f4f8f9"/><path data-name="&lt;Tracé&gt;" fill="#fff" d="M131.49 162.28l21.47-12.39v-1.55l-21.47 12.39v1.55z"/></g><g data-name="&lt;Groupe&gt;"><path data-name="&lt;Tracé&gt;" d="M82.25 99.61v63.73c0 1.46 1 2.05 2.29 1.32l84-48.48a5.06 5.06 0 0 0 2.29-4V48.49c0-1.46-1-2.05-2.29-1.32l-84 48.48a5.06 5.06 0 0 0-2.29 3.96z" fill="#29607c"/><path data-name="&lt;Tracé&gt;" d="M82.26 160.2v3.13c0 1.46 1 2.05 2.29 1.32l84-48.48a5.06 5.06 0 0 0 2.29-4v-3.15z" fill="#fff"/></g><g data-name="&lt;Groupe&gt;"><path data-name="&lt;Tracé&gt;" d="M83.5 156.71V99a2 2 0 0 1 .92-1.59L168.3 49c.51-.29.92-.06.92.53v57.67a2 2 0 0 1-.92 1.59l-83.89 48.44c-.5.3-.91.06-.91-.52z" fill="#e1fbff"/><path data-name="&lt;Tracé&gt;" d="M83.5 156.23v.48c0 .58.41.82.91.53l83.89-48.45a2 2 0 0 0 .91-1.59V49.53c0-.59-.41-.82-.91-.53l-.6.34v57.2a2 2 0 0 1-.91 1.59z" fill="#4387b5"/></g><g data-name="&lt;Groupe&gt;"><path data-name="&lt;Tracé&gt;" d="M79.24 162.69a1.59 1.59 0 0 1-.68-1.48V158l3.69 2.2v3.13a1.67 1.67 0 0 0 .6 1.44z" fill="#f4f8f9"/><path data-name="&lt;Tracé&gt;" d="M170.11 47a1.63 1.63 0 0 0-1.6.17l-1.44.84-.49.28-82 47.36A4.54 4.54 0 0 0 83 97.24a4.76 4.76 0 0 0-.74 2.37v60.6l-3.7-2.21V97.47a4.7 4.7 0 0 1 .75-2.37 4.56 4.56 0 0 1 1.54-1.59L164.77 45a1.6 1.6 0 0 1 1.62-.16z" fill="#25485e"/><path data-name="&lt;Tracé&gt;" d="M82.86 164.78l-3.62-2.09a1.59 1.59 0 0 1-.68-1.48V97.47a4.7 4.7 0 0 1 .75-2.37L83 97.24a4.76 4.76 0 0 0-.74 2.37v63.73a1.67 1.67 0 0 0 .6 1.44z" fill="#e4eff2"/><path data-name="&lt;Tracé&gt;" d="M82.25 99.61v60.6L78.56 158V97.47a4.7 4.7 0 0 1 .75-2.37L83 97.24a4.76 4.76 0 0 0-.75 2.37z" fill="#283642"/></g></g><path data-name="&lt;Tracé&gt;" d="M164.11 56v53.67l-77.56 44.8v-53.68a3 3 0 0 1 1.36-2.35l74.84-43.21c.75-.43 1.36-.08 1.36.77z" fill="#fff"/><path data-name="&lt;Tracé&gt;" d="M164.11 56v2.11l-77.56 44.8v-2.11a3 3 0 0 1 1.36-2.35l74.84-43.21c.75-.44 1.36-.09 1.36.76z" fill="#c2bae2"/><path data-name="&lt;Tracé&gt;" fill="#fff" d="M91.86 97.08l65.87-38.03v1.83L91.86 98.92v-1.84z"/><g data-name="&lt;Groupe&gt;" fill="#68618e"><path data-name="&lt;Tracé&gt;" d="M88.4 98.87v.58l2.12-1.25v-.58l-2.12 1.25z"/><path d="M88.4 99.73v.58l2.12-1.25v-.58l-2.12 1.25z"/><path data-name="&lt;Tracé&gt;" d="M88.4 100.58v.59l2.12-1.25v-.58l-2.12 1.24z"/></g><g data-name="&lt;Groupe&gt;"><path data-name="&lt;Tracé&gt;" d="M159.15 58.4a1.49 1.49 0 0 0-.67 1.17c0 .43.3.6.67.39a1.49 1.49 0 0 0 .67-1.17c.01-.43-.3-.6-.67-.39z" fill="#31a362"/><path data-name="&lt;Tracé&gt;" d="M160.91 57.4a1.49 1.49 0 0 0-.67 1.17c0 .43.3.6.67.39a1.49 1.49 0 0 0 .67-1.17c0-.43-.3-.6-.67-.39z" fill="#ffe252"/><path data-name="&lt;Tracé&gt;" d="M162.67 56.41a1.49 1.49 0 0 0-.67 1.17c0 .43.3.6.67.39a1.49 1.49 0 0 0 .67-1.17c0-.43-.34-.61-.67-.39z" fill="#ff5050"/></g><g data-name="&lt;Groupe&gt;"><path data-name="&lt;Tracé&gt;" fill="#ff789b" d="M88.85 153.15v-43.83l20.12-11.61v43.78l-20.12 11.66zm-2.3-50.24v5.18l77.47-44.73.09-5.24-77.56 44.79z"/><path data-name="&lt;Tracé&gt;" fill="#fff" d="M157.73 63.34l-14.87 8.59v2.45l14.87-8.59v-2.45z"/><g data-name="&lt;Groupe&gt;" fill="#fff"><path data-name="&lt;Tracé&gt;" d="M159.64 62.33v.64l2.35-1.38v-.64l-2.35 1.38z"/><path d="M159.64 63.28v.64l2.35-1.38v-.64l-2.35 1.38z"/><path data-name="&lt;Tracé&gt;" d="M159.64 64.23v.64l2.35-1.38v-.64l-2.35 1.38z"/></g><path data-name="&lt;Tracé&gt;" fill="#fff" d="M91.86 110.88l14.88-8.59-.01.84-14.87 8.56v-.81zm3.02.71l11.87-6.83v.85l-11.88 6.79.01-.81zm0 1.65l11.87-6.9v.86l-11.88 6.85.01-.81zm-3.02.09v2.45l2.13-1.22v-2.46l-2.13 1.23zm3.02 3.17l11.87-6.84v.85l-11.88 6.81.01-.82zm0 1.64l11.87-6.89v.85l-11.88 6.85.01-.81zm-3.02.09v2.46l2.13-1.23V117l-2.13 1.23zm3.02 3.18l11.87-6.85v.85l-11.88 6.81.01-.81zm0 1.63l11.87-6.89v.85l-11.88 6.85.01-.81zm-3.02.09v2.46l2.13-1.23v-2.46l-2.13 1.23zm3.02 3.18l11.87-6.85v.85l-11.88 6.81.01-.81zm0 1.63l11.87-6.89v.85l-11.88 6.85.01-.81zm-3.02.09v2.46l2.13-1.23v-2.45l-2.13 1.22z"/><g data-name="&lt;Groupe&gt;"><path data-name="&lt;Tracé&gt;" d="M113.11 96.16v17.17l12.75-7.36V88.8l-12.75 7.36zm18.06-10.37v17.18l12.75-7.36V78.43l-12.75 7.36zm18.06-10.36v17.18l12.75-7.37V68.07l-12.75 7.36z" fill="#94dadd"/></g><g data-name="&lt;Groupe&gt;"><path data-name="&lt;Tracé&gt;" d="M113.11 115.78l12.75-7.36v.96l-12.75 7.36v-.96zm18.06-10.36l12.75-7.36v.96l-12.75 7.36v-.96zm18.06-10.36l12.75-7.36v.96l-12.75 7.36v-.96z" fill="#5f8baf"/></g><g data-name="&lt;Groupe&gt;"><path data-name="&lt;Tracé&gt;" d="M113.11 117.76l12.75-7.36v.96l-12.75 7.36v-.96zm18.06-10.37l12.75-7.36v.96l-12.75 7.36v-.96zm18.06-10.36l12.75-7.36v.96l-12.75 7.36v-.96z" fill="#5f8baf"/></g><g data-name="&lt;Groupe&gt;"><path data-name="&lt;Tracé&gt;" d="M113.11 120.69v17.18l12.75-7.37v-17.17l-12.75 7.36zm18.06-10.36v17.17l12.75-7.36v-17.17l-12.75 7.36zm18.06-10.36v17.17l12.75-7.36V92.61l-12.75 7.36z" fill="#94dadd"/></g></g></g><g data-name="&lt;Groupe&gt;"><path data-name="&lt;Tracé&gt;" fill="#ff8086" d="M161.98 146.45l8.5 4.91 8.5-4.91-8.5-4.9-8.5 4.9z"/><path data-name="&lt;Tracé&gt;" fill="#e2444c" d="M161.98 146.45v19.63l8.5 4.91v-19.63l-8.5-4.91z"/><path data-name="&lt;Tracé&gt;" fill="#ff5c5d" d="M170.48 170.99l8.5-4.91v-19.63l-8.5 4.91v19.63z"/></g><g data-name="&lt;Groupe&gt;"><g data-name="&lt;Groupe&gt;"><g data-name="&lt;Groupe&gt;"><path data-name="&lt;Tracé&gt;" d="M94.84 188.2v-43.46a2.3 2.3 0 0 1 1-1.8l15.8-9.12c.57-.33 1-.06 1 .6v43.46a2.3 2.3 0 0 1-1 1.8l-15.8 9.12c-.54.33-1 .06-1-.6z" fill="#29607c"/><path data-name="&lt;Tracé&gt;" d="M106 139.49l-2.9 1.71a.7.7 0 0 0-.35.52c0 .18.16.23.35.12l2.9-1.71a.7.7 0 0 0 .35-.52c-.03-.18-.18-.23-.35-.12zm-1.86-.37a.8.8 0 0 1-.36.63c-.2.12-.36 0-.36-.21a.8.8 0 0 1 .36-.63c.22-.12.36-.02.36.21zm-1.76 2.71a.62.62 0 0 1-.28.49c-.16.09-.28 0-.28-.16a.62.62 0 0 1 .28-.49c.15-.09.28-.01.28.16z" fill="#b0ecff"/></g><g data-name="&lt;Groupe&gt;"><path data-name="&lt;Tracé&gt;" d="M111.9 138.25v35.92a1.53 1.53 0 0 1-.69 1.2L96.35 184c-.38.22-.7 0-.7-.4v-35.97a1.53 1.53 0 0 1 .69-1.2l14.86-8.58.15-.07c.32-.1.55.09.55.47z" fill="#f5feff"/><path data-name="&lt;Tracé&gt;" d="M95.68 183.76c.08.28.35.37.66.19l14.86-8.58a1.53 1.53 0 0 0 .69-1.2v-35.92c0-.4-.25-.58-.57-.46a.64.64 0 0 1 0 .2v35.92a1.54 1.54 0 0 1-.69 1.2l-14.83 8.6z" fill="#4387b5"/></g><g data-name="&lt;Groupe&gt;"><path data-name="&lt;Tracé&gt;" d="M92.81 143.57V187a.71.71 0 0 0 .32.68l2 1.15a.72.72 0 0 1-.3-.66v-43.42a2.14 2.14 0 0 1 .3-1 2.18 2.18 0 0 1 .73-.78l15-8.64.24-.14.58-.34a.77.77 0 0 1 .7-.09l-2-1.16a.74.74 0 0 0-.73.08l-15.8 9.12a2.19 2.19 0 0 0-.74.78 2.14 2.14 0 0 0-.3.99z" fill="#25485e"/><path data-name="&lt;Tracé&gt;" d="M92.81 143.57V187a.71.71 0 0 0 .32.68l2 1.15a.72.72 0 0 1-.3-.66v-43.42a2.14 2.14 0 0 1 .3-1l-2-1.18a2.14 2.14 0 0 0-.32 1z" fill="#283642"/></g><g data-name="&lt;Groupe&gt;"><path data-name="&lt;Tracé&gt;" d="M107.26 134.65h.27l.08-.05 1.86-1.08a1.59 1.59 0 0 1 .82-.2h.56v.36c0 .15-.11.32-.35.45l-1.86 1.08a1.37 1.37 0 0 1-1.21.11.29.29 0 0 1-.17-.25z" fill="#283642"/><path data-name="&lt;Tracé&gt;" d="M107.6 134.23l1.86-1.08a1.37 1.37 0 0 1 1.21-.11c.28.16.2.47-.18.69l-1.86 1.08a1.37 1.37 0 0 1-1.21.11c-.28-.16-.2-.47.18-.69z" fill="#29607c"/></g></g><path data-name="&lt;Tracé&gt;" d="M104.59 180.35a2.47 2.47 0 0 0-1.12 1.94c0 .71.5 1 1.12.65a2.48 2.48 0 0 0 1.12-1.94c0-.71-.5-1-1.12-.65z" fill="none" stroke="#283642" stroke-miterlimit="10" stroke-width=".5"/><path data-name="&lt;Tracé&gt;" d="M94.42 147.43v2.27a.23.23 0 0 1 0 .14c0 .06-.13.07-.23 0l-.72-.41a.59.59 0 0 1-.27-.46v-2.27c0-.12 0-.18.13-.19a.2.2 0 0 1 .14 0l.72.41a.58.58 0 0 1 .23.51z" fill="#25485e"/><path data-name="&lt;Tracé&gt;" d="M94.42 147.43v2.27a.23.23 0 0 1 0 .14.2.2 0 0 1-.14 0l-.72-.41a.59.59 0 0 1-.26-.46v-2.27a.23.23 0 0 1 0-.14.2.2 0 0 1 .14 0l.72.41a.58.58 0 0 1 .26.46z" fill="#25485e"/><g data-name="&lt;Groupe&gt;"><path data-name="&lt;Tracé&gt;" fill="#283642" d="M93.3 146.57l-.17.1.17.04v-.14z"/><path data-name="&lt;Tracé&gt;" d="M93.83 147.1v2.23c0 .17-.12.23-.26.15l-.09-.05a.58.58 0 0 1-.26-.45v-2.23c0-.17.12-.23.26-.15l.09.05a.58.58 0 0 1 .26.45z" fill="#283642"/><path data-name="&lt;Tracé&gt;" fill="#283642" d="M93.75 149.5l-.16.09.05-.13.11.04z"/><path data-name="&lt;Tracé&gt;" d="M93.66 147.2v2.23c0 .17-.12.23-.26.15l-.09-.05a.58.58 0 0 1-.26-.45v-2.23c0-.17.12-.23.26-.15l.09.05a.58.58 0 0 1 .26.45z" fill="#29607c"/></g><path data-name="&lt;Tracé&gt;" d="M94 147.27v2.12a.21.21 0 0 0 .07.17s.07 0 .07-.08v-2.12a.21.21 0 0 0-.07-.17s-.07.01-.07.08z" fill="#7dff45"/><g data-name="&lt;Groupe&gt;"><path data-name="&lt;Tracé&gt;" d="M94.22 152.36a1 1 0 0 0-.44-.76.31.31 0 0 0-.31 0l-.22.13h.12a.41.41 0 0 0 0 .13 1 1 0 0 0 .44.76.42.42 0 0 0 .14 0v.11l.22-.12a.31.31 0 0 0 .05-.25z" fill="#1c2933"/><path data-name="&lt;Tracé&gt;" d="M93.12 152a1 1 0 0 0 .44.76c.24.14.44 0 .44-.25a1 1 0 0 0-.44-.76c-.24-.17-.44-.05-.44.25z" fill="#29607c"/><g data-name="&lt;Groupe&gt;"><g data-name="&lt;Groupe&gt;"><path data-name="&lt;Tracé&gt;" d="M93.56 152.55a.05.05 0 0 1-.06-.05v-.5a.06.06 0 0 1 .11 0v.53a.05.05 0 0 1-.05.02z" fill="#283642"/></g><g data-name="&lt;Groupe&gt;"><path data-name="&lt;Tracé&gt;" d="M93.79 152.42l-.46-.26a.06.06 0 0 1 .05-.1l.46.26a.06.06 0 0 1 0 .08.05.05 0 0 1-.05.02z" fill="#283642"/></g></g><g data-name="&lt;Groupe&gt;"><path data-name="&lt;Tracé&gt;" d="M94.22 155.55a1 1 0 0 0-.44-.76.31.31 0 0 0-.31 0l-.22.13h.12a.41.41 0 0 0 0 .13 1 1 0 0 0 .44.76.42.42 0 0 0 .14 0v.11l.22-.12a.31.31 0 0 0 .05-.25z" fill="#1c2933"/><path data-name="&lt;Tracé&gt;" d="M93.12 155.17a1 1 0 0 0 .44.76c.24.14.44 0 .44-.25a1 1 0 0 0-.44-.76c-.24-.15-.44-.03-.44.25z" fill="#29607c"/><g data-name="&lt;Groupe&gt;"><path data-name="&lt;Tracé&gt;" d="M93.79 155.61l-.46-.26a.06.06 0 0 1 0-.08.05.05 0 0 1 .07 0l.46.26a.06.06 0 0 1 0 .08.05.05 0 0 1-.07 0z" fill="#283642"/></g></g></g><g data-name="&lt;Groupe&gt;"><path data-name="&lt;Tracé&gt;" fill="#94dadd" d="M98.23 148.91l10.63-6.14v14.73l-10.63 6.13v-14.72z"/><path data-name="&lt;Tracé&gt;" d="M111.36 137.79v1.68l-15.7 9.06v-.9a1.53 1.53 0 0 1 .69-1.2l14.86-8.58z" fill="#ff789b"/><path data-name="&lt;Tracé&gt;" fill="#5f8baf" d="M98.24 165.3l10.73-6.26v.85l-10.74 6.2.01-.79zm0 1.86l10.73-6.27v.85l-10.74 6.2.01-.78zm0 1.85l10.73-6.26v.84l-10.74 6.2.01-.78zm0 7.16l10.73-6.26v.84l-10.74 6.2.01-.78zm0 1.86l10.73-6.27v.85l-10.74 6.2.01-.78zm0 1.85l10.73-6.26v.84l-10.74 6.2.01-.78z"/><path data-name="&lt;Tracé&gt;" d="M106.28 166.91l-5.47 3.14a1 1 0 0 0-.45.78v1.43c0 .29.2.41.45.26l5.47-3.16a1 1 0 0 0 .45-.78v-1.41c.01-.28-.2-.4-.45-.26z" fill="#ff789b"/></g></g><g data-name="&lt;Groupe&gt;"><g data-name="&lt;Groupe&gt;"><g data-name="&lt;Groupe&gt;"><g data-name="&lt;Groupe&gt;" fill="#f9b050"><path data-name="&lt;Tracé transparent&gt;" d="M175.8 167.71v-.65l1.12-.65v.65c1-.36 1.47.1 1.47 1.28v.27l-1.29.75V169c0-.62-.25-.71-.68-.46a1.31 1.31 0 0 0-.68 1.25c0 1.79 2.67.33 2.67 2.82a3.72 3.72 0 0 1-1.48 3v.63l-1.12.65v-.63c-1 .37-1.48-.1-1.48-1.28v-.6l1.29-.75v.68c0 .62.27.69.71.44a1.34 1.34 0 0 0 .71-1.25c0-1.79-2.67-.33-2.67-2.82a3.67 3.67 0 0 1 1.43-2.97z"/><path d="M175.74 167.67V167l1.12-.65v.65c1-.36 1.47.1 1.47 1.28v.27l-1.29.75v-.3c0-.62-.25-.71-.68-.46a1.31 1.31 0 0 0-.68 1.25c0 1.79 2.67.33 2.67 2.82a3.72 3.72 0 0 1-1.48 3v.63l-1.12.65v-.63c-1 .37-1.48-.1-1.48-1.28v-.6l1.29-.75v.68c0 .62.27.69.71.44a1.34 1.34 0 0 0 .71-1.25c0-1.79-2.67-.33-2.67-2.82a3.67 3.67 0 0 1 1.43-3.01z"/><path d="M175.67 167.63V167l1.12-.65v.65c1-.36 1.47.1 1.47 1.28v.27l-1.29.75v-.36c0-.62-.25-.71-.68-.46a1.31 1.31 0 0 0-.68 1.25c0 1.79 2.67.33 2.67 2.82a3.72 3.72 0 0 1-1.48 3v.63l-1.12.65v-.63c-1 .37-1.48-.1-1.48-1.28v-.6l1.29-.75v.68c0 .62.27.69.71.44a1.34 1.34 0 0 0 .71-1.25c0-1.79-2.67-.33-2.67-2.82a3.67 3.67 0 0 1 1.43-2.99z"/><path d="M175.61 167.6v-.65l1.12-.65v.7c1-.36 1.47.1 1.47 1.28v.27l-1.29.75v-.36c0-.62-.25-.71-.68-.46a1.31 1.31 0 0 0-.68 1.25c0 1.79 2.67.33 2.67 2.82a3.72 3.72 0 0 1-1.48 3v.63l-1.12.65v-.63c-1 .37-1.48-.1-1.48-1.28v-.6l1.29-.75v.68c0 .62.27.69.71.44a1.34 1.34 0 0 0 .71-1.25c0-1.79-2.67-.33-2.67-2.82a3.67 3.67 0 0 1 1.43-3.02z"/><path d="M175.54 167.56v-.65l1.12-.65v.65c1-.36 1.47.1 1.47 1.28v.27l-1.29.75v-.36c0-.62-.25-.71-.68-.46a1.31 1.31 0 0 0-.68 1.25c0 1.79 2.67.33 2.67 2.82a3.72 3.72 0 0 1-1.48 3v.63l-1.12.65v-.63c-1 .37-1.48-.1-1.48-1.28v-.6l1.29-.75v.68c0 .62.27.69.71.44a1.34 1.34 0 0 0 .71-1.25c0-1.79-2.67-.33-2.67-2.82a3.67 3.67 0 0 1 1.43-2.97z"/><path d="M175.48 167.52v-.65l1.12-.65v.65c1-.36 1.47.1 1.47 1.28v.27l-1.29.75v-.36c0-.62-.25-.71-.68-.46a1.31 1.31 0 0 0-.68 1.25c0 1.79 2.67.33 2.67 2.82a3.72 3.72 0 0 1-1.48 3v.58l-1.12.65v-.63c-1 .37-1.48-.1-1.48-1.28v-.6l1.29-.75v.68c0 .62.27.69.71.44a1.34 1.34 0 0 0 .71-1.25c0-1.79-2.67-.33-2.67-2.82a3.67 3.67 0 0 1 1.43-2.92z"/><path d="M175.41 167.48v-.65l1.12-.65v.65c1-.36 1.47.1 1.47 1.28v.27l-1.29.75v-.36c0-.62-.25-.71-.68-.46a1.31 1.31 0 0 0-.68 1.25c0 1.79 2.67.33 2.67 2.82a3.72 3.72 0 0 1-1.48 3v.62l-1.12.65V176c-1 .37-1.48-.1-1.48-1.28v-.6l1.29-.75v.68c0 .62.27.69.71.44a1.34 1.34 0 0 0 .71-1.25c0-1.79-2.67-.33-2.67-2.82a3.67 3.67 0 0 1 1.43-2.94z"/><path d="M175.35 167.45v-.65l1.12-.65v.65c1-.36 1.47.1 1.47 1.28v.27l-1.29.75v-.36c0-.62-.25-.71-.68-.46a1.31 1.31 0 0 0-.68 1.25c0 1.79 2.67.33 2.67 2.82a3.72 3.72 0 0 1-1.48 3v.65l-1.12.65V176c-1 .37-1.48-.1-1.48-1.28v-.6l1.29-.75v.63c0 .62.27.69.71.44a1.34 1.34 0 0 0 .71-1.25c0-1.79-2.67-.33-2.67-2.82a3.67 3.67 0 0 1 1.43-2.92z"/><path d="M175.28 167.41v-.65l1.12-.65v.65c1-.36 1.47.1 1.47 1.28v.27l-1.29.75v-.36c0-.62-.25-.71-.68-.46a1.31 1.31 0 0 0-.68 1.25c0 1.79 2.67.33 2.67 2.82a3.72 3.72 0 0 1-1.48 3v.63l-1.12.65v-.63c-1 .37-1.48-.1-1.48-1.28v-.6l1.29-.75v.67c0 .62.27.69.71.44a1.34 1.34 0 0 0 .71-1.25c0-1.79-2.67-.33-2.67-2.82a3.67 3.67 0 0 1 1.43-2.96z"/><path d="M175.22 167.37v-.65l1.12-.65v.65c1-.36 1.47.1 1.47 1.28v.27l-1.29.75v-.36c0-.62-.25-.71-.68-.46a1.31 1.31 0 0 0-.68 1.25c0 1.79 2.67.33 2.67 2.82a3.72 3.72 0 0 1-1.48 3v.63l-1.12.65v-.63c-1 .37-1.48-.1-1.48-1.28V174l1.29-.75v.75c0 .62.27.69.71.44a1.34 1.34 0 0 0 .71-1.25c0-1.79-2.67-.33-2.67-2.82a3.67 3.67 0 0 1 1.43-3z"/><path d="M175.15 167.33v-.65l1.12-.65v.65c1-.36 1.47.1 1.47 1.28v.27l-1.29.75v-.36c0-.62-.25-.71-.68-.46a1.31 1.31 0 0 0-.68 1.25c0 1.79 2.67.33 2.67 2.82a3.72 3.72 0 0 1-1.48 3v.63l-1.12.65v-.63c-1 .37-1.48-.1-1.48-1.28v-.6l1.29-.75v.68c0 .62.27.69.71.44a1.34 1.34 0 0 0 .71-1.25c0-1.79-2.67-.33-2.67-2.82a3.67 3.67 0 0 1 1.43-2.97z"/><path d="M175.09 167.29v-.65l1.12-.65v.65c1-.36 1.47.1 1.47 1.28v.27l-1.29.75v-.36c0-.62-.25-.71-.68-.46a1.31 1.31 0 0 0-.68 1.25c0 1.79 2.67.33 2.67 2.82a3.72 3.72 0 0 1-1.48 3v.63l-1.12.65v-.63c-1 .37-1.48-.1-1.48-1.28V174l1.29-.75v.68c0 .62.27.69.71.44a1.34 1.34 0 0 0 .71-1.25c0-1.79-2.67-.33-2.67-2.82a3.67 3.67 0 0 1 1.43-3.01z"/><path d="M175 167.26v-.65l1.12-.65v.65c1-.36 1.47.1 1.47 1.28v.27l-1.29.75v-.36c0-.62-.25-.71-.68-.46a1.31 1.31 0 0 0-.68 1.25c0 1.79 2.67.33 2.67 2.82a3.72 3.72 0 0 1-1.48 3v.63l-1.12.65v-.63c-1 .37-1.48-.1-1.48-1.28v-.6l1.29-.75v.68c0 .62.27.69.71.44a1.34 1.34 0 0 0 .71-1.25c0-1.79-2.67-.33-2.67-2.82a3.67 3.67 0 0 1 1.43-2.97z"/><path d="M175 167.22v-.65l1.12-.65v.65c1-.36 1.47.1 1.47 1.28v.27l-1.29.75v-.36c0-.62-.25-.71-.68-.46a1.31 1.31 0 0 0-.68 1.25c0 1.79 2.67.33 2.67 2.82a3.72 3.72 0 0 1-1.48 3v.63l-1.12.65v-.63c-1 .37-1.48-.1-1.48-1.28v-.6l1.29-.75v.68c0 .62.27.69.71.44a1.34 1.34 0 0 0 .71-1.25c0-1.79-2.67-.33-2.67-2.82a3.67 3.67 0 0 1 1.43-2.97z"/><path d="M174.89 167.18v-.65l1.12-.65v.65c1-.36 1.47.1 1.47 1.28v.27l-1.29.75v-.36c0-.62-.25-.71-.68-.46a1.31 1.31 0 0 0-.68 1.25c0 1.79 2.67.33 2.67 2.82a3.72 3.72 0 0 1-1.48 3v.63l-1.12.65v-.63c-1 .37-1.48-.1-1.48-1.28v-.6l1.29-.75v.68c0 .62.27.69.71.44a1.34 1.34 0 0 0 .71-1.25c0-1.79-2.67-.33-2.67-2.82a3.67 3.67 0 0 1 1.43-2.97z"/><path d="M174.83 167.14v-.65l1.12-.65v.65c1-.36 1.47.1 1.47 1.28v.27l-1.29.75v-.36c0-.62-.25-.71-.68-.46a1.31 1.31 0 0 0-.68 1.25c0 1.79 2.67.33 2.67 2.82a3.72 3.72 0 0 1-1.48 3v.63l-1.12.65v-.63c-1 .37-1.48-.1-1.48-1.28v-.6l1.29-.75v.68c0 .62.27.69.71.44a1.34 1.34 0 0 0 .71-1.25c0-1.79-2.67-.33-2.67-2.82a3.67 3.67 0 0 1 1.43-2.97z"/><path d="M174.76 167.11v-.65l1.12-.65v.65c1-.36 1.47.1 1.47 1.28v.26l-1.29.75v-.36c0-.62-.25-.71-.68-.46a1.31 1.31 0 0 0-.68 1.25c0 1.79 2.67.33 2.67 2.82a3.72 3.72 0 0 1-1.48 3v.63l-1.12.65v-.63c-1 .37-1.48-.1-1.48-1.28v-.6l1.29-.75v.68c0 .62.27.69.71.44a1.34 1.34 0 0 0 .71-1.25c0-1.79-2.67-.33-2.67-2.82a3.67 3.67 0 0 1 1.43-2.96z"/><path d="M174.7 167.07v-.65l1.12-.65v.65c1-.36 1.47.1 1.47 1.28v.3l-1.29.75v-.36c0-.62-.25-.71-.68-.46a1.31 1.31 0 0 0-.68 1.25c0 1.79 2.67.33 2.67 2.82a3.72 3.72 0 0 1-1.48 3v.63l-1.12.65v-.63c-1 .37-1.48-.1-1.48-1.28v-.6l1.29-.75v.68c0 .62.27.69.71.44a1.34 1.34 0 0 0 .71-1.25c0-1.79-2.67-.33-2.67-2.82a3.67 3.67 0 0 1 1.43-3z"/><path d="M174.63 167v-.65l1.12-.65v.65c1-.36 1.47.1 1.47 1.28v.27l-1.29.75v-.36c0-.62-.25-.71-.68-.46a1.31 1.31 0 0 0-.68 1.25c0 1.79 2.67.33 2.67 2.82a3.72 3.72 0 0 1-1.48 3v.63l-1.12.65v-.63c-1 .37-1.48-.1-1.48-1.28v-.6l1.29-.75v.68c0 .62.27.69.71.44a1.34 1.34 0 0 0 .71-1.25c0-1.79-2.67-.33-2.67-2.82a3.67 3.67 0 0 1 1.43-2.97z"/><path d="M174.57 167v-.65l1.12-.65v.65c1-.36 1.47.1 1.47 1.28v.27l-1.29.75v-.36c0-.62-.25-.71-.68-.46a1.31 1.31 0 0 0-.68 1.25c0 1.79 2.67.33 2.67 2.82a3.72 3.72 0 0 1-1.48 3v.63l-1.12.65v-.63c-1 .37-1.48-.1-1.48-1.28v-.6l1.29-.75v.68c0 .62.27.69.71.44a1.34 1.34 0 0 0 .71-1.25c0-1.79-2.67-.33-2.67-2.82a3.67 3.67 0 0 1 1.43-2.97z"/><path d="M174.5 167v-.65l1.12-.65v.65c1-.36 1.47.1 1.47 1.28v.27l-1.29.75v-.36c0-.62-.25-.71-.68-.46a1.31 1.31 0 0 0-.68 1.25c0 1.79 2.67.33 2.67 2.82a3.72 3.72 0 0 1-1.48 3v.63l-1.12.65v-.63c-1 .37-1.48-.1-1.48-1.28v-.6l1.29-.75v.68c0 .62.27.69.71.44a1.34 1.34 0 0 0 .71-1.25c0-1.79-2.67-.33-2.67-2.82a3.67 3.67 0 0 1 1.43-2.97z"/><path d="M174.44 166.92v-.65l1.12-.65v.65c1-.36 1.47.1 1.47 1.28v.27l-1.29.75v-.36c0-.62-.25-.71-.68-.46a1.31 1.31 0 0 0-.68 1.25c0 1.79 2.67.33 2.67 2.82a3.72 3.72 0 0 1-1.48 3v.63l-1.12.65v-.63c-1 .37-1.48-.1-1.48-1.28v-.6l1.29-.75v.68c0 .62.27.69.71.44a1.34 1.34 0 0 0 .71-1.25c0-1.79-2.67-.33-2.67-2.82a3.67 3.67 0 0 1 1.43-2.97z"/><path d="M174.37 166.88v-.65l1.12-.65v.65c1-.36 1.47.1 1.47 1.28v.27l-1.29.75v-.36c0-.62-.25-.71-.68-.46a1.31 1.31 0 0 0-.68 1.25c0 1.79 2.67.33 2.67 2.82a3.72 3.72 0 0 1-1.48 3v.63l-1.12.65v-.63c-1 .37-1.48-.1-1.48-1.28v-.6l1.29-.75v.68c0 .62.27.69.71.44a1.34 1.34 0 0 0 .71-1.25c0-1.79-2.67-.33-2.67-2.82a3.67 3.67 0 0 1 1.43-2.97z"/><path d="M174.31 166.84v-.65l1.12-.65v.65c1-.36 1.47.1 1.47 1.28v.27l-1.29.75v-.36c0-.62-.25-.71-.68-.46a1.31 1.31 0 0 0-.68 1.25c0 1.79 2.67.33 2.67 2.82a3.72 3.72 0 0 1-1.48 3v.63l-1.12.65v-.63c-1 .37-1.48-.1-1.48-1.28v-.6l1.29-.75v.68c0 .62.27.69.71.44a1.34 1.34 0 0 0 .71-1.25c0-1.79-2.67-.33-2.67-2.82a3.67 3.67 0 0 1 1.43-2.97z"/><path d="M174.24 166.81v-.65l1.12-.65v.65c1-.36 1.47.1 1.47 1.28v.27l-1.29.75v-.36c0-.62-.25-.71-.68-.46a1.31 1.31 0 0 0-.68 1.25c0 1.79 2.67.33 2.67 2.82a3.72 3.72 0 0 1-1.48 3v.63l-1.12.65v-.63c-1 .37-1.48-.1-1.48-1.28v-.6l1.29-.75v.68c0 .62.27.69.71.44a1.34 1.34 0 0 0 .71-1.25c0-1.79-2.67-.33-2.67-2.82a3.67 3.67 0 0 1 1.43-2.97z"/><path d="M174.18 166.77v-.65l1.12-.65v.65c1-.36 1.47.1 1.47 1.28v.27l-1.29.75v-.36c0-.62-.25-.71-.68-.46a1.31 1.31 0 0 0-.68 1.25c0 1.79 2.67.33 2.67 2.82a3.72 3.72 0 0 1-1.48 3v.63l-1.12.65v-.63c-1 .37-1.48-.1-1.48-1.28v-.6l1.29-.75v.68c0 .62.27.69.71.44a1.34 1.34 0 0 0 .71-1.25c0-1.79-2.67-.33-2.67-2.82a3.67 3.67 0 0 1 1.43-2.97z"/><path d="M174.11 166.73v-.65l1.12-.65v.65c1-.36 1.47.1 1.47 1.28v.27l-1.29.75V168c0-.62-.25-.71-.68-.46a1.31 1.31 0 0 0-.68 1.25c0 1.79 2.67.33 2.67 2.82a3.72 3.72 0 0 1-1.48 3v.63l-1.12.65v-.63c-1 .37-1.48-.1-1.48-1.28v-.6l1.29-.75v.68c0 .62.27.69.71.44a1.34 1.34 0 0 0 .71-1.25c0-1.79-2.67-.33-2.67-2.82a3.67 3.67 0 0 1 1.43-2.95z"/><path d="M174 166.69V166l1.12-.65v.65c1-.36 1.47.1 1.47 1.28v.27l-1.29.75v-.3c0-.62-.25-.71-.68-.46a1.31 1.31 0 0 0-.68 1.25c0 1.79 2.67.33 2.67 2.82a3.72 3.72 0 0 1-1.48 3v.63l-1.12.65v-.63c-1 .37-1.48-.1-1.48-1.28v-.6l1.29-.75v.68c0 .62.27.69.71.44a1.34 1.34 0 0 0 .71-1.25c0-1.79-2.67-.33-2.67-2.82a3.67 3.67 0 0 1 1.43-2.99z"/><path d="M174 166.65V166l1.12-.65v.65c1-.36 1.47.1 1.47 1.28v.27l-1.29.75v-.36c0-.62-.25-.71-.68-.46a1.31 1.31 0 0 0-.68 1.25c0 1.79 2.67.33 2.67 2.82a3.72 3.72 0 0 1-1.48 3v.63l-1.12.65v-.63c-1 .37-1.48-.1-1.48-1.28v-.6l1.29-.75v.68c0 .62.27.69.71.44a1.34 1.34 0 0 0 .71-1.25c0-1.79-2.67-.33-2.67-2.82a3.67 3.67 0 0 1 1.43-2.97z"/><path d="M173.91 166.62V166l1.12-.65v.65c1-.36 1.47.1 1.47 1.28v.27l-1.29.75v-.36c0-.62-.25-.71-.68-.46a1.31 1.31 0 0 0-.68 1.25c0 1.79 2.67.33 2.67 2.82a3.72 3.72 0 0 1-1.48 3v.63l-1.12.65v-.63c-1 .37-1.48-.1-1.48-1.28v-.6l1.29-.75v.68c0 .62.27.69.71.44a1.34 1.34 0 0 0 .71-1.25c0-1.79-2.67-.33-2.67-2.82a3.67 3.67 0 0 1 1.43-3z"/><path d="M173.85 166.58v-.65l1.12-.65v.65c1-.36 1.47.1 1.47 1.28v.27l-1.29.75v-.36c0-.62-.25-.71-.68-.46a1.31 1.31 0 0 0-.68 1.25c0 1.79 2.67.33 2.67 2.82a3.72 3.72 0 0 1-1.48 3v.63l-1.12.65v-.63c-1 .37-1.48-.1-1.48-1.28v-.6l1.29-.75v.68c0 .62.27.69.71.44a1.34 1.34 0 0 0 .71-1.25c0-1.79-2.67-.33-2.67-2.82a3.67 3.67 0 0 1 1.43-2.97z"/><path data-name="&lt;Tracé transparent&gt;" d="M173.78 166.54v-.65l1.12-.65v.65c1-.36 1.47.1 1.47 1.28v.27l-1.29.75v-.36c0-.62-.25-.71-.68-.46a1.31 1.31 0 0 0-.68 1.25c0 1.79 2.67.33 2.67 2.82a3.72 3.72 0 0 1-1.48 3v.63l-1.12.65v-.63c-1 .37-1.48-.1-1.48-1.28v-.6l1.29-.75v.68c0 .62.27.69.71.44a1.34 1.34 0 0 0 .71-1.25c0-1.79-2.67-.33-2.67-2.82a3.67 3.67 0 0 1 1.43-2.97z"/></g><path data-name="&lt;Tracé&gt;" fill="#ffe780" d="M175.81 167.06l-2.03-1.16 1.12-.65 2.02 1.17-1.11.64z"/><path data-name="&lt;Tracé&gt;" d="M177.1 169.36l-1-.58s.44-.39.73-.38.28.52.27.96z" fill="#ed9303"/><path data-name="&lt;Tracé&gt;" fill="#ffe780" d="M175.62 173.62l-2.02-1.16-1.29.74 2.02 1.17 1.29-.75z"/><path data-name="&lt;Tracé&gt;" d="M175.8 176.88l-2-1.17s1 .59 1.11.64a1.15 1.15 0 0 0 .91-.06z" fill="#ed9303"/></g><g data-name="&lt;Groupe&gt;"><path data-name="&lt;Tracé transparent&gt;" d="M175.8 167.71v-.65l1.12-.65v.65c1-.36 1.47.1 1.47 1.28v.27l-1.29.75V169c0-.62-.25-.71-.68-.46a1.31 1.31 0 0 0-.68 1.25c0 1.79 2.67.33 2.67 2.82a3.72 3.72 0 0 1-1.48 3v.63l-1.12.65v-.63c-1 .37-1.48-.1-1.48-1.28v-.6l1.29-.75v.68c0 .62.27.69.71.44a1.34 1.34 0 0 0 .71-1.25c0-1.79-2.67-.33-2.67-2.82a3.67 3.67 0 0 1 1.43-2.97z" fill="#fcdd5b"/></g></g><g data-name="&lt;Groupe&gt;"><g data-name="&lt;Groupe&gt;"><g data-name="&lt;Groupe&gt;" fill="#f9b050"><path data-name="&lt;Tracé transparent&gt;" d="M181.86 164.21v-.65l1.12-.65v.65c1-.36 1.47.1 1.47 1.28v.27l-1.29.75v-.36c0-.62-.25-.71-.68-.46a1.31 1.31 0 0 0-.68 1.25c0 1.79 2.67.33 2.67 2.82a3.72 3.72 0 0 1-1.48 3v.63l-1.12.65v-.63c-1 .37-1.48-.1-1.48-1.28v-.6l1.29-.75v.68c0 .62.27.69.71.44a1.34 1.34 0 0 0 .71-1.25c0-1.79-2.67-.33-2.67-2.82a3.67 3.67 0 0 1 1.43-2.97z"/><path d="M181.8 164.17v-.65l1.12-.65v.65c1-.36 1.47.1 1.47 1.28v.27l-1.29.75v-.36c0-.62-.25-.71-.68-.46a1.31 1.31 0 0 0-.68 1.25c0 1.79 2.67.33 2.67 2.82a3.72 3.72 0 0 1-1.48 3v.63l-1.12.65v-.63c-1 .37-1.48-.1-1.48-1.28v-.6l1.29-.75v.68c0 .62.27.69.71.44A1.34 1.34 0 0 0 183 170c0-1.79-2.67-.33-2.67-2.82a3.67 3.67 0 0 1 1.47-3.01z"/><path d="M181.73 164.13v-.65l1.12-.65v.65c1-.36 1.47.1 1.47 1.28v.24l-1.29.75v-.36c0-.62-.25-.71-.68-.46a1.31 1.31 0 0 0-.68 1.25c0 1.79 2.67.33 2.67 2.82a3.72 3.72 0 0 1-1.48 3v.63l-1.12.65v-.63c-1 .37-1.48-.1-1.48-1.28v-.6l1.29-.75v.68c0 .62.27.69.71.44a1.34 1.34 0 0 0 .71-1.25c0-1.79-2.67-.33-2.67-2.82a3.67 3.67 0 0 1 1.43-2.94z"/><path d="M181.67 164.1v-.65l1.12-.65v.65c1-.36 1.47.1 1.47 1.28v.27l-1.29.75v-.36c0-.62-.25-.71-.68-.46a1.31 1.31 0 0 0-.68 1.25c0 1.79 2.67.33 2.67 2.82a3.72 3.72 0 0 1-1.48 3v.63l-1.12.65v-.63c-1 .37-1.48-.1-1.48-1.28v-.6l1.29-.75v.68c0 .62.27.69.71.44a1.34 1.34 0 0 0 .71-1.25c0-1.79-2.67-.33-2.67-2.82a3.67 3.67 0 0 1 1.43-2.97z"/><path d="M181.6 164.06v-.65l1.12-.65v.65c1-.36 1.47.1 1.47 1.28v.31l-1.29.75v-.36c0-.62-.25-.71-.68-.46a1.31 1.31 0 0 0-.68 1.25c0 1.79 2.67.33 2.67 2.82a3.72 3.72 0 0 1-1.48 3v.63l-1.12.65v-.63c-1 .37-1.48-.1-1.48-1.28v-.6l1.29-.75v.68c0 .62.27.69.71.44a1.34 1.34 0 0 0 .71-1.25c0-1.79-2.67-.33-2.67-2.82a3.67 3.67 0 0 1 1.43-3.01z"/><path d="M181.54 164v-.65l1.12-.65v.65c1-.36 1.47.1 1.47 1.28v.27l-1.29.75v-.36c0-.62-.25-.71-.68-.46a1.31 1.31 0 0 0-.68 1.25c0 1.79 2.67.33 2.67 2.82a3.72 3.72 0 0 1-1.48 3v.63l-1.12.65v-.63c-1 .37-1.48-.1-1.48-1.28v-.6l1.29-.75v.68c0 .62.27.69.71.44a1.34 1.34 0 0 0 .71-1.25c0-1.79-2.67-.33-2.67-2.82a3.67 3.67 0 0 1 1.43-2.97z"/><path d="M181.47 164v-.65l1.12-.65v.65c1-.36 1.47.1 1.47 1.28v.27l-1.29.75v-.36c0-.62-.25-.71-.68-.46a1.31 1.31 0 0 0-.68 1.25c0 1.79 2.67.33 2.67 2.82a3.72 3.72 0 0 1-1.48 3v.63l-1.12.65v-.63c-1 .37-1.48-.1-1.48-1.28v-.6l1.29-.75v.68c0 .62.27.69.71.44a1.34 1.34 0 0 0 .71-1.25c0-1.79-2.67-.33-2.67-2.82a3.67 3.67 0 0 1 1.43-2.97z"/><path d="M181.41 163.95v-.65l1.12-.65v.65c1-.36 1.47.1 1.47 1.28v.27l-1.29.75v-.36c0-.62-.25-.71-.68-.46a1.31 1.31 0 0 0-.68 1.25c0 1.79 2.67.33 2.67 2.82a3.72 3.72 0 0 1-1.48 3v.63l-1.12.65v-.63c-1 .37-1.48-.1-1.48-1.28v-.6l1.29-.75v.68c0 .62.27.69.71.44a1.34 1.34 0 0 0 .71-1.25c0-1.79-2.67-.33-2.67-2.82a3.67 3.67 0 0 1 1.43-2.97z"/><path d="M181.34 163.91v-.65l1.12-.65v.65c1-.36 1.47.1 1.47 1.28v.27l-1.29.75v-.36c0-.62-.25-.71-.68-.46a1.31 1.31 0 0 0-.68 1.25c0 1.79 2.67.33 2.67 2.82a3.72 3.72 0 0 1-1.48 3v.63l-1.12.65v-.63c-1 .37-1.48-.1-1.48-1.28v-.6l1.29-.75v.68c0 .62.27.69.71.44a1.34 1.34 0 0 0 .71-1.25c0-1.79-2.67-.33-2.67-2.82a3.67 3.67 0 0 1 1.43-2.97z"/><path d="M181.28 163.87v-.65l1.12-.65v.65c1-.36 1.47.1 1.47 1.28v.27l-1.29.75v-.36c0-.62-.25-.71-.68-.46a1.31 1.31 0 0 0-.68 1.25c0 1.79 2.67.33 2.67 2.82a3.72 3.72 0 0 1-1.48 3v.63l-1.12.65v-.63c-1 .37-1.48-.1-1.48-1.28v-.6l1.29-.75v.68c0 .62.27.69.71.44a1.34 1.34 0 0 0 .71-1.25c0-1.79-2.67-.33-2.67-2.82a3.67 3.67 0 0 1 1.43-2.97z"/><path d="M181.21 163.83v-.65l1.12-.65v.65c1-.36 1.47.1 1.47 1.28v.27l-1.29.75v-.36c0-.62-.25-.71-.68-.46a1.31 1.31 0 0 0-.68 1.25c0 1.79 2.67.33 2.67 2.82a3.72 3.72 0 0 1-1.48 3v.63l-1.12.65v-.63c-1 .37-1.48-.1-1.48-1.28v-.6l1.29-.75v.68c0 .62.27.69.71.44a1.34 1.34 0 0 0 .71-1.25c0-1.79-2.67-.33-2.67-2.82a3.67 3.67 0 0 1 1.43-2.97z"/><path d="M181.15 163.8v-.65l1.12-.65v.65c1-.36 1.47.1 1.47 1.28v.27l-1.29.75v-.36c0-.62-.25-.71-.68-.46a1.31 1.31 0 0 0-.68 1.25c0 1.79 2.67.33 2.67 2.82a3.72 3.72 0 0 1-1.48 3v.63l-1.12.65v-.63c-1 .37-1.48-.1-1.48-1.28v-.6l1.29-.75v.68c0 .62.27.69.71.44a1.34 1.34 0 0 0 .71-1.25c0-1.79-2.67-.33-2.67-2.82a3.67 3.67 0 0 1 1.43-2.97z"/><path d="M181.08 163.76v-.65l1.12-.65v.65c1-.36 1.47.1 1.47 1.28v.27l-1.29.75v-.36c0-.62-.25-.71-.68-.46a1.31 1.31 0 0 0-.68 1.25c0 1.79 2.67.33 2.67 2.82a3.72 3.72 0 0 1-1.48 3v.63l-1.12.65v-.63c-1 .37-1.48-.1-1.48-1.28v-.6l1.29-.75v.68c0 .62.27.69.71.44a1.34 1.34 0 0 0 .71-1.25c0-1.79-2.67-.33-2.67-2.82a3.67 3.67 0 0 1 1.43-2.97z"/><path d="M181 163.72v-.65l1.12-.65v.65c1-.36 1.47.1 1.47 1.28v.27l-1.29.75V165c0-.62-.25-.71-.68-.46a1.31 1.31 0 0 0-.68 1.25c0 1.79 2.67.33 2.67 2.82a3.72 3.72 0 0 1-1.48 3v.63l-1.12.65v-.63c-1 .37-1.48-.1-1.48-1.28v-.6l1.29-.75v.68c0 .62.27.69.71.44a1.34 1.34 0 0 0 .71-1.25c0-1.79-2.67-.33-2.67-2.82a3.67 3.67 0 0 1 1.43-2.96z"/><path d="M181 163.68V163l1.12-.65v.65c1-.36 1.47.1 1.47 1.28v.27l-1.29.75v-.3c0-.62-.25-.71-.68-.46a1.31 1.31 0 0 0-.68 1.25c0 1.79 2.67.33 2.67 2.82a3.72 3.72 0 0 1-1.48 3v.63l-1.12.65v-.63c-1 .37-1.48-.1-1.48-1.28v-.6l1.29-.75v.68c0 .62.27.69.71.44a1.34 1.34 0 0 0 .71-1.25c0-1.79-2.67-.33-2.67-2.82a3.67 3.67 0 0 1 1.43-3z"/><path d="M180.89 163.64V163l1.12-.65v.65c1-.36 1.47.1 1.47 1.28v.27l-1.29.75v-.36c0-.62-.25-.71-.68-.46a1.31 1.31 0 0 0-.68 1.25c0 1.79 2.67.33 2.67 2.82a3.72 3.72 0 0 1-1.48 3v.63l-1.12.65v-.63c-1 .37-1.48-.1-1.48-1.28v-.6l1.29-.75v.68c0 .62.27.69.71.44a1.34 1.34 0 0 0 .71-1.25c0-1.79-2.67-.33-2.67-2.82a3.67 3.67 0 0 1 1.43-2.98z"/><path d="M180.82 163.61V163l1.12-.65v.65c1-.36 1.47.1 1.47 1.28v.27l-1.29.75v-.36c0-.62-.25-.71-.68-.46a1.31 1.31 0 0 0-.68 1.25c0 1.79 2.67.33 2.67 2.82a3.72 3.72 0 0 1-1.48 3v.63l-1.12.65v-.63c-1 .37-1.48-.1-1.48-1.28v-.6l1.29-.75v.68c0 .62.27.69.71.44a1.34 1.34 0 0 0 .71-1.25c0-1.79-2.67-.33-2.67-2.82a3.67 3.67 0 0 1 1.43-3.01z"/><path d="M180.76 163.57v-.65l1.12-.65v.65c1-.36 1.47.1 1.47 1.28v.27l-1.29.75v-.36c0-.62-.25-.71-.68-.46a1.31 1.31 0 0 0-.68 1.25c0 1.79 2.67.33 2.67 2.82a3.72 3.72 0 0 1-1.48 3v.63l-1.12.65v-.63c-1 .37-1.48-.1-1.48-1.28v-.6l1.29-.75v.68c0 .62.27.69.71.44a1.34 1.34 0 0 0 .71-1.25c0-1.79-2.67-.33-2.67-2.82a3.67 3.67 0 0 1 1.43-2.97z"/><path d="M180.69 163.53v-.65l1.12-.65v.65c1-.36 1.47.1 1.47 1.28v.27l-1.29.75v-.36c0-.62-.25-.71-.68-.46a1.31 1.31 0 0 0-.68 1.25c0 1.79 2.67.33 2.67 2.82a3.72 3.72 0 0 1-1.48 3v.63l-1.12.65v-.63c-1 .37-1.48-.1-1.48-1.28v-.6l1.29-.75v.68c0 .62.27.69.71.44a1.34 1.34 0 0 0 .71-1.25c0-1.79-2.67-.33-2.67-2.82a3.67 3.67 0 0 1 1.43-2.97z"/><path d="M180.63 163.49v-.65l1.12-.65v.65c1-.36 1.47.1 1.47 1.28v.27l-1.29.75v-.36c0-.62-.25-.71-.68-.46a1.31 1.31 0 0 0-.68 1.25c0 1.79 2.67.33 2.67 2.82a3.72 3.72 0 0 1-1.48 3v.61l-1.12.65V172c-1 .37-1.48-.1-1.48-1.28v-.6l1.29-.75v.68c0 .62.27.69.71.44a1.34 1.34 0 0 0 .71-1.25c0-1.79-2.67-.33-2.67-2.82a3.67 3.67 0 0 1 1.43-2.93z"/><path d="M180.56 163.46v-.65l1.12-.65v.65c1-.36 1.47.1 1.47 1.28v.27l-1.29.75v-.36c0-.62-.25-.71-.68-.46a1.31 1.31 0 0 0-.68 1.25c0 1.79 2.67.33 2.67 2.82a3.72 3.72 0 0 1-1.48 3v.64l-1.12.65V172c-1 .37-1.48-.1-1.48-1.28v-.6l1.29-.75v.68c0 .62.27.69.71.44a1.34 1.34 0 0 0 .71-1.25c0-1.79-2.67-.33-2.67-2.82a3.67 3.67 0 0 1 1.43-2.96z"/><path d="M180.5 163.42v-.65l1.12-.65v.65c1-.36 1.47.1 1.47 1.28v.27l-1.29.75v-.36c0-.62-.25-.71-.68-.46a1.31 1.31 0 0 0-.68 1.25c0 1.79 2.67.33 2.67 2.82a3.72 3.72 0 0 1-1.48 3v.63l-1.12.65v-.6c-1 .37-1.48-.1-1.48-1.28v-.6l1.29-.75v.63c0 .62.27.69.71.44a1.34 1.34 0 0 0 .71-1.25c0-1.79-2.67-.33-2.67-2.82a3.67 3.67 0 0 1 1.43-2.95z"/><path d="M180.43 163.38v-.65l1.12-.65v.65c1-.36 1.47.1 1.47 1.28v.27l-1.29.75v-.36c0-.62-.25-.71-.68-.46a1.31 1.31 0 0 0-.68 1.25c0 1.79 2.67.33 2.67 2.82a3.72 3.72 0 0 1-1.48 3v.63l-1.12.65v-.63c-1 .37-1.48-.1-1.48-1.28V170l1.29-.75v.75c0 .62.27.69.71.44a1.34 1.34 0 0 0 .71-1.25c0-1.79-2.67-.33-2.67-2.82a3.67 3.67 0 0 1 1.43-2.99z"/><path d="M180.37 163.34v-.65l1.12-.65v.65c1-.36 1.47.1 1.47 1.28v.27l-1.29.75v-.36c0-.62-.25-.71-.68-.46a1.31 1.31 0 0 0-.68 1.25c0 1.79 2.67.33 2.67 2.82a3.72 3.72 0 0 1-1.48 3v.63l-1.12.65v-.63c-1 .37-1.48-.1-1.48-1.28V170l1.29-.75v.68c0 .62.27.69.71.44a1.34 1.34 0 0 0 .71-1.25c0-1.79-2.67-.33-2.67-2.82a3.67 3.67 0 0 1 1.43-2.96z"/><path d="M180.3 163.31v-.65l1.12-.65v.65c1-.36 1.47.1 1.47 1.28v.27l-1.29.75v-.36c0-.62-.25-.71-.68-.46a1.31 1.31 0 0 0-.68 1.25c0 1.79 2.67.33 2.67 2.82a3.72 3.72 0 0 1-1.48 3v.63l-1.12.65v-.63c-1 .37-1.48-.1-1.48-1.28V170l1.29-.75v.68c0 .62.27.69.71.44a1.34 1.34 0 0 0 .71-1.25c0-1.79-2.67-.33-2.67-2.82a3.67 3.67 0 0 1 1.43-2.99z"/><path d="M180.24 163.27v-.65l1.12-.65v.65c1-.36 1.47.1 1.47 1.28v.27l-1.29.75v-.36c0-.62-.25-.71-.68-.46a1.31 1.31 0 0 0-.68 1.25c0 1.79 2.67.33 2.67 2.82a3.72 3.72 0 0 1-1.48 3v.63l-1.12.65v-.63c-1 .37-1.48-.1-1.48-1.28v-.6l1.29-.75v.68c0 .62.27.69.71.44a1.34 1.34 0 0 0 .71-1.25c0-1.79-2.67-.33-2.67-2.82a3.67 3.67 0 0 1 1.43-2.97z"/><path d="M180.17 163.23v-.65l1.12-.65v.65c1-.36 1.47.1 1.47 1.28v.27l-1.29.75v-.36c0-.62-.25-.71-.68-.46a1.31 1.31 0 0 0-.68 1.25c0 1.79 2.67.33 2.67 2.82a3.72 3.72 0 0 1-1.48 3v.63l-1.12.65v-.63c-1 .37-1.48-.1-1.48-1.28v-.6l1.29-.75v.68c0 .62.27.69.71.44a1.34 1.34 0 0 0 .71-1.25c0-1.79-2.67-.33-2.67-2.82a3.67 3.67 0 0 1 1.43-2.97z"/><path d="M180.11 163.19v-.65l1.12-.65v.65c1-.36 1.47.1 1.47 1.28v.27l-1.29.75v-.36c0-.62-.25-.71-.68-.46a1.31 1.31 0 0 0-.68 1.25c0 1.79 2.67.33 2.67 2.82a3.72 3.72 0 0 1-1.48 3v.63l-1.12.65v-.63c-1 .37-1.48-.1-1.48-1.28v-.6l1.29-.75v.68c0 .62.27.69.71.44a1.34 1.34 0 0 0 .71-1.25c0-1.79-2.67-.33-2.67-2.82a3.67 3.67 0 0 1 1.43-2.97z"/><path d="M180 163.16v-.65l1.12-.65v.65c1-.36 1.47.1 1.47 1.28v.27l-1.29.75v-.36c0-.62-.25-.71-.68-.46a1.31 1.31 0 0 0-.68 1.25c0 1.79 2.67.33 2.67 2.82a3.72 3.72 0 0 1-1.48 3v.63l-1.12.65v-.63c-1 .37-1.48-.1-1.48-1.28v-.6l1.29-.75v.68c0 .62.27.69.71.44a1.34 1.34 0 0 0 .71-1.25c0-1.79-2.67-.33-2.67-2.82a3.67 3.67 0 0 1 1.43-2.97z"/><path d="M180 163.12v-.65l1.12-.65v.65c1-.36 1.47.1 1.47 1.28v.25l-1.29.75v-.36c0-.62-.25-.71-.68-.46a1.31 1.31 0 0 0-.68 1.25c0 1.79 2.67.33 2.67 2.82a3.72 3.72 0 0 1-1.48 3v.63l-1.12.65v-.63c-1 .37-1.48-.1-1.48-1.28v-.6l1.29-.75v.68c0 .62.27.69.71.44a1.34 1.34 0 0 0 .71-1.25c0-1.79-2.67-.33-2.67-2.82a3.67 3.67 0 0 1 1.43-2.95z"/><path d="M179.91 163.08v-.65l1.12-.65v.65c1-.36 1.47.1 1.47 1.28v.29l-1.29.75v-.36c0-.62-.25-.71-.68-.46a1.31 1.31 0 0 0-.68 1.25c0 1.79 2.67.33 2.67 2.82a3.72 3.72 0 0 1-1.48 3v.63l-1.12.65v-.63c-1 .37-1.48-.1-1.48-1.28v-.6l1.29-.75v.68c0 .62.27.69.71.44a1.34 1.34 0 0 0 .71-1.25c0-1.79-2.67-.33-2.67-2.82a3.67 3.67 0 0 1 1.43-2.99z"/><path data-name="&lt;Tracé transparent&gt;" d="M179.84 163v-.65l1.12-.65v.65c1-.36 1.47.1 1.47 1.28v.27l-1.29.75v-.36c0-.62-.25-.71-.68-.46a1.31 1.31 0 0 0-.68 1.25c0 1.79 2.67.33 2.67 2.82a3.72 3.72 0 0 1-1.48 3v.63l-1.12.65v-.63c-1 .37-1.48-.1-1.48-1.28v-.6l1.29-.75v.68c0 .62.27.69.71.44a1.34 1.34 0 0 0 .71-1.25c0-1.79-2.67-.33-2.67-2.82a3.67 3.67 0 0 1 1.43-2.97z"/></g><path data-name="&lt;Tracé&gt;" fill="#ffe780" d="M181.87 163.56l-2.03-1.16 1.12-.65 2.02 1.17-1.11.64z"/><path data-name="&lt;Tracé&gt;" d="M183.16 165.86l-1-.58s.44-.39.73-.38.28.52.27.96z" fill="#ed9303"/><path data-name="&lt;Tracé&gt;" fill="#ffe780" d="M181.68 170.12l-2.02-1.16-1.29.74 2.02 1.17 1.29-.75z"/><path data-name="&lt;Tracé&gt;" d="M181.86 173.38l-2-1.17s1 .59 1.11.64a1.15 1.15 0 0 0 .91-.06z" fill="#ed9303"/></g><g data-name="&lt;Groupe&gt;"><path data-name="&lt;Tracé transparent&gt;" d="M181.86 164.21v-.65l1.12-.65v.65c1-.36 1.47.1 1.47 1.28v.27l-1.29.75v-.36c0-.62-.25-.71-.68-.46a1.31 1.31 0 0 0-.68 1.25c0 1.79 2.67.33 2.67 2.82a3.72 3.72 0 0 1-1.48 3v.63l-1.12.65v-.63c-1 .37-1.48-.1-1.48-1.28v-.6l1.29-.75v.68c0 .62.27.69.71.44a1.34 1.34 0 0 0 .71-1.25c0-1.79-2.67-.33-2.67-2.82a3.67 3.67 0 0 1 1.43-2.97z" fill="#fcdd5b"/></g></g></g><g data-name="&lt;Groupe&gt;"><g data-name="&lt;Groupe&gt;"><path data-name="&lt;Tracé&gt;" fill="#f9b050" d="M117.8 164.44l2.11 1.22v6.1l-2.11-1.22v-6.1z"/><path data-name="&lt;Tracé&gt;" fill="#fdcc59" d="M119.91 165.66l21.13-12.19v6.1l-21.13 12.19v-6.1z"/><path data-name="&lt;Tracé&gt;" fill="#ffe780" d="M141.04 153.47l-2.12-1.22-21.12 12.19 2.11 1.22 21.13-12.19z"/></g><path d="M120.42 170v-.29a2 2 0 0 1-.75.79c-.49.29-.75.08-.75-.27 0-.59.52-1.22 1.47-1.76v-.05c0-.2-.06-.53-.56-.24a2.5 2.5 0 0 0-.64.55l-.1-.23a3 3 0 0 1 .8-.68c.75-.43.93 0 .93.46v.91a3 3 0 0 0 0 .56zm-.07-1.21c-.48.27-1 .67-1 1.15 0 .29.19.31.42.18a1.33 1.33 0 0 0 .59-.75.61.61 0 0 0 0-.16zm3.26-4.26v3.62l-.4.23v-.41a2 2 0 0 1-.83 1c-.59.34-1 .1-1-.64a2.35 2.35 0 0 1 1.1-1.95c.37-.22.63-.19.74-.05v-1.46zm-.44 2.39a.7.7 0 0 0 0-.18c-.07-.24-.31-.34-.64-.14a1.6 1.6 0 0 0-.73 1.37c0 .49.24.76.72.49a1.45 1.45 0 0 0 .65-.91 1 1 0 0 0 0-.2zm3.29-4.03v3.62l-.4.23v-.41a2 2 0 0 1-.83 1c-.59.34-1 .1-1-.64a2.35 2.35 0 0 1 1.1-1.95c.37-.22.63-.18.74-.05v-1.46zm-.44 2.39a.68.68 0 0 0 0-.18c-.07-.24-.31-.34-.64-.14a1.6 1.6 0 0 0-.73 1.37c0 .5.24.76.72.49a1.45 1.45 0 0 0 .65-.91.94.94 0 0 0 0-.2zm2.79-3.28v.7l.64-.37v.34l-.64.37v1.32c0 .3.09.42.33.28a1.67 1.67 0 0 0 .26-.18v.32a2 2 0 0 1-.39.29c-.21.12-.37.15-.48.09s-.17-.25-.17-.54v-1.33l-.38.22v-.34l.38-.22v-.59zm3.32 0a2.44 2.44 0 0 1-1.22 2c-.66.38-1.17.19-1.17-.58a2.42 2.42 0 0 1 1.21-2c.7-.42 1.18-.21 1.18.58zm-1.94 1.14c0 .54.31.76.74.51a1.67 1.67 0 0 0 .74-1.38c0-.41-.21-.82-.73-.52a1.64 1.64 0 0 0-.75 1.36zm5.31-1.97a3.14 3.14 0 0 1-.7.55c-.74.42-1.22.2-1.22-.55a2.54 2.54 0 0 1 1.31-2.06 1.67 1.67 0 0 1 .62-.23l-.1.4a1.09 1.09 0 0 0-.51.18 1.71 1.71 0 0 0-.86 1.42c0 .57.36.71.85.42a2.47 2.47 0 0 0 .54-.44zm1.88-1v-.29a2 2 0 0 1-.75.79c-.49.29-.75.08-.75-.27 0-.59.53-1.22 1.47-1.76v-.05c0-.2-.06-.53-.56-.25a2.47 2.47 0 0 0-.64.55l-.1-.24a3.07 3.07 0 0 1 .8-.68c.75-.43.93 0 .93.46v.91a3 3 0 0 0 0 .56zm-.06-1.21c-.48.27-1 .67-1 1.15 0 .29.19.31.42.18a1.34 1.34 0 0 0 .59-.75.63.63 0 0 0 0-.16zm1.14-1.09v-.75l.39-.22v.47a1.61 1.61 0 0 1 .68-.93l.13-.06v.42l-.15.07a1.32 1.32 0 0 0-.6.92 1.52 1.52 0 0 0 0 .22v1.3l-.44.25zm2.31-2.8v.7l.64-.37v.34l-.64.37v1.32c0 .3.09.42.33.28a1.79 1.79 0 0 0 .26-.18v.32a2.05 2.05 0 0 1-.39.29c-.21.12-.37.15-.48.09s-.17-.25-.17-.54v-1.33l-.38.22v-.34l.38-.22v-.59z" data-name="&lt;Groupe&gt;" fill="#fff"/></g><g data-name="&lt;Groupe&gt;"><path data-name="&lt;Tracé&gt;" d="M180.79 134.55a10.47 10.47 0 0 0 2.87 3c.85.49 2-.12 2.59-1.36l.11-.24a5.06 5.06 0 0 0-.28-4.35l-8.92-13.78-2.16 4.11-2.32.09z" fill="#fdcc59"/><g data-name="&lt;Groupe&gt;"><g data-name="&lt;Groupe&gt;"><path data-name="&lt;Tracé&gt;" d="M178 91.29l-.11-.08c-2.51-1.7-6.12-1.6-10.12.71C160.18 96.3 154 107 154 115.74c0 4.42 1.56 7.51 4.08 8.94l4 2.7a14.79 14.79 0 0 0-.91-1.83 5.46 5.46 0 0 0-2-2.24 14.41 14.41 0 0 1-.69-4.59c0-8.77 6.15-19.43 13.75-23.82a13.13 13.13 0 0 1 5.22-1.83 23 23 0 0 0 2.76.71c.63.13 1.33.26 2.13.4z" fill="#3e77ba"/></g><g data-name="&lt;Groupe&gt;"><path data-name="&lt;Tracé transparent&gt;" d="M177.51 93.06a13 13 0 0 0-5.31 1.84c-7.6 4.38-13.75 15-13.75 23.82a14.41 14.41 0 0 0 .69 4.59c1.81 5.28 7 6.86 13.06 3.35 7.59-4.38 13.74-15 13.74-23.82.01-6.59-3.47-10.23-8.43-9.78zm-6.16 32.13a10.9 10.9 0 0 1-5.3 1.65 5.14 5.14 0 0 1-4.35-2.16 6.29 6.29 0 0 1-.51-.84 11.09 11.09 0 0 1-1.06-5.13c0-8.22 5.79-18.24 12.91-22.35a11 11 0 0 1 5.29-1.65h.43c3.44.23 5.49 3.22 5.49 8.11 0 8.24-5.79 18.27-12.9 22.37z" fill="#95d1f9"/></g><g data-name="&lt;Groupe&gt;"><path data-name="&lt;Tracé&gt;" d="M184.25 102.84c0 8.22-5.8 18.25-12.91 22.35a10.9 10.9 0 0 1-5.3 1.65 5.14 5.14 0 0 1-4.35-2.16 6.29 6.29 0 0 1-.51-.84h.43a10.88 10.88 0 0 0 5.3-1.65c7.12-4.1 12.91-14.13 12.91-22.35a11 11 0 0 0-1.07-5.13c3.46.29 5.5 3.29 5.5 8.13z" fill="#246dba"/></g><g data-name="&lt;Groupe&gt;"><path data-name="&lt;Tracé&gt;" d="M184.25 102.84c0 8.22-5.8 18.25-12.91 22.35a10.9 10.9 0 0 1-5.3 1.65 5.14 5.14 0 0 1-4.35-2.16 6.29 6.29 0 0 1-.51-.84h.43a10.88 10.88 0 0 0 5.3-1.65c7.12-4.1 12.91-14.13 12.91-22.35a11 11 0 0 0-1.07-5.13c3.46.29 5.5 3.29 5.5 8.13z" fill="none"/></g><g clip-path="url(#a)" data-name="&lt;Ecrêter le groupe&gt;"><g data-name="&lt;Groupe&gt;"><path data-name="&lt;Tracé&gt;" d="M164.36 125.35c-3.71 0-5.92-3-5.92-8.13 0-8.22 5.79-18.24 12.91-22.35a10.93 10.93 0 0 1 5.29-1.65c3.71 0 5.92 3 5.92 8.13 0 8.22-5.79 18.24-12.91 22.35a10.92 10.92 0 0 1-5.29 1.65z" fill="#77dbdb" opacity=".3"/></g><g data-name="&lt;Ecrêter le groupe&gt;"><g data-name="&lt;Groupe&gt;" clip-path="url(#b)"><g clip-path="url(#c)" fill="#fff" data-name="&lt;Ecrêter le groupe&gt;"><path data-name="&lt;Tracé&gt;" d="M187.06 95.24l.16-.09h3.01v5.79l-3.17-5.7zm-.38-.68l-1.19-2.14h1.19v2.14z"/></g></g></g></g></g></g><g data-name="&lt;Groupe&gt;"><path data-name="&lt;Tracé transparent&gt;" d="M291.71 71.86l-1 4.9 4.7 5.1a23 23 0 0 0 .25 3.17c0-.32.08-.63.15-.94.73-3.53 3.1-5.13 6.17-4.72 2.33-2.59 6.72-2.05 11.25 1.76.16.13-.94 1.43-.78 1.56 2.25 2 2.73 4 4.23 6.66a26.18 26.18 0 0 1 3.18 8.11 15.37 15.37 0 0 1 .55 4.19c0 .32 2.1.2 2 .51-.73 3.53-3.1 5.13-6.17 4.72-2.33 2.59-6.72 2.06-11.25-1.77l-.19 4.94 2.22 2 2.75 2.46.35-.8 1.43-3.28a17.64 17.64 0 0 0 5.75 2.57l1.39 2.61 2 3.79 4.24-.32-2.07-6.5a6.32 6.32 0 0 0 .58-.31 7.26 7.26 0 0 0 2.69-2.94l1.22.87 3.79 2.69 1-4.9-4.69-5.1a27.05 27.05 0 0 0-1.12-7.15l3.7-1.36-2.8-6.6-4.54-.78a42.19 42.19 0 0 0-4.84-6.87l.21-5.48-5-4.44-1.78 4.08-.12-.08a19.53 19.53 0 0 0-3.11-1.67 14.17 14.17 0 0 0-2.5-.81l-3.4-6.39-4.24.32 1.59 5 .48 1.49a7.1 7.1 0 0 0-3.27 3.25l-2-1.4zm4.1 17.41l-3 1.11 2.8 6.6 3.23.51a26.11 26.11 0 0 1-3.03-8.22z" fill="#dbf0fc"/><path data-name="&lt;Tracé&gt;" fill="#c3e5f4" d="M291.71 71.86l-4.66 1.54 5.01 3.56 4.66-1.54-5.01-3.56zm13.42 44.17l4.67-1.54 1.77-4.08-4.66 1.54-1.78 4.08zm17.75-3.49l-5.58.43 2.98 7.6 4.67-1.53-2.07-6.5z"/><path data-name="&lt;Tracé transparent&gt;" d="M290.72 83.4a27 27 0 0 0 1.12 7.16l-3.7 1.36 2.8 6.6 4.58.73a42.15 42.15 0 0 0 4.84 6.86l-.2 5.48 5 4.44 1.78-4.08.13.08a19.86 19.86 0 0 0 3.1 1.66 14.17 14.17 0 0 0 2.5.81l3.4 6.4 4.24-.33-1.59-5-.48-1.49a7.13 7.13 0 0 0 3.27-3.25l2 1.4 3 2.16 1-4.9-4.69-5.1a22.92 22.92 0 0 0-.25-3.17 30 30 0 0 0-.86-4l.69-.25 3-1.11-2.8-6.6-3.22-.51-1.38-.2a42 42 0 0 0-4.84-6.87v-.55l.18-4.93-2.21-2-2.76-2.46-.35.8-1.43 3.28a17.63 17.63 0 0 0-5.73-2.55l-1.39-2.61-2-3.78-4.24.32 2.06 6.49a5.52 5.52 0 0 0-.58.31 7.24 7.24 0 0 0-2.65 3l-1.22-.87L287 73.4l-1 4.9zm5.09 5.87a14.77 14.77 0 0 1-.17-4.24c0-.32.08-.63.15-.94.73-3.53 3.1-5.13 6.17-4.72a13.78 13.78 0 0 1 7.04 3.71c6.07 5.41 10 14.64 8.74 20.61a6.67 6.67 0 0 1-1.5 3.19c-2.33 2.59-6.72 2.06-11.25-1.77l-.48-.41a28 28 0 0 1-5.69-7.21 26.11 26.11 0 0 1-3.01-8.22z" fill="#fff"/><path data-name="&lt;Tracé&gt;" d="M295.79 84.09c-.06.31-.11.62-.15.94a14.77 14.77 0 0 0 .17 4.24 26.11 26.11 0 0 0 3 8.22 28 28 0 0 0 5.69 7.21l.48.41c4.53 3.83 8.92 4.36 11.25 1.77a13.78 13.78 0 0 1-7.06-3.71c-6.07-5.41-10-14.64-8.75-20.61a6.69 6.69 0 0 1 1.58-3.19c-3.11-.37-5.48 1.2-6.21 4.72z" fill="#c3e5f4"/><path data-name="&lt;Tracé&gt;" fill="#eefaff" d="M318.06 74.67l-4.67 1.53-4.97-4.44 4.66-1.53 4.98 4.44zm9.21 13.07l-4.67 1.53 2.81 6.61 4.66-1.54-2.8-6.6zm4.91 20.21l-4.66 1.54-1.02 4.9 4.67-1.54 1.01-4.9zm-34.67-41.06l4.66-1.53-4.24.32-4.66 1.54 4.24-.33z"/><path data-name="&lt;Tracé&gt;" fill="#c3e5f4" d="M318.06 74.67l-4.67 1.53-.2 5.48 4.66-1.54.21-5.47zm9.21 13.07l-4.58-.73-4.67 1.54 4.58.72 4.67-1.53zm2.8 6.6l-4.66 1.54-3.7 1.35 4.67-1.53 3.69-1.36zm-2.58 8.51l-4.67 1.54 4.7 5.1 4.66-1.54-4.69-5.1zm-29.98-35.96l4.66-1.53 3.4 6.39-4.66 1.53-3.4-6.39z"/></g><g data-name="&lt;Groupe&gt;"><path data-name="&lt;Tracé transparent&gt;" d="M286 26.68l-.82 3.93L289 34.7a18.44 18.44 0 0 0 .2 2.54c0-.26.07-.51.12-.76.59-2.83 2.49-4.11 4.95-3.79 1.87-2.08 5.39-1.65 9 1.42.13.11-.75 1.14-.63 1.26 1.8 1.6 2.19 3.18 3.39 5.34a21 21 0 0 1 2.55 6.5 12.33 12.33 0 0 1 .44 3.36c0 .26 1.68.16 1.63.41-.59 2.83-2.49 4.11-4.95 3.79-1.87 2.08-5.39 1.65-9-1.42l-.15 4 1.78 1.59 2.21 2 .28-.64 1.15-2.63a14.15 14.15 0 0 0 4.6 2l1.11 2.09 1.62 3 3.4-.26-1.7-5.19a5.07 5.07 0 0 0 .46-.25 5.83 5.83 0 0 0 2.16-2.35l1 .7 3 2.16.82-3.93-3.77-4.09a21.71 21.71 0 0 0-.9-5.74l3-1.09-2.25-5.3-3.67-.58a33.84 33.84 0 0 0-3.85-5.52l.17-4.39-4-3.56-1.43 3.27-.1-.06a15.68 15.68 0 0 0-2.5-1.34 11.37 11.37 0 0 0-2-.65l-2.73-5.13-3.4.26 1.28 4 .38 1.2a5.7 5.7 0 0 0-2.67 2.61l-1.58-1.12zm3.29 14l-2.41.89 2.25 5.3 2.59.41a20.94 20.94 0 0 1-2.42-6.64z" fill="#dbf0fc"/><path data-name="&lt;Tracé&gt;" fill="#c3e5f4" d="M286 26.68l-3.74 1.23 4.03 2.85 3.74-1.23-4.03-2.85zm10.77 35.42l3.74-1.23 1.43-3.27-3.74 1.23-1.43 3.27zm14.24-2.8l-4.47.35 2.39 6.1 3.74-1.23-1.66-5.22z"/><path data-name="&lt;Tracé transparent&gt;" d="M285.21 35.93a21.67 21.67 0 0 0 .9 5.74l-3 1.09 2.25 5.3 3.67.58a33.81 33.81 0 0 0 3.88 5.51l-.16 4.4 4 3.56 1.42-3.27.11.06a15.93 15.93 0 0 0 2.49 1.33 11.37 11.37 0 0 0 2 .65l2.75 5.12 3.4-.26-1.28-4-.38-1.2a5.72 5.72 0 0 0 2.62-2.61l1.58 1.12 2.44 1.73.82-3.93-3.72-4.08a18.4 18.4 0 0 0-.2-2.54 24 24 0 0 0-.69-3.19l.55-.2 2.41-.89-2.25-5.3-2.59-.41-1.09-.17a33.66 33.66 0 0 0-3.88-5.51v-.44l.15-4-1.78-1.59-2.22-2-.28.64-1.13 2.69a14.14 14.14 0 0 0-4.6-2l-1.11-2.09-1.62-3-3.4.26 1.65 5.21a4.42 4.42 0 0 0-.46.25 5.81 5.81 0 0 0-2.16 2.35l-1-.7-3-2.16-.82 3.93zm4.08 4.71a11.85 11.85 0 0 1-.14-3.4c0-.26.07-.51.12-.76.59-2.83 2.49-4.11 4.95-3.79a11.05 11.05 0 0 1 5.66 3c4.87 4.34 8 11.74 7 16.53a5.35 5.35 0 0 1-1.2 2.56c-1.87 2.08-5.39 1.65-9-1.42l-.38-.33a22.44 22.44 0 0 1-4.57-5.79 20.94 20.94 0 0 1-2.43-6.6z" fill="#fff"/><path data-name="&lt;Tracé&gt;" d="M289.28 36.49c-.05.25-.09.5-.12.76a11.85 11.85 0 0 0 .14 3.4 20.94 20.94 0 0 0 2.42 6.59 22.44 22.44 0 0 0 4.57 5.76l.38.33c3.64 3.07 7.16 3.5 9 1.42a11.05 11.05 0 0 1-5.66-3c-4.87-4.34-8-11.74-7-16.53a5.37 5.37 0 0 1 1.21-2.56c-2.46-.29-4.36 1-4.94 3.83z" fill="#c3e5f4"/><path data-name="&lt;Tracé&gt;" fill="#eefaff" d="M307.14 28.93l-3.74 1.23-3.99-3.57 3.74-1.23 3.99 3.57zm7.39 10.48l-3.74 1.23 2.25 5.3 3.74-1.23-2.25-5.3zm3.94 16.22l-3.74 1.23-.81 3.93 3.74-1.23.81-3.93zm-27.82-32.94l3.75-1.23-3.4.26-3.75 1.23 3.4-.26z"/><path data-name="&lt;Tracé&gt;" fill="#c3e5f4" d="M307.14 28.93l-3.74 1.23-.16 4.39 3.74-1.23.16-4.39zm7.39 10.48l-3.67-.58-3.74 1.23 3.67.58 3.74-1.23zm2.25 5.3l-3.74 1.23-2.97 1.09 3.74-1.23 2.97-1.09zm-2.08 6.82l-3.74 1.24 3.77 4.09 3.74-1.23-3.77-4.1zm-24.05-28.84l3.75-1.23 2.73 5.12-3.75 1.24-2.73-5.13z"/></g><g data-name="&lt;Groupe&gt;"><g data-name="&lt;Groupe&gt;"><g data-name="&lt;Groupe&gt;"><path data-name="&lt;Tracé transparent&gt;" d="M266.92 139.53L249.31 129l-1.73 11.33a.76.76 0 0 1-.37.58l-12.5 7.22 21.47 12.39s13.2-6.52 13.39-7.44-2.65-13.55-2.65-13.55z" fill="#e4eff2"/><path data-name="&lt;Tracé&gt;" d="M268.36 138.66l2 14a1.59 1.59 0 0 1-.77 1.62L256.18 162v-1.55l12.56-7.25a.53.53 0 0 0 .25-.56l-2.07-13.15z" fill="#f4f8f9"/><path data-name="&lt;Tracé&gt;" fill="#fff" d="M256.18 162.04l-21.47-12.39v-1.56l21.47 12.4v1.55z"/></g><g data-name="&lt;Groupe&gt;"><path data-name="&lt;Tracé&gt;" d="M305.42 99.36v63.73c0 1.46-1 2.05-2.29 1.32l-84-48.48a5.06 5.06 0 0 1-2.29-4V48.24c0-1.46 1-2.05 2.29-1.32l84 48.48a5.06 5.06 0 0 1 2.29 3.96z" fill="#29607c"/><path data-name="&lt;Tracé&gt;" d="M305.42 160v3.13c0 1.46-1 2.05-2.29 1.32l-84-48.48a5.06 5.06 0 0 1-2.29-4v-3.15z" fill="#fff"/></g><g data-name="&lt;Groupe&gt;"><path data-name="&lt;Tracé&gt;" d="M304.18 156.46V98.79a2 2 0 0 0-.92-1.59l-83.89-48.45c-.51-.29-.92-.06-.92.53V107a2 2 0 0 0 .92 1.59L303.26 157c.51.28.92 0 .92-.54z" fill="#e1fbff"/><path data-name="&lt;Tracé&gt;" d="M304.17 156v.48c0 .58-.41.82-.91.53l-83.89-48.45a2 2 0 0 1-.91-1.59V49.28c0-.59.41-.82.91-.53l.6.34v57.2a2 2 0 0 0 .91 1.59z" fill="#4387b5"/></g><g data-name="&lt;Groupe&gt;"><path data-name="&lt;Tracé&gt;" d="M308.43 162.44a1.59 1.59 0 0 0 .68-1.48v-3.2l-3.69 2.2v3.13a1.67 1.67 0 0 1-.6 1.44z" fill="#f4f8f9"/><path data-name="&lt;Tracé&gt;" d="M217.56 46.75a1.63 1.63 0 0 1 1.6.17l1.44.84.49.28 82 47.36a4.54 4.54 0 0 1 1.56 1.6 4.76 4.76 0 0 1 .74 2.37V160l3.69-2.2V97.27a4.7 4.7 0 0 0-.75-2.37 4.56 4.56 0 0 0-1.54-1.59L222.9 44.75a1.6 1.6 0 0 0-1.62-.16z" fill="#25485e"/><path data-name="&lt;Tracé&gt;" d="M304.81 164.53l3.62-2.09a1.59 1.59 0 0 0 .68-1.48V97.23a4.7 4.7 0 0 0-.75-2.37L304.68 97a4.76 4.76 0 0 1 .74 2.37v63.73a1.67 1.67 0 0 1-.61 1.43z" fill="#e4eff2"/><path data-name="&lt;Tracé&gt;" d="M305.42 99.36V160l3.69-2.2V97.27a4.7 4.7 0 0 0-.75-2.37l-3.68 2.1a4.76 4.76 0 0 1 .74 2.36z" fill="#283642"/></g></g><path data-name="&lt;Tracé&gt;" d="M223.56 55.77v53.67l77.56 44.79v-53.68a3 3 0 0 0-1.36-2.35L224.92 55c-.75-.45-1.36-.1-1.36.77z" fill="#fff"/><path data-name="&lt;Tracé&gt;" d="M223.49 55.77v2.11l77.56 44.78v-2.11a3 3 0 0 0-1.36-2.35L224.85 55c-.75-.45-1.36-.1-1.36.77z" fill="#c2bae2"/><path data-name="&lt;Tracé&gt;" fill="#fff" d="M294.48 96.22l-65.87-38.03v1.83l65.87 38.04v-1.84z"/><g data-name="&lt;Groupe&gt;" fill="#68618e"><path data-name="&lt;Tracé&gt;" d="M227.28 57.28v.59l-2.12-1.25v-.58l2.12 1.24z"/><path d="M227.28 58.14v.58l-2.12-1.24v-.58l2.12 1.24z"/><path data-name="&lt;Tracé&gt;" d="M227.28 59v.58l-2.12-1.25v-.58l2.12 1.25z"/></g><g data-name="&lt;Groupe&gt;"><path data-name="&lt;Tracé&gt;" d="M299.55 99.19a1.49 1.49 0 0 1 .67 1.17c0 .43-.3.6-.67.39a1.49 1.49 0 0 1-.67-1.17c0-.43.3-.58.67-.39z" fill="#31a362"/><path data-name="&lt;Tracé&gt;" d="M297.79 98.2a1.49 1.49 0 0 1 .67 1.17c0 .43-.3.6-.67.39a1.49 1.49 0 0 1-.67-1.17c0-.43.3-.59.67-.39z" fill="#ffe252"/><path data-name="&lt;Tracé&gt;" d="M296 97.2a1.49 1.49 0 0 1 .67 1.17c0 .43-.3.6-.67.39a1.49 1.49 0 0 1-.67-1.17c.03-.43.33-.59.67-.39z" fill="#ff5050"/></g><g data-name="&lt;Groupe&gt;"><path data-name="&lt;Tracé&gt;" fill="#059dbf" d="M301.15 102.66v5.19l-77.47-44.73-.09-5.24 77.56 44.78z"/><path data-name="&lt;Tracé&gt;" fill="#fff" d="M284 94.2l14.88 8.58-.01 2.46L284 96.65V94.2z"/><g data-name="&lt;Groupe&gt;" fill="#fff"><path data-name="&lt;Tracé&gt;" d="M282.09 93.19v.64l-2.35-1.38v-.64l2.35 1.38z"/><path d="M282.09 94.14v.64l-2.35-1.38v-.64l2.35 1.38z"/><path data-name="&lt;Tracé&gt;" d="M282.09 95.09v.64l-2.35-1.38v-.65l2.35 1.39z"/></g><g data-name="&lt;Groupe&gt;"><path data-name="&lt;Tracé&gt;" fill="#059dbf" d="M245.77 122.3V78.47l-20.12-11.61v43.78l20.12 11.66z"/><path data-name="&lt;Tracé&gt;" fill="#fff" d="M242.76 80.03l-14.87-8.59v.84l14.87 8.56v-.81zm.62 2.81L231.5 76v.85l11.88 6.8v-.81zm0 1.64l-11.88-6.89v.85l11.88 6.86v-.82zM230 75.13v2.45l-2.12-1.22V73.9l2.12 1.23zm13.38 12.62L231.5 80.9v.85l11.88 6.81v-.81zm0 1.64l-11.88-6.9v.85l11.88 6.86v-.81zM230 80.03v2.45l-2.12-1.22V78.8l2.12 1.23zm13.38 12.62L231.5 85.8v.85l11.88 6.82v-.82zm0 1.64l-11.88-6.9v.85l11.88 6.86v-.81zM230 84.93v2.46l-2.12-1.23V83.7l2.12 1.23zm13.38 12.62L231.5 90.7v.86l11.88 6.81v-.82zm0 1.64l-11.88-6.9v.85l11.88 6.86v-.81zM230 89.83v2.46l-2.12-1.23v-2.45l2.12 1.22z"/></g><g data-name="&lt;Groupe&gt;"><path data-name="&lt;Tracé&gt;" d="M298.39 109.58v17.17l-12.75-7.36v-17.17l12.75 7.36zm-18.06-10.37v17.18l-12.75-7.36V91.85l12.75 7.36zm-18.06-10.36v17.18l-12.75-7.37V81.49l12.75 7.36z" fill="#94dadd"/></g><g data-name="&lt;Groupe&gt;"><path data-name="&lt;Tracé&gt;" d="M298.39 129.2l-12.75-7.36v.96l12.75 7.36v-.96zm-18.06-10.36l-12.75-7.36v.96l12.75 7.36v-.96zm-18.06-10.36l-12.75-7.36v.96l12.75 7.36v-.96z" fill="#5f8baf"/></g><g data-name="&lt;Groupe&gt;"><path data-name="&lt;Tracé&gt;" d="M298.39 131.18l-12.75-7.36v.96l12.75 7.36v-.96zm-18.06-10.37l-12.75-7.36v.96l12.75 7.36v-.96zm-18.06-10.36l-12.75-7.36v.96l12.75 7.36v-.96z" fill="#5f8baf"/></g><g data-name="&lt;Groupe&gt;"><path data-name="&lt;Tracé&gt;" d="M298.39 134.11v17.18l-12.75-7.37v-17.17l12.75 7.36zm-18.06-10.36v17.17l-12.75-7.36v-17.17l12.75 7.36zm-18.06-10.36v17.17l-12.75-7.36v-17.17l12.75 7.36z" fill="#94dadd"/></g></g></g><g data-name="&lt;Groupe&gt;"><g data-name="&lt;Groupe&gt;"><g data-name="&lt;Groupe&gt;"><path data-name="&lt;Tracé&gt;" d="M222.38 150.66V107.2a2.3 2.3 0 0 0-1-1.8l-15.8-9.12c-.57-.33-1-.06-1 .6v43.46a2.3 2.3 0 0 0 1 1.8l15.8 9.12c.54.33 1 .06 1-.6z" fill="#29607c"/><path data-name="&lt;Tracé&gt;" d="M211.24 101.94l2.9 1.71a.7.7 0 0 1 .35.52c0 .18-.16.23-.35.12l-2.9-1.71a.7.7 0 0 1-.35-.52c.01-.18.16-.23.35-.12zm1.84-.37a.8.8 0 0 0 .36.63c.2.12.36 0 .36-.21a.8.8 0 0 0-.36-.63c-.2-.12-.36-.02-.36.21zm1.76 2.72a.62.62 0 0 0 .28.49c.16.09.28 0 .28-.16a.62.62 0 0 0-.28-.49c-.12-.13-.28-.02-.28.16z" fill="#b0ecff"/></g><g data-name="&lt;Groupe&gt;"><path data-name="&lt;Tracé&gt;" d="M205.32 100.7v35.92a1.53 1.53 0 0 0 .69 1.2l14.86 8.58c.38.22.69 0 .69-.4v-35.92a1.53 1.53 0 0 0-.69-1.2L206 100.3c-.37-.22-.68-.04-.68.4z" fill="#f5feff"/><path data-name="&lt;Tracé&gt;" d="M221.54 146.21c-.08.28-.35.37-.66.19L206 137.83a1.53 1.53 0 0 1-.69-1.2V100.7c0-.4.25-.58.57-.46a.64.64 0 0 0 0 .2v35.92a1.54 1.54 0 0 0 .69 1.2l14.86 8.58z" fill="#4387b5"/></g><g data-name="&lt;Groupe&gt;"><path data-name="&lt;Tracé&gt;" d="M224.42 106v43.46a.71.71 0 0 1-.32.68l-2 1.16a.72.72 0 0 0 .3-.66V107.2a2.14 2.14 0 0 0-.3-1 2.18 2.18 0 0 0-.73-.78l-15-8.64-.24-.14-.58-.34a.77.77 0 0 0-.7-.09l2-1.16a.74.74 0 0 1 .73.08l15.8 9.12a2.19 2.19 0 0 1 .74.78 2.14 2.14 0 0 1 .3.97z" fill="#25485e"/><path data-name="&lt;Tracé&gt;" d="M224.42 106v43.46a.71.71 0 0 1-.32.68l-2 1.16a.72.72 0 0 0 .3-.66V107.2a2.14 2.14 0 0 0-.3-1l2-1.18a2.14 2.14 0 0 1 .32.98z" fill="#283642"/></g><g data-name="&lt;Groupe&gt;"><path data-name="&lt;Tracé&gt;" d="M210 97.11h-.27l-.08-.05-1.9-1.06a1.58 1.58 0 0 0-.82-.2h-.56v.36c0 .15.11.32.35.45l1.86 1.08a1.37 1.37 0 0 0 1.21.11.3.3 0 0 0 .17-.25z" fill="#283642"/><path data-name="&lt;Tracé&gt;" d="M209.62 96.68l-1.86-1.08a1.37 1.37 0 0 0-1.21-.11c-.28.16-.2.47.18.69l1.86 1.08a1.37 1.37 0 0 0 1.21.11c.28-.16.2-.47-.18-.69z" fill="#29607c"/></g></g><path data-name="&lt;Tracé&gt;" d="M212.63 142.8a2.47 2.47 0 0 1 1.12 1.94c0 .71-.5 1-1.12.65a2.48 2.48 0 0 1-1.12-1.94c0-.71.49-1 1.12-.65z" fill="none" stroke="#283642" stroke-miterlimit="10" stroke-width=".5"/><path data-name="&lt;Tracé&gt;" d="M222.8 109.89v2.27a.23.23 0 0 0 0 .14c0 .06.13.07.23 0l.72-.41a.59.59 0 0 0 .27-.46v-2.27c0-.12 0-.18-.13-.19a.2.2 0 0 0-.14 0l-.72.41a.58.58 0 0 0-.23.51z" fill="#1c2933"/><path data-name="&lt;Tracé&gt;" d="M222.8 109.89v2.27a.23.23 0 0 0 0 .14.2.2 0 0 0 .14 0l.72-.41a.59.59 0 0 0 .26-.46v-2.27a.23.23 0 0 0 0-.14.2.2 0 0 0-.14 0l-.72.41a.58.58 0 0 0-.26.46z" fill="#25485e"/><g data-name="&lt;Groupe&gt;"><path data-name="&lt;Tracé&gt;" fill="#283642" d="M223.93 109.03l.16.09-.16.04v-.13z"/><path data-name="&lt;Tracé&gt;" d="M223.39 109.55v2.23c0 .17.12.23.26.15l.09-.05a.58.58 0 0 0 .26-.45v-2.23c0-.17-.12-.23-.26-.15l-.09.05a.58.58 0 0 0-.26.45z" fill="#283642"/><path data-name="&lt;Tracé&gt;" fill="#283642" d="M223.47 111.95l.16.09-.05-.13-.11.04z"/><path data-name="&lt;Tracé&gt;" d="M223.56 109.65v2.23c0 .17.12.23.26.15l.09-.05a.58.58 0 0 0 .26-.45v-2.23c0-.17-.12-.23-.26-.15l-.09.05a.58.58 0 0 0-.26.45z" fill="#29607c"/></g><path data-name="&lt;Tracé&gt;" d="M223.18 109.72v2.12a.21.21 0 0 1-.07.17s-.07 0-.07-.08v-2.13a.21.21 0 0 1 .07-.17s.07.02.07.09z" fill="#7dff45"/><g data-name="&lt;Groupe&gt;"><path data-name="&lt;Tracé&gt;" d="M223 114.81a1 1 0 0 1 .44-.76.31.31 0 0 1 .31 0l.22.13h-.12a.41.41 0 0 1 0 .13 1 1 0 0 1-.44.76.41.41 0 0 1-.14 0v.11l-.22-.12a.31.31 0 0 1-.05-.25z" fill="#1c2933"/><path data-name="&lt;Tracé&gt;" d="M224.1 114.43a1 1 0 0 1-.44.76c-.24.14-.44 0-.44-.25a1 1 0 0 1 .44-.76c.24-.18.44-.03.44.25z" fill="#29607c"/><g data-name="&lt;Groupe&gt;"><g data-name="&lt;Groupe&gt;"><path data-name="&lt;Tracé&gt;" d="M223.66 115a.05.05 0 0 1-.06-.05v-.53a.05.05 0 0 1 .06-.05.05.05 0 0 1 .06.05v.53a.05.05 0 0 1-.06.05z" fill="#283642"/></g><g data-name="&lt;Groupe&gt;"><path data-name="&lt;Tracé&gt;" d="M223.43 114.87a.06.06 0 0 1 0-.08l.46-.26a.06.06 0 0 1 .07 0 .06.06 0 0 1 0 .08l-.46.26z" fill="#283642"/></g></g><g data-name="&lt;Groupe&gt;"><path data-name="&lt;Tracé&gt;" d="M223 118a1 1 0 0 1 .44-.76.31.31 0 0 1 .31 0l.22.13h-.12a.41.41 0 0 1 0 .13 1 1 0 0 1-.44.76.42.42 0 0 1-.14 0v.11l-.22-.12a.31.31 0 0 1-.05-.25z" fill="#1c2933"/><path data-name="&lt;Tracé&gt;" d="M224.1 117.62a1 1 0 0 1-.44.76c-.24.14-.44 0-.44-.25a1 1 0 0 1 .44-.76c.24-.15.44-.03.44.25z" fill="#29607c"/><g data-name="&lt;Groupe&gt;"><path data-name="&lt;Tracé&gt;" d="M223.43 118.06a.06.06 0 0 1 0-.08l.46-.26a.06.06 0 0 1 .05.1l-.46.26z" fill="#283642"/></g></g></g><g data-name="&lt;Groupe&gt;"><path data-name="&lt;Tracé&gt;" fill="#94dadd" d="M218.98 111.36l-10.63-6.14v14.73l10.63 6.13v-14.72z"/><path data-name="&lt;Tracé&gt;" d="M205.86 100.24v1.68l15.7 9.06v-.9a1.53 1.53 0 0 0-.69-1.2L206 100.3z" fill="#059dbf"/><path data-name="&lt;Tracé&gt;" fill="#5f8baf" d="M218.98 127.75l-10.74-6.26v.85l10.74 6.19v-.78zm0 1.86l-10.74-6.27v.85l10.74 6.2v-.78zm0 1.85l-10.74-6.26v.85l10.74 6.19v-.78zm0 7.16l-10.74-6.26v.85l10.74 6.19v-.78zm0 1.86l-10.74-6.27v.85l10.74 6.2v-.78zm0 1.85l-10.74-6.26v.84l10.74 6.2v-.78z"/><path data-name="&lt;Tracé&gt;" d="M210.93 129.36l5.47 3.14a1 1 0 0 1 .45.78v1.43c0 .29-.2.41-.45.26l-5.47-3.16a1 1 0 0 1-.45-.78v-1.41c0-.28.2-.4.45-.26z" fill="#059dbf"/></g></g><g data-name="&lt;Groupe&gt;"><path data-name="&lt;Tracé&gt;" fill="#cdf46c" d="M230.32 145.57l-8.5 4.9-8.5-4.9 8.5-4.91 8.5 4.91z"/><path data-name="&lt;Tracé&gt;" fill="#74d350" d="M230.32 145.57v37.23l-8.5 4.91v-37.24l8.5-4.9z"/><path data-name="&lt;Tracé&gt;" fill="#93e85d" d="M221.82 187.71l-8.5-4.91v-37.23l8.5 4.9v37.24z"/></g><g data-name="&lt;Groupe&gt;"><g data-name="&lt;Groupe&gt;"><path data-name="&lt;Tracé&gt;" fill="#f9b050" d="M253.04 154.6l-2.11 1.22v6.1l2.11-1.22v-6.1z"/><path data-name="&lt;Tracé&gt;" fill="#fdcc59" d="M250.93 155.82l-21.12-12.19v6.1l21.12 12.19v-6.1z"/><path data-name="&lt;Tracé&gt;" fill="#ffe780" d="M229.81 143.63l2.11-1.22 21.12 12.19-2.11 1.22-21.12-12.19z"/></g><path d="M231.06 149.3v-.33c-.14.11-.4.13-.75-.07a1.43 1.43 0 0 1-.75-1.13c0-.59.53-.61 1.47-.07v-.05a1 1 0 0 0-.56-.88 1.21 1.21 0 0 0-.64-.18l-.1-.35a1.54 1.54 0 0 1 .8.24 1.7 1.7 0 0 1 .93 1.53v.91a3.89 3.89 0 0 0 0 .61zM231 148c-.49-.29-1-.52-1 0a.8.8 0 0 0 .42.66c.32.18.52.1.59-.07a.34.34 0 0 0 0-.13zm3.25-.46v3.64l-.4-.23v-.44c-.14.19-.43.23-.83 0a2.23 2.23 0 0 1-1-1.84c0-.82.5-1 1.1-.68a1.78 1.78 0 0 1 .74.8v-1.46zm-.45 1.88a1 1 0 0 0 0-.2 1.41 1.41 0 0 0-.64-.88c-.46-.26-.73 0-.73.52a1.53 1.53 0 0 0 .72 1.32c.3.17.57.13.65-.16a.67.67 0 0 0 0-.18zm3.3-.24v3.64l-.4-.23v-.44c-.14.19-.43.23-.83 0a2.23 2.23 0 0 1-1-1.84c0-.82.5-1 1.1-.68a1.78 1.78 0 0 1 .74.8v-1.46zm-.45 1.88a1 1 0 0 0 0-.2 1.41 1.41 0 0 0-.65-.86c-.46-.26-.73 0-.73.52a1.53 1.53 0 0 0 .72 1.32c.3.17.57.13.65-.16a.66.66 0 0 0 0-.18zm2.8-.06v.7l.64.37v.34l-.64-.37v1.32a.68.68 0 0 0 .33.67 1.26 1.26 0 0 0 .26.12v.34a1.5 1.5 0 0 1-.87-.63 1.35 1.35 0 0 1-.17-.73v-1.33l-.38-.22v-.34l.38.22v-.59zm3.32 3.77c0 .9-.63.94-1.22.6a2.35 2.35 0 0 1-1.17-1.93c0-.82.54-1 1.21-.6a2.34 2.34 0 0 1 1.18 1.93zm-1.94-1.09a1.65 1.65 0 0 0 .74 1.37c.43.24.74 0 .74-.52a1.63 1.63 0 0 0-.73-1.36c-.53-.31-.75.04-.75.51zm5.31 4.17a1.84 1.84 0 0 1-.7-.26 2.35 2.35 0 0 1-1.22-1.95c0-.75.52-1 1.31-.54a2.85 2.85 0 0 1 .62.48l-.1.29a2 2 0 0 0-.52-.41c-.56-.32-.87-.08-.87.43a1.69 1.69 0 0 0 .85 1.4 1.35 1.35 0 0 0 .55.19zM248 159v-.33c-.14.11-.4.13-.75-.07a1.42 1.42 0 0 1-.75-1.13c0-.59.53-.61 1.47-.07v-.05a1 1 0 0 0-.56-.88 1.21 1.21 0 0 0-.64-.18l-.1-.35a1.54 1.54 0 0 1 .8.24 1.7 1.7 0 0 1 .93 1.53v.91a3.77 3.77 0 0 0 0 .61zm-.07-1.29c-.49-.29-1-.52-1 0a.8.8 0 0 0 .42.66c.32.18.52.1.59-.07a.33.33 0 0 0 0-.13zm1.17.29v-.77l.39.22v.49c.11-.26.38-.32.68-.15l.13.09v.42l-.15-.1c-.31-.18-.54-.07-.6.23a1.09 1.09 0 0 0 0 .2v1.3l-.44-.25zm2.31-.19v.7l.64.37v.34l-.64-.37v1.32a.69.69 0 0 0 .33.67 1.29 1.29 0 0 0 .26.12v.35a1.34 1.34 0 0 1-.4-.17 1.31 1.31 0 0 1-.48-.46 1.36 1.36 0 0 1-.17-.74v-1.34l-.38-.22V158l.38.22v-.59z" data-name="&lt;Groupe&gt;" fill="#fff"/></g><g data-name="&lt;Groupe&gt;"><path data-name="&lt;Tracé&gt;" d="M270.49 179.71a10.47 10.47 0 0 1-2.87 3c-.85.49-2-.12-2.59-1.36l-.11-.24a5.06 5.06 0 0 1 .28-4.35l8.93-13.76 2.17 4.12 2.32.09z" fill="#fdcc59"/><g data-name="&lt;Groupe&gt;"><g data-name="&lt;Groupe&gt;"><path data-name="&lt;Tracé&gt;" d="M273.28 136.45l.11-.08c2.51-1.7 6.12-1.6 10.12.71 7.59 4.38 13.75 15 13.75 23.82 0 4.42-1.56 7.51-4.08 8.94l-4 2.7a14.8 14.8 0 0 1 .91-1.83 5.46 5.46 0 0 1 2-2.24 14.41 14.41 0 0 0 .69-4.59c0-8.77-6.15-19.43-13.75-23.82a13.13 13.13 0 0 0-5.22-1.83 23 23 0 0 1-2.76.71c-.63.13-1.33.26-2.13.4z" fill="#3e77ba"/></g><g data-name="&lt;Groupe&gt;"><path data-name="&lt;Tracé transparent&gt;" d="M265.34 148c0 8.77 6.15 19.43 13.74 23.82 6.09 3.51 11.25 1.93 13.06-3.35a14.41 14.41 0 0 0 .69-4.59c0-8.77-6.15-19.43-13.75-23.82a13.05 13.05 0 0 0-5.32-1.84c-4.95-.45-8.42 3.19-8.42 9.78zm1.68 0c0-4.88 2-7.88 5.49-8.11h.43a11 11 0 0 1 5.29 1.65c7.12 4.11 12.91 14.13 12.91 22.35a11.09 11.09 0 0 1-1.06 5.13 6.3 6.3 0 0 1-.51.84 5.14 5.14 0 0 1-4.35 2.16 10.9 10.9 0 0 1-5.3-1.65C272.83 166.25 267 156.22 267 148z" fill="#95d1f9"/></g><g data-name="&lt;Groupe&gt;"><path data-name="&lt;Tracé&gt;" d="M267 148c0 8.22 5.8 18.25 12.91 22.35a10.9 10.9 0 0 0 5.3 1.65 5.14 5.14 0 0 0 4.35-2.16 6.3 6.3 0 0 0 .51-.84h-.43a10.88 10.88 0 0 1-5.3-1.65c-7.12-4.1-12.91-14.13-12.91-22.35a11 11 0 0 1 1.07-5.13c-3.42.25-5.5 3.25-5.5 8.13z" fill="#246dba"/></g><g data-name="&lt;Groupe&gt;"><path data-name="&lt;Tracé&gt;" d="M267 148c0 8.22 5.8 18.25 12.91 22.35a10.9 10.9 0 0 0 5.3 1.65 5.14 5.14 0 0 0 4.35-2.16 6.3 6.3 0 0 0 .51-.84h-.43a10.88 10.88 0 0 1-5.3-1.65c-7.12-4.1-12.91-14.13-12.91-22.35a11 11 0 0 1 1.07-5.13c-3.42.25-5.5 3.25-5.5 8.13z" fill="none"/></g><g clip-path="url(#d)" data-name="&lt;Ecrêter le groupe&gt;"><g data-name="&lt;Groupe&gt;"><path data-name="&lt;Tracé&gt;" d="M286.92 170.52c3.71 0 5.92-3 5.92-8.13 0-8.22-5.79-18.24-12.9-22.35a10.93 10.93 0 0 0-5.29-1.65c-3.71 0-5.92 3-5.92 8.13 0 8.22 5.79 18.24 12.91 22.35a10.92 10.92 0 0 0 5.29 1.65z" fill="#77dbdb" opacity=".3"/></g><g data-name="&lt;Ecrêter le groupe&gt;"><g data-name="&lt;Groupe&gt;" clip-path="url(#e)"><g clip-path="url(#f)" fill="#fff" data-name="&lt;Ecrêter le groupe&gt;"><path data-name="&lt;Tracé&gt;" d="M264.23 140.4l-.17-.09h-3v5.79l3.17-5.7zm.38-.68l1.19-2.14h-1.19v2.14z"/></g></g></g></g></g></g><g data-name="&lt;Groupe&gt;"><g data-name="&lt;Groupe&gt;"><g data-name="&lt;Groupe&gt;"><path data-name="&lt;Tracé transparent&gt;" d="M207.58 180.15c-.38-.5-.77-1-1.08-1.44-.09-.15-.18-.3-.26-.44a2.26 2.26 0 0 1-.31-1.06c0-.62.29-.69.79-.4a1.41 1.41 0 0 1 .78 1.31v.36l1.49.86v-.27a3.83 3.83 0 0 0-1.68-3.09v-.64l-1.29-.74v.64a2 2 0 0 0-.85-.16l-.58.33a1.41 1.41 0 0 0-.21.67 3 3 0 0 0 0 .31 2.61 2.61 0 0 0 0 3.64v.59a3.85 3.85 0 0 0 1.7 3.11v.63l1.29.74v-.63c1.11.44 1.7 0 1.7-1.15a5.49 5.49 0 0 0-1.49-3.17z" fill="#ed9303"/><path data-name="&lt;Tracé&gt;" d="M205.18 175.08l-.58.33a.77.77 0 0 1 .58-.33z" fill="#f9b050"/></g><path data-name="&lt;Tracé&gt;" fill="#f9b050" d="M204.81 175.2l-2.06 1.19 1.74.41.32-1.6z"/><path data-name="&lt;Tracé&gt;" fill="#ed9303" d="M205.2 185.7l2.11-1.21v.63l-2.11 1.22v-.64z"/><path data-name="&lt;Tracé&gt;" fill="#ed9303" d="M206.42 185.76l2.16-1.24-1.48-.52-.68 1.76z"/><path data-name="&lt;Tracé&gt;" fill="#ffe780" d="M205.32 181.18l-.93.53-.7.4-1.48-.86 1.27-.72.85-.49.23.13.76 1.01z"/><g data-name="&lt;Groupe&gt;"><path data-name="&lt;Tracé transparent&gt;" d="M205.32 181.18c-.27-.35-.53-.68-.76-1a3.18 3.18 0 0 1-.73-1.74c0-.62.29-.69.78-.4a1.4 1.4 0 0 1 .79 1.31v.36l1.49.86v-.27a3.85 3.85 0 0 0-1.69-3.09v-.64l-1.29-.74v.64c-1.1-.42-1.66 0-1.66 1.16a5.06 5.06 0 0 0 1.23 2.91c.3.41.62.81.91 1.19a3.69 3.69 0 0 1 .94 2c0 .62-.31.66-.82.38a1.44 1.44 0 0 1-.82-1.31v-.69l-1.49-.86v.6a3.86 3.86 0 0 0 1.7 3.11v.63l1.29.74v-.63c1.11.44 1.7 0 1.7-1.15a5.85 5.85 0 0 0-1.57-3.37z" fill="#fcdd5b"/><path data-name="&lt;Tracé&gt;" d="M205.33 183.73c0 .62-.31.66-.82.38a1.44 1.44 0 0 1-.82-1.31v-.69l.7-.4a3.69 3.69 0 0 1 .94 2.02z" fill="#f9b050"/></g><path data-name="&lt;Tracé&gt;" fill="#ffe780" d="M207.31 175.34l-2.11 1.21-.82-.47-.47-.27 1.27-.73.85-.49 1.28.75z"/><path data-name="&lt;Tracé&gt;" fill="#ed9303" d="M207.31 175.98l-2.11 1.21v-.64l2.11-1.22v.65z"/><path data-name="&lt;Tracé&gt;" d="M209 179.07v.27l-1.42.81-.7.4v-.27a3.36 3.36 0 0 0-.38-1.57 2.67 2.67 0 0 0-.26-.44 4.66 4.66 0 0 0-1.05-1.08l2.12-1.21a3.83 3.83 0 0 1 1.69 3.09z" fill="#f9b050"/></g><g data-name="&lt;Groupe&gt;"><g data-name="&lt;Groupe&gt;"><path data-name="&lt;Tracé transparent&gt;" d="M214.93 184.43c-.38-.5-.77-1-1.08-1.44-.09-.15-.18-.3-.26-.44a2.26 2.26 0 0 1-.31-1.06c0-.62.29-.69.79-.4a1.41 1.41 0 0 1 .78 1.31v.36l1.49.86v-.27a3.83 3.83 0 0 0-1.68-3.09v-.64l-1.29-.74v.64a2 2 0 0 0-.85-.16l-.58.33a1.41 1.41 0 0 0-.21.67 3 3 0 0 0 0 .31 2.61 2.61 0 0 0 0 3.64v.59a3.85 3.85 0 0 0 1.7 3.11v.63l1.29.74v-.63c1.11.44 1.7 0 1.7-1.15a5.49 5.49 0 0 0-1.49-3.17z" fill="#ed9303"/><path data-name="&lt;Tracé&gt;" d="M212.53 179.35l-.58.33a.77.77 0 0 1 .58-.33z" fill="#f9b050"/></g><path data-name="&lt;Tracé&gt;" fill="#f9b050" d="M212.16 179.47l-2.06 1.19 1.74.41.32-1.6z"/><path data-name="&lt;Tracé&gt;" fill="#ed9303" d="M212.55 189.98l2.11-1.22v.63l-2.11 1.22v-.63z"/><path data-name="&lt;Tracé&gt;" fill="#ed9303" d="M213.77 190.03l2.16-1.24-1.48-.52-.68 1.76z"/><path data-name="&lt;Tracé&gt;" fill="#ffe780" d="M212.67 185.45l-.93.53-.7.4-1.48-.86 1.27-.72.85-.49.23.13.76 1.01z"/><g data-name="&lt;Groupe&gt;"><path data-name="&lt;Tracé transparent&gt;" d="M212.67 185.45c-.27-.35-.53-.68-.76-1a3.18 3.18 0 0 1-.73-1.74c0-.62.29-.69.78-.4a1.4 1.4 0 0 1 .79 1.31v.38l1.49.86v-.27a3.85 3.85 0 0 0-1.69-3.09v-.64l-1.29-.74v.64c-1.1-.42-1.66 0-1.66 1.16a5.06 5.06 0 0 0 1.23 2.91c.3.41.62.81.91 1.19a3.69 3.69 0 0 1 .94 2c0 .62-.31.66-.82.38a1.44 1.44 0 0 1-.82-1.31v-.69l-1.49-.86v.6a3.86 3.86 0 0 0 1.7 3.11v.63l1.29.74V190c1.11.44 1.7 0 1.7-1.15a5.85 5.85 0 0 0-1.57-3.4z" fill="#fcdd5b"/><path data-name="&lt;Tracé&gt;" d="M212.68 188c0 .62-.31.66-.82.38a1.44 1.44 0 0 1-.82-1.31v-.69l.7-.4a3.69 3.69 0 0 1 .94 2.02z" fill="#f9b050"/></g><path data-name="&lt;Tracé&gt;" fill="#ffe780" d="M214.66 179.61l-2.11 1.21-.81-.46-.48-.28 1.27-.73.85-.48 1.28.74z"/><path data-name="&lt;Tracé&gt;" fill="#ed9303" d="M214.66 180.25l-2.11 1.22v-.65l2.11-1.21v.64z"/><path data-name="&lt;Tracé&gt;" d="M216.35 183.34v.27l-1.42.81-.7.4v-.27a3.36 3.36 0 0 0-.38-1.57 2.67 2.67 0 0 0-.26-.44 4.66 4.66 0 0 0-1.05-1.08l2.12-1.21a3.83 3.83 0 0 1 1.69 3.09z" fill="#f9b050"/></g><g data-name="&lt;Groupe&gt;"><g data-name="&lt;Groupe&gt;"><path data-name="&lt;Tracé transparent&gt;" d="M222.28 188.7c-.38-.5-.77-1-1.08-1.44-.09-.15-.18-.3-.26-.44a2.26 2.26 0 0 1-.31-1.06c0-.62.29-.69.79-.4a1.41 1.41 0 0 1 .78 1.31v.33l1.49.86v-.27a3.83 3.83 0 0 0-1.68-3.09v-.64l-1.29-.74v.64a2 2 0 0 0-.85-.16l-.58.33a1.41 1.41 0 0 0-.21.67 3 3 0 0 0 0 .31 2.61 2.61 0 0 0 0 3.64v.59a3.85 3.85 0 0 0 1.7 3.11v.63l1.29.74V193c1.11.44 1.7 0 1.7-1.15a5.49 5.49 0 0 0-1.49-3.15z" fill="#ed9303"/><path data-name="&lt;Tracé&gt;" d="M219.88 183.62l-.58.33a.77.77 0 0 1 .58-.33z" fill="#f9b050"/></g><path data-name="&lt;Tracé&gt;" fill="#f9b050" d="M219.52 183.74l-2.07 1.19 1.74.41.33-1.6z"/><path data-name="&lt;Tracé&gt;" fill="#ed9303" d="M219.9 194.25l2.11-1.22v.63l-2.11 1.22v-.63z"/><path data-name="&lt;Tracé&gt;" fill="#ed9303" d="M221.12 194.31l2.16-1.25-1.48-.52-.68 1.77z"/><path data-name="&lt;Tracé&gt;" fill="#ffe780" d="M220.02 189.72l-.93.54-.69.39-1.49-.85 1.27-.73.85-.49.23.13.76 1.01z"/><g data-name="&lt;Groupe&gt;"><path data-name="&lt;Tracé transparent&gt;" d="M220 189.72c-.27-.35-.53-.68-.76-1a3.18 3.18 0 0 1-.73-1.74c0-.62.29-.69.78-.4a1.4 1.4 0 0 1 .79 1.31v.36l1.49.86v-.27a3.85 3.85 0 0 0-1.69-3.09v-.64l-1.29-.74v.63c-1.1-.42-1.66 0-1.66 1.16a5.06 5.06 0 0 0 1.23 2.91c.3.41.62.81.91 1.19a3.69 3.69 0 0 1 .94 2c0 .62-.31.66-.82.38a1.44 1.44 0 0 1-.82-1.31v-.69l-1.49-.86v.6a3.86 3.86 0 0 0 1.7 3.11v.63l1.29.74v-.63c1.11.44 1.7 0 1.7-1.15a5.85 5.85 0 0 0-1.57-3.36z" fill="#fcdd5b"/><path data-name="&lt;Tracé&gt;" d="M220 192.28c0 .62-.31.66-.82.38a1.44 1.44 0 0 1-.82-1.31v-.69l.7-.4a3.69 3.69 0 0 1 .94 2.02z" fill="#f9b050"/></g><path data-name="&lt;Tracé&gt;" fill="#ffe780" d="M222.01 183.88l-2.11 1.21-.81-.46-.48-.28 1.27-.73.85-.48 1.28.74z"/><path data-name="&lt;Tracé&gt;" fill="#ed9303" d="M222.01 184.52l-2.11 1.22v-.65l2.11-1.21v.64z"/><path data-name="&lt;Tracé&gt;" d="M223.7 187.61v.27l-1.42.81-.7.4v-.27a3.36 3.36 0 0 0-.38-1.57 2.67 2.67 0 0 0-.26-.44 4.66 4.66 0 0 0-1.05-1.08l2.12-1.21a3.83 3.83 0 0 1 1.69 3.09z" fill="#f9b050"/></g><g data-name="&lt;Groupe&gt;"><g data-name="&lt;Groupe&gt;"><path data-name="&lt;Tracé transparent&gt;" d="M229.63 193c-.38-.5-.77-1-1.08-1.44-.09-.15-.18-.3-.26-.44A2.26 2.26 0 0 1 228 190c0-.62.29-.69.79-.4a1.41 1.41 0 0 1 .78 1.31v.36l1.49.86v-.27a3.83 3.83 0 0 0-1.68-3.09v-.64l-1.29-.74v.64a2 2 0 0 0-.85-.16l-.58.33a1.41 1.41 0 0 0-.21.67 3 3 0 0 0 0 .31 2.61 2.61 0 0 0 0 3.64v.59a3.85 3.85 0 0 0 1.7 3.11v.63l1.29.74v-.63c1.11.44 1.7 0 1.7-1.15a5.49 5.49 0 0 0-1.51-3.11z" fill="#ed9303"/><path data-name="&lt;Tracé&gt;" d="M227.23 187.9l-.58.33a.77.77 0 0 1 .58-.33z" fill="#f9b050"/></g><path data-name="&lt;Tracé&gt;" fill="#f9b050" d="M226.87 188.01l-2.07 1.2 1.74.4.33-1.6z"/><path data-name="&lt;Tracé&gt;" fill="#ed9303" d="M227.25 198.52l2.12-1.22v.63l-2.12 1.22v-.63z"/><path data-name="&lt;Tracé&gt;" fill="#ed9303" d="M228.47 198.58l2.16-1.24-1.48-.53-.68 1.77z"/><path data-name="&lt;Tracé&gt;" fill="#ffe780" d="M227.37 194l-.93.53-.69.4-1.49-.86 1.27-.73.85-.49.23.14.76 1.01z"/><g data-name="&lt;Groupe&gt;"><path data-name="&lt;Tracé transparent&gt;" d="M227.37 194c-.27-.35-.53-.68-.76-1a3.18 3.18 0 0 1-.73-1.74c0-.62.29-.69.78-.4a1.4 1.4 0 0 1 .79 1.31v.36l1.49.86v-.27a3.85 3.85 0 0 0-1.69-3.09v-.64l-1.29-.74v.64c-1.1-.42-1.66 0-1.66 1.16a5.06 5.06 0 0 0 1.23 2.91c.3.41.62.81.91 1.19a3.69 3.69 0 0 1 .94 2c0 .62-.31.66-.82.38a1.44 1.44 0 0 1-.82-1.31v-.69l-1.49-.86v.6a3.86 3.86 0 0 0 1.7 3.11v.63l1.29.74v-.63c1.11.44 1.7 0 1.7-1.15a5.85 5.85 0 0 0-1.57-3.37z" fill="#fcdd5b"/><path data-name="&lt;Tracé&gt;" d="M227.38 196.55c0 .62-.31.66-.82.38a1.44 1.44 0 0 1-.82-1.31v-.69l.7-.4a3.69 3.69 0 0 1 .94 2.02z" fill="#f9b050"/></g><path data-name="&lt;Tracé&gt;" fill="#ffe780" d="M229.37 188.15l-2.12 1.22-.81-.47-.48-.28 1.27-.72.85-.49 1.29.74z"/><path data-name="&lt;Tracé&gt;" fill="#ed9303" d="M229.36 188.79l-2.11 1.22v-.64l2.11-1.22v.64z"/><path data-name="&lt;Tracé&gt;" d="M231.05 191.89v.27l-1.42.81-.7.4v-.27a3.36 3.36 0 0 0-.38-1.57 2.67 2.67 0 0 0-.26-.44 4.66 4.66 0 0 0-1.05-1.08l2.12-1.21a3.83 3.83 0 0 1 1.69 3.09z" fill="#f9b050"/></g></g><g data-name="&lt;Groupe&gt;"><path data-name="&lt;Tracé&gt;" fill="#74d350" d="M102.97 49.48l-9.91 27.19-5.67-3.27-4.25-12.47 5.67-3.28L88.8 35l2.83-6.16 5.67 3.26h.01v14.11l5.66 3.27z"/><path data-name="&lt;Tracé&gt;" fill="#93e85d" d="M97.3 46.21L87.39 73.4l-9.92-15.74 5.67-3.27V33.74l8.49-4.9.01-.01v20.65l5.66-3.27z"/></g><g data-name="&lt;Groupe&gt;"><g data-name="&lt;Groupe&gt;"><path data-name="&lt;Tracé&gt;" fill="#d33740" d="M272.26 33.38l-5.66 3.27 5.66 3.27 5.67-3.27-5.67-3.27z"/><g data-name="&lt;Groupe&gt;"><path data-name="&lt;Tracé&gt;" fill="#e2444c" d="M258.1 31.75v-.01 23.93l8.5 4.9V36.65l5.66 3.27-9.91-23.72-9.92 12.27 5.67 3.28z"/><path data-name="&lt;Tracé&gt;" fill="#ff5c5d" d="M263.77 28.48l-.01-.01v23.92l8.5 4.91V33.38l5.67 3.27-9.92-23.72-9.91 12.27 5.67 3.28z"/></g><path data-name="&lt;Tracé&gt;" fill="#d33740" d="M268.01 12.93l-5.66 3.27-9.92 12.27 5.67-3.27 9.91-12.27z"/><path data-name="&lt;Tracé&gt;" fill="#ff8086" d="M263.76 52.39l-5.66 3.28 8.5 4.9 5.66-3.27-8.5-4.91z"/></g><path data-name="&lt;Tracé&gt;" fill="#ff5c5d" d="M258.1 25.2l19.83 11.45-9.92-23.72-9.91 12.27z"/></g></g></svg>