<svg xmlns="http://www.w3.org/2000/svg" viewBox="0 0 400 225"><g style="isolation:isolate"><path fill="#4fa0d8" d="M0 0h400v225H0z" data-name="Calque 2"/><g data-name="Calque 1"><path d="M250 35.19a7 7 0 1 1 7-7 7 7 0 0 1-7 7zm0-11.4a4.44 4.44 0 1 0 4.44 4.44 4.45 4.45 0 0 0-4.44-4.44z" fill="#81ceee"/><path d="M275.75 126.27a19 19 0 0 0-1.65 2c-2 2.86-3.2 7.34-1.74 10.67 2 4.63 7.64 4.12 11.54 2.42 5.51-2.41 9.93-8 8.59-14.25-2.06-9.6-11.92-6.01-16.74-.84z" fill="#d9eff8"/><path d="M281.17 188.68c9.49-10.66 6.14-28.64-4.22-38.46-3.47-3.28-7.8-6.25-9-10.88a14.18 14.18 0 0 1 .76-8.15c2.76-7.79 8.82-13.86 13.86-20.41s9.31-14.71 7.53-22.79a24.3 24.3 0 0 0-6.1-10.8c-4.83-5.33-11.31-9.49-18.47-10.13-5.38-.49-10.82 1-16.16.22A19.84 19.84 0 0 1 233 48.55c-.06-4.15 1.22-8.2 1.5-12.33a25.48 25.48 0 0 0-33.6-25.84c-7.43 2.5-13.27 8.25-18.41 14.17s-10 12.29-16.41 16.75S151 48 143.87 44.75c-3.53-1.62-6.44-4.46-10.1-5.79-5-1.81-10.76-.44-15.09 2.63S111.29 49.23 109 54a56 56 0 0 0-.58 45.84c3.38 7.66 8.64 15.3 7.43 23.58C113.9 137 95.65 144.64 96 158.31a23.07 23.07 0 0 0 3.08 9.88 62.54 62.54 0 0 0 15.22 18.92z" fill="#c8e7f5"/><path d="M140.81 122.42a14.5 14.5 0 0 1-1.46-1.26c-.4-.43-.84-.84-1.21-1.29-.78-.87-1.48-1.79-2.18-2.71a56.91 56.91 0 0 1-3.63-5.78c-.55-1-1.1-2-1.57-3s-1-2-1.45-3.06l-1.34-3.1-1.2-3.14c-.42-1-.78-2.1-1.13-3.17l-1.07-3.18c-.64-2.14-1.27-4.29-1.87-6.44s-1.11-4.33-1.61-6.5l-1.4-6.54a.43.43 0 0 1 .84-.2l1.66 6.44c.59 2.14 1.25 4.25 1.87 6.38s1.4 4.2 2.11 6.29l1.18 3.1c.38 1 .79 2.06 1.24 3.07l1.31 3 1.44 3c.46 1 1 1.94 1.53 2.91s1.07 1.91 1.64 2.84a54.27 54.27 0 0 0 3.68 5.36c.69.82 1.37 1.65 2.1 2.41.35.4.75.73 1.12 1.1a13.17 13.17 0 0 0 1.09.88h.07a1.55 1.55 0 1 1-1.71 2.57z" fill="#e46aa5"/><path d="M122.43 84.75a15.8 15.8 0 0 1 .6-3.19 19.37 19.37 0 0 1 1.16-3.05 19.87 19.87 0 0 1 1.67-2.87A22.06 22.06 0 0 1 128 73a1.9 1.9 0 1 1 2.46 2.86 18.67 18.67 0 0 0-2.26 1.72 17.18 17.18 0 0 0-2 2.1 17.41 17.41 0 0 0-1.66 2.44 14.78 14.78 0 0 0-1.22 2.71.43.43 0 0 1-.84-.17zm3.17 10.31a23.89 23.89 0 0 1 .91-4.63 31.19 31.19 0 0 1 1.68-4.43 32.74 32.74 0 0 1 2.34-4.21 36.66 36.66 0 0 1 2.94-3.89 2.42 2.42 0 1 1 3.34 3.48h-.05a32.34 32.34 0 0 0-3.25 2.78 29.38 29.38 0 0 0-2.88 3.25 28.84 28.84 0 0 0-2.4 3.69 22.74 22.74 0 0 0-1.77 4.06.43.43 0 0 1-.84-.17zm4.64 10.38a23 23 0 0 1 .82-5.32 24.25 24.25 0 0 1 2-5.08 25.36 25.36 0 0 1 1.43-2.39 24.07 24.07 0 0 1 1.74-2.21 24.74 24.74 0 0 1 4.25-3.81 2.17 2.17 0 1 1 2.29 3.68l-.11.06a21.13 21.13 0 0 0-5.88 4.14 22.68 22.68 0 0 0-1.61 1.87 22.2 22.2 0 0 0-2.62 4.28 21.94 21.94 0 0 0-1.64 4.83.33.33 0 0 1-.65-.08zM120.21 74.6a97.37 97.37 0 0 1-2-5.18c-.3-.88-.59-1.77-.84-2.69a19.21 19.21 0 0 1-.6-2.93v-.06a1.8 1.8 0 0 1 3.58-.4 1.88 1.88 0 0 1 0 .46 16 16 0 0 0-.1 2.5c0 .88.07 1.77.15 2.67.15 1.79.37 3.61.65 5.4a.44.44 0 0 1-.83.23zm15.01 40.31a9.68 9.68 0 0 1 .19-4.8 13.85 13.85 0 0 1 2.16-4.36 20.76 20.76 0 0 1 3.33-3.56q.94-.75 1.92-1.48l2-1.31a2.62 2.62 0 1 1 2.32 4.66l-.15.05-1.93.68-1.85.83a17.24 17.24 0 0 0-3.35 2.2 11.29 11.29 0 0 0-2.56 3 8.32 8.32 0 0 0-1.11 3.85v.08a.5.5 0 0 1-1 .11zm-13.95-34.55a14.12 14.12 0 0 0-2.57-1.18 16.56 16.56 0 0 0-2.72-.71 16.31 16.31 0 0 0-2.74-.25 17.7 17.7 0 0 0-2.69.18 1.9 1.9 0 1 1-.48-3.77 2 2 0 0 1 .46 0 21.1 21.1 0 0 1 3.18.58 19 19 0 0 1 3 1.05 18.51 18.51 0 0 1 2.74 1.5 15.13 15.13 0 0 1 2.42 1.94.43.43 0 0 1-.53.68zM124.82 91a21.69 21.69 0 0 0-4.05-1.2 27.45 27.45 0 0 0-4.16-.51 28 28 0 0 0-4.13.11 30.74 30.74 0 0 0-4 .67h-.05a2.43 2.43 0 1 1-1-4.74 2.55 2.55 0 0 1 .54-.06 35 35 0 0 1 4.66.29 31.3 31.3 0 0 1 4.51.92 29.8 29.8 0 0 1 4.21 1.52 22.84 22.84 0 0 1 3.92 2.22.43.43 0 0 1-.42.75zm3.64 10.2a19.09 19.09 0 0 0-8.3-1.55 15.64 15.64 0 0 0-4 .64 17 17 0 0 0-3.6 1.52h-.08a2.62 2.62 0 1 1-2.48-4.6 2.74 2.74 0 0 1 .59-.23 21.61 21.61 0 0 1 5-.75 19.2 19.2 0 0 1 4.86.43 20.84 20.84 0 0 1 4.49 1.48 19.71 19.71 0 0 1 4 2.39.4.4 0 0 1-.41.67zm4.1 9.35a7.66 7.66 0 0 0-3.56-1.05 10.43 10.43 0 0 0-3.64.47 15.88 15.88 0 0 0-3.37 1.51l-1.56 1-1.43 1.19-.1.08a2.25 2.25 0 1 1-2.77-3.55 2.37 2.37 0 0 1 .43-.26l2-.93q1-.41 2.07-.78a18.92 18.92 0 0 1 4.36-.87 12.62 12.62 0 0 1 4.41.42 8.83 8.83 0 0 1 3.81 2.16.43.43 0 0 1-.53.67z" fill="#e46aa5"/><path d="M128.76 75.86V124a6.35 6.35 0 0 0 6.35 6.35h48.13a6.35 6.35 0 0 0 6.35-6.35v-18.77a9.26 9.26 0 1 0 0-10.6V75.86a6.35 6.35 0 0 0-6.35-6.35h-48.12a6.35 6.35 0 0 0-6.36 6.35z" fill="#52539f"/><path d="M190 105.78a9.34 9.34 0 0 0 1.4 1.39zm-36.59-36.27h-6.46l42.66 42.25v-6.4l-36.2-35.85zm15.76 60.84h3.59l-44-43.59v3.56l40.41 40.03zm-32.1-60.84h-1.95a6.35 6.35 0 0 0-6.35 6.35v.36l54.63 54.12a6.35 6.35 0 0 0 6.21-6.35v-2.44z" style="mix-blend-mode:soft-light" opacity=".5" fill="#fff"/><ellipse cx="198.72" cy="190.17" rx="87.32" ry="9.71" fill="#f7d2e6"/><ellipse cx="209.6" cy="215.6" rx="17.55" ry="3.3" fill="#f7d2e6"/><ellipse cx="149.37" cy="205.21" rx="11.45" ry="2.15" fill="#f7d2e6"/><ellipse cx="242.13" cy="207.93" rx="11.45" ry="2.15" fill="#f7d2e6"/><ellipse cx="110.67" cy="191.24" rx="11.45" ry="2.15" fill="#f7d2e6"/><ellipse cx="128.42" cy="203.87" rx="4.83" ry=".91" fill="#f7d2e6"/><path d="M234 152.06a130.25 130.25 0 0 1 5.18-15.4 145.52 145.52 0 0 1 6.91-14.66 119.2 119.2 0 0 1 8.56-13.68l2.4-3.24 2.57-3.11 1.29-1.55 1.38-1.42 2.76-2.93a.51.51 0 0 1 .76.68l-2.62 3-1.31 1.5-1.21 1.58-2.44 3.17-2.23 3.3a117.28 117.28 0 0 0-7.9 13.77 143 143 0 0 0-6.21 14.6 127.66 127.66 0 0 0-4.46 15.13v.07a1.73 1.73 0 1 1-3.38-.75z" fill="#5cc0cb"/><path d="M237.72 143.93a24.65 24.65 0 0 1 5-5.6 24.25 24.25 0 0 1 6.61-4 24 24 0 0 1 7.8-1.78 26.87 26.87 0 0 1 4.08 0c1.36.09 2.68.37 4 .57a4 4 0 1 1-2 7.67l-.44-.17c-1-.37-1.91-.85-2.9-1.16a20.43 20.43 0 0 0-3-.76 18.63 18.63 0 0 0-6.34-.11 20.62 20.62 0 0 0-6.33 2 22.9 22.9 0 0 0-5.65 3.93.51.51 0 0 1-.78-.64z" fill="#5cc0cb"/><path d="M239.34 142.46a22.32 22.32 0 0 0-.39-6.76 22 22 0 0 0-2.46-6.54 21.69 21.69 0 0 0-4.55-5.64 24.33 24.33 0 0 0-2.91-2.27c-1-.7-2.11-1.24-3.19-1.86A3.61 3.61 0 1 0 223 126l.41.13c.88.27 1.83.47 2.71.8a18.5 18.5 0 0 1 2.58 1.16 16.87 16.87 0 0 1 4.56 3.48 18.67 18.67 0 0 1 3.38 5 20.74 20.74 0 0 1 1.81 6 .46.46 0 0 0 .92 0zm2.84-10.99a18.07 18.07 0 0 1 5-5.87 24.87 24.87 0 0 1 6.92-3.76l1.9-.61c.64-.18 1.29-.3 1.94-.45a34.49 34.49 0 0 1 3.94-.61c1.32-.13 2.64-.13 4-.19l4 .17a3.67 3.67 0 1 1-1.07 7.21l-.25-.07-3.3-.87c-1.1-.18-2.23-.43-3.35-.56a29.37 29.37 0 0 0-3.38-.2h-1.7l-1.69.17a21.51 21.51 0 0 0-6.54 1.91 16.43 16.43 0 0 0-5.51 4.2v.05a.51.51 0 0 1-.85-.55zm6.38-13.24a10.55 10.55 0 0 1 2.11-2.69c.39-.41.85-.74 1.28-1.11s.91-.67 1.39-1a24.34 24.34 0 0 1 6.16-2.77 39.78 39.78 0 0 1 6.6-1.4c1.11-.1 2.23-.22 3.35-.3l3.36-.1a2.92 2.92 0 1 1-.35 5.8h-.16l-3-.47c-1-.12-2-.2-3-.3a35.88 35.88 0 0 0-6 .14 21.58 21.58 0 0 0-5.85 1.4c-.47.19-.91.41-1.37.62s-.9.47-1.3.76a9.53 9.53 0 0 0-2.24 1.93v.06a.51.51 0 0 1-.84-.56zm8.19-12.08a21.1 21.1 0 0 1 3.42-2 26.2 26.2 0 0 1 3.83-1.55 27 27 0 0 1 4.11-.94 29.85 29.85 0 0 1 4.28-.33 2.3 2.3 0 0 1 2.56 2.23 2.72 2.72 0 0 1-2.78 2.34 3 3 0 0 1-.69-.07h-.06a22.76 22.76 0 0 0-3.35-.54 22 22 0 0 0-3.54 0 23.49 23.49 0 0 0-3.62.53 20.76 20.76 0 0 0-3.53 1.1.56.56 0 0 1-.72-.2.44.44 0 0 1 .09-.57z" fill="#5cc0cb"/><path d="M243.87 129.51a17.14 17.14 0 0 0-.27-7.38 21.87 21.87 0 0 0-3-6.72l-1.07-1.51c-.37-.49-.79-.93-1.19-1.4a29.47 29.47 0 0 0-2.61-2.6c-.92-.81-1.92-1.52-2.89-2.29l-3.1-2a3.67 3.67 0 0 0-4.93 1.18 3.41 3.41 0 0 0 .79 4.85 3.22 3.22 0 0 0 .63.31l.22.08 3 1.08c.94.45 1.94.85 2.86 1.35a25.38 25.38 0 0 1 2.67 1.65c.42.31.87.6 1.27.93l1.17 1a18.47 18.47 0 0 1 3.79 5 14.87 14.87 0 0 1 1.64 6.31v.06a.45.45 0 0 0 .5.44.54.54 0 0 0 .52-.34zM251 116.9a10 10 0 0 0 .27-3.26c0-.54-.12-1-.17-1.58s-.21-1-.34-1.54a20.76 20.76 0 0 0-2.54-5.67 33.26 33.26 0 0 0-3.75-4.9c-.72-.72-1.43-1.46-2.17-2.17l-2.31-2a2.87 2.87 0 0 0-4 .38 2.72 2.72 0 0 0 0 3.9 2.48 2.48 0 0 0 .39.28l.13.07 2.44 1.39c.79.5 1.55 1 2.34 1.54a30.13 30.13 0 0 1 4.19 3.62 18.07 18.07 0 0 1 3.22 4.46c.21.41.38.84.57 1.27s.33.87.42 1.33a8.63 8.63 0 0 1 .32 2.76v.07a.44.44 0 0 0 .46.47.55.55 0 0 0 .53-.42zm6.4-10.54a21.91 21.91 0 0 0-.42-4.23 27 27 0 0 0-1.15-4.2 27.7 27.7 0 0 0-1.83-4.08 30.66 30.66 0 0 0-2.51-3.85 2.52 2.52 0 0 0-3.62-.68 2.87 2.87 0 0 0-.25 3.88 3.13 3.13 0 0 0 .51.54 23.65 23.65 0 0 1 2.65 2.47 22.69 22.69 0 0 1 2.32 3 24.09 24.09 0 0 1 1.89 3.4 21.32 21.32 0 0 1 1.32 3.7.59.59 0 0 0 .65.47.49.49 0 0 0 .44-.42zm5.47-6.6a18.87 18.87 0 0 0 .13-3.66 23.23 23.23 0 0 0-.49-3.72 23.86 23.86 0 0 0-1.09-3.7 26.4 26.4 0 0 0-1.68-3.56 2.17 2.17 0 0 0-3-1 2.47 2.47 0 0 0-.66 3.29 2.7 2.7 0 0 0 .37.52 20.37 20.37 0 0 1 2 2.42 19.55 19.55 0 0 1 1.63 2.8 20.75 20.75 0 0 1 1.21 3.12 18.36 18.36 0 0 1 .7 3.31.51.51 0 0 0 .5.48.42.42 0 0 0 .38-.3zm.95-1.87a16.77 16.77 0 0 1 2.77-1.71 20.64 20.64 0 0 1 3.09-1.25 21.2 21.2 0 0 1 3.34-.78 23.46 23.46 0 0 1 3.49-.27 1.93 1.93 0 0 1 2.1 1.89 2.2 2.2 0 0 1-2.25 2 2.4 2.4 0 0 1-.57-.06 18.1 18.1 0 0 0-2.79-.51 17.38 17.38 0 0 0-2.88 0 18.44 18.44 0 0 0-2.94.43 16.32 16.32 0 0 0-2.86.92.45.45 0 0 1-.59-.17.38.38 0 0 1 .09-.49z" fill="#5cc0cb"/><path d="M264.52 96.78a25.53 25.53 0 0 1 1.65-3.6 31 31 0 0 1 7.78-9.3 2.55 2.55 0 0 1 3.19 4 2.65 2.65 0 0 1-.58.35 26.31 26.31 0 0 0-6.07 3.7 27.65 27.65 0 0 0-2.71 2.49 24.24 24.24 0 0 0-2.37 2.85.51.51 0 0 1-.9-.47z" fill="#5cc0cb"/><path d="M107 174.42a13.23 13.23 0 0 1-3.05-4.68 16.72 16.72 0 0 1-1.37-7.54c.42-5.76 4.53-10.64 4.59-16.42 0-4.07-.81-7.29.44-11.29 1.59-5.09 5.6-8.82 7.58-13.81a36.27 36.27 0 0 1 1.55-3.76c3.35-6.26 12.38-3.4 13.06 3.6.56 5.78-2.31 9.1-6.18 12.25-4.57 3.72-4.46 9.47-3.5 15.23.5 3-.59 5.75-1.59 8.5-1.13 3.1-3.33 5.66-3.94 9a13.69 13.69 0 0 0 .35 5.79 5.83 5.83 0 0 1 .3 2.1 3.22 3.22 0 0 1-1.87 2.4 5.58 5.58 0 0 1-5.71-.82 8.19 8.19 0 0 1-.66-.55z" fill="#70c7dc"/><path d="M115.35 176.07c-1.38-1.28-1.48-4.2-1.55-6.06-.35-9.09 10.23-14 7.8-23.74-1.72-6.92 1.77-9.83 5.86-8.17 3.06 1.24 3.24 6.63 3.19 9.67a21.44 21.44 0 0 1-4.51 13.07c-1.3 1.66-3 3.45-3.32 5.78s-.43 5.12-1.47 7.33-3.78 3.86-5.83 2.27zm-16.76-38.44a19.62 19.62 0 0 1 4.92 11c.17 4.44-1.41 8.61-1 13.12a22.5 22.5 0 0 0 1.2 6c.74 2 2 2.89 3 4.58 2.13 3.62-2.8 4.9-4.92 3.9-4.3-2-8.72-10.19-6.88-17.94a14.43 14.43 0 0 0-.61-8.29c-.85-2.34-2.43-4.3-3.21-6.65-.68-2.05-.24-4.85 1.36-6.26 2.15-1.91 4.31-1.25 6.14.54z" fill="#5cc0cb"/><path d="M112.88 177.35a.51.51 0 0 1-.38-.17c-.08-.09-7.77-8.82-3.16-19.05 4.51-10 5-15.19 4.45-22.4-.41-5 2.55-8 5.42-10.9a24.66 24.66 0 0 0 3.86-4.55.51.51 0 1 1 .88.53 25.46 25.46 0 0 1-4 4.75c-2.82 2.84-5.49 5.52-5.12 10.09.58 7.24 0 12.77-4.53 22.91-4.34 9.62 2.92 17.86 3 17.94a.51.51 0 0 1-.38.86z" fill="#4dbcc4"/><path d="M117.73 174.28a.51.51 0 0 1-.51-.49c0-.34-.27-8.29 3.6-13.54a20.1 20.1 0 0 0 3.73-18.51.51.51 0 0 1 1-.37 21.19 21.19 0 0 1-3.88 19.5c-3.64 5-3.39 12.8-3.39 12.88a.51.51 0 0 1-.49.53zm-15.21 0a.51.51 0 0 1-.41-.2c-.22-.29-5.42-7.14-3.63-17.91 1.7-10.22-4.41-15.07-4.47-15.12a.51.51 0 0 1 .63-.82c.27.21 6.66 5.25 4.86 16.11a23.33 23.33 0 0 0 3.43 17.11.51.51 0 0 1-.41.83z" fill="#5cc0cb" opacity=".5"/><path d="M124.88 172.49a1.84 1.84 0 0 0-1.88-1.69H96.31a1.84 1.84 0 0 0-1.83 1.69C94.19 176 94 184 97.64 186.85a1.69 1.69 0 0 0 1.05.33h22a1.69 1.69 0 0 0 1.05-.33c3.65-2.85 3.43-10.85 3.14-14.36z" fill="#e89ec6"/><path d="M123.93 183.53c-18.07 1-26-5.36-29.52-10.12-.23 3.82-.15 10.79 3.23 13.44a1.69 1.69 0 0 0 1.05.33h22a1.69 1.69 0 0 0 1.05-.33 7.37 7.37 0 0 0 2.19-3.32z" style="mix-blend-mode:multiply" fill="#e89ec6" opacity=".5"/><path d="M245.57 183.94a19.9 19.9 0 0 1-2.27-8.1 25.15 25.15 0 0 1 1.43-11.44c3.19-8.08 11.3-13.23 14-21.5 1.89-5.83 2.12-10.83 5.72-16 4.58-6.59 12-10.13 17.11-16.4a54.55 54.55 0 0 1 3.92-4.7c7.63-7.48 19.3.7 17.12 11-1.8 8.55-7.41 12-14.39 14.79-8.24 3.28-10.67 11.58-11.89 20.28-.64 4.56-3.43 8-6.1 11.48-3 3.95-7.33 6.62-9.72 11.15a20.59 20.59 0 0 0-2.11 8.46 8.77 8.77 0 0 1-.52 3.15 4.84 4.84 0 0 1-3.77 2.6 8.39 8.39 0 0 1-7.82-3.76 12.31 12.31 0 0 1-.71-1.01z" fill="#274899"/><path d="M294.13 113.53a.77.77 0 0 0-1.09-.06 37.09 37.09 0 0 1-7.59 4.8c-5.4 2.84-11 5.77-12.68 13.2-2.42 10.61-5.5 17.83-16.48 30.15-9.07 10.18-6.17 22.59-4.68 27.06a7 7 0 0 0 1.69.15c-1.26-3.44-4.92-16 4.15-26.18 11.13-12.5 14.4-20.19 16.83-30.83 1.53-6.73 6.57-9.37 11.9-12.17a38.3 38.3 0 0 0 7.9-5 .77.77 0 0 0 .05-1.12z" style="mix-blend-mode:soft-light" fill="#fff"/><path d="M253.12 182.42c-.79-3 1.69-7.22 3.26-9.9 7.66-13.06 26.87-10.42 32.22-26.3C292.4 135 299.89 134 304.14 140c3.17 4.48-1.4 12.2-4.2 16.42a35.68 35.68 0 0 1-18 14.28c-3.32 1.16-7.37 2.11-9.84 5.12s-5.19 6.8-8.63 9-8.76 2-10.21-2q-.09-.23-.14-.4z" fill="#e89ec6"/><path d="M258.06 182a.86.86 0 0 1-.28-1.15c.28-.48 7.06-11.87 17.18-15.77 18.25-6.38 21.79-22.45 21.82-22.61a.86.86 0 0 1 1.68.35c0 .17-3.78 17.18-22.91 23.87-9.54 3.68-16.23 14.92-16.3 15a.86.86 0 0 1-1.17.3z" style="mix-blend-mode:multiply" fill="#e89ec6" opacity=".5"/><path d="M137.63 157.2a14.24 14.24 0 0 1-2.11.24c.3-.31.39-.94 0-.65a10.37 10.37 0 0 1-1.54.72 7.7 7.7 0 0 1-2.65-.15c-.43 0-.78-.22-1 .18a1.4 1.4 0 0 0 0 1.08c.21.33.57.21 1 .2l1.36-.07a5.23 5.23 0 0 1 1.37-.13 9.82 9.82 0 0 0 2.22.35c.96.03 2.22-1.97 1.35-1.77z" fill="#f6ae99"/><path d="M133.34 157.3a.81.81 0 0 1 .43 0 2.51 2.51 0 0 1 .18 1.44c-.11.27-.37.18-.6.06s-.13-1.17-.01-1.5z" fill="#d4cae5"/><path d="M117.45 150.36s-.42 1.08 1.13 2.9 4.24 5.12 5.2 5.55 7.89.23 8.5.34 1 0 1.19-.46 0-1.44-.31-1.62-.54 0-1.12 0-6.3-.33-7.12-1.14c-.4-.4-3.5-5.26-3.91-5.91a2.06 2.06 0 0 0-3.56.34z" fill="#766baf"/><path d="M261.75 158.66c-.15-.2-.28-.11-.52-.05l-2.11.49-4.12 1.1a2.43 2.43 0 0 0-.68-1c-.45-.34-.89-.51-.84-.26a1.25 1.25 0 0 0 .47.68 2.68 2.68 0 0 1-1.7-.92c-.28-.15-.54.32 0 1.16a2.88 2.88 0 0 0 1.61 1.18 3.85 3.85 0 0 0 1.25.16l4.3-.17 1.5-.07c.17 0 .55 0 .7-.06.36-.24.4-1.12.37-1.49a1.64 1.64 0 0 0-.23-.75z" fill="#f6ae99"/><path d="M261.75 158.66c-.15-.2-.28-.11-.52-.05l-1.65.38a3.32 3.32 0 0 1-2.71 2.15l2.53-.1 1.5-.07c.17 0 .55 0 .7-.06.36-.24.4-1.12.37-1.49a1.63 1.63 0 0 0-.22-.76z" style="mix-blend-mode:multiply" fill="#f6ae99" opacity=".5"/><path d="M268.43 152.32c-1.12-.14-2.26.13-4.19 3.54a4.9 4.9 0 0 1-4.35 2.8s-.17 2 .34 2.53c0 0 3.1.2 4.49-.55s4.63-4.89 5.29-5.79-.46-2.4-1.58-2.53z" fill="#3975ba"/><path d="M135.12 191.15h48.13a6.35 6.35 0 0 0 6.35-6.35v-17.45a9.26 9.26 0 1 1 0-13.24v-17.45a6.35 6.35 0 0 0-6.35-6.35h-18.77a9.26 9.26 0 1 0-10.6 0h-18.76a6.35 6.35 0 0 0-6.35 6.35v48.14a6.35 6.35 0 0 0 6.35 6.35z" fill="#55c3ec"/><path d="M258.78 185.33V137.2a6.35 6.35 0 0 0-6.35-6.35H235a9.26 9.26 0 1 1-13.24 0h-17.47a6.35 6.35 0 0 0-6.35 6.35V156a9.26 9.26 0 1 0 0 10.6v18.77a6.35 6.35 0 0 0 6.35 6.35h48.13a6.35 6.35 0 0 0 6.36-6.39z" fill="#4272b8"/><path d="M195.69 110.35a4.7 4.7 0 0 0-.39 1.55c-.06.1-.24-.22-.54-.52s-.12.45.07.75a4.28 4.28 0 0 1 .38 1c-.27 1.24-.57 2.48-.92 3.7-.14.51-.58 1.15 0 1.48.28.17 1 .37 1.32.08s.19-1.18.22-1.53q.19-1.81.26-3.63a2.57 2.57 0 0 0 .58-1.78c-.19-.82-.67-1.66-.98-1.1z" fill="#f6ae99"/><path d="M194.82 113.81s0-.52.21-.58a2.56 2.56 0 0 1 1.15.11c.13.11 0 .58 0 .58s-.9.37-1.36-.11z" fill="#8f82bc"/><path d="M188.52 125.54s-2.95 1.42-2.83 2.89a2.72 2.72 0 0 0 1.94 2.41c.84.33 2-.59 3.89-2.34s3.49-3.42 3.92-6.13c.26-1.94.78-6.28.73-6.76-.08-.63.32-1 .3-1.41s-1.74-.58-2.07-.21c-.11.21 0 .37 0 1s-1.4 8.08-5.88 10.55z" fill="#223a7a"/><path d="M113.36 187.23s-.39.68-.25 1a3.21 3.21 0 0 0 2.3 1.45c1.08 0 1.17.78 1 1a7.53 7.53 0 0 1-3.51 0 13.91 13.91 0 0 1-2.34-1.86 1.68 1.68 0 0 1 1.17-1.29l.89-1z" fill="#f6ae99"/><path d="M110.52 188.84a13.91 13.91 0 0 0 2.34 1.86 7.53 7.53 0 0 0 3.51 0c.21-.18.11-.92-1-1a2.66 2.66 0 0 1-1.27-.45c-.47.32-.88.05-1.62-.55a2.08 2.08 0 0 1-.82-1.18 1.68 1.68 0 0 0-1.14 1.32z" fill="#274899"/><path d="M116.37 190.7a.4.4 0 0 0 0-.43c-.41.36-.56-.15-.72.06s-1 .23-.82 0 .13-.41-.1-.29a1.91 1.91 0 0 1-1.73.16 9 9 0 0 1-2.37-1.77 3.66 3.66 0 0 0-.16.4 13.91 13.91 0 0 0 2.34 1.86 7.53 7.53 0 0 0 3.56.01z" style="mix-blend-mode:multiply" fill="#274899" opacity=".5"/><path d="M107.85 188s-.39.68-.25 1a3.21 3.21 0 0 0 2.3 1.45c1.08 0 1.17.78 1 1a7.53 7.53 0 0 1-3.51 0 13.91 13.91 0 0 1-2.34-1.86 1.68 1.68 0 0 1 1.17-1.29l.89-1z" fill="#f6ae99"/><path d="M105 189.62a13.92 13.92 0 0 0 2.34 1.86 7.53 7.53 0 0 0 3.51 0c.21-.18.11-.92-1-1a2.66 2.66 0 0 1-1.27-.45c-.47.32-.88.05-1.62-.55a2.08 2.08 0 0 1-.82-1.18 1.68 1.68 0 0 0-1.14 1.32z" fill="#274899"/><path d="M119.37 173.08a2.23 2.23 0 0 0 0-.29v-.22l-.1-.45-.42-1.71-.86-3.36-1.75-6.7-5.42 1.89a8.4 8.4 0 0 0 .55 4c.84 2.7 2.71 5.18 4.37 7.44a.2.2 0 0 1 0-.14 6.64 6.64 0 0 1-.79 3 24.18 24.18 0 0 0-1 2.85c-.35 1.42-1.19 5.23-1.25 5.66-.22.64-.43 1.28-.65 1.91l1.43.63c1.09-2 2.13-4.11 3.13-6.21.5-1.05 1-2.11 1.44-3.2a25 25 0 0 0 1.24-3.49 5.93 5.93 0 0 0 .18-1.19 3.25 3.25 0 0 0-.1-.42z" fill="#d53d8e"/><path d="M110.35 160c-.12-.22-2.19 1.24-2.32 5.38a55 55 0 0 0 .82 9.27c0 .25-.11.58-.16.86l-.34 1.77-.9 3a8.84 8.84 0 0 0-.3 1.4l-.82 6.22 1.5.42 2.49-6.75 1.24-3.38.62-1.69c.11-.29.2-.54.31-.87l.09-.34.07-.27.11-.44 3.44-14z" fill="#e46aa5"/><path d="M114.42 162.67c-.17-.14-4.32-.54-4.32-.54s-.82.19-1.59.41a9.92 9.92 0 0 0-.47 2.8 8.46 8.46 0 0 0 4.92 2.1c.54.21-.58 7.35-.87 8.39s-3.57 11.58-5.72 11.83v.28l1.5.42 2.49-6.75 1.24-3.38.62-1.69c.11-.29.2-.54.31-.87l.09-.34.07-.27.11-.44 2.6-10.59c-.33-.47-.87-1.26-.98-1.36z" style="mix-blend-mode:multiply" fill="#e46aa5" opacity=".5"/><path d="M108.38 162.67s-.73 1.74-.52 2 2.25 1.82 7 1.6c1.83 0 2.74-.52 2.87-.71s-.3-1-.58-1.26-4.21 1.1-8.77-1.63z" fill="#d4cae5"/><path d="M122.4 147.7a9.69 9.69 0 0 1-2.63 1.26c.6.7 1.32 1.63 1.81 1.66s.9-1.35 1.81-2c-.08-.71-.99-.92-.99-.92z" fill="#f6ae99"/><path d="M122.4 147.7s-.47.31-1.05.62a.53.53 0 0 0 .22.3 3.22 3.22 0 0 0 1.43.31l.07-.08a4.6 4.6 0 0 0 .13-.69 1.67 1.67 0 0 0-.8-.46z" style="mix-blend-mode:multiply" fill="#f6ae99" opacity=".5"/><path d="M127.2 146.56c0 .14-.82 2.82-1.81 3.38s-2.45-.44-3.4-2.53 1.41-4 3-3.79a2.51 2.51 0 0 1 2.21 2.94z" fill="#f6ae99"/><path d="M108.08 163.47c-.27-.35 0-1.46.33-1.79a45.76 45.76 0 0 0 5.61-7.52c1.77-3.39 3.4-6.43 6.13-5.64 2.31.67 3.67 4.19 2.84 6.65-.69 2-3 .44-4.37 2.14s-1.29 4.85-1.11 6.41c.06.54.15 1.15-.38 1.26-2.44.52-7.53.5-9.05-1.51z" fill="#8f82bc"/><path d="M120 148.64s1-.83 1.3-.56a9.13 9.13 0 0 1 1.4 1.69 2.61 2.61 0 0 1-.22 1.57c-.13.21-2.16-2.07-2.48-2.7z" fill="#d4cae5"/><path d="M120.67 153.88c0-.08-3.61-1.92-3.71-2a7.16 7.16 0 0 0-1.53-.32c-.48.79-.94 1.67-1.42 2.58a22 22 0 0 1-1.39 2.25 13.45 13.45 0 0 0 3.26-.6 1.25 1.25 0 0 1 1.44.54c.21.34.39.61.39.61-.34.78-.64 1.58-.9 2.4a8.76 8.76 0 0 0-.42 1.72 4.63 4.63 0 0 1-.54 2.12 3.33 3.33 0 0 1-.42.49 3.27 3.27 0 0 1-3 1 27.16 27.16 0 0 1-3.88-.77c1.9 1.55 6.36 1.54 8.59 1.06.54-.12.45-.72.38-1.26-.18-1.56-.32-4.61 1.11-6.41.83-1 2-.84 3-1-.47-1.12-.98-2.36-.96-2.41z" style="mix-blend-mode:multiply" fill="#8f82bc" opacity=".5"/><path d="M136 162a14.23 14.23 0 0 1-2.12-.12c.35-.25.54-.86.09-.64a10.37 10.37 0 0 1-1.64.44 7.1 7.1 0 0 1-2.27-.52c-.63-.17-1.47-.71-1.89 0-.14.24-.26.92 0 1.14s1.07.17 1.34.21l1.36.17a5.27 5.27 0 0 1 1.38.11 9.82 9.82 0 0 0 2.13.73c.89.13 2.47-1.58 1.62-1.52z" fill="#f6ae99"/><path d="M131.72 161.32a.81.81 0 0 1 .42.06 2.51 2.51 0 0 1-.07 1.45c-.16.24-.39.11-.61 0s.08-1.21.26-1.51z" fill="#d4cae5"/><path d="M117.27 151.74s-.6 1 .61 3.05 3.3 5.77 4.16 6.36 7.73 1.58 8.31 1.8 1 .21 1.25-.25.27-1.41 0-1.65-.53-.09-1.11-.17-6.15-1.41-6.81-2.36c-.32-.47-2.54-5.79-2.83-6.49a2.06 2.06 0 0 0-3.58-.29z" fill="#8f82bc"/><path d="M130.35 162.32c-.95-.14-7.26-1.14-8.08-2.33s-2.88-4.21-2.25-5a11.13 11.13 0 0 0 1.14-2.13l-.33-.8a2.06 2.06 0 0 0-3.56-.3s-.6 1 .61 3.05 3.3 5.77 4.16 6.36 7.73 1.58 8.31 1.8 1 .21 1.25-.25a2.44 2.44 0 0 0 .14-.64 1.69 1.69 0 0 1-1.39.24z" style="mix-blend-mode:multiply" fill="#8f82bc" opacity=".5"/><path d="M125.15 146.69s2.16.76 3-.64-1.88-4.72-4.48-3.52a19.42 19.42 0 0 1-6.72 2.17c-2.55.17-4.89-.56-7.35.58-4 1.87-4.28 8.31.07 10.06a6.48 6.48 0 0 0 3.22.27 12.14 12.14 0 0 0 6.17-2.54 9.69 9.69 0 0 0 2.75-3.6c.22-.51.55-3.41 1.38-3.08.61.24.48.91.37 1.3s.7-.09 1-.6.59-.4.59-.4z" fill="#274899"/><path d="M128.15 146.05a1.12 1.12 0 0 0 .14-.48c-1.1 1.18-3.88.54-4.23.05s-1.43-1.48-2 0a8.63 8.63 0 0 1-9.14 5.43c-4.41-.41-5.14-2.86-5.2-4.21-2 2.66-1.51 7.09 2 8.5a6.48 6.48 0 0 0 3.22.27 12.14 12.14 0 0 0 6.17-2.54 9.69 9.69 0 0 0 2.75-3.6c.22-.51.55-3.41 1.38-3.08.61.24.48.91.37 1.3s.7-.09 1-.6.63-.41.63-.41 2.07.77 2.91-.63zm-17.28 45.43a.4.4 0 0 0 0-.43c-.41.36-.56-.15-.72.06s-1 .23-.82 0 .13-.41-.1-.29a1.91 1.91 0 0 1-1.73.16 9 9 0 0 1-2.37-1.77 3.66 3.66 0 0 0-.16.4 13.91 13.91 0 0 0 2.34 1.86 7.53 7.53 0 0 0 3.56.01z" style="mix-blend-mode:multiply" fill="#274899" opacity=".5"/><path d="M201.41 64.22c-.49-.26-1.4-.95-1.28-1.12s.8-.36.8-.36-.1-.23-.85-.15-1.07.13-1.07.13c-1.17-.71-2.34-1.44-3.48-2.2-.57-.38-1.15-.77-1.63-1.16a1.38 1.38 0 0 1-.26-.26l-.18-.31c-.15-.26-.3-.57-.45-.87-.41-.86-.64-2.37-1.84-2.1a2.45 2.45 0 0 0-.75.26c-.61.37-.49.77-.16 1.28s.68 1 1 1.56c.2.3.41.59.65.9l.18.23.27.29a3.14 3.14 0 0 0 .54.39c.66.39 1.28.68 1.92 1 1.24.58 2.48 1.12 3.73 1.65a2.38 2.38 0 0 0 2.33 1.74c1.28.14 1.02-.64.53-.9z" fill="#f6ae99"/><path d="M192.43 59.29a2.51 2.51 0 0 1 .35-1.77c-.32-.85-.64-1.9-1.66-1.67a2.45 2.45 0 0 0-.75.26c-.61.37-.49.77-.16 1.28s.68 1 1 1.56c.2.3.41.59.65.9l.18.23.27.29a3.14 3.14 0 0 0 .54.39c.66.39 1.28.68 1.92 1l1.29.58c-.28-.19-3.38-2.14-3.63-3.05z" style="mix-blend-mode:multiply" fill="#f6ae99" opacity=".5"/><path d="M190 58a3.92 3.92 0 0 0 3-1.33s-1.35-2.75-2-4.37-1.85-1.89-2.9-1.25-1 1.58-.22 2.93S190 58 190 58z" fill="#d25299"/><path d="M266.5 69l-36.19-31.7a6.35 6.35 0 0 0-9 .59L209.84 51a9.26 9.26 0 1 1-8.73 10l-11.5 13.12a6.35 6.35 0 0 0 .59 9l14.11 12.37a9.26 9.26 0 1 0 8 7l14.11 12.37a6.35 6.35 0 0 0 9-.59L267.09 78a6.35 6.35 0 0 0-.59-9z" fill="#e89ec6"/><path d="M167 66.09s-.78 0-1.45-.14-1.21-.51-1.43-.19a9.36 9.36 0 0 0 0 3.58 1.66 1.66 0 0 0 1.8.7c.42-.2.22-.62-.24-.84s-.34-1.9-.15-2.1h1.79zm16.1 1.57a6 6 0 0 0-.15.68 1.1 1.1 0 0 0 .34.8 2 2 0 0 0 1.24.63c.74.05 1.08 0 1.11.36a.65.65 0 0 1-.27.6 10.12 10.12 0 0 1-1.64 0 6 6 0 0 1-2.32-.48c-.55-.35-.47-.59-.23-1.15a16.83 16.83 0 0 1 1.11-1.84z" fill="#f6ae99"/><path d="M188.47 57.1v-.26a1.91 1.91 0 0 0 0-.2 1.88 1.88 0 0 0-.78-1.06l-.19-.12-.17-.09-.26-.13a42.29 42.29 0 0 0-4.72-1.75 17.2 17.2 0 0 0-4.82-.25 3.36 3.36 0 0 0-1.64.18c-.32.23-.27.79-.32 1.16l-.34 2.24h.1a4.22 4.22 0 0 0 3.2 1.73 29.35 29.35 0 0 0 6.6-.38c-.07.25-.14.51-.22.77-.29.94-.63 1.9-1 2.85l-1.06 2.88-.53 1.45-.26.74a8.74 8.74 0 0 0-.25.84l1.43.36c.06-.13.18-.38.29-.59l.35-.66.73-1.34 1.49-2.7c.49-.91 1-1.82 1.45-2.77.23-.48.46-1 .68-1.52a4.36 4.36 0 0 0 .29-1.09 1.72 1.72 0 0 0-.05-.29z" fill="#3a7bbe"/><path d="M180.26 55.85V54.2l-5.71-1a12.5 12.5 0 0 0-.3 6.09A37.58 37.58 0 0 0 177 66h-3.8l-3.06-.11-1.55-.05h-2.6l.1 1.47 3.82.51 3 .57c1 .19 2 .37 3.09.51.53.07 1.06.14 1.65.17a4.37 4.37 0 0 0 1.13-.06l.28-.08.16-.07h.08l.17-.11a1.88 1.88 0 0 0 .76-1.07l.05-.22v-.48c.07-.66.08-1.18.1-1.72s0-1.06 0-1.59v-3.12l-.1-3.1z" fill="#3f95d2"/><path d="M184.53 69.77a1.9 1.9 0 0 1-1-.43.61.61 0 0 1-.53.11c-.53-.12-.84-.74-1-1a.54.54 0 0 0-.38-.2 7.26 7.26 0 0 0-.46.83c-.24.56-.32.8.23 1.15a6 6 0 0 0 2.32.48 10.12 10.12 0 0 0 1.64 0 .65.65 0 0 0 .27-.59c-.01-.33-.34-.3-1.09-.35zm-18.8-.58c-.23-.11-.31-.58-.32-1a.87.87 0 0 1-.37-.07c-.38-.16-.2-1.51 0-1.68a1 1 0 0 0 .2-.53c-.41-.14-.9-.36-1.08-.1a9.36 9.36 0 0 0 0 3.58 1.66 1.66 0 0 0 1.8.7c.43-.26.23-.68-.23-.9z" fill="#bd2f87"/><path d="M178.33 69l.42-.06.28-.08.16-.07h.08l.17-.11a1.88 1.88 0 0 0 .76-1.07l.05-.22v-.48c.07-.66.08-1.18.1-1.72s0-1.06 0-1.59v-3.12l-.1-3.1-.06-1.55v-1.65l-5.71-1a12.72 12.72 0 0 0-.38 1.64c.72 1.15 2.61 4 3.83 4.9 1.22 1.1 1.94 4 1.81 5.91-.13 1.64-.44 2.83-1.41 3.37z" style="mix-blend-mode:multiply" fill="#3f95d2" opacity=".5"/><path d="M189.45 50.49a6.54 6.54 0 0 0 3.36.17c-.14.55-.29 1.67-.29 1.67h-2.79c-.73 0-.28-1.84-.28-1.84z" fill="#f6ae99"/><path d="M185.42 48.47a18.87 18.87 0 0 0-9.59 3.05s-.9.77-1.45 1.26a.64.64 0 0 0-.07.88 22.8 22.8 0 0 0 6.16 5.34c.68-.86 4.77-3.21 7.3-3.27s3-1.29 3.08-3.2c.15-3.16-2.85-4.11-5.43-4.06z" fill="#e46aa5"/><path d="M191.06 50.67a.18.18 0 0 0-.13-.17l-.65-.17a.18.18 0 0 0-.22.13 5 5 0 0 0 .13 2.71.17.17 0 0 0 .22.11.93.93 0 0 0 .65-.58 9 9 0 0 0 0-2.03z" fill="#f6c6de"/><path d="M190.26 54.72a4.08 4.08 0 0 1-4.26-1.18c-.86 2.11-2.51 2.7-4.77 2.76-3.16 0-5.86-2.35-6.92-3.43a.63.63 0 0 0 0 .79 22.8 22.8 0 0 0 6.16 5.34c.68-.86 4.77-3.21 7.3-3.27a2.9 2.9 0 0 0 2.49-1.01z" style="mix-blend-mode:multiply" fill="#e46aa5" opacity=".5"/><path d="M194.23 68.67c-.43-.34-1.21-1.18-1.07-1.32a2.42 2.42 0 0 1 .85-.22s-.06-.25-.81-.3-1.08-.06-1.08-.06c-.78-1.14-1.54-2.3-2.27-3.47-.36-.58-.72-1.18-1-1.74a1.38 1.38 0 0 1-.13-.34v-1.35c0-.63.26-2-.28-2.37-.39-.26-1.75-.58-2.07 0-.13.22.12 1 .16 1.26q.1.67.21 1.33c.06.35.12.7.21 1.09l.07.29c0 .12.08.25.12.37a3.14 3.14 0 0 0 .33.58c.44.63.88 1.16 1.34 1.7.91 1.07 1.84 2.11 2.78 3.13a2.39 2.39 0 0 0 2 2.22c1.2.36 1.07-.47.64-.8z" fill="#f6ae99"/><path d="M187.5 61.13c-.12-.9.81-1.73 1.19-2 0-.62 0-1.32-.33-1.56s-1.75-.58-2.07 0c-.13.23.12 1 .16 1.26q.1.67.21 1.33c.06.35.12.7.21 1.09l.07.29c0 .12.08.25.12.37a3.14 3.14 0 0 0 .33.58c.44.63.88 1.16 1.34 1.7s.79.92 1.19 1.37c-.14-.26-2.27-3.34-2.42-4.43z" style="mix-blend-mode:multiply" fill="#f6ae99" opacity=".5"/><path d="M185.92 58.54a3.92 3.92 0 0 0 3.22 0s-.14-3.06-.11-4.81-.94-2.47-2.16-2.3-1.53 1.05-1.37 2.6.42 4.51.42 4.51z" fill="#e46aa5"/><path d="M185.47 53.71v.31c.16 1.55.43 4.51.43 4.51a3.92 3.92 0 0 0 3.22 0v-.83c-2.35-.17-3.29-2.46-3.65-3.99z" style="mix-blend-mode:multiply" fill="#e46aa5" opacity=".5"/><path d="M195.78 52.94c-.11.07-2.16 1.42-3.15 1.24s-1.39-1.7-.83-3.65 3.2-1.88 4.2-.83a2.22 2.22 0 0 1-.22 3.24z" fill="#f6ae99"/><path d="M199.11 52.57a4 4 0 0 1-1.25-.69s1.22-1.07.49-1.52a3 3 0 0 0-1.31-.49s.92-1.23.21-1.46-1.12.14-1.37 0-3.58-.41-4.51 1.59a.73.73 0 0 0 .5 1 .47.47 0 0 0 .4-.1c.31-.29.95-.69 1.35-.37s.23.89-.26 1.2.63.59 1.37.12c0 0 1 2.77 2.46 2.61s2.69-1.62 1.92-1.89z" fill="#274899"/><path d="M199.34 53c-1.84 1-3.89-1.56-4-2.08a1.41 1.41 0 0 0-1.74-1 2.83 2.83 0 0 1-1.85-.49 2.28 2.28 0 0 0-.36.55.73.73 0 0 0 .5 1 .47.47 0 0 0 .4-.1c.31-.29.95-.69 1.35-.37s.23.89-.26 1.2.63.59 1.37.12c0 0 1 2.77 2.46 2.61a2.58 2.58 0 0 0 2.13-1.44z" style="mix-blend-mode:multiply" fill="#274899" opacity=".5"/><path d="M188.81 123.33s.45 2.47-.36 3 2.58.13 2.58.13a11.66 11.66 0 0 1-.71-3.45c-.37-.25-1.51.32-1.51.32z" fill="#f6ae99"/><path d="M190.48 124.53a4.44 4.44 0 0 1-.16-1.51c-.37-.25-1.51.32-1.51.32a7.44 7.44 0 0 1 .06 2.17 2.9 2.9 0 0 0 1.61-.98z" style="mix-blend-mode:multiply" fill="#f6ae99" opacity=".5"/><path d="M184.42 166.19a2.16 2.16 0 0 1-1.24-1.24l.47-.82-.74-.41-.47.82a4.21 4.21 0 0 0-.8 1.06c-.31.61.19.78.19.78a12.78 12.78 0 0 0 3.37 1.07l.07-.23c.06-.22.11-.66-.85-1.03z" fill="#f6ae99"/><path d="M181.82 166.39a12.77 12.77 0 0 0 3.37 1.07l.07-.23c.07-.23.12-.66-.85-1a2.16 2.16 0 0 1-1.24-1.24.6.6 0 0 1-.74-.41 4.22 4.22 0 0 0-.8 1.06c-.3.58.19.75.19.75z" fill="#3e338a"/><path d="M185.27 167.23a9.3 9.3 0 0 1-3.73-1.3.45.45 0 0 0 .28.5 12.77 12.77 0 0 0 3.37 1.07z" fill="#e3cfb7"/><path d="M186.44 136.89a29 29 0 0 0-.91 6.17c.14 2 1 7.29 1 7.29v.54a6.05 6.05 0 0 1-.37 1.32l-.55 1.7-1.1 3.39-2 6.84 1.19.45 3.28-6.34 1.64-3.17.82-1.58.41-.79a4.65 4.65 0 0 0 .47-1.21l2.32-14.14z" fill="#6b63aa"/><path d="M183.26 165.46a.06.06 0 0 0 .07 0l.08-.06-.07-.11-.1.08a.06.06 0 0 0 0 .09zm.29.27a.06.06 0 0 0 .07 0l-.09-.09a.06.06 0 0 0 .02.09zm.33.27a.06.06 0 0 0 .07 0h.06l-.11-.08a.06.06 0 0 0 0 .09z" fill="#e3cfb7"/><path d="M192.59 137.34l-6.15-.44a29 29 0 0 0-.91 6.17c0 .56.14 1.4.25 2.31a7.11 7.11 0 0 0 3.16 2.24 3.46 3.46 0 0 1 .53 2.47 6.8 6.8 0 0 1-.43 1.61 41.87 41.87 0 0 1-1.49 4.45 26.59 26.59 0 0 1-3.25 6 6.17 6.17 0 0 1-1.75 1.66l-.1.33 1.19.45 3.28-6.34 1.64-3.17.82-1.58.41-.79a4.65 4.65 0 0 0 .47-1.21z" style="mix-blend-mode:multiply" fill="#6b63aa" opacity=".5"/><path d="M195.17 165.63a2.16 2.16 0 0 1-1.61-.68l.13-.94-.84-.1-.13.94a4.21 4.21 0 0 0-.34 1.29c-.06.68.47.65.47.65a12.77 12.77 0 0 0 3.53-.28v-.24c-.05-.27-.17-.66-1.21-.64z" fill="#f6ae99"/><path d="M192.84 166.79a12.77 12.77 0 0 0 3.53-.28v-.24c0-.24-.14-.66-1.17-.64a2.16 2.16 0 0 1-1.61-.68.6.6 0 0 1-.84-.1 4.21 4.21 0 0 0-.34 1.29c-.09.68.43.65.43.65z" fill="#3e338a"/><path d="M196.35 166.27a9.3 9.3 0 0 1-3.94.2.45.45 0 0 0 .44.36 12.77 12.77 0 0 0 3.53-.28z" fill="#e3cfb7"/><path d="M197.09 149.57c0-.12-.06-.26-.1-.37l-.06-.22-.26-.88c-.18-.58-.37-1.15-.56-1.73q-.57-1.71-1.18-3.39c-.81-2.25-1.65-4.46-2.53-6.69l-5.74 2.63a9.82 9.82 0 0 0 .88 4.52c1 1.79 5.49 6.43 5.49 6.43l.21.4.1.19.06.09a.69.69 0 0 1 0 .1v.38l-.06.88-.12 1.75-.24 3.5-.48 7 1.17.17 1.76-6.83.88-3.42.44-1.71.22-.86.06-.21v-.27a4 4 0 0 0 .06-.77 4 4 0 0 0 0-.69z" fill="#8f82bc"/><path d="M193 148.38a23.26 23.26 0 0 1-1.41-2.34c-.38-.78-1.2-2.36-.46-3.16a15.39 15.39 0 0 1 3-2.12q-.67-1.78-1.36-3.57l-1.1-.56-5 2.28a9.82 9.82 0 0 0 .88 4.52c1 1.79 5.49 6.43 5.49 6.43l.21.4.1.19.06.09v.49l-.06.88-.12 1.75-.24 3.5-.48 7h.25c.37-3.78.76-7.55 1.09-11.33a6.89 6.89 0 0 0 .08-2.71 4.37 4.37 0 0 0-.3-.68c-.19-.29-.43-.68-.63-1.06z" style="mix-blend-mode:multiply" fill="#8f82bc" opacity=".5"/><path d="M190.67 119.4c.08.13 1.61 2.45 1.4 3.57s-1.93 1.58-4.13.95-2.14-3.68-.95-4.73a2.51 2.51 0 0 1 3.68.21z" fill="#f6ae99"/><path d="M188.94 116.92s1.19-1.86 1.94-.14-1.53 3.19-1.53 3.19c.91 1.82.26 2.31.26 2.31s-.39-.75-.72-.7-.63.76 0 1.28A1.19 1.19 0 0 1 188 125a1.16 1.16 0 0 1-.82-.66s-1.29 0-1.67-.9 0-1.35 0-1.35a2.14 2.14 0 0 1-1-1.55 1.37 1.37 0 0 1 .74-1.25s-.3-1 .22-1.51a1.79 1.79 0 0 1 1.43-.3s.12-1 .88-1a1.55 1.55 0 0 1 1.16.44z" fill="#3e338a"/><path d="M194.29 139.55c-.16-.87-.41-2.32-.57-3.68a38.22 38.22 0 0 1 0-6.17 4 4 0 0 0-4.17-4.36 3.63 3.63 0 0 0-3.64 3.49 109.35 109.35 0 0 1-.49 11.54.62.62 0 0 0 .53.66 20 20 0 0 0 7.72-.4.94.94 0 0 0 .62-1.08z" fill="#274899"/><path d="M191.68 125.85c-.2-.83-4.76-.68-6.58-.52-2.63.23-1 1.08-1 1.41s-1 .85-1.38 1.56-.41 3.92.65 4.56 4.1-.47 4.92-3 3.35-3.86 3.39-4.01z" fill="#274899"/><path d="M191.68 125.85c0-.16-.25-.29-.57-.38-.68.69-2.72.9-3.34 1.15s.1 1.33-.24 2.31a3.22 3.22 0 0 1-3 2.36 2.43 2.43 0 0 1-2-1.17c0 1.12.25 2.37.88 2.75 1.07.65 4.1-.47 4.92-3s3.31-3.87 3.35-4.02z" style="mix-blend-mode:multiply" fill="#274899" opacity=".5"/><path d="M201.27 111.41a4.7 4.7 0 0 0-.6 1.48c-.07.09-.21-.25-.47-.59s-.18.43 0 .75a4.28 4.28 0 0 1 .24 1.09c-.44 1.19-.9 2.38-1.41 3.54-.21.48-.73 1.06-.24 1.46.26.21 1 .51 1.3.26s.35-1.14.43-1.48q.44-1.77.75-3.56a2.57 2.57 0 0 0 .82-1.68c-.09-.89-.4-1.78-.82-1.27z" fill="#f6ae99"/><path d="M199.93 114.71s.1-.51.29-.54a2.56 2.56 0 0 1 1.12.27c.11.13-.12.57-.12.57s-.89.25-1.29-.3z" fill="#8f82bc"/><path d="M192.09 125.48s-3.11 1-3.19 2.47a2.72 2.72 0 0 0 1.6 2.65c.78.44 2-.32 4.17-1.79s3.93-2.91 4.72-5.54c.52-1.89 1.63-6.12 1.64-6.59 0-.63.46-1 .49-1.36s-1.64-.82-2-.49c-.14.19 0 .37-.16 1s-2.53 7.81-7.27 9.65z" fill="#274899"/><path d="M201.52 115.32a.23.23 0 0 0-.1-.17 2 2 0 0 0-.77 1.15 16.13 16.13 0 0 1-.92 3.94 26.4 26.4 0 0 1-1.11 3.6 9.55 9.55 0 0 1-5 4.39 5.3 5.3 0 0 1-4.72-.38v.1a2.72 2.72 0 0 0 1.6 2.65c.78.44 2-.32 4.17-1.79s3.93-2.91 4.72-5.54c.52-1.89 1.63-6.12 1.64-6.59-.03-.68.46-.98.49-1.36zM193.63 132c.11.23-.13 1-.18 1.27-.1.51-.24 1-.38 1.51-.54 1.85-.74 3.92-2.3 5.24a3.44 3.44 0 0 1-2.52.61c-.22 0-2.84 0-2.84-.25a.61.61 0 0 0 .52.64 20 20 0 0 0 7.72-.4.94.94 0 0 0 .64-1.08c-.16-.87-.41-2.32-.57-3.68a20.78 20.78 0 0 1-.09-3.86z" style="mix-blend-mode:multiply" fill="#274899" opacity=".5"/><path d="M190.88 116.79c-.23-.52-.5-.71-.76-.73.19.68.53 2.59-1.36 3.28 0 .55-.42 1.56-1.24 1.67.28.85.23 2.29-1.07 2.24-.34-.09-.76-.09-.94-1.14 0 0-.38.41 0 1.35s1.67.9 1.67.9a1.16 1.16 0 0 0 .82.66 1.19 1.19 0 0 0 .92-2.15c-.66-.52-.36-1.23 0-1.28s.72.7.72.7.65-.49-.26-2.31c-.03.02 2.25-1.47 1.5-3.19z" style="mix-blend-mode:multiply" fill="#3e338a" opacity=".5"/><path d="M147.5 21.79a23.48 23.48 0 0 0-2 2.52c-2.48 3.53-4 9.09-2.15 13.21 2.52 5.73 9.45 5.1 14.28 3a33.13 33.13 0 0 0 11.35-8.2 16.77 16.77 0 0 0 3.88-6.44 8.75 8.75 0 0 0-6.64-11.09c-6.86-1.46-14.02 1.95-18.72 7z" fill="#c8e7f5"/><path d="M204.62 130.85h-.32a6.35 6.35 0 0 0-6.35 6.35v2l53 52.51h1.48a6.35 6.35 0 0 0 6.35-6.35v-.83zm32 10.64a9.29 9.29 0 0 1-3 3.44l25.15 24.91v-6.4zm-15.92-9.37a9.34 9.34 0 0 1 1-1.27h-2.33zm17.43 59.57h5.03l-45.22-44.8v4.98l40.19 39.82z" style="mix-blend-mode:soft-light" opacity=".5" fill="#fff"/><path d="M243.2 194.74a41 41 0 0 0 .26-4.83c-.62-.37-1.86-.06-2.52 0s-.84.25-.8.86.14 1.37.21 2.05l.21 2v.32l4 10.68 1-.28z" fill="#f6ae99"/><path d="M241 189.54a6.23 6.23 0 0 0-1.35-.14c-.54 0-1.51.06-1.8.61a6 6 0 0 0-.14 1.88l-.18 2.38v.24l1.6 11.28 1.05-.07v-11.16l.29-1.29c-.05-.5.63-1.54.81-2s.67-1.12.29-1.5a1.29 1.29 0 0 0-.57-.23z" fill="#f6ae99"/><path d="M240.23 205.21a1.1 1.1 0 0 1 .34.91 17.22 17.22 0 0 1-.16 1.82h-.55v-1.21l-1.17 1.21h-1.52c-.37 0-.15-.65.58-.76s1.09-.89 1.42-1.45a1.14 1.14 0 0 0 1.06-.52zm5.28 0a1.1 1.1 0 0 1 .34.91 17.21 17.21 0 0 1-.16 1.82h-.55v-1.21l-1.14 1.2h-1.52c-.37 0-.15-.65.58-.76s1.18-1 1.51-1.51a1 1 0 0 0 .94-.45z" fill="#e46aa5"/><path d="M240.77 190.17h-2.93a9 9 0 0 0-.08 1.72l-.18 2.38v.45a17.36 17.36 0 0 1 2.63 3.55v-3.71l.29-1.29a5.43 5.43 0 0 1 .75-1.85c-.25-.69-.48-1.25-.48-1.25z" style="mix-blend-mode:multiply" fill="#f6ae99" opacity=".5"/><path d="M243.92 198l-.72-3.24s.23-2.39.29-3.81l-2.43-1h-.11a2.55 2.55 0 0 0-.42.09l-.27 1.95c0 .29.07.59.1.88l.21 2a34.65 34.65 0 0 1 3.35 3.13z" style="mix-blend-mode:multiply" fill="#f6ae99" opacity=".5"/><path d="M238.76 166.56a34.88 34.88 0 0 1-2.39-3c-.18-.26-.32-.48-.5-.77l-.5-.85-1-1.7-1.49-2.4a5 5 0 0 0-.18-1.88c-.27-.48-.37-1.13-.48-1.26s-.27.64-.12 1c-.23-.16-.52-.39-1-1.76-.13-.37-.43-.19-.19.37a2.09 2.09 0 0 1 .27 1.13c-.06.14-.43.4-.34.85a3.91 3.91 0 0 0 1.38 1.8l.87 2.69.69 1.85.34.93c.11.3.26.67.41 1a37 37 0 0 0 2 3.59c.39.64.79 1.28 1.2 1.9a1.6 1.6 0 0 0 2.36.36 1.6 1.6 0 0 0 .14-2.33c-.51-.46-1-.99-1.47-1.52z" fill="#f6ae99"/><path d="M239.45 170.79s.43-.3.94-.7a1.6 1.6 0 0 0-.18-1.95c-.43-.46-.86-.93-1.28-1.4a5.26 5.26 0 0 1-4-1.2c.48.93 1 1.8 1.52 2.67.39.64.79 1.28 1.2 1.9a1.59 1.59 0 0 0 1.36.72h.37z" style="mix-blend-mode:multiply" fill="#f6ae99" opacity=".5"/><path d="M242.87 161.32a2.33 2.33 0 0 0-3.41.19c-.07.12-1.49 2.27-1.3 3.31.13.67.84 1.08 1.87 1.13a2.59 2.59 0 0 1-.5 2.41c.37.22 2.31.35 2.69-.17a16.34 16.34 0 0 1-.7-2.38l.46-.12c2.02-.57 2.02-3.39.89-4.37z" fill="#f6ae99"/><path d="M241.54 167.18c-2.58-.4-6.25 1.73-4.91 4.38 1 2 1.65 1.15 1.69 3a30 30 0 0 1-.68 5.2s2.07 1.37 7 0a35.51 35.51 0 0 1-.88-9.63 2.53 2.53 0 0 0-2.22-2.95z" fill="#8f82bc"/><path d="M241.66 168.62a1.77 1.77 0 0 0-2.19 1.45l-.31 2.05-.3 2-.15 1a.86.86 0 0 1-.11.41.94.94 0 0 1-.14.18l-.16.13-.2.15-.81.6-1.61 1.21-3.23 2.42a3.4 3.4 0 0 0-1.08 0c-.21 0-1.18.24-1.12.35s.27.1.36.11.4 0 .5.07l-.08.09-.68.72c-.34.32-.54.9-.22.84a13.08 13.08 0 0 0 1.41-.53s-.76.58-.5.57a4.47 4.47 0 0 0 1.1-.64 1.7 1.7 0 0 0 .42-.52 3.65 3.65 0 0 1 1.61-1.09l2.3-1.1 1.82-.87.91-.43.23-.11.27-.14a3.22 3.22 0 0 0 .62-.47 3.27 3.27 0 0 0 .83-1.34l.34-.95.69-1.89.71-2a1.77 1.77 0 0 0-1.23-2.27z" fill="#f6ae99"/><path d="M237.64 179.76a42.8 42.8 0 0 0-.68 8.89c.28 3.69.31 4.35.31 4.35a9.36 9.36 0 0 0 3.9.64c2.62 0 3.51-.64 3.51-.64a17.16 17.16 0 0 1 .6-6.62c1-3 .59-4.83-.6-6.62-1.1-.85-7.04 0-7.04 0z" fill="#274899"/><path d="M245.29 186.38a11.69 11.69 0 0 0 .44-1.61c-.92 2.34-3.37 6.83-8.55 6.7.09 1.24.1 1.53.1 1.53a9.36 9.36 0 0 0 3.9.64c2.62 0 3.51-.64 3.51-.64a17.16 17.16 0 0 1 .6-6.62z" style="mix-blend-mode:multiply" fill="#274899" opacity=".5"/><path d="M242.43 169.05a1.75 1.75 0 0 0-.77-.44 1.77 1.77 0 0 0-2.19 1.45l-.31 2.05-.3 2-.15 1a.86.86 0 0 1-.11.41 1 1 0 0 1-.13.17 5.66 5.66 0 0 1-.33 1.38c-.2.41-.53 1.07-.8 1.61l.94-.45.91-.43.23-.11.27-.14a3.22 3.22 0 0 0 .62-.47 3.27 3.27 0 0 0 .83-1.34l.34-.95.69-1.89.47-1.28c-.09-.79-.16-1.84-.21-2.57z" style="mix-blend-mode:multiply" fill="#f6ae99" opacity=".5"/><path d="M239.54 160.68s.19 2.09 1.09 2.47c.08.38-.49.88-.66 1.21s1.31-.4 1.59 0-.28 1.34-.88 1.61c-2.09.93-.17 2.59-.21 4 0 1-.77 1.75-1.06 2.63-.42 1.24.35 1.79 1.1 2.67a2.41 2.41 0 0 1 .64 1.37c0 .55-.37.94-.51 1.44a3.06 3.06 0 0 0 .19 2 2.8 2.8 0 0 0 1.28 1.21 4.24 4.24 0 0 0 4.38-.39c1.18-.89 2.39-3.29 1.2-4.6a4.5 4.5 0 0 1-.95-3.19c.05-1.32.79-2.55.38-3.89-.34-1.1-1.38-1.61-1.88-2.57a3.82 3.82 0 0 1-.29-2.8 3.35 3.35 0 0 0-1.51-3.24 3.12 3.12 0 0 0-3.9.07z" fill="#e46aa5"/><path d="M247.68 176.24a4.5 4.5 0 0 1-.95-3.19c.05-1.32.79-2.55.38-3.89a2.45 2.45 0 0 0-.24-.51c.23.39-1.24 1.24-1.45 1.33a3.07 3.07 0 0 1-2.67.12 3.24 3.24 0 0 1-.61-3.79c.49-.71 1.11-2.56-.46-3.06a3.28 3.28 0 0 1-2-2c.13.65.41 1.61 1 1.86.08.38-.49.88-.66 1.21s1.31-.4 1.59 0-.28 1.34-.88 1.61c-2.09.93-.17 2.59-.21 4 0 1-.77 1.75-1.06 2.63-.42 1.24.35 1.79 1.1 2.67a2.41 2.41 0 0 1 .64 1.37c0 .55-.37.94-.51 1.44a3.06 3.06 0 0 0 .19 2 2.8 2.8 0 0 0 1.28 1.21 4.24 4.24 0 0 0 4.38-.39c1.12-.91 2.34-3.31 1.14-4.62z" style="mix-blend-mode:multiply" fill="#e46aa5" opacity=".5"/><path d="M262 192.64a2.7 2.7 0 0 0 2-.79l-.12-1.18 1-.09.12 1.18a5.26 5.26 0 0 1 .39 1.62c0 .85-.6.8-.6.8a16 16 0 0 1-4.39-.47v-.3c.18-.31.35-.83 1.6-.77z" fill="#f6ae99"/><path d="M265.2 191.94a1.69 1.69 0 0 1-2.1.52 2.67 2.67 0 0 1-1.06.17c-1.29-.05-1.45.47-1.49.76v.3a16 16 0 0 0 4.39.47s.65.05.6-.8a5.14 5.14 0 0 0-.34-1.42z" fill="#274899"/><path d="M269.9 164.54a12.6 12.6 0 0 1-.44 4.86c-.76 2.21-3.8 9.26-3.8 9.26v.42l-.05 1.73-.1 3.46-.21 6.92-1.68.05-.66-6.9-.33-3.45-.16-1.72v-.45a4.26 4.26 0 0 1 0-.7q0-.17.05-.35v-.22l.07-.43 2.31-13.66z" fill="#d34c95"/><path d="M271.63 192.4a2.7 2.7 0 0 0 1.71-1.36l-.47-1.09 1-.4.47 1.09a5.26 5.26 0 0 1 .85 1.43c.3.8-.34.94-.34.94a16 16 0 0 1-4.33.86l-.05-.29c-.09-.3-.09-.84 1.16-1.18z" fill="#f6ae99"/><path d="M271.7 163.25a12.6 12.6 0 0 1 .9 4.8c-.13 2.34-1.15 9.94-1.15 9.94l.1.4.42 1.68.84 3.36 1.68 6.72-1.6.51-2.5-6.46-1.25-3.2-.63-1.61-.16-.42a4.26 4.26 0 0 1-.18-.68v-1.01l-1.48-13.77z" fill="#e46aa5"/><path d="M274.44 190.8a1.69 1.69 0 0 1-1.85 1.12 2.67 2.67 0 0 1-1 .48c-1.25.33-1.25.88-1.19 1.17l.05.29a16 16 0 0 0 4.33-.86s.64-.14.34-.94a5.15 5.15 0 0 0-.68-1.26z" fill="#274899"/><path d="M272.53 169c0-.37.06-.69.07-.95a8.93 8.93 0 0 0-.08-1.69 8.88 8.88 0 0 0-2.55 0 10.37 10.37 0 0 0-3 1.13l1 9.74v1.01a4.26 4.26 0 0 0 .18.68l.16.42.63 1.61.28.73a18.07 18.07 0 0 1 .38-10.28 5.4 5.4 0 0 1 2.93-2.4z" style="mix-blend-mode:multiply" fill="#e46aa5" opacity=".5"/><path d="M262.85 161.45c-.2-.15-.3 0-.51.09l-1.89 1-3.71 2.19a2.43 2.43 0 0 0-.92-.76c-.52-.2-1-.25-.88 0a1.25 1.25 0 0 0 .64.53 2.68 2.68 0 0 1-1.88-.42c-.31-.07-.44.45.35 1.11a2.88 2.88 0 0 0 1.87.69 3.86 3.86 0 0 0 1.25-.19l4.09-1.34 1.42-.48c.16-.06.54-.11.66-.24.28-.33.08-1.18-.05-1.53a1.64 1.64 0 0 0-.44-.65z" fill="#f6ae99"/><path d="M262.85 161.45c-.2-.15-.3 0-.51.09l-1.68.93c.11.5.13 1.59-1.46 2.58l2-.67 1.42-.48c.16-.06.54-.11.66-.24.28-.33.08-1.18-.05-1.53a1.64 1.64 0 0 0-.38-.68z" style="mix-blend-mode:multiply" fill="#f6ae99" opacity=".5"/><path d="M265.26 147.3c0 .12-.51 2.42 0 3.23s2 .64 3.53-.53.54-3.54-.71-4a2.11 2.11 0 0 0-2.82 1.3z" fill="#f6ae99"/><path d="M268.94 152.25a6 6 0 0 1-.67-3c-.48.21-1.47.51-1.47.51s.29 1.86.42 2.53 1.72-.04 1.72-.04z" fill="#f6ae99"/><path d="M269.25 150.39c-.34 0-.87-.43-.73-.81s.28-1.08-.14-1.32-.87.11-1 .65-.74-.36-.59-1.18a3.8 3.8 0 0 1-1.83-.57 1.27 1.27 0 0 1-.36-1.56 4.91 4.91 0 0 1 .41-.73c.09-.13.27-.48.45-.43s.14.32.35.3.48-.37.65-.5.39-.42.63-.43.22.45.48.53.44-.15.61-.21a3 3 0 0 1 .87-.13c.32 0 .09.56.26.67s.59-.16.81-.08.17.38.15.55-.14.4-.09.56.2.13.38.12c0 .86.09 1.76 0 2.62s-.43 1.85-1.31 1.95z" fill="#e46aa5"/><path d="M271.42 154.73a3 3 0 0 0-3.66-3c-1.7.55-3.44 1.81-3.18 5a40 40 0 0 1 .16 6.33 18.78 18.78 0 0 1-1.3 5.33 19.91 19.91 0 0 0 9.29-.08c-.16-1.81-1.2-8.76-1.31-13.58z" fill="#3f95d2"/><path d="M269 151.22a.38.38 0 0 0-.43-.28 6 6 0 0 0-1.8.47c-.19.24 0 .87 0 .87a10.59 10.59 0 0 0 2.42-.32c.01-.1-.08-.47-.19-.74z" fill="#274899"/><path d="M265 161.21a.84.84 0 0 0-.23.13c0 .5 0 1-.05 1.71a18.78 18.78 0 0 1-1.3 5.33 19.91 19.91 0 0 0 9.29-.08c0-.25-.06-.6-.12-1-6.93.61-7.59-6.09-7.59-6.09z" style="mix-blend-mode:multiply" fill="#3f95d2" opacity=".5"/><path d="M267.53 153.52c-1.12.17-2.14.74-3.06 4.55a4.9 4.9 0 0 1-3.42 3.88s.38 1.93 1 2.35c0 0 3-.66 4.17-1.76s3.12-6 3.5-7-1.07-2.2-2.19-2.02z" fill="#3f95d2"/><path d="M268 153.51c0 1.17-.1 6.53-2.83 8.53a14.78 14.78 0 0 1-3.34 2 1 1 0 0 0 .27.28s3-.66 4.17-1.76 3.12-6 3.5-7-.77-1.93-1.77-2.05z" style="mix-blend-mode:multiply" fill="#3f95d2" opacity=".5"/><path d="M270.52 148.66c-1.08.68-1.5-1.29-1.58-1.13s-.82.13-1.07-.43-.16-.41-1.07-.24a2.16 2.16 0 0 1-2.25-1.1 1.25 1.25 0 0 0 .42 1.39 3.8 3.8 0 0 0 1.83.57c-.15.82.48 1.72.59 1.18s.56-.89 1-.65.28.95.14 1.32.39.84.73.81c.79-.08 1.13-1 1.26-1.72z" style="mix-blend-mode:multiply" fill="#e46aa5" opacity=".5"/><path d="M128.85 135.66a6.37 6.37 0 0 0-.09 1V142l49.64 49.18h4.84a6.35 6.35 0 0 0 1.45-.17zm58.33 33.39a9.24 9.24 0 0 1-12.41-12.29l-26.7-26.45h-13a6.35 6.35 0 0 0-1.85.28l56.17 55.64a6.36 6.36 0 0 0 .17-1.43v-13.35z" style="mix-blend-mode:soft-light" fill="#fff" opacity=".5"/><path d="M155.09 157.85c-.29-.38 0-.61.2-1a31.63 31.63 0 0 0 1.45-2.84 3.36 3.36 0 0 0-.2-.88c-.13-.28-.2-.94 0-.65s.34.59.4.51a4 4 0 0 1 .51-1.27c.37-.44.64.33.68 1.09a2.27 2.27 0 0 1-.7 1.45 15.44 15.44 0 0 1-.8 2.81c-.09.27-.21 1.1-.45 1.25s-.87-.17-1.06-.37z" fill="#f6ae99"/><path d="M157.43 155.43s-.65-1-1.38-.62c0 0-1.71 4.19-3.86 5.88s-6.26 3.28-6.52 4-.24 3.63 2.13 3.5 6.47-3.92 7.55-6.73 2.08-6.03 2.08-6.03z" fill="#e46aa5"/><path d="M145.67 164.71c.08-.22.5-.51 1.1-.86 1.47.17 2.8 2 3.57 1.83 1.88-.7 3.89-3 5.28-4.91l-.27.72c-1.08 2.82-5.19 6.6-7.55 6.73s-2.38-2.78-2.13-3.51z" style="mix-blend-mode:multiply" fill="#e46aa5" opacity=".5"/><path d="M152.77 204.11a2.39 2.39 0 0 1-1.8-.71l.11-1-.93-.08-.11 1a4.67 4.67 0 0 0-.35 1.43c0 .75.53.71.53.71a14.13 14.13 0 0 0 3.89-.4v-.26c-.06-.28-.2-.74-1.34-.69z" fill="#f6ae99"/><path d="M141.72 177.65c.72 1.1 1.46 2.31 2.15 3.48s1.38 2.39 2 3.6 1.26 2.43 1.8 3.66a28.71 28.71 0 0 1 1.39 3.68v-.18c.14.82.23 1.72.3 2.61s.11 1.81.14 2.72c.06 1.83.46 3.73.43 5.56l1.29.15c.37-1.84.7-3.68 1-5.55.14-.93.27-1.87.38-2.82s.19-1.92.21-2.94v-.18A32.33 32.33 0 0 0 152 187c-.34-1.45-.76-2.86-1.19-4.26s-.91-2.78-1.41-4.15-1-2.71-1.6-4.12z" fill="#3a77bc"/><path d="M150.22 205.45s-.58 0-.53-.71a4.49 4.49 0 0 1 .24-1.15 1.64 1.64 0 0 0 1.69.27 2.38 2.38 0 0 0 1.14.24c1.14 0 1.29.42 1.32.68v.26a14.13 14.13 0 0 1-3.86.41z" fill="#274899"/><path d="M147.47 187.89c-.49-1.06-1-2.11-1.57-3.16-.64-1.21-1.32-2.41-2-3.6-.41-.7-.84-1.4-1.27-2.09l3.68-3.81a30.41 30.41 0 0 1 2.51 1.71l.6 1.6c.18.49.35 1 .53 1.49a49.25 49.25 0 0 0-2.48 7.86z" style="mix-blend-mode:multiply" fill="#3a77bc" opacity=".5"/><path d="M127.19 196.21a2.39 2.39 0 0 1 .19-1.93l1-.18-.17-.92-1 .18a4.66 4.66 0 0 0-1.47.06c-.74.16-.53.71-.53.71a14.14 14.14 0 0 0 1.45 3.63l.24-.1c.24-.1.65-.37.29-1.45z" fill="#f6ae99"/><path d="M134.4 190.88c1.14-.33 2.26-.68 3.33-1.08.53-.2 1.06-.41 1.53-.64a6.55 6.55 0 0 0 .65-.35 1.94 1.94 0 0 0 .4-.3l-.1.06v.06-.44a42.1 42.1 0 0 1-1.32-7.52 15.94 15.94 0 0 1 1.05-4.62l6.33-.11c-.15 2.51-.36 4.93-.67 7.42-.16 1.24-.33 2.49-.59 3.77a20.06 20.06 0 0 1-.49 2c-.06.19-.11.36-.19.56l-.12.3-.15.34a3.7 3.7 0 0 1-.21.38l-.12.2-.18.24a3.73 3.73 0 0 1-.74.69 6.42 6.42 0 0 1-1.16.61 10.64 10.64 0 0 1-1 .36c-.66.2-1.29.35-1.92.48-1.25.26-2.48.44-3.7.61-2.45.32-4.87.52-7.32.67l-.2-1.59c2.32-.52 4.62-1.45 6.89-2.1z" fill="#3f95d2"/><path d="M125.74 193.42a4.37 4.37 0 0 1 1-.09 2.88 2.88 0 0 0 .31 1.8 2.39 2.39 0 0 0 .1 1.08c.35 1.09-.05 1.35-.29 1.45l-.24.1a14.13 14.13 0 0 1-1.45-3.63s-.17-.55.57-.71z" fill="#274899"/><path d="M139.23 178.36a18.29 18.29 0 0 1 .72-2.32l6.33-.11c-.15 2.51-.36 4.93-.67 7.42-.16 1.24-.33 2.49-.59 3.77a20.08 20.08 0 0 1-.49 2c-.06.19-.11.36-.19.56l-.12.3-.15.34a3.69 3.69 0 0 1-.21.38l-.12.2-.18.24a3.73 3.73 0 0 1-.74.69c1.31-1.76 1.86-5.47 1.13-8.23-.55-2.04-3.26-4.17-4.72-5.24z" style="mix-blend-mode:color-burn" fill="#3f95d2" opacity=".5"/><path d="M138.95 177.76a33.9 33.9 0 0 0 1.55-9.12c0-4.56.55-6.1 4.77-5.43 2.33.37 3.37.77 3.43 3.11 0 .61-.18 2.41-.2 3 0 1.08-.1 2.17-.06 3.26a21 21 0 0 0 1.32 6 .43.43 0 0 1-.31.58c-.56.09-1.86.24-3.43.37a24.47 24.47 0 0 1-6.84-1.36.33.33 0 0 1-.23-.41z" fill="#e46aa5"/><path d="M145.67 161.72a8.12 8.12 0 0 0-.06 1.07 1 1 0 0 0 .27.86.37.37 0 0 1 0 .61.91.91 0 0 1-.9.14 2.9 2.9 0 0 1-.55-.28c-.21-.12-.4-.29-.35-.55a9.72 9.72 0 0 1 .26-1 9.35 9.35 0 0 1 .44-1.37 1.29 1.29 0 0 1 .89.52z" fill="#f6ae99"/><path d="M139 177.76a33.1 33.1 0 0 0 1.54-8.67l.74-.37s-.19 9.27 8.52 10.17a.4.4 0 0 1-.31.28c-.56.09-1.86.24-3.43.37a24.46 24.46 0 0 1-6.84-1.36.33.33 0 0 1-.22-.42z" style="mix-blend-mode:multiply" fill="#e46aa5" opacity=".5"/><path d="M139.19 172.78a.56.56 0 0 1 .23-.11c.43-.08.63.55.83.88.61 1 1.24 1.91 1.89 2.84h.06a3.79 3.79 0 0 0 .91.39c.31.05.91.39.53.4s-.7-.06-.67 0a4.17 4.17 0 0 1 .77 1.19c.15.57-.66.34-1.32-.07a2.27 2.27 0 0 1-.8-1.45.2.2 0 0 1 0-.08c-.82-.71-1.61-1.45-2.38-2.21-.31-.31-.64-.53-.56-1a1.51 1.51 0 0 1 .51-.78z" fill="#f6ae99"/><path d="M144.81 165.72a1.8 1.8 0 0 1 0 .39 1.83 1.83 0 0 1-.5.89 10.58 10.58 0 0 1-2.06 1.63c-.28.18-2.94 1.7-3 1.64l2.47 5.09a1.35 1.35 0 0 1-1.12.78c-.74-.44-4.16-3.82-4.8-5.52s3-5 4.4-6.15a4.11 4.11 0 0 1 2.66-1.21 2.59 2.59 0 0 1 1.95 2.46z" fill="#e46aa5"/><path d="M140.5 168.14a7.75 7.75 0 0 0 3.94-3.67 2.89 2.89 0 0 1 .37 1.25 1.8 1.8 0 0 1 0 .39 1.83 1.83 0 0 1-.5.89 10.58 10.58 0 0 1-2.06 1.63c-.28.18-2.94 1.7-3 1.64l2.47 5.09c-.88-1.06-2.79-3.38-3.35-4.2-.76-1.06-.93-1.91 2.13-3.02z" style="mix-blend-mode:multiply" fill="#e46aa5" opacity=".5"/><path d="M144.24 162.89l.08-.29a9.36 9.36 0 0 1 .44-1.37 1.29 1.29 0 0 1 .91.49 8.2 8.2 0 0 0-.06 1 2 2 0 0 1-1.37.17z" style="mix-blend-mode:multiply" fill="#f6ae99" opacity=".5"/><path d="M147.71 158.65c0 .13.53 2.54 0 3.4s-2.1.67-3.71-.56-.57-3.73.75-4.21a2.23 2.23 0 0 1 2.96 1.37z" fill="#f6ae99"/><path d="M142.78 160.29a2.1 2.1 0 0 0 2.31 1.87c-.31-.64-1-1.3-.92-1.76s.57-.47.81 0c.18.26.55-.15.4-.69s-.37-.79-.21-1.13-2.09.42-2.39 1.71z" fill="#e46aa5"/><path d="M145.81 158.55a32 32 0 0 0-3 1.74c-.07-1-.18-3.36 1.79-3.83a2.41 2.41 0 0 1 3 1.79 5.91 5.91 0 0 0-1.79.3z" fill="#3f95d2"/><path d="M147.75 158.83a4.15 4.15 0 0 0-1.94-.28s.17-2.61 2.33-2.53c1.95.08 1.08 1.78-.39 2.81z" fill="#274899"/><path d="M145.34 158.8a24.33 24.33 0 0 0-2.57 1.5 6 6 0 0 1 .22-2.42c.1.28.5 1.12 2.35.92z" style="mix-blend-mode:multiply" fill="#3f95d2" opacity=".5"/><path d="M201.09 191.6a.38.38 0 0 1-.36-.26l-8.13-23.77a.38.38 0 0 1 .72-.25l8.13 23.77a.38.38 0 0 1-.24.48zm7.47 0a.38.38 0 0 1-.36-.26l-8.13-23.77a.38.38 0 0 1 .72-.25l8.13 23.77a.38.38 0 0 1-.24.48z" fill="#e281b3"/><path d="M207.55 188.64h-7.44a.38.38 0 1 1 0-.76h7.44a.38.38 0 0 1 0 .76zm-1.19-3.47h-7.44a.38.38 0 0 1 0-.76h7.44a.38.38 0 0 1 0 .76zm-1.18-3.46h-7.44a.38.38 0 1 1 0-.76h7.44a.38.38 0 0 1 0 .76zm-1.18-3.47h-7.44a.38.38 0 0 1 0-.76H204a.38.38 0 1 1 0 .76zm-1.2-3.47h-7.44a.38.38 0 0 1 0-.76h7.44a.38.38 0 1 1 0 .76zm-1.19-3.47h-7.44a.38.38 0 1 1 0-.76h7.44a.38.38 0 1 1 0 .76zm-25.26 20.3h-.12a.38.38 0 0 1-.24-.48l8.13-23.77a.38.38 0 0 1 .72.25l-8.13 23.77a.38.38 0 0 1-.36.23zm-7.47 0h-.12a.38.38 0 0 1-.24-.48l8.13-23.77a.38.38 0 0 1 .72.25l-8.13 23.77a.38.38 0 0 1-.36.23z" fill="#e281b3"/><path d="M177.33 188.64h-7.44a.38.38 0 0 1 0-.76h7.44a.38.38 0 0 1 0 .76zm1.19-3.47h-7.44a.38.38 0 1 1 0-.76h7.44a.38.38 0 1 1 0 .76zm1.18-3.46h-7.44a.38.38 0 0 1 0-.76h7.44a.38.38 0 1 1 0 .76zm1.19-3.47h-7.44a.38.38 0 0 1 0-.76h7.44a.38.38 0 1 1 0 .76zm1.19-3.47h-7.44a.38.38 0 0 1 0-.76h7.44a.38.38 0 1 1 0 .76zm1.18-3.47h-7.44a.38.38 0 0 1 0-.76h7.44a.38.38 0 1 1 0 .76z" fill="#e281b3"/><path d="M201.19 166.78h-24.83a.67.67 0 0 0 0 1.34h24.82a.67.67 0 0 0 0-1.34z" fill="#d53d8e"/><path d="M223.59 185.69a7.63 7.63 0 0 1-1.51 0 3.56 3.56 0 0 0 1-.38c.11-.15-.36-.07-.79 0s-1.5.08-1.5.08c-1.33-.44-2.63-1.09-3.9-1.63a19 19 0 0 1-1.83-.89 5.15 5.15 0 0 1-.74-.5c-.23-.2-.12-.14-.29-.45-.25-.55-.5-1.22-.73-1.86s-.46-1.32-.68-2-.49-1.5-.72-2.26a1.73 1.73 0 1 0-3.2 1.28c.36.72.72 1.44 1.09 2.16s.66 1.28 1 1.92.7 1.27 1.15 1.95l.2.28.11.14.17.19a3 3 0 0 0 .65.49 7.37 7.37 0 0 0 1.13.51 20.85 20.85 0 0 0 2.14.63c1.42.34 2.82.61 4.25.83a2.13 2.13 0 0 0 2.62.22c.79-.31.84-.82.38-.71z" fill="#f6ae99"/><path d="M218.54 185.86s-3.06-1.1-3.43-1.92a7.4 7.4 0 0 1-.36-1.25 4 4 0 0 1-.44-.31c-.23-.2-.12-.14-.29-.45-.25-.55-.5-1.22-.73-1.86s-.46-1.32-.68-2-.49-1.5-.72-2.26a1.73 1.73 0 1 0-3.2 1.28c.36.72.72 1.44 1.09 2.16s.66 1.28 1 1.92.7 1.27 1.15 2l.2.28.11.14.17.19a3 3 0 0 0 .65.49 7.37 7.37 0 0 0 1.13.51 20.84 20.84 0 0 0 2.14.63c.75.15 1.48.3 2.21.45z" style="mix-blend-mode:multiply" fill="#f6ae99" opacity=".5"/><path d="M200.9 213.41a3.66 3.66 0 0 1 .6-1.46l-.79-.53a10.86 10.86 0 0 0-.63.91 13.63 13.63 0 0 0-.95 1.4 24.9 24.9 0 0 0 2.13 1.84 2.65 2.65 0 0 0 1.35 0c.12-.06 0-.51-.43-.59a2 2 0 0 1-1.28-1.57z" fill="#f6ae99"/><path d="M206.48 185.72a14.62 14.62 0 0 0-1.49 5.82c.12 2.56.91 8.45.91 8.45a.54.54 0 0 1 0 .09l-.09.2-.19.39-.75 1.57-1.51 3.15-3 6.29 1 .6 4-5.75 2-2.87 1-1.44.25-.36.12-.18.17-.29a4.29 4.29 0 0 0 .46-1.33l2.64-13.69z" fill="#223a78"/><path d="M202.66 215.47a.56.56 0 0 0-.48-.47 1.79 1.79 0 0 1-.88-.64l-.16-.05c-.65-.23-1.19-1.07-1.1-1.3s-.07-.24-.19-.34a5.88 5.88 0 0 0-.71 1.07 24.89 24.89 0 0 0 2.13 1.84 2.65 2.65 0 0 0 1.35 0 .11.11 0 0 0 0-.1l.04-.01z" fill="#e46aa5"/><path d="M209.12 200.71a4.32 4.32 0 0 0 .16-.65l2.43-12.31a1.14 1.14 0 0 0-.38-.22c-.77-.23-3.49-1.35-4.89-1.73a15.89 15.89 0 0 0-1.43 4.92 14.25 14.25 0 0 0 2.51 4.38c1.22 1.35 1.66 3.9 1.6 5.61z" style="mix-blend-mode:multiply" fill="#223a78" opacity=".5"/><path d="M215.31 213.55s0 1.19.53 1.44 1.55 0 2.19.46.63.49.18.67a23 23 0 0 1-3.86.28 13.85 13.85 0 0 1 0-1.72 11 11 0 0 1 0-1.12z" fill="#f6ae99"/><path d="M216 199.78c0-.62 0-1.24-.13-1.93s-.2-1.27-.31-1.89a73.86 73.86 0 0 0-.8-3.55c-.58-2.34-1.2-4.62-1.88-6.94l-5.38 2.09a24.19 24.19 0 0 0 1.2 6c.91 2.12 3.57 5 3.74 5.79.06.26.11.52.17.79.42 2.22.71 4.56 1 6.88s.48 4.67.67 7h1.18c.2-2.36.27-4.71.4-7.08s.23-4.7.14-7.16z" fill="#274899"/><path d="M218 215.44a2.15 2.15 0 0 0-1-.28 1.13 1.13 0 0 1-.58.32 1.86 1.86 0 0 1-1.61-.51c0-.16-.31-.17-.49-.16a8.64 8.64 0 0 0 0 1.58 23 23 0 0 0 3.86-.28c.48-.18.48-.25-.18-.67z" fill="#e46aa5"/><path d="M214.3 194.72a57.49 57.49 0 0 1 1.71 8.63c0-1.18.05-2.36 0-3.57 0-.62 0-1.24-.13-1.93s-.2-1.27-.31-1.89a73.86 73.86 0 0 0-.8-3.55c-.58-2.34-1.2-4.62-1.88-6.94l-5.38 2.09s.09 1.2.33 2.63c1.53.58 5.16 1.52 6.46 4.53z" style="mix-blend-mode:multiply" fill="#274899" opacity=".5"/><path d="M212.6 167.5c0 .15.74 2.85.18 3.85s-2.34.87-4.24-.44-.84-4.19.63-4.8a2.52 2.52 0 0 1 3.43 1.39z" fill="#f6ae99"/><path d="M209.24 171a9.73 9.73 0 0 1-.92 2.78c.93.05 2.09.18 2.46-.15s-.35-1.59-.22-2.73c-.56-.41-1.32.1-1.32.1z" fill="#f6ae99"/><path d="M206.73 174.08a4.76 4.76 0 0 0-.49 2.61 19.31 19.31 0 0 1 .17 5.21c-.47 2.78-1.4 6.24-1.4 6.24a13.76 13.76 0 0 0 4.3.68 16.19 16.19 0 0 0 5-.64s-2.16-4.75-1.71-8.07c.2-1.28 1.29-1.57 1.44-2.84.23-1.86-1.11-3-2.84-4.21-1-.69-2.21-.34-3.39 0a2 2 0 0 0-1.08 1.02z" fill="#e46aa5"/><path d="M213.72 186.71c-4.78-.55-6.56-3.31-7.21-5.57 0 .25 0 .51-.09.76-.47 2.78-1.4 6.24-1.4 6.24a13.76 13.76 0 0 0 4.3.68 16.19 16.19 0 0 0 5-.64s-.32-.58-.6-1.47z" style="mix-blend-mode:multiply" fill="#e46aa5" opacity=".5"/><path d="M219.18 191.49a7.63 7.63 0 0 1-1.43-.49 3.56 3.56 0 0 0 1.05 0c.16-.1-.31-.19-.72-.31s-1.29-.48-1.29-.48a62.127 62.127 0 0 1-3.06-3.44c-.49-.59-1-1.19-1.39-1.79a10.63 10.63 0 0 1-1.09-1.79l-.09-.2v-.15a2.29 2.29 0 0 1-.05-.38v-1c0-.72 0-1.47.07-2.23s.11-1.71.19-2.56a1.85 1.85 0 1 0-3.7 0c.07.9.15 1.79.25 2.7s.19 1.59.33 2.41c.07.41.15.82.27 1.27a4.47 4.47 0 0 0 .25.73c.06.13.12.28.18.39l.2.3a12.84 12.84 0 0 0 1.66 1.94q.86.85 1.76 1.62c1.19 1 2.41 2 3.67 3a2.13 2.13 0 0 0 2.39 1.14c.78-.17 1.02-.62.55-.68z" fill="#f6ae99"/><path d="M209.13 179.86a5.89 5.89 0 0 1 2.08-4 1.85 1.85 0 0 0-3.6.74c.07.9.15 1.79.25 2.7s.19 1.59.33 2.41c.07.41.15.82.27 1.27a4.47 4.47 0 0 0 .25.73c.06.13.12.28.18.39l.2.3a12.84 12.84 0 0 0 1.66 1.94 11.68 11.68 0 0 1-1.62-6.48z" style="mix-blend-mode:multiply" fill="#f6ae99" opacity=".5"/><path d="M213.45 167.13a2.42 2.42 0 0 1-2 1.41c-.52 0-.72.12-.84.73s-.28.67-.45.2-.6-1-.95-.81-.7 1.16-.12 1.48c.41.22.59 1.18.76 1.58a3.6 3.6 0 0 0 .62 1c.23.25.62.48.74.81a.94.94 0 0 1-.39.95 5 5 0 0 1-3.86 1c-.94-.09-3.08-.34-2.82-1.72a4.23 4.23 0 0 1 .8-1.48 5.84 5.84 0 0 0 1-2.61c.08-.71 0-1.41.06-2.12a3.09 3.09 0 0 1 2.36-2.94c2.24-.42 4.54.32 5.09 2.52z" fill="#3e338a"/><path d="M213.16 167.6a6.84 6.84 0 0 1-3.56 0 1.41 1.41 0 0 0-2 1.57c.16.62-.76 2.56-1.85 1.28a6.05 6.05 0 0 1-.84 1.84 4.23 4.23 0 0 0-.8 1.48c-.26 1.39 1.88 1.63 2.82 1.72a5 5 0 0 0 3.86-1 .94.94 0 0 0 .39-.95c-.12-.33-.51-.56-.74-.81a3.6 3.6 0 0 1-.62-1c-.17-.4-.35-1.36-.76-1.58-.58-.32-.23-1.31.12-1.48s.78.35.95.81.33.41.45-.2.32-.76.84-.73a2.24 2.24 0 0 0 1.74-.95z" style="mix-blend-mode:multiply" fill="#3e338a" opacity=".5"/><path style="mix-blend-mode:soft-light" opacity=".5" d="M220.35 39.02l-3.01 3.43 43.31 42.9 3-3.43-43.3-42.9zm16.34 73.66l3.01-3.43-43.31-42.9-3 3.43 43.3 42.9zM213.37 47l-3.53 4a9.25 9.25 0 0 1 7.7 15.05l32.12 31.82 7-8z" fill="#fff"/><path d="M272.84 49.84a6.41 6.41 0 0 0-.74-1.77l2.58-2.59-2.2-2.2-2.59 2.59a6.41 6.41 0 0 0-1.77-.73v-3.66H265v3.65a6.41 6.41 0 0 0-1.77.74l-2.59-2.59-2.2 2.2 2.59 2.59a6.41 6.41 0 0 0-.73 1.77h-3.65V53h3.65a6.41 6.41 0 0 0 .73 1.77l-2.59 2.59 2.2 2.2 2.59-2.59a6.41 6.41 0 0 0 1.77.74v3.65h3.11v-3.7a6.41 6.41 0 0 0 1.77-.74l2.59 2.59 2.2-2.2-2.58-2.59a6.41 6.41 0 0 0 .74-1.77h3.65v-3.11zm-3.44-.15a3.27 3.27 0 0 1-4.52 4.52 3.32 3.32 0 0 1-1.11-1.11 3.27 3.27 0 0 1 4.52-4.52 3.33 3.33 0 0 1 1.11 1.12z" fill="#52539f"/><path d="M206.41 34a4.46 4.46 0 0 0-.51-1.23l1.8-1.8-1.53-1.53-1.8 1.8a4.46 4.46 0 0 0-1.23-.51v-2.5H201v2.54a4.46 4.46 0 0 0-1.23.51l-1.8-1.8-1.55 1.52 1.8 1.8a4.46 4.46 0 0 0-.51 1.23h-2.54v2.16h2.54a4.46 4.46 0 0 0 .51 1.23l-1.8 1.8 1.53 1.53 1.8-1.8a4.46 4.46 0 0 0 1.23.51V42h2.16v-2.52a4.46 4.46 0 0 0 1.23-.51l1.8 1.8 1.53-1.53-1.8-1.8a4.46 4.46 0 0 0 .51-1.23H209V34zm-2.4-.1a2.28 2.28 0 0 1-3.14 3.14 2.31 2.31 0 0 1-.77-.77 2.27 2.27 0 0 1 3.14-3.14 2.32 2.32 0 0 1 .76.82z" fill="#5cc0cb"/><path d="M105.43 115.83a5.12 5.12 0 0 0-.59-1.41l2.06-2.06-1.76-1.76-2.06 2.06a5.12 5.12 0 0 0-1.41-.59v-2.92h-2.48v2.92a5.12 5.12 0 0 0-1.41.59l-2.06-2.06-1.72 1.75 2 2.06a5.12 5.12 0 0 0-.59 1.41h-2.89v2.48h2.92a5.12 5.12 0 0 0 .59 1.41L94 121.79l1.76 1.76 2.06-2.06a5.12 5.12 0 0 0 1.41.59V125h2.48v-2.92a5.12 5.12 0 0 0 1.41-.59l2.06 2.06 1.76-1.76-2.06-2.06a5.12 5.12 0 0 0 .59-1.41h2.92v-2.48zm-2.75-.12a2.61 2.61 0 0 1-3.6 3.6 2.65 2.65 0 0 1-.89-.89 2.61 2.61 0 0 1 3.61-3.61 2.65 2.65 0 0 1 .88.9zm185.77-20.59a7.7 7.7 0 1 1 7.7-7.7 7.71 7.71 0 0 1-7.7 7.7zm0-12.62a4.92 4.92 0 1 0 4.92 4.92 4.93 4.93 0 0 0-4.92-4.92z" fill="#e89ec6"/><path d="M135.72 62.19a7.7 7.7 0 1 1 7.7-7.7 7.71 7.71 0 0 1-7.7 7.7zm0-12.62a4.92 4.92 0 1 0 4.92 4.92 4.93 4.93 0 0 0-4.92-4.92z" fill="#81ceee"/></g></g></svg>