<svg xmlns="http://www.w3.org/2000/svg" xmlns:xlink="http://www.w3.org/1999/xlink" viewBox="0 0 400 225"><defs><linearGradient id="a" x1="-38.54" y1="18.76" x2="414.61" y2="196.84" gradientUnits="userSpaceOnUse"><stop offset="0" stop-color="#68be9f"/><stop offset="1" stop-color="#2196a1"/></linearGradient><linearGradient id="k" x1="112.99" y1="63.18" x2="418.77" y2="183.34" xlink:href="#a"/><linearGradient id="l" x1="200" y1="51.94" x2="200" y2="201.86" gradientUnits="userSpaceOnUse"><stop offset="0" stop-color="#68be9f"/><stop offset="1" stop-color="#2196a1" stop-opacity="0"/></linearGradient><linearGradient id="b" x1="163.92" y1="133.07" x2="250.98" y2="133.07" gradientUnits="userSpaceOnUse"><stop offset="0" stop-color="#5a6b88"/><stop offset=".39" stop-color="#506384"/><stop offset="1" stop-color="#37517b"/></linearGradient><linearGradient id="m" x1="221.05" y1="155.16" x2="250.98" y2="155.16" xlink:href="#b"/><linearGradient id="n" x1="163.92" y1="147.36" x2="221.05" y2="147.36" xlink:href="#b"/><linearGradient id="c" x1="221.05" y1="150.11" x2="250.98" y2="150.11" gradientUnits="userSpaceOnUse"><stop offset="0" stop-color="#778db3"/><stop offset=".28" stop-color="#6d85ad"/><stop offset=".75" stop-color="#516e9c"/><stop offset="1" stop-color="#406092"/></linearGradient><linearGradient id="o" x1="163.92" y1="142.31" x2="221.05" y2="142.31" xlink:href="#c"/><linearGradient id="p" x1="195.86" y1="57.74" x2="221.27" y2="142.94" gradientUnits="userSpaceOnUse"><stop offset="0" stop-color="#fff"/><stop offset=".31" stop-color="#f5f5f8"/><stop offset=".83" stop-color="#d9dae3"/><stop offset="1" stop-color="#cfd0dc"/></linearGradient><linearGradient id="q" x1="191.92" y1="84.61" x2="224.21" y2="84.61" xlink:href="#b"/><linearGradient id="r" x1="191.83" y1="117.28" x2="224.12" y2="117.28" xlink:href="#b"/><linearGradient id="s" x1="191.84" y1="111.84" x2="224.13" y2="111.84" xlink:href="#b"/><linearGradient id="t" x1="191.86" y1="106.39" x2="224.15" y2="106.39" xlink:href="#b"/><linearGradient id="u" x1="191.87" y1="100.95" x2="224.16" y2="100.95" xlink:href="#b"/><linearGradient id="v" x1="191.89" y1="95.5" x2="224.18" y2="95.5" xlink:href="#b"/><linearGradient id="w" x1="191.9" y1="90.06" x2="224.19" y2="90.06" xlink:href="#b"/><linearGradient id="x" x1="191.94" y1="73.42" x2="215.56" y2="73.42" xlink:href="#b"/><linearGradient id="i" x1="207.45" y1="153.84" x2="207.45" y2="42.29" gradientUnits="userSpaceOnUse"><stop offset="0" stop-color="#addcee"/><stop offset="1" stop-color="#5f69af" stop-opacity="0"/></linearGradient><linearGradient id="d" x1="241.39" y1="158.17" x2="255.23" y2="158.17" gradientUnits="userSpaceOnUse"><stop offset="0" stop-color="#fad60a"/><stop offset="1" stop-color="#f39347"/></linearGradient><linearGradient id="e" x1="241.39" y1="158.66" x2="253.55" y2="158.66" gradientUnits="userSpaceOnUse"><stop offset="0" stop-color="#f39347"/><stop offset=".99" stop-color="#ec6629"/></linearGradient><linearGradient id="y" x1="236.15" y1="161.23" x2="249.98" y2="161.23" xlink:href="#d"/><linearGradient id="z" x1="236.14" y1="161.71" x2="248.31" y2="161.71" xlink:href="#e"/><linearGradient id="A" x1="230.9" y1="164.28" x2="244.74" y2="164.28" xlink:href="#d"/><linearGradient id="B" x1="230.9" y1="164.77" x2="243.06" y2="164.77" xlink:href="#e"/><linearGradient id="C" x1="-863.32" y1="149.7" x2="-849.49" y2="149.7" gradientTransform="matrix(-1 0 0 1 -678.38 0)" xlink:href="#d"/><linearGradient id="D" x1="-863.33" y1="150.18" x2="-851.16" y2="150.18" gradientTransform="matrix(-1 0 0 1 -678.38 0)" xlink:href="#e"/><linearGradient id="E" x1="-868.57" y1="152.75" x2="-854.73" y2="152.75" gradientTransform="matrix(-1 0 0 1 -678.38 0)" xlink:href="#d"/><linearGradient id="F" x1="-868.57" y1="153.24" x2="-856.41" y2="153.24" gradientTransform="matrix(-1 0 0 1 -678.38 0)" xlink:href="#e"/><linearGradient id="G" x1="-873.82" y1="155.81" x2="-859.98" y2="155.81" gradientTransform="matrix(-1 0 0 1 -678.38 0)" xlink:href="#d"/><linearGradient id="H" x1="-873.82" y1="156.3" x2="-861.65" y2="156.3" gradientTransform="matrix(-1 0 0 1 -678.38 0)" xlink:href="#e"/><linearGradient id="I" x1="107.3" y1="174.4" x2="206.59" y2="174.4" xlink:href="#b"/><linearGradient id="f" x1="142.05" y1="177.59" x2="162.33" y2="177.59" gradientUnits="userSpaceOnUse"><stop offset="0" stop-color="#addcee"/><stop offset="1" stop-color="#5f69af"/></linearGradient><linearGradient id="J" x1="159.31" y1="186.77" x2="182.3" y2="186.77" xlink:href="#f"/><linearGradient id="K" x1="124.78" y1="169.66" x2="138.05" y2="169.66" xlink:href="#f"/><linearGradient id="g" x1="145.72" y1="184.31" x2="150.19" y2="184.31" gradientUnits="userSpaceOnUse"><stop offset="0" stop-color="#f39347"/><stop offset="1" stop-color="#e0224e"/></linearGradient><linearGradient id="L" x1="162.98" y1="189.44" x2="184.1" y2="189.44" xlink:href="#g"/><linearGradient id="M" x1="128.46" y1="168.47" x2="153.14" y2="168.47" xlink:href="#g"/><linearGradient id="h" x1="121.11" y1="166.1" x2="139.34" y2="166.1" gradientUnits="userSpaceOnUse"><stop offset="0" stop-color="#ccd852"/><stop offset="1" stop-color="#3ca945"/></linearGradient><linearGradient id="N" x1="155.64" y1="188.11" x2="166.71" y2="188.11" xlink:href="#h"/><linearGradient id="O" x1="138.37" y1="172.91" x2="167.45" y2="172.91" xlink:href="#h"/><linearGradient id="P" x1="151.96" y1="187.91" x2="156.43" y2="187.91" xlink:href="#d"/><linearGradient id="Q" x1="134.7" y1="173.35" x2="154.98" y2="173.35" xlink:href="#d"/><linearGradient id="R" x1="117.43" y1="165.42" x2="130.7" y2="165.42" xlink:href="#d"/><linearGradient id="S" x1="252.61" y1="157.78" x2="293.52" y2="83.34" xlink:href="#i"/><linearGradient id="j" x1="242.94" y1="116.09" x2="267.4" y2="142.85" gradientUnits="userSpaceOnUse"><stop offset="0" stop-color="#feea10"/><stop offset="1" stop-color="#f8ac16"/></linearGradient><linearGradient id="T" x1="272.03" y1="146.53" x2="291.51" y2="146.53" xlink:href="#b"/><linearGradient id="U" x1="272.02" y1="147.57" x2="283.17" y2="147.57" xlink:href="#b"/><linearGradient id="V" x1="272.04" y1="143.08" x2="291.52" y2="143.08" xlink:href="#b"/><linearGradient id="W" x1="286.27" y1="123.12" x2="295.12" y2="135.66" gradientUnits="userSpaceOnUse"><stop offset="0" stop-color="#fff"/><stop offset=".27" stop-color="#f5f6f9"/><stop offset=".72" stop-color="#d9dce8"/><stop offset="1" stop-color="#c5cadc"/></linearGradient><linearGradient id="X" x1="2160.07" y1="-501.9" x2="2211.55" y2="-473.65" gradientTransform="rotate(-70.1 1527.304 1224.128)" gradientUnits="userSpaceOnUse"><stop offset="0" stop-color="#6c539e"/><stop offset="1" stop-color="#e94a50"/></linearGradient><linearGradient id="Y" x1="73.69" y1="186.61" x2="88" y2="186.61" xlink:href="#j"/><linearGradient id="Z" x1="156.95" y1="89.34" x2="156.95" y2="101.42" xlink:href="#i"/><linearGradient id="aa" x1="156.95" y1="75.83" x2="156.95" y2="87.91" xlink:href="#i"/><linearGradient id="ab" x1="156.95" y1="62.32" x2="156.95" y2="74.4" xlink:href="#i"/><linearGradient id="ac" x1="224.51" y1="25.98" x2="229.26" y2="51.71" xlink:href="#j"/><linearGradient id="ad" x1="305.27" y1="187.03" x2="278.56" y2="204.39" xlink:href="#j"/></defs><g style="isolation:isolate"><path fill="url(#a)" d="M0 0h400v225H0z" data-name="Calque 2"/><g data-name="Calque 1"><path d="M400 225H77c-.22-31 17.42-60.1 39.31-75.36 52.64-36.71 13.45-41.68 38.62-98.72 11-24.86 38.82-38 67.26-50.92H400z" fill="url(#k)"/><path d="M372.19 1c-31.91 6.2-31.91 72.51-63.81 78.71s-31.9-33.32-63.8-27.12-31.9 59.57-63.8 65.76S148.87 101.82 117 108c-23.74 4.61-29.82 9.65-44.51 14.48-.43 17.25-5.93 32-37.26 56.88C21.4 190.33 9 206.26 0 225h392.45c4.15 0 7.55-2.71 7.55-6V16c-6.82-9.68-14.56-17.57-27.81-15z" fill="url(#l)"/><path d="M372 .45c-16.33 3.17-24.5 21.75-32.41 39.72-7.78 17.68-15.82 36-31.4 39S285.1 74.22 277 65.8s-16.23-17-32.63-13.77S219.93 70.47 212 85.25c-7.77 14.51-15.81 29.52-31.42 32.55s-23.28-.91-31.35-5.09-16.21-8.4-32.46-5.24a145.65 145.65 0 0 0-32.06 9.73c-3.75 1.55-7.57 3.12-12.27 4.68v1.24c5-1.63 9-3.29 13-4.91a144.19 144.19 0 0 1 31.75-9.64c15.65-3 23.28.91 31.35 5.09s16.21 8.4 32.46 5.24 24.48-18.44 32.39-33.21c7.77-14.52 15.81-29.52 31.42-32.55s23.11 4.94 31.17 13.35 16.23 17 32.63 13.77S333 58.51 341 40.55c7.78-17.68 15.83-36 31.4-39 12.74-2.48 21.1 6.3 27.6 15.4V14.7C393.69 6.28 384.92-2 372 .45z" fill="#90c99a"/><path fill="url(#b)" d="M250.98 140.87l-29.93 17.39-57.12-32.98 29.92-17.39 57.13 32.98z"/><path fill="url(#m)" d="M221.05 158.26v11.19l29.93-17.39v-11.19l-29.93 17.39z"/><path fill="url(#n)" d="M163.93 125.28v11.19l57.12 32.98v-11.19l-57.12-32.98z"/><path fill="url(#c)" d="M221.05 159.35l29.93-17.39v-1.09l-29.93 17.39v1.09z"/><path fill="url(#o)" d="M163.93 126.37l57.12 32.98v-1.09l-57.12-32.98v1.09z"/><path d="M226.82 73.78l-38.54-22.24c-1-.59-1.87-.12-1.87 1.06l-.18 63.61a4.09 4.09 0 0 0 1.86 3.22l38.53 22.25c1 .59 1.87.12 1.87-1.06l.18-63.62a4.09 4.09 0 0 0-1.85-3.22z" fill="url(#p)"/><path d="M192.61 76.5l30.89 17.84c.39.22.7 0 .7-.4a1.54 1.54 0 0 0-.7-1.21l-30.88-17.84c-.39-.22-.7 0-.7.4a1.54 1.54 0 0 0 .69 1.21z" fill="url(#q)"/><path d="M223.42 125.4l-30.89-17.84c-.39-.22-.7 0-.7.4a1.53 1.53 0 0 0 .7 1.21L223.41 127c.39.22.7 0 .7-.4a1.53 1.53 0 0 0-.69-1.2z" fill="url(#r)"/><path d="M223.43 120l-30.89-17.84c-.39-.22-.7 0-.7.4a1.54 1.54 0 0 0 .7 1.21l30.89 17.84c.39.22.7 0 .7-.4a1.53 1.53 0 0 0-.7-1.21z" fill="url(#s)"/><path d="M223.45 114.51l-30.89-17.84c-.39-.22-.7 0-.7.4a1.53 1.53 0 0 0 .7 1.21l30.89 17.84c.39.22.7 0 .7-.4a1.54 1.54 0 0 0-.7-1.21z" fill="url(#t)"/><path d="M223.47 109.07l-30.9-17.84c-.39-.22-.7 0-.7.4a1.54 1.54 0 0 0 .7 1.21l30.89 17.84c.39.22.7 0 .7-.4a1.54 1.54 0 0 0-.69-1.21z" fill="url(#u)"/><path d="M223.48 103.61l-30.89-17.83c-.39-.22-.7 0-.7.4a1.54 1.54 0 0 0 .7 1.21l30.89 17.84c.39.22.7 0 .7-.4a1.53 1.53 0 0 0-.7-1.22z" fill="url(#v)"/><path d="M223.5 98.17l-30.9-17.84c-.39-.22-.7 0-.7.4a1.54 1.54 0 0 0 .7 1.21l30.89 17.84c.39.22.7 0 .7-.4a1.53 1.53 0 0 0-.69-1.21z" fill="url(#w)"/><path d="M192.64 67.81l22.22 12.83c.39.22.7 0 .7-.4a1.54 1.54 0 0 0-.7-1.21L192.64 66.2c-.39-.22-.7 0-.7.4a1.53 1.53 0 0 0 .7 1.21z" fill="url(#x)"/><path style="mix-blend-mode:overlay" fill="url(#i)" d="M163.93 125.28l57.12 32.98 29.93-17.39V27.6h-87.05v97.68z"/><path fill="none" stroke="#fff" stroke-linecap="round" stroke-linejoin="round" d="M228.59 114.01l22.39 12.93-29.93 17.39-57.12-32.98 22.38-13.01" opacity=".7"/><path fill="none" stroke="#fff" stroke-linecap="round" stroke-linejoin="round" d="M228.59 91.58l22.39 12.92-29.93 17.4-57.12-32.99 22.38-13" opacity=".4"/><path fill="none" stroke="#fff" stroke-linejoin="round" d="M250.98 84.26l-29.93 17.4-57.12-32.99 29.92-17.39 57.13 32.98z" opacity=".2"/><g style="isolation:isolate"><path d="M253 156.95l-9.92-5.73-1.67 1 9.93 5.73a4.94 4.94 0 0 1 2.24 3.88v3.33l1.67-1v-3.34a4.94 4.94 0 0 0-2.25-3.87z" fill="url(#d)"/><path d="M251.32 157.92l-9.93-5.73v1.29l9.92 5.73a2.48 2.48 0 0 1 1.12 1.94v3.33l1.12.65v-3.33a4.94 4.94 0 0 0-2.23-3.88z" fill="url(#e)"/></g><path d="M247.74 160l-9.92-5.73-1.67 1 9.93 5.73a4.94 4.94 0 0 1 2.24 3.88v3.33l1.67-1v-3.34a4.93 4.93 0 0 0-2.25-3.87z" fill="url(#y)"/><path d="M246.07 161l-9.93-5.73v1.29l9.92 5.73a2.48 2.48 0 0 1 1.12 1.94v3.33l1.12.65v-3.33a4.94 4.94 0 0 0-2.23-3.88z" fill="url(#z)"/><g style="isolation:isolate"><path d="M242.5 163.06l-9.92-5.73-1.67 1 9.93 5.73a4.94 4.94 0 0 1 2.24 3.88v3.33l1.67-1v-3.34a4.94 4.94 0 0 0-2.25-3.87z" fill="url(#A)"/><path d="M240.82 164l-9.93-5.73v1.29l9.92 5.73a2.48 2.48 0 0 1 1.12 1.94v3.33l1.12.65v-3.33a4.94 4.94 0 0 0-2.23-3.88z" fill="url(#B)"/></g><g style="isolation:isolate"><path d="M173.34 148.47l9.92-5.73 1.67 1-9.93 5.7a4.94 4.94 0 0 0-2.24 3.88v3.33l-1.67-1v-3.34a4.94 4.94 0 0 1 2.25-3.84z" fill="url(#C)"/><path d="M175 149.44l9.93-5.73V145l-9.93 5.73a2.48 2.48 0 0 0-1.12 1.94V156l-1.12.65v-3.33a4.94 4.94 0 0 1 2.24-3.88z" fill="url(#D)"/></g><path d="M178.59 151.53l9.92-5.73 1.67 1-9.93 5.73a4.94 4.94 0 0 0-2.24 3.88v3.33l-1.67-1v-3.34a4.94 4.94 0 0 1 2.25-3.87z" fill="url(#E)"/><path d="M180.26 152.5l9.93-5.73v1.29l-9.92 5.73a2.48 2.48 0 0 0-1.12 1.94v3.33l-1.12.65v-3.33a4.94 4.94 0 0 1 2.23-3.88z" fill="url(#F)"/><g style="isolation:isolate"><path d="M183.83 154.58l9.92-5.73 1.67 1-9.93 5.73a4.94 4.94 0 0 0-2.24 3.88v3.33l-1.67-1v-3.34a4.94 4.94 0 0 1 2.25-3.87z" fill="url(#G)"/><path d="M185.51 155.56l9.93-5.73v1.29l-9.92 5.73a2.48 2.48 0 0 0-1.12 1.94v3.33l-1.12.65v-3.33a4.94 4.94 0 0 1 2.23-3.88z" fill="url(#H)"/></g><path fill="url(#I)" d="M206.59 181.59l-36.9 21.64-62.39-36.02 36.9-21.64 62.39 36.02z"/><path fill="url(#f)" d="M159.73 171.7l-17.68 10.28 2.59 1.5 17.69-10.28-2.6-1.5z"/><path fill="url(#J)" d="M179.71 180.09l-20.4 11.86 2.6 1.5 20.39-11.85-2.59-1.51z"/><path fill="url(#K)" d="M124.78 172.01l2.6 1.5 10.67-6.19-2.6-1.5-10.67 6.19z"/><path fill="url(#g)" d="M145.72 184.1l2.6 1.5 1.87-1.09-2.6-1.5-1.87 1.09z"/><path fill="url(#L)" d="M181.5 183.3l-18.52 10.77 2.6 1.5 18.52-10.77-2.6-1.5z"/><path fill="url(#M)" d="M128.46 174.13l2.6 1.51 22.08-12.84-2.6-1.5-22.08 12.83z"/><path fill="url(#h)" d="M136.75 160.8l-15.64 9.09 2.6 1.5 15.63-9.09-2.59-1.5z"/><path fill="url(#N)" d="M155.64 189.82l2.6 1.5 8.47-4.92-2.6-1.5-8.47 4.92z"/><path fill="url(#O)" d="M164.85 164.47l-26.48 15.39 2.6 1.5 26.47-15.39-2.59-1.5z"/><path fill="#528c96" d="M143.99 150.95l-28.45 16.54 51.5 29.73-.14.07-51.64-29.81 28.59-16.61.14.08z"/><path fill="url(#P)" d="M153.83 186.61l-1.87 1.09 2.6 1.5 1.87-1.09-2.6-1.5z"/><path fill="url(#Q)" d="M152.38 167.46l-17.68 10.28 2.6 1.5 17.68-10.28-2.6-1.5z"/><path fill="url(#R)" d="M117.43 167.77l2.6 1.5 10.67-6.2-2.6-1.5-10.67 6.2z"/><path d="M293.25 124.93l-54.3-31.35c-1.08-.63-2-.12-2 1.13v43.45a4.31 4.31 0 0 0 2 3.4l54.31 31.35c1.08.62 2 .12 2-1.13v-43.45a4.32 4.32 0 0 0-2.01-3.4z" style="mix-blend-mode:overlay" fill="url(#S)"/><path d="M261.74 120.16l-6.62 9.23c-.06.1-.18.12-.38 0a.87.87 0 0 1-.28-.28l-10-15.47c-1.74 1.56-2.79 4.17-2.8 7.66 0 8.33 5.83 18.47 13.08 22.66s13.14.82 13.17-7.5c-.04-5.36-2.49-11.46-6.17-16.3z" fill="url(#j)"/><path d="M260.83 117.81a23.71 23.71 0 0 0-6.2-5.37c-3.89-2.24-7.39-2.31-9.8-.61l9.64 14.85z" fill="#fff"/><path fill="url(#T)" d="M272.03 141.83l19.48 11.24v-1.84l-19.47-11.24-.01 1.84z"/><path fill="url(#U)" d="M272.02 145.27l11.14 6.43.01-1.83-11.14-6.43-.01 1.83z"/><path fill="url(#V)" d="M272.05 136.54l-.01 1.84 19.48 11.24v-1.84l-19.47-11.24z"/><path d="M290.51 128.6l.88-.5c.17-.1.17-.42 0-.73a.9.9 0 0 0-.32-.34.32.32 0 0 0-.32 0l-.88.5L289 126a.92.92 0 0 0-.32-.34.32.32 0 0 0-.32 0c-.17.11-.17.43 0 .73l.87 1.52-.88.5c-.17.1-.17.42 0 .73a.92.92 0 0 0 .32.34.33.33 0 0 0 .32 0l.88-.5.87 1.51a.93.93 0 0 0 .32.34.32.32 0 0 0 .32 0c.17-.11.17-.43 0-.73z" fill="url(#W)"/><path d="M148.45 36.64a2.38 2.38 0 0 1-1.3 1.36l-16.34 7a2.38 2.38 0 0 1-3.3-2.46l2.08-17.66a2.38 2.38 0 0 1 3.78-1.63l14.26 10.63a2.37 2.37 0 0 1 .94 2.18 2.4 2.4 0 0 1-.12.58zm-15.73 2.41l8.78-3.78-7.66-5.71z" fill="url(#X)"/><path d="M84.44 182l-2.54 1.32-1.32-2.54a2.38 2.38 0 0 0-3.21-1l-.18.09a2.38 2.38 0 0 0-1 3.2l1.32 2.54-2.51 1.28a2.38 2.38 0 0 0-1 3.21l.09.17a2.38 2.38 0 0 0 3.2 1L79.8 190l1.32 2.54a2.38 2.38 0 0 0 3.21 1l.18-.09a2.38 2.38 0 0 0 1-3.2l-1.32-2.54 2.54-1.32a2.38 2.38 0 0 0 1-3.21l-.09-.18a2.38 2.38 0 0 0-3.2-1z" fill="url(#Y)"/><path d="M280.8 97.73l-2.43-4.21a2.21 2.21 0 0 0-.76-.81.77.77 0 0 0-.77-.08L274.39 94c-.42.24-.43 1 0 1.76a2.21 2.21 0 0 0 .76.81.77.77 0 0 0 .77.08l.6-.34V101a2.37 2.37 0 0 0 1.08 1.87c.6.35 1.08.07 1.09-.62v-4.66l.59 1a2.19 2.19 0 0 0 .76.81.77.77 0 0 0 .77.08c.41-.23.41-1.02-.01-1.75z" fill="#fff"/><path d="M160.16 92.1l-2.43-4.21a2.21 2.21 0 0 0-.76-.81.77.77 0 0 0-.77-.08l-2.45 1.4c-.42.24-.43 1 0 1.76a2.21 2.21 0 0 0 .76.81.77.77 0 0 0 .77.08l.6-.34v4.65a2.37 2.37 0 0 0 1.08 1.87c.6.35 1.08.07 1.09-.62v-4.66l.59 1a2.19 2.19 0 0 0 .76.81.77.77 0 0 0 .77.08c.4-.23.41-1.01-.01-1.74z" style="mix-blend-mode:overlay" fill="url(#Z)"/><path d="M160.16 78.59l-2.43-4.21a2.21 2.21 0 0 0-.76-.81.77.77 0 0 0-.77-.08l-2.45 1.4c-.42.24-.43 1 0 1.76a2.21 2.21 0 0 0 .76.81.77.77 0 0 0 .77.08l.6-.34v4.65a2.37 2.37 0 0 0 1.08 1.87c.6.35 1.08.07 1.09-.62v-4.66l.59 1a2.19 2.19 0 0 0 .76.81.77.77 0 0 0 .77.08c.4-.23.41-1.01-.01-1.74z" style="mix-blend-mode:overlay" fill="url(#aa)"/><path d="M160.16 65.08l-2.43-4.21a2.21 2.21 0 0 0-.76-.81.77.77 0 0 0-.77-.08l-2.45 1.4c-.42.24-.43 1 0 1.76a2.21 2.21 0 0 0 .76.81.77.77 0 0 0 .77.08l.6-.34v4.65a2.37 2.37 0 0 0 1.08 1.87c.6.35 1.08.07 1.09-.62v-4.66l.59 1a2.19 2.19 0 0 0 .76.81.77.77 0 0 0 .77.08c.4-.23.41-1.01-.01-1.74z" style="mix-blend-mode:overlay" fill="url(#ab)"/><path d="M233.1 40.65a4.3 4.3 0 0 0-1.48-1.57 1.5 1.5 0 0 0-1.49-.15l-1.13.67v-9a4.61 4.61 0 0 0-2.1-3.63c-1.16-.67-2.11-.13-2.11 1.2v9l-1.15-2a4.28 4.28 0 0 0-1.48-1.57 1.5 1.5 0 0 0-1.49-.15c-.83.47-.83 2 0 3.42l4.73 8.19a4.27 4.27 0 0 0 1.48 1.57 1.49 1.49 0 0 0 1.49.15l4.76-2.71c.79-.47.79-2-.03-3.42z" fill="url(#ac)"/><path d="M305 186.67l-.51-.16a2.79 2.79 0 0 0-3 .87l-5.5 6.56-8.19-2.51a2.78 2.78 0 0 0-3 .87l-6.69 8a2.78 2.78 0 1 0 4.27 3.58l5.5-6.57 8.19 2.52a2.78 2.78 0 0 0 3-.87l5.5-6.57.39.12z" fill="url(#ad)"/></g></g></svg>