<svg xmlns="http://www.w3.org/2000/svg" xmlns:xlink="http://www.w3.org/1999/xlink" viewBox="0 0 341.6 201"><defs><linearGradient id="a" x1="200" y1="333.73" x2="200" y2="-21.76" gradientUnits="userSpaceOnUse"><stop offset="0" stop-color="#5ba5b0"/><stop offset=".17" stop-color="#79b7c2"/><stop offset=".42" stop-color="#9fcdd8"/><stop offset=".65" stop-color="#bbdee8"/><stop offset=".85" stop-color="#cbe8f2"/><stop offset="1" stop-color="#d1ebf5"/></linearGradient><linearGradient id="g" x1="35.6" y1="321.67" x2="35.6" y2="-33.82" xlink:href="#a"/><linearGradient id="h" x1="33.6" y1="321.67" x2="33.6" y2="-33.82" xlink:href="#a"/><linearGradient id="i" x1="56.16" y1="333.73" x2="56.16" y2="-21.76" gradientTransform="rotate(30 56.167 76.83)" xlink:href="#a"/><linearGradient id="j" x1="314.89" y1="321.67" x2="314.89" y2="-33.82" xlink:href="#a"/><linearGradient id="k" x1="312.17" y1="321.67" x2="312.17" y2="-33.82" xlink:href="#a"/><linearGradient id="l" x1="332.32" y1="333.73" x2="332.32" y2="-21.76" gradientTransform="rotate(30 332.32 74.495)" xlink:href="#a"/><linearGradient id="m" x1="223.15" y1="321.67" x2="223.15" y2="-33.82" xlink:href="#a"/><linearGradient id="n" x1="220.43" y1="321.67" x2="220.43" y2="-33.82" xlink:href="#a"/><linearGradient id="o" x1="240.58" y1="333.73" x2="240.58" y2="-21.76" gradientTransform="rotate(30 240.578 24.997)" xlink:href="#a"/><linearGradient id="p" x1="49.54" y1="321.67" x2="49.54" y2="-33.82" xlink:href="#a"/><linearGradient id="q" x1="46.82" y1="321.67" x2="46.82" y2="-33.82" xlink:href="#a"/><linearGradient id="r" x1="66.97" y1="333.73" x2="66.97" y2="-21.76" gradientTransform="rotate(30 66.968 199.096)" xlink:href="#a"/><linearGradient id="b" x1="328.74" y1="184" x2="328.74" y2="112.94" gradientUnits="userSpaceOnUse"><stop offset="0" stop-color="#f8ac2f"/><stop offset=".15" stop-color="#f8b037"/><stop offset=".39" stop-color="#f9bc4d"/><stop offset=".69" stop-color="#facf71"/><stop offset="1" stop-color="#fbe69e"/></linearGradient><linearGradient id="s" x1="358.49" y1="184" x2="358.49" y2="112.94" xlink:href="#b"/><linearGradient id="t" x1="359.59" y1="184" x2="359.59" y2="112.94" xlink:href="#b"/><linearGradient id="u" x1="352.67" y1="184" x2="352.67" y2="112.94" xlink:href="#b"/><linearGradient id="v" x1="346.69" y1="184" x2="346.69" y2="112.94" xlink:href="#b"/><linearGradient id="w" x1="333.08" y1="184" x2="333.08" y2="112.94" xlink:href="#b"/><linearGradient id="x" x1="321.02" y1="184" x2="321.02" y2="112.94" xlink:href="#b"/><linearGradient id="y" x1="339.21" y1="184" x2="339.21" y2="112.94" xlink:href="#b"/><linearGradient id="z" x1="354.77" y1="184" x2="354.77" y2="112.94" xlink:href="#b"/><linearGradient id="A" x1="341.58" y1="184" x2="341.58" y2="112.94" xlink:href="#b"/><linearGradient id="B" x1="334.96" y1="184" x2="334.96" y2="112.94" xlink:href="#b"/><linearGradient id="C" x1="329.67" y1="184" x2="329.67" y2="112.94" xlink:href="#b"/><linearGradient id="D" x1="326.4" y1="184" x2="326.4" y2="112.94" xlink:href="#b"/><linearGradient id="E" x1="324.2" y1="184" x2="324.2" y2="112.94" xlink:href="#b"/><linearGradient id="F" x1="315.39" y1="184" x2="315.39" y2="112.94" xlink:href="#b"/><linearGradient id="G" x1="312.39" y1="184" x2="312.39" y2="112.94" xlink:href="#b"/><linearGradient id="H" x1="320.27" y1="184" x2="320.27" y2="112.94" xlink:href="#b"/><linearGradient id="I" x1="306.37" y1="184" x2="306.37" y2="112.94" xlink:href="#b"/><linearGradient id="c" x1="281.35" y1="178.1" x2="355.91" y2="161.49" gradientUnits="userSpaceOnUse"><stop offset="0" stop-color="#078ea2"/><stop offset=".24" stop-color="#0a90a4"/><stop offset=".44" stop-color="#1496aa"/><stop offset=".61" stop-color="#259fb5"/><stop offset=".78" stop-color="#3dadc4"/><stop offset=".94" stop-color="#5cbed8"/><stop offset="1" stop-color="#69c6e0"/></linearGradient><linearGradient id="J" x1="101.51" y1="114.02" x2="101.51" y2="42.95" gradientTransform="rotate(-8.08 603.05 9.865)" xlink:href="#b"/><linearGradient id="K" x1="74.96" y1="114.02" x2="74.96" y2="42.95" gradientTransform="rotate(-8.08 603.05 9.865)" xlink:href="#b"/><linearGradient id="L" x1="74.27" y1="114.01" x2="74.27" y2="42.95" gradientTransform="rotate(-8.08 603.05 9.865)" xlink:href="#b"/><linearGradient id="M" x1="81.08" y1="114.02" x2="81.08" y2="42.95" gradientTransform="rotate(-8.08 603.05 9.865)" xlink:href="#b"/><linearGradient id="N" x1="86.76" y1="114.02" x2="86.76" y2="42.95" gradientTransform="rotate(-8.08 603.05 9.865)" xlink:href="#b"/><linearGradient id="O" x1="99.36" y1="114.02" x2="99.36" y2="42.95" gradientTransform="rotate(-8.08 603.05 9.865)" xlink:href="#b"/><linearGradient id="P" x1="110.4" y1="114.02" x2="110.4" y2="42.95" gradientTransform="rotate(-8.08 603.05 9.865)" xlink:href="#b"/><linearGradient id="Q" x1="93.49" y1="114.02" x2="93.49" y2="42.95" gradientTransform="rotate(-8.08 603.05 9.865)" xlink:href="#b"/><linearGradient id="R" x1="78.2" y1="114.02" x2="78.2" y2="42.95" gradientTransform="rotate(-8.08 603.05 9.865)" xlink:href="#b"/><linearGradient id="S" x1="90.66" y1="114.02" x2="90.66" y2="42.95" gradientTransform="rotate(-8.08 603.05 9.865)" xlink:href="#b"/><linearGradient id="T" x1="96.22" y1="114.02" x2="96.22" y2="42.95" gradientTransform="rotate(-8.08 603.05 9.865)" xlink:href="#b"/><linearGradient id="U" x1="100.68" y1="114.02" x2="100.68" y2="42.95" gradientTransform="rotate(-8.08 603.05 9.865)" xlink:href="#b"/><linearGradient id="V" x1="105.84" y1="114.02" x2="105.84" y2="42.95" gradientTransform="rotate(-8.08 603.05 9.865)" xlink:href="#b"/><linearGradient id="W" x1="105.26" y1="114.02" x2="105.26" y2="42.95" gradientTransform="rotate(-8.08 603.05 9.865)" xlink:href="#b"/><linearGradient id="X" x1="112.41" y1="114.02" x2="112.41" y2="42.95" gradientTransform="rotate(-8.08 603.05 9.865)" xlink:href="#b"/><linearGradient id="Y" x1="117.57" y1="114.02" x2="117.57" y2="42.95" gradientTransform="rotate(-8.08 603.05 9.865)" xlink:href="#b"/><linearGradient id="Z" x1="108.38" y1="114.02" x2="108.38" y2="42.95" gradientTransform="rotate(-8.08 603.05 9.865)" xlink:href="#b"/><linearGradient id="aa" x1="123.6" y1="114.02" x2="123.6" y2="42.95" gradientTransform="rotate(-8.08 603.05 9.865)" xlink:href="#b"/><linearGradient id="ab" x1="361.46" y1="275.57" x2="293.54" y2="226.1" gradientTransform="rotate(30.7 493.332 -176.503)" xlink:href="#c"/><linearGradient id="d" x1="215.87" y1="129.46" x2="247.78" y2="129.46" gradientUnits="userSpaceOnUse"><stop offset=".03" stop-color="#ddd9ee"/><stop offset=".05" stop-color="#dddaee"/><stop offset=".6" stop-color="#edecf1"/><stop offset="1" stop-color="#f2f2f2"/></linearGradient><linearGradient id="ac" x1="278.61" y1="193.61" x2="278.61" y2="68.99" xlink:href="#d"/><linearGradient id="ad" x1="284.61" y1="184" x2="284.61" y2="112.94" xlink:href="#b"/><linearGradient id="ae" x1="254.7" y1="129.46" x2="274.86" y2="129.46" xlink:href="#d"/><linearGradient id="af" x1="2218.87" y1="141.52" x2="2235.76" y2="141.52" gradientTransform="matrix(-1 0 0 1 2471.02 -12.06)" xlink:href="#d"/><linearGradient id="ag" x1="232.08" y1="170.08" x2="137.28" y2="170.08" gradientTransform="translate(-144.94 -12.06)" xlink:href="#d"/><linearGradient id="ah" x1="1050.44" y1="164.47" x2="1149.98" y2="156.23" gradientTransform="matrix(-1 0 0 1 1149.04 -12.06)" xlink:href="#b"/><linearGradient id="ai" x1="1051.72" y1="180.02" x2="1151.27" y2="171.78" gradientTransform="matrix(-1 0 0 1 1149.04 -12.06)" xlink:href="#b"/><linearGradient id="aj" x1="524.86" y1="135.68" x2="-2322.56" y2="-11.21" gradientTransform="matrix(1 0 0 -1 -966.39 327.83)" xlink:href="#d"/><linearGradient id="ak" x1="524.86" y1="136.7" x2="-2322.56" y2="-10.19" gradientTransform="matrix(1 0 0 -1 -966.39 329.89)" xlink:href="#d"/><linearGradient id="al" x1="524.86" y1="137.73" x2="-2322.56" y2="-9.16" gradientTransform="matrix(1 0 0 -1 -966.39 331.94)" xlink:href="#d"/><linearGradient id="am" x1="524.86" y1="138.76" x2="-2322.56" y2="-8.13" gradientTransform="matrix(1 0 0 -1 -966.39 334)" xlink:href="#d"/><linearGradient id="an" x1="524.86" y1="139.79" x2="-2322.56" y2="-7.1" gradientTransform="matrix(1 0 0 -1 -966.39 336.06)" xlink:href="#d"/><linearGradient id="ao" x1="524.86" y1="140.81" x2="-2322.56" y2="-6.08" gradientTransform="matrix(1 0 0 -1 -966.39 338.11)" xlink:href="#d"/><linearGradient id="ap" x1="524.86" y1="141.84" x2="-2322.56" y2="-5.05" gradientTransform="matrix(1 0 0 -1 -966.39 340.17)" xlink:href="#d"/><linearGradient id="aq" x1="524.86" y1="142.87" x2="-2322.56" y2="-4.02" gradientTransform="matrix(1 0 0 -1 -966.39 342.22)" xlink:href="#d"/><linearGradient id="ar" x1="524.86" y1="143.9" x2="-2322.56" y2="-2.99" gradientTransform="matrix(1 0 0 -1 -966.39 344.28)" xlink:href="#d"/><linearGradient id="as" x1="524.86" y1="144.93" x2="-2322.56" y2="-1.96" gradientTransform="matrix(1 0 0 -1 -966.39 346.33)" xlink:href="#d"/><linearGradient id="at" x1="524.86" y1="145.95" x2="-2322.56" y2="-.94" gradientTransform="matrix(1 0 0 -1 -966.39 348.39)" xlink:href="#d"/><linearGradient id="au" x1="524.86" y1="146.98" x2="-2322.56" y2=".09" gradientTransform="matrix(1 0 0 -1 -966.39 350.45)" xlink:href="#d"/><linearGradient id="av" x1="524.86" y1="148.01" x2="-2322.56" y2="1.12" gradientTransform="matrix(1 0 0 -1 -966.39 352.5)" xlink:href="#d"/><linearGradient id="aw" x1="264.11" y1="190.01" x2="162.38" y2="190.01" gradientTransform="translate(-179.39 -12.06)" xlink:href="#d"/><linearGradient id="ax" x1="453.57" y1="153.54" x2="-2602.02" y2="-4.09" gradientTransform="matrix(1 0 0 -1 -938.3 367.69)" xlink:href="#d"/><linearGradient id="ay" x1="453.57" y1="154.57" x2="-2602.02" y2="-3.06" gradientTransform="matrix(1 0 0 -1 -938.3 369.75)" xlink:href="#d"/><linearGradient id="az" x1="453.57" y1="155.6" x2="-2602.02" y2="-2.03" gradientTransform="matrix(1 0 0 -1 -938.3 371.8)" xlink:href="#d"/><linearGradient id="aA" x1="453.57" y1="156.62" x2="-2602.02" y2="-1.01" gradientTransform="matrix(1 0 0 -1 -938.3 373.86)" xlink:href="#d"/><linearGradient id="aB" x1="453.57" y1="157.65" x2="-2602.02" y2=".02" gradientTransform="matrix(1 0 0 -1 -938.3 375.91)" xlink:href="#d"/><linearGradient id="aC" x1="453.57" y1="158.68" x2="-2602.02" y2="1.05" gradientTransform="matrix(1 0 0 -1 -938.3 377.97)" xlink:href="#d"/><linearGradient id="aD" x1="453.57" y1="159.71" x2="-2602.02" y2="2.08" gradientTransform="matrix(1 0 0 -1 -938.3 380.03)" xlink:href="#d"/><linearGradient id="aE" x1="453.57" y1="160.73" x2="-2602.02" y2="3.11" gradientTransform="matrix(1 0 0 -1 -938.3 382.08)" xlink:href="#d"/><linearGradient id="aF" x1="453.57" y1="161.76" x2="-2602.02" y2="4.13" gradientTransform="matrix(1 0 0 -1 -938.3 384.14)" xlink:href="#d"/><linearGradient id="aG" x1="453.57" y1="162.79" x2="-2602.02" y2="5.16" gradientTransform="matrix(1 0 0 -1 -938.3 386.19)" xlink:href="#d"/><linearGradient id="aH" x1="453.57" y1="163.82" x2="-2602.02" y2="6.19" gradientTransform="matrix(1 0 0 -1 -938.3 388.25)" xlink:href="#d"/><linearGradient id="aI" x1="453.57" y1="164.85" x2="-2602.02" y2="7.22" gradientTransform="matrix(1 0 0 -1 -938.3 390.3)" xlink:href="#d"/><linearGradient id="aJ" x1="453.57" y1="165.87" x2="-2602.02" y2="8.24" gradientTransform="matrix(1 0 0 -1 -938.3 392.36)" xlink:href="#d"/><linearGradient id="e" x1="1081.75" y1="187.07" x2="1164.82" y2="182.78" gradientTransform="matrix(-1 0 0 1 1264.77 -12.06)" gradientUnits="userSpaceOnUse"><stop offset="0" stop-color="#40277a"/><stop offset=".33" stop-color="#543486"/><stop offset=".71" stop-color="#643f90"/><stop offset="1" stop-color="#6a4393"/></linearGradient><linearGradient id="aK" x1="1082.56" y1="203.22" x2="1165.63" y2="198.94" xlink:href="#e"/><linearGradient id="f" x1="72.56" y1="150.78" x2="169.06" y2="150.78" gradientUnits="userSpaceOnUse"><stop offset="0" stop-color="#078ea2"/><stop offset=".07" stop-color="#1194a9"/><stop offset=".35" stop-color="#37aac0"/><stop offset=".6" stop-color="#53b9d2"/><stop offset=".83" stop-color="#63c3dc"/><stop offset="1" stop-color="#69c6e0"/></linearGradient><linearGradient id="aL" x1="1117.06" y1="150.78" x2="1209.27" y2="150.78" gradientTransform="matrix(1 0 0 -1 -1053.13 301.56)" xlink:href="#d"/><linearGradient id="aM" x1="-320.91" y1="111.25" x2="-2463.73" y2=".71" xlink:href="#d"/><linearGradient id="aN" x1="-320.91" y1="112.28" x2="-2463.73" y2="1.74" xlink:href="#d"/><linearGradient id="aO" x1="-320.91" y1="113.31" x2="-2463.73" y2="2.77" xlink:href="#d"/><linearGradient id="aP" x1="-320.91" y1="114.34" x2="-2463.73" y2="3.79" xlink:href="#d"/><linearGradient id="aQ" x1="-320.91" y1="115.36" x2="-2463.73" y2="4.82" xlink:href="#d"/><linearGradient id="aR" x1="-320.91" y1="116.39" x2="-2463.73" y2="5.85" xlink:href="#d"/><linearGradient id="aS" x1="-320.91" y1="117.42" x2="-2463.73" y2="6.88" xlink:href="#d"/><linearGradient id="aT" x1="-320.91" y1="118.45" x2="-2463.73" y2="7.9" xlink:href="#d"/><linearGradient id="aU" x1="-320.91" y1="119.47" x2="-2463.73" y2="8.93" xlink:href="#d"/><linearGradient id="aV" x1="-320.91" y1="120.5" x2="-2463.73" y2="9.96" xlink:href="#d"/><linearGradient id="aW" x1="-320.91" y1="121.53" x2="-2463.73" y2="10.99" xlink:href="#d"/><linearGradient id="aX" x1="-320.91" y1="122.56" x2="-2463.73" y2="12.02" xlink:href="#d"/><linearGradient id="aY" x1="-320.91" y1="123.59" x2="-2463.73" y2="13.04" xlink:href="#d"/><linearGradient id="aZ" x1="173.54" y1="147.55" x2="173.54" y2="48.05" xlink:href="#e"/><linearGradient id="ba" x1="128.68" y1="108.69" x2="218.28" y2="108.69" xlink:href="#d"/><linearGradient id="bb" x1="173.75" y1="59.22" x2="173.75" y2="40.76" xlink:href="#b"/><linearGradient id="bc" x1="128.75" y1="50.67" x2="218.76" y2="50.67" gradientUnits="userSpaceOnUse"><stop offset="0" stop-color="#a6cbed"/><stop offset=".97" stop-color="#7d8ac4"/></linearGradient><linearGradient id="bd" x1="264.25" y1="193.42" x2="246.15" y2="187.61" xlink:href="#b"/><linearGradient id="be" x1="278.52" y1="169.21" x2="270.19" y2="169.38" xlink:href="#f"/><linearGradient id="bf" x1="285.26" y1="197.11" x2="257.24" y2="186.23" xlink:href="#b"/><linearGradient id="bg" x1="220.55" y1="160.24" x2="235.67" y2="160.24" xlink:href="#f"/><linearGradient id="bh" x1="132.06" y1="194.74" x2="147.55" y2="190.45" xlink:href="#b"/><linearGradient id="bi" x1="122.27" y1="194.34" x2="141.39" y2="188.08" xlink:href="#b"/><linearGradient id="bj" x1="115.34" y1="170.79" x2="125.38" y2="170.79" xlink:href="#f"/><linearGradient id="bk" x1="110.9" y1="168.81" x2="129.94" y2="168.81" xlink:href="#f"/><linearGradient id="bl" x1="277.46" y1="81.13" x2="291.85" y2="81.13" xlink:href="#b"/><linearGradient id="bm" x1="277.2" y1="68.95" x2="290.87" y2="68.95" xlink:href="#f"/><linearGradient id="bn" x1="290.13" y1="102.54" x2="279.59" y2="80.78" xlink:href="#b"/><linearGradient id="bo" x1="274.4" y1="101.06" x2="291.87" y2="79.63" xlink:href="#b"/><linearGradient id="bp" x1="568.12" y1="-681.99" x2="556.38" y2="-714.82" gradientTransform="rotate(-50.2 1291.247 -.833)" xlink:href="#f"/><linearGradient id="bq" x1="295.94" y1="126.84" x2="260.83" y2="96.84" xlink:href="#b"/><linearGradient id="br" x1="303.96" y1="117.45" x2="268.86" y2="87.45" xlink:href="#b"/><linearGradient id="bs" x1="270.76" y1="110.07" x2="235.66" y2="80.08" xlink:href="#b"/><linearGradient id="bt" x1="298.2" y1="124.19" x2="263.1" y2="94.2" gradientTransform="rotate(17.41 285.57 113.391)" xlink:href="#b"/><linearGradient id="bu" x1="297.57" y1="124.92" x2="262.47" y2="94.93" xlink:href="#b"/><linearGradient id="bv" x1="1169.81" y1="-103.62" x2="1158.07" y2="-136.45" gradientTransform="matrix(-.64 -.77 -.77 .64 813.36 993.96)" xlink:href="#f"/><linearGradient id="bw" x1="151.28" y1="34.05" x2="179.1" y2="20.9" xlink:href="#b"/><linearGradient id="bx" x1="146.12" y1="23.14" x2="173.94" y2="9.99" xlink:href="#b"/><linearGradient id="by" x1="119.53" y1="16.59" x2="147.34" y2="3.44" xlink:href="#b"/><linearGradient id="bz" x1="148.17" y1="27.47" x2="175.98" y2="14.32" gradientTransform="rotate(72.59 163.962 19.993)" xlink:href="#b"/><linearGradient id="bA" x1="148.12" y1="27.37" x2="175.94" y2="14.22" xlink:href="#b"/><linearGradient id="bB" x1="174.68" y1="161" x2="174.35" y2="196.6" xlink:href="#b"/><linearGradient id="bC" x1="169.59" y1="163.37" x2="179.45" y2="163.37" xlink:href="#f"/><linearGradient id="bD" x1="87.07" y1="148.7" x2="59.38" y2="133.87" xlink:href="#b"/><linearGradient id="bE" x1="82.53" y1="154.16" x2="60.77" y2="145.92" xlink:href="#b"/><linearGradient id="bF" x1="1651.7" y1="124.58" x2="1664.72" y2="124.58" gradientTransform="matrix(-1 0 0 1 1751.44 0)" xlink:href="#f"/><linearGradient id="bG" x1="1652.24" y1="121.22" x2="1673.47" y2="121.22" gradientTransform="matrix(-1 0 0 1 1751.44 0)" xlink:href="#f"/></defs><g data-name="Calque 1"><path d="M370.75 127.07a27.74 27.74 0 0 0-8.88-18.62l-.48-.44c-5.69-5.27-12.37-9.1-19.26-12.6-5.23-2.67-10.57-5.15-15.68-8-1.28-.7-2.55-1.42-3.79-2.17-2.41-1.45-4.91-3.06-6.48-5.32a8.8 8.8 0 0 1-1-1.82c-2-5.15 1.41-10.83 5.38-14.69 2.59-2.53 5.56-4.89 7.8-7.68a16.2 16.2 0 0 0 2.76-4.9 16 16 0 0 0 .15-8.81 25.22 25.22 0 0 0-1.44-4.19 32.85 32.85 0 0 0-6.1-9.14c-5.27-5.62-12.39-9.63-20-12.06a59.42 59.42 0 0 0-7.88-2c-8.44-1.5-17.75-1.32-24.83 3.52l-.9.66c-7.39 5.62-11.27 15.5-19.61 19.64a17.68 17.68 0 0 1-9.6 1.66 18.1 18.1 0 0 1-9.49-3.81 54.93 54.93 0 0 0-7.05-9 37.41 37.41 0 0 0-2.37-3.17l-.22-.26a27.65 27.65 0 0 0-7.38-6.2 24.93 24.93 0 0 0-14.4-3.16 24.93 24.93 0 0 0-14.38 3.16 27.65 27.65 0 0 0-7.38 6.2l-.22.26a37.42 37.42 0 0 0-2.37 3.25 54.93 54.93 0 0 0-7.05 9 18.1 18.1 0 0 1-9.49 3.81 17.68 17.68 0 0 1-9.6-1.66c-8.35-4.13-12.22-14-19.61-19.64l-.9-.66c-7.08-4.84-16.39-5-24.83-3.52a59.41 59.41 0 0 0-7.88 2c-7.59 2.43-14.71 6.44-20 12.06a32.85 32.85 0 0 0-6.1 9.14 25.22 25.22 0 0 0-1.44 4.19 16 16 0 0 0 .15 8.81 16.2 16.2 0 0 0 2.76 4.9c2.24 2.79 5.21 5.15 7.8 7.68 4 3.86 7.43 9.54 5.38 14.69a8.8 8.8 0 0 1-1 1.82c-1.57 2.26-4.07 3.88-6.48 5.32-1.25.75-2.51 1.47-3.79 2.17-5.11 2.8-10.45 5.29-15.68 8C51 98.92 44.3 102.74 38.61 108l-.48.44a27.74 27.74 0 0 0-8.88 18.62c-.52 8.62 3.06 17.46 10.3 24.09 8.9 8.15 21.73 11.52 33.61 11 6.58-.29 13.44-1.54 19.55.92a21.29 21.29 0 0 1 5.15 3c5.92 4.62 10 11.81 16 16.3 11.87 8.92 27.76 12.94 43 11.79 9.19-.69 77.06-.69 86.24 0 15.26 1.15 31.16-2.87 43-11.79 6-4.49 10.07-11.69 16-16.3a21.29 21.29 0 0 1 5.15-3c6.11-2.46 13-1.2 19.55-.92 11.88.52 24.71-2.86 33.61-11 7.29-6.62 10.86-15.46 10.34-24.08z" transform="translate(-29.2 -12.06)" fill="url(#a)"/><circle cx="35.6" cy="59.27" r="4" fill="url(#g)"/><circle cx="33.6" cy="70.14" r="2" fill="url(#h)"/><circle cx="56.16" cy="76.83" r="2.51" transform="rotate(-30 19.05 125.284)" fill="url(#i)"/><circle cx="314.89" cy="54.95" r="5.44" fill="url(#j)"/><circle cx="312.17" cy="69.74" r="2.72" fill="url(#k)"/><circle cx="332.32" cy="74.49" r="3.42" transform="rotate(-30 295.217 122.943)" fill="url(#l)"/><circle cx="223.15" cy="5.44" r="5.44" fill="url(#m)"/><circle cx="220.43" cy="20.24" r="2.72" fill="url(#n)"/><circle cx="240.58" cy="24.99" r="3.42" transform="rotate(-30 203.481 73.443)" fill="url(#o)"/><circle cx="49.54" cy="179.56" r="5.44" fill="url(#p)"/><circle cx="46.82" cy="194.35" r="2.72" fill="url(#q)"/><circle cx="66.97" cy="199.1" r="3.42" transform="rotate(-30 29.866 247.563)" fill="url(#r)"/><ellipse cx="162.16" cy="191.4" rx="161.13" ry="9.28" fill="#f2f2f2"/><path d="M305.13 104.58c-6-2.29-.59-5 3.19-6 3.06-.86 10.72-2.28 7.61-7.5-3.26-5.47-6.37 1.29-9 2-5.79 1.7.24-5.56 1.67-7.49 2-2.65 6.11-8.07 1-9-4.14-.73-8.42 5-10.14 7.91-1.22 2-4.23 11.64-7.36 9.52-2.37-1.61.08-11.22-5.58-4.35-2.3 2.79-1.93 7.28-3 10.47-1.52 4.68-2.16 6.62-6.31 5.42-2.15-.62-2.22-3.32-4.88-1.5-1.37.94-1.77 5.26-1.76 6.76.11 13.79 5.62 23 8.22 24.21 3.52 1.61 10.06-.72 13.07-2.45 1.5-.86 4.23-2.28 4-4.46-.22-2.45-4-2.09-4.13-3.53-.4-4.07 7.1-.18 9.17-.76 2.69-.75 7.14-5.55 4.32-8.09-.29-.26-12-1.11-5.3-4.84 3.71-2.07 7.69 3.66 11.27-.4 5.25-5.82-3.8-5.06-6.06-5.92z" fill="#e83a8d"/><path d="M304.13 106.75a26.83 26.83 0 0 0-8.08-2.32 55.24 55.24 0 0 0 5.57-7.68c.43-.78-.84-1.31-1.26-.54-.18.34-.39.66-.59 1a8.46 8.46 0 0 1 .12-2.77 17.57 17.57 0 0 1 1.54-4.88.69.69 0 0 0-1.26-.54 19 19 0 0 0-1.74 6.28 4.93 4.93 0 0 0 .5 3.22c-2.13 3.16-4.79 6.07-7 9.14a13.45 13.45 0 0 1-2-4.86c-.35-1.94-.11-3.92-.31-5.87a.69.69 0 0 0-1.36.17c.24 2.35 0 4.66.56 7a15.51 15.51 0 0 0 2.24 4.78 84.76 84.76 0 0 0-6.85 11.59c-.64 1.35-1.23 2.72-1.8 4.1a25.6 25.6 0 0 1-3.08-6.12 20.55 20.55 0 0 1-1-3.81 10.29 10.29 0 0 0-.4-2.81.69.69 0 0 0-1.28.51c.47 1.13.31 2.6.61 3.81a35.41 35.41 0 0 0 1 3.45 27.13 27.13 0 0 0 3.45 6.42l.07.07c-1 2.39-1.9 4.78-3 7.12a.64.64 0 0 0-.21.28 6.35 6.35 0 0 0-.37.94c-1.91 4.82-3.83 9.64-5.68 14.48-.31.82.95 1.37 1.26.54 1.84-4.83 3.76-9.63 5.66-14.43v-.06c.61-1.26 1.17-2.54 1.71-3.83 2.5.64 5.28-.09 7.62-1a.69.69 0 0 0-.51-1.28 12 12 0 0 1-6.57 1c1.2-3 2.34-5.94 3.71-8.82.55-1.15 1.13-2.27 1.74-3.38a.65.65 0 0 0 .14.09 20.19 20.19 0 0 0 10.74 1.37c.87-.14.71-1.5-.17-1.36a18.77 18.77 0 0 1-10-1.27 104.13 104.13 0 0 1 6.25-9.54c.38-.52.77-1 1.17-1.54a.57.57 0 0 0 .51.36 25.41 25.41 0 0 1 7.81 2.23.69.69 0 0 0 .54-1.24z" fill="#f7b9b7"/><path d="M359.78 134.9c-6.08 2.36-12.3 3.79-18 7.11A138.83 138.83 0 0 0 326 152.73c-4.59 3.6-9 7.43-13.59 11-5.38 4.19-9.17 9.27-13.76 14.2-.74.79-2-.28-1.29-1.08 4.17-4.47 7.61-9.28 12.39-13.16 5.08-4.12 10.14-8.31 15.28-12.35a137.22 137.22 0 0 1 16.43-11.11c5.59-3.2 11.76-4.61 17.72-6.93a.84.84 0 0 1 .57 1.58z" transform="translate(-29.2 -12.06)" fill="url(#b)"/><path d="M358.7 134.44a5 5 0 0 1 4.67.62c1.24 1.16.1 2.28-1.24 2.54-1.5.29-3-.28-4.5-.56s-3.14 0-4.56-.45a11 11 0 0 1 3.57-1.36c1.12-.29 2.16-.84 3.25-1.14" transform="translate(-29.2 -12.06)" fill="url(#s)"/><path d="M356 135.59c2.31-.81 5.72-.55 7.34-2.8 1.06-1.47.69-2.81-1.2-3a4.49 4.49 0 0 0-3.51 1.8 29 29 0 0 0-3.42 4.25" transform="translate(-29.2 -12.06)" fill="url(#t)"/><path d="M349.63 137c.84-2.68 1.82-6.08 4.4-7.69 1.61-1 1.93 1 1.53 2.08-.91 2.56-3.4 4.72-5.66 6.08z" transform="translate(-29.2 -12.06)" fill="url(#u)"/><path d="M343.61 139.56c.51-3.39 1.05-7.67 3.87-10.1 1.76-1.51 2.5.8 2.24 2.23-.61 3.25-3.22 6.34-5.69 8.4z" transform="translate(-29.2 -12.06)" fill="url(#v)"/><path d="M330.79 147.62c-.09-3.42-.31-7.74 2-10.62 1.47-1.8 2.61.35 2.59 1.8 0 3.31-2.06 6.8-4.14 9.26z" transform="translate(-29.2 -12.06)" fill="url(#w)"/><path d="M320.48 155.69c-1.18-3.87-2.78-8.72-1-12.75 1.11-2.51 3.08-.42 3.52 1.24 1 3.78-.21 8.4-1.81 11.85z" transform="translate(-29.2 -12.06)" fill="url(#x)"/><path d="M335.05 144.38c1.11-3.79 2.39-8.6 6-10.88 2.22-1.42 2.7 1.36 2.17 2.95-1.2 3.62-4.63 6.69-7.75 8.61z" transform="translate(-29.2 -12.06)" fill="url(#y)"/><path d="M350.14 138.43c2.36 1.52 5.29 3.5 8.31 3.08 1.88-.26.86-2-.16-2.58-2.33-1.38-5.64-1.44-8.24-1z" transform="translate(-29.2 -12.06)" fill="url(#z)"/><path d="M336.24 143.66c3.06.89 6.9 2.11 10.06.68 2-.89.3-2.43-1-2.76-3-.75-6.62.24-9.33 1.53z" transform="translate(-29.2 -12.06)" fill="url(#A)"/><path d="M329.23 150.41c3.29 1 7.4 2.26 10.78.73 2.11-1 .32-2.61-1.08-3-3.21-.81-7.1.26-10 1.64z" transform="translate(-29.2 -12.06)" fill="url(#B)"/><path d="M321.93 156c4.38 1.09 9.86 2.61 14.51.41 2.89-1.37.57-3.45-1.31-3.85-4.28-.9-9.58.7-13.57 2.67z" transform="translate(-29.2 -12.06)" fill="url(#C)"/><path d="M325.86 151.68c-.75-2.1-1.89-3.93-2-6.21a7.68 7.68 0 0 1 2.14-5.27c.56-.65 1.15-1.52 2.09-1.62 1.32-.15.77 1.26.52 2.12a53.18 53.18 0 0 0-1.28 5.6c-.18 1-.38 2-.64 3a13.55 13.55 0 0 1-.45 2.37" transform="translate(-29.2 -12.06)" fill="url(#D)"/><path d="M330.42 158.69c-2.45 0-10.35.79-13.39.83-.69.56-1.4 1.1-2.11 1.64 5 1.2 13.12 2 15.28 1.47.93-.22 2.86-1 3.2-2 .6-1.7-1.91-1.95-2.98-1.94z" transform="translate(-29.2 -12.06)" fill="url(#E)"/><path d="M323.37 170.78c-2.94-.65-12.61-2-16.26-2.77-1 .47-2 .92-3 1.37 5.59 2.83 15.15 6.07 17.87 6.06 1.18 0 3.72-.43 4.39-1.48 1.22-1.89-1.71-2.9-3-3.18z" transform="translate(-29.2 -12.06)" fill="url(#F)"/><path d="M313.2 162c-.39-1.32-3.76-5.23-2.3-12.42.21-1 .58-2.36 1.66-2.75 1.51-.55 1.62 1.14 1.66 2.21.08 2.11-.19 10.14 0 12.14" transform="translate(-29.2 -12.06)" fill="url(#G)"/><path d="M309.19 165.59c1.48.43 3 1.35 4.5 1.84s10.78 2.08 13.67 1.49c1.25-.26 3.69-.16 4-1.76s-1.57-2.5-2.78-2.9c-2.81-.92-16.06 0-19.43.72" transform="translate(-29.2 -12.06)" fill="url(#H)"/><path d="M308 166.12c-3.47-4.93-4.85-15.13-4-16.17 1.84-2.24 4.15 1.25 4.61 3 1 3.81.1 12.79-.54 12.92" transform="translate(-29.2 -12.06)" fill="url(#I)"/><path d="M299 174c-2.29 1.87-5.23 4.25-7.61 6-3.1 2.26-3.1 4.49-.43 7.16 3.29 3.3 9.16 5.11 13.69 5.83 1.6.26 1.9.15 1.94-1.68 0-1.34-.15-2.59 0-3.95a13.32 13.32 0 0 1 2.19-7c2.43-3.41 2.64.83 1.95 2.79a22.35 22.35 0 0 0-1.37 7.22c0 4.25 13.84-2.12 15.87-4.55-1.59-1.21-3.44-6.19-2.21-8.15 1.09-1.72 1.55.17 1.79 1.31a8.92 8.92 0 0 0 1.18 3.64c3.19 4.45 9.83-7.3 11.07-9.72 1.64-3.18 3.54-3.65 6.84-3.78-2.35-3.09-5.77-7.54-9.92-7.7-2-.08-3.72 1.35-5.3 2.39-1.09.72-4.66 2.52-2.75-.18 1.33-1.89 3.89-2.52 5.2-4.48-1.07-1.34-4.76-3.78-6.55-3.38-2.14.48-2.79 4.67-4.14 6.12-1.51-2.57 1.39-5.13 2.4-7.24-2.81-2-8.52-4.53-12.19-3.54-5.35 1.44-.37 8.37.65 9.52.75.85 1.92 2.38-.08 1.71-1.76-.58-4-4.47-4.75-6.14-.36-.82-.42-3.14-1.17-3.65s-15.09 5.76-16.7 10.47c-1.71 4.84 6.23 10.35 10.4 10.98z" transform="translate(-29.2 -12.06)" fill="url(#c)"/><path d="M80.38 83.57c6-2.25.63-5-3.14-6.06-3.05-.89-10.7-2.36-7.55-7.55 3.3-5.44 6.36 1.33 8.95 2.11 5.77 1.75-.19-5.56-1.62-7.5-1.95-2.67-6.05-8.12-.93-9 4.14-.7 8.39 5.1 10.08 8 1.21 2.06 4.15 11.67 7.29 9.57 2.38-1.59 0-11.22 5.61-4.31 2.28 2.81 1.88 7.29 2.89 10.49 1.48 4.69 2.11 6.63 6.27 5.46 2.16-.61 2.25-3.31 4.89-1.46 1.36.95 1.73 5.27 1.71 6.78-.21 13.79-5.79 23-8.4 24.15-3.53 1.59-10.06-.79-13.06-2.54-1.49-.87-4.21-2.31-4-4.49.23-2.44 4-2.06 4.16-3.5.43-4.07-7.1-.23-9.17-.83-2.68-.77-7.1-5.61-4.26-8.13.29-.26 12-1 5.34-4.8-3.69-2.09-7.72 3.61-11.27-.49-5.09-5.89 3.95-5.05 6.21-5.9z" fill="#e83a8d"/><path d="M81.37 85.75a26.83 26.83 0 0 1 8.1-2.26 55.23 55.23 0 0 1-5.51-7.72c-.42-.78.85-1.3 1.27-.53.18.34.38.66.58 1a8.47 8.47 0 0 0-.1-2.77 17.57 17.57 0 0 0-1.5-4.89.69.69 0 0 1 1.27-.53 19 19 0 0 1 1.69 6.29 4.93 4.93 0 0 1-.52 3.22c2.11 3.18 4.74 6.11 6.94 9.2a13.46 13.46 0 0 0 2-4.84c.36-1.94.14-3.92.36-5.87a.69.69 0 0 1 1.36.18c-.26 2.35 0 4.66-.61 7A15.51 15.51 0 0 1 94.43 88a84.77 84.77 0 0 1 6.76 11.64c.63 1.35 1.21 2.73 1.77 4.11a25.6 25.6 0 0 0 3.13-6.1 20.54 20.54 0 0 0 1.06-3.8 10.29 10.29 0 0 1 .43-2.81.69.69 0 0 1 1.27.52c-.48 1.13-.33 2.6-.64 3.8a35.4 35.4 0 0 1-1.07 3.45 27.13 27.13 0 0 1-3.5 6.39l-.07.07c.94 2.39 1.86 4.8 2.91 7.14a.64.64 0 0 1 .21.28 6.34 6.34 0 0 1 .37.94c1.87 4.83 3.76 9.67 5.57 14.52.31.83-1 1.36-1.27.53-1.81-4.84-3.69-9.66-5.55-14.47v-.06c-.6-1.26-1.15-2.55-1.68-3.85-2.51.62-5.28-.13-7.61-1.09a.69.69 0 0 1 .52-1.27 12 12 0 0 0 6.56 1.07c-1.18-3-2.29-6-3.64-8.85-.54-1.15-1.11-2.28-1.71-3.39a.65.65 0 0 1-.14.09 20.19 20.19 0 0 1-10.75 1.29c-.87-.14-.7-1.51.18-1.36a18.77 18.77 0 0 0 10-1.19 104.13 104.13 0 0 0-6.15-9.52c-.37-.52-.77-1-1.16-1.55a.57.57 0 0 1-.52.36 25.41 25.41 0 0 0-7.82 2.17.705.705 0 0 1-.52-1.31z" fill="#f7b9b7"/><path d="M81.82 103.12c6.06 2.41 12.27 3.88 17.94 7.24a138.83 138.83 0 0 1 15.68 10.84c4.56 3.64 8.93 7.5 13.51 11.12 5.35 4.23 9.1 9.34 13.66 14.3.73.8 2-.27 1.3-1.07-4.13-4.5-7.54-9.34-12.29-13.25-5-4.16-10.08-8.39-15.19-12.46a137.23 137.23 0 0 0-16.35-11.23c-5.56-3.24-11.73-4.7-17.67-7.06a.84.84 0 0 0-.59 1.58z" transform="translate(-29.2 -12.06)" fill="url(#J)"/><path d="M82.91 102.67a5 5 0 0 0-4.68.59c-1.25 1.15-.12 2.28 1.22 2.55 1.5.3 3-.26 4.5-.53s3.14.06 4.56-.42a11 11 0 0 0-3.51-1.39c-1.12-.3-2.15-.85-3.25-1.16" transform="translate(-29.2 -12.06)" fill="url(#K)"/><path d="M85.59 103.84c-2.31-.83-5.72-.6-7.32-2.86-1-1.48-.67-2.81 1.22-3A4.49 4.49 0 0 1 83 99.85a29 29 0 0 1 3.38 4.28" transform="translate(-29.2 -12.06)" fill="url(#L)"/><path d="M92 105.31c-.82-2.68-1.77-6.09-4.35-7.72-1.6-1-1.93.95-1.54 2.07.89 2.56 3.37 4.75 5.62 6.12z" transform="translate(-29.2 -12.06)" fill="url(#M)"/><path d="M98 107.9c-.49-3.39-1-7.68-3.79-10.13-1.75-1.53-2.51.78-2.25 2.21.59 3.26 3.17 6.36 5.63 8.44z" transform="translate(-29.2 -12.06)" fill="url(#N)"/><path d="M110.73 116.05c.11-3.42.36-7.74-2-10.64-1.45-1.81-2.61.33-2.6 1.78 0 3.31 2 6.82 4.07 9.29z" transform="translate(-29.2 -12.06)" fill="url(#O)"/><path d="M121 124.2c1.21-3.87 2.85-8.7 1.1-12.74-1.09-2.52-3.08-.44-3.53 1.21-1 3.78.15 8.4 1.72 11.87z" transform="translate(-29.2 -12.06)" fill="url(#P)"/><path d="M106.48 112.78c-1.08-3.8-2.33-8.62-5.88-10.93-2.21-1.44-2.71 1.34-2.19 2.93 1.18 3.63 4.58 6.72 7.68 8.66z" transform="translate(-29.2 -12.06)" fill="url(#Q)"/><path d="M91.44 106.72c-2.37 1.5-5.32 3.46-8.33 3-1.88-.28-.84-2 .18-2.58 2.34-1.36 5.65-1.4 8.25-1z" transform="translate(-29.2 -12.06)" fill="url(#R)"/><path d="M105.3 112.05c-3.07.87-6.92 2.06-10.06.6-2-.91-.28-2.43 1-2.75 3-.73 6.62.29 9.31 1.6z" transform="translate(-29.2 -12.06)" fill="url(#S)"/><path d="M112.26 118.86c-3.29.93-7.41 2.21-10.79.64-2.1-1-.3-2.61 1.11-3 3.21-.78 7.09.31 10 1.72z" transform="translate(-29.2 -12.06)" fill="url(#T)"/><path d="M119.52 124.48c-4.39 1.06-9.88 2.54-14.51.31-2.88-1.39-.54-3.46 1.34-3.84 4.29-.87 9.58.77 13.55 2.77z" transform="translate(-29.2 -12.06)" fill="url(#U)"/><path d="M115.62 120.15c.77-2.09 1.92-3.92 2-6.2a7.68 7.68 0 0 0-2-5.28c-.56-.65-1.14-1.52-2.08-1.64-1.32-.16-.78 1.25-.53 2.11a53.19 53.19 0 0 1 1.24 5.61c.17 1 .36 2 .62 3a13.56 13.56 0 0 0 .43 2.38" transform="translate(-29.2 -12.06)" fill="url(#V)"/><path d="M111 127.13c2.45 0 10.34.87 13.38.93.69.56 1.39 1.11 2.1 1.66-5 1.16-13.13 1.89-15.29 1.36-.93-.23-2.86-1.05-3.18-2-.58-1.74 1.93-1.97 2.99-1.95z" transform="translate(-29.2 -12.06)" fill="url(#W)"/><path d="M118 139.27c2.95-.63 12.63-1.87 16.28-2.65 1 .48 2 .94 3 1.4-5.61 2.79-15.19 6-17.92 5.92-1.18 0-3.72-.46-4.38-1.51-1.24-1.9 1.7-2.89 3.02-3.16z" transform="translate(-29.2 -12.06)" fill="url(#X)"/><path d="M128.21 130.57c.4-1.31 3.8-5.2 2.39-12.4-.2-1-.56-2.36-1.64-2.77-1.51-.56-1.63 1.13-1.68 2.2-.1 2.11.11 10.14-.09 12.14" transform="translate(-29.2 -12.06)" fill="url(#Y)"/><path d="M132.19 134.18c-1.49.41-3 1.33-4.51 1.81s-10.8 2-13.68 1.39c-1.25-.27-3.69-.19-4-1.79s1.59-2.49 2.8-2.87c2.81-.9 16.06.13 19.42.86" transform="translate(-29.2 -12.06)" fill="url(#Z)"/><path d="M133.41 134.72c3.51-4.9 5-15.1 4.12-16.14-1.82-2.26-4.16 1.22-4.63 2.92-1.05 3.81-.19 12.79.44 12.93" transform="translate(-29.2 -12.06)" fill="url(#aa)"/><path d="M152.4 138.1c.61 2.89 1.41 6.59 2.17 9.43 1 3.71-.4 5.44-4.16 5.85-4.64.51-10.33-1.77-14.32-4.05-1.41-.81-1.57-1.08-.46-2.52.83-1.06 1.75-1.92 2.5-3.05a13.32 13.32 0 0 0 2.7-6.84c.25-4.17-2.58-1-3.27.95a22.35 22.35 0 0 1-3.46 6.49c-2.64 3.33-9.44-10.33-9.5-13.5 2 .05 6.57-2.66 6.83-5 .23-2-1.31-.84-2.21-.1a8.92 8.92 0 0 1-3.2 2.1c-5.27 1.46-3.07-11.85-2.53-14.52.72-3.51-.47-5.06-3-7.24 3.77-.93 9.23-2.25 12.55.22 1.61 1.2 2 3.38 2.63 5.18.4 1.24 2 4.89 2.26 1.58.15-2.31-1.45-4.4-1.24-6.75 1.67-.37 6.08 0 7.22 1.47 1.37 1.71-.76 5.39-.62 7.36 2.79-1.05 2.14-4.87 2.67-7.14 3.47.19 9.47 1.82 11.71 4.89 3.27 4.48-5 6.75-6.48 7-1.11.19-3 .65-1 1.39 1.73.65 5.94-1 7.55-1.8.79-.41 2.3-2.19 3.2-2.11s8.14 14 6.44 18.63c-1.71 4.89-11.38 4.2-14.98 2.08z" transform="translate(-29.2 -12.06)" fill="url(#ab)"/><path d="M296.47 78.48h-82.11a3.19 3.19 0 0 1-3.19-3.19 3.19 3.19 0 0 1 3.19-3.19h82.11a3.19 3.19 0 0 1 3.19 3.19 3.19 3.19 0 0 1-3.19 3.19zm0 101.96h-82.11a3.19 3.19 0 0 0-3.19 3.19 3.19 3.19 0 0 0 3.19 3.19h82.11a3.19 3.19 0 0 0 3.19-3.19 3.19 3.19 0 0 0-3.19-3.19z" fill="#40277a"/><path fill="url(#d)" d="M220.09 78.48l27.69 50.98-27.69 50.98h-4.22l31-50.98-31-50.98h4.22z"/><path fill="url(#ac)" d="M263.07 129.46l31.89 50.98h-4.22l-28.49-50.98 28.49-50.98h4.22l-31.89 50.98z"/><path fill="#fff" opacity=".5" d="M280.15 161.5l10.59 18.94h-70.65l8.32-15.32 16.51-30.4 2.86-5.26-9.58-17.64-18.11-33.34h70.65l-18.76 33.58-9.73 17.4 2.01 3.59 15.89 28.45z"/><path d="M319.94 192.5h-70.65l8.32-15.32.49-.45c4.25-4 8.87-7.57 13.21-11.38 3.22-2.82 6.81-6 11.27-6.42h.44c0-1.35.12-2.8.08-3.68-.06-1.57 0-3.45-.15-5.26a12.12 12.12 0 0 1-6.32-1.64 28.59 28.59 0 0 1-2.51-1.54l2.86-5.26-9.58-17.64c4.79-1.16 11.72-1.27 13.87-1.27 6.53 0 13.61-.36 19.91 1.51l-9.72 17.4 2 3.59a22.11 22.11 0 0 1-8.14 4.52A40.9 40.9 0 0 1 285 159c5.74.65 10.73 5.27 15.11 8.55 3 2.22 6.11 4.11 9.22 6.06z" transform="translate(-29.2 -12.06)" fill="url(#ad)"/><g style="mix-blend-mode:multiply"><path opacity=".5" fill="url(#ae)" d="M274.86 78.48l-13.64 51.02 11.83 50.94h-6.53l-11.82-50.82 13.63-51.14h6.53z"/><path opacity=".5" fill="url(#af)" d="M235.26 78.48l13.63 51.02-11.82 50.94h3.26l11.82-50.82-13.63-51.14h-3.26z"/></g><path fill="url(#ag)" d="M15.65 151h122.26v14.05H15.65z"/><path fill="url(#ah)" d="M13.47 149.08h126.62v3.04H13.47z"/><path fill="url(#ai)" d="M13.47 164.74h126.62v3.04H13.47z"/><path transform="rotate(180 91.325 157.885)" fill="url(#aj)" d="M44.85 163.58H167v.68H44.85z"/><path transform="rotate(180 91.325 158.915)" fill="url(#ak)" d="M44.85 164.6H167v.68H44.85z"/><path transform="rotate(180 91.325 159.94)" fill="url(#al)" d="M44.85 165.63H167v.68H44.85z"/><path transform="rotate(180 91.325 160.97)" fill="url(#am)" d="M44.85 166.66H167v.68H44.85z"/><path transform="rotate(180 91.325 162)" fill="url(#an)" d="M44.85 167.69H167v.68H44.85z"/><path transform="rotate(180 91.325 163.025)" fill="url(#ao)" d="M44.85 168.72H167v.68H44.85z"/><path transform="rotate(180 91.325 164.055)" fill="url(#ap)" d="M44.85 169.74H167v.68H44.85z"/><path transform="rotate(180 91.325 165.08)" fill="url(#aq)" d="M44.85 170.77H167v.68H44.85z"/><path transform="rotate(180 91.325 166.11)" fill="url(#ar)" d="M44.85 171.8H167v.68H44.85z"/><path transform="rotate(180 91.325 167.135)" fill="url(#as)" d="M44.85 172.83H167v.68H44.85z"/><path transform="rotate(180 91.325 168.165)" fill="url(#at)" d="M44.85 173.86H167v.68H44.85z"/><path transform="rotate(180 91.325 169.195)" fill="url(#au)" d="M44.85 174.88H167v.68H44.85z"/><path transform="rotate(180 91.325 170.22)" fill="url(#av)" d="M44.85 175.91H167v.68H44.85z"/><path fill="url(#aw)" d="M8 170.93h131.2v14.05H8z"/><path transform="rotate(180 88.14 177.815)" fill="url(#ax)" d="M37.2 183.51h131.08v.68H37.2z"/><path transform="rotate(180 88.14 178.845)" fill="url(#ay)" d="M37.2 184.53h131.08v.68H37.2z"/><path transform="rotate(180 88.14 179.87)" fill="url(#az)" d="M37.2 185.56h131.08v.68H37.2z"/><path transform="rotate(180 88.14 180.9)" fill="url(#aA)" d="M37.2 186.59h131.08v.68H37.2z"/><path transform="rotate(180 88.14 181.93)" fill="url(#aB)" d="M37.2 187.62h131.08v.68H37.2z"/><path transform="rotate(180 88.14 182.955)" fill="url(#aC)" d="M37.2 188.65h131.08v.68H37.2z"/><path transform="rotate(180 88.14 183.985)" fill="url(#aD)" d="M37.2 189.67h131.08v.68H37.2z"/><path transform="rotate(180 88.14 185.01)" fill="url(#aE)" d="M37.2 190.7h131.08v.68H37.2z"/><path transform="rotate(180 88.14 186.04)" fill="url(#aF)" d="M37.2 191.73h131.08v.68H37.2z"/><path transform="rotate(180 88.14 187.065)" fill="url(#aG)" d="M37.2 192.76h131.08v.68H37.2z"/><path transform="rotate(180 88.14 188.095)" fill="url(#aH)" d="M37.2 193.78h131.08v.68H37.2z"/><path transform="rotate(180 88.14 189.12)" fill="url(#aI)" d="M37.2 194.81h131.08v.68H37.2z"/><path transform="rotate(180 88.14 190.15)" fill="url(#aJ)" d="M37.2 195.84h131.08v.68H37.2z"/><path fill="url(#e)" d="M6.86 167.78h133.23v3.15H6.86z"/><path fill="url(#aK)" d="M6.86 183.98h133.23v3.15H6.86z"/><path d="M166.53 143.56V158h-94v3.14h95.21c.71 0 1.29-.91 1.29-2v-16.68c0-1.12-.58-2-1.29-2H72.56v3.14z" transform="translate(-29.2 -12.06)" fill="url(#f)"/><path transform="rotate(180 105.82 144.75)" fill="url(#aL)" d="M74.32 143.56h92.21v14.45H74.32z"/><path fill="url(#aM)" d="M45.12 132.17h91.91v.68H45.12z"/><path fill="url(#aN)" d="M45.12 133.19h91.91v.68H45.12z"/><path fill="url(#aO)" d="M45.12 134.22h91.91v.68H45.12z"/><path fill="url(#aP)" d="M45.12 135.25h91.91v.68H45.12z"/><path fill="url(#aQ)" d="M45.12 136.28h91.91v.68H45.12z"/><path fill="url(#aR)" d="M45.12 137.3h91.91v.68H45.12z"/><path fill="url(#aS)" d="M45.12 138.33h91.91v.68H45.12z"/><path fill="url(#aT)" d="M45.12 139.36h91.91v.68H45.12z"/><path fill="url(#aU)" d="M45.12 140.39h91.91v.68H45.12z"/><path fill="url(#aV)" d="M45.12 141.42h91.91v.68H45.12z"/><path fill="url(#aW)" d="M45.12 142.44h91.91v.68H45.12z"/><path fill="url(#aX)" d="M45.12 143.47h91.91v.68H45.12z"/><path fill="url(#aY)" d="M45.12 144.5h91.91v.68H45.12z"/><rect x="119.08" y="33.2" width="108.93" height="154.02" rx="12.94" ry="12.94" fill="url(#aZ)"/><path fill="url(#ba)" d="M128.68 44.8h89.59v127.79h-89.59z"/><path fill="url(#bb)" d="M128.75 44.89h90.02v4.74h-90.02z"/><path fill="url(#bc)" d="M128.75 48.3h90.02v4.74h-90.02z"/><ellipse cx="130.86" cy="50.63" rx=".96" ry=".98" fill="#e62d2d"/><ellipse cx="134.13" cy="50.63" rx=".96" ry=".98" fill="#fcd440"/><ellipse cx="137.33" cy="50.63" rx=".96" ry=".98" fill="#34aa42"/><circle cx="173.54" cy="38.98" r="2.52" fill="#827fbc"/><circle cx="173.54" cy="38.98" r="1.5" fill="#e9f6fe"/><circle cx="173.54" cy="179.27" r="4.14" fill="#5b5499"/><rect x="184.21" y="66.71" width="18.52" height="55.14" rx="9.26" ry="9.26" transform="rotate(30 201.367 33.764)" fill="#fabd09"/><rect x="202.61" y="66.57" width="18.52" height="55.14" rx="9.26" ry="9.26" transform="rotate(-30 174.773 142.59)" fill="#4a8bca"/><circle cx="155.24" cy="97.94" r="9.39" fill="#34aa53"/><path d="M170.73 122.15a1.56 1.56 0 0 0 1.1-1.61 1.66 1.66 0 0 0-.41-1.19 1.47 1.47 0 0 0-2.5.68 1.31 1.31 0 0 0 0 1 1.54 1.54 0 0 0 .87 1l.32.1c.2.08.21.08.62 0zm-1.26 3.79a3.07 3.07 0 0 1-1.73-1.48c-.1-.19 0-.23.6-.49.46-.18.61-.2.61-.08s.44.62.74.76a1.5 1.5 0 0 0 1.76-.38 2.22 2.22 0 0 0 .3-1.17v-.16l-.28.2a2.3 2.3 0 0 1-1.62.3 2.58 2.58 0 0 1-1.51-.79 2.73 2.73 0 0 1-.81-1.55 3 3 0 0 1 2-3.33 2.42 2.42 0 0 1 2.1.31l.16.15v-.4h1.27v2.81c0 3 0 3.36-.32 4a2.7 2.7 0 0 1-1.61 1.34 3.19 3.19 0 0 1-1.66-.04zm-10.76-4a1.82 1.82 0 0 0 .62-1.91 1.66 1.66 0 0 0-1.42-1.14 1.57 1.57 0 0 0-1.61 1.63 1.63 1.63 0 0 0 1.08 1.61 1.93 1.93 0 0 0 1.33-.19zm-1.41 1.48a2.9 2.9 0 0 1-2.3-2.07 3.17 3.17 0 0 1 .13-2 2.91 2.91 0 0 1 2.72-1.75 2.94 2.94 0 0 1 2.57 4.41 3.08 3.08 0 0 1-1.88 1.36 2.49 2.49 0 0 1-1.24.04zm19.87-3.16c.26-.12.16-.08.21-.09a4.47 4.47 0 0 0 .59-.24 2.65 2.65 0 0 1 .57-.21c.06 0-.3.16-.3.13a4.89 4.89 0 0 1 .8-.37c.38-.13.38-.14.26-.27a1.28 1.28 0 0 0-1.55-.17 1.67 1.67 0 0 0-.75 1c-.05.34-.08.34.17.22zm.74 3.14a2.91 2.91 0 0 1-2.21-2.13 4 4 0 0 1 0-1.55 2.76 2.76 0 0 1 2.64-2.11 2.44 2.44 0 0 1 1.79.74 3.37 3.37 0 0 1 .83 1.38c0 .16-.08.21-.95.55-.7.27-1 .41-1.58.65l-.32.13-.46.19-.41.17c-.17.05.41.59.73.68a1.62 1.62 0 0 0 1.61-.35 1.38 1.38 0 0 1 .37-.28 3.66 3.66 0 0 1 1 .67c0 .15-.61.71-1 .93a4.36 4.36 0 0 1-1.51.42l-.53-.11zm-28.4-.02a4.41 4.41 0 0 1-2.41-1.32 4.72 4.72 0 0 1-1.12-1.82 6.27 6.27 0 0 1 0-2.58 4.77 4.77 0 0 1 3.21-3.07 6.77 6.77 0 0 1 2.5 0 5.23 5.23 0 0 1 1.72 1c.08.1 0 .17-.35.57a4.52 4.52 0 0 1-.49.45 1.11 1.11 0 0 1-.24-.18 3.37 3.37 0 0 0-2.55-.6 3.12 3.12 0 0 0-2.22 1.69 2 2 0 0 0-.37 1.41 2.15 2.15 0 0 0 .33 1.36 3.85 3.85 0 0 0 .59.83 3.15 3.15 0 0 0 3.1.88 2.46 2.46 0 0 0 1.29-.69 2.18 2.18 0 0 0 .65-1.19v-.26h-2.86v-1.31h4.12a1 1 0 0 1 .12.38 4.24 4.24 0 0 1-.68 2.8 3.87 3.87 0 0 1-2 1.52 6.08 6.08 0 0 1-2.43.14z" fill="#7f8080"/><path d="M164.61 122.1a1.7 1.7 0 0 0 .93-.87 1.74 1.74 0 0 0 .15-.73 1.64 1.64 0 0 0-.2-.81 1.89 1.89 0 0 0-.83-.7 1.5 1.5 0 0 0-1.61.33 1.7 1.7 0 0 0 .61 2.8 1.3 1.3 0 0 0 .95-.02zm-1.21 1.27a3 3 0 0 1-1.88-1.43 2.93 2.93 0 0 1 .38-3.36 3 3 0 1 1 4.22 4.12 2.72 2.72 0 0 1-1.78.71 4.92 4.92 0 0 1-.94 0zm10.4-4.35v-4.29h1.38v8.51h-1.38v-4.29zm14.94.73l-.64-1.81c-.33-.91-.63-1.68-.66-1.71a8.7 8.7 0 0 0-.64 1.71.6.6 0 0 1-.06.19c-.07.11-.62 1.59-.62 1.66a7.5 7.5 0 0 0 1.34.06c1.24 0 1.34 0 1.3-.12zm-5.1 3.39s.29-.83.64-1.76l.94-2.5c.45-1.2 1.15-3.07 1.34-3.56a3.32 3.32 0 0 0 .17-.51s.23-.08.66-.08.67 0 .71.12c.19.48 2.56 6.77 2.71 7.19s.24.65.31.8a2.88 2.88 0 0 1 .11.3 3.74 3.74 0 0 1-.63 0h-.63l-.15-.4c-.08-.22-.26-.73-.4-1.12l-.25-.72h-3.49l-.11.3-.41 1.13-.3.83h-.61c-.36.04-.61.02-.61-.03zm15.17.17a2 2 0 0 1-1.56-1.09c-.12-.24-.1-.28.22-.41a1.07 1.07 0 0 0 .34-.19s.1 0 .18.09c.6.73.73.8 1.37.76.39 0 .45-.06.63-.27.39-.46.11-.76-1-1s-1.71-.73-1.71-1.43a1.18 1.18 0 0 1 .76-1.19 1.8 1.8 0 0 1 1.13-.23 1.7 1.7 0 0 1 1 .19c.39.2.88.77.81.94s-.06.08-.09.06a1 1 0 0 0-.4.11c-.23.1-.35.12-.36.07a1.35 1.35 0 0 0-.53-.47 1.4 1.4 0 0 0-1.15.1.52.52 0 0 0-.21.35c0 .31.21.46 1.08.68 1.09.27 1.34.42 1.61.95a1.51 1.51 0 0 1-.13 1.37 2.1 2.1 0 0 1-2 .6zm-4-1.08a1.67 1.67 0 0 0 .48-.55 1.42 1.42 0 0 0 .2-.86 1.56 1.56 0 0 0-.53-1.32 1.3 1.3 0 0 0-1.87 0 1.53 1.53 0 0 0-.51 1.2 1.64 1.64 0 0 0 .89 1.64 1.49 1.49 0 0 0 1.35-.11zm-1.31 1.07a2.3 2.3 0 0 1-1.7-1.36 2 2 0 0 1-.19-1.06 2.41 2.41 0 0 1 .68-1.91 1.94 1.94 0 0 1 1.61-.66 1.71 1.71 0 0 1 1.4.52l.18.19v-2.78h.99c.02 0 0 1.62 0 3.51v3.44h-.91v-.6l-.27.23a2 2 0 0 1-1.78.48z" fill="#7f8080"/><path d="M256.93 198.22h1.22l-4.65-22.44-1.22.25.54 2.58H238.8l.54-2.58-1.22-.25-4.65 22.44h1.22l2-9.58h18.18zm-20-10.65l1.65-7.89H253l1.65 7.89z" fill="#ac565d"/><path d="M254.8 177.71h-18a2.69 2.69 0 0 1-2.69-2.68 2.69 2.69 0 0 1 2.69-2.69h18a2.69 2.69 0 0 1 2.69 2.69 2.69 2.69 0 0 1-2.69 2.68z" fill="#e83a8d"/><path d="M260.43 201.69c-.1 1.53-.2 2.94-.28 4.13v.05h-1.77c-1.22-7-3.45-21.33-3.45-21.33-.46-1.77-.47-4.23 1-5.28a4.14 4.14 0 0 1 1.15-.59h.09a4.76 4.76 0 0 1 .54-.13l4.67-.09a3.49 3.49 0 0 0 .18.41c.44.95 1.59 3.32 2.28 4.73-1.81 0-3.61.14-5.41.31 1.93.56 1.48 10.49 1 17.79z" transform="translate(-29.2 -12.06)" fill="url(#bd)"/><path d="M229.58 196.22h-3.9c-.8-.08-1.26-.53-.38-.94l1.53-.55.44-.16 1.92-.69h1.77c0 .07.09.21.13.3v.22a1.59 1.59 0 0 1-1.51 1.82z" fill="#40277a"/><path d="M247.75 147.74a2.24 2.24 0 0 0-1-.7 2.49 2.49 0 0 0-.91-.17 2.2 2.2 0 0 0-2.1 1.29 3.47 3.47 0 0 0-.17.39c-.34.87-2.1 8.72-2.1 8.72-1-.89-8.19-1.35-8.49-1.52a.71.71 0 0 1-.6-.38c-.34-.51-.67-1.19-1-1.7a1.5 1.5 0 0 0-1.33-.73 2.06 2.06 0 0 0-.49 0c-.46.11-.74.22-.87.78s-.29 1.45-.39 2.06a.31.31 0 0 0 .53.28c.2-.19.39-.47.54-.64s.23-.19.4-.07c.62.45 1.21 1 1.85 1.47a1.05 1.05 0 0 0 .66.27c.48.45 9.55 4.54 10.28 4.38a2.64 2.64 0 0 0 1.7-1.45v.05c0-.06.07-.16.13-.31l.45-1.17c.38-.94 1-2.37 1.53-3.83l.55-1.38.63-1.62c.21-.52.4-1 .58-1.54a2.43 2.43 0 0 0 .09-.3 2.16 2.16 0 0 0-.47-2.18z" fill="#d0817b"/><path d="M247.18 138.17a20 20 0 0 0 1.51 5.2c.65 1.1 1.6 1.53 2.24 2.64a4 4 0 0 1 .21 3c-.1.41-1.6 3.92-1.6 3.92s-4.36-7.63-4.83-8z" fill="#f8ac2f"/><path d="M246.3 146.94l-1.5-2.29-2.24 1a4.62 4.62 0 0 1 1.23 2.78z" fill="#bf5f56"/><path d="M245.68 139.94a10 10 0 0 0-.61-1 7.35 7.35 0 0 0-2-2.09 3.19 3.19 0 0 0-2.78-.4 3.12 3.12 0 0 0-1.74 1.94 6.42 6.42 0 0 0-.22 2.66c.05.58.14 1.15.21 1.72v.48a1.41 1.41 0 0 1 0 .56c-.05.15-.16.29-.09.45a.33.33 0 0 0 .48.14 5.55 5.55 0 0 0 1.86 1.95 3 3 0 0 0 2.61.29 4.15 4.15 0 0 0 1.93-2 5.37 5.37 0 0 0 .8-3.32 4.38 4.38 0 0 0-.45-1.38z" fill="#d0817b"/><ellipse cx="268.65" cy="154.53" rx=".35" ry=".37" transform="rotate(-3.88 76.276 579.674)" fill="#40277a"/><path d="M240.57 144.43a1.46 1.46 0 0 0 .28-1.44.1.1 0 1 0-.19.06 1.41 1.41 0 0 1-.81 1.69.103.103 0 0 0 .08.19 2 2 0 0 0 .64-.5zm-.58-3.09a.1.1 0 0 0 0-.14.84.84 0 0 0-1.19-.09.1.1 0 0 0 0 .14.1.1 0 0 0 .14 0 .64.64 0 0 1 .91.08.1.1 0 0 0 .14.01z" fill="#40277a"/><path d="M279.72 177.56l-1.64.41a19.68 19.68 0 0 1-6.49.08 47.21 47.21 0 0 0-.08-8.43 2.1 2.1 0 0 0-.41-1.05 3.31 3.31 0 0 1-.64-4.68l2.24-3.4.21-.15c-.61 1.72-.8 3.83 1.22 5.09l4.14 2a18.72 18.72 0 0 0 1.45 10.13z" transform="translate(-29.2 -12.06)" fill="url(#be)"/><path d="M238.34 140.2a4.27 4.27 0 0 1 .61-.61 1.27 1.27 0 0 0 2.18-.26l.06-.13a11.89 11.89 0 0 1 1.52 3.8c.08-.74-.5-2.52 1-2.23a2 2 0 0 1 1.07 2.45c-.18.42-.45.56-.52.81s.91 1.16.91 1.16 1.63-.39 2.27-3.35a8.62 8.62 0 0 0-.44-4.13 5.5 5.5 0 0 0-7.38-2.66 4.67 4.67 0 0 0-2.49 4 5.87 5.87 0 0 0 .11.86.62.62 0 0 0 1.1.29z" fill="#f8ac2f"/><path d="M249.45 153.36a19 19 0 0 0-.37 2l-4.14-2c-2-1.26-1.83-3.37-1.22-5.09l1.33-.94a3.28 3.28 0 0 1 3.13-.38c1.76.76 1.74 4.39 1.27 6.41z" fill="#d0817b"/><path d="M253 158.3c0-.06-.05-.17-.12-.32l-.45-1.17c-.35-.94-.89-2.39-1.45-3.86l-.52-1.39-.63-1.62c-.2-.53-.4-1-.61-1.52a2.43 2.43 0 0 0-.13-.28 2.16 2.16 0 0 0-1.8-1.33 2.24 2.24 0 0 0-1.18.14 2.49 2.49 0 0 0-.79.49 2.2 2.2 0 0 0-.69 2.37 3.47 3.47 0 0 0 .14.41c.34.87 4.32 7.86 4.32 7.86-1.37 0-7 4.52-7.3 4.6h-.35a.71.71 0 0 1-.65-.32c-.39-.48-.78-1.12-1.17-1.6a1.5 1.5 0 0 0-1.4-.59 2.06 2.06 0 0 0-.48.07c-.45.15-.72.29-.79.86s-.15 1.47-.19 2.09a.31.31 0 0 0 .56.22c.18-.21.34-.51.48-.69s.21-.21.39-.11c.67.39 1.3.89 2 1.29a1.05 1.05 0 0 0 .68.21h1.16c.66 0 10.29-3.12 10.72-3.73a2.64 2.64 0 0 0 .28-2.22z" fill="#d0817b"/><path d="M280.87 182.19a3.34 3.34 0 0 1-.2.64c-.81 1.83-3 2.25-4.8 2.44h-.05c-.43 0-.86.08-1.3.1a40.5 40.5 0 0 1-7.66-.44c-.51-.07-1-.15-1.51-.24l-.2-.39c-.66 0-1.32 0-2 .05 2.35.82 2 14.54 1.12 21.36v.05l-1.79-.1-3.83-20.9c-.36-1.79-.23-4.24 1.26-5.21a4.21 4.21 0 0 1 1.18-.53h.08a4.17 4.17 0 0 1 .54-.09l.77-.06a3.49 3.49 0 0 1-.18-.41h.06l9.06-.46.85.13 7.28-.62.05.09.1.17.05.1a6.49 6.49 0 0 1 1.12 4.32z" transform="translate(-29.2 -12.06)" fill="url(#bf)"/><path d="M234.7 195.82a16.39 16.39 0 0 0-3.35 1.07 1.15 1.15 0 0 1-.49.1h-1.37a.4.4 0 0 1-.33-.64 1.45 1.45 0 0 1 .33-.33l1.86-1.16 2-1.22 1.79.1.11.23c.44.97.55 1.49-.55 1.85z" fill="#40277a"/><path d="M242.44 166.69h-18.38v-1.43h17a1.43 1.43 0 0 1 1.43 1.43z" fill="#078ea2"/><path fill="url(#bg)" d="M223.7 166.69h11.97l-3.18-12.91-11.94.41 3.15 12.5z"/><ellipse cx="256.84" cy="172.3" rx="1.04" ry="1.41" transform="rotate(-8.63 162.258 359.72)" fill="#fff"/><path fill="#078ea2" d="M232.49 153.78h.76l3.51 12.91h-1.09l-3.18-12.91z"/><path d="M141.88 205.52c-3.34-5.27-10.2-17.15-11.9-22.76.13-.2 4.87-.31 5.36-1.95l.12-.43a6.82 6.82 0 0 1 1.88 3.69s4.19 13.85 6.15 20.71h.05z" transform="translate(-29.2 -12.06)" fill="url(#bh)"/><path d="M118.47 193.27l-3.93 1.88c-1.43.58-1.95-.46-1.86-1.68l1.66-.77 4.06-.43c.8-.1.8.67.07 1z" fill="#40277a"/><path d="M137.43 205.48h.05l-1.82.12a88.57 88.57 0 0 1-2.05-21.84 71.7 71.7 0 0 0-11.92 1.41 6 6 0 0 1-2.43 0c-4.08-.88-3.31-5.37-3.27-5l8-2h10.6a4.13 4.13 0 0 1 .55.05h.08a4.07 4.07 0 0 1 1.22.44c1.56.87 1.86 3.29 1.64 5.11.03.11-.35 14.57-.65 21.71z" transform="translate(-29.2 -12.06)" fill="url(#bi)"/><path d="M112 195.32l-3.86.53c-2.76.33-1.68-2.19-1.68-2.21l1.82-.12 4 .87c.79.08.69.77-.28.93z" fill="#40277a"/><path d="M88.32 147l1.47-2.34 2.24 1a4.62 4.62 0 0 0-1.23 2.78z" fill="#f39b9a"/><path d="M88.6 142.94c.41 1.83 1.74 3.78 3.25 3.87a4.2 4.2 0 0 0 3.77-2.42c.19 0 .45 0 .51-.15s-.11-.35-.28-.51a4.38 4.38 0 0 0 .17-.66c.89-5.16-.58-6.52-2.59-6.81-1.53-.22-3.59 1.71-4.52 3.66-.11-.15-.91 2.7-.31 3.02z" fill="#f7b9b7"/><ellipse cx="124.42" cy="154.65" rx=".35" ry=".37" transform="translate(-39.38 -3.29)" fill="#40277a"/><path d="M94.05 144.45a1.46 1.46 0 0 1-.28-1.44.1.1 0 1 1 .19.06 1.41 1.41 0 0 0 .81 1.69.103.103 0 1 1-.08.19 2 2 0 0 1-.64-.5zm.58-3.1a.1.1 0 0 1 0-.14.84.84 0 0 1 1.19-.09.1.1 0 0 1 0 .14.1.1 0 0 1-.14 0 .64.64 0 0 0-.91.08.1.1 0 0 1-.14.01z" fill="#40277a"/><path d="M87.39 141.33a5.57 5.57 0 0 0 1.16 3.08 1.57 1.57 0 0 0 1.32.5 2 2 0 0 0 1-.88 7.72 7.72 0 0 0 .61-1.06h-.11c-.58-.09-1.48-.8-1.37-1.48a1.17 1.17 0 0 1 1.24-1.07 1 1 0 0 1 .81.74 15.38 15.38 0 0 0 4.52-.89 2.22 2.22 0 0 1 .08 1.12 1.65 1.65 0 0 0 .77-1.56 1.35 1.35 0 0 0-.16-.51 2 2 0 0 1 .46.3c.92.83 0 2.07-.11 2.18a2.4 2.4 0 0 0 1-3.42c-.19-.3-.62-.77-2.26-1.17s-1.13-2-4.54-1.8c-1.8.09-4.52 1.91-4.42 5.92z" fill="#ac565d"/><path d="M111.86 154.73a.59.59 0 0 0-.69.42l-2.8 10.14H97.45a1.09 1.09 0 0 0-1.09 1.09h12.35a.78.78 0 0 0 .75-.57l2.85-10.32a.59.59 0 0 0-.45-.76z" fill="#40277a"/><path d="M115.73 182.51s9.9-1.67 9.65-4.29c-1-4.5-1.29-12-5.37-17.74l-2.48-1.41c-3.66 10.41-1.53 13.65-1.8 23.44z" transform="translate(-29.2 -12.06)" fill="url(#bj)"/><path d="M129.93 177.4a7.48 7.48 0 0 0-.25-1.67c-4.77-.29-9.2-1.77-13.85-2.56 1.23-2.91 2.6-6.56 3.64-9.35a3.38 3.38 0 0 0-.83-4.1c-.74-.8-1.67-.66-2.63-.45a3.48 3.48 0 0 0-2 2.27c-1.93 5.8-6.75 14.08 2 16.68 2.59.78 10.56-.13 13.92-.82z" transform="translate(-29.2 -12.06)" fill="url(#bk)"/><path d="M100.24 163.76l.17 1.67h4.15c-.32-1.61-1.93-2.73-4.32-1.67z" fill="#f7b9b7"/><path d="M102.26 198.22h1.22l-4.68-22.44-1.22.25.54 2.58h-14l.54-2.58-1.22-.25-4.64 22.44h1.22l2-9.58h18.18zm-20-10.65l1.65-7.89h14.43l1.65 7.89z" fill="#ac565d"/><path d="M100.09 177.71h-18a2.69 2.69 0 0 1-2.68-2.68 2.69 2.69 0 0 1 2.68-2.69h18a2.69 2.69 0 0 1 2.68 2.69 2.69 2.69 0 0 1-2.68 2.68z" fill="#e83a8d"/><path d="M290.37 77.75l-10 .23a3 3 0 0 0-1.89 5.22l1.43 1.25 9.76.05s4.4-6.15.7-6.75z" transform="translate(-29.2 -12.06)" fill="url(#bl)"/><path d="M256.8 44.65v.29l-2.71.13a.41.41 0 0 0 0-.07 3.06 3.06 0 0 0 0-.35 2 2 0 0 0-.19-1l2.8-.71.1 1.1v.61zm2 3.05c-.13-.14-.27-.27-.41-.4a4.92 4.92 0 0 1-.9-1.08 2.7 2.7 0 0 1-.24-.46h.09l.59.07z" fill="#bf5f56"/><path d="M269.47 56.1l-1.74-2.07-.23-.27a48.34 48.34 0 0 1-3.43-4.82 6.82 6.82 0 0 0-2.79-2.49 11.43 11.43 0 0 0-3.91-.65s.06.17.14.44a2.19 2.19 0 0 0 .87 1c1.14 1 1.24 2.67 1.43 4.07a2.23 2.23 0 0 0 1 1.71c.53.41 1.06.83 1.59 1.25l2.21 1.74 3.86 3a1.84 1.84 0 0 0 1-2.91zm-16.82-10.06c-2.45 0-4.43.74-5.79 2.88a47.89 47.89 0 0 1-3.49 4.89l-.17.21-1.74 2.07a1.84 1.84 0 0 0 1 3l3.55-2.8 4.91-3.87.25-1.34c.15-.8 2.26.16 2.62-.57s-1-3-.68-3.66a8.42 8.42 0 0 0 .41-1c-.07.15-.48.19-.87.19zm7.55-8.1a1 1 0 0 0-.59.17 8 8 0 0 0-1.7-3.42 2.71 2.71 0 0 0-1.13-.91 2 2 0 0 0-.68-.2h-.92a2 2 0 0 0-.68.2 2.71 2.71 0 0 0-1.13.91 8 8 0 0 0-1.7 3.42 1 1 0 0 0-.59-.17c-.61.05-.81 1-.64 1.75a1.89 1.89 0 0 0 1.56 1.4 6.77 6.77 0 0 0 1.2 1.72 3.66 3.66 0 0 0 1.91 1.22h1.08a3.66 3.66 0 0 0 1.91-1.23 6.76 6.76 0 0 0 1.2-1.72 1.89 1.89 0 0 0 1.56-1.4c.15-.68-.06-1.64-.66-1.74z" fill="#d0817b"/><path d="M255.92 42.12a1.58 1.58 0 0 0 1.09-1.18.11.11 0 0 0-.21 0 1.52 1.52 0 0 1-1.71 1 .11.11 0 1 0 0 .22 2.16 2.16 0 0 0 .83-.04zm1.88-3.58a.11.11 0 0 0 .06-.14.91.91 0 0 0-1.17-.54.11.11 0 0 0-.06.14.11.11 0 0 0 .14.07.7.7 0 0 1 .89.42.11.11 0 0 0 .14.05zm-3.32-.42a.11.11 0 0 0 0-.15.91.91 0 0 0-1.24.33.11.11 0 0 0 0 .15.11.11 0 0 0 .15 0 .7.7 0 0 1 1-.24.11.11 0 0 0 .09-.09zm.66 2.99c-.47-.08-.54-.29-.54-.34a.11.11 0 0 1 0-.08l.63-.94a.11.11 0 1 1 .18.12l-.59.88s.19.15.59.16a.1.1 0 0 1 .11.11.11.11 0 0 1-.11.11z" fill="#40277a"/><ellipse cx="283.32" cy="51.53" rx=".35" ry=".37" transform="rotate(-3.88 90.704 476.567)" fill="#40277a"/><ellipse cx="286.07" cy="51.53" rx=".35" ry=".37" transform="rotate(-3.88 93.514 476.515)" fill="#40277a"/><path d="M288.12 73.35a1.87 1.87 0 0 1-.28-.83v-.5a3.33 3.33 0 0 1 .07-.76 1.3 1.3 0 0 1 .06-.2l.7-1.38.85-1.66c.82-1.6 1.35-3.65.58-5.22a4.58 4.58 0 0 1-.24-.62 11 11 0 0 0-1.86-2.42c-.13-.14-.27-.27-.41-.4a4.92 4.92 0 0 1-.9-1.08 2.7 2.7 0 0 1-.24-.46.57.57 0 0 1-.37-.75V57l-2.71.13a1 1 0 0 1-.48.71l-.17.08a8.42 8.42 0 0 1-.41 1 6.16 6.16 0 0 1-1.12 1.69l-.23.24-.57.63a4.63 4.63 0 0 0-.88 1.57 5.66 5.66 0 0 0 .11 4l.89 2.13.13.32a4.09 4.09 0 0 1 .3 1.33 3.87 3.87 0 0 1 0 .87 4 4 0 0 1-.3 1l-3.39 5.48c5.21 3.63 9.82 3.82 13.67-.4z" transform="translate(-29.2 -12.06)" fill="url(#bm)"/><path d="M268.92 59.2l-4.81 3.16-1.29.85-.74.49-.47-1.25a.59.59 0 0 0 .19-.15l.06-.07.85-1s4.09-6.77 6.34-5.62a2.19 2.19 0 0 1-.13 3.59zm-6.84 4.5l-.11.07a1.2 1.2 0 0 1-.58.18l-2.12.06c.33.75-2.7 2.31-3.32 1.31 0 0 1.5-2.56 1.77-2.82l.32-.3a1.31 1.31 0 0 1 1.33-.28l1.69.58a.67.67 0 0 0 .55 0zm-20.07-4.5l4.79 3.16 1.29.85.74.49.47-1.25a.59.59 0 0 1-.19-.15l-.06-.07-.85-1s-4.09-6.77-6.34-5.62a2.19 2.19 0 0 0 .15 3.59z" fill="#d0817b"/><path d="M248.8 63.7l.11.07a1.2 1.2 0 0 0 .58.18l2.12.06c-.33.75 2.7 2.31 3.32 1.31 0 0-1.5-2.56-1.77-2.82l-.32-.3a1.31 1.31 0 0 0-1.33-.28l-1.69.58a.67.67 0 0 1-.55 0z" fill="#d0817b"/><path d="M262.89 58.75h-15.18a.8.8 0 0 0-.79.92l1.17 7.87a.66.66 0 0 0-.51.64.67.67 0 0 0 .66.66h14a.66.66 0 0 0 .66-.66.66.66 0 0 0-.64-.66l1.39-7.83a.8.8 0 0 0-.76-.94z" fill="#40277a"/><circle cx="284.78" cy="75.79" r=".96" transform="rotate(-45 255.625 105.007)" fill="#fff"/><path d="M291.21 100.25l-1.4 1.14c-1.49-1.93-5.22-7.22-6.78-9.17-3.85-4.82-6.15-8.28-6-12a2.41 2.41 0 0 1 .75-1.68 2.49 2.49 0 0 1 1.72-.69 3.57 3.57 0 0 1 3.23 2.15l3.45 9.84z" transform="translate(-29.2 -12.06)" fill="url(#bn)"/><path d="M265.67 93.29a8.25 8.25 0 0 0-3.25-4.77l-.39-.33-1.4 1.14c.07.26.15.51.23.75a11 11 0 0 0 2.83 4.27c.93.98 2.35.27 1.98-1.06z" fill="#40277a"/><path d="M292.24 80.2c.1 3.73-2.2 7.18-6 12-1.56 2-5.29 7.24-6.78 9.17l-1.46-1.11 5-10.41 3.48-9.85a3.57 3.57 0 0 1 3.29-2.19 2.48 2.48 0 0 1 1.72.69 2.41 2.41 0 0 1 .75 1.7z" transform="translate(-29.2 -12.06)" fill="url(#bo)"/><path d="M248.8 88.2l-.69.59a7.94 7.94 0 0 0-2.94 4.5c-.37 1.32 1 2 2 1.05a11 11 0 0 0 2.71-4c.13-.32.24-.68.35-1.05z" fill="#40277a"/><path d="M259.91 35.65a4.57 4.57 0 0 0-8-1.24c-2 2.6-1.53 9.74 1.32 9.59a6.56 6.56 0 0 1-.8-2.38c-.11-1.9.21-3.8 2-4.22a7.54 7.54 0 0 0 2.21-.77l.32-.21-.15.15c.81.49 1.62 2.34 2.83 1.79.89-.42.5-2 .27-2.71z" fill="#f8ac2f"/><path d="M261.43 32.25a1.78 1.78 0 0 0-.49-.31l-.17-.15a2.31 2.31 0 0 0-2-.31c-1.56.53-1.61 2.58-1 3.82s3 1.62 4 .54a2.84 2.84 0 0 0-.34-3.59z" fill="#f8ac2f"/><path d="M280.24 114.5a17.58 17.58 0 0 0 7.1 7.13 26.91 26.91 0 0 0 8.46 2.88h.09l4-7.56v-.05a20.75 20.75 0 0 0-5.55-5.46 18.5 18.5 0 0 0-10.74-2.91 27.52 27.52 0 0 0-4.41.45.8.8 0 0 0-.62 1 20.41 20.41 0 0 0 1.67 4.52z" transform="translate(-29.2 -12.06)" fill="url(#bp)"/><path d="M287.35 121.63a37.17 37.17 0 0 0 9.76 7l-1.3-4.15a26.91 26.91 0 0 1-8.46-2.85z" transform="translate(-29.2 -12.06)" fill="url(#bq)"/><path d="M294.26 111.44a20.75 20.75 0 0 1 5.55 5.46l5.14-1.61a35.84 35.84 0 0 0-10.69-3.85z" transform="translate(-29.2 -12.06)" fill="url(#br)"/><path fill="url(#bs)" d="M272.46 110.65l-1.99-3.37-9.85-3.76 7.8 7.09 4.04.04z"/><circle cx="285.52" cy="113.36" r="2.68" transform="rotate(-17.41 231.624 202.706)" fill="url(#bt)"/><path d="M280.24 114.5l3.27-6c-.22-.13-1.35 0-4.41.45a.8.8 0 0 0-.62 1 20.41 20.41 0 0 0 1.76 4.55z" transform="translate(-29.2 -12.06)" fill="url(#bu)"/><path d="M273.25 110.62a8.55 8.55 0 0 1 2.18 1.2" fill="none" stroke="#6a4393" stroke-linecap="round" stroke-linejoin="round" stroke-width="2"/><path d="M279.5 115c7 6.31 15.42 18.81-.52 33.3" fill="none" stroke="#6a4393" stroke-linecap="round" stroke-linejoin="round" stroke-width="2" stroke-dasharray="5.17618989944458,5.17618989944458"/><path d="M277.02 150q-.94.77-2 1.54" fill="none" stroke="#6a4393" stroke-linecap="round" stroke-linejoin="round" stroke-width="2"/><path d="M169.25 21.14a17.58 17.58 0 0 1-7.1 7.13 26.91 26.91 0 0 1-8.46 2.88h-.09l-4-7.56v-.05a20.75 20.75 0 0 1 5.55-5.46A18.5 18.5 0 0 1 166 15.17a27.52 27.52 0 0 1 4.41.45.8.8 0 0 1 .62 1 20.41 20.41 0 0 1-1.78 4.52z" transform="translate(-29.2 -12.06)" fill="url(#bv)"/><path d="M162.15 28.27a37.17 37.17 0 0 1-9.76 7l1.3-4.15a26.91 26.91 0 0 0 8.46-2.85z" transform="translate(-29.2 -12.06)" fill="url(#bw)"/><path d="M155.23 18.08a20.75 20.75 0 0 0-5.55 5.46l-5.14-1.61a35.84 35.84 0 0 1 10.69-3.85z" transform="translate(-29.2 -12.06)" fill="url(#bx)"/><path fill="url(#by)" d="M118.64 17.29l1.99-3.37 9.85-3.77-7.81 7.1-4.03.04z"/><circle cx="163.97" cy="20" r="2.68" transform="rotate(-72.59 141.154 33.85)" fill="url(#bz)"/><path d="M169.25 21.14l-3.27-6c.22-.13 1.35 0 4.41.45a.79.79 0 0 1 .62 1 20.41 20.41 0 0 1-1.76 4.55z" transform="translate(-29.2 -12.06)" fill="url(#bA)"/><path d="M117.8 17.26a8.55 8.55 0 0 0-2.18 1.2" fill="none" stroke="#6a4393" stroke-linecap="round" stroke-linejoin="round" stroke-width="2"/><path d="M111.59 21.64c-7 6.31-15.42 18.81.52 33.3" fill="none" stroke="#6a4393" stroke-linecap="round" stroke-linejoin="round" stroke-width="2" stroke-dasharray="5.176190376281738,5.176190376281738"/><path d="M114.07 56.64q.94.77 2 1.54" fill="none" stroke="#6a4393" stroke-linecap="round" stroke-linejoin="round" stroke-width="2"/><path d="M147.65 151.29c-.06-1.26-1.08-2.26-1.22-3.52a7.54 7.54 0 0 1 .64-3.78c.63-1.39 1.41-2.77.86-4.31-.2-.57-.67-.81-1-1.26a3 3 0 0 1-.5-1.38c-.42-2.37-.87-4.75-3.11-6.15s-7-.08-6.84 3.25c.07 1.19 1 2 1.49 3.08 1.31 2.85-1.59 4.08-3.55 5.23-1 .57-1.77 1.7-.6 2.53.77.55 1.85.31 2.58.83 1.8 1.29-.87 3.72-1.43 4.9-.47 1-.79 2.71.73 3a3.42 3.42 0 0 0 1.49-.39 4.53 4.53 0 0 1 1.79-.26 4.15 4.15 0 0 1 2.06 1 3.7 3.7 0 0 0 2.9 1c2-.37 3.86-1.46 3.71-3.77z" fill="#40277a"/><path d="M141.93 147.47l-.51-3.53h-.24a3.87 3.87 0 0 0-3.1 3l-2.66 11.62-2 7.31c-2.92.85-2.51 2.54-2.37 3.08a.37.37 0 0 0 .62.23l.69-1a1.74 1.74 0 0 1 .81-.67v.2c0 .32-.19.88.09.87a8.78 8.78 0 0 0 1.53-2.36l.31-.72 3.43-8.4zm15.96-5.8l-.63-8a3.57 3.57 0 0 0 2.35-2.33.56.56 0 0 0-.58-.69 3.24 3.24 0 0 0-2.2 1.53v-1.1a.31.31 0 0 0-.5-.24c-.22.18-.41.63-.26 1.71l-.71 8.94a.23.23 0 0 1-.12.18l-8.62 2.27-.06 3.76 7.87-2.79s2.16-.74 2.12-.79a2.6 2.6 0 0 0 1.34-2.45zm-12.37 24.11v.25c0 .21.06.46.1.74q.06-.37.1-.69l-.11-.15z" fill="#f7b9b7"/><path d="M149.18 197.63a1.14 1.14 0 0 0 .13.33l2.69 2.15a.42.42 0 0 1-.12.73h-.12c-.75.19-2.1.23-2.62-.37a1.17 1.17 0 0 0-.9-.41h-.11c-.88 0-.62-1-.44-1.9v-.53z" fill="#40277a"/><path d="M145.55 166.04c0 .21.06.46.1.74q.06-.37.1-.69v-.31l-.15.16z" fill="#f7b9b7"/><path d="M139.66 198c.14.85.35 1.83-.48 1.78h-.11a1.11 1.11 0 0 0-.87.35c-.52.54-1.8.46-2.5.25h-.11a.4.4 0 0 1-.08-.7l2.63-1.93a2.35 2.35 0 0 0 .07-.38h1.33z" fill="#40277a"/><path d="M149.7 157.63a4.32 4.32 0 0 1-.39-.47 3.78 3.78 0 0 1-.46-3.37l.6-1.79.16-.46a5.25 5.25 0 0 0-.1-3.6l-.55-1.39-1.16-2.83-.93-.08-.72-.06h-.11v-.16l-.06-.2c0-.08 0-.17-.06-.25s0-.13 0-.19a2.13 2.13 0 0 1 .07-1.26l-2.37-.44v2.34l-.78.21-.84.23-1 .26a9 9 0 0 0-1 2.9c0 .27-.06.47-.07.58a.61.61 0 0 0 0 .09 7.28 7.28 0 0 0 0 .74v.71a9.09 9.09 0 0 0 .57 2.57v.08a8.87 8.87 0 0 0 .55 1.16l1.5 2.66a3.43 3.43 0 0 1 .17 1.31 5.29 5.29 0 0 1 0 .62 6.3 6.3 0 0 1-.29 1.29c1.53.32 5.76 1 7.88-.53a5.54 5.54 0 0 0-.61-.67z" fill="#f7b9b7"/><path d="M143.5 142.94a2.9 2.9 0 0 0 1.22.27 3 3 0 0 0 1.16-.24v-.19a2.09 2.09 0 0 1 .07-1.26l-2.37-.44v1c-.08.26-.08.55-.08.86z" fill="#f39b9a"/><path d="M140.68 136.2a.94.94 0 0 1 .54.16 7.29 7.29 0 0 1 1.58-3.12 2.47 2.47 0 0 1 1-.83 1.78 1.78 0 0 1 .62-.19h.84a1.78 1.78 0 0 1 .62.19 2.47 2.47 0 0 1 1 .83 7.29 7.29 0 0 1 1.55 3.11.94.94 0 0 1 .54-.16c.55 0 .74.93.58 1.59a1.72 1.72 0 0 1-1.42 1.28 6.17 6.17 0 0 1-1.1 1.56 3.34 3.34 0 0 1-1.74 1.12h-.98a3.34 3.34 0 0 1-1.74-1.12 6.16 6.16 0 0 1-1.1-1.56 1.72 1.72 0 0 1-1.42-1.28c-.11-.66.07-1.54.63-1.58z" fill="#f7b9b7"/><path d="M144.58 139.94a1.44 1.44 0 0 1-1-1.05.1.1 0 1 1 .19-.05 1.39 1.39 0 0 0 1.56 1 .1.1 0 0 1 0 .2 2 2 0 0 1-.75-.1z" fill="#40277a"/><ellipse cx="172.78" cy="149.61" rx=".35" ry=".37" transform="rotate(-3.88 -19.908 574.643)" fill="#40277a"/><ellipse cx="175.53" cy="149.61" rx=".35" ry=".37" transform="translate(-38.92 .16)" fill="#40277a"/><path d="M142.87 136.71a.1.1 0 0 1-.05-.13.83.83 0 0 1 1.06-.49.1.1 0 0 1 .06.13.1.1 0 0 1-.13.06.63.63 0 0 0-.81.38.1.1 0 0 1-.13.05zm3.74-.22a.1.1 0 0 1-.06-.06.37.37 0 0 0-.49-.22.1.1 0 1 1-.06-.19.57.57 0 0 1 .73.34.1.1 0 0 1-.06.13z" fill="#40277a"/><path d="M181.34 176.54l-.41 4.52-2.56 28.63h-1.49s-2.21-12.55.15-14.37c-.2-1.66-.42-5.71-.93-9.56-.18-1.33-.28-2.8-.36-4.13s-.14-2.66-.25-3.48c-.08.5-.38 1.77-.8 3.41-1.09 4.3-3 11-3.39 12.38 1.39.81-1 9.59-2.58 15.45h-1.33c.1-3.8 1.07-18.66 2.06-28.23a62.48 62.48 0 0 1 1.08-7.65 8.76 8.76 0 0 1 .59-1.58 6.89 6.89 0 0 0 .44-1c1.53.32 5.76 1 7.88-.53a9.41 9.41 0 0 1 1 1.84 9.7 9.7 0 0 1 .9 4.3z" transform="translate(-29.2 -12.06)" fill="url(#bB)"/><path d="M179.45 170.34c-2.11 1.56-6.34.86-7.88.53a6.3 6.3 0 0 0 .29-1.29 5.29 5.29 0 0 0 0-.62 3.43 3.43 0 0 0-.17-1.31l-2-3.73v-.16c-.27-.84.35-2.45 1-3.54.93-1.52 1.79-2.09 2-3.87l.08-.91c.85-.06 2.5 0 2.5 0v.16a8.86 8.86 0 0 0 3.44 4.38 5.25 5.25 0 0 1 .1 3.6l-.16.46-.6 1.79a3.78 3.78 0 0 0 .46 3.37 4.32 4.32 0 0 0 .39.47 5.54 5.54 0 0 1 .55.67z" transform="translate(-29.2 -12.06)" fill="url(#bC)"/><path d="M145.38 139.15c.45-.07.52-.28.53-.33a.1.1 0 0 0 0-.08l-.61-.91a.11.11 0 1 0-.18.12l.57.85s-.18.14-.57.16a.1.1 0 0 0-.1.11.11.11 0 0 0 .11.1z" fill="#40277a"/><path d="M148.69 135.56a5.21 5.21 0 0 0-2.1-3.24 3.29 3.29 0 0 0-3.79-.38 4.28 4.28 0 0 0 .12 7.49 4.22 4.22 0 0 1-.58-2.39c0-.65.2-2 1.14-2.11a5.18 5.18 0 0 0 1.51 1.66c0-.79.81-1.45.67-2.29.89 1.57 2.54 2.61 2.19 4.51a5 5 0 0 0 .84-3.25z" fill="#40277a"/><path d="M93.49 138.53c-.55 1.31-2 1.95-4.09 2a10.54 10.54 0 0 1-1.66-.09 11.59 11.59 0 0 1-4.22-1.44l-8.75-5-.94-.54a4.91 4.91 0 0 0-7.25 5.26l.59 2.86v.06l-5.94 7.56-.06.08c.33 2.84-1.94 2.3-7 1-.7-.18-1-1 .28-1.12l5.17-.44L67 130.31a7.3 7.3 0 0 1 9-4.31l5.18 2 7.65 2.64a7.13 7.13 0 0 1 4.83 5.8 4.25 4.25 0 0 1-.17 2.09z" transform="translate(-29.2 -12.06)" fill="url(#bD)"/><path d="M72.89 161v.06c1.84 2.18-.34 3-5.26 4.7-.69.23-1.42-.31-.39-1.08l4.07-3.23-4.12-19.89-.59-2.86a4.91 4.91 0 0 1 7.25-5.26l.94.54 13 6.47H74.06z" transform="translate(-29.2 -12.06)" fill="url(#bE)"/><path d="M93.49 138.53a4.24 4.24 0 0 0 .21-2.16 7.14 7.14 0 0 0-4.82-5.8l-3.61-1.25c3.5-4.37 4.89-8.7 2.76-17l2.9-1.65c9.87 12.23 8.86 20.92 2.56 27.86z" transform="translate(-29.2 -12.06)" fill="url(#bF)"/><path d="M78 124.92c.05-.12.55-1.88.55-1.88l15.23 2.24-3.62-6.92a9 9 0 0 1-1.14-4.1c0-1.86 1-3.31 3.1-2.58a7.45 7.45 0 0 1 4.27 4c4.33 9.58 4 15.16-2.95 15.28a11.58 11.58 0 0 1-5.69-1.45z" transform="translate(-29.2 -12.06)" fill="url(#bG)"/><path d="M49.31 110.94l-.51 1.92-4.48-1.84c.67-1.78 2.48-1.77 4.99-.08z" fill="#d0817b"/><path d="M50.72 115.42l-10.64-4.13s-1.66-12.1-1.54-12.1a1.84 1.84 0 0 1 1.81 1.55L41.8 110l8 3.28a1.66 1.66 0 0 1 .92 2.14z" fill="#40277a"/><path d="M61.72 98.57l-1.71-2.73-2.62 1.1a5.39 5.39 0 0 1 1.41 3.28z" fill="#bf5f56"/><path d="M60.15 92.1c-.87-1.83-2.8-3.64-4.24-3.44-1.88.27-3.27 1.56-2.43 6.4a4.12 4.12 0 0 0 .16.62c-.16.15-.32.34-.26.48s.3.16.48.15a4 4 0 0 0 3.54 2.27c1.42-.08 2.66-1.92 3.05-3.64.6-.32-.14-3-.3-2.84z" fill="#d0817b"/><path d="M55.37 96.34a1.37 1.37 0 0 0 .26-1.36.1.1 0 1 0-.18.06 1.32 1.32 0 0 1-.76 1.59.1.1 0 1 0 .08.17 1.88 1.88 0 0 0 .6-.46z" fill="#40277a"/><ellipse cx="83.47" cy="106.67" rx=".35" ry=".37" transform="rotate(-16.3 26.75 202.572)" fill="#40277a"/><path d="M54.8 93.44a.1.1 0 0 0 0-.13.79.79 0 0 0-1.11-.09.1.1 0 0 0 0 .13.09.09 0 0 0 .13 0 .6.6 0 0 1 .85.08.1.1 0 0 0 .13.01z" fill="#40277a"/><path d="M62.59 92.68a7.44 7.44 0 0 0-1.16-3.74 4.84 4.84 0 0 0-5.24-1.65 12.14 12.14 0 0 0-1.92-.46 4.7 4.7 0 0 0-2.72 1c.32.07 1.83.27 2 .55a2.83 2.83 0 0 0-3.12 1.85c.31-.26 1.11-1 1.53-.53a1.7 1.7 0 0 0-.84 1.54c0 .47-.13 1.35.34 1.66l.06-1a1.58 1.58 0 0 0 .76 1.37 3 3 0 0 1 .37-1.19c.24.57 1 .71 1.55.72 0-.35 0-.7.33-.92a6 6 0 0 0 2.59 2.25 2.46 2.46 0 0 1 .09-.46 1.13 1.13 0 0 1 1.59-.73.94.94 0 0 1 .41.51c.27.79-.33 1.35-1 1.69a3.28 3.28 0 0 1 .92 2.23 5.64 5.64 0 0 0 3.46-4.69zm-24.16 61.05c-.69.23-1.42-.31-.39-1.08l4.07-3.23 1.59-.41v.06c1.82 2.14-.36 2.94-5.27 4.66zm-6.47-16.55c.33 2.84-1.94 2.3-7 1-.7-.18-1-1 .28-1.12l5.17-.44 1.58.5z" fill="#522b86"/></g></svg>