<svg xmlns="http://www.w3.org/2000/svg" xmlns:xlink="http://www.w3.org/1999/xlink" viewBox="0 0 400 225"><defs><radialGradient id="d" cx="200" cy="112.5" r="162.26" gradientUnits="userSpaceOnUse"><stop offset="0" stop-color="#161412" stop-opacity="0"/><stop offset=".12" stop-color="#102a2e" stop-opacity=".25"/><stop offset=".27" stop-color="#0a404a" stop-opacity=".51"/><stop offset=".43" stop-color="#065160" stop-opacity=".7"/><stop offset=".6" stop-color="#035d6f" stop-opacity=".84"/><stop offset=".78" stop-color="#016478" stop-opacity=".92"/><stop offset="1" stop-color="#00667b" stop-opacity=".95"/></radialGradient><linearGradient id="e" x1="-26.09" y1="211.58" x2="222.76" y2="211.58" gradientUnits="userSpaceOnUse"><stop offset="0" stop-color="#5dc2d8"/><stop offset="1" stop-color="#556db3"/></linearGradient><linearGradient id="a" x1="258.85" y1="206.45" x2="258.85" y2="231.49" gradientUnits="userSpaceOnUse"><stop offset="0" stop-color="#1b3f5c"/><stop offset="1" stop-color="#4b98d3"/></linearGradient><linearGradient id="f" x1="281.73" y1="206.45" x2="281.73" y2="231.49" xlink:href="#a"/><linearGradient id="g" x1="132.34" y1="206.45" x2="132.34" y2="231.49" xlink:href="#a"/><linearGradient id="c" x1="292.53" y1="68.73" x2="349.05" y2="68.73" gradientUnits="userSpaceOnUse"><stop offset="0" stop-color="#fff"/><stop offset="1" stop-color="#ddeaf6"/></linearGradient><linearGradient id="b" x1="297.1" y1="55.58" x2="316.82" y2="55.58" gradientUnits="userSpaceOnUse"><stop offset="0" stop-color="#5fa7dc"/><stop offset="1" stop-color="#3384c6"/></linearGradient><linearGradient id="h" x1="297.1" y1="62.77" x2="312.55" y2="62.77" xlink:href="#b"/><linearGradient id="i" x1="327.45" y1="83.32" x2="342.91" y2="83.32" xlink:href="#b"/><linearGradient id="j" x1="228.19" y1="26.58" x2="284.71" y2="26.58" xlink:href="#c"/><linearGradient id="k" x1="196.46" y1="206.45" x2="196.46" y2="231.49" xlink:href="#a"/><linearGradient id="l" x1="212.2" y1="210.07" x2="212.2" y2="231.48" xlink:href="#a"/><linearGradient id="m" x1="92.18" y1="55.6" x2="148.7" y2="55.6" xlink:href="#c"/><linearGradient id="n" x1="95.83" y1="63.5" x2="145.06" y2="63.5" xlink:href="#b"/><linearGradient id="o" x1="95.83" y1="39.37" x2="115.55" y2="39.37" xlink:href="#b"/><linearGradient id="p" x1="95.83" y1="45.26" x2="121.71" y2="45.26" xlink:href="#b"/></defs><g style="isolation:isolate"><path fill="url(#d)" d="M0 0h400v225H0z" data-name="Calque 2"/><g data-name="Calque 1"><path d="M376.81 203.5v16.16h-353A78.06 78.06 0 0 0 39.5 203.5z" fill="url(#e)"/><path d="M262.5 211.93a.28.28 0 0 1 0 .15c0 .86-2.2 3.88-2.2 3.88a15.48 15.48 0 0 0-1.19 2.48c-.11.38-.2.82-.28 1.24h-3.62a2.93 2.93 0 0 1-.08-.89v-3.69h.48v2c.44-2 .75-4.64 2.07-5.15 1.71-.66 4.46-.59 4.82-.02z" fill="url(#a)"/><path d="M283.13 216a8.9 8.9 0 0 0-1.09 2.42c-.06.43-.13.85-.21 1.24h-3.69a2.92 2.92 0 0 1-.08-.89v-3.69h.48v2c.44-2 .75-4.64 2.07-5.15 1.67-.64 4.43-.56 4.79 0s-2.26 4.07-2.27 4.07z" fill="url(#f)"/><path d="M233.75 113.33s-.83-1.56-1-1.79a4.23 4.23 0 0 0-1.62-.88 4.94 4.94 0 0 0-2.16-.29.76.76 0 0 0-.42.48 1.45 1.45 0 0 0 0 .74.89.89 0 0 0-.23.83.77.77 0 0 0-.08.86.65.65 0 0 0-.1.71 5.84 5.84 0 0 1 .89.53 12.34 12.34 0 0 0 3.15 1.15s1.51-.15 1.57-2.34z" fill="#eea886"/><path d="M231.32 112.69a4.35 4.35 0 0 0 .23 1.12c.15.24-1.7 1-1.7 1s.4-1.99 1.47-2.12z" fill="#d08d6c"/><path d="M270.93 108.4a9.22 9.22 0 0 0 .76-5.81c-.72-3-3.5-6-7.58-4.61s-7.36 4.53-4.92 8.19-2.21 5.31-1 7.05.74 3.56.23 4-2.12 1.85-1.94 3.56 7.9-5 7.9-5 4.19-8.47 6.55-7.38z" fill="#262f3c"/><path d="M283.13 208s2.62 3.52 2.26 4.08-3.11.64-4.79 0-1.72-4.77-2.47-6.54c-.32-.74.36-2.94 1.32-3.1a4 4 0 0 1 2 .31s-1.01 2.46 1.68 5.25z" fill="#356690"/><path d="M281.45 202.68a27.46 27.46 0 0 1 .58 2.86c.17 1.19 2 3.79 2 4.11s-2.23.61-3.11-.21-1.44-3.22-1.64-4.65a11.54 11.54 0 0 0-.41-2s1.74-.99 2.58-.11z" fill="#262f3c"/><path d="M260.34 208s2.52 3.47 2.16 4-3.11.64-4.79 0-1.72-4.77-2.47-6.54c-.32-.74.36-2.94 1.32-3.1a4.29 4.29 0 0 1 2.08.34s-.98 2.57 1.7 5.3z" fill="#356690"/><path d="M258.63 202.74a23.73 23.73 0 0 0 .52 2.79c.32 1.16 2 3.79 2 4.11s-2.23.61-3.11-.21-1.56-3.2-1.64-4.65a7.68 7.68 0 0 1 .2-2.38 2 2 0 0 1 2.03.34z" fill="#262f3c"/><path d="M271.58 145.3s1.91 10.52 2.43 13.15 2 15.37 2.11 17.54 2.34 10.33 2.24 11.11 3.25 16.32 3.25 16.32a2 2 0 0 1-2.35.08c-.62-.43-5.7-13.33-6.67-17.07s-3.66-12.46-4.17-13.66c-4.74-11.12-4.78-15.73-5.4-16.46s-.67.45-1 2-1.13 15.43-1.6 17.18-.1 7.69-.36 10.68-1.39 16.53-1.39 16.53a1.23 1.23 0 0 1-2.11 0c-.26-.29-2.12-15.08-2.18-18.64s-.11-8.47-.21-10c-1-14.75-3.3-16.86.4-27.3 6.89-19.48 17.01-1.46 17.01-1.46z" fill="#262f3c"/><path d="M256.16 142.44s-5.18 8.52-3.9 23c0 0 14.5 1.59 23.9.87 0 0-3.36-18-4.58-21s-15.42-2.87-15.42-2.87z" fill="#356690"/><path d="M295 116.48s.07.47-1.36 1.48-.6-2.72-.6-2.72zm.75-4.42s.47-1.44.65-1.78-.53-1-.88-.11l-.56 1.42z" fill="#eea886"/><path d="M295.28 113.42l1.48-6.18a.7.7 0 0 0-.6-.86l-3-.35a.7.7 0 0 0-.77.58l-1 6.3a.7.7 0 0 0 .63.81l2.49.23a.7.7 0 0 0 .77-.53z" fill="#314663"/><path d="M296 113s.21-.54-.72-1.35c-1.22-1.07-2.92-2.29-3.29-2.21-.54.12-.4.54.41 1.09l1.08.72a7.78 7.78 0 0 0-2.15-.56c-.45.1-.61.58-.35.74a7.52 7.52 0 0 0 .93.4s-.75-.18-.91.1-.23.51.43.84a.54.54 0 0 0 0 .93 1.69 1.69 0 0 1 .69 1.66 5.29 5.29 0 0 0 .55 1.93l2.3-.77a9.72 9.72 0 0 1 .4-2.15c.29-.53.63-1.37.63-1.37zm-62.25.33a5.73 5.73 0 0 0 1.54.88c.63.16-.12 2.13-.16 2.09s-3.29-.73-3.29-.73z" fill="#eea886"/><path d="M229.21 110.45s2 .84 1.94 1.19a.56.56 0 0 1-.34.41l.68.73s.18.73-.67.71c0 0 .24.67-.58.55 0 0 0 .51-.43.52a7.34 7.34 0 0 1-1.67-.58s-.21-.25.1-.71a.76.76 0 0 1 .08-.86.83.83 0 0 1 .23-.83s-.28-.92.46-1.22z" fill="#db9c7c"/><path d="M232.72 111.51a7.46 7.46 0 0 0-2.3.55c-.18.1-.33.22-.31.43s.34.43 1 .41a5.52 5.52 0 0 1 1.51.26s.66-.23.1-1.65z" fill="#eea886"/><path d="M271.67 144s-.61 3-16.43-.78c0 .04 5.3-1.73 16.43.78z" fill="#e94847"/><path d="M255.24 144c.45-1.09 2.91-4.95 3.2-7.22a17.76 17.76 0 0 0-1-7.3 65.23 65.23 0 0 0-2.68-7.05s-9.31-1.47-11-1.79-10.51-4.71-10.64-4.76.77-2.44.89-2.36c.32.19 7.53 2.84 10.62 3a70.22 70.22 0 0 0 11.37-.22c3.29-.55 6.16-1.12 6.16-1.12s2-1.44 5.13 0a58.86 58.86 0 0 1 5.51 2.82 66.67 66.67 0 0 0 8.5 2.88c5.21 1.33 3.83 1.62 6.15-.59l4.54-5.23 3.23 1.93-8.14 9.55c-.91.8-5-.22-7.59-.4-.89-.06-6.19-.92-6.19-.92.1 1.75.38 3.71-1.32 5.93-1.42 1.85-.57 12.73-.31 13.59z" fill="#e94847"/><path d="M268.18 115.65c3.56 5.38 2.17 20.6 1.47 30.31a.84.84 0 0 0 1.16.83l1-.42a.7.7 0 0 0 .42-.75c-.41-2.56-1.5-12.78-.22-14.46 1.7-2.22 1.42-4.17 1.32-5.93l1.18.19c1.62.26 4.39.69 5 .73 2.62.18 6.68 1.2 7.59.4l8.14-9.55-3.24-1.92-4.54 5.23c-2.32 2.22-.94 1.92-6.15.59-1.1-.28-4.41-1.29-6.6-2.08a12.44 12.44 0 0 1-1.9-.8 46.87 46.87 0 0 0-4.62-2.37zm-35.18.18c.12.06 9 4.47 10.64 4.76s10.19 1.66 11 1.78h.06a65.23 65.23 0 0 1 2.68 7.05 17 17 0 0 1 .23 7.07 24 24 0 0 1-2.62 6.76c-.17.3 0 1 .33 1.16l4 1.47a1.64 1.64 0 0 0 2.2-1.33c.71-5.49 1.62-11.09 2.33-13.2a19 19 0 0 0-1.69-16.18s-2.87.57-6.16 1.12a21.3 21.3 0 0 1-2.24.22c-2.43.13-5.87.1-9.21-.06-3.09-.15-10.3-2.8-10.62-3-.12-.05-1.14 2.27-.93 2.38z" fill="#eedad3"/><path d="M265.07 117.79c2.58-.49 2-1.92 2-1.92s-.12-.81-.17-1.83v-.82a10.79 10.79 0 0 1 .07-1.27c.21-1.73-4.68-.7-4.68-.7s.28 3.5-.39 4.55.59 2.48 3.17 1.99z" fill="#eea886"/><path d="M260.27 115.55s5.13 6 7.05 7.38c0 0 2.21-2 .85-7.27.01-.01-2.66-2.06-7.9-.11zm9.58-14.15s2.7 5.21 0 10.14-7.95-2.15-8.29-3-2.15-5.53 1.45-7 6.08-1.54 6.84-.14z" fill="#eea886"/><path d="M269 103.25s1.86 2.44 2.08 4.25a9.68 9.68 0 0 0-1.35-6.69c-2.09-3.28-7.42-.16-8.13 1.15s-2.8 2.47.71 8.1c-.05-.01 6.26-4.39 6.69-6.81z" fill="#262f3c"/><path fill="#356690" d="M278.05 205.19v3.69h.48v-2.86l-.48-.83zm-22.88 0v3.69h.48v-2.86l-.48-.83z"/><path d="M264.25 106.58a2.91 2.91 0 0 0-.08 3c1 1.4-.24 2.77-.45 4.24s4 5.4-.68 7.37-6.74-1.77-5.55-3.57 2.61-2.77 2.71-5.33.95-6.53 4.05-5.71z" fill="#262f3c"/><path d="M264.64 112.06a5 5 0 0 0 2.3 2v-.82a4.38 4.38 0 0 1-2.3-1.18z" fill="#a77961"/><path d="M142.61 213c-3 1.67-3.3 1.17-3.64 2s.4 3.06.38 3.33.07.41.11.59l-1 .06-.08.64h5.91v-.06c.07-.33-.49-.51-1.28-.6a6.47 6.47 0 0 0 .18-.87 5.92 5.92 0 0 1 3-2.28c1.76-.4 3.49-1 3.5-2.16s-5.07-1.72-7.08-.65zm-24.87-.3c-1.82 1.31-2.4 1.32-2.69 2.14s.51 3 .5 3.23a3 3 0 0 0 .07.34 1.73 1.73 0 0 0-.63.3s0 .32.07.9h5.09l-.2-1.19-.63-.08a4.06 4.06 0 0 0 0-.66 5.51 5.51 0 0 1 2.42-2.4c1.63-.65 2.94-1.4 2.91-2.48s-4.04-2.12-6.92-.05z" fill="url(#g)"/><path d="M143.19 206.86a5.92 5.92 0 0 0 3 2.28c1.76.4 3.49 1 3.5 2.16s-5.08 1.77-7.09.65c-3-1.67-3.3-1.16-3.64-2s.4-3.06.38-3.33 3.85.24 3.85.24z" fill="#353a3d"/><path d="M143 205.94a8 8 0 0 1 .19.92s-4 .49-3.84-.24.23-1.23.23-1.23z" fill="#82817f"/><path d="M119.27 207.26a5.51 5.51 0 0 0 2.42 2.4c1.63.65 2.94 1.4 2.91 2.48s-4 2.17-6.87.1c-1.82-1.31-2.4-1.32-2.69-2.14s.51-3 .5-3.23 3.73.39 3.73.39z" fill="#353a3d"/><path d="M119.32 206.33a8.83 8.83 0 0 1 0 .93s-3.83.33-3.73-.38a5.84 5.84 0 0 1 .37-1.25z" fill="#82817f"/><path d="M135.15 151.07s3.58 14.23 4.93 18.84a79.09 79.09 0 0 1 2.28 12.17c.49 4.63 1.71 22.26 1.92 23.32s-5.84.57-5.84.57-2.72-21.31-3.49-25.18c-.57-2.87-7.69-21.45-8.46-20.47s-1.73 18-2.3 20.82-4.25 25.39-4.25 25.39-3.91.6-5-.29c0 0 1.45-19.32 1.82-24.62.14-2-2.36-24.2.84-33.13 1.74-4.72 17.55 2.58 17.55 2.58z" fill="#2f3234"/><path d="M150.49 136.94c-2.51-.35-10.41 3.15-11.13 2.88-.49-.18-1.65-4-2.48-6.81-.49-1.69-.86-3.06-.91-3.17.09.84-.67 2.81-1.25 5-1.15 4.42 1.39 11.8-.06 13.78l-16.72-2.35s-.74-5.26-.8-8.1a51.54 51.54 0 0 0-1.68-8.75v-.1s-4.18 4.39-5 6.3c-.25.58-1 2.16-2 4.09a11.56 11.56 0 0 1-1.07-2.35v-.09c.06-1.89 2-9.57 3.61-14.59a27.81 27.81 0 0 1 2.6-4.66 50.17 50.17 0 0 1 7.62-3.1h.24c1.16.07 4.61.39 5.72.5h.35l1.33.61h.07c.48.22 1 .51 1.63.84 1.16.63 2.43 1.37 3.49 1.88s2.46 1.18 2.58 1.28l5.26 15.16 9.12-1.67z" fill="#decbc4"/><path d="M134.66 148.65a4.76 4.76 0 0 1 .5 2.41s-15.84-1.85-17.51-2.58c0 0-.07-2.15.29-2.19s16.72 2.36 16.72 2.36z" fill="#4a5156"/><path d="M121.15 114.41c0 2.49 4.86 3.84 4.86 3.84s2-2.52 1.53-2.77c-.19-.09-.27-.47-.29-.89a8.71 8.71 0 0 1 0-1.13v-.29s-.69-.73-1.56-1.59c-1.53-1.51-3.63-3.45-3.63-2.68a.69.69 0 0 0 0 .15c.44 1.74-.91 5.36-.91 5.36z" fill="#eea886"/><path d="M121.55 146.68s-.35 2.18-.38 2.75l-.73-.15s.2-2.31.32-2.69zm11.79 1.72s.28 2 .28 2.73l-.77-.1s-.16-2.47-.25-2.73z" fill="#353a3d"/><path d="M123 110.77s.21.32.56.76a10.08 10.08 0 0 0 3.69 3.07 8.71 8.71 0 0 1 0-1.13 2.47 2.47 0 0 0 .48-.06 14.75 14.75 0 0 0-1-1.53l-1-.29z" fill="#a77961"/><path d="M122.08 108.95c.42.91.81 1.56.92 1.82a3.22 3.22 0 0 0 .56.76 5.55 5.55 0 0 0 3.72 1.94 2.47 2.47 0 0 0 .48-.06 2.27 2.27 0 0 0 1.66-1.14 13 13 0 0 0 .83-10.68s-8.21-2.32-9.49.15c-.91 1.73.34 5.08 1.32 7.21z" fill="#eea886"/><path d="M130.25 101.58s.76 0 1-1.49-.19-1.82-.19-1.82a33.94 33.94 0 0 0-4.61-1.6c-1.22-.18-4.21-.36-4.91.44a3.1 3.1 0 0 0-2.26 3.26 15 15 0 0 0 2.6 8s0-2.93.62-3.32 1.2.54 1.2.54l1.32.24s-2-4.34.4-4.5 3.45.5 4.83.25z" fill="#d6d7d7"/><path d="M123.62 104.43c-.13-1.29-2.46-1.78-2.31-.43s1.31 2.65 1.84 2.61.57-1.19.47-2.18z" fill="#eea886"/><path d="M108.48 139.73c1 1.94 2.62 4.8 4.21 7.57l-.61 1.16a23.13 23.13 0 0 0-1.2 2.68c-.36 1-.86 3.6.1 4.09L116 158l.1-.28a107.06 107.06 0 0 1 4.89-11.1c1.46-2.67 3.11-4.91 3.64-8.18s.75-6.15 1-8.53c.4-4.22-2.19-8.8-4.18-11.63a31.38 31.38 0 0 0-2.12-2.71l-1.18.46c-1.92.75-6.46 2.1-7 2.46-.29.21-.47 1.91-1.23 4.35a73.2 73.2 0 0 0-2.54 14.47v.09a11.56 11.56 0 0 0 1.1 2.33zm7.7-.94a8.75 8.75 0 0 1-.78 3.17v.09c-.32-.69-.63-1.36-.9-2a15.87 15.87 0 0 1-1.3-3.53c-.19-3.35 2.28-7.2 2.28-7.2.41 1.68.65 7.79.69 9.46zm37.68-6.99l-11.47 2.5-5.47-14.3c-.12-.1-1.69-.94-2.73-1.43l-3.66-1.71-1.59-.73a67.62 67.62 0 0 1 1.55 7.88l.09.58v.07l.06.4v.27l.1.68c.39 2.74.94 7.4 1.47 12.11.42 3.71 1.37 7.52 1.67 10.36.26 2.48 2.2 8.76 3 11.08l.48-.44 1.42-1.31a1.15 1.15 0 0 0 .32-1.19c-.79-2.54-3.47-11.54-4-17.87a21 21 0 0 1 .76-5.63c.28.78.59 1.64.91 2.47.85 2.23 1.71 4.29 2.07 4.43.8.29 15.9-3.83 16-4.43z" fill="#3d4145"/><path d="M120.67 121.73L123 123l-1 1 2.66 14.38c.54-3.37.79-6.57 1-8.53.61-6.53-5.91-13.9-6.31-14.35l-1 .39zm8.2-5.64a75.72 75.72 0 0 1 1.89 10c.39 2.74.94 7.4 1.47 12.11l.54-13.47-1.12-1.21 1-1.24-2.12-5.42-1.59-.73z" fill="#52575d"/><path d="M119.21 115.59l1.94-1.18s.05 1.06 4.86 3.84l-1.37 3.84zm8.08-.65a9 9 0 0 1-1.28 3.31l2.66 3.47.19-5.63z" fill="#f6e3da"/><path d="M126 118.25a9.06 9.06 0 0 0-.33 2.64 2.52 2.52 0 0 0 2-.1 9.07 9.07 0 0 0-1.67-2.54z" fill="#323657"/><path d="M128.68 148a39.09 39.09 0 0 0 0-6h-.25a40 40 0 0 1 0 5.94z" fill="#ad9f99"/><path d="M126.65 147.37s2.33.28 3.1.47l-.1 2.61-3.05-.33z" fill="#6a747b"/><path d="M127.16 120.61a36.66 36.66 0 0 1 2.17 13.91c-.44 7.62-1.16 10.38-1.16 10.38l-1.6 2-.71-2.47a60.59 60.59 0 0 0 .76-19.16c-.25-1.71-.63-5-.63-5z" fill="#323657"/><path d="M119.36 151.6s.56 1.12 1.12 1.3a4.82 4.82 0 0 1 1.37 1.09l-3.93 2.07a10.74 10.74 0 0 1-1.09-3.35c-.05-1.3 2.53-1.11 2.53-1.11z" fill="#eea886"/><path d="M119.73 151.7l.26.52a18 18 0 0 1-3.17 1.94l-.23-.7z" fill="#decbc4"/><path d="M120 151.73a19.14 19.14 0 0 1-3.44 2.26l-5.3-9.53 2.74-5.31s5.86 11.65 6 12.58z" fill="#3d4145"/><path d="M135.81 129.85c.09 1.76.07 3.33.07 3.33.28.78.59 1.64.91 2.47a26.55 26.55 0 0 0 .07-2.69 16.49 16.49 0 0 0-1.68-7.53 16.78 16.78 0 0 1 .63 4.42zm-23.73 18.6l4.24 5.12-3.63-6.28z" fill="#2f3234"/><path d="M142.87 142h9.79a1.45 1.45 0 0 0 1.41-1.11l4.25-17.56a1.45 1.45 0 0 0-1.41-1.8h-9.79a1.45 1.45 0 0 0-1.41 1.11l-4.25 17.56a1.45 1.45 0 0 0 1.41 1.8z" fill="#dac9c2"/><path d="M154.84 137.15c-.48-.44-1.4-.7-2.19-1.23a.62.62 0 0 1-.13-1.07c-.81-.28-.73-.65-.62-.9s1-.24 1-.24a8.66 8.66 0 0 1-1.12-.32c-.33-.15-.22-.72.29-.9a9 9 0 0 1 2.56.33l-1.35-.67c-1-.51-1.24-1-.64-1.19.41-.15 1.23.17 2.8 1.22 1.18.79 1.08.9 1.08.9s-1.11 4.6-1.68 4.07z" fill="#eea886"/><rect x="292.53" y="48.58" width="56.52" height="40.3" rx="2.71" ry="2.71" fill="url(#c)" opacity=".79"/><rect x="297.1" y="54.15" width="19.72" height="2.87" rx="1.44" ry="1.44" fill="url(#b)"/><rect x="297.1" y="61.33" width="15.46" height="2.87" rx="1.34" ry="1.34" fill="url(#h)"/><rect x="327.45" y="81.88" width="15.46" height="2.87" rx="1.34" ry="1.34" fill="url(#i)"/><path fill="#3f8fcd" d="M297.83 84.05l-1.46-1.47 10.48-10.48 5.03 1.44 10.88-10.88 5.88 5.88 15.12-15.12 1.46 1.46-16.58 16.58-5.88-5.88-10.28 10.28-5.03-1.44-9.62 9.63z"/><rect x="228.19" y="6.44" width="56.52" height="40.3" rx="2.71" ry="2.71" fill="url(#j)" opacity=".79"/><path fill="#fff" d="M230.93 32.8h4.21v10.77h-4.21zm9.33-6.22h4.21v16.99h-4.21zm9.32 3.4h4.21v13.6h-4.21zm9.33-7.95h4.21v21.55h-4.21zm9.33 2.39h4.21v19.15h-4.21zm9.32-10.15h4.21v29.3h-4.21z"/><path fill="#539fd7" d="M230.93 36.53h4.21v7.04h-4.21zm9.33-4.06h4.21v11.1h-4.21zm9.32 2.22h4.21v8.89h-4.21zm9.33-5.2h4.21v14.08h-4.21zm9.33 1.57h4.21v12.52h-4.21zm9.32-6.64h4.21v19.15h-4.21zm-46.63-11.3h13.54v1.87h-13.54z"/><path d="M231.33 213.44v6.23h-69.75v-6.23a6.63 6.63 0 0 1 6.63-6.63h56.49a6.63 6.63 0 0 1 6.63 6.63z" fill="url(#k)"/><path d="M213.94 205.76h-40.9a9.06 9.06 0 0 1-9.1-9.07V77.8a9.07 9.07 0 0 1 9.07-9.07h40.93a9.06 9.06 0 0 1 9.06 9.06v118.9a9.06 9.06 0 0 1-9.06 9.07z" fill="#597ba4"/><path d="M221.4 206.8h-49.88a9.94 9.94 0 0 1-9.94-9.94V77.44a9.93 9.93 0 0 1 9.93-9.93h49.89a9.93 9.93 0 0 1 9.93 9.93v119.43a9.93 9.93 0 0 1-9.93 9.93z" fill="#506e91"/><path d="M221.25 205.76h-40.9a9.07 9.07 0 0 1-9.07-9.07V77.8a9.07 9.07 0 0 1 9.07-9.07h40.9a9.06 9.06 0 0 1 9.06 9.06v118.9a9.06 9.06 0 0 1-9.06 9.07z" style="mix-blend-mode:screen" fill="#a7caec" opacity=".98"/><path d="M219.49 116.44s.59-1.43.8-1.76-.46-1-.88-.18-.68 1.39-.68 1.39z" fill="#eea886"/><path d="M218.9 117.78l2-6.16a.71.71 0 0 0-.54-.92l-3-.59a.71.71 0 0 0-.83.53L215 117a.71.71 0 0 0 .57.87l2.52.43a.71.71 0 0 0 .81-.52z" fill="#535353"/><path d="M219.71 117.37s.25-.53-.62-1.43c-1.16-1.19-2.79-2.56-3.18-2.5-.55.08-.45.52.34 1.14l1 .82a7.92 7.92 0 0 0-2.15-.74c-.47.07-.67.54-.41.72a7.73 7.73 0 0 0 .91.48s-.75-.24-.93 0-.28.5.37.89a.55.55 0 0 0-.08.95 1.73 1.73 0 0 1 .57 1.74 5.38 5.38 0 0 0 .4 2l2.27-.25a14.37 14.37 0 0 1 .71-2.51c.35-.44.8-1.31.8-1.31z" fill="#eea886"/><path d="M205.42 130.32c1 1.55 2.4 3.2 3.49 3.18.71 0 9.59-11.45 9.59-12s-3.27-1.54-3.27-1.54a17.11 17.11 0 0 1-3 3.84 47.22 47.22 0 0 0-3.54 3.82c-.36.25-1.66-2.54-1.66-2.54a28.05 28.05 0 0 0-2.21-5.94 8.26 8.26 0 0 0-4.06-3.17c-5.47 2.46 3.05 11.66 3.05 11.66s1.11 1.98 1.61 2.69z" fill="#fdc958"/><path d="M206.18 126.12s-.06 17.15 0 21.11-5-9.51-5-9.51 2.69-8.39 5-11.6zm3.82 78.59s.65 1.73 1.55 2.14 2.95 2.31 3.77 2.44 2.79.29 2.9 1.33-.1 2-4.07 1.44a29.25 29.25 0 0 1-7.72-2.38s-.8-4 .49-6 3.08 1.03 3.08 1.03z" fill="#fdc958"/><path d="M210 204.71l-.74-2.48h-2.83v2.64s4.3 1.62 3.57-.16z" fill="#eea886"/><path d="M200.81 115.43l2.55 4 2.36 3.71s-.16-.58-.43-2.21c-.05-.31-.11-.66-.16-1a2.83 2.83 0 0 0-.07-.34c-1-2.33-4.13-4.08-4.24-4.14z" fill="#eedad3"/><path d="M205 119.54a5.27 5.27 0 0 1 .25 1.42l-.92-1.39s-1.65-2.36-2.21-3a9.38 9.38 0 0 0-1.34-1.15s3.28 1.58 4.22 4.12z" fill="#fdc958"/><path d="M205.53 130.82v-.07.07z" fill="#314663"/><path d="M196.43 97s-3.86-.13-5.09 3a9.34 9.34 0 0 0 0 6.74c.92 3 1 4.1.55 5.92-.39 1.61-.76 2.44-1.21 3.94s.3 1.34.37 1.45 14.76 3.28 14.76 3.28-.47-3.76-1.44-5.24c-.71-1.09-1.78-1.46-1-4.68s1.32-4.72.87-7.06c-.52-2.71-.85-4.4-3.4-6.18a6.85 6.85 0 0 0-4.41-1.17z" fill="#3b3b40"/><path d="M192.09 137.3a20.87 20.87 0 0 1-1.61 7s-3.15 1.3-4.68-.67c-.6-.78-1.12-3.39-1.34-6.73a42.65 42.65 0 0 1 3.09-17 32.09 32.09 0 0 1 4.54 17.4z" fill="#323657"/><path d="M192.09 137.3a20.87 20.87 0 0 1-1.61 7s-3.15 1.3-4.68-.67c-.6-.78-1.12-3.39-1.34-6.73z" fill="#323657"/><path d="M199.48 113.74s4.3 3.1 5.73 10.49c0 0-4-7.91-5.35-9.31a1.32 1.32 0 0 1-.38-1.18z" fill="#fdc958"/><path d="M183.64 167.33s12.28-1.34 19.78 3-7-12.76-7-12.76-12.62 4.93-12.78 9.76z" fill="#c3b2ad"/><path d="M187.39 205.75h-4.83c-1.2-1.92-1.6-2.26-1.42-2.93s1.81-3.78 1.77-4.14 2.22 1.36 2.22 1.36a7.32 7.32 0 0 0 .72 2.34c.38.44.87 2.28 1.54 3.37z" fill="#fff6e1"/><path d="M185.83 198.75a4.7 4.7 0 0 0-.69 1.29c-.12.48-1.16.66-2-.37a1.66 1.66 0 0 1-.22-1 9 9 0 0 1 .74-2.07z" fill="#eea886"/><path d="M197.56 158c.15.72 1.1 3.71 2.16 7l.92 2.9c.67 2.1 1.3 4.11 1.74 5.55.24.79.42 1.41.51 1.79.61 2.5-.08 6.42-.3 9.69s3.31 19.39 3.31 19.39c.83.39 4.53-.64 4.53-.64-.61-1.17-1.43-21.23-1.1-22.51a19.4 19.4 0 0 0 .22-6.22 5.43 5.43 0 0 1-.11-1.11c0-1.75.33-4.65.55-7.83.28-4-1.28-13.94-1.5-14.83 0-.08-.05-.2-.09-.34-.41-1.39-1.73-5.35-1.73-5.35a13.09 13.09 0 0 0-6.18-.63 4.6 4.6 0 0 0-3.63 3.11c-1.29 3.65.51 9.09.7 10.03z" fill="#2a2c48"/><path d="M182.39 198.25l3.65 1.55c.46-2.22 10.64-17.65 11.31-19.37a25.15 25.15 0 0 0 1.39-6.27v-1.06c.12-1.85.46-5.34.94-8.06.09-.51.19-1 .29-1.42.54-2.34.63-10.35.64-15.06v-3.54l-.13-.1c-1-.77-7.51-5.44-9.77-1.07a13.1 13.1 0 0 0-1.23 3.68 43.72 43.72 0 0 0-.68 13.08c.5 3.47 1.59 7.41 2.33 11 .4 2 .76 4.06.31 4.85-1.28 2.22-2.53 4.1-5.11 11.94-.82 2.51-3.94 9.85-3.94 9.85z" fill="#2a2c48"/><path d="M191.76 137c-.59 2.37-3.61 14.2-3.53 14.9 0 .26 3.33.82 6.37 1.35a24.5 24.5 0 0 0 13.8-2.35c0-.17-3-11.32-3.25-12.61s.27-6.15.38-7.52a10.34 10.34 0 0 1 .51-2 14.34 14.34 0 0 0 .94-3.67 5.18 5.18 0 0 0-.45-1.89 15.61 15.61 0 0 0-1.24-2.21c-.3-.46-.61-.93-.92-1.39a26.39 26.39 0 0 0-2.54-3.32 8.08 8.08 0 0 0-1-.81 5.42 5.42 0 0 0-.94-.51h-.11l-4.4-.7-1.13.4c-.81.28-1.92.64-2.8.87l-.39.1a4.38 4.38 0 0 0-1.55 1.18c-.76.85-1.56 2.25-1.58 5.1 0 2.51 2.86 8.5 3.31 10.35s1.12 2.34.52 4.73z" fill="#e94847"/><path d="M194.39 114.66s.13-5.22-.32-6.06 5.38 3.49 5.38 3.49v.43a5.6 5.6 0 0 0 0 1v.17a6.34 6.34 0 0 0 .54 2c.67 1.31-5.6-1.03-5.6-1.03z" fill="#eea886"/><path d="M199.76 114.88s3 4.54 2 4.94-6.41-.53-8.71-4.84a8.11 8.11 0 0 1 6.71-.1z" fill="#eea886"/><path d="M192.77 122.82a35.86 35.86 0 0 0-4.93-1.43s.88-6.7 4.76-6 .17 7.43.17 7.43z" fill="#eedad3"/><path d="M199.53 114.06s-.23.86-5.12-.64l-.23 1.11a12.89 12.89 0 0 0-2.41.82s8.82 8.31 10.16 4.92-2.06-5.35-2.06-5.35z" fill="#e94847"/><path d="M199.87 114.92l6.67 8.25a15.61 15.61 0 0 0-1.24-2.21c-.3-.46-.61-.93-.92-1.39a26.39 26.39 0 0 0-2.54-3.32 8.08 8.08 0 0 0-1-.81 5.42 5.42 0 0 0-.94-.51z" fill="#e94847"/><path d="M205.54 130.72c.43-1.32 1.59-4.37 1.5-5.66a5.74 5.74 0 0 0-.51-1.89 16.16 16.16 0 0 0-1.24-2.28c-.3-.46-.83-1.25-1.15-1.7a19.76 19.76 0 0 0-2.31-2.95 8.46 8.46 0 0 0-1-.84 4.49 4.49 0 0 0-.94-.48s7 6.34 5.65 15.8z" fill="#fdc958"/><path d="M190.41 143.11a3.55 3.55 0 0 0 .78.89c.3.15.64.84.64.84l-1.91 1.4a5.59 5.59 0 0 0-1.57-2.16c-.87-.52 2.06-.97 2.06-.97z" fill="#eea886"/><path d="M187.52 119.32s1.56-4.48 4.79-3.08-1.08 6.81-1.46 7.48-3.89 6.06-4.24 6.79a5 5 0 0 0-.36 4.54 26.41 26.41 0 0 0 4.38 7.75c.61.6-1.87 2.74-2.85 2.06-1.3-.89-3.64-5.55-4.28-6.61-.79-1.3-2.77-3.63-1.36-7.68.94-2.73 5.38-11.25 5.38-11.25z" fill="#fdc958"/><path d="M192.33 143.47l-4.09 3.29s3.21 4.83 4.75 2.8-.66-6.09-.66-6.09z" fill="#dbcac3"/><path d="M200.85 124.92c-.68-7.21-6.44-11.57-6.44-11.57l-.22 1.07c-5.93 1.68-6.07 3-6.35 7a20.41 20.41 0 0 0 .87 5.75c.22.89.47 1.8.7 2.72a27 27 0 0 1 1.21 7.57c-.27 4.63-12.65 25-12.65 25 0 4.31 10.73 10.48 10.73 10.48-.5-5.7 13.11-42.3 12.15-48.02z" fill="#fdc958"/><path d="M189.41 129.85c1.85-2.17 2.94-8.51 2.94-8.51a19.29 19.29 0 0 1-3.64 5.8c.22.86.47 1.8.7 2.71z" fill="#b28760"/><path d="M199.72 165l.92 2.9a66.75 66.75 0 0 0 1.74-12.13 51.24 51.24 0 0 1-2.66 9.23z" fill="#151624"/><path d="M188.9 135.06l-.38-.63a11.65 11.65 0 0 0 4.92-7.23c.56-3.36-.8-7-3.89-10.8l.66-.45c3.23 3.95 4.56 7.8 4 11.38a12.19 12.19 0 0 1-5.31 7.73zm-.19-.31l-.19-.31z" fill="#323657"/><path d="M189.54 116.39a1.39 1.39 0 0 1 .66-.45.63.63 0 0 1-.66.45z" fill="#323657"/><path d="M199.44 99s4.26 2.78 2.87 9.5-6.41 3-7 2.64-2.23-4.58-2.3-6.42-.91-8.64 6.43-5.72z" fill="#eea987"/><path d="M199.15 100.36c-.44-.13-1.94 2.76-2.75 3.48a7.46 7.46 0 0 0-2.43 4.47c-.15 2-1.8-4.29-1.23-6.62s1.34-5.73 6.53-3 3.85 7.53 3.85 7.53-1.73-5.22-3.97-5.86z" fill="#3b3b40"/><path d="M195.55 105c-.14-.79-1.89-1.47-1.87-.27s1 2.57 1.54 2.49.46-1.5.33-2.22z" fill="#eea987"/><path d="M199.46 113.5a4.43 4.43 0 0 1-4.09-2.35 5.34 5.34 0 0 0 4.07 1.3v.08a5.6 5.6 0 0 0 .02.97z" fill="#a87961"/><rect x="166.48" y="68.73" width="59.03" height="137.02" rx="6.07" ry="6.07" style="mix-blend-mode:screen" fill="#77aadc" opacity=".73"/><path d="M218.25 213.53c-.11 1-2.08 1.19-2.9 1.33s-2.87 2-3.77 2.44c-.48.22-.89.8-1.31 2.36h-4.1c-.15-3 .29-10 .29-10s4.57.9 7.88 1.65c3.9.91 4.01 1.18 3.91 2.22z" fill="url(#l)"/><rect x="92.18" y="35.45" width="56.52" height="40.3" rx="2.71" ry="2.71" fill="url(#m)" opacity=".79"/><path fill="#e0e0e0" d="M95.83 49.72h.3v23.75h-.3zm9.78 0h.3v23.75h-.3zm9.79 0h.3v23.75h-.3zm9.79 0h.3v23.75h-.3zm9.78 0h.3v23.75h-.3zm9.79 0h.3v23.75h-.3z"/><path d="M95.83 73.46s9.45-15.37 15-13.74 3.75 8.72 8.29 8.72c3.82 0 3.82-12 8.7-11.84s4.45 9 9.91 3.3 4.56-6.37 7.36-6.37v19.93z" fill="url(#n)"/><rect x="95.83" y="37.94" width="19.72" height="2.87" rx="1.44" ry="1.44" fill="url(#o)"/><rect x="95.83" y="43.83" width="25.88" height="2.87" rx="1.34" ry="1.34" fill="url(#p)"/><path fill="#e3e3e2" d="M300.03 106l-.49-.49 8.36-8.36v-6.56h.7v6.84l-8.57 8.57z"/><path fill="#e5eef7" d="M235.15 67.34l-.49-.49 10.5-10.5v-7.5h.69v7.78l-10.7 10.71z"/><path d="M205.86 121.34s-4.75-1-8.86-1.93c-.07-1.32-.2-2.63-.38-3.9a30.54 30.54 0 0 0-.83-4.06c-.13-.47-.28-.92-.44-1.35a12.26 12.26 0 0 1-.69-3.15c0-.26 0-.52-.05-.78a17.47 17.47 0 0 1 0-2 23.74 23.74 0 0 1 1.26-5.82c.09-.25.17-.46.24-.64.17-.44.28-.69.28-.69a6.86 6.86 0 0 1 4.48 1.19c2.55 1.78 2.88 3.47 3.4 6.18.45 2.34-.06 3.84-.86 7.06s.26 3.59 1 4.68c.99 1.45 1.45 5.21 1.45 5.21z" fill="#3b3b40"/><path d="M219.49 116.44s.59-1.43.8-1.76-.46-1-.88-.18-.68 1.39-.68 1.39z" fill="#eea886"/><path d="M218.9 117.78l2-6.16a.71.71 0 0 0-.54-.92l-3-.59a.71.71 0 0 0-.83.53L215 117a.71.71 0 0 0 .57.87l2.52.43a.71.71 0 0 0 .81-.52z" fill="#535353"/><path d="M219.71 117.37s.25-.53-.62-1.43c-1.16-1.19-2.79-2.56-3.18-2.5-.55.08-.45.52.34 1.14l1 .82a7.92 7.92 0 0 0-2.15-.74c-.47.07-.67.54-.41.72a7.73 7.73 0 0 0 .91.48s-.75-.24-.93 0-.28.5.37.89a.55.55 0 0 0-.08.95 1.73 1.73 0 0 1 .57 1.74 5.38 5.38 0 0 0 .4 2l2.27-.25a14.37 14.37 0 0 1 .71-2.51c.35-.44.8-1.31.8-1.31z" fill="#eea886"/><path d="M205.42 130.32c1 1.55 2.4 3.2 3.49 3.18.71 0 9.59-11.45 9.59-12s-3.27-1.54-3.27-1.54a17.11 17.11 0 0 1-3 3.84 47.22 47.22 0 0 0-3.54 3.82c-.36.25-1.66-2.54-1.66-2.54a28.05 28.05 0 0 0-2.21-5.94 8.26 8.26 0 0 0-4.06-3.17c-5.47 2.46 3.05 11.66 3.05 11.66s1.11 1.98 1.61 2.69z" fill="#fdc958"/><path d="M199.48 113.74s4.3 3.1 5.73 10.49c0 0-4-7.91-5.35-9.31a1.32 1.32 0 0 1-.38-1.18zm6.7 12.38s-.06 17.15 0 21.11-5-9.51-5-9.51 2.69-8.39 5-11.6z" fill="#fdc958"/><path d="M203.42 170.3a25 25 0 0 0-8.82-2.74v-2.72c-.07-1.65-.08-3.92 0-6.51 1.11-.5 1.84-.79 1.84-.79s14.48 17.07 6.98 12.76z" fill="#c3b2ad"/><path d="M210 204.71s.65 1.73 1.55 2.14 2.95 2.31 3.77 2.44 2.79.29 2.9 1.33-.1 2-4.07 1.44a29.25 29.25 0 0 1-7.72-2.38s-.8-4 .49-6 3.08 1.03 3.08 1.03z" fill="#fff6e1"/><path d="M210 204.71l-.74-2.48h-2.83v2.64s4.3 1.62 3.57-.16z" fill="#eea886"/><path d="M197.56 158c.15.72 1.1 3.71 2.16 7l.92 2.9c.67 2.1 1.3 4.11 1.74 5.55.24.79.42 1.41.51 1.79.61 2.5-.08 6.42-.3 9.69s3.31 19.39 3.31 19.39c.83.39 4.53-.64 4.53-.64-.61-1.17-1.43-21.23-1.1-22.51a19.4 19.4 0 0 0 .22-6.22 5.43 5.43 0 0 1-.11-1.11c0-1.75.33-4.65.55-7.83.28-4-1.28-13.94-1.5-14.83 0-.08-.05-.2-.09-.34-.41-1.39-1.73-5.35-1.73-5.35a13.09 13.09 0 0 0-6.18-.63 4.6 4.6 0 0 0-3.63 3.11c-1.29 3.65.51 9.09.7 10.03z" fill="#2a2c48"/><path d="M200.64 148.54c0 4.71-.1 12.72-.64 15.06-.1.44-.2.92-.29 1.42-.49 2.72-.83 6.21-.94 8.06v1.07a25.18 25.18 0 0 1-1.39 6.27c-.29.74-2.35 4-4.64 7.74.91-8.75 2.12-18.53 1.9-23.32-.12-2.67-.07-6.95.09-11.59 0-1.31.1-2.65.16-4 .11-2.4.24-4.81.39-7.07a16.58 16.58 0 0 1 5.26 2.71l.13.1s-.02 1.45-.03 3.55z" fill="#2a2c48"/><path d="M208.41 150.88a24.58 24.58 0 0 1-13.71 2.37c0-1.31.1-2.65.16-4 .36-8 1-16 1.55-18.43a45.09 45.09 0 0 0 .61-11.29v-.78c-.07-1.09-.19-2.18-.34-3.24v-.09c-.05-.36-.11-.72-.17-1.07l3.32.53h.11a5.23 5.23 0 0 1 .95.51 8.09 8.09 0 0 1 1 .82 26.19 26.19 0 0 1 2.53 3.32c.31.46.63.93.92 1.39a15.69 15.69 0 0 1 1.24 2.21 5.24 5.24 0 0 1 .45 1.89v.07a15.31 15.31 0 0 1-.94 3.6 10.27 10.27 0 0 0-.51 2c-.11 1.37-.6 6.23-.38 7.52s3.16 12.49 3.21 12.67z" fill="#e94847"/><path d="M200.81 115.43l2.55 4 2.36 3.71s-.16-.58-.43-2.21c-.05-.31-.11-.66-.16-1a2.83 2.83 0 0 0-.07-.34c-1-2.33-4.13-4.08-4.24-4.14z" fill="#eedad3"/><path d="M196.61 115.42a30.83 30.83 0 0 0-.82-4c-.13-.47-.28-.92-.44-1.35A10.87 10.87 0 0 1 195 109c1.55 1 4.44 3.13 4.44 3.13v.42a5.58 5.58 0 0 0 0 1v.17a6.35 6.35 0 0 0 .55 2c.41.76-1.64.28-3.38-.3z" fill="#eea886"/><path d="M205 119.54a5.27 5.27 0 0 1 .25 1.42l-.92-1.39s-1.65-2.36-2.21-3a9.38 9.38 0 0 0-1.34-1.15s3.28 1.58 4.22 4.12z" fill="#fdc958"/><path d="M201.71 119.82c-.58.23-2.66 0-4.75-1.07-.07-1.09-.19-2.18-.34-3.24v-.09c-.06-.43-.13-.84-.2-1.26a6.94 6.94 0 0 1 3.35.72s2.94 4.54 1.94 4.94z" fill="#eea886"/><path d="M205.53 130.82v-.07.07z" fill="#314663"/><path d="M201.92 120.27c-.6 1.54-2.75.67-4.91-.74v-.12c-.07-1.32-.2-2.63-.38-3.9v-.09c-.07-.49-.15-1-.24-1.46 3 .71 3.15.09 3.15.09l.34.86s3.37 1.96 2.04 5.36z" fill="#e94847"/><path d="M199.87 114.92l6.67 8.25a15.61 15.61 0 0 0-1.24-2.21c-.3-.46-.61-.93-.92-1.39a26.39 26.39 0 0 0-2.54-3.32 8.08 8.08 0 0 0-1-.81 5.42 5.42 0 0 0-.94-.51z" fill="#e94847"/><path d="M205.54 130.72c.43-1.32 1.59-4.37 1.5-5.66a5.74 5.74 0 0 0-.51-1.89 16.16 16.16 0 0 0-1.24-2.28c-.3-.46-.83-1.25-1.15-1.7a19.76 19.76 0 0 0-2.31-2.95 8.46 8.46 0 0 0-1-.84 4.49 4.49 0 0 0-.94-.48s7 6.34 5.65 15.8zm-10.68 18.53c.36-8 1-16 1.55-18.43a49.33 49.33 0 0 0 .22-15.31 17 17 0 0 1 4.22 9.41c.49 2.89-2.75 13.65-5.99 24.33z" fill="#fdc958"/><path d="M199.72 165l.92 2.9a66.75 66.75 0 0 0 1.74-12.13 51.24 51.24 0 0 1-2.66 9.23z" fill="#151624"/><path d="M202.31 108.5c-1.2 5.82-5.13 3.82-6.52 2.94-.13-.47-.28-.92-.44-1.35a12.79 12.79 0 0 1-.74-3.94 22.2 22.2 0 0 1 1.3-7.84 7.64 7.64 0 0 1 3.52.69s4.27 2.79 2.88 9.5z" fill="#eea987"/><path d="M203.11 106.19s-1.72-5.18-4-5.84c-.45-.13-1.94 2.76-2.75 3.48a8.53 8.53 0 0 0-1.78 2.32 22.67 22.67 0 0 1 1.54-8.48 7.56 7.56 0 0 1 3.11 1c5.22 2.69 3.88 7.52 3.88 7.52z" fill="#3b3b40"/><path d="M195.23 107.2a.75.75 0 0 1-.56-.26c0-.26 0-.52-.05-.78a17.47 17.47 0 0 1 0-2 1.31 1.31 0 0 1 .89.85c.17.71.27 2.11-.28 2.19z" fill="#eea987"/><path d="M199.46 113.5a4.59 4.59 0 0 1-3.5-1.49c0-.18-.09-.37-.15-.55a5.13 5.13 0 0 0 3.63 1v.07a5.58 5.58 0 0 0 .02.97z" fill="#a87961"/><path fill="#e5eef7" d="M132.43 78.93h.69v11.8h-.69z"/></g></g></svg>