<svg xmlns="http://www.w3.org/2000/svg" viewBox="0 0 400 225"><g style="isolation:isolate"><g data-name="Calque 2"><path fill="#468cae" d="M0 0h400v225H0z"/><path fill="#2f6076" d="M0 204.58h400V225H0z"/></g><g data-name="Calque 1"><path d="M213 101.87a6.05 6.05 0 0 1-6-6v-7a6 6 0 1 1 12.09 0v7a6.05 6.05 0 0 1-6.09 6zm0-16.64a3.56 3.56 0 0 0-3.56 3.56v7a3.56 3.56 0 1 0 7.11 0v-7a3.56 3.56 0 0 0-3.55-3.56z" fill="#74afc9"/><path d="M216.67 112.91a6.05 6.05 0 0 1-6-6v-7a6 6 0 1 1 12.09 0v7a6.05 6.05 0 0 1-6.09 6zm0-16.64a3.56 3.56 0 0 0-3.56 3.56v7a3.56 3.56 0 0 0 7.11 0v-7a3.56 3.56 0 0 0-3.55-3.56z" fill="#aed7ec"/><path d="M214.27 101.87h-2.62a4.74 4.74 0 0 1-4.73-4.73v-9.67a4.74 4.74 0 0 1 4.73-4.73v2.49a2.25 2.25 0 0 0-2.24 2.24v9.66a2.25 2.25 0 0 0 2.24 2.24h2.62a2.25 2.25 0 0 0 2.24-2.24H219a4.74 4.74 0 0 1-4.73 4.74zm21.84-15.61h-7a6 6 0 1 1 0-12.09h7a6 6 0 0 1 0 12.09zm-7-9.6a3.56 3.56 0 1 0 0 7.11h7a3.56 3.56 0 0 0 0-7.11z" fill="#74afc9"/><path d="M225.07 90h-7a6 6 0 0 1 0-12.09h7a6 6 0 1 1 0 12.09zm-7-9.6a3.56 3.56 0 0 0 0 7.11h7a3.56 3.56 0 1 0 0-7.11z" fill="#aed7ec"/><path d="M227.76 86.26a4.74 4.74 0 0 1-4.76-4.73v-2.62a4.74 4.74 0 0 1 4.73-4.73h9.66a4.74 4.74 0 0 1 4.73 4.73h-2.49a2.25 2.25 0 0 0-2.24-2.24h-9.66a2.25 2.25 0 0 0-2.24 2.24v2.62a2.25 2.25 0 0 0 2.24 2.24zM209.4 96.43h-2.49v-8.25a5.45 5.45 0 0 1 5.44-5.44h1.21a5.43 5.43 0 0 1 4.82 2.92l-2.21 1.15a3 3 0 0 0-2.62-1.59h-1.21a3 3 0 0 0-3 3zm-52.63-15.54a6.05 6.05 0 0 1 6-6h7a6 6 0 1 1 0 12.09h-7a6.05 6.05 0 0 1-6-6.09zm16.64 0a3.56 3.56 0 0 0-3.56-3.56h-7a3.56 3.56 0 1 0 0 7.11h7a3.56 3.56 0 0 0 3.56-3.55z" fill="#74afc9"/><path d="M145.73 84.61a6.05 6.05 0 0 1 6-6h7a6 6 0 1 1 0 12.09h-7a6.05 6.05 0 0 1-6-6.09zm16.64 0a3.56 3.56 0 0 0-3.56-3.61h-7a3.56 3.56 0 0 0 0 7.11h7a3.56 3.56 0 0 0 3.56-3.5z" fill="#aed7ec"/><path d="M156.77 82.21v-2.63a4.74 4.74 0 0 1 4.73-4.73h9.66a4.74 4.74 0 0 1 4.73 4.73h-2.49a2.25 2.25 0 0 0-2.24-2.24h-9.66a2.25 2.25 0 0 0-2.24 2.24v2.62a2.25 2.25 0 0 0 2.24 2.24v2.49a4.74 4.74 0 0 1-4.73-4.72zM172.38 104v-7a6 6 0 1 1 12.09 0v7a6 6 0 0 1-12.09 0zm9.6-7a3.56 3.56 0 1 0-7.11 0v7a3.56 3.56 0 0 0 7.11 0z" fill="#74afc9"/><path d="M168.67 93v-7a6 6 0 0 1 12.09 0v7a6 6 0 1 1-12.09 0zm9.6-7a3.56 3.56 0 0 0-7.11 0v7a3.56 3.56 0 1 0 7.11 0z" fill="#aed7ec"/><path d="M172.38 95.69a4.74 4.74 0 0 1 4.73-4.69h2.62a4.74 4.74 0 0 1 4.73 4.73v9.66a4.74 4.74 0 0 1-4.73 4.73v-2.52a2.25 2.25 0 0 0 2.24-2.24v-9.67a2.25 2.25 0 0 0-2.24-2.24h-2.62a2.25 2.25 0 0 0-2.24 2.24zm-10.17-18.35v-2.49h8.25a5.45 5.45 0 0 1 5.44 5.44v1.21a5.43 5.43 0 0 1-2.9 4.82l-1.15-2.21a3 3 0 0 0 1.59-2.62v-1.2a3 3 0 0 0-3-3z" fill="#74afc9"/><rect x="242.12" y="30.87" width="92.07" height="118.51" rx="4.28" ry="4.28" fill="#1f657d"/><rect x="236.82" y="24.05" width="92.07" height="118.51" rx="4.28" ry="4.28" fill="#fff"/><path d="M324.61 24H241.1a4.28 4.28 0 0 0-4.28 4.28V32h92.07v-3.67a4.28 4.28 0 0 0-4.28-4.33z" fill="#175d76"/><circle cx="241.06" cy="28.03" r="1.32" fill="#e94757"/><circle cx="244.8" cy="28.03" r="1.32" fill="#eedd49"/><circle cx="248.55" cy="28.03" r="1.32" fill="#72bd80"/><path fill="#d9dadd" d="M241.3 35.33h8.96v8.96h-8.96zm12.42 0h15.63v2.3h-15.63zm0 3.34h15.63v2.3h-15.63z"/><path fill="#175d76" d="M323.31 88.77H241.3V45.85h82.01z"/><path fill="#d9dadd" d="M241.3 91.88h82.01v6.9H241.3z"/><path fill="#fff" d="M244.75 94.34h15.63v2.3h-15.63zm29.74 0h15.63v2.3h-15.63zm29.74 0h15.63v2.3h-15.63z"/><circle cx="282.31" cy="67.31" r="9.54" fill="#f8b523"/><path d="M287.92 66.91l-8.09-4.67a.46.46 0 0 0-.7.4V72a.46.46 0 0 0 .7.4l8.09-4.67a.46.46 0 0 0 0-.82z" fill="#fff"/><path d="M283.62 206.93H117.05v-94.32a7.25 7.25 0 0 1 7.25-7.25h152.07a7.25 7.25 0 0 1 7.25 7.25z" fill="#010101"/><path fill="#d0ebfc" d="M124.89 112.05h150.22v85.4H124.89zM282.3 216.31H117.66a11.72 11.72 0 0 1-11.72-11.72H294a11.72 11.72 0 0 1-11.7 11.72z"/><path fill="#83b7d4" d="M178.12 204.58h43.73v5.86h-43.73z"/><path fill="#807f7f" d="M178.12 208.8h43.73v1.65h-43.73z"/><path fill="#2d7da1" d="M124.89 112.05h150.22v5.1H124.89z"/><circle cx="127.79" cy="114.59" r="1.32" fill="#e94757"/><circle cx="131.54" cy="114.59" r="1.32" fill="#eedd49"/><circle cx="135.29" cy="114.59" r="1.32" fill="#72bd80"/><path d="M217 165.41h-15.88a8.1 8.1 0 0 1-8.1-8.1V153a8.1 8.1 0 0 1 8.1-8.1H217a8.1 8.1 0 0 1 8.1 8.1v4.32a8.1 8.1 0 0 1-8.1 8.09zm-15.92-15.82a3.4 3.4 0 0 0-3.4 3.4v4.32a3.4 3.4 0 0 0 3.4 3.4H217a3.4 3.4 0 0 0 3.4-3.4V153a3.4 3.4 0 0 0-3.4-3.4z" fill="#2d7da1"/><path d="M198.85 171.52h-15.92a8.1 8.1 0 0 1-8.1-8.1v-4.32a8.1 8.1 0 0 1 8.1-8.1h15.92a8.1 8.1 0 0 1 8.1 8.1v4.32a8.1 8.1 0 0 1-8.1 8.1zm-15.92-15.82a3.4 3.4 0 0 0-3.4 3.4v4.32a3.4 3.4 0 0 0 3.4 3.4h15.92a3.4 3.4 0 0 0 3.4-3.4v-4.32a3.4 3.4 0 0 0-3.4-3.4z" fill="#f8b523"/><path d="M201.12 165.41a8.1 8.1 0 0 1-8.1-8.1V153a8.1 8.1 0 0 1 8.1-8.1H217a8.1 8.1 0 0 1 8.1 8.1h-4.69a3.4 3.4 0 0 0-3.4-3.4h-15.89a3.4 3.4 0 0 0-3.4 3.4v4.32a3.4 3.4 0 0 0 3.4 3.4z" fill="#2d7da1"/><circle cx="199.98" cy="158.21" r="34.89" fill="none" stroke="#fff" stroke-miterlimit="10" stroke-dasharray="12.174368858337402,12.174368858337402"/><circle cx="68.26" cy="121.38" r="3.21" fill="none" stroke="#fff" stroke-miterlimit="10" stroke-width="4"/><rect x="68.26" y="32.01" width="82.09" height="66.63" rx="3.82" ry="3.82" fill="#1f657d"/><rect x="74.67" y="25.71" width="82.09" height="66.63" rx="3.82" ry="3.82" fill="#fff"/><path d="M152.94 25.71H78.49a3.82 3.82 0 0 0-3.82 3.82v5.64h82.09v-5.65a3.82 3.82 0 0 0-3.82-3.81z" fill="#175d76"/><circle cx="78.45" cy="29.26" r="1.17" fill="#e94757"/><circle cx="81.79" cy="29.26" r="1.17" fill="#eedd49"/><circle cx="85.13" cy="29.26" r="1.17" fill="#72bd80"/><path fill="#fff" d="M90.09 27.61h56.55v5.81H90.09z"/><path fill="#d9dadd" d="M88.01 70.46h55.4v4.39h-55.4z"/><path d="M119.48 53a5.76 5.76 0 0 0-5.76-5.76.68.68 0 0 0 0 1.35 4.41 4.41 0 0 1 4.4 4.4.68.68 0 1 0 1.35 0z" fill="#f8b523"/><path d="M128.16 65l-5.58-5.58a11 11 0 1 0-2.38 2.4l5.58 5.58a1.69 1.69 0 1 0 2.38-2.4zm-22-12a7.58 7.58 0 1 1 7.58 7.58 7.59 7.59 0 0 1-7.59-7.58z" fill="#f8b523"/><path fill="none" stroke="#fff" stroke-miterlimit="10" stroke-width="4" d="M290.12 149.38h6m17.74 0h6m14.33-100.33v6"/><path fill="none" stroke="#fff" stroke-miterlimit="10" stroke-width="4" stroke-dasharray="9.490782737731934,9.490782737731934" d="M334.19 64.54v33.21"/><path fill="none" stroke="#fff" stroke-miterlimit="10" stroke-width="4" d="M334.19 102.5v6"/><path d="M205.83 30.24l-1.24 5.85A5.14 5.14 0 1 1 194.54 34l1.24-5.85a5.14 5.14 0 0 1 10.05 2.13zm-9.22 4.17a3 3 0 1 0 5.91 1.25l1.24-5.85a3 3 0 0 0-5.91-1.25z" fill="#fff"/><path d="M207 40.07l-1.24 5.85a5.14 5.14 0 0 1-10.05-2.13l1.24-5.85A5.14 5.14 0 1 1 207 40.07zm-9.22 4.17a3 3 0 0 0 5.91 1.25l1.24-5.85a3 3 0 1 0-5.93-1.25z" fill="#aed7ec"/><path d="M201.87 24.16a5.14 5.14 0 0 0-6.09 4L194.54 34a5.11 5.11 0 0 0 .5 3.48l.3-1.43 1.5.32a3 3 0 0 1-.24-1.93l1.24-5.85a3 3 0 0 1 5.91 1.25l-1.24 5.85a3 3 0 0 1-1.25 1.87l-.53 2.5a5.14 5.14 0 0 0 3.85-3.93l1.24-5.85a5.14 5.14 0 0 0-3.95-6.12zm10.11 11.08h4.69v2.49h-4.69zm-27.53 0h4.69v2.49h-4.69zm23.304-7.722l3.316-3.316 1.761 1.76-3.316 3.317zm-19.47 19.475l3.316-3.316 1.761 1.76-3.316 3.317zm19.467-1.553l1.761-1.76 3.316 3.316-1.76 1.76zm-19.474-19.48l1.76-1.76 3.317 3.316-1.761 1.76zm154.443-2.54h-2.12V21.3h-2.49v2.12h-2.12v2.49h2.12v2.12h2.49v-2.12h2.12v-2.49zm-113 8.55h-2.49v2.12h-2.12v2.49h2.12v2.12h2.49v-2.12h2.13v-2.49h-2.13v-2.12zm-119.17 77.94h-2.49v2.12h-2.12v2.49h2.12v2.12h2.49v-2.12h2.12v-2.49h-2.12v-2.12zm58.03-52.05h-2.49v2.12h-2.12v2.49h2.12v2.12h2.49v-2.12h2.13v-2.49h-2.13v-2.12zm123.27 105.37a4.45 4.45 0 1 0 4.45 4.45 4.46 4.46 0 0 0-4.45-4.45zm0 6.41a2 2 0 1 1 2-2 2 2 0 0 1-2 2zm-230.21-157a4.45 4.45 0 1 0 4.45 4.45 4.46 4.46 0 0 0-4.45-4.45zm0 6.41a2 2 0 1 1 2-2 2 2 0 0 1-2 2zm5.38 18.48h2.49v3.73h-2.49zm0 11.16h2.49v7.42h-2.49zm0 14.85h2.49v3.73h-2.49zm41.04 60.06h2.49v3.73h-2.49zm0 10.63h2.49v6.89h-2.49zm0 41.35h2.49v6.89h-2.49zm0-27.57h2.49v6.89h-2.49zm0 13.79h2.49v6.89h-2.49zm0 27.56h2.49v3.73h-2.49z" fill="#fff"/><circle cx="323.31" cy="13.89" r="3.21" fill="none" stroke="#fff" stroke-miterlimit="10" stroke-width="4"/></g></g></svg>