<svg xmlns="http://www.w3.org/2000/svg" viewBox="0 0 400 225"><g style="isolation:isolate"><path fill="#616db1" d="M0 0h400v225H0z" data-name="Calque 2"/><g data-name="Calque 1"><path d="M60.57 186.4a7.63 7.63 0 0 0-.93-4.17c-2.22-3.9-8.32-5.78-14.67-3.81-6.35-2-12.45-.09-14.67 3.81a7.63 7.63 0 0 0-.93 4.17c-.18 4.39 2.22 9.34 5.12 12.23a14.69 14.69 0 0 0 9.14 4.22 12.46 12.46 0 0 0 1.34 0 12.46 12.46 0 0 0 1.34 0 14.69 14.69 0 0 0 9.14-4.22c2.9-2.88 5.3-7.84 5.12-12.23z" fill="#e84041"/><path d="M56.26 185.31a6.44 6.44 0 0 0-.79-3.52c-1.87-3.29-7-4.87-12.37-3.21-5.36-1.66-10.5-.07-12.37 3.21a6.44 6.44 0 0 0-.79 3.52 15 15 0 0 0 4.32 10.32 12.39 12.39 0 0 0 7.74 3.55 10.5 10.5 0 0 0 1.13 0 10.5 10.5 0 0 0 1.13 0 12.39 12.39 0 0 0 7.71-3.56 15 15 0 0 0 4.29-10.31z" fill="#ea5455"/><path d="M44.65 178.51a16.73 16.73 0 0 1 13.07-8.39s-2.62 7.46-13.07 8.39z" fill="#88bd30"/><path d="M218.76 49.81s6.46-4.12 3.85-13.95S213 34.92 210 27s-21.29-17.91-20.86-4.44c0 0 25.78 14.09 29.62 27.25z" fill="#a5d9e3"/><path d="M218.76 49.81s-16.53 5.82-17.88-7.45-26.5-9.81-11.73-19.8c-.01 0 24.03 12.79 29.61 27.25z" fill="#a5d9e3"/><path d="M72.49 196.67a143 143 0 0 1 1.41-18.57q.42-3.43.91-6.86V143.3a6.16 6.16 0 1 0-12.26.77l3.73 29.61v21.89z" fill="#70bd89"/><path d="M70.42 156.32s-16.29 5.88-17.6-14.16-25.27 18.84 17.6 23.67zm0 8.92s11.27 4.06 12.17-9.79 17.47 13.06-12.17 16.37z" fill="#70bd89"/><path fill="#97d2d1" d="M75.58 204.21H62.25l-.99-14.98h15.3l-.98 14.98z"/><path fill="#c8c8c8" d="M20.1 203.45h356.74v1.84H20.1z"/><rect x="122.22" y="101.56" width="142.73" height="97.93" rx="3.32" ry="3.32" fill="#c8c8c8"/><rect x="127.05" y="104.88" width="133.06" height="91.3" rx="3.32" ry="3.32" fill="#0a5192"/><path d="M261.47 203.12H123.74a8.69 8.69 0 0 1-8.69-8.69h155.11a8.69 8.69 0 0 1-8.69 8.69z" fill="#9d9d9c"/><path d="M171.27 196.18l32.43-91.3h-12.32l-32.42 91.3h12.31zm-40.9 0h5.79l32.43-91.3h-38.22a3.33 3.33 0 0 0-3.32 3.32v84.67a3.33 3.33 0 0 0 3.32 3.31zm109.63 0h16.8a3.33 3.33 0 0 0 3.32-3.32v-53.33zm-44.88 0h22.55l32.43-91.3h-22.56l-32.42 91.3z" opacity=".1" fill="#fff"/><path d="M269 198.78a8.64 8.64 0 0 0 1.17-4.34H115a8.64 8.64 0 0 0 1.17 4.34z" fill="#c8c8c8"/><path d="M339.88 203.45h-63.45a5.82 5.82 0 0 1-5.82-5.82 5.82 5.82 0 0 1 5.82-5.82h63.45z" fill="#ee704e"/><path d="M336.16 203.45h36v-11.64h-36a5.82 5.82 0 0 0-5.82 5.82 5.82 5.82 0 0 0 5.82 5.82z" fill="#eb5c3d"/><path d="M338.1 201.27h34v-7.71h-34a3.86 3.86 0 0 0-3.86 3.86 3.86 3.86 0 0 0 3.86 3.85z" fill="#f7e8e0"/><path d="M329.59 191.91h-53.28a9.69 9.69 0 0 1-9.69-9.69 9.69 9.69 0 0 1 9.69-9.69h53.28z" fill="#ffdf4f"/><path d="M330.6 191.91h36.85v-19.37H330.6a9.69 9.69 0 0 0-9.69 9.69 9.69 9.69 0 0 0 9.69 9.68z" fill="#fab95b"/><path d="M330.89 188.29h36.57v-12.84h-36.57a6.42 6.42 0 0 0-6.42 6.42 6.42 6.42 0 0 0 6.42 6.42z" fill="#f7e8e0"/><path fill="#e84041" d="M351.24 211.11l-4.59-2.7-4.58 2.7v-15.55h9.17v15.55zm11.49-14.97l-4.59-2.7-4.58 2.7v-15.55h9.17v15.55z"/><path d="M336.58 172.65h-47.09a4.25 4.25 0 0 1-4.25-4.25 4.25 4.25 0 0 1 4.25-4.25h47.09z" fill="#9cc545"/><path d="M333.76 172.65h33.7v-8.49h-33.7a4.25 4.25 0 0 0-4.25 4.25 4.25 4.25 0 0 0 4.25 4.24z" fill="#88bd30"/><path d="M335.22 171.06h32.23v-5.62h-32.23a2.81 2.81 0 0 0-2.81 2.81 2.81 2.81 0 0 0 2.81 2.81z" fill="#f7e8e0"/><path fill="#e84041" d="M342.07 176.88l-2.29-1.68-2.29 1.68v-9.71h4.58v9.71zm-45.62 5.29a9.64 9.64 0 0 1 8.79-9.6h-19.29a9.64 9.64 0 0 0-9.64 9.64 9.64 9.64 0 0 0 9.64 9.64h19.29a9.64 9.64 0 0 1-8.79-9.68z"/><path fill="#b9d2d1" d="M86.25 154.64h26.57v7.78H86.25z"/><path fill="#9ebebd" d="M86.25 156.39h26.57v6.03H86.25z"/><path fill="#b9d2d1" d="M100.47 151.04h8.23v5.35h-8.23z"/><path fill="#fefeff" d="M110.64 203.33H88.42l-4.35-41.42h30.92l-4.35 41.42z"/><path d="M110.64 203.33H88.42l-4.35-41.42L88.66 181a30.4 30.4 0 0 0 22 22.34z" fill="#f8eecb"/><path fill="#9ebebd" d="M81.28 161.02h36.5v2.6h-36.5z"/><path fill="#b9d2d1" d="M81.28 157.56h36.5v4.75h-36.5z"/><path fill="#97d2d1" d="M111.67 193.56l2.41-22.96h-29.1l2.41 22.96h24.28z"/><circle cx="102.16" cy="181.51" r="8.36" fill="#5bbfbf"/><path d="M85 170.6l2.41 23h24.27l-13.44-2.39a11.86 11.86 0 0 1-9.21-8z" fill="#5bbfbf"/><path fill="#a5d9e3" d="M186.53 85.23h188.95v4.4H186.53zm163.4-48.07h12.79v48.07h-12.79zM310.58 85V30.38h-12.79v54.85h12.64zm-12.36-.26v-54h11.93v54z"/><path fill="#a5d9e3" d="M300.99 42.36h6.4v31.91h-6.4zm-3.2-8.66h12.79v4.33h-12.79zm0 43.74h12.79v4.33h-12.79zm44.3-29.77l-3.2-4.44-3.2 4.44V26.66h6.4v21.01z"/><path d="M349.93 84.94V27h-15.69v58.23h15.4zm-15.25-.15V27.44h14.82v57.35z" fill="#a5d9e3"/><path fill="#9dd5dc" d="M279.47 27.01h15.69v58.22h-15.69z"/><path fill="#a5d9e3" d="M269.09 40.51h10.38v44.72h-10.38zm10.38-6.7h15.69v6.7h-15.69zm42.85 51.98l11.92-46.53-10.55-2.7-11.92 46.57 10.5 2.69zm1.68-48.7l9.7 2.49L322 85.3l-9.7-2.49z"/><path d="M331.55 49.77l1.34-5.23-10.55-2.7-1.34 5.27 10.5 2.69zm-8.89-7.41l9.7 2.49-1.14 4.43-9.7-2.49zm-89.14 43.3h-11.63a12.12 12.12 0 0 1-12.1-12.1v-12.8h35.84v12.8a12.12 12.12 0 0 1-12.11 12.1zm-22.87-24v11.9a11.25 11.25 0 0 0 11.23 11.24h11.63a11.25 11.25 0 0 0 11.23-11.24V61.63z" fill="#a5d9e3"/><path d="M222.18 61.25c0-.22-3.1-22.11-27.25-34.21l.39-.78C219.9 38.58 223 60.92 223 61.14zm5.69 2.02l-.58-2c-.1-.35-2.45-8.82 5.77-28.61l.8.33c-6 14.51-6.27 22.92-6 26.3 1.09-2.29 4.11-6.22 12.42-8.6l.24.84c-11.41 3.27-12.39 9.61-12.4 9.67z" fill="#a5d9e3"/><path d="M227.93 51.08S238.7 52.6 240 42.36s-3.92-8.74 2.6-15.36 7.82-3.57 2.61-8.79-11.07-9.76-17.27-2.27-10.53 9.88-5.32 15.63 1.69 8.6 0 12.34 5.31 7.17 5.31 7.17z" fill="#a5d9e3"/><path d="M233.47 46.84s3.46 8.92 9.25 3.49a7.22 7.22 0 0 0 2.28-3.46c.64-2.49-.56-3.89.28-4.66s2.05.46 4.71.09c.84-.12 2.84-.4 3.48-1.74s-.21-2.69-.61-3.44c-1.07-2.06-2.6-2.55-2.42-3.74a2.53 2.53 0 0 1 .85-1.33 4.19 4.19 0 0 1 1.89-1c3.11-.87 4.58-.41 5.59-1.2 1.4-1.08 1.49-4.16.49-6.05-2.34-4.45-12.36-5.55-18.54-2-6.9 3.85-10.1 14.07-7.25 25.04z" fill="#a5d9e3"/><path d="M218.57 49.91c-.1-.19-10.44-19.31-25-23l.11-.42c14.79 3.78 25.21 23.07 25.32 23.26z" fill="#c6e6f0"/><path d="M207.61 39.53c-1.8 0-4.31-.76-7.53-3.49l.28-.33c6.31 5.37 9.71 2.86 10.21 2.43.43-6.41-4.5-11.27-4.55-11.32l.3-.31c.05.05 5.17 5.09 4.68 11.75v.08l-.06.06a4.85 4.85 0 0 1-3.33 1.13zm9.92 8.31l-.43-.07c1.06-6.39-3.46-11.71-3.51-11.77l.33-.28c.08.06 4.7 5.53 3.61 12.12z" fill="#c6e6f0"/><path d="M197.84 33.31a9.16 9.16 0 0 1-6.68-2.77l.31-.31c4.8 4.8 11.1 1.71 12 1.22a11.81 11.81 0 0 0-5.13-8.71l.25-.35a12.15 12.15 0 0 1 5.32 9.2v.12l-.11.06a13.21 13.21 0 0 1-5.96 1.54zm30.3 17.83l-.42-.12a207.07 207.07 0 0 0 4.5-20.67c1.89-11.54 5.31-14.45 5.46-14.57l.28.34s-3.44 3-5.3 14.31a207.6 207.6 0 0 1-4.52 20.71zm9.45-.05c0-.11-.2-10.7 7.41-24.54l.38.21C237.82 40.49 238 51 238 51.08z" fill="#c6e6f0"/><path d="M238.23 46.24l-1.5-3.8.4-.16 1.24 3.13c.86-1 3.85-4.11 6.75-5.11l.14.41c-3.24 1.11-6.76 5.21-6.8 5.25zm-21.76.69a11 11 0 0 1-8.14-3.62l.32-.29a10.45 10.45 0 0 0 8.76 3.42l.07.43a7.23 7.23 0 0 1-1.01.06zm24.12-9.63l-1.42-3.71.41-.16 1.12 2.93c.81-1.11 3.61-4.51 7.69-5l.05.43c-4.58.55-7.59 5.1-7.62 5.14zm-11.53 10.46l-.21-1s-1-4.53-3.33-6.07l.24-.36c2 1.31 3 4.45 3.38 5.76.49-.73 1.78-2 5.14-3.13l.14.41c-4.69 1.57-5.14 3.37-5.14 3.39zm2.17-9.68l-.43-.09a9.37 9.37 0 0 0-5.27-10l.2-.38a9.85 9.85 0 0 1 5.59 8.53 14.6 14.6 0 0 1 5.5-7.07l.22.37a14.14 14.14 0 0 0-5.81 8.64z" fill="#c6e6f0"/><rect x="99.53" y="55.2" width="43.17" height="36.02" rx="5.21" ry="5.21" fill="#96d3dd"/><path fill="#96d3dd" d="M139.34 83.35l1.75 15.75-12.31-10.75 10.56-5z"/><path d="M133.74 68.26l-4.52-4.91-2.28 1.72a10.68 10.68 0 0 0-1.14-.62l-.21-3.74-6.67-.28-.08.58h-.29l-.41 2.91a10.73 10.73 0 0 0-1.05.38l-2.35-2.09-4.91 4.52 1.89 2.51q-.24.47-.44 1l-3.49.2-.28 6.56 3.51.5.08.25-2.36 2.64 4.52 4.91 2.49-1.87.41.23-.16 3.45 6.6 1 .85-3.33a10.76 10.76 0 0 0 1.49-.41l2.37 2.12 4.88-4.49-1.67-2.22q.23-.38.42-.77l3.5-.2.28-6.67-3-.42c-.07-.3-.16-.59-.25-.88zm-6.73.68a7.8 7.8 0 1 1-11-.46 7.81 7.81 0 0 1 10.99.46z" fill="#c6e6f0"/><g fill="#c8c8c8"><path d="M187.71 164.1h-6.12v.65c1.91 0 2.22.41 2.22 2.84V172c0 2.43-.31 2.87-2.22 2.87-1.47-.21-2.46-1-3.83-2.5l-1.57-1.71c2.12-.38 3.25-1.71 3.25-3.21 0-1.88-1.61-3.32-4.61-3.32h-6v.65c1.91 0 2.22.41 2.22 2.84V172c0 2.43-.31 2.87-2.22 2.87v.65h6.8v-.65c-1.91 0-2.22-.44-2.22-2.87v-1.23h.59l3.79 4.75h9.95c4.89 0 7-2.6 7-5.71s-2.14-5.71-7.03-5.71zm-14.32 5.57v-4.55h1.4a2.27 2.27 0 0 1 0 4.55zm14.43 4.75h-.24c-1.23 0-1.4-.31-1.4-1.88v-7.42h1.64c3.56 0 4.2 2.6 4.2 4.61s-.65 4.69-4.21 4.69zm-38.06-3.49l2.36-7c.68-2 .38-2.6-1.81-2.6v-.68h6.43v.68c-2.15 0-2.67.51-3.52 3l-3.9 11.69h-.44l-3.49-10.7-3.56 10.7h-.44l-3.79-11.69c-.82-2.5-1.37-3-3.35-3v-.68h7.59v.68c-2 0-2.56.48-1.85 2.6l2.29 7 3.45-10.26h.65zm11.63 5c-3.76 0-6.84-2.77-6.84-6.15s3.08-6.12 6.84-6.12 6.84 2.77 6.84 6.12-3.08 6.15-6.84 6.15zm0-11.21c-3.14 0-4.24 2.84-4.24 5.06s1.09 5.06 4.24 5.06 4.27-2.8 4.27-5.06-1.09-5.07-4.27-5.07zm41.77 10.08v.68h-7.83v-.68c2.29 0 2.7-.58 2.7-4v-5.47c0-3.42-.41-4-2.7-4v-.68h7.08c3.52 0 5.47 1.81 5.47 4.24s-1.95 4.2-5.47 4.2h-1.95v1.67c0 3.46.41 4.04 2.7 4.04zm-.75-12.89h-1.95v5.95h1.95a2.67 2.67 0 0 0 2.8-2.94 2.71 2.71 0 0 0-2.8-3.01zm28.95 10.36l-.17.62c-.31 1.13-.68 1.54-3.11 1.54h-.48c-1.78 0-2.09-.41-2.09-2.84V170c2.67 0 2.87.24 2.87 2h.62v-5.09h-.65c0 1.78-.21 2-2.87 2v-3.83h1.88c2.43 0 2.8.41 3.11 1.54l.17.65h.55l-.19-3.17h-10.06v.65c1.91 0 2.22.41 2.22 2.84V172c0 2.22-.26 2.78-1.77 2.86-1.43-.22-2.42-1-3.77-2.48l-1.62-1.75c2.12-.38 3.25-1.71 3.25-3.21 0-1.88-1.61-3.32-4.61-3.32h-6v.65c1.91 0 2.22.41 2.22 2.84V172c0 2.43-.31 2.87-2.22 2.87v.65h6.8v-.65c-1.91 0-2.22-.44-2.22-2.87v-1.23h.58l3.79 4.75h14l.21-3.21zm-18.12-2.6v-4.55h1.4a2.27 2.27 0 0 1 0 4.55zm25.06 6.26a5.06 5.06 0 0 1-3.08-1.16 2.46 2.46 0 0 0-.55 1.16H234v-4.72h.68a3.79 3.79 0 0 0 3.86 3.59 1.76 1.76 0 0 0 2-1.64c0-.89-.79-1.57-2.19-2.22l-1.95-.92a3.72 3.72 0 0 1-2.39-3.28c0-1.64 1.54-3 3.66-3a4.28 4.28 0 0 1 2.67.89 1.93 1.93 0 0 0 .44-.92h.65v4h-.72c-.24-1.61-1.13-2.94-2.94-2.94-1 0-1.85.55-1.85 1.4s.72 1.37 2.36 2.12l1.88.92a3.57 3.57 0 0 1 2.29 3.08c.02 2.13-1.86 3.64-4.15 3.64zm10.34 0a5.06 5.06 0 0 1-3.08-1.16 2.46 2.46 0 0 0-.55 1.16h-.65v-4.72h.64a3.79 3.79 0 0 0 3.86 3.59 1.76 1.76 0 0 0 2-1.64c0-.89-.79-1.57-2.19-2.22l-1.95-.92a3.72 3.72 0 0 1-2.39-3.28c0-1.64 1.54-3 3.66-3a4.28 4.28 0 0 1 2.67.89 1.93 1.93 0 0 0 .44-.92h.65v4h-.72c-.24-1.61-1.13-2.94-2.94-2.94-1 0-1.85.55-1.85 1.4s.72 1.37 2.36 2.12l1.88.92a3.57 3.57 0 0 1 2.29 3.08c.04 2.13-1.84 3.64-4.13 3.64z"/><g data-name="W Mark"><path d="M193.53 127a14.39 14.39 0 0 1 8.08 2.47 14.51 14.51 0 0 1 5.24 6.36 14.44 14.44 0 0 1-1.33 13.71 14.51 14.51 0 0 1-6.36 5.24 14.44 14.44 0 0 1-13.71-1.33 14.51 14.51 0 0 1-5.24-6.36 14.44 14.44 0 0 1 1.33-13.71 14.51 14.51 0 0 1 6.36-5.24 14.37 14.37 0 0 1 5.63-1.14m0-.92a15.38 15.38 0 1 0 15.38 15.38 15.38 15.38 0 0 0-15.38-15.38z"/><path d="M180.71 141.45a12.82 12.82 0 0 0 7.22 11.55l-6.12-16.75a12.77 12.77 0 0 0-1.1 5.2zm21.47-.65a6.75 6.75 0 0 0-1.06-3.54 6 6 0 0 1-1.26-3A2.22 2.22 0 0 1 202 132h.17a12.82 12.82 0 0 0-19.37 2.41h.83c1.34 0 3.42-.16 3.42-.16a.53.53 0 0 1 .08 1.06s-.69.08-1.47.12l4.67 13.89 2.81-8.41-2-5.47c-.69 0-1.34-.12-1.34-.12a.53.53 0 0 1 .08-1.06s2.12.16 3.38.16 3.42-.16 3.42-.16a.53.53 0 0 1 .08 1.06s-.7.08-1.47.12l4.63 13.78 1.32-4.19a14.78 14.78 0 0 0 .94-4.23zm-8.43 1.77l-3.85 11.18a12.83 12.83 0 0 0 7.88-.2 1.17 1.17 0 0 1-.09-.18zm11-7.27a9.85 9.85 0 0 1 .09 1.32 12.1 12.1 0 0 1-1 4.59L200 152.53a12.82 12.82 0 0 0 4.8-17.23z"/></g></g></g></g></svg>