<svg xmlns="http://www.w3.org/2000/svg" viewBox="0 0 400 260.46"><defs><clipPath id="a"><circle cx="205.83" cy="114.26" r="100.17" fill="none"/></clipPath></defs><path fill="#3c5ea9" d="M0 0h400v225H0z" data-name="Calque 2"/><g data-name="Calque 1"><g clip-path="url(#a)" fill="#49bed3"><path d="M102.36 88.32h24.15v85.3h-24.15z"/><path d="M123.43 96.69h34.04v117.74h-34.04z"/><path d="M150.69 69.43h34.04v152.92h-34.04z"/><path d="M171.99 50.81h34.04v183.12h-34.04z"/><path d="M198.4 97.15h34.04v152.92H198.4z"/><path d="M221.2 71.37h34.04v152.92H221.2z"/><path d="M245.87 83.88h34.04V236.8h-34.04z"/><path d="M265.42 99.06h34.04v152.92h-34.04z"/><path d="M275.5 107.54h34.04v152.92H275.5z"/></g><path fill="#fbede1" d="M304.92 172.1l-70.74 12.1-65.63-9.3-61.82 9.3 19.46-64.74 45.62-9.31 55.85 9.31 51.66-7.91 25.6 60.55z"/><path fill="#ebd7c7" d="M227.66 119.46l6.52 64.74-65.63-9.3 3.32-60.96 55.79 5.52z"/><path d="M171.87 113.94l55.17 9.2.59.1.59-.09 48.8-7.47 22.64 53.56-65.54 11.21-65.05-9.23-.54-.08-.54.08-56 8.43 17.13-57 42.76-8.73m-.07-3.79l-45.61 9.31-19.47 64.76 61.82-9.31 65.63 9.31 70.75-12.1-25.6-60.56-51.66 7.91-55.85-9.31z" fill="#fff"/><path fill="#efedec" d="M171.81 110.15l.06 3.79 56.18 9.38-.39-3.86-55.85-9.31zm61.99 70.32l.38 3.73-65.63-9.3v-3.78l65.25 9.35z"/><path d="M227.9 49.92c0 11-20 36.32-20 36.32s-20-25.3-20-36.32a20 20 0 0 1 39.9 0z" fill="#ec6136"/><path d="M227.9 49.92c0 11-20 36.32-20 36.32s-20-25.3-20-36.32a20 20 0 0 1 39.9 0z" fill="#ec6766"/><path d="M208 30v56.24s20-25.3 20-36.32A20 20 0 0 0 208 30z" fill="#e84137"/><circle cx="207.95" cy="48.85" r="9.25" fill="#fff"/><circle cx="207.95" cy="48.85" r="9.25" fill="#fff"/><path d="M208 39.6v18.5a9.25 9.25 0 0 0 0-18.5z" fill="#c5e6f6"/><path fill="#fbdbc0" d="M121.05 175.14l9.31-23.77 15.83-2.3-2.8 22.05-22.34 4.02zm27.46-16.79v10.87h20.35l.59-10.87h-20.94z"/><path fill="#f2c29b" d="M169.45 158.35l4.04.62 4.04 12.11-8.67-1.86.59-10.87z"/><path fill="#fbdbc0" d="M121.21 149.04l20.09-3.49 4.19-11.64-20.96 4.06-3.32 11.07zm24.28-5.64s17.92-1.86 23-10.24l-6.17-8.73-12.8 4.31zm0-11.35l1.86-7.8-19.2 2.22-.58 8.9 17.92-3.32zm-16.29-9.54l25.13-5.01-2.33 3.84-23.38 3.09.58-1.92zm-9.23 30.72l5.89-1.09-9.93 26.69-3.72.77 7.76-26.37zm27.6-6.66l.94 9.76 21.1-.93.92-16.9-22.96 8.07z"/><path fill="#f2c29b" d="M170.53 138.5l10.1 4.02-2.17 15.83-8.85-2.95.92-16.9zm-4.64-21l4.98 14.93 9.76 3.58 2.48-17.54-11.3-1.74-5.92.77z"/><path fill="#fbdbc0" d="M171.81 116.73l-.94 15.7-4.98-14.93 5.92-.77z"/><path fill="#f2c29b" d="M185.88 116.28v11.35l16.81-1.26-1.33-7.51-15.48-2.58zm-.01 13.53l-4.08 9.69s16.43 4.19 20.9 2V136l3.13-.64v-4zm-2.76 13.59l1.24 15h23.27v-6.21s-3-4.27-3-6.83zm0 29.81l-1.32-8.5 10.47-2.61 12.34 1.68 7.69 13.61-29.18-4.18zm24.52-51.26l4.66 7.86 16.4-.12-.66-6.57-14.07-2.15-6.33.98z"/><path fill="#fbdbc0" d="M228.03 123.12l.66 6.57 11.52-2.06-2.25-6.01-9.93 1.5z"/><path fill="#f2c29b" d="M210.45 133.91l-.54 1.46-2.28 6.11 22.44 1.92-1.1-10.97-18.52 1.48z"/><path fill="#fbdbc0" d="M228.97 132.43l9.06-2.62-3.85 13.59h-4.11l-1.1-10.97z"/><path fill="#f2c29b" d="M207.63 147.18l4.66 13.03h13.49l-4.81-12.8-10.52-1.47-2.82 1.24zm22.94 1.24l-2.54.62 3.73 11.17-1.19-11.79z"/><path fill="#fbdbc0" d="M230.57 148.42l9.64-2.48 3.72 10.39-12.17 3.88-1.19-11.79zm7.46 14.88l-5.82 1.41 1.59 15.76 16.96-8.59-6.83-7.17-5.9-1.41z"/><path d="M232.21 164.71l-6.44-.93h-10.7l-4.62 6s8 9.55 23.35 10.72z" fill="#f2c29b"/><path fill="#fbdbc0" d="M276.82 116.28l-23.58 2.97-9.31 5.33-3.72 10.79 41.58-7.74-4.97-11.35zm6.52 16.15h-13.03l-12.42 6.07 14.59 9.92 17.68-1.24-6.82-14.75zm-41.85 6.07l12.37-2.5v7.39l4 5s-15.1 8.42-16.37-9.89zm21.79 18.49l-3.15 9.07-2.24 9.08 17.69-4.06 2.33-12.73-14.63-1.36zm29.06-4.85l7.13 15.86-18.3 4.16-1.87-10s4.97-9.4 13.04-10.02z"/><path d="M291.74 150.78c-11.88 5.16-20.24 4.87-25.78 3.53-2.46-.59-3.91-1.28-6.65-1.51-8.46-.72-15.74 4.06-20.66 8.34l-6.44 3.57-.45-4.5a31.66 31.66 0 0 0 4.88-2c3.78-1.95 4.79-3.44 7.29-5.12 5.68-3.81 12-3.87 14.74-3.9a35.86 35.86 0 0 1 8.53 1.17c5.11 1 12.63 1 23-3.16z" fill="#71c8e0"/><path d="M231.76 160.21l.45 4.5a115.48 115.48 0 0 1-17.14-.93c-10.71-1.25-18.31.37-22.81-1.68s-22.65-1.27-22.65-1.27v-5.43s18.92.16 24.2 2.95 30.13-.78 37.95 1.86z" fill="#29b9cf"/><path d="M169.61 155.4a156.52 156.52 0 0 0-18.61 1.71c-7.91 1.4.54-8-2.48-10.86s-27.3 2.8-27.3 2.8l-1.22 4.18s20.63-5.43 22.81-3.41-4.5 9.37-.31 12.29 27.15-1.27 27.15-1.27z" fill="#71c8e0"/><path d="M215.23 160.52a21.68 21.68 0 0 1-7.6-14.58c-.93-9.62 3.07-7.38 2.83-13.51s-4.62-12.82-4.62-12.82l-1.78-.3s5.6 9.23 4.51 13.12-4.53 12.27-2.73 16 5.83 12.1 7.23 12.87a1.58 1.58 0 0 0 2.16-.78z" fill="#29b9cf"/><path d="M124.53 138s19-6.48 26.31-5.54 19.69 8 19.69 8l.25-6.51s-13.27-5-19.63-6.28-25.29 5.43-25.29 5.43z" fill="#fbcb00"/><path d="M170.78 133.91s28.62 12.33 36.84 12S228 123.12 228 123.12l.66 6.57s-5.55 14-13.46 16.91a23.32 23.32 0 0 1 8 8c1.36 2.34 1.7 4 3.57 6.66a23.72 23.72 0 0 0 5.68 5.63l.48 6.2a43.32 43.32 0 0 1-6.32-6.13c-4.81-5.72-5.23-9.27-9.21-12.47-3.59-2.88-7.45-3.37-10.22-3.82-7.4-1.19-18.61-3.95-36.63-10.24z" fill="#f69f2a"/><path fill="#fbcb00" d="M228.03 123.12l3.73-.56-3.07 7.13-.66-6.57zm4.4 43.76c3.06 1 10.16 2.75 15.69-.89 3.25-2.14 4.66-5.41 7.48-11.94 3.3-7.66 2.29-8.8 5.32-14.9a37.56 37.56 0 0 1 8.3-11.79s1.14-1.05 9.36-7.07l1.88 4.29a39.74 39.74 0 0 0-10.58 10.84 39.21 39.21 0 0 0-3.92 7.75l21.04-2.74.78 1.7-21.24 3.32a58.71 58.71 0 0 0-4.79 9.5c-1.31 3.32-1.52 4.72-2.62 7.13a30 30 0 0 1-7.33 9.81l5.41 4.72-8.67 1.06-3.26-2.53s-10.53.41-12.41-2.05zm-68.87-34.45s7.31-7.67 8.31-18.49l-6 1.12s-1.06 10.94-6.84 15.36z"/><path d="M165.89 122.56s-5.22-2.45-5.28-6.28h-.81s1 5.76 5.66 7 .43-.72.43-.72z" fill="#fbcb00"/><path d="M252.31 147.36v3.72l1.92 1.11h-58.17l-1.92-1.11-12.83-3.72-.23-.14c-.47-.27.23-.49 1.56-.49a8.89 8.89 0 0 1 3.26.49l.23.14c-.41-.24-.12-.44.64-.55l-.35-.2-5.16-5.68h53.52l9.82 5.68.35.2a7.82 7.82 0 0 1 2.55.55l-.23-.14c-.47-.27.23-.49 1.56-.49a8.89 8.89 0 0 1 3.26.49l.23.14z" fill="#aa561d" opacity=".15"/><path fill="#f6a76a" d="M178.85 98.48h58.18v49.83h-58.18z"/><path fill="#6ac5d4" d="M183.84 103.74h48.21v41.29h-48.21z"/><path fill="#f2904f" d="M178.85 98.48h58.18v21.93h-58.18z"/><path fill="#44bbc3" d="M183.84 103.74h48.21v16.67h-48.21z"/><path fill="#e84137" d="M178.85 93.03h57.33v5.44h-57.33z"/><path fill="#e84137" d="M178.85 93.03h58.18v5.44h-58.18z"/><path fill="#ea5553" d="M236.18 98.48h-57.33l-6.4 18.25h70.14l-6.41-18.25z"/><path fill="#fde8e9" d="M183.66 98.48h-4.81l-6.4 18.25h4.8l6.41-18.25zm10.67 0h-4.8l-4.27 18.25h4.8l4.27-18.25zm10.68 0h-4.8l-2.14 18.25h4.81l2.13-18.25zm10.68 0h-4.81l2.14 18.25h4.8l-2.13-18.25zm10.67 0h-4.8l4.27 18.25h4.8l-4.27-18.25zm10.68 0h-4.81l6.41 18.25h4.8l-6.4-18.25z"/><path d="M174.86 119.81a2.41 2.41 0 0 1-2.41-2.41v-.67h4.81v.67a2.41 2.41 0 0 1-2.4 2.41z" fill="#f1d3d3"/><path d="M182.19 119.81h-1.85a3.07 3.07 0 0 1-3.07-3.07h8a3.07 3.07 0 0 1-3.08 3.07z" fill="#e83c3d"/><path d="M187.67 119.81a2.41 2.41 0 0 1-2.41-2.41v-.67h4.81v.67a2.41 2.41 0 0 1-2.4 2.41z" fill="#f1d3d3"/><path d="M195 119.81h-1.85a3.07 3.07 0 0 1-3.07-3.07h8a3.07 3.07 0 0 1-3.08 3.07z" fill="#e83c3d"/><path d="M200.48 119.81a2.41 2.41 0 0 1-2.41-2.41v-.67h4.81v.67a2.41 2.41 0 0 1-2.4 2.41z" fill="#f1d3d3"/><path d="M209.94 119.81h-4a3.07 3.07 0 0 1-3.07-3.07H213a3.07 3.07 0 0 1-3.06 3.07z" fill="#e83c3d"/><path d="M215.42 119.81a2.41 2.41 0 0 1-2.42-2.41v-.67h4.81v.67a2.41 2.41 0 0 1-2.39 2.41z" fill="#f1d3d3"/><path d="M222.75 119.81h-1.85a3.07 3.07 0 0 1-3.07-3.07h8a3.07 3.07 0 0 1-3.08 3.07z" fill="#e83c3d"/><path d="M228.24 119.81a2.41 2.41 0 0 1-2.41-2.41v-.67h4.81v.67a2.41 2.41 0 0 1-2.4 2.41z" fill="#f1d3d3"/><path d="M235.57 119.81h-1.85a3.07 3.07 0 0 1-3.07-3.07h8a3.07 3.07 0 0 1-3.08 3.07z" fill="#e83c3d"/><path d="M238.64 116.73h4.81v.89a2.18 2.18 0 0 1-2.18 2.18h-.45a2.18 2.18 0 0 1-2.18-2.18v-.89z" fill="#f1d3d3"/><path fill="#93d2dd" d="M183.84 145.04h6.23l41.98-24.63h-6.22l-41.99 24.63z"/></g></svg>