<svg xmlns="http://www.w3.org/2000/svg" xmlns:xlink="http://www.w3.org/1999/xlink" viewBox="0 0 400 225"><defs><clipPath id="i"><path fill="none" d="M0 0h400v225H0z"/></clipPath><linearGradient id="a" x1="1522.93" y1="-25.17" x2="1430.92" y2="46.6" gradientTransform="rotate(180 910.965 112)" gradientUnits="userSpaceOnUse"><stop offset="0" stop-color="#22366d"/><stop offset="1" stop-color="#14152c"/></linearGradient><linearGradient id="j" x1="1863.61" y1="204.2" x2="1725.64" y2="161.52" xlink:href="#a"/><linearGradient id="k" x1="1465.08" y1="43.65" x2="1641.29" y2="43.65" xlink:href="#a"/><linearGradient id="l" x1="1414.41" y1="103.58" x2="1564.1" y2="103.58" xlink:href="#a"/><linearGradient id="m" x1="1700.45" y1="96.94" x2="1671.42" y2="164.72" xlink:href="#a"/><linearGradient id="n" x1="1563.77" y1="109.64" x2="1688.05" y2="109.64" xlink:href="#a"/><linearGradient id="o" x1="1442.77" y1="148.88" x2="1618.84" y2="148.88" xlink:href="#a"/><linearGradient id="p" x1="1501.44" y1="187.46" x2="1677.51" y2="187.46" xlink:href="#a"/><linearGradient id="q" x1="1850.55" y1="100.92" x2="1749" y2="25.16" xlink:href="#a"/><linearGradient id="r" x1="1564.62" y1="27.62" x2="1674.56" y2="27.62" xlink:href="#a"/><linearGradient id="s" x1="1812.32" y1="-32.73" x2="1698.68" y2="32.35" xlink:href="#a"/><linearGradient id="t" x1="1372.6" y1="140.12" x2="1480.17" y2="140.12" xlink:href="#a"/><linearGradient id="u" x1="1422.87" y1="251.35" x2="1493.13" y2="169.88" xlink:href="#a"/><linearGradient id="v" x1="200" y1="225" x2="200" gradientUnits="userSpaceOnUse"><stop offset="0" stop-color="#14152c"/><stop offset=".28" stop-color="#151730"/><stop offset=".57" stop-color="#191e3c"/><stop offset=".87" stop-color="#202951"/><stop offset="1" stop-color="#242f5d"/></linearGradient><linearGradient id="w" x1="92.42" y1="99.15" x2="221.59" y2="99.15" gradientUnits="userSpaceOnUse"><stop offset="0" stop-color="#39bde5"/><stop offset=".03" stop-color="#38b8e1"/><stop offset=".5" stop-color="#2e72a4"/><stop offset=".83" stop-color="#27477e"/><stop offset="1" stop-color="#253670"/></linearGradient><radialGradient id="x" cx="69.52" cy="15.57" r="288.28" gradientUnits="userSpaceOnUse"><stop offset="0" stop-color="#39bde5"/><stop offset=".15" stop-color="#37afd9"/><stop offset=".45" stop-color="#318ab9"/><stop offset=".84" stop-color="#294f86"/><stop offset="1" stop-color="#253670"/></radialGradient><radialGradient id="d" cx="164.24" cy="38.51" r="11.18" gradientUnits="userSpaceOnUse"><stop offset="0" stop-color="#39bde5"/><stop offset=".15" stop-color="#37b8e1"/><stop offset=".32" stop-color="#30aad5"/><stop offset=".51" stop-color="#2492c1"/><stop offset=".7" stop-color="#1572a5"/><stop offset=".75" stop-color="#10689d"/><stop offset=".9" stop-color="#1b487a"/><stop offset="1" stop-color="#24305f"/></radialGradient><radialGradient id="b" cx="167.23" cy="42.79" r="24.5" gradientUnits="userSpaceOnUse"><stop offset="0" stop-color="#39bde5"/><stop offset=".15" stop-color="#35a5d0"/><stop offset=".55" stop-color="#2d699c"/><stop offset=".84" stop-color="#27447c"/><stop offset="1" stop-color="#253670"/></radialGradient><radialGradient id="y" cx="175.64" cy="19.78" r="46.35" xlink:href="#b"/><radialGradient id="z" cx="123.4" cy="6.12" r="113.5" xlink:href="#b"/><radialGradient id="h" cx="148.26" cy="70.49" r="34.8" gradientUnits="userSpaceOnUse"><stop offset="0" stop-color="#39bde5"/><stop offset=".15" stop-color="#38b8e0"/><stop offset=".32" stop-color="#36aad3"/><stop offset=".51" stop-color="#3392bc"/><stop offset=".7" stop-color="#2e719d"/><stop offset=".9" stop-color="#284875"/><stop offset="1" stop-color="#24305f"/></radialGradient><radialGradient id="f" cx="178.23" cy="24.55" r="28.04" gradientUnits="userSpaceOnUse"><stop offset="0" stop-color="#39bde5"/><stop offset=".4" stop-color="#3082b2"/><stop offset=".8" stop-color="#284b82"/><stop offset="1" stop-color="#253670"/></radialGradient><radialGradient id="c" cx="154.9" cy="36.75" r="36.97" gradientUnits="userSpaceOnUse"><stop offset="0" stop-color="#ec646d"/><stop offset="1" stop-color="#b7266f"/></radialGradient><radialGradient id="A" cx="179.68" cy="15.95" r="11.01" xlink:href="#c"/><clipPath id="B"><path d="M192.48 63.35l-.28-.16c-1-.6-.91-1.65.29-2.34L201 56a4.51 4.51 0 0 1 4.06-.17l.28.16c1 .6.91 1.65-.29 2.34l-8.47 4.89a4.51 4.51 0 0 1-4.1.13z" fill="none"/></clipPath><radialGradient id="C" cx="181.07" cy="46.87" r="18.24" xlink:href="#d"/><radialGradient id="D" cx="190.47" cy="56.33" r="16.16" xlink:href="#b"/><radialGradient id="e" cx="1608.02" cy="72.19" r="57.81" gradientTransform="matrix(-1 0 0 1 1731.52 0)" gradientUnits="userSpaceOnUse"><stop offset="0" stop-color="#39bde5"/><stop offset=".1" stop-color="#2fb5e0"/><stop offset=".26" stop-color="#169ed2"/><stop offset=".33" stop-color="#0993cb"/><stop offset=".43" stop-color="#117dbd"/><stop offset=".45" stop-color="#1378b9"/><stop offset="1" stop-color="#242f5d"/></radialGradient><radialGradient id="E" cx="123.13" cy="98.69" r="44.21" xlink:href="#e"/><radialGradient id="F" cx="1607.15" cy="103.63" r="59.16" xlink:href="#e"/><radialGradient id="G" cx="1558.41" cy="107.94" r="49.47" xlink:href="#e"/><radialGradient id="H" cx="128.16" cy="103.73" r="89.02" xlink:href="#e"/><radialGradient id="I" cx="89.07" cy="100.02" r="128.32" xlink:href="#e"/><radialGradient id="J" cx="1630.53" cy="53" r="101.66" gradientTransform="matrix(-1 0 0 1 1731.52 0)" gradientUnits="userSpaceOnUse"><stop offset="0" stop-color="#39bde5"/><stop offset=".1" stop-color="#34b3df"/><stop offset=".27" stop-color="#269acf"/><stop offset=".45" stop-color="#1378b9"/><stop offset="1" stop-color="#242f5d"/></radialGradient><radialGradient id="K" cx="1660.17" cy="81.88" r="171.72" gradientTransform="matrix(-1 0 0 1 1731.52 0)" gradientUnits="userSpaceOnUse"><stop offset="0" stop-color="#39bde5"/><stop offset=".15" stop-color="#37bae3"/><stop offset=".26" stop-color="#32b0dd"/><stop offset=".37" stop-color="#29a0d2"/><stop offset=".46" stop-color="#1c89c4"/><stop offset=".52" stop-color="#1378b9"/><stop offset="1" stop-color="#253670"/></radialGradient><radialGradient id="L" cx="135.83" cy="9.42" r="68.62" xlink:href="#d"/><linearGradient id="M" x1="179.5" y1="21.53" x2="158.76" y2="52.7" xlink:href="#f"/><linearGradient id="g" x1="372.03" y1="60.46" x2="404.85" y2="60.46" gradientTransform="matrix(-1 0 0 1 551.4 0)" gradientUnits="userSpaceOnUse"><stop offset="0" stop-color="#b7266f"/><stop offset="1" stop-color="#ec646d"/></linearGradient><radialGradient id="N" cx="387.22" cy="60.81" r="13.41" gradientTransform="matrix(-1 0 0 1 551.4 0)" xlink:href="#g"/><radialGradient id="O" cx="404.37" cy="39.47" r="32.45" gradientTransform="matrix(-1 0 0 1 551.4 0)" xlink:href="#c"/><radialGradient id="P" cx="367.31" cy="66.15" r="5.7" gradientTransform="matrix(-1 0 0 1 551.4 0)" xlink:href="#c"/><radialGradient id="Q" cx="145.81" cy="49.24" r="27.18" xlink:href="#c"/><radialGradient id="R" cx="1869.97" cy="127.5" r="18.01" gradientTransform="matrix(-1 0 0 1 2099.71 0)" xlink:href="#h"/><radialGradient id="S" cx="1878.91" cy="99.91" r="51.64" gradientTransform="matrix(-1 0 0 1 2099.71 0)" gradientUnits="userSpaceOnUse"><stop offset="0" stop-color="#39bde5"/><stop offset=".22" stop-color="#39bae2"/><stop offset=".39" stop-color="#37b0da"/><stop offset=".54" stop-color="#35a0cc"/><stop offset=".68" stop-color="#3188b7"/><stop offset=".82" stop-color="#2d6a9d"/><stop offset=".95" stop-color="#27467e"/><stop offset="1" stop-color="#253670"/></radialGradient><linearGradient id="T" x1="241.33" y1="116.51" x2="265.42" y2="126.84" xlink:href="#f"/><radialGradient id="U" cx="1825.44" cy="120.68" r="49.4" gradientTransform="matrix(-1 0 0 1 2099.71 0)" xlink:href="#c"/><radialGradient id="V" cx="263.53" cy="93.21" r="15.44" xlink:href="#c"/><radialGradient id="W" cx="1710.54" cy="146.98" r="98.26" gradientTransform="matrix(-1 0 0 1 2099.71 0)" xlink:href="#h"/></defs><g data-name="Calque 1"><g style="mix-blend-mode:lighten" opacity=".8" clip-path="url(#i)"><path style="mix-blend-mode:lighten" fill="url(#a)" d="M400 225v-82.74L259.98 225H400z"/><path fill="url(#j)" d="M82.88 135.7L144.42 0H0v88.6l82.88 47.1z"/><path fill="url(#k)" d="M239.98 225h20l96.87-57.24L82.88 135.7l157.1 89.3z"/><path fill="url(#l)" d="M356.85 167.76l-36.36-94.68-113.33 77.17 149.69 17.51z"/><path fill="url(#m)" d="M177.19 78.47L144.42 0 82.88 135.7l94.31-57.23z"/><path fill="url(#n)" d="M207.16 150.25l-29.97-71.78-94.31 57.23 124.28 14.55z"/><path fill="url(#o)" d="M207.16 150.25l113.33-77.17L144.42 0l62.74 150.25z"/><path fill="url(#p)" d="M320.49 73.08L292.42 0h-148l176.07 73.08z"/><path fill="url(#q)" d="M139.27 167.76L0 88.6V225l139.27-57.24z"/><path fill="url(#r)" d="M239.98 225l-100.71-57.24-9.24 57.24h109.95z"/><path fill="url(#s)" d="M130.03 225l9.24-57.24L0 225h130.03z"/><path fill="url(#t)" d="M356.85 167.76l43.15-25.5V67.85L292.42 0l64.43 167.76z"/><path fill="url(#u)" d="M400 67.85V0H292.42L400 67.85z"/></g><path opacity=".7" fill="url(#v)" d="M0 0h400v225H0z"/><circle cx="207.18" cy="153.14" r="2.23" fill="#253670" opacity=".8"/><circle cx="138.96" cy="172.13" r="1.6" fill="#253670" opacity=".4"/><circle cx="138.96" cy="172.13" r="3.09" fill="#253670" opacity=".4"/><circle cx="357.95" cy="175.13" r="2.23" fill="#253670" opacity=".4"/><circle cx="176.86" cy="62.91" r="1.24" fill="#253670" opacity=".4"/><circle cx="38.99" cy="33.97" r="1.24" fill="#253670" opacity=".6"/><circle cx="102.23" cy="16.23" r="1.84" fill="#253670" opacity=".6"/><circle cx="102.23" cy="16.23" r=".76" fill="#253670" opacity=".8"/><circle cx="191.31" cy="44.57" r="4.92" fill="#253670" opacity=".4"/><circle cx="191.31" cy="44.57" r="2.04" fill="#253670" opacity=".8"/><path fill="#253670" opacity=".4" d="M261.79 225l-.24-.23 96.28-49.81.24.23L261.79 225z"/><path fill="#253670" opacity=".6" d="M289.96 59.25L143.91.21l.18-.21h148.33l-2.46 59.25z"/><path fill="#253670" d="M202.16 80.23l-11.14-35.9.32.04 90.98 12.75-.06.4-90.67-12.7 10.96 35.29-.39.12z"/><path fill="#253670" opacity=".6" d="M239.02 225l-100.06-52.5L.51 225H0l138.96-52.87 100.3 52.64-.24.23zM82.88 135.7L0 88.6l.23-13.19 82.65 60.29zm90.39 41.3a17.37 17.37 0 0 1-8.49-2l-58.26-33.7c-2.31-1.33-3.58-3.12-3.58-5s1.27-3.69 3.58-5l101.2-49.61c4.67-2.7 12.29-2.7 17 0l58.25 24.81c2.31 1.33 3.58 3.12 3.58 5s-1.27 3.69-3.58 5l-101.21 58.43a17.37 17.37 0 0 1-8.49 2.07zm42.93-97a16.94 16.94 0 0 0-8.29 2l-101.2 49.61c-2.16 1.25-3.36 2.91-3.36 4.66s1.2 3.41 3.38 4.67L165 174.58c4.57 2.64 12 2.64 16.58 0l101.19-58.42c2.18-1.26 3.38-2.92 3.38-4.67s-1.19-3.41-3.36-4.66L224.52 82a17 17 0 0 0-8.32-2z"/><path d="M173.27 166.19a17.37 17.37 0 0 1-8.49-2l-58.25-33.63c-2.31-1.33-3.58-3.12-3.58-5s1.27-3.69 3.58-5l101.2-49.61c4.67-2.7 12.29-2.7 17 0l58.25 24.81c2.31 1.33 3.58 3.12 3.58 5s-1.27 3.69-3.58 5l-101.22 58.41a17.37 17.37 0 0 1-8.49 2.02zm42.93-96.93a16.94 16.94 0 0 0-8.29 2l-101.2 49.61c-2.16 1.25-3.36 2.91-3.36 4.66s1.2 3.41 3.38 4.67L165 163.82c4.57 2.64 12 2.64 16.58 0l101.17-58.42c2.18-1.26 3.38-2.92 3.38-4.67s-1.19-3.41-3.36-4.66l-58.25-24.82a17 17 0 0 0-8.32-1.99z" fill="#0da8d3"/><path d="M286.61 82.34V63.23l-35.29 4.71-26.44-15.26c-4.64-2.68-12.15-2.68-16.79 0L160.74 80l-57.3 7.65v19.62c.07 1.7 1.2 3.39 3.45 4.69l58.25 33.63c4.64 2.68 12.15 2.68 16.79 0l101.2-58.4c2.24-1.29 3.38-3 3.45-4.68z" fill="url(#w)"/><path d="M283.13 58.18l-58.25-33.64c-4.64-2.68-12.15-2.68-16.79 0L106.91 83c-4.64 2.68-4.64 7 0 9.69l58.25 33.63c4.64 2.68 12.15 2.68 16.79 0l101.18-58.45c4.64-2.68 4.64-7.02 0-9.69z" fill="url(#x)"/><path d="M283.13 66.18l-101.18 58.41c-4.64 2.68-12.15 2.68-16.79 0L106.91 91a6.43 6.43 0 0 1-3.37-4c-.43 2 .68 4.14 3.37 5.69l58.25 33.63c4.64 2.68 12.15 2.68 16.79 0l101.18-58.45c2.69-1.55 3.81-3.67 3.37-5.69a6.43 6.43 0 0 1-3.37 4zM211.8 117.5l-2.76 1.59v-3.18l2.76-1.6v3.19zm5.77-3.33l-2.76 1.59v-3.19l2.76-1.59v3.19zm5.77-3.34l-2.76 1.6v-3.19l2.76-1.59v3.18zm-4.72 9.18l-2.75 1.59v-3.18l2.75-1.59v3.18z" fill="#fff"/><path d="M220.74 119v-3.65l3.16-1.83v3.65zm.4-3.42v2.72l2.36-1.3v-2.72z" fill="#0da8d3"/><path fill="#fff" d="M241.85 100.15l-2.76 1.59v-3.18l2.76-1.59v3.18zm15.89-9.18l-2.76 1.6v-3.19l2.76-1.59v3.18z"/><path d="M226.15 109.45v-3.65l3.16-1.83v3.65zm.4-3.42v2.72l2.35-1.36v-2.72z" fill="#0da8d3"/><path fill="#17213b" d="M194.26 50.6l41.15 23.71-3.79 2.19-41.15-23.7 3.79-2.2z"/><path fill="#fff" d="M191.89 53.62l2.59-1.5 39.73 22.89 1.2-.7-41.15-23.71-3.79 2.2 1.42.82z"/><path fill="#17213b" d="M205.79 43.93l41.15 23.71-3.79 2.19L202 46.13l3.79-2.2z"/><path fill="#fff" d="M203.42 46.95l2.59-1.5 39.73 22.89 1.2-.7-41.15-23.71-3.79 2.2 1.42.82z"/><path fill="#17213b" d="M217.32 37.26l41.15 23.71-3.79 2.19-41.15-23.71 3.79-2.19z"/><path fill="#fff" d="M214.95 40.27l2.59-1.49 39.73 22.88 1.2-.69-41.15-23.71-3.79 2.19 1.42.82z"/><path d="M155.24 133.61a1.33 1.33 0 0 1-.66-.2l-32.34-18.67a3.52 3.52 0 0 1-1.5-2.85v-2.4a1.44 1.44 0 0 1 .58-1.31 1.09 1.09 0 0 1 1.12.07l32.34 18.67a3.52 3.52 0 0 1 1.5 2.85v2.4a1.43 1.43 0 0 1-.58 1.31.91.91 0 0 1-.46.13zm-.46-.55a.72.72 0 0 0 .71.07 1.06 1.06 0 0 0 .38-1v-2.4a3.13 3.13 0 0 0-1.3-2.5l-32.34-18.67a.72.72 0 0 0-.71-.07 1.06 1.06 0 0 0-.38 1v2.4a3.13 3.13 0 0 0 1.3 2.5z" fill="#17213b"/><path d="M190 120.37l-41.82-24c-1.41-.81-1.23-2.24.39-3.18l18.73-10.78a6.11 6.11 0 0 1 5.5-.23l41.82 24c1.41.81 1.23 2.24-.39 3.18l-18.72 10.83a6.11 6.11 0 0 1-5.51.18z" fill="#1a1a38" opacity=".4"/><path d="M181.71 42.93A1.24 1.24 0 0 0 181 42l-.28-.16a4.51 4.51 0 0 0-4.06.17l-8.46 4.89a1.7 1.7 0 0 0-1 1.28v1.47a1.2 1.2 0 0 0 .7 1l.28.16a4.51 4.51 0 0 0 4.06-.17l8.47-4.89a1.73 1.73 0 0 0 1-1.24z" fill="url(#d)"/><path d="M168.19 49.4l-.28-.16c-1-.6-.91-1.65.29-2.34l8.47-4.9a4.51 4.51 0 0 1 4.06-.17l.27.17c1 .6.91 1.65-.29 2.34l-8.47 4.89a4.51 4.51 0 0 1-4.05.17z" fill="url(#b)"/><path d="M186.11 56.22l-17.73 10.23c-.88.51-1.59 0-1.59-1.2a3.81 3.81 0 0 1 1.59-3l20.31-11.72v.8a6.18 6.18 0 0 1-2.58 4.89z" fill="#525252"/><path d="M187.42 12.53a2.29 2.29 0 0 0-2.27.21l-.53.31c-2 1.13-3.55 4.17-3.55 6.78v35.06l4.71-2.72v1.11l-5.65 4.6-12.84 8.62 18 10.2 10.37-8 5.91-5 3.68-41z" fill="url(#y)"/><path d="M174.2 70.41a2.2 2.2 0 0 1 .47-2.22c.95-.95 5.94-3 6.3-3.27s2.15-1.55 2.15-1.55l.55-1.22s-10.13 1-10.26 1.14-4.74 4.29-4.6 4.47a26.75 26.75 0 0 0 3.17.92l.59.8z" fill="#2e2e2e"/><path d="M203.1 22.89l-.53.31c-2 1.13-3.55 4.17-3.55 6.78V65l-12.68 7.32a3.81 3.81 0 0 0-1.59 3c0 1.17.71 1.71 1.59 1.2l17.73-10.23a6.18 6.18 0 0 0 2.58-4.93V25.57c0-2.57-1.59-3.81-3.55-2.68z" fill="url(#z)"/><path d="M169.41 78a24.49 24.49 0 0 0-3.5 2.66c-.88 1-2.63 3-1.91 4s3.15 1.5 5.76-.9 1.87-2.55 4.1-3.74 2.84-2.49 2.57-3.23-1.37-2.05-2-1.77-5.02 2.98-5.02 2.98zm12.7 7a26.63 26.63 0 0 1-1.42 2.75c-.48.68-2.83 4.63-1.6 5.54s3.54.66 5.38-1.33 2.24-4.41 2.69-5.21 1.58-2.92 1-4.14-.65-1.44-.65-1.44z" fill="#202244"/><path d="M172.62 55.66s-7.76 7.66-9 11.5a4.26 4.26 0 0 0 1 3.71 67.62 67.62 0 0 1 4.69 7 3.9 3.9 0 0 0 5.45.58s1.39-2.22.54-3.69-3.12-6.19-3.12-6.19 5-3.42 7.43-4.29a34 34 0 0 0 3.77-1.53 11.77 11.77 0 0 1-2.24 4.58c-1.8 2.26-4.81 5.89-3.8 8.42a21.25 21.25 0 0 0 2.52 4.77c.94 1.46 1.83 4.49 2.64 4.81s4.51.68 5.12-1.74-1.27-7.11-2.11-8.7c0 0 10-11.58 11-12.85s-20.78-8.35-23.89-6.38z" fill="url(#h)"/><path d="M175.22 74.71c-.85-1.47-3.12-6.19-3.12-6.19s5-3.42 7.43-4.29a34 34 0 0 0 3.77-1.53 25.42 25.42 0 0 0 2.7-5.11c-5.66-1.66-11.81-2.91-13.36-1.93.55 1.36 3.43 1.34 3.43 1.34s1.08 2.62 1.79 3a5.49 5.49 0 0 0 2.43 0 6.37 6.37 0 0 1-1.5 1.31c-1.22.88-8.86 7.14-8.86 7.14s.44.25 2.47 3.92a18.15 18.15 0 0 1 2.3 6.1s1.38-2.29.52-3.76z" fill="#1a1a38" opacity=".4"/><path d="M192.38 59.72c-4.49-.43-9.71-.47-8.54 1.89a7.53 7.53 0 0 0 6 4.18c0 1.47-6.18 8.56-6.18 8.56l1.44 2.79c1.44 2.79 1.26 7.87 1.26 7.87a2.26 2.26 0 0 0 1.17-1.47c.6-2.42-1.27-7.11-2.11-8.7 0 0 10-11.58 11-12.85.28-.39-1.42-1.27-4.04-2.27z" fill="#1a1a38" opacity=".4"/><path d="M164.78 35.24l1.19-.93s6.44-3.57 8.58-4.73a14.61 14.61 0 0 0 3.22-2.64 4.48 4.48 0 0 1 3.23-1.37l11.28-.06A24.43 24.43 0 0 0 194 28c.33.3 3.39 2.87 5.58 5a9.5 9.5 0 0 1 2.56 4.25c1.26 4.43 1.24 13.35 1.43 19.73a20 20 0 0 1-2.71.72c-1.92.41-1.68.15-1.68.15s-2.88 6.47-6.78 7.1-9.16-1.2-10.1-7.33c0 0-7.61-1.14-9.67-2a.31.31 0 0 1-.13-.48c.92-1.22 4.35-6 4.68-9a50.53 50.53 0 0 0 0-10.16s-5.74 2.16-7.57 2.55c0 0-7 7.68-9.9 9.76 0 0 1-1.57-1-2.64z" fill="url(#f)"/><path d="M200.87 57.71l.8-.18-.41-.8-10.59-1.12-6.18.32-2.13 2a10.1 10.1 0 0 0 .5 1.82 15.68 15.68 0 0 0 3.84.12c1.22-.26 10.64 1.12 10.66 1.13a21.67 21.67 0 0 0 1.81-3.14c0 .07.11.19 1.7-.15z" fill="#1a1a38" opacity=".4"/><path d="M186.58 54a.09.09 0 0 0-.09-.07 25.38 25.38 0 0 1-5.07-.54 6.06 6.06 0 0 0-2.87-.3c-.07.08-2.33 1-2.47 1.43a3.2 3.2 0 0 0 0 2 6.43 6.43 0 0 1 .44.74h.24a6.84 6.84 0 0 0 .48.81 1.43 1.43 0 0 1 .18.3c.14.31.39.82.5.83a5.52 5.52 0 0 0 1 .11c.15 0 .28-.48.22-.68a.08.08 0 0 1 .07-.11 9.75 9.75 0 0 1 2.4-.05 9.05 9.05 0 0 0 3.74-.92l2.07-.19a.09.09 0 0 0 .08-.12z" fill="#fad1c6"/><path d="M184.08 32.15a27.79 27.79 0 0 0 .1 13.2s6.79-12.67 7.53-14.73 1-3.52.32-4.26-6.83 3.08-6.83 3.08z" fill="#f0f6fd"/><path d="M185.83 42.36s1.29-4 1.07-5.24a15.29 15.29 0 0 0-.55-2.19l1.17-1.08.51 1.07a25.3 25.3 0 0 0 2.74-2.24 21.49 21.49 0 0 1-2.72 1.63 1.91 1.91 0 0 0-.71-.68c-.41-.17-1.42 1.21-1.42 1.21l-.19 2.4-1 5.6.35.83z" fill="#c5cdd7"/><path d="M187.34 33.63s-1.15-2-2.65-1.41a12.21 12.21 0 0 0 0 2.73 6.53 6.53 0 0 0-1.32 3 19.56 19.56 0 0 0 .85 7.42l1-1.89a35.58 35.58 0 0 1 .92-4.73 7.68 7.68 0 0 0 .08-3.88 12.84 12.84 0 0 0 1.12-1.24z" fill="url(#c)"/><path d="M180.91 21.78a8.25 8.25 0 0 0-.2 1.88c.11.3.51.5.42 1.12a11.58 11.58 0 0 0 .44 3.08s-.13.66 0 .86.42.2.6.51.23 1.91.88 2.44a2.39 2.39 0 0 0 1.92.53 3.12 3.12 0 0 0 .88-.45l1 .41s5.05-1.43 4.89-5v-.38a4 4 0 0 0 .46-.83c.1-.33.94-1.8.52-2.44 0 0 2-7.73-4.08-8.19s-6.92 3.77-7.73 6.46z" fill="#fad1c6"/><path d="M191.76 27.16a1.11 1.11 0 0 0-.69-.21c-.69.12-.53-1.31-.53-1.31a13.29 13.29 0 0 0-.48 2.09c-.35 1.83-4.16 4-4.16 4l1 .41s5.02-1.43 4.86-4.98z" fill="#e2b2a6"/><path d="M180.94 18.42c-.59 1.25-.87 2.76.36 3.77a4.87 4.87 0 0 0 3-.63 4.6 4.6 0 0 1 3.38-.1.8.8 0 0 1 .55.78v1.1a.7.7 0 0 0 .42.66l.92.39.18 1.07a.51.51 0 0 0 .68.4l.23-.08s.14-2.38 2.1-2.26a8.2 8.2 0 0 0 0-6.58c-1.63-3.14-6.09-2.92-7-2.56a6.24 6.24 0 0 0-1.8.84 7.63 7.63 0 0 0-3.02 3.2z" fill="url(#A)"/><path d="M197 42.66s-.91 6.74-1.29 8.65l-3 1.56 5.25-.32zm-3-13.22s-1.56 5.37-1.89 6.4l-1.26-.13.23 1.7-6.78 8.93 7.52-8.64-.3-1.51 1.14.12z" fill="#1a1a38" opacity=".4"/><path d="M187.4 58.62s15.89-.52 16.3-.81.48-4.38.44-6.75c0-1.66 0-8.17-1.43-12.73 1.11 3.86.53 17.52 0 18.22s-15.62 1.1-15.62 1.1c.18.58.31.97.31.97z" fill="#273649"/><path d="M156.17 45.91s-.06.4-.75.79-2.42 1.3-2.74 1.52a16.72 16.72 0 0 0-1.6 1.52c0 .15-.42 1.42-.42 1.49s.12.66.12.66l-.39 1.87s-.5.73 0 .92a.69.69 0 0 0 .86-.45 9.06 9.06 0 0 0 1.42-.86c.6-.47 3-2.41 3.42-2.29s0 .81-.16.93-1.48 1.37-.94 2.24.88-.49 1.24-.77 1.12-1.36 1.59-1.5 1.32-1.88 1.43-2.66a3.06 3.06 0 0 1 .87-1.54c.2-.25-.43-2.19-.43-2.19l-2.39-.74-.84.54z" fill="#fad1c6"/><g clip-path="url(#B)"><path d="M201.53 35.67c-.5-.79-.73-.21-1.4.44a10.37 10.37 0 0 0-2.63 4c-1.07 3.13-.68 11-.33 12.08 0 0-10 1.63-10.64 1.6s.85 4.87.85 4.87 15.89-.52 16.3-.81.48-4.38.44-6.75c-.02-2.1.02-11.32-2.59-15.43z" fill="#344759"/><path d="M187.4 58.62s15.89-.52 16.3-.81.48-4.38.44-6.75c0-1.66 0-8.17-1.43-12.73 1.11 3.86.53 17.52 0 18.22s-15.62 1.1-15.62 1.1c.18.58.31.97.31.97z" fill="#273649"/></g><path d="M206 56.88a1.24 1.24 0 0 0-.7-.93l-.28-.16A4.51 4.51 0 0 0 201 56l-8.47 4.89a1.7 1.7 0 0 0-1 1.28v1.43a1.2 1.2 0 0 0 .7 1l.28.16a4.51 4.51 0 0 0 4.06-.17l8.43-4.86a1.73 1.73 0 0 0 1-1.24z" fill="url(#C)"/><path d="M192.48 63.35l-.28-.16c-1-.6-.91-1.65.29-2.34L201 56a4.51 4.51 0 0 1 4.06-.17l.28.16c1 .6.91 1.65-.29 2.34l-8.47 4.89a4.51 4.51 0 0 1-4.1.13z" fill="url(#D)"/><path d="M120.27 53.46v30.12a1 1 0 0 0 1.7 1l23.84-13.78a5.17 5.17 0 0 0 2.3-4V36.69h1.2v30.13a6.32 6.32 0 0 1-2.9 5L122.57 85.6a3 3 0 0 1-1.46.44h-.32l.14.12-.56-.23-.24-.12a2.39 2.39 0 0 1-1.06-2.2V53.46z" fill="url(#e)"/><path d="M121.74 86.3a3 3 0 0 0 1.46-.44L147 72.1a6.32 6.32 0 0 0 2.9-5V36.95h-1.2v30.13a5.17 5.17 0 0 1-2.3 4l-23.8 13.74a1 1 0 0 1-1.7-1v-30.1h-1.2v30.12a2.39 2.39 0 0 0 1.06 2.2 1.93 1.93 0 0 0 .98.26z" fill="url(#E)"/><path d="M120.54 66l54.59 31.52v1.59l-54.59-31.55z" fill="#14abdc"/><path d="M120 66.26l55.12 31.82v1.59L120 67.85z" fill="url(#F)"/><path fill="#14abdc" opacity=".4" d="M120.01 66.26v-7.01l54.62 31.54-.36 6.8-54.26-31.33z"/><path d="M175.47 85.43v30.13a1 1 0 0 0 1.7 1L201 102.77a5.17 5.17 0 0 0 2.3-4V68.66h1.2v30.13a6.32 6.32 0 0 1-2.9 5l-23.84 13.77a3 3 0 0 1-1.46.44h-.32l.14.12-.56-.23-.24-.12a2.39 2.39 0 0 1-1.06-2.2V85.43z" fill="url(#G)"/><path d="M176.94 118.28a3 3 0 0 0 1.46-.44l23.84-13.77a6.32 6.32 0 0 0 2.9-5V68.93h-1.2v30.12a5.17 5.17 0 0 1-2.3 4L177.8 116.8a1 1 0 0 1-1.7-1V85.69h-1.2v30.13A2.39 2.39 0 0 0 176 118a1.93 1.93 0 0 0 .94.28z" fill="url(#H)"/><path fill="#14abdc" d="M111.02 52.02l35.62-20.54 69.4 42.34-35.67 20.56-69.35-42.36z"/><path d="M216.42 72.89a2.78 2.78 0 0 0-1.16-2.21l-67.85-39.14c-.64-.37-1.16 0-1.16.88a2.78 2.78 0 0 0 1.16 2.21l65.76 37.93-35.26 20.32 2.46 1.5L216 73.82a1 1 0 0 0 .42-.93z" fill="url(#I)"/><path d="M111.73 55.2l67.86 39.14c.64.37 1.16 0 1.16-.88a2.78 2.78 0 0 0-1.16-2.21l-67.86-39.14c-.64-.37-1.16 0-1.16.88a2.78 2.78 0 0 0 1.16 2.21z" fill="url(#J)"/><path d="M180.05 91.64a1.85 1.85 0 0 0-.47-.4l-67.85-39.13A.76.76 0 0 0 111 52l35.62-20.54a.73.73 0 0 1 .75.06l67.86 39.14a1.85 1.85 0 0 1 .47.4z" fill="url(#K)"/><path d="M111.92 51.5l67.64 39a2 2 0 0 1 .56.34l35.08-20.2h.07a1.85 1.85 0 0 1 .47.4l-35.69 20.6a1.85 1.85 0 0 0-.47-.4l-67.85-39.13A.76.76 0 0 0 111 52z" fill="#fff"/><path d="M194.48 58.69l-7.88.88-.69-.67s-3.6.56-4.57.23a7.35 7.35 0 0 0-2.57-.13v-1.29l5.79-.77 5.5.34 3.9 1.12z" fill="#1a1a38" opacity=".4"/><path d="M186.58 54a.09.09 0 0 0-.09-.07 25.38 25.38 0 0 1-5.07-.54 6.06 6.06 0 0 0-2.87-.3c-.07.08-2.33 1-2.47 1.43a3.2 3.2 0 0 0 0 2 6.43 6.43 0 0 1 .44.74h.24a6.84 6.84 0 0 0 .48.81 1.43 1.43 0 0 1 .18.3c.14.31.39.82.5.83a5.52 5.52 0 0 0 1 .11c.15 0 .28-.48.22-.68a.08.08 0 0 1 .07-.11 9.75 9.75 0 0 1 2.4-.05 9.05 9.05 0 0 0 3.74-.92l2.07-.19a.09.09 0 0 0 .08-.12z" fill="#fad1c6"/><path d="M201.53 35.67c-.5-.79-.73-.21-1.4.44a10.37 10.37 0 0 0-2.63 4c-1.07 3.13-.68 11-.33 12.08 0 0-10 1.63-10.64 1.6s.85 4.87.85 4.87 15.89-.52 16.3-.81.48-4.38.44-6.75c-.02-2.1.02-11.32-2.59-15.43z" fill="url(#L)"/><path d="M158.91 50.49s5.68-4.44 6.49-4.87 2.92-2 2.92-2l-2.25-1.3-4.63 2.78-4.05 4-6.24 4.42v1s5.15-2.21 5.72-2.59 2.04-1.44 2.04-1.44z" fill="#1a1a38" opacity=".4"/><path d="M155.52 54.51a11.37 11.37 0 0 1 2-1.44c.78-.36 2-1.32 2.17-2.05a9.74 9.74 0 0 1 1.44-2.36l-2.07 1.19-3 1.73-5 2.89a.85.85 0 0 0 .94.14 21.71 21.71 0 0 1 2.37-1c.55-.07 1.47-.24 1.47-.24z" fill="#2e2e2e" opacity=".63"/><path d="M156.17 45.91s-.06.4-.75.79-2.42 1.3-2.74 1.52a16.72 16.72 0 0 0-1.6 1.52c0 .15-.42 1.42-.42 1.49s.12.66.12.66l-.39 1.87s-.5.73 0 .92a.69.69 0 0 0 .86-.45 9.06 9.06 0 0 0 1.42-.86c.6-.47 3-2.41 3.42-2.29s0 .81-.16.93-1.48 1.37-.94 2.24.88-.49 1.24-.77 1.12-1.36 1.59-1.5 1.32-1.88 1.43-2.66a3.06 3.06 0 0 1 .87-1.54c.2-.25-.43-2.19-.43-2.19l-2.39-.74-.84.54z" fill="#fad1c6"/><path d="M177.73 32.81a31.26 31.26 0 0 1 .52-6.29 4.38 4.38 0 0 0-.47.42 14.61 14.61 0 0 1-3.22 2.64c-2.14 1.16-8.58 4.73-8.58 4.73l-1.19.93c-3.77 3-8 9.4-8.6 10.67.3-.39 1.05-1 2.51-.27 2 1.07 1.05 2.67 1.05 2.67 2.92-2.09 9.86-9.8 9.86-9.8 1.71-.36 6.86-2.28 7.5-2.52a8.5 8.5 0 0 0 .62-3.18z" fill="url(#M)"/><path d="M147.45 58.55L167.36 70a.82.82 0 0 0 .74 0l11.9-6.78c.19-.11.17-.3-.05-.43L160 51.29a.82.82 0 0 0-.74 0l-11.88 6.86c-.17.08-.15.27.07.4z" fill="#1a1a38" opacity=".4"/><path d="M146.55 57.06l1.1.57 11-6.36a.8.8 0 0 1 .72 0l19 11c.18-.1 1-.5 1-.5l-.4 1a.24.24 0 0 1-.11.12l-11.6 6.69a.8.8 0 0 1-.72 0l-19.42-11.19a.35.35 0 0 1-.16-.17z" fill="url(#g)"/><path d="M146.72 57.24l19.91 11.5a.82.82 0 0 0 .74 0l11.88-6.86c.19-.11.17-.3-.05-.43L159.29 50a.82.82 0 0 0-.74 0l-11.88 6.86c-.19.07-.17.26.05.38z" fill="url(#N)"/><path fill="#2c2661" d="M153.64 55.68l13.48 7.79.64-.37-13.48-7.79-.64.37z"/><path fill="#1a1a38" opacity=".4" d="M152.62 56.27l15.88 9.17.63-.37-15.87-9.17-.64.37zm-1.02.59l15.87 9.17.64-.37-15.87-9.17-.64.37z"/><path fill="#2c2661" d="M150.58 57.45l15.87 9.17.64-.37-15.87-9.17-.64.37z"/><path fill="#1a1a38" opacity=".4" d="M171.21 63.28l-15.36-8.87-.64.37 15.24 8.8.64.37.64-.37-.52-.3zm-4.86-.26l3.17 1.83.64-.37-3.19-1.84-.62.38z"/><path d="M146.58 56.77l2.52-14.94-.2-.09.3-.17a.22.22 0 0 1 .23 0l20.12 11.62a.57.57 0 0 1 .26.51l-2.54 15.05a.19.19 0 0 1-.11.15l-.3.17-.05-.28-20-11.55a.57.57 0 0 1-.23-.47z" fill="url(#O)"/><path d="M169.45 53.61l.33-.15a.46.46 0 0 1 0 .25l-2.54 15.05a.19.19 0 0 1-.11.15l-.3.17-.05-.28-1-.58z" fill="url(#P)"/><path d="M146.53 57.46l20.12 11.62c.16.09.29 0 .32-.12l2.53-15.06a.57.57 0 0 0-.26-.51l-20.12-11.62c-.16-.09-.29 0-.32.12l-2.54 15.05a.57.57 0 0 0 .27.52z" fill="url(#Q)"/><path fill="#253670" d="M157.43 33.1h.4v7.32h-.4z"/><path fill="#0da8d3" d="M157.45 42.11h.36v2.09h-.36zm0 3.84h.36v2.09h-.36zm0 3.84h.36v5.94h-.36zm0 7.69h.36v2.09h-.36z"/><path fill="#253670" d="M365.29 100.14h.4v7.32h-.4z"/><path fill="#0da8d3" d="M365.31 109.14h.36v2.09h-.36zm0 3.84h.36v2.09h-.36zm0 3.85h.36v5.94h-.36zm0 7.68h.36v2.09h-.36zM306.76 11.63h.36v7.32h-.36zm0-4.37h.36v1.81h-.36z"/><path fill="#253670" opacity=".6" d="M306.74 21.56h.4v1.81h-.4z"/><path d="M299 201.24c-17.1 9.87-44.81 9.87-61.91 0s-17.1-25.87 0-35.74 44.81-9.87 61.91 0 17.05 25.87 0 35.74z" fill="#253670" opacity=".4"/><path d="M287.19 194.45c-10.6 6.12-27.78 6.12-38.38 0s-10.6-16 0-22.16 27.78-6.12 38.38 0 10.6 16.04 0 22.16z" fill="#253670" opacity=".4"/><path d="M268 208.83c-11.25 0-22.49-2.47-31.06-7.42-8.33-4.81-12.92-11.22-12.92-18s4.59-13.24 12.92-18c17.13-9.89 45-9.89 62.11 0 8.33 4.81 12.92 11.22 12.92 18s-4.59 13.24-12.92 18c-8.55 4.95-19.8 7.42-31.05 7.42zm0-50.53c-11.17 0-22.35 2.46-30.85 7.37-8.2 4.74-12.72 11-12.72 17.7s4.52 13 12.72 17.7c17 9.82 44.7 9.82 61.71 0 8.2-4.74 12.72-11 12.72-17.7s-4.52-13-12.72-17.7c-8.51-4.91-19.68-7.36-30.86-7.36z" fill="#0da8d3"/><path d="M268 217.13c-9.63 0-19.26-2.12-26.6-6.35-7.14-4.12-11.07-9.61-11.07-15.46s3.93-11.34 11.07-15.46c14.66-8.47 38.53-8.47 53.19 0 7.14 4.12 11.07 9.61 11.07 15.46s-3.93 11.34-11.07 15.46l-.09-.16.09.16c-7.32 4.22-16.95 6.35-26.59 6.35zm0-43.26c-9.57 0-19.13 2.1-26.41 6.31-7 4.05-10.89 9.43-10.89 15.15s3.87 11.09 10.89 15.15c14.57 8.41 38.27 8.41 52.83 0 7-4.05 10.89-9.43 10.89-15.15s-3.87-11.09-10.89-15.15c-7.28-4.18-16.85-6.32-26.42-6.32z" fill="#253670" opacity=".6"/><path d="M277.05 181.14a4 4 0 0 1 .43 2c-.16.78-2.05 3.48-2.6 5s-3.39 3.72-5 3.72-3.05-.66-2.29-2.43a11.94 11.94 0 0 1 2-3.24 14.93 14.93 0 0 0 2-4.09c.27-1 5.46-.96 5.46-.96zm-7.79-7.28a6.17 6.17 0 0 1 0 2.14c-.23.56-.73 1.08-2.15 1.48a16.2 16.2 0 0 0-5.06 1.94c-2.34 1.4-5.54 2-6.5.45s2.37-3.81 3.59-4.41 3.12-.9 4.14-1.82 1.2-.7 1.2-.7z" fill="#202244"/><path d="M277.8 146.27s-1.15 10.4-.81 14 2.69 10.44 1.92 15a27 27 0 0 1-1.68 6.47s-3.14 3.21-5.54.34c0 0 1-1.85.87-6.64-.07-2.44-.12-3.84-.15-4.62a3.56 3.56 0 0 0-.49-1.67 43 43 0 0 1-3.38-7.18s.54 6.74.5 9.78a7.2 7.2 0 0 0 .13 1.41 3.58 3.58 0 0 1 0 1.29c-.16.79-3 3.74-5.24 1.37 0 0-.88-.6-.69-2.45a38 38 0 0 0-.46-6.09 14.07 14.07 0 0 0-1.5-4.8 38.86 38.86 0 0 1-1.61-4.83c-.75-2.27-3.54-13.16-3.59-15.63s3-4.24 3-4.24 7 3.43 6.87 3.8 8.78 4.12 8.78 4.12z" fill="url(#R)"/><path d="M259.13 137.82s7 3.43 6.87 3.8 8.78 4.12 8.78 4.12l3 .54s-1.15 10.4-.81 14 2.69 10.44 1.92 15a27 27 0 0 1-1.68 6.47 6.34 6.34 0 0 1-1.28 1 37.78 37.78 0 0 0 1.73-10.22c0-4.83-2.15-12.62-2.26-15.13a2.54 2.54 0 0 0-2.35-2.5 16.93 16.93 0 0 1-7.07-1.58c.65 2.7 2.55 8.69 2.55 8.69s.58 7.21.49 10.07a3.45 3.45 0 0 0 .08.86 4 4 0 0 1 .09 1.54 3.25 3.25 0 0 1-1.06 1.35c-.06-3-.64-10.46-.86-12.19-.21-1.92-2.27-9.64-2.27-9.64-1.07-.84-1.59-2.82-1.79-3.81-.91-2-1-3.8-2.73-3.83-.14 0-2.24 2.59-3.63.54a38.9 38.9 0 0 1-.74-4.84c-.03-2.47 3.02-4.24 3.02-4.24z" fill="#1a1a38" opacity=".4"/><path d="M256.48 142.42l.38 1.32s.61.09 1.43-.85a1.37 1.37 0 0 0 0-1.82l-1.56.35z" fill="#e2b2a6"/><path d="M261.91 106.5a3.16 3.16 0 0 0-1.42.5c-1 .53-2.24 1.92-2.94 5.26s-3.66 12.09-3.89 13.71a91.33 91.33 0 0 0 1.29 16.31.57.57 0 0 0 .73.43 12.87 12.87 0 0 0 3.25-1.54c1.24-1 1-8.44 1-8.44l-.84-9.61 1.36-7.87s2-6.21 1.67-6.61a6.34 6.34 0 0 1-.21-2.14z" fill="url(#S)"/><path d="M283.37 116.07a6.84 6.84 0 0 1-.43 6.06c-1.81 3.48-6.15 10.61-6.15 10.61s1.41 10 1.21 12.39-2 5.29-2.48 6.21-4.25 3.22-8.63 1-4.74-5.18-5.18-8.42-.3-3.05-.3-3.05-2 6.41-3.26 5.21c-.52-.51-.56-2.09-.42-3.75a81.11 81.11 0 0 0 .27-10.53v-.33c0-1.12-.2-11.32.09-14.07s-.12-7.07 1.32-8.85a7.37 7.37 0 0 1 2.53-2l2-.1s11.86-1 12.89.54a13 13 0 0 1 1.39 2.49 40.43 40.43 0 0 1 5.14 6.64z" fill="url(#T)"/><path d="M274 105.24a1.66 1.66 0 0 1 .69.83 15.46 15.46 0 0 0 1.1 2.52 98 98 0 0 0-7.21 7.51 15.91 15.91 0 0 0-2.59 4.65l-2.72-3.19.85-.94.46-2.1.8-2.38.58-2.35 6.51-3.7z" fill="#f0f6fd"/><path d="M268.76 112a4.17 4.17 0 0 1 1.42 1.69 7.15 7.15 0 0 0-1.32-.78 6.87 6.87 0 0 0-.9 1 20.92 20.92 0 0 0 0 3l-.37.55h-.43s0-1.92-.1-2a12.14 12.14 0 0 1-.1-1.75c0-.12 1.42-1.44 1.42-1.44l.49-.33z" fill="#c5cdd7"/><path d="M266 111.41a2.26 2.26 0 0 1 1.1-.21 5.8 5.8 0 0 1 1.78.91c.18.23 0 .53-.71 1s-.74.83-.74.83a13.31 13.31 0 0 1 .16 3.5 22.25 22.25 0 0 0-1.69 3.67c-.29 1.2-1.54-3.85-1.54-3.85a20.29 20.29 0 0 1 .63-2c.2-.41 1-2.59.77-3s.24-.85.24-.85z" fill="url(#U)"/><path d="M277.84 109.76l-.89 1.86-1.57-.08.19 1.64s-6.48 4.31-9 8.81l.15.48a30.22 30.22 0 0 1 9.17-8.76l.21-.13-.32-1.58 1.4.26z" fill="#14152c" opacity=".6"/><path d="M267.16 110.26a1.38 1.38 0 0 0 1.12.88c.84.07 5.35-1.68 6-4.32 0 0-.27-1.27-.3-1.5a1.17 1.17 0 0 0 .38-.65 10.8 10.8 0 0 1 .53-1.56 2.07 2.07 0 0 0 .21-1.23s1.35-7.36-2.69-8.63-7 0-8.3 4.13c0 0-.32 1.13-.58 2a2.84 2.84 0 0 0 0 1.62 2.6 2.6 0 0 1 .13.83 10.9 10.9 0 0 0-.08 3.1s-.32.78.21 1.07.42 2.61.42 2.61l1.5 1.54s.29.29 1.45.11z" fill="#fad1c6"/><path d="M275.14 102.27s2.86-6.56-1.76-9.27c-3.65-2.09-8.19-1.08-9.51 3.65 0 0-.33 1.23 1.3 1.81a18.65 18.65 0 0 0 4.7 1.21c1 0 1.44.51 1.45 1.78a2.31 2.31 0 0 0 .17 1.11.65.65 0 0 1 .1.39v.24a.39.39 0 0 0 .25.36c.23.07.49 0 .5 0a2.66 2.66 0 0 1 1.18-1.9c.69-.47 1.48-.71 1.62.62z" fill="url(#V)"/><path d="M265 115.26c.2-.41 1-2.59.77-3s.25-.89.25-.89a2.26 2.26 0 0 1 1.1-.21h.15s-.56 1-.69 1.25-.65 2.8-.93 3.38a24.55 24.55 0 0 0-.82 2.56l-.17-.09c-.17-.61-.28-1.07-.28-1.07a20.29 20.29 0 0 1 .62-1.93z" fill="#341231" opacity=".5"/><path d="M265.42 108.7a5.61 5.61 0 0 1 .77 1.59.88.88 0 0 1-.49-.19l-.6-.61z" fill="#e2b2a6"/><path d="M260.66 118.5a4.9 4.9 0 0 1-.77-2.32 15.21 15.21 0 0 1 .32-2.31s-.6 0-.56-.87a3.06 3.06 0 0 1 .59-1.94.84.84 0 0 1 .61-.16s.22-.72.86-.61a1.17 1.17 0 0 1 .57-.83.62.62 0 0 1 .89.19s.22-.77.43-.91a1.76 1.76 0 0 1 .61-.17s1-.14 1.22.14a20.27 20.27 0 0 1 .65 3.42c0 .15-.29 1.69-.44 2.17s-1.35 1.73-1.54 2.33a14 14 0 0 1-2.11 2.52l-1.33-.65z" fill="#fad1c6"/><path d="M261.4 140.88s.06-10.38 1.78-15l-.9 1.49a59 59 0 0 0-1.13 14.23z" fill="#14152c" opacity=".6"/><path d="M261.67 124.6s7.74 6.94 7.77 7 11.31-7 11.31-7l.35.79c-2 3.42-4.32 7.29-4.32 7.29s.17 1.2.38 2.87c0 0-5.57 5.95-9 5.19-3-.65-6.19-10.61-7-13.28a2.16 2.16 0 0 1 0-1.31z" fill="#14152c" opacity=".6"/><path d="M260.2 117.45a9.27 9.27 0 0 1 3.12-.85l-2.32 2.05-.31-.16a6.25 6.25 0 0 1-.51-1z" fill="#e2b2a6"/><path d="M274.49 120.32a17.64 17.64 0 0 1 4.37-3.69c1.41-.92 3-1.61 3.8-1 1.81 1.26 1.43 3.56.58 5.88s-8.66 15.42-14.12 15.13a46.93 46.93 0 0 1-5.75-7.28c-1.52-2.68-4-7.32-4.74-8.7a.59.59 0 0 1 .12-.71c1.07-1 4.34-3.84 5.32-3.36 0 0 2.23 5.62 4.46 8.39l1.75 1.67a46.11 46.11 0 0 1 2.61-4.21c.4-.58 1.02-1.38 1.6-2.12z" fill="url(#W)"/><path d="M268.28 111.14a1.38 1.38 0 0 1-1.12-.88s4.64-1.85 5.13-4.69c0 0 0 3-1.19 4.56a7.47 7.47 0 0 1-2.82 1.01z" fill="#e2b2a6"/><path d="M268.55 162v.08a.2.2 0 0 1 0-.08z" fill="#1f262d"/><path d="M272.61 182.93a3.62 3.62 0 0 1-.92-.8s1-1.85.87-6.64c-.07-2.43-.12-3.83-.15-4.62a3.58 3.58 0 0 0-.49-1.68 43.46 43.46 0 0 1-3.21-6.71v-.06c.79 1.38 4.34 5.62 4.8 8.88s-.51 9.63-.9 11.63z" fill="#1a1a38" opacity=".4"/><path d="M268.71 162.41l-.13-.36c-.01-.13.04.03.13.36z" fill="#1f262d"/><path d="M259.26 119.46s7.09 15.32 10.32 15.92 11.93-10.65 11.93-10.65c-2.79 4.63-8.26 12.05-12.38 11.84a46.92 46.92 0 0 1-5.75-7.28c-1.52-2.68-4-7.32-4.74-8.7a.59.59 0 0 1 .12-.71z" fill="#14152c" opacity=".6"/><path d="M270.27 126.62a16.42 16.42 0 0 1 1.23 2.38l-1.07-2.63z" fill="#14152c" opacity=".6"/><path d="M275.14 102.27a12 12 0 0 0 .88-4.09 1.38 1.38 0 0 1-.56 1c-.8.53-4.13 2.79-4.13 2.79a1.46 1.46 0 0 0 .15.64.65.65 0 0 1 .1.39v.24a.39.39 0 0 0 .25.36c.23.07.49 0 .5 0a2.66 2.66 0 0 1 1.18-1.9c.7-.52 1.49-.76 1.63.57z" fill="#341231" opacity=".5"/></g></svg>