<svg xmlns="http://www.w3.org/2000/svg" viewBox="0 0 400 225"><path fill="#72b62b" d="M0 0h400v225H0z" data-name="Calque 2"/><g data-name="Calque 1"><rect x="156.84" y="87.13" width="86.32" height="56.33" rx="5.83" ry="5.83" fill="#564842"/><path fill="#bac9d3" d="M159.57 89.4h80.87v45.43h-80.87z"/><path d="M156.84 134.83v6a2.66 2.66 0 0 0 2.65 2.65h81a2.66 2.66 0 0 0 2.65-2.65v-6z" fill="#fff"/><circle cx="200" cy="139.83" r="1.82" fill="#dadcdc"/><path d="M212.27 149.37v-5.91h-24.54v5.91c0 3.63-2.73 6.81-7.72 6.81h40c-5.01 0-7.74-3.18-7.74-6.81z" fill="#efeeee"/><path d="M220.44 157.55h-40.88a.68.68 0 0 1-.68-.68.68.68 0 0 1 .68-.68h40.89a.68.68 0 0 1 .68.68.68.68 0 0 1-.69.68z" fill="#d0d1d2"/><path d="M212.27 143.46h-24.54v2.95c1.92-.67 5.69-1.58 12-1.58a44.24 44.24 0 0 1 12.49 1.53z" fill="#dadcdc"/><path d="M214 153.91a6.53 6.53 0 0 1-1.77-4.54v-1.82h-24.5v1.82a6.53 6.53 0 0 1-1.77 4.54zM169.33 58.8h61.33v70.87h-61.33z" fill="#fff"/><rect x="172.06" y="62.66" width="55.88" height="18.85" rx="4.62" ry="4.62" fill="#61a3d3"/><rect x="172.06" y="117.52" width="35.89" height="8.06" rx="4.03" ry="4.03" fill="#61a3d3"/><rect x="172.06" y="87.88" width="15.9" height="10.45" rx="3.12" ry="3.12" fill="#04a99d"/><rect x="192.05" y="87.88" width="15.9" height="10.45" rx="3.12" ry="3.12" fill="#f39224"/><rect x="212.04" y="87.88" width="15.9" height="10.45" rx="3.12" ry="3.12" fill="#f3e72a"/><path fill="#cdcbcb" d="M172.06 84.47h55.88v.45h-55.88zm0 29.68h55.88v.45h-55.88z"/><path fill="#e6e6e5" d="M172.06 100.43h15.9v1.7h-15.9zm0 2.95h15.9v1.7h-15.9zm0 2.96h15.9v1.7h-15.9zm0 2.95h10.62v1.7h-10.62zm19.99-8.86h15.9v1.7h-15.9zm0 2.95h15.9v1.7h-15.9zm0 2.96h15.9v1.7h-15.9zm0 2.95h10.62v1.7h-10.62zm19.99 8.48h15.9v1.7h-15.9zm0 2.95h15.9v1.7h-15.9zm0 2.95h7.95v1.7h-7.95zm0-23.24h15.9v1.7h-15.9zm0 2.95h15.9v1.7h-15.9zm0 2.96h15.9v1.7h-15.9zm0 2.95h10.62v1.7h-10.62z"/><path d="M227.94 50.4h-55.88c-2 0-2.73.68-2.73 1.82v6.58h61.33v-6.58c.01-1.14-.66-1.82-2.72-1.82zm0 84.43h-55.88c-2 0-2.73-.68-2.73-1.82v-3.45h61.33V133c.01 1.15-.66 1.83-2.72 1.83z" fill="#2b7295"/><circle cx="218.67" cy="55.75" r="1.33" fill="#e6e6e5"/><circle cx="222.64" cy="55.75" r="1.33" fill="#e6e6e5"/><circle cx="226.62" cy="55.75" r="1.33" fill="#e6e6e5"/><rect x="172.06" y="54.6" width="19.99" height="2.49" rx="1.24" ry="1.24" fill="#e6e6e5"/><path d="M215.36 133h-30.72a.76.76 0 0 1-.76-.76.76.76 0 0 1 .76-.76h30.72a.76.76 0 0 1 .76.76.76.76 0 0 1-.76.76z" fill="#0c7da4"/><path fill="#fff" d="M263.42 23.76h61.33v70.87h-61.33z"/><rect x="266.15" y="26.88" width="34.01" height="18.85" rx="4.62" ry="4.62" fill="#768f55"/><rect x="266.15" y="86.55" width="7.16" height="4.71" rx="2.35" ry="2.35" fill="#61a3d3"/><rect x="275.61" y="86.55" width="7.16" height="4.71" rx="2.35" ry="2.35" fill="#61a3d3"/><rect x="285.07" y="86.55" width="7.16" height="4.71" rx="2.35" ry="2.35" fill="#61a3d3"/><rect x="294.53" y="86.55" width="7.16" height="4.71" rx="2.35" ry="2.35" fill="#61a3d3"/><rect x="303.99" y="86.55" width="7.16" height="4.71" rx="2.35" ry="2.35" fill="#61a3d3"/><rect x="313.45" y="86.55" width="7.16" height="4.71" rx="2.35" ry="2.35" fill="#61a3d3"/><path fill="#cdcbcb" d="M266.15 48.72h55.88v.45h-55.88zm0 35.09h55.88v.45h-55.88z"/><path fill="#e6e6e5" d="M266.94 69.58h15.9v1.7h-15.9zm0 2.96h15.9v1.7h-15.9zm0 2.95h15.9v1.7h-15.9zm0 2.95h10.62v1.7h-10.62zm19.2-8.86h15.9v1.7h-15.9zm0 2.96h15.9v1.7h-15.9zm0 2.95h15.9v1.7h-15.9zm0 2.95h10.62v1.7h-10.62zm19.2-8.86h15.9v1.7h-15.9zm0 2.96h15.9v1.7h-15.9zm0 2.95h15.9v1.7h-15.9zm0 2.95h10.62v1.7h-10.62zm-1.33-50.88h15.9v1.7h-15.9zm0 2.95h15.9v1.7h-15.9zm0 2.96h15.9v1.7h-15.9zm0 2.95h15.9v1.7h-15.9zm0 2.95h15.9v1.7h-15.9zm0 2.96h7.95v1.7h-7.95z"/><path fill="#e6e6e5" d="M304.01 33.47h15.9v1.7h-15.9z"/><path d="M322 15.36h-55.85c-2 0-2.73.68-2.73 1.82v6.59h61.33v-6.59c.01-1.18-.68-1.82-2.75-1.82zm0 84.43h-55.85c-2 0-2.73-.68-2.73-1.82v-3.45h61.33V98c.01 1.11-.68 1.79-2.75 1.79z" fill="#2b7295"/><circle cx="312.76" cy="20.71" r="1.33" fill="#e6e6e5"/><circle cx="316.73" cy="20.71" r="1.33" fill="#e6e6e5"/><circle cx="320.71" cy="20.71" r="1.33" fill="#e6e6e5"/><path d="M309.45 97.92h-30.72a.76.76 0 0 1-.76-.76.76.76 0 0 1 .76-.76h30.72a.76.76 0 0 1 .76.76.76.76 0 0 1-.76.76z" fill="#0c7da4"/><circle cx="274.89" cy="59.27" r="6.43" fill="#ee7aa9"/><circle cx="294.09" cy="59.27" r="6.43" fill="#f39224"/><circle cx="313.29" cy="59.27" r="6.43" fill="#04a99d"/><rect x="265.99" y="19.47" width="19.99" height="2.49" rx="1.24" ry="1.24" fill="#e6e6e5"/><path d="M283.79 33.75a3 3 0 0 0-4.44 2.56 3 3 0 0 0 4.44 2.56 3 3 0 0 0 0-5.12zm-19.93 97.04h61.33v70.87h-61.33z" fill="#fff"/><path d="M269.71 174.9h9.65a3.13 3.13 0 0 1 3.13 3.13v4.2a3.13 3.13 0 0 1-3.12 3.13h-9.65a3.12 3.12 0 0 1-3.12-3.12V178a3.12 3.12 0 0 1 3.11-3.1z" fill="#04a99d"/><rect x="306.58" y="188.41" width="15.9" height="10.45" rx="3.12" ry="3.12" fill="#768f55"/><path fill="#cdcbcb" d="M266.59 171.86h55.88v.45h-55.88z"/><path fill="#e6e6e5" d="M267.06 157.91h15.9v1.7h-15.9zm0 2.95h15.9v1.7h-15.9zm0 2.96h15.9v1.7h-15.9zm0 2.95h15.9v1.7h-15.9z"/><path fill="#e6e6e5" d="M267.06 163.82h15.9v1.7h-15.9zm19.52-5.91h15.9v1.7h-15.9zm0 2.95h15.9v1.7h-15.9zm0 2.96h15.9v1.7h-15.9zm0 2.95h15.9v1.7h-15.9z"/><path fill="#e6e6e5" d="M286.58 163.82h15.9v1.7h-15.9zm-.57 11.02h36.47v1.7h-36.47zm0 2.95h36.47v1.7h-36.47zm0 5.91h18.23v1.7h-18.23zm0-2.96h36.47v1.7h-36.47zm-19.43 7.61h36.47v1.7h-36.47zm0 2.96h36.47v1.7h-36.47zm18.24 5.9h18.23v1.7h-18.23zm-18.24-2.95h36.47v1.7h-36.47zm39.52-36.35H322v1.7h-15.9zm0 2.95H322v1.7h-15.9zm0 2.96H322v1.7h-15.9zm0 2.95h9.11v1.7h-9.11z"/><path fill="#e6e6e5" d="M306.1 163.82H322v1.7h-15.9z"/><path d="M274.16 135.31h-6.72a.85.85 0 0 1-.85-.85.85.85 0 0 1 .85-.85h6.72a.85.85 0 0 1 .85.85.85.85 0 0 1-.85.85zm11.84 0h-6.7a.85.85 0 0 1-.85-.85.85.85 0 0 1 .85-.85h6.7a.85.85 0 0 1 .85.85.85.85 0 0 1-.85.85zm11.89 0h-6.72a.85.85 0 0 1-.85-.85.85.85 0 0 1 .85-.85h6.72a.85.85 0 0 1 .85.85.85.85 0 0 1-.85.85zm11.87 0H303a.85.85 0 0 1-.85-.85.85.85 0 0 1 .85-.85h6.72a.85.85 0 0 1 .85.85.85.85 0 0 1-.81.85zm11.86 0h-6.72a.85.85 0 0 1-.85-.85.85.85 0 0 1 .85-.85h6.72a.85.85 0 0 1 .85.85.85.85 0 0 1-.85.85z" fill="#61a3d3"/><path d="M322.47 122.38h-55.88c-2 0-2.73.68-2.73 1.82v6.59h61.33v-6.59c0-1.13-.68-1.82-2.72-1.82zm0 84.44h-55.88c-2 0-2.73-.68-2.73-1.82v-3.45h61.33V205c0 1.14-.68 1.82-2.72 1.82z" fill="#2b7295"/><circle cx="313.19" cy="127.74" r="1.33" fill="#e6e6e5"/><circle cx="317.17" cy="127.74" r="1.33" fill="#e6e6e5"/><circle cx="321.14" cy="127.74" r="1.33" fill="#e6e6e5"/><rect x="266.59" y="126.59" width="19.99" height="2.49" rx="1.24" ry="1.24" fill="#e6e6e5"/><path d="M309.89 204.94h-30.72a.76.76 0 0 1-.76-.76.76.76 0 0 1 .76-.76h30.72a.76.76 0 0 1 .76.76.76.76 0 0 1-.76.76z" fill="#0c7da4"/><rect x="266.58" y="137.98" width="55.9" height="17.26" rx="4.39" ry="4.39" fill="#f39224"/><path d="M314.7 192.58a1.48 1.48 0 0 0-2.22 1.28 1.48 1.48 0 0 0 2.22 1.28 1.48 1.48 0 0 0 0-2.56zM74.81 23.76h61.33v70.87H74.81z" fill="#fff"/><rect x="77.53" y="27.27" width="36.95" height="17.82" rx="6.17" ry="6.17" fill="#ee7aa9"/><rect x="77.79" y="75.92" width="15.9" height="10.45" rx="3.12" ry="3.12" fill="#768f55"/><path fill="#cdcbcb" d="M77.53 49.08h55.88v.45H77.53zm0 23.43h55.88v.45H77.53zm-.3 16.37h55.88v.45H77.23z"/><path fill="#e6e6e5" d="M117.52 27.27h15.9v1.85h-15.9zm0 3.2h15.9v1.85h-15.9zm0 3.2h15.9v1.85h-15.9zm0 3.2h15.9v1.85h-15.9z"/><path fill="#e6e6e5" d="M117.52 33.67h15.9v1.85h-15.9zm0 6.4h15.9v1.85h-15.9zM96.96 76.09h36.47v1.7H96.96zm0 2.95h36.47v1.7H96.96zm0 5.91h18.23v1.7H96.96zm0-2.96h36.47v1.7H96.96zm-20.03 9.34h56.49v1.7H76.93zm.6-33.17h32.33v1.7H77.53zm0 2.95h32.33v1.7H77.53zm0 2.96h32.33v1.7H77.53zm0 2.95h18.52v1.7H77.53z"/><path fill="#e6e6e5" d="M77.53 64.07h32.33v1.7H77.53z"/><rect x="117.52" y="43.25" width="8.43" height="1.85" rx=".92" ry=".92" fill="#61a3d3"/><rect x="121.26" y="66.42" width="8.43" height="1.85" rx=".92" ry=".92" fill="#61a3d3"/><path d="M124.88 86.72h-6.58a.92.92 0 0 1-.92-.92.92.92 0 0 1 .92-.92h6.58a.92.92 0 0 1 .92.92.92.92 0 0 1-.92.92z" fill="#61a3d3"/><path d="M133.41 15.36H77.53c-2 0-2.73.68-2.73 1.82v6.59h61.33v-6.59c.01-1.18-.67-1.82-2.72-1.82zm0 84.43H77.53c-2 0-2.73-.68-2.73-1.82v-3.45h61.33V98c.01 1.11-.67 1.79-2.72 1.79z" fill="#2b7295"/><circle cx="124.14" cy="20.71" r="1.33" fill="#e6e6e5"/><circle cx="128.11" cy="20.71" r="1.33" fill="#e6e6e5"/><circle cx="132.09" cy="20.71" r="1.33" fill="#e6e6e5"/><rect x="77.53" y="19.56" width="19.99" height="2.49" rx="1.24" ry="1.24" fill="#e6e6e5"/><path d="M120.83 97.92H90.11a.76.76 0 0 1-.76-.76.76.76 0 0 1 .76-.76h30.72a.76.76 0 0 1 .76.76.76.76 0 0 1-.76.76z" fill="#0c7da4"/><path d="M85.92 80.09a1.48 1.48 0 0 0-2.22 1.28 1.48 1.48 0 0 0 2.22 1.28 1.48 1.48 0 0 0 0-2.56z" fill="#fff"/><path d="M97.08 56.12H79a1.43 1.43 0 0 1-1.43-1.43A1.43 1.43 0 0 1 79 53.27h18.08a1.43 1.43 0 0 1 1.43 1.43 1.43 1.43 0 0 1-1.43 1.42z" fill="#f39224"/><rect x="117.63" y="56.12" width="15.78" height="2.85" rx="1.43" ry="1.43" fill="#f39224"/><path d="M131.88 63.85h-12.93a1.43 1.43 0 0 1-1.43-1.43 1.43 1.43 0 0 1 1.43-1.42h12.93a1.43 1.43 0 0 1 1.43 1.43 1.43 1.43 0 0 1-1.43 1.42z" fill="#f39224"/><path fill="#cdcbcb" d="M114.25 53.27h.45v15.46h-.45z"/><path fill="#fff" d="M76.38 130.79h61.33v70.87H76.38z"/><rect x="79.1" y="134.22" width="17.2" height="12.81" rx="3.13" ry="3.13" fill="#04a99d"/><path d="M101.45 134.22h11a3.13 3.13 0 0 1 3.13 3.13v6.56a3.13 3.13 0 0 1-3.18 3.09h-11a3.12 3.12 0 0 1-3.12-3.12v-6.56a3.12 3.12 0 0 1 3.17-3.1z" fill="#768f55"/><rect x="117.54" y="134.22" width="17.2" height="12.81" rx="3.12" ry="3.12" fill="#f39224"/><path fill="#cdcbcb" d="M79.53 167.84h55.88v.45H79.53z"/><path fill="#e6e6e5" d="M79.58 184.27h53.7v1.7h-53.7zm0 2.95h53.7v1.7h-53.7zm0 5.91h26.85v1.7H79.58zm0-2.96h53.7v1.7h-53.7zm-.04-40.64h16.33v1.75H79.54zm0 3.03h16.33v1.75H79.54zm0 3.04h16.33v1.75H79.54zm0 3.03h12.69v1.75H79.54z"/><path fill="#e6e6e5" d="M79.54 155.6h16.33v1.75H79.54z"/><path d="M87.32 163.8h-6.9a.87.87 0 0 1-.87-.87.87.87 0 0 1 .87-.87h6.9a.87.87 0 0 1 .87.87.87.87 0 0 1-.87.87z" fill="#61a3d3"/><path fill="#e6e6e5" d="M98.76 149.33h16.33v1.75H98.76zm0 3.04h16.33v1.75H98.76zm0 3.03h16.33v1.75H98.76zm0 3.03h12.69v1.75H98.76z"/><path fill="#e6e6e5" d="M98.76 155.4h16.33v1.75H98.76z"/><path d="M106.54 163.61h-6.9a.87.87 0 0 1-.87-.87.87.87 0 0 1 .87-.87h6.9a.87.87 0 0 1 .87.87.87.87 0 0 1-.87.87z" fill="#61a3d3"/><path fill="#e6e6e5" d="M117.97 149.14h16.33v1.75h-16.33zm0 3.03h16.33v1.75h-16.33zm0 3.03h16.33v1.75h-16.33zm0 3.03h12.69v1.75h-12.69z"/><path fill="#e6e6e5" d="M117.97 155.2h16.33v1.75h-16.33z"/><path d="M125.75 163.41h-6.9a.87.87 0 0 1-.87-.87.87.87 0 0 1 .87-.87h6.9a.87.87 0 0 1 .87.87.87.87 0 0 1-.87.87z" fill="#61a3d3"/><path d="M135 122.38H79.1c-2 0-2.73.68-2.73 1.82v6.59h61.33v-6.59c.01-1.13-.7-1.82-2.7-1.82zm0 84.44H79.1c-2 0-2.73-.68-2.73-1.82v-3.45h61.33V205c.01 1.14-.7 1.82-2.7 1.82z" fill="#2b7295"/><circle cx="125.71" cy="127.74" r="1.33" fill="#e6e6e5"/><circle cx="129.69" cy="127.74" r="1.33" fill="#e6e6e5"/><circle cx="133.66" cy="127.74" r="1.33" fill="#e6e6e5"/><rect x="79.1" y="126.59" width="19.99" height="2.49" rx="1.24" ry="1.24" fill="#e6e6e5"/><path d="M122.41 204.94H91.68a.76.76 0 0 1-.76-.76.76.76 0 0 1 .76-.76h30.72a.76.76 0 0 1 .76.76.76.76 0 0 1-.75.76z" fill="#0c7da4"/><rect x="79.1" y="171.26" width="55.21" height="10.34" rx="4.39" ry="4.39" fill="#ee7aa9"/><circle cx="95.99" cy="198.13" r="1.8" fill="#61a3d3"/><circle cx="103.28" cy="198.13" r="1.8" fill="#61a3d3"/><circle cx="110.57" cy="198.13" r="1.8" fill="#61a3d3"/><circle cx="117.86" cy="198.13" r="1.8" fill="#61a3d3"/><path d="M164.79 79.27h-8.24a3 3 0 0 1-2.79-3.19v-18.7a2.56 2.56 0 0 0-2.33-2.74h-9.81a.23.23 0 0 1 0-.45h9.81a3 3 0 0 1 2.79 3.19v18.7a2.56 2.56 0 0 0 2.33 2.74h8.24a.23.23 0 0 1 0 .45z" fill="#fff"/><circle cx="141.62" cy="54.42" r="1.36" fill="#fff"/><circle cx="164.79" cy="79.04" r="1.36" fill="#fff"/><circle cx="153.52" cy="112.12" r="1.36" fill="#fff"/><circle cx="141.12" cy="164.67" r="1.36" fill="#fff"/><path d="M144 164.89h-3.63a.23.23 0 1 1 0-.45H144a2.73 2.73 0 0 0 2.73-2.73v-46.64a3.19 3.19 0 0 1 3.19-3.19h3.63a.23.23 0 1 1 0 .45h-3.63a2.73 2.73 0 0 0-2.73 2.73v46.64a3.19 3.19 0 0 1-3.19 3.19zm99.45-85.62h-8.24a.23.23 0 0 1 0-.45h8.24a2.56 2.56 0 0 0 2.33-2.74v-18.7a3 3 0 0 1 2.79-3.19h9.81a.23.23 0 0 1 0 .45h-9.81a2.56 2.56 0 0 0-2.33 2.74v18.7a3 3 0 0 1-2.79 3.19z" fill="#fff"/><circle cx="258.38" cy="54.42" r="1.36" fill="#fff"/><circle cx="235.21" cy="79.04" r="1.36" fill="#fff"/><circle cx="246.48" cy="112.12" r="1.36" fill="#fff"/><circle cx="258.88" cy="164.67" r="1.36" fill="#fff"/><path d="M259.65 164.89H256a3.19 3.19 0 0 1-3.19-3.19v-46.63a2.73 2.73 0 0 0-2.73-2.73h-3.63a.23.23 0 0 1 0-.45h3.63a3.19 3.19 0 0 1 3.19 3.19v46.64a2.73 2.73 0 0 0 2.73 2.73h3.63a.23.23 0 0 1 0 .45zm-60.94-128.6h-12.09c-3.69 0-5.23-7.77 2.87-6.81a2.58 2.58 0 0 1 .29-3.64c1.65-1.44 3.79.55 3.79.55s-.59-5.3 6.18-6.19 9.42 5.5 9.07 8.53c0 0 1.74-2.33 5.23-.82s3.56 8.38-3.42 8.38zm0 155.45h-12.09c-3.69 0-5.23-7.77 2.87-6.81a2.58 2.58 0 0 1 .29-3.64c1.65-1.44 3.79.55 3.79.55s-.59-5.3 6.18-6.19 9.42 5.5 9.07 8.53c0 0 1.74-2.33 5.23-.82s3.56 8.38-3.42 8.38zM254.08 41.3a5.1 5.1 0 1 0-9.59 2.4l3.26 6.59a1.37 1.37 0 0 0 2.46 0l3.26-6.59a5.07 5.07 0 0 0 .61-2.4zM249 44.52a3.22 3.22 0 1 1 3.22-3.22 3.22 3.22 0 0 1-3.22 3.22zm-98.42-9a4.79 4.79 0 1 0 4.79 4.79 4.79 4.79 0 0 0-4.79-4.79zm0 8.39a3.6 3.6 0 1 1 3.6-3.6 3.6 3.6 0 0 1-3.6 3.6z" fill="#fff"/><path d="M151.61 46a.18.18 0 0 0 .18-.18v-1.53h-2.41v1.54a.18.18 0 0 0 .18.18h.19v1.28h-.19a.18.18 0 0 0-.18.18v3.83a.28.28 0 0 0 .28.28h1.85a.28.28 0 0 0 .28-.28v-3.82a.18.18 0 0 0-.18-.18h-.19V46z" fill="#fff"/><ellipse cx="149.38" cy="38.83" rx="1.64" ry=".66" transform="rotate(-41.53 149.391 38.831)" fill="#fff"/><rect x="284.12" y="110.98" width="3.16" height="7.8" rx="1.58" ry="1.58" fill="#fff"/><rect x="288.73" y="108.88" width="3.16" height="9.91" rx="1.58" ry="1.58" fill="#fff"/><rect x="293.34" y="106.65" width="3.16" height="12.13" rx="1.58" ry="1.58" fill="#fff"/><rect x="297.95" y="104.82" width="3.16" height="13.96" rx="1.58" ry="1.58" fill="#fff"/><path d="M102.18 107.89a3.41 3.41 0 0 0-1.11-.08l-.38-.74-.62.21-.62.21.14.82a3.41 3.41 0 0 0-.84.73l-.79-.26-.29.59-.29.59.68.48a3.41 3.41 0 0 0-.08 1.11l-.74.38.21.62.21.62.82-.14a3.41 3.41 0 0 0 .73.84l-.26.79.59.29.59.29.48-.68a3.41 3.41 0 0 0 1.11.08l.38.74.62-.21.62-.21-.14-.82a3.41 3.41 0 0 0 .84-.73l.79.26.29-.59.29-.59-.68-.48a3.41 3.41 0 0 0 .08-1.11l.74-.38-.21-.62-.21-.62-.82.14a3.41 3.41 0 0 0-.73-.84l.26-.79-.59-.29-.59-.29zm.44 4A1.38 1.38 0 1 1 102 110a1.38 1.38 0 0 1 .62 1.85zm7.22-8.42a3.41 3.41 0 0 0-1.11-.08l-.38-.74-.62.21-.62.21.14.82a3.41 3.41 0 0 0-.84.73l-.79-.26-.29.59-.29.59.68.48a3.41 3.41 0 0 0-.08 1.11l-.74.38.21.62.21.62.82-.14a3.41 3.41 0 0 0 .73.84l-.26.79.59.29.59.29.48-.68a3.41 3.41 0 0 0 1.11.08l.38.74.62-.21.62-.21-.14-.82a3.41 3.41 0 0 0 .84-.73l.79.26.29-.59.29-.59-.68-.48a3.41 3.41 0 0 0 .08-1.11l.74-.38-.21-.62-.21-.62-.79.14a3.41 3.41 0 0 0-.73-.84l.26-.79-.59-.29-.59-.29zm.44 4a1.38 1.38 0 1 1-.62-1.86 1.38 1.38 0 0 1 .62 1.81zm-1.15 4.78a3.41 3.41 0 0 0-1.11.15l-.52-.65-.57.33-.57.33.31.77a3.41 3.41 0 0 0-.67.89l-.83-.09-.17.64-.17.64.76.33a3.41 3.41 0 0 0 .15 1.11l-.65.52.33.57.33.57.77-.31a3.41 3.41 0 0 0 .89.67l-.09.83.64.17.64.17.33-.76a3.41 3.41 0 0 0 1.11-.15l.52.65.57-.33.57-.33-.31-.77a3.41 3.41 0 0 0 .67-.89l.83.09.17-.64.17-.64-.76-.33a3.41 3.41 0 0 0-.15-1.11l.65-.52-.33-.57-.33-.57-.77.31a3.41 3.41 0 0 0-.89-.67l.09-.83-.64-.17-.64-.17zm1.25 3.78a1.38 1.38 0 1 1-1-1.69 1.38 1.38 0 0 1 1 1.66zM200 46a.23.23 0 0 1-.23-.23v-5.7a.23.23 0 1 1 .45 0v5.67a.23.23 0 0 1-.22.26z" fill="#fff"/><circle cx="200" cy="46.47" r="1.36" fill="#fff"/><circle cx="200" cy="39.37" r="1.36" fill="#fff"/><path d="M200 169.27a.23.23 0 0 1-.23-.23v-5.67a.23.23 0 1 1 .45 0V169a.23.23 0 0 1-.22.27z" fill="#fff"/><circle cx="200" cy="169.77" r="1.36" fill="#fff"/><circle cx="200" cy="162.68" r="1.36" fill="#fff"/></g></svg>