<svg xmlns="http://www.w3.org/2000/svg" xmlns:xlink="http://www.w3.org/1999/xlink" viewBox="0 0 400 225"><defs><radialGradient id="e" cx="326.22" cy="28.98" r="264.32" gradientTransform="matrix(1.15 0 0 .86 -29.22 17.84)" gradientUnits="userSpaceOnUse"><stop offset="0" stop-color="#301d48"/><stop offset="1" stop-color="#28173c"/></radialGradient><radialGradient id="f" cx="150.92" cy="135.84" r="73.21" gradientUnits="userSpaceOnUse"><stop offset="0" stop-color="#97d6f2"/><stop offset=".04" stop-color="#8ac8eb"/><stop offset=".17" stop-color="#629fd6"/><stop offset=".17" stop-color="#629fd5"/><stop offset=".31" stop-color="#5176a9"/><stop offset=".45" stop-color="#445584"/><stop offset=".59" stop-color="#393b67"/><stop offset=".73" stop-color="#322952"/><stop offset=".87" stop-color="#2e1e46"/><stop offset="1" stop-color="#2c1a42"/></radialGradient><radialGradient id="g" cx="197.81" cy="226.11" r="193.98" gradientTransform="matrix(1.32 0 0 1.16 -63.32 -17.63)" gradientUnits="userSpaceOnUse"><stop offset="0" stop-color="#97d6f2"/><stop offset=".09" stop-color="#8ac8eb"/><stop offset=".39" stop-color="#629fd6"/><stop offset=".4" stop-color="#609bd1"/><stop offset=".5" stop-color="#4f73a5"/><stop offset=".61" stop-color="#415280"/><stop offset=".71" stop-color="#363963"/><stop offset=".81" stop-color="#2e274e"/><stop offset=".9" stop-color="#2a1c42"/><stop offset="1" stop-color="#28183e"/></radialGradient><radialGradient id="h" cx="226.7" cy="81.92" r="121.41" gradientUnits="userSpaceOnUse"><stop offset="0" stop-color="#3d277f"/><stop offset="1" stop-color="#28173c"/></radialGradient><radialGradient id="a" cx="158.64" cy="140.17" r="53.95" gradientUnits="userSpaceOnUse"><stop offset="0" stop-color="#5d8cc9"/><stop offset=".13" stop-color="#5171a9"/><stop offset=".31" stop-color="#445284"/><stop offset=".48" stop-color="#393967"/><stop offset=".66" stop-color="#322853"/><stop offset=".83" stop-color="#2e1d46"/><stop offset="1" stop-color="#2c1a42"/></radialGradient><linearGradient id="i" x1="56.18" y1="207.56" x2="342.05" y2="207.56" gradientUnits="userSpaceOnUse"><stop offset="0" stop-color="#2c1a42"/><stop offset=".34" stop-color="#629fd6"/><stop offset=".37" stop-color="#74b1df"/><stop offset=".42" stop-color="#87c6ea"/><stop offset=".46" stop-color="#93d2f0"/><stop offset=".51" stop-color="#97d6f2"/><stop offset=".55" stop-color="#8ac8eb"/><stop offset=".67" stop-color="#629fd6"/><stop offset=".69" stop-color="#5d93c8"/><stop offset=".8" stop-color="#485f8f"/><stop offset=".89" stop-color="#393a65"/><stop offset=".96" stop-color="#2f234c"/><stop offset="1" stop-color="#2c1a42"/></linearGradient><radialGradient id="j" cx="159.78" cy="179.91" r="38.85" xlink:href="#a"/><radialGradient id="k" cx="1686.46" cy="1155.73" r="61.54" gradientTransform="rotate(180 926.18 658.38)" xlink:href="#a"/><radialGradient id="b" cx="129.24" cy="96.26" r="34.59" gradientUnits="userSpaceOnUse"><stop offset="0" stop-color="#4a53a0"/><stop offset="1" stop-color="#464294"/></radialGradient><radialGradient id="l" cx="271.32" cy="144.25" r="29.86" xlink:href="#b"/><radialGradient id="c" cx="274.52" cy="92.36" r="38.66" gradientUnits="userSpaceOnUse"><stop offset="0" stop-color="#aa5ba0"/><stop offset=".1" stop-color="#934f8f"/><stop offset=".28" stop-color="#6e3c73"/><stop offset=".47" stop-color="#512d5e"/><stop offset=".65" stop-color="#3d234e"/><stop offset=".83" stop-color="#301c45"/><stop offset="1" stop-color="#2c1a42"/></radialGradient><radialGradient id="m" cx="230.47" cy="108.67" r="55.61" xlink:href="#a"/><radialGradient id="d" cx="218.76" cy="74.36" r="72.98" gradientUnits="userSpaceOnUse"><stop offset="0" stop-color="#addcec"/><stop offset=".39" stop-color="#acadd0"/><stop offset="1" stop-color="#ab5ba0"/></radialGradient><radialGradient id="n" cx="1742.73" cy="1155.73" r="61.54" gradientTransform="rotate(180 926.18 658.38)" xlink:href="#c"/><radialGradient id="o" cx="1684.52" cy="1169.47" r="72.98" gradientTransform="translate(-1574.48 -994.71)" xlink:href="#d"/><radialGradient id="p" cx="129.75" cy="194.35" r="35.9" gradientUnits="userSpaceOnUse"><stop offset="0" stop-color="#4a53a0"/><stop offset=".56" stop-color="#363167"/><stop offset="1" stop-color="#28183e"/></radialGradient><radialGradient id="q" cx="134.77" cy="186.62" r="12.28" xlink:href="#b"/><radialGradient id="r" cx="276.24" cy="191.85" r="51.1" gradientUnits="userSpaceOnUse"><stop offset="0" stop-color="#addcec"/><stop offset=".25" stop-color="#8ba9bf"/><stop offset=".77" stop-color="#444163"/><stop offset="1" stop-color="#28183e"/></radialGradient><radialGradient id="s" cx="227.1" cy="86.02" r="20.44" xlink:href="#e"/><radialGradient id="t" cx="169.24" cy="154.68" r="20.44" xlink:href="#e"/><clipPath id="u"><path d="M215.33 115.28h-24.16v12.56a12.62 12.62 0 0 1 5.48 3.06c2.1 2.24 3 11.34 3 11.34l-13.18 4.53v20l-9.91-.27s-16.15-18.12-13.89-19.91-4.56-26.94-3.37-28.23S173.15 97 173.15 97l40.09 4.6z" fill="none"/></clipPath><clipPath id="v"><path d="M207.38 173.52l-11.92 5.37a.38.38 0 0 0 .18-.19l11.92-5.37a.38.38 0 0 1-.18.19z" fill="#acdced"/></clipPath><clipPath id="w"><path d="M172.91 128.47l11.92-5.37a.37.37 0 0 1 .24 0l-11.92 5.37a.37.37 0 0 0-.24 0z" fill="#acdced"/></clipPath><clipPath id="x"><path d="M217.23 181.22l-11.92 5.37c.17-.07.27-.29.27-.63l11.92-5.37c0 .34-.1.55-.27.63z" fill="#acdced"/></clipPath><clipPath id="y"><path d="M173.8 116.14l11.92-5.37a.38.38 0 0 1 .24 0 1 1 0 0 1 .42.24l-11.92 5.37a1 1 0 0 0-.42-.24.38.38 0 0 0-.24 0z" fill="#acdced"/></clipPath><clipPath id="z"><path d="M225.81 182.51l-11.92 5.37c.27-.12.35-.6.19-1.22l11.92-5.37c.16.62.08 1.1-.19 1.22z" fill="#acdced"/></clipPath><clipPath id="A"><path d="M178.64 109.05l11.92-5.37a.37.37 0 0 1 .24 0 1.56 1.56 0 0 1 .8.69l-11.92 5.37a1.56 1.56 0 0 0-.8-.69.37.37 0 0 0-.24 0z" fill="#acdced"/></clipPath><clipPath id="B"><path d="M218.12 162.52l-11.92 5.37a5 5 0 0 1-3.21.22l11.92-5.37a5 5 0 0 0 3.21-.22z" fill="#acdced"/></clipPath><clipPath id="C"><path d="M214.35 179.66l11.92-5.37a7 7 0 0 1-1.71 1.26l-11.92 5.37a7 7 0 0 0 1.71-1.26z" fill="#acdced"/></clipPath><clipPath id="D"><path d="M183 114.65l11.92-5.37a7.66 7.66 0 0 1 2.11-.36l-11.92 5.37a7.66 7.66 0 0 0-2.11.36z" fill="#acdced"/></clipPath><clipPath id="E"><path d="M230.65 178.87l-11.92 5.37a.36.36 0 0 0 .17-.16l11.92-5.37a.36.36 0 0 1-.17.16z" fill="#acdced"/></clipPath><clipPath id="F"><path d="M184.63 108l11.92-5.37a.38.38 0 0 1 .25 0L184.88 108a.38.38 0 0 0-.25 0z" fill="#acdced"/></clipPath><clipPath id="G"><path d="M219.67 180.68l11.92-5.37a2.13 2.13 0 0 1 .21 1.69l-11.92 5.37a2.13 2.13 0 0 0-.21-1.69z" fill="#acdced"/></clipPath><clipPath id="H"><path d="M233.58 168.94l-11.92 5.37c.16-.07.26-.27.27-.58l11.92-5.37c-.01.31-.11.51-.27.58z" fill="#acdced"/></clipPath><clipPath id="I"><path d="M194.05 112.6l11.95-5.38a.38.38 0 0 1 .24 0 .93.93 0 0 1 .38.21l-11.92 5.37a.93.93 0 0 0-.38-.21.38.38 0 0 0-.27.01z" fill="#acdced"/></clipPath><clipPath id="J"><path d="M221.38 169.06l11.92-5.37a3.32 3.32 0 0 1 .65 1.85L222 170.91a3.32 3.32 0 0 0-.62-1.85z" fill="#acdced"/></clipPath><clipPath id="K"><path d="M196.85 114.62l11.92-5.37a3.34 3.34 0 0 1 1 1.73l-11.92 5.37a3.34 3.34 0 0 0-1-1.73z" fill="#acdced"/></clipPath><clipPath id="L"><path d="M232.4 154.74l-11.92 5.37c.26-.12.34-.56.2-1.16l11.92-5.37c.15.6.06 1.04-.2 1.16z" fill="#acdced"/></clipPath><clipPath id="M"><path d="M203.91 123.05l11.92-5.37a.38.38 0 0 1 .24 0 1.52 1.52 0 0 1 .77.65l-11.92 5.37a1.52 1.52 0 0 0-.77-.65.38.38 0 0 0-.24 0z" fill="#acdced"/></clipPath><clipPath id="N"><path d="M218.91 153.8l11.92-5.37a3.24 3.24 0 0 1 1 1.7l-11.92 5.37a3.24 3.24 0 0 0-1-1.7z" fill="#acdced"/></clipPath><clipPath id="O"><path d="M207 126.59l11.92-5.37a3.28 3.28 0 0 1 .61 1.85l-11.92 5.37a3.28 3.28 0 0 0-.61-1.85z" fill="#acdced"/></clipPath><clipPath id="P"><path d="M215.4 142.26l11.92-5.37a2.06 2.06 0 0 1 .17 1.67l-11.92 5.37a2.06 2.06 0 0 0-.17-1.67z" fill="#acdced"/></clipPath><clipPath id="Q"><path d="M212.7 137.54l11.92-5.37a2.14 2.14 0 0 1 1.14 1.25l-11.92 5.37a2.14 2.14 0 0 0-1.14-1.25z" fill="#acdced"/></clipPath><radialGradient id="R" cx="136.42" cy="83.63" r="103.25" xlink:href="#b"/><radialGradient id="S" cx="218.22" cy="142.61" r="56.22" gradientUnits="userSpaceOnUse"><stop offset="0" stop-color="#91d4f1"/><stop offset=".21" stop-color="#79a9c8"/><stop offset=".76" stop-color="#3f4165"/><stop offset="1" stop-color="#28183e"/></radialGradient><clipPath id="T"><path d="M206.12 107.2l-15.71 8.31.76 12.34a12.62 12.62 0 0 1 5.48 3.06c2.1 2.24 2.2 11.63 2.2 11.63l-12.34 4.24v20l-9.91-.27s-3.4 14.88-1.13 13.09 29.65 16.8 30.84 15.51S247.56 177 247.56 177L262 124.56z" fill="none"/></clipPath></defs><g data-name="Calque 1"><path fill="url(#e)" d="M0 0h400v225H0z"/><g opacity=".2" fill="#73b8e7"><path d="M169.21 96.4A85.45 85.45 0 0 0 158.6 107l11.22 6.52a85.45 85.45 0 0 1 10.61-10.61l-11.22-6.51zm7.02-5.15q-2 1.25-3.93 2.71l11.22 6.52q2-1.45 3.93-2.71l-11.22-6.52zm7.08-3.83q-2 .87-3.94 2l4 2.3q2-1.09 3.94-2l-4-2.3zm6.84 3.97q-2 .87-3.94 2l49.94 29q2-1.09 3.94-2l-49.94-29zm.14-6.39a38.82 38.82 0 0 0-3.86 1.16l4 2.3a38.81 38.81 0 0 1 3.86-1.16l-4-2.3zm6.84 4a38.8 38.8 0 0 0-3.86 1.16l21.6 12.54a38.8 38.8 0 0 1 3.86-1.16L197.13 89zm24.67 14.3a38.81 38.81 0 0 0-3.86 1.16l25.27 14.69a38.81 38.81 0 0 1 3.86-1.16L221.8 103.3zM197 84.09a29 29 0 0 0-3.7.32l4 2.3a29 29 0 0 1 3.7-.32l-4-2.3zm50.27 25.32a31.72 31.72 0 0 1-3.56.22l4 2.3a31.73 31.73 0 0 0 3.56-.22l-4-2.3zm-7.35-4.27a31.73 31.73 0 0 1-3.56.22l4 2.3a31.73 31.73 0 0 0 3.56-.22l-4-2.3zm-29.71-17.26a31.72 31.72 0 0 1-3.56.22L233 103.38a31.73 31.73 0 0 0 3.56-.22l-26.35-15.28zm6.79-1.44q-1.93.59-3.81 1l6.09 3.56q1.87-.38 3.81-1L217 86.44zm10 5.87q-1.93.59-3.81 1l16.22 9.42q1.87-.38 3.81-1L227 92.31zm-23.63-8.4a31.73 31.73 0 0 1-3.56.22l4 2.3a31.73 31.73 0 0 0 3.56-.22l-4-2.3zm6.74-1.45q-1.93.59-3.81 1l4 2.3q1.87-.38 3.81-1l-4-2.3zm7.13-2.83q-2 1-4 1.75l4 2.3q2-.77 4-1.75l-4-2.3zm7.38-4.23q-1.74 1.15-3.51 2.18l-.6.34 4 2.3.6-.34q1.77-1 3.51-2.18l-4-2.3zm7.14-5.35q-1.94 1.63-3.93 3.1l4 2.3q2-1.47 3.93-3.1l-4-2.3zm6.75-6.29q-1.82 1.87-3.71 3.61l4 2.3q1.89-1.74 3.71-3.61l-4-2.3zm8.15 39.94q-1.93.59-3.81 1l4 2.3q1.87-.38 3.81-1l-4-2.3zm7.13-2.84q-2 1-4 1.75l4 2.3q2-.77 4-1.75l-4-2.3zm-2.7-10.07q-1.74 1.15-3.51 2.18l-.6.34 14 8.14.6-.34q1.77-1 3.51-2.18l-14-8.14z"/><path d="M258.23 85.44q-1.94 1.63-3.93 3.1l14 8.14q2-1.47 3.93-3.1l-14-8.14zm16.83-.44q-1.82 1.87-3.71 3.61l4 2.3q1.89-1.74 3.71-3.61l-4-2.3z" opacity=".5"/><path d="M254 108q-1.93.59-3.81 1l4 2.3q1.87-.38 3.81-1l-4-2.3zm7.14-2.87q-2 1-4 1.75l4 2.3q2-.77 4-1.75l-4-2.3zm7.38-4.22q-1.74 1.15-3.51 2.18l-.6.34 4 2.3.6-.34q1.77-1 3.51-2.18l-4-2.3zm7.14-5.35q-1.94 1.63-3.93 3.1l4 2.3q2-1.47 3.93-3.1l-4-2.3zm6.75-6.3q-1.82 1.87-3.71 3.61l4 2.3q1.89-1.74 3.71-3.61l-4-2.3z"/><path d="M282.22 77q-1 1.15-2 2.35-.74.89-1.5 1.76l4 2.3q.76-.87 1.5-1.76 1-1.2 2-2.35l-4-2.3zm7.34 4.22q-1 1.15-2 2.35-.74.89-1.5 1.76l4 2.3q.76-.87 1.5-1.76 1-1.2 2-2.35l-4-2.3z" opacity=".5"/><path d="M224.08 83.61q-2 1-4 1.75l4 2.3q2-.77 4-1.75l-4-2.3zm7.05 4.09q-2 1-4 1.75l19.27 11.19q2-.77 4-1.75L231.13 87.7zm7.37-4.23q-1.74 1.15-3.51 2.18l-.6.34 9.19 5.34.6-.34q1.77-1 3.51-2.18l-9.19-5.34z"/><path d="M245.64 78.12q-1.94 1.63-3.93 3.1l9.19 5.34q2-1.47 3.93-3.1l-9.19-5.34zm6.75-6.29q-1.82 1.87-3.71 3.61L268 86.63q1.89-1.74 3.71-3.61l-19.32-11.19z" opacity=".5"/><path d="M259.55 63.79q-1 1.15-2 2.35-.74.89-1.5 1.76l19.27 11.19q.76-.87 1.5-1.76 1-1.2 2-2.35l-19.27-11.19zm-13.88-8.07q-1 1.15-2 2.35-.74.89-1.5 1.76l10.8 6.27q.76-.87 1.5-1.76 1-1.2 2-2.35l-10.8-6.27z" opacity=".3"/><path d="M231.46 79.38q-1.74 1.15-3.51 2.18l-.6.34 4 2.3.6-.34q1.77-1 3.51-2.18l-4-2.3zM238.6 74q-1.94 1.63-3.93 3.1l4 2.3q2-1.47 3.93-3.1l-4-2.3zm6.75-6.27q-1.82 1.87-3.71 3.61l4 2.3q1.89-1.74 3.71-3.61l-4-2.3zm-41.51 20.33a29 29 0 0 0-3.7.32l33.66 19.55a29 29 0 0 1 3.7-.32l-33.66-19.55zm37.06 21.53a29 29 0 0 0-3.7.32l12.88 7.49a29 29 0 0 1 3.7-.32l-12.88-7.49zm13.28 3.83a31.7 31.7 0 0 1-3.56.22l6 3.47a31.7 31.7 0 0 0 3.56-.22l-6-3.47zm6.74-1.42q-1.93.59-3.81 1l6 3.47q1.87-.38 3.81-1l-6-3.47zm7.13-2.85q-2 1-4 1.75l6 3.47q2-.77 4-1.75l-6-3.47zm7.38-4.23q-1.74 1.15-3.51 2.18l-.6.34 6 3.47.6-.34q1.77-1 3.51-2.18l-6-3.47zm7.14-5.35q-1.94 1.63-3.93 3.1l6 3.47q2-1.47 3.93-3.1l-6-3.47zm6.75-6.29q-1.82 1.87-3.71 3.61l6 3.47q1.89-1.74 3.71-3.61l-6-3.47z"/><path d="M296.47 85.24q-1 1.15-2 2.35-.74.89-1.5 1.76l6 3.47q.76-.87 1.5-1.76 1-1.2 2-2.35l-6-3.47zm-6.69-15.78Q287.86 71.14 286 73l20.23 11.76q1.88-1.85 3.8-3.53z" opacity=".5"/><path d="M253.23 48.23q-1.92 1.67-3.8 3.53L282.58 71q1.88-1.85 3.8-3.53l-33.15-19.24z" opacity=".3"/><path d="M190.57 99.58q-2 1.25-3.93 2.71l18.73 10.88q2-1.45 3.93-2.71l-18.73-10.88zm21.86 12.69q-2 1.25-3.93 2.71l8.66 5q2-1.45 3.93-2.71l-8.66-5zm11.93 6.94A78.91 78.91 0 0 0 206.73 135l8.66 5A78.91 78.91 0 0 1 233 124.24l-8.66-5zm-40.82-14.48a85.45 85.45 0 0 0-10.61 10.61l30.52 17.73a85.45 85.45 0 0 1 10.61-10.61l-30.52-17.73z"/><path d="M305.65 65a63.7 63.7 0 0 0-6.54 4.36L257.18 45a63.71 63.71 0 0 1 6.54-4.36L305.65 65z" opacity=".3"/><path d="M320.5 73.66A63.71 63.71 0 0 0 314 78l-10.73-6.23a63.7 63.7 0 0 1 6.54-4.36l10.73 6.23z" opacity=".5"/><path d="M69 177.76a71.58 71.58 0 0 1-7.25 4.82l-11.22-6.52a71.57 71.57 0 0 0 7.25-4.82L69 177.76zm-4.27-12.37q-1.88 1.76-3.82 3.38l11.22 6.52q1.94-1.62 3.82-3.38l-11.22-6.52zm6.52-6.73q-1.75 2-3.57 3.85l4 2.3q1.82-1.86 3.57-3.85l-4-2.3z" opacity=".4"/><path d="M78.09 162.64q-1.75 2-3.57 3.85l49.94 29q1.82-1.86 3.57-3.85l-49.94-29z" opacity=".2"/><path d="M77.69 151.41q-1.86 1.91-3.66 4l4 2.3q1.8-2.08 3.66-4l-4-2.3zm6.84 3.98q-1.86 1.91-3.66 4l21.6 12.54q1.8-2.08 3.66-4l-21.6-12.54z" opacity=".4"/><path d="M109.2 169.71q-1.86 1.91-3.66 4l25.27 14.69q1.8-2.08 3.66-4l-25.27-14.69z" opacity=".2"/><path d="M84.53 145.13q-1.94 1.58-3.84 3.35l4 2.3q1.9-1.77 3.84-3.35l-4-2.3z"/><path d="M135.47 165.6q-2 1.22-3.94 2.65l4 2.3q2-1.42 3.94-2.65l-4-2.3zM118 155.48q-2 1.22-3.94 2.65l14 8.14q2-1.42 3.94-2.65l-14-8.14zm-19.59-11.41q-2 1.22-3.94 2.65l16.23 9.43q2-1.42 3.94-2.65l-16.23-9.43z" opacity=".4"/><path d="M105.49 140.36q-2 .84-3.93 1.89l6.14 3.57q2-1.05 3.93-1.89l-6.14-3.57zm10.09 5.87q-2 .84-3.93 1.89l6.14 3.57q2-1.05 3.93-1.89l-6.14-3.57zm-24.01-6.14q-2 1.22-3.94 2.65l4 2.3q2-1.42 3.94-2.65l-4-2.3zm7.08-3.7q-2 .84-3.93 1.89l4 2.3q2-1.05 3.93-1.89l-4-2.3zm6.96-2.29a37.77 37.77 0 0 0-3.85 1.09l4 2.3a37.81 37.81 0 0 1 3.85-1.09l-4-2.3zm6.68-.77a28.28 28.28 0 0 0-3.68.24l4 2.3a28.27 28.27 0 0 1 3.68-.24l-4-2.3zm6.37-.25a32.36 32.36 0 0 1-3.58.29l4 2.3a32.36 32.36 0 0 0 3.58-.29l-4-2.3zm6.78-1.57q-1.95.63-3.83 1l4 2.3q1.88-.41 3.83-1l-4-2.3z"/><path d="M125.12 151.77q-2 .84-3.93 1.89l14 8.14q2-1.05 3.93-1.89l-14-8.14zm6.96-2.29a37.81 37.81 0 0 0-3.85 1.09l14 8.14a37.77 37.77 0 0 1 3.85-1.09l-14-8.14zm16.76 5.08a28.27 28.27 0 0 0-3.68.24l4 2.3a28.27 28.27 0 0 1 3.68-.24l-4-2.3z" opacity=".4"/><path d="M155.21 154.31a32.36 32.36 0 0 1-3.58.29l4 2.3a32.38 32.38 0 0 0 3.58-.29l-4-2.3zm6.79-1.57q-1.95.63-3.83 1l4 2.3q1.88-.41 3.83-1l-4-2.3z"/><path d="M142.54 161.89q-2 .84-3.93 1.89l4 2.3q2-1.05 3.93-1.89l-4-2.3zm6.96-2.29a37.81 37.81 0 0 0-3.85 1.09l4 2.3a37.81 37.81 0 0 1 3.85-1.09l-4-2.3z" opacity=".4"/><path d="M156.18 158.83a28.27 28.27 0 0 0-3.68.24l4 2.3a28.27 28.27 0 0 1 3.68-.24l-4-2.3zm6.38-.25a32.36 32.36 0 0 1-3.58.29l4 2.3a32.38 32.38 0 0 0 3.58-.29l-4-2.3zm6.78-1.58q-1.95.63-3.83 1l4 2.3q1.88-.41 3.83-1l-4-2.3zm.72-7.68q-2 1.07-4.05 1.92l4 2.3q2-.85 4.05-1.92l-4-2.3zm7.35 4.27q-2 1.07-4.05 1.92l4 2.3q2-.85 4.05-1.92l-4-2.3zm-64.96-15.51a37.81 37.81 0 0 0-3.85 1.09l4 2.3a37.81 37.81 0 0 1 3.85-1.09l-4-2.3zm7.04 4.09a37.77 37.77 0 0 0-3.85 1.09l9.19 5.34a37.81 37.81 0 0 1 3.85-1.09l-9.19-5.34zm6.68-.77a28.27 28.27 0 0 0-3.68.24l19.27 11.19a28.27 28.27 0 0 1 3.68-.24l-19.27-11.19zm6.37-.26a32.36 32.36 0 0 1-3.58.29l19.27 11.19a32.38 32.38 0 0 0 3.58-.29l-19.27-11.19zm6.78-1.56q-1.95.63-3.83 1l19.27 11.19q1.88-.41 3.83-1l-19.27-11.19zm8.07-3.42q-2 1.07-4.05 1.92l19.27 11.19q2-.85 4.05-1.92l-19.27-11.19zm-13.88-8.07q-2 1.07-4.05 1.92l10.8 6.27q2-.85 4.05-1.92l-10.8-6.27zm-14.38 9.21a28.27 28.27 0 0 0-3.68.24l4 2.3a28.26 28.26 0 0 1 3.68-.24l-4-2.3zm6.37-.25a32.36 32.36 0 0 1-3.58.29l4 2.3a32.36 32.36 0 0 0 3.58-.29l-4-2.3zm6.78-1.56q-1.95.63-3.83 1l4 2.3q1.88-.41 3.83-1l-4-2.3z"/><path d="M91.37 149.11q-1.94 1.58-3.84 3.35L121.19 172q1.9-1.77 3.84-3.35l-33.66-19.54zm37.06 21.52q-1.94 1.58-3.84 3.35l12.88 7.49q1.9-1.77 3.84-3.35l-12.88-7.49zm13.95-1.02q-2 1.22-3.94 2.65l6 3.47q2-1.42 3.94-2.65l-6-3.47zm7.07-3.7q-2 .84-3.93 1.89l6 3.47q2-1.05 3.93-1.89l-6-3.47z" opacity=".4"/><path d="M156.41 163.62a37.81 37.81 0 0 0-3.85 1.09l6 3.47a37.81 37.81 0 0 1 3.85-1.09l-6-3.47zm6.68-.78a28.26 28.26 0 0 0-3.68.24l6 3.47a28.26 28.26 0 0 1 3.68-.24l-6-3.47zm6.38-.25a32.38 32.38 0 0 1-3.58.29l6 3.47a32.38 32.38 0 0 0 3.58-.29l-6-3.47zm6.78-1.59q-1.95.63-3.83 1l6 3.47q1.88-.41 3.83-1l-6-3.47zm8.07-3.39q-2 1.07-4.05 1.92l6 3.47q2-.85 4.05-1.92l-6-3.47zm-6.01-13.41q-2 1.44-4.06 2.72l20.23 11.76q2.05-1.28 4.06-2.72l-20.23-11.76zM141.76 123q-2 1.44-4.06 2.72l33.15 19.26q2.05-1.28 4.06-2.72L141.76 123z"/><path d="M79.06 173.72q-1.88 1.76-3.82 3.38L94 188q1.94-1.62 3.82-3.38l-18.76-10.9zm21.87 12.7q-1.88 1.76-3.82 3.38l8.66 5q1.94-1.62 3.82-3.38l-8.66-5zm20.58 11.96a78.14 78.14 0 0 1-14.2 10.68l-8.66-5a78.14 78.14 0 0 0 14.2-10.68l8.66 5zm-18.88-1.08a71.57 71.57 0 0 1-7.25 4.82L64.86 184.4a71.57 71.57 0 0 0 7.25-4.82l30.52 17.73z" opacity=".2"/><path d="M155.88 110.16a93.48 93.48 0 0 1-10.09 9.7l41.93 24.36a93.48 93.48 0 0 0 10.09-9.7l-41.93-24.36zm46.05 26.75a93.48 93.48 0 0 1-10.09 9.7l10.73 6.23a93.49 93.49 0 0 0 10.09-9.7l-10.73-6.23z"/></g><path d="M169.21 96.4A85.45 85.45 0 0 0 158.6 107l11.22 6.52a85.45 85.45 0 0 1 10.61-10.61l-11.22-6.51zm7.02-5.15q-2 1.25-3.93 2.71l11.22 6.52q2-1.45 3.93-2.71l-11.22-6.52zm14.34 8.33q-2 1.25-3.93 2.71l18.73 10.88q2-1.45 3.93-2.71l-18.73-10.88zm21.86 12.69q-2 1.25-3.93 2.71l8.66 5q2-1.45 3.93-2.71l-8.66-5zm11.93 6.94A78.91 78.91 0 0 0 206.73 135l8.66 5A78.91 78.91 0 0 1 233 124.24l-8.66-5zm-40.82-14.48a85.45 85.45 0 0 0-10.61 10.61l30.52 17.73a85.45 85.45 0 0 1 10.61-10.61l-30.52-17.73zm-58.1 26.78q-1.95.63-3.83 1l4 2.3q1.88-.41 3.83-1l-4-2.3zM162 152.74q-1.95.63-3.83 1l4 2.3q1.88-.41 3.83-1l-4-2.3zm7.34 4.26q-1.95.63-3.83 1l4 2.3q1.88-.41 3.83-1l-4-2.3zm.72-7.68q-2 1.07-4.05 1.92l4 2.3q2-.85 4.05-1.92l-4-2.3zm7.35 4.27q-2 1.07-4.05 1.92l4 2.3q2-.85 4.05-1.92l-4-2.3zm-38.09-14.01q-1.95.63-3.83 1l19.27 11.19q1.88-.41 3.83-1l-19.27-11.19zm8.07-3.42q-2 1.07-4.05 1.92l19.27 11.19q2-.85 4.05-1.92l-19.27-11.19zm-13.88-8.07q-2 1.07-4.05 1.92l10.8 6.27q2-.85 4.05-1.92l-10.8-6.27zm-1.23 7.4q-1.95.63-3.83 1l4 2.3q1.88-.41 3.83-1l-4-2.3zM176.25 161q-1.95.63-3.83 1l6 3.47q1.88-.41 3.83-1l-6-3.47zm8.07-3.39q-2 1.07-4.05 1.92l6 3.47q2-.85 4.05-1.92l-6-3.47zm-6.01-13.41q-2 1.44-4.06 2.72l20.23 11.76q2.05-1.28 4.06-2.72l-20.23-11.76zM141.76 123q-2 1.44-4.06 2.72l33.15 19.26q2.05-1.28 4.06-2.72L141.76 123zm14.12-12.84a93.48 93.48 0 0 1-10.09 9.7l41.93 24.36a93.48 93.48 0 0 0 10.09-9.7l-41.93-24.36zm46.05 26.75a93.48 93.48 0 0 1-10.09 9.7l10.73 6.23a93.49 93.49 0 0 0 10.09-9.7l-10.73-6.23z" opacity=".2" fill="#73b8e7"/><circle cx="150.92" cy="135.84" r="73.21" style="mix-blend-mode:lighten" opacity=".2" fill="url(#f)"/><path style="mix-blend-mode:lighten" opacity=".2" fill="url(#g)" d="M0 0h400v225H0z"/><rect x="156.27" y="55.71" width="85.69" height="151.36" rx="16.25" ry="16.25" fill="#acdced"/><rect x="157.99" y="57.43" width="82.25" height="147.91" rx="14.56" ry="14.56" fill="url(#h)"/><path d="M176.82 108.24H158v30.37h18.82a3.37 3.37 0 0 0 3.37-3.37v-23.63a3.37 3.37 0 0 0-3.37-3.37z" style="mix-blend-mode:lighten" opacity=".2" fill="url(#a)"/><path d="M240.24 166.18V67a9.56 9.56 0 0 0-9.56-9.56h-63.12A9.56 9.56 0 0 0 158 67v2.85c23.89 39.34 51.95 68.73 82.24 96.33z" fill="#443f92" opacity=".2"/><path fill="url(#i)" d="M56.18 207.07h285.87v.98H56.18z"/><path d="M177.07 154.48H158v23.39h19.08a2.57 2.57 0 0 0 2.57-2.57v-18.25a2.57 2.57 0 0 0-2.58-2.57z" style="mix-blend-mode:lighten" opacity=".2" fill="url(#j)"/><circle cx="165.89" cy="161.03" r="61.54" style="mix-blend-mode:lighten" opacity=".2" fill="url(#k)"/><path d="M131.85 101h35.5a5.13 5.13 0 0 1 5.13 5.13v20.12a5.13 5.13 0 0 1-5.12 5.13h-35.5a5.12 5.12 0 0 1-5.12-5.12v-20.11a5.12 5.12 0 0 1 5.11-5.15z" fill="#acdced"/><path d="M169.1 101h-39a3.37 3.37 0 0 0-3.37 3.37v3.28h45.75v-3.28a3.37 3.37 0 0 0-3.38-3.37z" fill="url(#b)"/><path d="M141.43 105h-9.18a.55.55 0 0 1-.55-.55.55.55 0 0 1 .55-.55h9.18a.55.55 0 0 1 .55.55.55.55 0 0 1-.55.55zm7.05 0h-3.68a.55.55 0 0 1-.55-.55.55.55 0 0 1 .55-.55h3.69a.55.55 0 0 1 .55.55.55.55 0 0 1-.56.55zm7.24 0H152a.55.55 0 0 1-.55-.55.55.55 0 0 1 .55-.55h3.69a.55.55 0 0 1 .55.55.55.55 0 0 1-.52.55z" fill="#42368d"/><rect x="257.69" y="144.09" width="16.74" height="16.74" rx="2" ry="2" fill="url(#l)"/><path d="M270.92 159h-9.71a1.69 1.69 0 0 1-1.68-1.68v-9.71a1.69 1.69 0 0 1 1.68-1.69h9.71a1.69 1.69 0 0 1 1.69 1.69v9.71a1.69 1.69 0 0 1-1.69 1.68zm-9.71-12.75a1.36 1.36 0 0 0-1.36 1.36v9.71a1.36 1.36 0 0 0 1.36 1.36h9.71a1.36 1.36 0 0 0 1.36-1.36v-9.71a1.36 1.36 0 0 0-1.36-1.36z" fill="#acdced" opacity=".6"/><path d="M205.21 61.92H193a.68.68 0 0 1-.68-.68.68.68 0 0 1 .68-.68h12.18a.68.68 0 0 1 .68.68.68.68 0 0 1-.65.68z" fill="#325"/><circle cx="274.52" cy="92.36" r="38.66" style="mix-blend-mode:lighten" opacity=".2" fill="url(#c)"/><path d="M240.24 86.74h-36.4a2.57 2.57 0 0 0-2.57 2.57v18.25a2.57 2.57 0 0 0 2.57 2.57h36.4z" style="mix-blend-mode:lighten" opacity=".2" fill="url(#m)"/><circle cx="277.1" cy="96.71" r="2.66" fill="#b065a6"/><rect x="207.93" y="80.66" width="69.17" height="23.39" rx="3.92" ry="3.92" fill="url(#d)"/><circle cx="109.63" cy="161.03" r="61.54" style="mix-blend-mode:lighten" opacity=".2" fill="url(#n)"/><circle cx="103.04" cy="164.37" r="2.84" fill="#b66caa"/><rect x="104.36" y="149.33" width="69.17" height="23.39" rx="3.92" ry="3.92" transform="rotate(180 138.94 161.025)" fill="url(#o)"/><path style="mix-blend-mode:lighten" opacity=".2" fill="url(#p)" d="M130.17 186.43H88.39v16.14h40.25l.32-3.9-4.41-3.62 3.03-2.88 2.14-3.77.45-1.97z"/><path d="M138.93 193.78l-.2-1.15a.51.51 0 0 0-.45-.42l-1.68-.21a6.38 6.38 0 0 0-.69-1.19l.69-1.55a.51.51 0 0 0-.14-.59l-.89-.75a.51.51 0 0 0-.61 0l-1.4 1a6.35 6.35 0 0 0-1.29-.47l-.46-1.63a.51.51 0 0 0-.49-.37h-1.16a.51.51 0 0 0-.49.37l-.46 1.63a6.34 6.34 0 0 0-1.29.47l-1.4-1a.51.51 0 0 0-.61 0l-.89.75a.51.51 0 0 0-.14.59l.69 1.55a6.38 6.38 0 0 0-.69 1.19l-1.68.17a.51.51 0 0 0-.45.42l-.2 1.15a.51.51 0 0 0 .28.54l1.53.74a6.37 6.37 0 0 0 .23 1.35l-1.18 1.21a.51.51 0 0 0-.08.61l.58 1a.51.51 0 0 0 .56.24l1.64-.41a6.42 6.42 0 0 0 1 .89l-.12 1.68a.51.51 0 0 0 .33.51l1.09.4a.51.51 0 0 0 .58-.18l1-1.37a6.22 6.22 0 0 0 1.38 0l1 1.37a.51.51 0 0 0 .58.18l1.09-.4a.51.51 0 0 0 .33-.51l-.12-1.68a6.43 6.43 0 0 0 1-.89l1.64.41a.51.51 0 0 0 .56-.24l.58-1a.51.51 0 0 0-.08-.61l-1.18-1.21a6.38 6.38 0 0 0 .23-1.35l1.53-.74a.51.51 0 0 0 .4-.5zm-11 .85a2.83 2.83 0 1 1 2.83 2.83 2.83 2.83 0 0 1-2.84-2.83z" fill="url(#q)"/><path style="mix-blend-mode:lighten" opacity=".2" fill="url(#r)" d="M268.02 179.1H327v26.25h-57.39l1.5-5.09 3.36-3.78 1.64-5-2.13-4.27-5.58-4.27-.38-3.84z"/><circle cx="280.63" cy="90.14" r="1.52" fill="#b66caa"/><circle cx="287.02" cy="87.55" r="1.07" fill="#b66caa"/><circle cx="291.6" cy="97.09" r=".76" fill="#b66caa"/><circle cx="299.34" cy="93.67" r=".44" fill="#b66caa"/><circle cx="100.4" cy="155.44" r="1.35" fill="#b66caa"/><circle cx="97.13" cy="161.03" r=".76" fill="#b66caa"/><circle cx="93.62" cy="157.55" r=".48" fill="#b66caa"/><circle cx="92.37" cy="165.02" r=".3" fill="#b66caa"/><circle cx="85.95" cy="159.66" r=".3" fill="#b66caa"/><rect x="209.46" y="82.13" width="20.47" height="20.47" rx="1.72" ry="1.72" opacity=".15" fill="url(#s)"/><rect x="151.61" y="150.79" width="20.47" height="20.47" rx="1.72" ry="1.72" opacity=".15" fill="url(#t)"/><path d="M133.86 156.24h-8.59a.55.55 0 0 1-.55-.55.55.55 0 0 1 .55-.55h8.59a.55.55 0 0 1 .55.55.55.55 0 0 1-.55.55zm6.6 0h-3.28a.55.55 0 0 1-.55-.55.55.55 0 0 1 .55-.55h3.28a.55.55 0 0 1 .55.55.55.55 0 0 1-.55.55zm6.36 0h-3.28a.55.55 0 0 1-.55-.55.55.55 0 0 1 .55-.55h3.28a.55.55 0 0 1 .55.55.55.55 0 0 1-.55.55zm0 2.24h-7.6a.55.55 0 0 1-.55-.55.55.55 0 0 1 .55-.55h7.6a.55.55 0 0 1 .55.55.55.55 0 0 1-.55.55zm-11 0h-17.23a.55.55 0 0 1-.55-.55.55.55 0 0 1 .55-.55h17.22a.55.55 0 0 1 .55.55.55.55 0 0 1-.54.55zM238.6 85.73h-3.28a.55.55 0 0 1-.55-.55.55.55 0 0 1 .55-.55h3.28a.55.55 0 0 1 .55.55.55.55 0 0 1-.55.55zm22.27 0H241.8a.55.55 0 0 1-.55-.55.55.55 0 0 1 .55-.55h19.07a.55.55 0 0 1 .55.55.55.55 0 0 1-.55.55zm-20.16 2.37h-5.39a.55.55 0 0 1-.55-.55.55.55 0 0 1 .55-.55h5.39a.55.55 0 0 1 .55.55.55.55 0 0 1-.55.55zm5.29 0h-2.27a.55.55 0 0 1-.55-.55.55.55 0 0 1 .55-.55H246a.55.55 0 0 1 .55.55.55.55 0 0 1-.55.55zm17.94 0h-15.13a.55.55 0 0 1-.55-.55.55.55 0 0 1 .55-.55h15.13a.55.55 0 0 1 .55.55.55.55 0 0 1-.55.55z" fill="#2d1b45" opacity=".5"/><g style="isolation:isolate" clip-path="url(#u)" opacity=".1"><path d="M207.38 173.52l-11.92 5.37a.38.38 0 0 0 .18-.19l11.92-5.37a.38.38 0 0 1-.18.19z" fill="#acdced"/><g style="isolation:isolate" fill="#acdced" clip-path="url(#v)"><path d="M195.64 178.7l11.92-5.37v.01l-11.92 5.37v-.01zm0 .01l11.92-5.37a.38.38 0 0 1-.18.18l-11.92 5.37a.38.38 0 0 0 .18-.18z"/></g><path d="M172.91 128.47l11.92-5.37a.37.37 0 0 1 .24 0l-11.92 5.37a.37.37 0 0 0-.24 0z" fill="#acdced"/><g style="isolation:isolate" fill="#acdced" clip-path="url(#w)"><path d="M172.91 128.47l11.92-5.37-11.92 5.37zm.04-.01l11.92-5.37h.06L173 128.45z"/><path d="M173 128.45l11.92-5.37h.08l-11.92 5.37z"/><path d="M173.06 128.45l11.94-5.38-11.92 5.37zm.05 0l11.89-5.37-11.92 5.37z"/></g><path fill="#acdced" d="M197.12 175.71l11.92-5.37-1.48 2.99-11.92 5.37 1.48-2.99zm-23.97-47.25l11.91-5.37 3.29.96-11.92 5.36-3.28-.95zm44.08 52.76l-11.92 5.37c.17-.07.27-.29.27-.63l11.92-5.37c0 .34-.1.55-.27.63z"/><g style="isolation:isolate" fill="#acdced" clip-path="url(#x)"><path d="M205.59 186l11.92-5.37-11.92 5.37zm0 0l11.92-5.37v.06L205.58 186z"/><path d="M205.58 186l11.92-5.37v.06l-11.92 5.37V186zm0 .09l11.92-5.37v.06l-11.92 5.37v-.06z"/><path d="M205.57 186.15l11.92-5.37v.06l-11.92 5.37v-.06z"/><path d="M205.56 186.21l11.92-5.37v.06l-11.92 5.37v-.06z"/><path d="M205.55 186.27l11.92-5.37v.06l-11.92 5.37v-.06z"/><path d="M205.53 186.33l11.92-5.33v.07l-11.95 5.33v-.07z"/><path d="M205.5 186.4l11.92-5.4a.38.38 0 0 1-.18.19l-11.92 5.37a.38.38 0 0 0 .18-.19z"/></g><path d="M173.8 116.14l11.92-5.37a.38.38 0 0 1 .24 0 1 1 0 0 1 .42.24l-11.92 5.37a1 1 0 0 0-.42-.24.38.38 0 0 0-.24 0z" fill="#acdced"/><g style="isolation:isolate" fill="#acdced" clip-path="url(#y)"><path d="M173.8 116.14l11.92-5.37-11.92 5.37zm.04-.02l11.92-5.37h.06l-11.92 5.37z"/><path d="M173.9 116.11l11.92-5.37h.05L174 116.11zm.1 0l11.92-5.37-11.92 5.37zm0 0l11.92-5.37-11.92 5.38zm0 .01l12-5.37-11.92 5.37zm.09.01l11.91-5.37-11.92 5.37zm.04.02l11.87-5.37-11.92 5.37zm.04.01l11.92-5.37-11.92 5.37zm.04.02l11.92-5.37-11.92 5.37zm.03.02l11.92-5.37-11.92 5.37zm.04.02l11.92-5.37-11.92 5.37zm.04.03l11.92-5.37-11.92 5.37zm.04.03l11.92-5.37-11.92 5.37zm.03.03l11.92-5.37-11.92 5.37zm.04.03l11.92-5.34-11.92 5.37z"/></g><path fill="#acdced" d="M205.61 181.17l-.02 4.79 11.91-5.37.02-4.79-11.91 5.37zm-31.15-64.81l11.92-5.37 3.58 3.2-11.92 5.37-3.58-3.2zm51.35 66.15l-11.92 5.37c.27-.12.35-.6.19-1.22l11.92-5.37c.16.62.08 1.1-.19 1.22z"/><g style="isolation:isolate" fill="#acdced" clip-path="url(#z)"><path d="M214.08 186.66l11.92-5.37-11.92 5.37zm.01.03l11.91-5.37-11.92 5.37zm.01.05l11.9-5.37v.05l-11.92 5.37v-.05z"/><path d="M214.11 186.79l11.89-5.37v.05l-11.92 5.37v-.05zm.01.06l11.88-5.37v.06l-11.92 5.37v-.06z"/><path d="M214.13 186.9l11.87-5.37v.06L214.14 187v-.06zm.01.1l11.92-5.37v.06L214.15 187z"/><path d="M214.15 187l11.92-5.37v.05l-11.92 5.37V187zm0 .07l11.92-5.37v.05l-11.92 5.37v-.05zm.01.05l11.92-5.37v.05l-11.92 5.37v-.05zm0 .06l11.92-5.37v.05l-11.92 5.37v-.05z"/><path d="M214.16 187.23l11.92-5.37v.05l-11.92 5.37v-.05z"/><path d="M214.16 187.28l11.92-5.37v.09l-11.92 5.37v-.05z"/><path d="M214.16 187.33l11.92-5.33-11.92 5.37v-.05z"/><path d="M214.16 187.39l11.91-5.39v.05l-11.92 5.37v-.05zm-.01.05l11.92-5.37v.06l-11.92 5.37v-.06z"/><path d="M214.14 187.5l11.92-5.37v.06l-11.92 5.37v-.06z"/><path d="M214.13 187.55l11.87-5.37v.06l-11.92 5.37v-.06zm-.02.07l11.89-5.37v.07l-11.92 5.37v-.07z"/><path d="M214.08 187.69l11.92-5.37a.39.39 0 0 1-.19.19l-11.92 5.37a.39.39 0 0 0 .19-.19z"/></g><path d="M178.64 109.05l11.92-5.37a.37.37 0 0 1 .24 0 1.56 1.56 0 0 1 .8.69l-11.92 5.37a1.56 1.56 0 0 0-.8-.69.37.37 0 0 0-.24 0z" fill="#acdced"/><g style="isolation:isolate" fill="#acdced" clip-path="url(#A)"><path d="M178.64 109.05l11.92-5.37-11.88 5.32z"/><path d="M178.68 109l11.92-5.37h.06L178.74 109z"/><path d="M178.74 109l11.92-5.37h.05L178.79 109z"/><path d="M178.79 109l11.92-5.37-11.87 5.37zm.05 0l11.92-5.37-11.88 5.37zm.04 0l11.92-5.37-11.88 5.37zm.04 0l11.92-5.37-11.84 5.43zm.08.06l11.92-5.37-11.92 5.39zm0 .02l11.92-5.37L179 109.1zm0 .02l12-5.37-11.92 5.37zm.08.02l11.92-5.37-11.92 5.37zm.04.02l11.88-5.37-11.92 5.37zm.03.03l11.92-5.37-11.92 5.37zm.04.02l11.92-5.37-11.92 5.37zm.04.03l11.92-5.37-11.92 5.37zm.04.04l11.92-5.37-11.92 5.37zm.04.03l11.92-5.37-11.92 5.37zm.04.04l11.91-5.33-11.92 5.37zm.04.04L191.3 104l-11.92 5.37zm.04.04l11.91-5.41-11.92 5.37zm.04.04l11.92-5.37-11.89 5.42zm.03.05l11.92-5.37-11.92 5.37zm.04.04l11.92-5.37-11.92 5.37zm.03.04l11.92-5.37-11.92 5.37zm.03.03l11.92-5.37-11.92 5.37zm.02.03l11.92-5.37-11.92 5.37zm.02.04l11.92-5.37-11.92 5.37zm.02.02l11.92-5.37-11.92 5.37z"/></g><path d="M213.77 162.38h-.06a10.65 10.65 0 0 1-1.1-.51l-.1-.06c-.38-.21-.75-.44-1.13-.7-.39-.26-.77-.56-1.16-.87l-.1-.08q-.55-.45-1.1-1l-.09-.09q-.58-.56-1.16-1.18c-.38-.41-.77-.85-1.14-1.31l-.09-.11q-.55-.67-1.1-1.4-.56-.75-1.1-1.55-.54-.81-1.06-1.67-.52-.85-1-1.75c-.24-.44-.47-.89-.7-1.34l-.44-.89c-.24-.5-.48-1-.71-1.52q-.43-1-.81-2-.39-1-.73-2-.34-1-.64-2.05-.23-.81-.43-1.6v-.1q-.18-.73-.32-1.44v-.17q-.14-.68-.24-1.34v-.18q-.1-.65-.17-1.28v-.18q-.06-.62-.1-1.22v-2.78q0-.49.09-1v-.17c0-.33.1-.65.16-1l.06-.26q.07-.33.16-.64l.11-.37c.05-.16.11-.3.16-.45s.15-.37.23-.54.11-.24.17-.36.17-.31.27-.45.13-.21.2-.31.21-.27.32-.39.14-.17.22-.25a4.58 4.58 0 0 1 .4-.35l.21-.17a4.19 4.19 0 0 1 .67-.39l-11.92 5.37a4.2 4.2 0 0 0-.68.39l-.21.17a4.59 4.59 0 0 0-.41.35c-.08.08-.15.17-.22.25s-.22.25-.32.4-.14.21-.2.31-.18.29-.27.45l-.08.13c0 .07-.06.15-.1.22s-.16.36-.23.54-.06.13-.08.2-.05.17-.08.25l-.11.37c0 .07 0 .14-.07.22s-.06.28-.1.42l-.06.26v.11q-.07.36-.12.75v.27c0 .15 0 .3-.05.45s0 .34 0 .51v2.96c0 .09 0 .47.06.71v.72c0 .1.06.49.1.73v.73q.06.37.13.74l.06.3v.17l.05.25q.07.35.15.7l.12.48v.19l.15.59.16.59.09.32.06.21.14.46.14.46.15.46.12.38v.09l.08.24.13.36.13.36.13.35.13.34.13.34.12.31.13.34.16.38.18.42.18.41v.11l.12.27.39.85.2.41.44.89.27.54.39.74v.07l.19.34.25.44.23.4.2.34.14.23v.08l.2.33.21.33.22.35.22.34.15.23.06.08.25.36.29.41.29.41.21.29.07.09.39.51.39.5.25.3.09.11.13.16.49.57.52.58.53.55.53.52.1.1.09.09.33.31.51.45.26.22.1.08.14.12.5.38.49.35.44.29.49.3.2.11.1.06.19.1.5.24.4.17h.11l.54.19.54.15 11.92-5.37a8.18 8.18 0 0 1-.78-.08zm4.35.14l-11.92 5.37a5 5 0 0 1-3.21.22l11.92-5.37a5 5 0 0 0 3.21-.22z" fill="#acdced"/><g style="isolation:isolate" fill="#acdced" clip-path="url(#B)"><path d="M203 168.11l11.92-5.37.58.11-11.92 5.37-.58-.11z"/><path d="M203.57 168.22l11.92-5.37a5.81 5.81 0 0 0 .62.05l-11.92 5.37a5.8 5.8 0 0 1-.62-.05zm.63.05l11.92-5.37a5 5 0 0 0 .68 0l-11.92 5.37a5 5 0 0 1-.68 0z"/><path d="M204.88 168.24l11.92-5.37a4.43 4.43 0 0 0 .83-.17l-11.92 5.37a4.43 4.43 0 0 1-.83.17zm.82-.16l11.92-5.37a4.17 4.17 0 0 0 .5-.19l-11.92 5.37a4.17 4.17 0 0 1-.5.19z"/></g><path fill="#acdced" d="M212.64 180.93l11.91-5.37 1.45 5.73-11.92 5.37-1.44-5.73zm-32.96-71.2l11.92-5.37 3.31 4.92-11.91 5.37-3.32-4.92zm34.67 69.93l11.92-5.37a7 7 0 0 1-1.71 1.26l-11.92 5.37a7 7 0 0 0 1.71-1.26z"/><g clip-path="url(#C)"><path d="M214.35 179.66l11.92-5.37a7 7 0 0 1-1.71 1.26l-11.92 5.37a7 7 0 0 0 1.71-1.26z" fill="#acdced"/></g><path d="M183 114.65l11.92-5.37a7.66 7.66 0 0 1 2.11-.36l-11.92 5.37a7.66 7.66 0 0 0-2.11.36z" fill="#acdced"/><g style="isolation:isolate" fill="#acdced" clip-path="url(#D)"><path d="M183 114.65l11.92-5.37.2-.06-11.92 5.37-.2.06z"/><path d="M183.2 114.59l11.92-5.37a7.29 7.29 0 0 1 1.34-.26l-11.92 5.37a7.3 7.3 0 0 0-1.34.26z"/><path d="M184.53 114.33l11.92-5.33h.57l-11.92 5.37h-.57z"/></g><path d="M230.65 178.87l-11.92 5.37a.36.36 0 0 0 .17-.16l11.92-5.37a.36.36 0 0 1-.17.16z" fill="#acdced"/><g clip-path="url(#E)"><path d="M218.9 184.08l11.92-5.37a.36.36 0 0 1-.17.16l-11.92 5.37a.36.36 0 0 0 .17-.16z" fill="#acdced"/></g><path d="M184.63 108l11.92-5.37a.38.38 0 0 1 .25 0L184.88 108a.38.38 0 0 0-.25 0z" fill="#acdced"/><g style="isolation:isolate" fill="#acdced" clip-path="url(#F)"><path d="M184.63 108l11.92-5.37-11.88 5.37zm.04 0l11.92-5.37h.06L184.73 108z"/><path d="M184.73 108l11.92-5.37h.05L184.79 108zm.06 0l11.92-5.37-11.88 5.37zm.04 0l11.92-5.37-11.87 5.37z"/></g><path fill="#acdced" d="M219.88 182.38l11.91-5.37-.98 1.7-11.91 5.37.98-1.7zm-35-74.39l11.91-5.37 1.94.45-11.92 5.37-1.93-.45zM217.01 175l11.92-5.37 2.65 5.68-11.91 5.37-2.66-5.68zm2.66 5.68l11.92-5.37a2.13 2.13 0 0 1 .21 1.69l-11.92 5.37a2.13 2.13 0 0 0-.21-1.69z"/><g style="isolation:isolate" fill="#acdced" clip-path="url(#G)"><path d="M219.67 180.68l11.92-5.37-11.92 5.37zm.01.02l11.92-5.37-11.92 5.37zm.02.04l11.92-5.37-11.92 5.37zm.01.05l11.92-5.37-11.92 5.37zm.02.03l11.92-5.37-11.92 5.37zm.01.02l11.92-5.37-11.92 5.37zm.01.03l11.92-5.37-11.92 5.37zm.01.03l11.92-5.37-11.92 5.37zm.01.02l11.92-5.37-11.91 5.45zm.01.08l11.92-5.37-11.91 5.37zm.01 0l11.92-5.37L219.8 181zm.01 0l11.92-5.37-11.91 5.37zm.01 0l11.92-5.37-11.92 5.37zm.01.06l11.92-5.37-11.92 5.37zm.01.02l11.92-5.37-11.92 5.37zm.01.03l11.92-5.37-11.92 5.37zm.01.03l11.92-5.37-11.92 5.37zm.01.04l11.92-5.37-11.92 5.37zm.01.03l11.92-5.37-11.92 5.37zm.01.04l11.92-5.37-11.92 5.37zm.01.04l11.92-5.37-11.92 5.37zm.01.05l11.92-5.34-11.92 5.37zm.02.05l11.91-5.39v.05l-11.92 5.37v-.05zm.01.05l11.92-5.37v.05l-11.92 5.37v-.05zm.01.06l11.92-5.37v.06l-11.92 5.37v-.06zm.01.06l11.92-5.37v.06L220 181.61v-.06z"/><path d="M220 181.61l11.92-5.37v.06L220 181.67v-.06z"/><path d="M220 181.67l11.92-5.37v.06L220 181.72v-.06z"/><path d="M220 181.72l11.92-5.37v.05L220 181.78v-.05zm0 .06l11.92-5.37v.05L220 181.83v-.05z"/><path d="M220 181.83l11.92-5.37v.05L220 181.88v-.05z"/><path d="M220 181.88l11.92-5.37v.05L220 181.94v-.05zm0 .06l11.92-5.37v.05L220 182v-.05zm0 .06l11.92-5.37v.05L220 182z"/><path d="M220 182l11.92-5.37v.05L220 182.1v-.1z"/><path d="M220 182.1l11.92-5.37v.06L220 182.15v-.06z"/><path d="M220 182.15l11.92-5.37v.06L220 182.21v-.06z"/><path d="M219.95 182.21l11.92-5.37v.06l-11.92 5.37v-.06z"/><path d="M219.93 182.27l11.92-5.37v.07l-11.92 5.37v-.07z"/><path d="M219.9 182.35l11.91-5.35-11.92 5.37z"/></g><path fill="#acdced" d="M187.94 109.73l11.92-5.37 2.47 5.78-11.92 5.37-2.47-5.78z"/><path d="M187.41 108.86a2.94 2.94 0 0 1 .28.39 3.8 3.8 0 0 1 .25.48l11.92-5.37-.09-.17v-.05h-.08l-11.92 5.37a.84.84 0 0 1 .29.14 1.78 1.78 0 0 1-.65-.79zm42.08 58.58q.07-.35.12-.7l-11.91 5.36c-.07.41-.15.79-.23 1.17 0 .18-.08.36-.12.53-.1.41-.21.81-.33 1.19l11.92-5.37q.15-.46.27-.94c0-.08 0-.17.06-.25s.08-.35.12-.53.07-.3.1-.46zM193 117l11.92-5.37-.26-.16-.66-.47-.23-.12-.27-.14-.35-.19-.8-.39-11.92 5.37c.38.18.76.37 1.15.58l.27.14c.38.2.78.44 1.15.75zm40.58 51.94l-11.92 5.37c.16-.07.26-.27.27-.58l11.92-5.37c-.01.31-.11.51-.27.58z" fill="#acdced"/><g style="isolation:isolate" fill="#acdced" clip-path="url(#H)"><path d="M221.93 173.73l11.92-5.37-11.92 5.37zm0 .04l11.92-5.37v.05l-11.92 5.37v-.05z"/><path d="M221.92 173.82l11.92-5.37v.05l-11.92 5.37v-.05z"/><path d="M221.92 173.87l11.92-5.37v.06l-11.92 5.37v-.06z"/><path d="M221.91 173.93l11.92-5.37v.06L221.89 174v-.06zm-.02.07l11.92-5.37v.06l-11.92 5.37V174z"/><path d="M221.88 174.05l11.92-5.37v.07l-11.92 5.37v-.07z"/><path d="M221.84 174.12l11.92-5.37a.39.39 0 0 1-.18.19l-11.92 5.37a.39.39 0 0 0 .18-.19z"/></g><path d="M194.05 112.6l11.95-5.38a.38.38 0 0 1 .24 0 .93.93 0 0 1 .38.21l-11.92 5.37a.93.93 0 0 0-.38-.21.38.38 0 0 0-.27.01z" fill="#acdced"/><g style="isolation:isolate" fill="#acdced" clip-path="url(#I)"><path d="M194.05 112.6l11.95-5.38-11.92 5.37z"/><path d="M194.09 112.58l11.91-5.37h.06l-11.92 5.37z"/><path d="M194.16 112.57l11.92-5.37h.05l-11.92 5.37zm.05 0l11.92-5.37-11.92 5.37zm.04 0l11.92-5.37-11.92 5.37zm.05.01l11.92-5.37-11.92 5.37zm.04.01l11.92-5.37-11.92 5.37zm.04.01l11.92-5.37-11.92 5.37zm.04.02l11.92-5.37-11.92 5.37zm.03.02l11.92-5.37-11.92 5.37zm.04.02l11.92-5.37-11.92 5.37zm.04.02l11.92-5.37-11.92 5.37zm.04.02l11.92-5.37-11.92 5.37zm.03.03l11.92-5.37-11.92 5.37zm.04.03l11.92-5.37-11.92 5.37z"/></g><path fill="#acdced" d="M222.03 170.91l11.92-5.37-.11 2.82-11.91 5.37.1-2.82zm-4.06-6.51l11.92-5.37 3.41 4.66-11.92 5.37-3.41-4.66zm-23.29-51.61l11.91-5.37 2.18 1.83-11.92 5.37-2.17-1.83z"/><path d="M218 164.4l11.89-5.4q0-.5-.08-1c0-.24-.05-.49-.08-.74v-.41q-.08-.67-.18-1.36l-.06-.42-11.92 5.37q.15 1 .26 1.94v.25c.04.58.1 1.18.17 1.77zm3.38 4.66l11.92-5.37a3.32 3.32 0 0 1 .65 1.85L222 170.91a3.32 3.32 0 0 0-.62-1.85z" fill="#acdced"/><g style="isolation:isolate" fill="#acdced" clip-path="url(#J)"><path d="M221.38 169.06l11.92-5.37.01.01-11.92 5.37-.01-.01zm.01.01l11.92-5.37-11.92 5.37zm.02.03l11.92-5.37-11.92 5.37zm.02.03l11.92-5.37-11.92 5.37zm.02.03l11.92-5.37-11.92 5.37zm.02.02l11.92-5.37-11.92 5.37zm.01.03l11.92-5.37-11.92 5.37zm.02.03l11.92-5.37-11.92 5.37zm.02.02l11.92-5.37-11.92 5.37zm.01.02l11.92-5.37-11.92 5.37zm.02.03l11.92-5.37-11.92 5.37zm.01.03l11.92-5.34-11.92 5.37zm.02.03l11.91-5.37-11.92 5.37zm.01.02l11.92-5.39-11.92 5.37zm.03.04l11.92-5.37-11.92 5.37zm.02.05l11.92-5.37.08.16-11.92 5.37-.08-.16z"/><path d="M221.72 169.64l11.92-5.37v.06l-11.92 5.37v-.06zm.03.06l11.92-5.37-11.92 5.37zm.01.03l11.92-5.37-11.92 5.37zm.01.03l11.92-5.37-11.92 5.37zm.02.03l11.92-5.37-11.92 5.37zm.01.03l11.92-5.37-11.92 5.37zm.01.02l11.92-5.37-11.92 5.37zm.01.03l11.92-5.37-11.92 5.37zm.01.03l11.92-5.37-11.92 5.37zm.01.02l11.92-5.37-11.92 5.37zm.01.03l11.92-5.37-11.91 5.42zm.01.05l11.92-5.37-11.91 5.37zm.01 0l11.92-5.37-11.91 5.37zm.01 0l11.92-5.37-11.92 5.37zm.01.06l11.92-5.37-11.92 5.37zm.01.03l11.92-5.37-11.92 5.37zm.01.04l11.92-5.37-11.92 5.37zm.01.03l11.92-5.37-11.92 5.37zm.01.04l11.92-5.37-11.92 5.37zm.01.05l11.92-5.37-11.86 5.41zm.06.04l11.92-5.37v.08L222 170.35v-.05z"/><path d="M222 170.35l11.88-5.35-11.88 5.4v-.05z"/><path d="M222 170.4l11.89-5.4v.06L222 170.45v-.06zm0 .05l11.92-5.37v.06L222 170.51v-.06z"/><path d="M222 170.51l11.92-5.37v.06L222 170.57v-.06z"/><path d="M222 170.57l11.92-5.37v.06L222 170.62v-.06z"/><path d="M222 170.62l11.92-5.37v.06L222 170.68v-.06z"/><path d="M222 170.68l11.92-5.37v.05L222 170.73v-.05z"/><path d="M222 170.73l11.92-5.37v.05L222 170.79v-.05zm0 .06l11.92-5.37v.05L222 170.84v-.05z"/><path d="M222 170.84l11.92-5.37v.05L222 170.9v-.05zm0 .06l11.92-5.37-11.92 5.38z"/></g><path d="M201.7 125l11.92-5.37-.32-.39-.7-.82-.21-.24-.28-.31-.38-.43-.8-.84L199 122c.4.41.79.84 1.18 1.27l.28.31c.42.42.83.92 1.24 1.42zm-3.89-8.65l11.91-5.37 1.19 5.62-11.91 5.37-1.19-5.62z" fill="#acdced"/><path d="M196.85 114.62l11.92-5.37a3.34 3.34 0 0 1 1 1.73l-11.92 5.37a3.34 3.34 0 0 0-1-1.73z" fill="#acdced"/><g style="isolation:isolate" fill="#acdced" clip-path="url(#K)"><path d="M196.85 114.62l11.92-5.37.01.01-11.92 5.37-.01-.01zm.01.01l11.92-5.37-11.92 5.37zm.04.03l11.92-5.37-11.92 5.37zm.04.04l11.92-5.37-11.86 5.41zm.06.04l11.92-5.37-11.92 5.41zm0 .04l11.92-5.37-11.92 5.37zm.06.04l11.94-5.37-11.92 5.37zm.04.05l11.9-5.37-11.92 5.37zm.03.04l11.87-5.37-11.92 5.37zm.03.04l11.92-5.37-11.89 5.42zm.03.05l11.92-5.37-11.89 5.37zm.03 0l11.92-5.37-11.9 5.37zm.02 0l11.92-5.37-11.92 5.37zm.02.08l11.92-5.37-11.92 5.37zm.02.03l11.92-5.37-11.92 5.37zm.01.02l11.92-5.37-11.92 5.37zm.02.03l11.92-5.37-11.92 5.37zm.02.02l11.92-5.37-11.92 5.37zm.01.03l11.92-5.37-11.92 5.37zm.02.02l11.92-5.37-11.92 5.37zm.01.03l11.92-5.37-11.92 5.37zm.02.03l11.92-5.37-11.92 5.37zm.02.03l11.92-5.37-11.92 5.37zm.01.03l11.92-5.35-11.92 5.37zm.02.03l11.92-5.38v.05l-11.92 5.37v-.05zm.03.05l11.92-5.37.08.16-11.92 5.37-.08-.16z"/><path d="M197.55 115.59l11.92-5.37v.06l-11.92 5.37v-.06zm.03.06l11.92-5.37-11.92 5.37zm.01.03l11.92-5.37-11.92 5.37zm.02.03l11.92-5.37-11.92 5.37zm.01.04l11.92-5.37-11.92 5.37zm.01.02l11.92-5.37-11.92 5.37zm.01.03l11.92-5.37-11.92 5.37zm.01.02l11.92-5.37-11.92 5.37zm.01.03l11.92-5.37-11.92 5.37zm.01.03l11.92-5.37-11.92 5.37zm.01.02l11.92-5.37-11.92 5.37zm.01.03l11.92-5.37L197.7 116zm.01.07l11.92-5.37-11.91 5.37zm.01 0l11.92-5.37-11.91 5.37zm.01 0l11.92-5.37-11.91 5.37zm.01 0l11.92-5.37-11.92 5.37zm.01.08l11.92-5.37-11.92 5.37zm.01.04l11.92-5.37-11.92 5.37zm.01.04l11.92-5.37-11.92 5.37zm.01.04l11.92-5.37-11.92 5.37zm.02.05l11.92-5.37v.05l-11.91 5.37v-.05zm.01.05l11.92-5.37v.07l-11.92 5.37v-.05z"/></g><path d="M227 144.95l-.24-.75-.23-.69-.22-.63-.21-.59-.2-.55-.2-.54-11.92 5.37c.54 1.45 1 2.92 1.49 4.41l11.92-5.37zM209.58 137l11.92-5.37-.78-1.44-.29-.53-.08-.15-.09-.16-.34-.6-.27-.47-.25-.42-.19-.32-11.92 5.37c.39.64.77 1.3 1.14 2l.08.15q.54.94 1.07 1.94zm22.82 17.74l-11.92 5.37c.26-.12.34-.56.2-1.16l11.92-5.37c.15.6.06 1.04-.2 1.16z" fill="#acdced"/><g style="isolation:isolate" fill="#acdced" clip-path="url(#L)"><path d="M220.69 158.94l11.92-5.37-11.92 5.38v-.01z"/><path d="M220.69 158.95l11.92-5.37v.06L220.7 159v-.06z"/><path d="M220.7 159l11.92-5.37v.06l-11.92 5.37V159zm.02.06l11.92-5.37v.06l-11.92 5.37v-.06z"/><path d="M220.73 159.11l11.92-5.37v.06l-11.92 5.37v-.06z"/><path d="M220.73 159.17l11.92-5.37v.06l-11.92 5.37v-.06zm.01.06l11.92-5.37v.06l-11.92 5.37v-.06z"/><path d="M220.75 159.28l11.92-5.37v.09l-11.92 5.37v-.05z"/><path d="M220.75 159.34l11.92-5.34-11.92 5.37v-.05z"/><path d="M220.76 159.39l11.91-5.39v.05l-11.92 5.37v-.05zm0 .06l11.92-5.37v.05l-11.92 5.37v-.05z"/><path d="M220.76 159.5l11.92-5.37v.05l-11.92 5.37v-.05z"/><path d="M220.75 159.55l11.92-5.37v.05l-11.92 5.37v-.05zm0 .06l11.92-5.37v.06l-11.92 5.37v-.06z"/><path d="M220.74 159.66l11.92-5.37v.06l-11.92 5.37v-.06z"/><path d="M220.73 159.72l11.92-5.37v.06l-11.92 5.37v-.06z"/><path d="M220.72 159.78l11.92-5.37v.06l-11.92 5.37v-.06z"/><path d="M220.7 159.84l11.92-5.37v.07l-11.92 5.37v-.07z"/><path d="M220.67 159.92l11.92-5.37a.39.39 0 0 1-.18.19l-11.92 5.37a.39.39 0 0 0 .18-.19z"/></g><path d="M203.91 123.05l11.92-5.37a.38.38 0 0 1 .24 0 1.52 1.52 0 0 1 .77.65l-11.92 5.37a1.52 1.52 0 0 0-.77-.65.38.38 0 0 0-.24 0z" fill="#acdced"/><g style="isolation:isolate" fill="#acdced" clip-path="url(#M)"><path d="M203.91 123.05l11.92-5.37L204 123z"/><path d="M204 123l11.92-5.37h.06L204 123z"/><path d="M204 123l11.92-5.37h.08L204.07 123zm.07 0l11.93-5.35-11.89 5.35zm.04 0l11.89-5.34-11.84 5.34zm.05 0l11.92-5.37L204.2 123zm.04 0l11.92-5.37L204.2 123zm.04.06l11.92-5.37-11.92 5.37zm.04.02l11.92-5.37-11.92 5.37zm.03.02l11.92-5.37-11.92 5.37zm.04.02l11.92-5.37-11.92 5.37zm.04.02l11.92-5.37-11.92 5.37zm.04.02l11.92-5.37-11.92 5.37zm.03.03l11.92-5.37-11.92 5.37zm.04.03l11.92-5.37-11.92 5.37zm.04.03l11.92-5.37-11.92 5.37zm.04.04l11.92-5.37-11.92 5.37zm.04.03l11.92-5.32-11.92 5.37zm.04.04l11.92-5.36-11.92 5.37zm.04.05l11.92-5.41-11.92 5.37zm.04.04l11.92-5.37-11.92 5.37zm.04.05l11.92-5.37-11.92 5.37zm.04.04l11.92-5.37-11.92 5.37zm.03.04l11.92-5.37-11.92 5.37zm.02.03l11.92-5.37-11.92 5.37zm.03.04l11.92-5.37-11.92 5.37zm.02.03l11.92-5.37-11.91 5.38-.01-.01z"/></g><path fill="#acdced" d="M215.33 150.96l11.91-5.37 3.59 2.84-11.92 5.37-3.58-2.84zm-7.75-22.52l11.92-5.37-.3 4.5-11.92 5.37.3-4.5zm12.31 27.06l11.92-5.37.8 3.44-11.92 5.37-.8-3.44zm-14.96-31.81l11.91-5.38 2.05 2.91-11.92 5.37-2.04-2.9z"/><path d="M218.91 153.8l11.92-5.37a3.24 3.24 0 0 1 1 1.7l-11.92 5.37a3.24 3.24 0 0 0-1-1.7z" fill="#acdced"/><g style="isolation:isolate" fill="#acdced" clip-path="url(#N)"><path d="M218.91 153.8l11.92-5.37.01.01-11.92 5.37-.01-.01z"/><path d="M218.92 153.81l11.92-5.37-11.84 5.4zm.08.03l11.92-5.37-11.92 5.4zm0 .03l11.92-5.37-11.92 5.41zm0 .04l12-5.37-11.92 5.46zm.08.09l11.92-5.42-11.88 5.42zm.04 0l11.88-5.38-11.84 5.38zm.04 0l11.92-5.37-11.92 5.37zm.04.08l11.92-5.37-11.92 5.37zm.03.04l11.92-5.37-11.92 5.37zm.03.04l11.92-5.37-11.92 5.37zm.03.04l11.92-5.37-11.92 5.37zm.02.03l11.92-5.37-11.92 5.37zm.03.03l11.92-5.37-11.92 5.37zm.02.03l11.92-5.37-11.92 5.37zm.02.03l11.92-5.37-11.92 5.37zm.01.02l11.92-5.34-11.92 5.37zm.02.03l11.92-5.37-11.92 5.37zm.02.02l11.91-5.39-11.92 5.37z"/><path d="M219.44 154.42l11.92-5.42-11.92 5.37zm.02.02l11.92-5.37-11.92 5.37zm.01.03l11.92-5.37-11.92 5.37zm.02.03l11.92-5.37-11.92 5.37zm.01.02l11.92-5.37-11.92 5.37zm.02.04l11.92-5.37-11.92 5.37zm.02.03l11.92-5.37v.05l-11.92 5.37v-.05zm.03.05l11.92-5.37.08.17-11.92 5.37-.08-.17zm.08.17l11.92-5.37-11.92 5.37zm.02.04l11.92-5.37-11.92 5.37zm.02.04l11.92-5.37-11.92 5.37zm.01.03l11.92-5.37-11.92 5.37zm.01.03l11.92-5.37-11.91 5.42zm.01.05l11.92-5.37-11.9 5.37zm.02 0l11.92-5.37-11.91 5.37zm.01 0l11.92-5.37-11.92 5.37zm.01.05l11.92-5.37-11.92 5.37zm0 .03l11.92-5.37-11.92 5.37zm.01.02l11.92-5.37-11.92 5.37zm.01.03l11.92-5.37-11.92 5.37zm.01.03l11.92-5.37-11.92 5.37zm.01.03l11.92-5.37-11.92 5.37zm.01.03l11.92-5.37-11.92 5.37zm.01.03l11.92-5.37-11.92 5.37zm.01.03l11.92-5.37-11.92 5.37zm.02.04l11.91-5.32-11.92 5.37z"/><path d="M219.86 155.36l11.91-5.36-11.92 5.37zm.01.04l11.91-5.4v.05l-11.92 5.37v-.05zm.01.05l11.92-5.37-11.92 5.37z"/></g><path d="M207 126.59l11.92-5.37a3.28 3.28 0 0 1 .61 1.85l-11.92 5.37a3.28 3.28 0 0 0-.61-1.85z" fill="#acdced"/><g style="isolation:isolate" fill="#acdced" clip-path="url(#O)"><path d="M206.97 126.59l11.92-5.37v.01l-11.92 5.37v-.01zm.03.01l11.92-5.37-11.92 5.39zm0 .02l11.92-5.37-11.92 5.4zm0 .03l11.92-5.37-11.92 5.4zm0 .03l11.92-5.37L207 126.7zm0 .02l12-5.37-11.92 5.37zm.06.03l11.94-5.37-11.92 5.37zm.02.02l11.92-5.37-11.92 5.37zm.01.03l11.91-5.37-11.92 5.37zm.02.03l11.89-5.37-11.92 5.37zm.02.03l11.87-5.37-11.92 5.37zm.01.03l11.92-5.37-11.92 5.37zm.03.04l11.92-5.37-11.92 5.37zm.02.04l11.92-5.37.09.17-11.92 5.37-.09-.17zm.08.17l11.92-5.37-11.92 5.37zm.03.05l11.92-5.37-11.92 5.37zm.01.04l11.92-5.37-11.92 5.37zm.02.03l11.92-5.37-11.92 5.37zm.01.03l11.92-5.37-11.92 5.37zm.01.03l11.92-5.37-11.92 5.37zm.01.03l11.92-5.33-11.92 5.37z"/><path d="M207.37 127.35l11.92-5.35-11.92 5.37zm.01.03L219.3 122l-11.92 5.37z"/><path d="M207.39 127.41l11.92-5.41-11.92 5.37zm.01.02l11.92-5.37-11.92 5.37zm.01.03l11.92-5.37-11.92 5.37zm.01.03l11.92-5.37-11.92 5.37zm.01.02l11.92-5.37-11.92 5.37zm.01.04l11.92-5.37-11.92 5.37zm.01.03l11.92-5.37-11.92 5.37zm.01.03l11.92-5.37-11.92 5.37zm.01.04l11.92-5.37-11.92 5.37zm.01.04l11.92-5.37-11.92 5.37zm.02.04l11.92-5.37-11.92 5.37zm.01.05l11.92-5.37-11.92 5.37zm.01.05l11.92-5.37v.05l-11.92 5.37v-.05zm.01.05l11.92-5.37v.06l-11.92 5.37v-.06zm.01.06l11.92-5.37v.06L207.55 128v-.06zm.01.06l11.92-5.37v.06l-11.92 5.37V128z"/><path d="M207.56 128.05l11.92-5.37v.06l-11.92 5.37v-.06zm.01.06l11.92-5.37v.05l-11.92 5.37v-.05zm.01.05l11.92-5.37v.05l-11.92 5.37v-.05zm0 .06l11.92-5.37v.05l-11.92 5.37v-.05zm0 .05l11.92-5.37v.1l-11.92 5.37v-.05z"/><path d="M207.58 128.32L219.5 123v.05l-11.92 5.37v-.05z"/><path d="M207.58 128.38L219.5 123v.05l-11.92 5.37v-.05zm0 .05l11.92-5.37-11.92 5.37z"/></g><path fill="#acdced" d="M215.57 143.94l11.91-5.37-1.73 2.61-11.91 5.37 1.73-2.61zm-5.99-6.91l11.92-5.37 3.12.51-11.91 5.37-3.13-.51zm5.82 5.23l11.92-5.37a2.06 2.06 0 0 1 .17 1.67l-11.92 5.37a2.06 2.06 0 0 0-.17-1.67z"/><g style="isolation:isolate" fill="#acdced" clip-path="url(#P)"><path d="M215.4 142.26l11.92-5.37-11.92 5.37zm.01.02l11.92-5.37-11.92 5.37zm.01.03l11.92-5.37-11.92 5.37zm.01.04l11.92-5.35-11.92 5.37zm.02.02l11.91-5.37-11.92 5.37zm.01.03l11.91-5.4-11.92 5.37zm.01.03l11.92-5.37-11.92 5.37zm.01.02l11.92-5.37-11.92 5.37zm.01.03l11.92-5.37-11.92 5.37zm.01.03l11.92-5.37-11.92 5.37zm.01.02l11.92-5.37-11.92 5.37zm.01.03l11.92-5.37-11.92 5.37zm.01.03l11.92-5.37-11.92 5.37zm.01.03l11.92-5.37-11.92 5.37zm.01.03l11.92-5.37-11.92 5.37zm.01.04l11.92-5.37-11.92 5.37zm.01.04l11.92-5.37-11.92 5.37zm.01.03l11.92-5.37-11.92 5.37zm.01.05l11.92-5.37-11.92 5.37zm.01.05l11.92-5.37v.05l-11.92 5.37v-.05zm.02.05l11.92-5.37v.05L215.63 143v-.05zm.01.09l11.92-5.37v.06L215.64 143z"/><path d="M215.64 143l11.92-5.37v.06l-11.92 5.37V143zm.01.08l11.92-5.37v.06l-11.92 5.37v-.06zm.01.06l11.92-5.37v.06l-11.92 5.37v-.06z"/><path d="M215.67 143.19l11.92-5.37v.06l-11.92 5.37v-.06z"/><path d="M215.67 143.25l11.92-5.37v.06l-11.92 5.37v-.06z"/><path d="M215.68 143.3l11.92-5.37v.07l-11.92 5.37v-.06z"/><path d="M215.68 143.36L227.6 138l-11.92 5.37v-.05z"/><path d="M215.68 143.41L227.6 138v.05l-11.92 5.37v-.05zm0 .06l11.92-5.37v.05l-11.92 5.37v-.05z"/><path d="M215.68 143.52l11.92-5.37v.05l-11.92 5.37v-.05zm0 .06l11.92-5.37v.06l-11.92 5.37v-.06z"/><path d="M215.67 143.63l11.92-5.37v.06l-11.92 5.37v-.06z"/><path d="M215.66 143.69l11.92-5.37v.06l-11.92 5.37v-.06z"/><path d="M215.65 143.75l11.92-5.37v.06l-11.92 5.37v-.06z"/><path d="M215.63 143.81l11.92-5.37v.07l-11.92 5.37v-.07z"/><path d="M215.6 143.89l11.92-5.37v.05l-11.92 5.37v-.05z"/></g><path d="M212.7 137.54l11.92-5.37a2.14 2.14 0 0 1 1.14 1.25l-11.92 5.37a2.14 2.14 0 0 0-1.14-1.25z" fill="#acdced"/><g style="isolation:isolate" fill="#acdced" clip-path="url(#Q)"><path d="M212.71 137.54l11.91-5.37-11.91 5.37zm0 0l11.92-5.37-11.92 5.37zm.05.02l11.92-5.37-11.92 5.37zm.04.01l11.92-5.37-11.92 5.37zm.05.02l11.92-5.37-11.92 5.37zm.04.02l11.92-5.37-11.92 5.37zm.04.02l11.92-5.37-11.85 5.4zm.07.03l11.92-5.37-11.92 5.39zm0 .02l11.92-5.37-11.92 5.37zm.05.03l11.95-5.37-11.92 5.37zm.04.03l11.91-5.37-11.92 5.37zm.04.04l11.87-5.37-11.92 5.37zm.04.03l11.92-5.37-11.92 5.37zm.04.04l11.92-5.37-11.92 5.37zm.04.04l11.92-5.37-11.92 5.37zm.04.04l11.92-5.37-11.88 5.44zm.04.07l11.92-5.37-11.88 5.37zm.04 0l11.92-5.37-11.92 5.37zm.04.06l11.92-5.37-11.92 5.37zm.03.04l11.92-5.37-11.92 5.37zm.02.04l11.92-5.37-11.92 5.37zm.03.03l11.92-5.37-11.92 5.37zm.02.03l11.92-5.37-11.92 5.37zm.02.03l11.92-5.37-11.92 5.37zm.02.03l11.92-5.37-11.92 5.37zm.02.03l11.92-5.37-11.92 5.37zm.02.02l11.92-5.37-11.92 5.37zm.01.03l11.92-5.34-11.92 5.37z"/><path d="M213.62 138.36l11.91-5.36-11.92 5.37zm.01.03l11.92-5.39-11.92 5.37z"/><path d="M213.65 138.41l11.91-5.41-11.92 5.37zm.01.03l11.92-5.37-11.92 5.37zm.02.03l11.92-5.37-11.9 5.4zm.02.03l11.92-5.37-11.92 5.37zm.02.04l11.92-5.37-11.92 5.37zm.02.05l11.92-5.37.08.16-11.92 5.37-.08-.16zm.09.16l11.92-5.37-11.92 5.37z"/></g><path d="M218.91 153.8a3.24 3.24 0 0 1 1 1.7l.8 3.44c.16.68 0 1.16-.31 1.19l-2.87.26c.21 1.38.37 2.72.46 4l3.41 4.66a3.32 3.32 0 0 1 .65 1.85l-.1 2.82c0 .45-.21.67-.51.6a.74.74 0 0 1-.22-.09l-3.5-2.13a19.81 19.81 0 0 1-.72 2.9l2.65 5.68a2.13 2.13 0 0 1 .21 1.69l-1 1.7a.35.35 0 0 1-.41.18 1.25 1.25 0 0 1-.61-.45l-3.52-4.15a7 7 0 0 1-1.71 1.26l1.44 5.73c.18.68.07 1.19-.26 1.25l-1.69.29a.41.41 0 0 1-.17 0 1.89 1.89 0 0 1-1-1l-3-5.47a10.1 10.1 0 0 1-1.18-.17c-.41-.09-.82-.25-1.24-.39v4.78c0 .48-.2.72-.51.65a.74.74 0 0 1-.19-.08l-2.1-1.16a2.84 2.84 0 0 1-1.07-1.55l-1.79-5.79a32.42 32.42 0 0 1-2.73-2.28l-1.48 3a.35.35 0 0 1-.43.21 1.2 1.2 0 0 1-.58-.4l-2.16-2.42a3.43 3.43 0 0 1-.8-1.83l-.46-5.18c-.87-1.16-1.72-2.37-2.55-3.64l-2.69.71a.38.38 0 0 1-.19 0 1.85 1.85 0 0 1-1-.94l-1.78-3.28a2.71 2.71 0 0 1-.4-1.79l1-3.64a73.35 73.35 0 0 1-1.93-4.34l-3.44-1.71a2.75 2.75 0 0 1-1.08-1.51l-1.2-3.53c-.24-.7-.21-1.29.07-1.46l2.36-1.48a67.32 67.32 0 0 1-1-4.3l-3.58-3.83a3.53 3.53 0 0 1-.83-1.83l-.35-3.19c-.07-.61.14-1 .5-.88l3.29 1a32.52 32.52 0 0 1 .11-3.54l-3.1-5.28a2.82 2.82 0 0 1-.44-1.81l.55-2.31c.07-.29.25-.42.48-.36a1 1 0 0 1 .42.24l3.58 3.2a11 11 0 0 1 1.23-2.12l-2.09-5.83c-.25-.69-.24-1.31 0-1.5l1.36-1a.35.35 0 0 1 .3-.05 1.56 1.56 0 0 1 .8.69l3.32 4.92a7.66 7.66 0 0 1 2.11-.36l-.72-5.37c-.08-.64.11-1 .49-.92l1.94.44a2.18 2.18 0 0 1 1.13 1.3l2.47 5.77A20.67 20.67 0 0 1 193 117l.78-4c.06-.31.25-.45.49-.39a.93.93 0 0 1 .38.21l2.18 1.83a3.34 3.34 0 0 1 1 1.73L199 122c.91.94 1.82 1.94 2.71 3l2.13-1.89a.35.35 0 0 1 .33-.07 1.52 1.52 0 0 1 .77.65l2 2.9a3.28 3.28 0 0 1 .61 1.85l-.3 4.5c.8 1.31 1.55 2.69 2.3 4.09l3.13.51a2.14 2.14 0 0 1 1.14 1.25l1.55 3.47a2.06 2.06 0 0 1 .17 1.67l-1.73 2.61c.54 1.45 1 2.92 1.49 4.41zM203 168.11c6.12 1.41 8.51-6.44 5.33-17.53S197.62 129.37 191.5 128s-8.5 6.44-5.33 17.53 10.71 21.17 16.83 22.58z" fill="url(#R)"/><path fill="#acdced" d="M213.85 138.8l11.91-5.37 1.55 3.46-11.91 5.37-1.55-3.46z"/></g><circle cx="218.22" cy="142.61" r="56.22" style="mix-blend-mode:lighten" opacity=".3" fill="url(#S)"/><g style="isolation:isolate" clip-path="url(#T)"><path d="M207.38 173.52l-11.92 5.37a.38.38 0 0 0 .18-.19l11.92-5.37a.38.38 0 0 1-.18.19z" fill="#acdced"/><g style="isolation:isolate" fill="#acdced" clip-path="url(#v)"><path d="M195.64 178.7l11.92-5.37v.01l-11.92 5.37v-.01zm0 .01l11.92-5.37a.38.38 0 0 1-.18.18l-11.92 5.37a.38.38 0 0 0 .18-.18z"/></g><path d="M172.91 128.47l11.92-5.37a.37.37 0 0 1 .24 0l-11.92 5.37a.37.37 0 0 0-.24 0z" fill="#acdced"/><g style="isolation:isolate" fill="#acdced" clip-path="url(#w)"><path d="M172.91 128.47l11.92-5.37-11.92 5.37zm.04-.01l11.92-5.37h.06L173 128.45z"/><path d="M173 128.45l11.92-5.37h.08l-11.92 5.37z"/><path d="M173.06 128.45l11.94-5.38-11.92 5.37zm.05 0l11.89-5.37-11.92 5.37z"/></g><path fill="#acdced" d="M197.12 175.71l11.92-5.37-1.48 2.99-11.92 5.37 1.48-2.99zm-23.97-47.25l11.91-5.37 3.29.96-11.92 5.36-3.28-.95zm44.08 52.76l-11.92 5.37c.17-.07.27-.29.27-.63l11.92-5.37c0 .34-.1.55-.27.63z"/><g style="isolation:isolate" fill="#acdced" clip-path="url(#x)"><path d="M205.59 186l11.92-5.37-11.92 5.37zm0 0l11.92-5.37v.06L205.58 186z"/><path d="M205.58 186l11.92-5.37v.06l-11.92 5.37V186zm0 .09l11.92-5.37v.06l-11.92 5.37v-.06z"/><path d="M205.57 186.15l11.92-5.37v.06l-11.92 5.37v-.06z"/><path d="M205.56 186.21l11.92-5.37v.06l-11.92 5.37v-.06z"/><path d="M205.55 186.27l11.92-5.37v.06l-11.92 5.37v-.06z"/><path d="M205.53 186.33l11.92-5.33v.07l-11.95 5.33v-.07z"/><path d="M205.5 186.4l11.92-5.4a.38.38 0 0 1-.18.19l-11.92 5.37a.38.38 0 0 0 .18-.19z"/></g><path d="M173.8 116.14l11.92-5.37a.38.38 0 0 1 .24 0 1 1 0 0 1 .42.24l-11.92 5.37a1 1 0 0 0-.42-.24.38.38 0 0 0-.24 0z" fill="#acdced"/><g style="isolation:isolate" fill="#acdced" clip-path="url(#y)"><path d="M173.8 116.14l11.92-5.37-11.92 5.37zm.04-.02l11.92-5.37h.06l-11.92 5.37z"/><path d="M173.9 116.11l11.92-5.37h.05L174 116.11zm.1 0l11.92-5.37-11.92 5.37zm0 0l11.92-5.37-11.92 5.38zm0 .01l12-5.37-11.92 5.37zm.09.01l11.91-5.37-11.92 5.37zm.04.02l11.87-5.37-11.92 5.37zm.04.01l11.92-5.37-11.92 5.37zm.04.02l11.92-5.37-11.92 5.37zm.03.02l11.92-5.37-11.92 5.37zm.04.02l11.92-5.37-11.92 5.37zm.04.03l11.92-5.37-11.92 5.37zm.04.03l11.92-5.37-11.92 5.37zm.03.03l11.92-5.37-11.92 5.37zm.04.03l11.92-5.34-11.92 5.37z"/></g><path fill="#91d4f1" d="M205.61 181.17l-.02 4.79 11.91-5.37.02-4.79-11.91 5.37z"/><path fill="#acdced" d="M174.46 116.36l11.92-5.37 3.58 3.2-11.92 5.37-3.58-3.2zm51.35 66.15l-11.92 5.37c.27-.12.35-.6.19-1.22l11.92-5.37c.16.62.08 1.1-.19 1.22z"/><g style="isolation:isolate" fill="#acdced" clip-path="url(#z)"><path d="M214.08 186.66l11.92-5.37-11.92 5.37zm.01.03l11.91-5.37-11.92 5.37zm.01.05l11.9-5.37v.05l-11.92 5.37v-.05z"/><path d="M214.11 186.79l11.89-5.37v.05l-11.92 5.37v-.05zm.01.06l11.88-5.37v.06l-11.92 5.37v-.06z"/><path d="M214.13 186.9l11.87-5.37v.06L214.14 187v-.06zm.01.1l11.92-5.37v.06L214.15 187z"/><path d="M214.15 187l11.92-5.37v.05l-11.92 5.37V187zm0 .07l11.92-5.37v.05l-11.92 5.37v-.05zm.01.05l11.92-5.37v.05l-11.92 5.37v-.05zm0 .06l11.92-5.37v.05l-11.92 5.37v-.05z"/><path d="M214.16 187.23l11.92-5.37v.05l-11.92 5.37v-.05z"/><path d="M214.16 187.28l11.92-5.37v.09l-11.92 5.37v-.05z"/><path d="M214.16 187.33l11.92-5.33-11.92 5.37v-.05z"/><path d="M214.16 187.39l11.91-5.39v.05l-11.92 5.37v-.05zm-.01.05l11.92-5.37v.06l-11.92 5.37v-.06z"/><path d="M214.14 187.5l11.92-5.37v.06l-11.92 5.37v-.06z"/><path d="M214.13 187.55l11.87-5.37v.06l-11.92 5.37v-.06zm-.02.07l11.89-5.37v.07l-11.92 5.37v-.07z"/><path d="M214.08 187.69l11.92-5.37a.39.39 0 0 1-.19.19l-11.92 5.37a.39.39 0 0 0 .19-.19z"/></g><path d="M178.64 109.05l11.92-5.37a.37.37 0 0 1 .24 0 1.56 1.56 0 0 1 .8.69l-11.92 5.37a1.56 1.56 0 0 0-.8-.69.37.37 0 0 0-.24 0z" fill="#acdced"/><g style="isolation:isolate" fill="#acdced" clip-path="url(#A)"><path d="M178.64 109.05l11.92-5.37-11.88 5.32z"/><path d="M178.68 109l11.92-5.37h.06L178.74 109z"/><path d="M178.74 109l11.92-5.37h.05L178.79 109z"/><path d="M178.79 109l11.92-5.37-11.87 5.37zm.05 0l11.92-5.37-11.88 5.37zm.04 0l11.92-5.37-11.88 5.37zm.04 0l11.92-5.37-11.84 5.43zm.08.06l11.92-5.37-11.92 5.39zm0 .02l11.92-5.37L179 109.1zm0 .02l12-5.37-11.92 5.37zm.08.02l11.92-5.37-11.92 5.37zm.04.02l11.88-5.37-11.92 5.37zm.03.03l11.92-5.37-11.92 5.37zm.04.02l11.92-5.37-11.92 5.37zm.04.03l11.92-5.37-11.92 5.37zm.04.04l11.92-5.37-11.92 5.37zm.04.03l11.92-5.37-11.92 5.37zm.04.04l11.91-5.33-11.92 5.37zm.04.04L191.3 104l-11.92 5.37zm.04.04l11.91-5.41-11.92 5.37zm.04.04l11.92-5.37-11.89 5.42zm.03.05l11.92-5.37-11.92 5.37zm.04.04l11.92-5.37-11.92 5.37zm.03.04l11.92-5.37-11.92 5.37zm.03.03l11.92-5.37-11.92 5.37zm.02.03l11.92-5.37-11.92 5.37zm.02.04l11.92-5.37-11.92 5.37zm.02.02l11.92-5.37-11.92 5.37z"/></g><path d="M213.77 162.38h-.06a10.65 10.65 0 0 1-1.1-.51l-.1-.06c-.38-.21-.75-.44-1.13-.7-.39-.26-.77-.56-1.16-.87l-.1-.08q-.55-.45-1.1-1l-.09-.09q-.58-.56-1.16-1.18c-.38-.41-.77-.85-1.14-1.31l-.09-.11q-.55-.67-1.1-1.4-.56-.75-1.1-1.55-.54-.81-1.06-1.67-.52-.85-1-1.75c-.24-.44-.47-.89-.7-1.34l-.44-.89c-.24-.5-.48-1-.71-1.52q-.43-1-.81-2-.39-1-.73-2-.34-1-.64-2.05-.23-.81-.43-1.6v-.1q-.18-.73-.32-1.44v-.17q-.14-.68-.24-1.34v-.18q-.1-.65-.17-1.28v-.18q-.06-.62-.1-1.22v-2.78q0-.49.09-1v-.17c0-.33.1-.65.16-1l.06-.26q.07-.33.16-.64l.11-.37c.05-.16.11-.3.16-.45s.15-.37.23-.54.11-.24.17-.36.17-.31.27-.45.13-.21.2-.31.21-.27.32-.39.14-.17.22-.25a4.58 4.58 0 0 1 .4-.35l.21-.17a4.19 4.19 0 0 1 .67-.39l-11.92 5.37a4.2 4.2 0 0 0-.68.39l-.21.17a4.59 4.59 0 0 0-.41.35c-.08.08-.15.17-.22.25s-.22.25-.32.4-.14.21-.2.31-.18.29-.27.45l-.08.13c0 .07-.06.15-.1.22s-.16.36-.23.54-.06.13-.08.2-.05.17-.08.25l-.11.37c0 .07 0 .14-.07.22s-.06.28-.1.42l-.06.26v.11q-.07.36-.12.75v.27c0 .15 0 .3-.05.45s0 .34 0 .51v2.96c0 .09 0 .47.06.71v.72c0 .1.06.49.1.73v.73q.06.37.13.74l.06.3v.17l.05.25q.07.35.15.7l.12.48v.19l.15.59.16.59.09.32.06.21.14.46.14.46.15.46.12.38v.09l.08.24.13.36.13.36.13.35.13.34.13.34.12.31.13.34.16.38.18.42.18.41v.11l.12.27.39.85.2.41.44.89.27.54.39.74v.07l.19.34.25.44.23.4.2.34.14.23v.08l.2.33.21.33.22.35.22.34.15.23.06.08.25.36.29.41.29.41.21.29.07.09.39.51.39.5.25.3.09.11.13.16.49.57.52.58.53.55.53.52.1.1.09.09.33.31.51.45.26.22.1.08.14.12.5.38.49.35.44.29.49.3.2.11.1.06.19.1.5.24.4.17h.11l.54.19.54.15 11.92-5.37a8.18 8.18 0 0 1-.78-.08zm4.35.14l-11.92 5.37a5 5 0 0 1-3.21.22l11.92-5.37a5 5 0 0 0 3.21-.22z" fill="#acdced"/><g style="isolation:isolate" fill="#acdced" clip-path="url(#B)"><path d="M203 168.11l11.92-5.37.58.11-11.92 5.37-.58-.11z"/><path d="M203.57 168.22l11.92-5.37a5.81 5.81 0 0 0 .62.05l-11.92 5.37a5.8 5.8 0 0 1-.62-.05zm.63.05l11.92-5.37a5 5 0 0 0 .68 0l-11.92 5.37a5 5 0 0 1-.68 0z"/><path d="M204.88 168.24l11.92-5.37a4.43 4.43 0 0 0 .83-.17l-11.92 5.37a4.43 4.43 0 0 1-.83.17zm.82-.16l11.92-5.37a4.17 4.17 0 0 0 .5-.19l-11.92 5.37a4.17 4.17 0 0 1-.5.19z"/></g><path fill="#91d4f1" d="M212.64 180.93l11.91-5.37 1.45 5.73-11.92 5.37-1.44-5.73z"/><path fill="#acdced" d="M179.68 109.73l11.92-5.37 3.31 4.92-11.91 5.37-3.32-4.92zm34.67 69.93l11.92-5.37a7 7 0 0 1-1.71 1.26l-11.92 5.37a7 7 0 0 0 1.71-1.26z"/><g clip-path="url(#C)"><path d="M214.35 179.66l11.92-5.37a7 7 0 0 1-1.71 1.26l-11.92 5.37a7 7 0 0 0 1.71-1.26z" fill="#acdced"/></g><path d="M183 114.65l11.92-5.37a7.66 7.66 0 0 1 2.11-.36l-11.92 5.37a7.66 7.66 0 0 0-2.11.36z" fill="#acdced"/><g style="isolation:isolate" fill="#acdced" clip-path="url(#D)"><path d="M183 114.65l11.92-5.37.2-.06-11.92 5.37-.2.06z"/><path d="M183.2 114.59l11.92-5.37a7.29 7.29 0 0 1 1.34-.26l-11.92 5.37a7.3 7.3 0 0 0-1.34.26z"/><path d="M184.53 114.33l11.92-5.33h.57l-11.92 5.37h-.57z"/></g><path d="M230.65 178.87l-11.92 5.37a.36.36 0 0 0 .17-.16l11.92-5.37a.36.36 0 0 1-.17.16z" fill="#acdced"/><g clip-path="url(#E)"><path d="M218.9 184.08l11.92-5.37a.36.36 0 0 1-.17.16l-11.92 5.37a.36.36 0 0 0 .17-.16z" fill="#acdced"/></g><path d="M184.63 108l11.92-5.37a.38.38 0 0 1 .25 0L184.88 108a.38.38 0 0 0-.25 0z" fill="#acdced"/><g style="isolation:isolate" fill="#acdced" clip-path="url(#F)"><path d="M184.63 108l11.92-5.37-11.88 5.37zm.04 0l11.92-5.37h.06L184.73 108z"/><path d="M184.73 108l11.92-5.37h.05L184.79 108zm.06 0l11.92-5.37-11.88 5.37zm.04 0l11.92-5.37-11.87 5.37z"/></g><path fill="#acdced" d="M219.88 182.38l11.91-5.37-.98 1.7-11.91 5.37.98-1.7zm-35-74.39l11.91-5.37 1.94.45-11.92 5.37-1.93-.45z"/><path fill="#91d4f1" d="M217.01 175l11.92-5.37 2.65 5.68-11.91 5.37-2.66-5.68z"/><path d="M219.67 180.68l11.92-5.37a2.13 2.13 0 0 1 .21 1.69l-11.92 5.37a2.13 2.13 0 0 0-.21-1.69z" fill="#acdced"/><g style="isolation:isolate" fill="#acdced" clip-path="url(#G)"><path d="M219.67 180.68l11.92-5.37-11.92 5.37zm.01.02l11.92-5.37-11.92 5.37zm.02.04l11.92-5.37-11.92 5.37zm.01.05l11.92-5.37-11.92 5.37zm.02.03l11.92-5.37-11.92 5.37zm.01.02l11.92-5.37-11.92 5.37zm.01.03l11.92-5.37-11.92 5.37zm.01.03l11.92-5.37-11.92 5.37zm.01.02l11.92-5.37-11.91 5.45zm.01.08l11.92-5.37-11.91 5.37zm.01 0l11.92-5.37L219.8 181zm.01 0l11.92-5.37-11.91 5.37zm.01 0l11.92-5.37-11.92 5.37zm.01.06l11.92-5.37-11.92 5.37zm.01.02l11.92-5.37-11.92 5.37zm.01.03l11.92-5.37-11.92 5.37zm.01.03l11.92-5.37-11.92 5.37zm.01.04l11.92-5.37-11.92 5.37zm.01.03l11.92-5.37-11.92 5.37zm.01.04l11.92-5.37-11.92 5.37zm.01.04l11.92-5.37-11.92 5.37zm.01.05l11.92-5.34-11.92 5.37zm.02.05l11.91-5.39v.05l-11.92 5.37v-.05zm.01.05l11.92-5.37v.05l-11.92 5.37v-.05zm.01.06l11.92-5.37v.06l-11.92 5.37v-.06zm.01.06l11.92-5.37v.06L220 181.61v-.06z"/><path d="M220 181.61l11.92-5.37v.06L220 181.67v-.06z"/><path d="M220 181.67l11.92-5.37v.06L220 181.72v-.06z"/><path d="M220 181.72l11.92-5.37v.05L220 181.78v-.05zm0 .06l11.92-5.37v.05L220 181.83v-.05z"/><path d="M220 181.83l11.92-5.37v.05L220 181.88v-.05z"/><path d="M220 181.88l11.92-5.37v.05L220 181.94v-.05zm0 .06l11.92-5.37v.05L220 182v-.05zm0 .06l11.92-5.37v.05L220 182z"/><path d="M220 182l11.92-5.37v.05L220 182.1v-.1z"/><path d="M220 182.1l11.92-5.37v.06L220 182.15v-.06z"/><path d="M220 182.15l11.92-5.37v.06L220 182.21v-.06z"/><path d="M219.95 182.21l11.92-5.37v.06l-11.92 5.37v-.06z"/><path d="M219.93 182.27l11.92-5.37v.07l-11.92 5.37v-.07z"/><path d="M219.9 182.35l11.91-5.35-11.92 5.37z"/></g><path fill="#acdced" d="M187.94 109.73l11.92-5.37 2.47 5.78-11.92 5.37-2.47-5.78z"/><path d="M187.41 108.86a2.94 2.94 0 0 1 .28.39 3.8 3.8 0 0 1 .25.48l11.92-5.37-.09-.17v-.05h-.08l-11.92 5.37a.84.84 0 0 1 .29.14 1.78 1.78 0 0 1-.65-.79zm42.08 58.58q.07-.35.12-.7l-11.91 5.36c-.07.41-.15.79-.23 1.17 0 .18-.08.36-.12.53-.1.41-.21.81-.33 1.19l11.92-5.37q.15-.46.27-.94c0-.08 0-.17.06-.25s.08-.35.12-.53.07-.3.1-.46zM193 117l11.92-5.37-.26-.16-.66-.47-.23-.12-.27-.14-.35-.19-.8-.39-11.92 5.37c.38.18.76.37 1.15.58l.27.14c.38.2.78.44 1.15.75zm40.58 51.94l-11.92 5.37c.16-.07.26-.27.27-.58l11.92-5.37c-.01.31-.11.51-.27.58z" fill="#acdced"/><g style="isolation:isolate" fill="#acdced" clip-path="url(#H)"><path d="M221.93 173.73l11.92-5.37-11.92 5.37zm0 .04l11.92-5.37v.05l-11.92 5.37v-.05z"/><path d="M221.92 173.82l11.92-5.37v.05l-11.92 5.37v-.05z"/><path d="M221.92 173.87l11.92-5.37v.06l-11.92 5.37v-.06z"/><path d="M221.91 173.93l11.92-5.37v.06L221.89 174v-.06zm-.02.07l11.92-5.37v.06l-11.92 5.37V174z"/><path d="M221.88 174.05l11.92-5.37v.07l-11.92 5.37v-.07z"/><path d="M221.84 174.12l11.92-5.37a.39.39 0 0 1-.18.19l-11.92 5.37a.39.39 0 0 0 .18-.19z"/></g><path d="M194.05 112.6l11.95-5.38a.38.38 0 0 1 .24 0 .93.93 0 0 1 .38.21l-11.92 5.37a.93.93 0 0 0-.38-.21.38.38 0 0 0-.27.01z" fill="#acdced"/><g style="isolation:isolate" fill="#acdced" clip-path="url(#I)"><path d="M194.05 112.6l11.95-5.38-11.92 5.37z"/><path d="M194.09 112.58l11.91-5.37h.06l-11.92 5.37z"/><path d="M194.16 112.57l11.92-5.37h.05l-11.92 5.37zm.05 0l11.92-5.37-11.92 5.37zm.04 0l11.92-5.37-11.92 5.37zm.05.01l11.92-5.37-11.92 5.37zm.04.01l11.92-5.37-11.92 5.37zm.04.01l11.92-5.37-11.92 5.37zm.04.02l11.92-5.37-11.92 5.37zm.03.02l11.92-5.37-11.92 5.37zm.04.02l11.92-5.37-11.92 5.37zm.04.02l11.92-5.37-11.92 5.37zm.04.02l11.92-5.37-11.92 5.37zm.03.03l11.92-5.37-11.92 5.37zm.04.03l11.92-5.37-11.92 5.37z"/></g><path fill="#addcec" d="M222.03 170.91l11.92-5.37-.11 2.82-11.91 5.37.1-2.82z"/><path fill="#91d4f1" d="M217.97 164.4l11.92-5.37 3.41 4.66-11.92 5.37-3.41-4.66z"/><path fill="#addcec" d="M194.68 112.79l11.91-5.37 2.18 1.83-11.92 5.37-2.17-1.83z"/><path d="M218 164.4l11.89-5.4q0-.5-.08-1c0-.24-.05-.49-.08-.74v-.41q-.08-.67-.18-1.36l-.06-.42-11.92 5.37q.15 1 .26 1.94v.25c.04.58.1 1.18.17 1.77zm3.38 4.66l11.92-5.37a3.32 3.32 0 0 1 .65 1.85L222 170.91a3.32 3.32 0 0 0-.62-1.85z" fill="#acdced"/><g style="isolation:isolate" fill="#acdced" clip-path="url(#J)"><path d="M221.38 169.06l11.92-5.37.01.01-11.92 5.37-.01-.01zm.01.01l11.92-5.37-11.92 5.37zm.02.03l11.92-5.37-11.92 5.37zm.02.03l11.92-5.37-11.92 5.37zm.02.03l11.92-5.37-11.92 5.37zm.02.02l11.92-5.37-11.92 5.37zm.01.03l11.92-5.37-11.92 5.37zm.02.03l11.92-5.37-11.92 5.37zm.02.02l11.92-5.37-11.92 5.37zm.01.02l11.92-5.37-11.92 5.37zm.02.03l11.92-5.37-11.92 5.37zm.01.03l11.92-5.34-11.92 5.37zm.02.03l11.91-5.37-11.92 5.37zm.01.02l11.92-5.39-11.92 5.37zm.03.04l11.92-5.37-11.92 5.37zm.02.05l11.92-5.37.08.16-11.92 5.37-.08-.16z"/><path d="M221.72 169.64l11.92-5.37v.06l-11.92 5.37v-.06zm.03.06l11.92-5.37-11.92 5.37zm.01.03l11.92-5.37-11.92 5.37zm.01.03l11.92-5.37-11.92 5.37zm.02.03l11.92-5.37-11.92 5.37zm.01.03l11.92-5.37-11.92 5.37zm.01.02l11.92-5.37-11.92 5.37zm.01.03l11.92-5.37-11.92 5.37zm.01.03l11.92-5.37-11.92 5.37zm.01.02l11.92-5.37-11.92 5.37zm.01.03l11.92-5.37-11.91 5.42zm.01.05l11.92-5.37-11.91 5.37zm.01 0l11.92-5.37-11.91 5.37zm.01 0l11.92-5.37-11.92 5.37zm.01.06l11.92-5.37-11.92 5.37zm.01.03l11.92-5.37-11.92 5.37zm.01.04l11.92-5.37-11.92 5.37zm.01.03l11.92-5.37-11.92 5.37zm.01.04l11.92-5.37-11.92 5.37zm.01.05l11.92-5.37-11.86 5.41zm.06.04l11.92-5.37v.08L222 170.35v-.05z"/><path d="M222 170.35l11.88-5.35-11.88 5.4v-.05z"/><path d="M222 170.4l11.89-5.4v.06L222 170.45v-.06zm0 .05l11.92-5.37v.06L222 170.51v-.06z"/><path d="M222 170.51l11.92-5.37v.06L222 170.57v-.06z"/><path d="M222 170.57l11.92-5.37v.06L222 170.62v-.06z"/><path d="M222 170.62l11.92-5.37v.06L222 170.68v-.06z"/><path d="M222 170.68l11.92-5.37v.05L222 170.73v-.05z"/><path d="M222 170.73l11.92-5.37v.05L222 170.79v-.05zm0 .06l11.92-5.37v.05L222 170.84v-.05z"/><path d="M222 170.84l11.92-5.37v.05L222 170.9v-.05zm0 .06l11.92-5.37-11.92 5.38z"/></g><path d="M201.7 125l11.92-5.37-.32-.39-.7-.82-.21-.24-.28-.31-.38-.43-.8-.84L199 122c.4.41.79.84 1.18 1.27l.28.31c.42.42.83.92 1.24 1.42z" fill="#acdced"/><path fill="#91d4f1" d="M197.81 116.35l11.91-5.37 1.19 5.62-11.91 5.37-1.19-5.62z"/><path d="M196.85 114.62l11.92-5.37a3.34 3.34 0 0 1 1 1.73l-11.92 5.37a3.34 3.34 0 0 0-1-1.73z" fill="#acdced"/><g style="isolation:isolate" fill="#acdced" clip-path="url(#K)"><path d="M196.85 114.62l11.92-5.37.01.01-11.92 5.37-.01-.01zm.01.01l11.92-5.37-11.92 5.37zm.04.03l11.92-5.37-11.92 5.37zm.04.04l11.92-5.37-11.86 5.41zm.06.04l11.92-5.37-11.92 5.41zm0 .04l11.92-5.37-11.92 5.37zm.06.04l11.94-5.37-11.92 5.37zm.04.05l11.9-5.37-11.92 5.37zm.03.04l11.87-5.37-11.92 5.37zm.03.04l11.92-5.37-11.89 5.42zm.03.05l11.92-5.37-11.89 5.37zm.03 0l11.92-5.37-11.9 5.37zm.02 0l11.92-5.37-11.92 5.37zm.02.08l11.92-5.37-11.92 5.37zm.02.03l11.92-5.37-11.92 5.37zm.01.02l11.92-5.37-11.92 5.37zm.02.03l11.92-5.37-11.92 5.37zm.02.02l11.92-5.37-11.92 5.37zm.01.03l11.92-5.37-11.92 5.37zm.02.02l11.92-5.37-11.92 5.37zm.01.03l11.92-5.37-11.92 5.37zm.02.03l11.92-5.37-11.92 5.37zm.02.03l11.92-5.37-11.92 5.37zm.01.03l11.92-5.35-11.92 5.37zm.02.03l11.92-5.38v.05l-11.92 5.37v-.05zm.03.05l11.92-5.37.08.16-11.92 5.37-.08-.16z"/><path d="M197.55 115.59l11.92-5.37v.06l-11.92 5.37v-.06zm.03.06l11.92-5.37-11.92 5.37zm.01.03l11.92-5.37-11.92 5.37zm.02.03l11.92-5.37-11.92 5.37zm.01.04l11.92-5.37-11.92 5.37zm.01.02l11.92-5.37-11.92 5.37zm.01.03l11.92-5.37-11.92 5.37zm.01.02l11.92-5.37-11.92 5.37zm.01.03l11.92-5.37-11.92 5.37zm.01.03l11.92-5.37-11.92 5.37zm.01.02l11.92-5.37-11.92 5.37zm.01.03l11.92-5.37L197.7 116zm.01.07l11.92-5.37-11.91 5.37zm.01 0l11.92-5.37-11.91 5.37zm.01 0l11.92-5.37-11.91 5.37zm.01 0l11.92-5.37-11.92 5.37zm.01.08l11.92-5.37-11.92 5.37zm.01.04l11.92-5.37-11.92 5.37zm.01.04l11.92-5.37-11.92 5.37zm.01.04l11.92-5.37-11.92 5.37zm.02.05l11.92-5.37v.05l-11.91 5.37v-.05zm.01.05l11.92-5.37v.07l-11.92 5.37v-.05z"/></g><path d="M227 144.95l-.24-.75-.23-.69-.22-.63-.21-.59-.2-.55-.2-.54-11.92 5.37c.54 1.45 1 2.92 1.49 4.41l11.92-5.37zM209.58 137l11.92-5.37-.78-1.44-.29-.53-.08-.15-.09-.16-.34-.6-.27-.47-.25-.42-.19-.32-11.92 5.37c.39.64.77 1.3 1.14 2l.08.15q.54.94 1.07 1.94zm22.82 17.74l-11.92 5.37c.26-.12.34-.56.2-1.16l11.92-5.37c.15.6.06 1.04-.2 1.16z" fill="#acdced"/><g style="isolation:isolate" fill="#acdced" clip-path="url(#L)"><path d="M220.69 158.94l11.92-5.37-11.92 5.38v-.01z"/><path d="M220.69 158.95l11.92-5.37v.06L220.7 159v-.06z"/><path d="M220.7 159l11.92-5.37v.06l-11.92 5.37V159zm.02.06l11.92-5.37v.06l-11.92 5.37v-.06z"/><path d="M220.73 159.11l11.92-5.37v.06l-11.92 5.37v-.06z"/><path d="M220.73 159.17l11.92-5.37v.06l-11.92 5.37v-.06zm.01.06l11.92-5.37v.06l-11.92 5.37v-.06z"/><path d="M220.75 159.28l11.92-5.37v.09l-11.92 5.37v-.05z"/><path d="M220.75 159.34l11.92-5.34-11.92 5.37v-.05z"/><path d="M220.76 159.39l11.91-5.39v.05l-11.92 5.37v-.05zm0 .06l11.92-5.37v.05l-11.92 5.37v-.05z"/><path d="M220.76 159.5l11.92-5.37v.05l-11.92 5.37v-.05z"/><path d="M220.75 159.55l11.92-5.37v.05l-11.92 5.37v-.05zm0 .06l11.92-5.37v.06l-11.92 5.37v-.06z"/><path d="M220.74 159.66l11.92-5.37v.06l-11.92 5.37v-.06z"/><path d="M220.73 159.72l11.92-5.37v.06l-11.92 5.37v-.06z"/><path d="M220.72 159.78l11.92-5.37v.06l-11.92 5.37v-.06z"/><path d="M220.7 159.84l11.92-5.37v.07l-11.92 5.37v-.07z"/><path d="M220.67 159.92l11.92-5.37a.39.39 0 0 1-.18.19l-11.92 5.37a.39.39 0 0 0 .18-.19z"/></g><path d="M203.91 123.05l11.92-5.37a.38.38 0 0 1 .24 0 1.52 1.52 0 0 1 .77.65l-11.92 5.37a1.52 1.52 0 0 0-.77-.65.38.38 0 0 0-.24 0z" fill="#acdced"/><g style="isolation:isolate" fill="#acdced" clip-path="url(#M)"><path d="M203.91 123.05l11.92-5.37L204 123z"/><path d="M204 123l11.92-5.37h.06L204 123z"/><path d="M204 123l11.92-5.37h.08L204.07 123zm.07 0l11.93-5.35-11.89 5.35zm.04 0l11.89-5.34-11.84 5.34zm.05 0l11.92-5.37L204.2 123zm.04 0l11.92-5.37L204.2 123zm.04.06l11.92-5.37-11.92 5.37zm.04.02l11.92-5.37-11.92 5.37zm.03.02l11.92-5.37-11.92 5.37zm.04.02l11.92-5.37-11.92 5.37zm.04.02l11.92-5.37-11.92 5.37zm.04.02l11.92-5.37-11.92 5.37zm.03.03l11.92-5.37-11.92 5.37zm.04.03l11.92-5.37-11.92 5.37zm.04.03l11.92-5.37-11.92 5.37zm.04.04l11.92-5.37-11.92 5.37zm.04.03l11.92-5.32-11.92 5.37zm.04.04l11.92-5.36-11.92 5.37zm.04.05l11.92-5.41-11.92 5.37zm.04.04l11.92-5.37-11.92 5.37zm.04.05l11.92-5.37-11.92 5.37zm.04.04l11.92-5.37-11.92 5.37zm.03.04l11.92-5.37-11.92 5.37zm.02.03l11.92-5.37-11.92 5.37zm.03.04l11.92-5.37-11.92 5.37zm.02.03l11.92-5.37-11.91 5.38-.01-.01z"/></g><path fill="#91d4f1" d="M215.33 150.96l11.91-5.37 3.59 2.84-11.92 5.37-3.58-2.84zm-7.75-22.52l11.92-5.37-.3 4.5-11.92 5.37.3-4.5z"/><path fill="#addcec" d="M219.89 155.5l11.92-5.37.8 3.44-11.92 5.37-.8-3.44zm-14.96-31.81l11.91-5.38 2.05 2.91-11.92 5.37-2.04-2.9z"/><path d="M218.91 153.8l11.92-5.37a3.24 3.24 0 0 1 1 1.7l-11.92 5.37a3.24 3.24 0 0 0-1-1.7z" fill="#acdced"/><g style="isolation:isolate" fill="#acdced" clip-path="url(#N)"><path d="M218.91 153.8l11.92-5.37.01.01-11.92 5.37-.01-.01z"/><path d="M218.92 153.81l11.92-5.37-11.84 5.4zm.08.03l11.92-5.37-11.92 5.4zm0 .03l11.92-5.37-11.92 5.41zm0 .04l12-5.37-11.92 5.46zm.08.09l11.92-5.42-11.88 5.42zm.04 0l11.88-5.38-11.84 5.38zm.04 0l11.92-5.37-11.92 5.37zm.04.08l11.92-5.37-11.92 5.37zm.03.04l11.92-5.37-11.92 5.37zm.03.04l11.92-5.37-11.92 5.37zm.03.04l11.92-5.37-11.92 5.37zm.02.03l11.92-5.37-11.92 5.37zm.03.03l11.92-5.37-11.92 5.37zm.02.03l11.92-5.37-11.92 5.37zm.02.03l11.92-5.37-11.92 5.37zm.01.02l11.92-5.34-11.92 5.37zm.02.03l11.92-5.37-11.92 5.37zm.02.02l11.91-5.39-11.92 5.37z"/><path d="M219.44 154.42l11.92-5.42-11.92 5.37zm.02.02l11.92-5.37-11.92 5.37zm.01.03l11.92-5.37-11.92 5.37zm.02.03l11.92-5.37-11.92 5.37zm.01.02l11.92-5.37-11.92 5.37zm.02.04l11.92-5.37-11.92 5.37zm.02.03l11.92-5.37v.05l-11.92 5.37v-.05zm.03.05l11.92-5.37.08.17-11.92 5.37-.08-.17zm.08.17l11.92-5.37-11.92 5.37zm.02.04l11.92-5.37-11.92 5.37zm.02.04l11.92-5.37-11.92 5.37zm.01.03l11.92-5.37-11.92 5.37zm.01.03l11.92-5.37-11.91 5.42zm.01.05l11.92-5.37-11.9 5.37zm.02 0l11.92-5.37-11.91 5.37zm.01 0l11.92-5.37-11.92 5.37zm.01.05l11.92-5.37-11.92 5.37zm0 .03l11.92-5.37-11.92 5.37zm.01.02l11.92-5.37-11.92 5.37zm.01.03l11.92-5.37-11.92 5.37zm.01.03l11.92-5.37-11.92 5.37zm.01.03l11.92-5.37-11.92 5.37zm.01.03l11.92-5.37-11.92 5.37zm.01.03l11.92-5.37-11.92 5.37zm.01.03l11.92-5.37-11.92 5.37zm.02.04l11.91-5.32-11.92 5.37z"/><path d="M219.86 155.36l11.91-5.36-11.92 5.37zm.01.04l11.91-5.4v.05l-11.92 5.37v-.05zm.01.05l11.92-5.37-11.92 5.37z"/></g><path d="M207 126.59l11.92-5.37a3.28 3.28 0 0 1 .61 1.85l-11.92 5.37a3.28 3.28 0 0 0-.61-1.85z" fill="#acdced"/><g style="isolation:isolate" fill="#acdced" clip-path="url(#O)"><path d="M206.97 126.59l11.92-5.37v.01l-11.92 5.37v-.01zm.03.01l11.92-5.37-11.92 5.39zm0 .02l11.92-5.37-11.92 5.4zm0 .03l11.92-5.37-11.92 5.4zm0 .03l11.92-5.37L207 126.7zm0 .02l12-5.37-11.92 5.37zm.06.03l11.94-5.37-11.92 5.37zm.02.02l11.92-5.37-11.92 5.37zm.01.03l11.91-5.37-11.92 5.37zm.02.03l11.89-5.37-11.92 5.37zm.02.03l11.87-5.37-11.92 5.37zm.01.03l11.92-5.37-11.92 5.37zm.03.04l11.92-5.37-11.92 5.37zm.02.04l11.92-5.37.09.17-11.92 5.37-.09-.17zm.08.17l11.92-5.37-11.92 5.37zm.03.05l11.92-5.37-11.92 5.37zm.01.04l11.92-5.37-11.92 5.37zm.02.03l11.92-5.37-11.92 5.37zm.01.03l11.92-5.37-11.92 5.37zm.01.03l11.92-5.37-11.92 5.37zm.01.03l11.92-5.33-11.92 5.37z"/><path d="M207.37 127.35l11.92-5.35-11.92 5.37zm.01.03L219.3 122l-11.92 5.37z"/><path d="M207.39 127.41l11.92-5.41-11.92 5.37zm.01.02l11.92-5.37-11.92 5.37zm.01.03l11.92-5.37-11.92 5.37zm.01.03l11.92-5.37-11.92 5.37zm.01.02l11.92-5.37-11.92 5.37zm.01.04l11.92-5.37-11.92 5.37zm.01.03l11.92-5.37-11.92 5.37zm.01.03l11.92-5.37-11.92 5.37zm.01.04l11.92-5.37-11.92 5.37zm.01.04l11.92-5.37-11.92 5.37zm.02.04l11.92-5.37-11.92 5.37zm.01.05l11.92-5.37-11.92 5.37zm.01.05l11.92-5.37v.05l-11.92 5.37v-.05zm.01.05l11.92-5.37v.06l-11.92 5.37v-.06zm.01.06l11.92-5.37v.06L207.55 128v-.06zm.01.06l11.92-5.37v.06l-11.92 5.37V128z"/><path d="M207.56 128.05l11.92-5.37v.06l-11.92 5.37v-.06zm.01.06l11.92-5.37v.05l-11.92 5.37v-.05zm.01.05l11.92-5.37v.05l-11.92 5.37v-.05zm0 .06l11.92-5.37v.05l-11.92 5.37v-.05zm0 .05l11.92-5.37v.1l-11.92 5.37v-.05z"/><path d="M207.58 128.32L219.5 123v.05l-11.92 5.37v-.05z"/><path d="M207.58 128.38L219.5 123v.05l-11.92 5.37v-.05zm0 .05l11.92-5.37-11.92 5.37z"/></g><path fill="#91d4f1" d="M215.57 143.94l11.91-5.37-1.73 2.61-11.91 5.37 1.73-2.61zm-5.99-6.91l11.92-5.37 3.12.51-11.91 5.37-3.13-.51z"/><path d="M215.4 142.26l11.92-5.37a2.06 2.06 0 0 1 .17 1.67l-11.92 5.37a2.06 2.06 0 0 0-.17-1.67z" fill="#acdced"/><g style="isolation:isolate" fill="#acdced" clip-path="url(#P)"><path d="M215.4 142.26l11.92-5.37-11.92 5.37zm.01.02l11.92-5.37-11.92 5.37zm.01.03l11.92-5.37-11.92 5.37zm.01.04l11.92-5.35-11.92 5.37zm.02.02l11.91-5.37-11.92 5.37zm.01.03l11.91-5.4-11.92 5.37zm.01.03l11.92-5.37-11.92 5.37zm.01.02l11.92-5.37-11.92 5.37zm.01.03l11.92-5.37-11.92 5.37zm.01.03l11.92-5.37-11.92 5.37zm.01.02l11.92-5.37-11.92 5.37zm.01.03l11.92-5.37-11.92 5.37zm.01.03l11.92-5.37-11.92 5.37zm.01.03l11.92-5.37-11.92 5.37zm.01.03l11.92-5.37-11.92 5.37zm.01.04l11.92-5.37-11.92 5.37zm.01.04l11.92-5.37-11.92 5.37zm.01.03l11.92-5.37-11.92 5.37zm.01.05l11.92-5.37-11.92 5.37zm.01.05l11.92-5.37v.05l-11.92 5.37v-.05zm.02.05l11.92-5.37v.05L215.63 143v-.05zm.01.09l11.92-5.37v.06L215.64 143z"/><path d="M215.64 143l11.92-5.37v.06l-11.92 5.37V143zm.01.08l11.92-5.37v.06l-11.92 5.37v-.06zm.01.06l11.92-5.37v.06l-11.92 5.37v-.06z"/><path d="M215.67 143.19l11.92-5.37v.06l-11.92 5.37v-.06z"/><path d="M215.67 143.25l11.92-5.37v.06l-11.92 5.37v-.06z"/><path d="M215.68 143.3l11.92-5.37v.07l-11.92 5.37v-.06z"/><path d="M215.68 143.36L227.6 138l-11.92 5.37v-.05z"/><path d="M215.68 143.41L227.6 138v.05l-11.92 5.37v-.05zm0 .06l11.92-5.37v.05l-11.92 5.37v-.05z"/><path d="M215.68 143.52l11.92-5.37v.05l-11.92 5.37v-.05zm0 .06l11.92-5.37v.06l-11.92 5.37v-.06z"/><path d="M215.67 143.63l11.92-5.37v.06l-11.92 5.37v-.06z"/><path d="M215.66 143.69l11.92-5.37v.06l-11.92 5.37v-.06z"/><path d="M215.65 143.75l11.92-5.37v.06l-11.92 5.37v-.06z"/><path d="M215.63 143.81l11.92-5.37v.07l-11.92 5.37v-.07z"/><path d="M215.6 143.89l11.92-5.37v.05l-11.92 5.37v-.05z"/></g><path d="M212.7 137.54l11.92-5.37a2.14 2.14 0 0 1 1.14 1.25l-11.92 5.37a2.14 2.14 0 0 0-1.14-1.25z" fill="#acdced"/><g style="isolation:isolate" fill="#acdced" clip-path="url(#Q)"><path d="M212.71 137.54l11.91-5.37-11.91 5.37zm0 0l11.92-5.37-11.92 5.37zm.05.02l11.92-5.37-11.92 5.37zm.04.01l11.92-5.37-11.92 5.37zm.05.02l11.92-5.37-11.92 5.37zm.04.02l11.92-5.37-11.92 5.37zm.04.02l11.92-5.37-11.85 5.4zm.07.03l11.92-5.37-11.92 5.39zm0 .02l11.92-5.37-11.92 5.37zm.05.03l11.95-5.37-11.92 5.37zm.04.03l11.91-5.37-11.92 5.37zm.04.04l11.87-5.37-11.92 5.37zm.04.03l11.92-5.37-11.92 5.37zm.04.04l11.92-5.37-11.92 5.37zm.04.04l11.92-5.37-11.92 5.37zm.04.04l11.92-5.37-11.88 5.44zm.04.07l11.92-5.37-11.88 5.37zm.04 0l11.92-5.37-11.92 5.37zm.04.06l11.92-5.37-11.92 5.37zm.03.04l11.92-5.37-11.92 5.37zm.02.04l11.92-5.37-11.92 5.37zm.03.03l11.92-5.37-11.92 5.37zm.02.03l11.92-5.37-11.92 5.37zm.02.03l11.92-5.37-11.92 5.37zm.02.03l11.92-5.37-11.92 5.37zm.02.03l11.92-5.37-11.92 5.37zm.02.02l11.92-5.37-11.92 5.37zm.01.03l11.92-5.34-11.92 5.37z"/><path d="M213.62 138.36l11.91-5.36-11.92 5.37zm.01.03l11.92-5.39-11.92 5.37z"/><path d="M213.65 138.41l11.91-5.41-11.92 5.37zm.01.03l11.92-5.37-11.92 5.37zm.02.03l11.92-5.37-11.9 5.4zm.02.03l11.92-5.37-11.92 5.37zm.02.04l11.92-5.37-11.92 5.37zm.02.05l11.92-5.37.08.16-11.92 5.37-.08-.16zm.09.16l11.92-5.37-11.92 5.37z"/></g><path d="M218.91 153.8a3.24 3.24 0 0 1 1 1.7l.8 3.44c.16.68 0 1.16-.31 1.19l-2.87.26c.21 1.38.37 2.72.46 4l3.41 4.66a3.32 3.32 0 0 1 .65 1.85l-.1 2.82c0 .45-.21.67-.51.6a.74.74 0 0 1-.22-.09l-3.5-2.13a19.81 19.81 0 0 1-.72 2.9l2.65 5.68a2.13 2.13 0 0 1 .21 1.69l-1 1.7a.35.35 0 0 1-.41.18 1.25 1.25 0 0 1-.61-.45l-3.52-4.15a7 7 0 0 1-1.71 1.26l1.44 5.73c.18.68.07 1.19-.26 1.25l-1.69.29a.41.41 0 0 1-.17 0 1.89 1.89 0 0 1-1-1l-3-5.47a10.1 10.1 0 0 1-1.18-.17c-.41-.09-.82-.25-1.24-.39v4.78c0 .48-.2.72-.51.65a.74.74 0 0 1-.19-.08l-2.1-1.16a2.84 2.84 0 0 1-1.07-1.55l-1.79-5.79a32.42 32.42 0 0 1-2.73-2.28l-1.48 3a.35.35 0 0 1-.43.21 1.2 1.2 0 0 1-.58-.4l-2.16-2.42a3.43 3.43 0 0 1-.8-1.83l-.46-5.18c-.87-1.16-1.72-2.37-2.55-3.64l-2.69.71a.38.38 0 0 1-.19 0 1.85 1.85 0 0 1-1-.94l-1.78-3.28a2.71 2.71 0 0 1-.4-1.79l1-3.64a73.35 73.35 0 0 1-1.93-4.34l-3.44-1.71a2.75 2.75 0 0 1-1.08-1.51l-1.2-3.53c-.24-.7-.21-1.29.07-1.46l2.36-1.48a67.32 67.32 0 0 1-1-4.3l-3.58-3.83a3.53 3.53 0 0 1-.83-1.83l-.35-3.19c-.07-.61.14-1 .5-.88l3.29 1a32.52 32.52 0 0 1 .11-3.54l-3.1-5.28a2.82 2.82 0 0 1-.44-1.81l.55-2.31c.07-.29.25-.42.48-.36a1 1 0 0 1 .42.24l3.58 3.2a11 11 0 0 1 1.23-2.12l-2.09-5.83c-.25-.69-.24-1.31 0-1.5l1.36-1a.35.35 0 0 1 .3-.05 1.56 1.56 0 0 1 .8.69l3.32 4.92a7.66 7.66 0 0 1 2.11-.36l-.72-5.37c-.08-.64.11-1 .49-.92l1.94.44a2.18 2.18 0 0 1 1.13 1.3l2.47 5.77A20.67 20.67 0 0 1 193 117l.78-4c.06-.31.25-.45.49-.39a.93.93 0 0 1 .38.21l2.18 1.83a3.34 3.34 0 0 1 1 1.73L199 122c.91.94 1.82 1.94 2.71 3l2.13-1.89a.35.35 0 0 1 .33-.07 1.52 1.52 0 0 1 .77.65l2 2.9a3.28 3.28 0 0 1 .61 1.85l-.3 4.5c.8 1.31 1.55 2.69 2.3 4.09l3.13.51a2.14 2.14 0 0 1 1.14 1.25l1.55 3.47a2.06 2.06 0 0 1 .17 1.67l-1.73 2.61c.54 1.45 1 2.92 1.49 4.41zM203 168.11c6.12 1.41 8.51-6.44 5.33-17.53S197.62 129.37 191.5 128s-8.5 6.44-5.33 17.53 10.71 21.17 16.83 22.58z" fill="url(#R)"/><path fill="#addcec" d="M213.85 138.8l11.91-5.37 1.55 3.46-11.91 5.37-1.55-3.46z"/></g><circle cx="227.23" cy="131.02" r="1" fill="#addcec"/><circle cx="200.23" cy="109.42" r="1.75" fill="#addcec"/><circle cx="198.47" cy="111.18" r="1" fill="#addcec"/><circle cx="202.49" cy="105.64" r="1" fill="#addcec"/><circle cx="194.66" cy="107.2" r=".81" fill="#addcec"/><circle cx="197.66" cy="103.25" r=".59" fill="#addcec"/><circle cx="193.25" cy="101.32" r=".37" fill="#addcec"/><circle cx="196.25" cy="98.24" r=".37" transform="rotate(-63.9 196.252 98.24)" fill="#addcec"/><circle cx="231.61" cy="134.64" r=".87" fill="#addcec"/><circle cx="232.8" cy="127.87" r=".61" fill="#addcec"/><circle cx="229.35" cy="125.05" r=".29" fill="#addcec"/><circle cx="233.26" cy="121.68" r=".16" fill="#addcec"/><circle cx="229.41" cy="117.99" r=".16" fill="#addcec"/><circle cx="226.34" cy="135.86" r="2.5" fill="#addcec"/><path d="M264.62 183.52a8.93 8.93 0 0 1 1.11-.15v-4.27a13.15 13.15 0 0 0-2.45.37zm-2.76 1.1a8.87 8.87 0 0 1 1.3-.65l-1.33-4a13.11 13.11 0 0 0-2.43 1.22zm-4.32 7.63v-.68l-4.18-.95a13 13 0 0 0 .2 4.43l4.14-1a9 9 0 0 1-.16-1.8zm-3.87-3.15l4.15.94a8.84 8.84 0 0 1 .67-1.8l-3.38-2.68a13.08 13.08 0 0 0-1.44 3.54zm13.61-5.73a8.91 8.91 0 0 1 7.95 7.27l4.18-.79a13.17 13.17 0 0 0-12.13-10.75zm-7.97 3.56a9 9 0 0 1 1.3-1.41l-2.46-3.52a13.24 13.24 0 0 0-2.17 2.25zm12.77 12.23a8.88 8.88 0 0 1-5.62 2l-.18 4.25h.22a13.11 13.11 0 0 0 8.71-3.3zm3.29-6.98v.07a8.87 8.87 0 0 1-2.19 5.85l3.08 2.94a13.12 13.12 0 0 0 3.36-8.79v-.86zM264.89 201a8.88 8.88 0 0 1-4.12-1.91l-3.08 3a13.11 13.11 0 0 0 7 3.23zm-5.22-3a8.9 8.9 0 0 1-1.49-2.46l-4.18 1a13.15 13.15 0 0 0 2.6 4.45zm5.72-7.27c0 1.64-.86 2.46-1.87 2.46s-1.81-.78-1.82-2.35.85-2.43 1.88-2.43 1.81.84 1.81 2.32zm-2.85.07c0 1 .35 1.75 1 1.75s1-.74 1-1.77-.28-1.74-1-1.74-1.01.78-1.01 1.76zm.91 5.66l4.58-8.06h.67l-4.58 8.06zm7-2.51c0 1.64-.86 2.46-1.86 2.46s-1.81-.78-1.82-2.34.85-2.45 1.88-2.45 1.81.85 1.81 2.38zm-2.85.07c0 1 .37 1.75 1 1.75s1-.74 1-1.78-.28-1.74-1-1.74-.99.75-.99 1.75z" fill="#fff"/></g></svg>