<svg xmlns="http://www.w3.org/2000/svg" viewBox="0 0 400 225"><g style="isolation:isolate"><path fill="#4c9076" d="M0 0h400v225H0z" data-name="Calque 2"/><g data-name="Calque 1"><g data-name="&lt;Groupe&gt;" fill="none" stroke="#f8ac16" stroke-miterlimit="10" stroke-width="3"><path d="M305.46 114.74v5.5"/><path stroke-dasharray="8.591907501220703,8.591907501220703" d="M305.46 128.83v30.07"/><path d="M305.46 163.2v5.5h-5.5"/><path stroke-dasharray="12.768314361572266,12.768314361572266" d="M287.2 168.7h-19.16"/><path d="M261.66 168.7h-5.5"/></g><g data-name="&lt;Groupe&gt;"><path data-name="&lt;Rectangle&gt;" fill="#d5d5d4" d="M172.41 182.02h55.43v21.45h-55.43z"/><ellipse data-name="&lt;Tracé&gt;" cx="200.12" cy="211.78" rx="89.01" ry="3.89" style="mix-blend-mode:multiply" fill="#939599" opacity=".61"/><path data-name="&lt;Tracé&gt;" d="M247.12 210.41h-94a8.83 8.83 0 0 1 8.83-8.83h76.33a8.83 8.83 0 0 1 8.83 8.83z" fill="#fbfbfb"/><path data-name="&lt;Rectangle&gt;" fill="#9babc1" d="M172.41 182.02h55.43v10.72h-55.43z"/><g data-name="&lt;Groupe&gt;"><path data-name="&lt;Tracé&gt;" d="M293.15 76.13v102c0 5.56-4 10.06-9 10.06H117.32c-5 0-9-4.5-9-10.06v-102c0-5.56 4-10.06 9-10.06h166.84c4.96 0 8.99 4.5 8.99 10.06z" fill="#b0bfd4"/><path data-name="&lt;Tracé&gt;" d="M293.15 75.93v100c0 5.45-4 9.86-9 9.86H117.32c-5 0-9-4.41-9-9.86v-100c0-5.45 4-9.86 9-9.86h166.84c4.96 0 8.99 4.41 8.99 9.86z" fill="#fbfbfb"/><path data-name="&lt;Tracé&gt;" d="M117.32 177c-.5 0-1.42-.91-1.42-2.41V76c0-1.49.92-2.41 1.42-2.41h166.84c.5 0 1.42.91 1.42 2.41v98.53c0 1.49-.92 2.41-1.42 2.41z" fill="#2e4a61"/></g><path data-name="&lt;Tracé&gt;" fill="none" stroke="#f8ac16" stroke-miterlimit="10" stroke-width="5" d="M127.58 84.15h25.55"/><path data-name="&lt;Tracé&gt;" fill="none" stroke="#fdf8c9" stroke-miterlimit="10" stroke-width="5" d="M127.58 94.35h104.97m-104.97 10.19h69.54"/><path data-name="&lt;Tracé&gt;" fill="none" stroke="#f8ac16" stroke-miterlimit="10" stroke-width="5" d="M203.35 104.54h27.1m-102.87 10.2h25.55"/><path data-name="&lt;Tracé&gt;" fill="none" stroke="#fdf8c9" stroke-miterlimit="10" stroke-width="5" d="M159.97 114.74h105.75m-138.14 10.2h138.14m-138.14 10.19h76.84"/><path data-name="&lt;Tracé&gt;" fill="none" stroke="#f8ac16" stroke-miterlimit="10" stroke-width="5" d="M210.25 135.13h27.3m-109.97 10.2h25.55"/><path data-name="&lt;Tracé&gt;" fill="none" stroke="#fdf8c9" stroke-miterlimit="10" stroke-width="5" d="M159.48 145.33h98.78m-130.68 10.2h130.68m-130.68 10.19h71.68"/><path data-name="&lt;Tracé&gt;" fill="none" stroke="#f8ac16" stroke-miterlimit="10" stroke-width="5" d="M206.87 165.72h26.26"/><path data-name="&lt;Tracé&gt;" fill="none" stroke="#fdf8c9" stroke-miterlimit="10" stroke-width="5" d="M162.85 84.15h47.45"/></g><g data-name="&lt;Groupe&gt;"><rect data-name="&lt;Rectangle&gt;" x="234.38" y="48.63" width="77.42" height="57.98" rx="12.03" ry="12.03" style="mix-blend-mode:multiply" fill="#939599" opacity=".61"/><rect data-name="&lt;Rectangle&gt;" x="239.97" y="45.5" width="77.42" height="57.98" rx="12.03" ry="12.03" fill="#f8ac16"/><path d="M248.6 76.58v-2.2l12.53-5.29v2.31l-9.93 4.08 9.93 4.1v2.32zm28.68-9.77h2.58v18h-2.58V77h-10.13v7.84h-2.58v-18h2.58v7.76h10.13zm8.58 6.19v1.51a4.72 4.72 0 0 1 3.57-1.74 3.93 3.93 0 0 1 2.06.57 3.74 3.74 0 0 1 1.45 1.57 7.52 7.52 0 0 1 .5 3.17v6.79h-2.35v-6.8a4.63 4.63 0 0 0-.55-2.6 2.12 2.12 0 0 0-1.86-.78 3.38 3.38 0 0 0-2.83 1.66v8.48h-2.4V73zM309 76.57l-12.5 5.33v-2.31l9.92-4.1-9.92-4.08v-2.32l12.5 5.3z" data-name="&lt;Groupe&gt;" fill="#fff"/></g><g data-name="&lt;Groupe&gt;"><g data-name="&lt;Groupe&gt;"><path data-name="&lt;Tracé transparent&gt;" d="M213.84 26.53a10.81 10.81 0 1 0 10.81 10.81 10.81 10.81 0 0 0-10.81-10.81zm0 15.06a4.26 4.26 0 1 1 4.26-4.26 4.26 4.26 0 0 1-4.26 4.26z" style="mix-blend-mode:multiply" fill="#939599" opacity=".61"/><path data-name="&lt;Tracé transparent&gt;" d="M236 40.64V34h-4.69a17.71 17.71 0 0 0-2.79-6.73l3.34-3.27-4.67-4.67-3.31 3.31a17.71 17.71 0 0 0-6.73-2.79v-4.69h-6.61v4.69a17.71 17.71 0 0 0-6.73 2.79l-3.31-3.31-4.68 4.67 3.31 3.31a17.71 17.71 0 0 0-2.79 6.69h-4.69v6.61h4.69a17.71 17.71 0 0 0 2.79 6.73l-3.31 3.31 4.67 4.67L203.8 52a17.71 17.71 0 0 0 6.73 2.79v4.69h6.61v-4.65a17.71 17.71 0 0 0 6.73-2.83l3.31 3.31 4.67-4.67-3.31-3.31a17.71 17.71 0 0 0 2.79-6.73zm-9.15-3.31a13 13 0 1 1-13-13 13 13 0 0 1 13.02 13.01z" style="mix-blend-mode:multiply" fill="#939599" opacity=".61"/><path data-name="&lt;Tracé transparent&gt;" d="M215.73 23.38a10.81 10.81 0 1 0 10.81 10.81 10.81 10.81 0 0 0-10.81-10.81zm0 15.06a4.26 4.26 0 1 1 4.27-4.26 4.26 4.26 0 0 1-4.27 4.26z" fill="#f8ac16"/><path data-name="&lt;Tracé transparent&gt;" d="M237.91 37.49v-6.61h-4.69a17.71 17.71 0 0 0-2.79-6.73l3.31-3.31-4.67-4.67-3.31 3.31a17.71 17.71 0 0 0-6.76-2.79V12h-6.61v4.69a17.71 17.71 0 0 0-6.73 2.79l-3.31-3.31-4.67 4.67 3.32 3.31a17.71 17.71 0 0 0-2.79 6.73h-4.69v6.61h4.69a17.71 17.71 0 0 0 2.79 6.73l-3.31 3.31 4.67 4.67 3.31-3.31a17.71 17.71 0 0 0 6.73 2.79v4.69h6.6v-4.69a17.71 17.71 0 0 0 6.73-2.79l3.31 3.31 4.67-4.67-3.31-3.31a17.71 17.71 0 0 0 2.79-6.73zm-9.15-3.31a13 13 0 1 1-13-13 13 13 0 0 1 13 13z" fill="#f8ac16"/></g><path data-name="&lt;Tracé transparent&gt;" d="M216.34 49.14a15 15 0 1 0 0-29.9m-.61 8.58a6.37 6.37 0 0 1 6.37 6.37" fill="none" stroke="#fff" stroke-linecap="round" stroke-linejoin="round" stroke-width="2"/></g><g data-name="&lt;Groupe&gt;"><g data-name="&lt;Groupe&gt;"><path data-name="&lt;Tracé transparent&gt;" d="M252.88 16.27a8.32 8.32 0 1 0 8.32 8.32 8.32 8.32 0 0 0-8.32-8.32zm0 11.6a3.28 3.28 0 1 1 3.28-3.28 3.28 3.28 0 0 1-3.28 3.28z" style="mix-blend-mode:multiply" fill="#939599" opacity=".61"/><path data-name="&lt;Tracé transparent&gt;" d="M270 27.14V22h-3.61a13.63 13.63 0 0 0-2.15-5.18l2.55-2.55-3.6-3.6-2.55 2.55a13.63 13.63 0 0 0-5.18-2.15V7.51h-5.09v3.61a13.63 13.63 0 0 0-5.18 2.15l-2.55-2.55-3.6 3.6 2.55 2.55a13.63 13.63 0 0 0-2.18 5.13h-3.61v5.09h3.61a13.63 13.63 0 0 0 2.15 5.18l-2.56 2.6 3.6 3.6 2.55-2.55a13.63 13.63 0 0 0 5.18 2.15v3.61h5.09v-3.62a13.63 13.63 0 0 0 5.18-2.15l2.55 2.55 3.6-3.6-2.55-2.55a13.63 13.63 0 0 0 2.15-5.18zm-7-2.54a10 10 0 1 1-10-10 10 10 0 0 1 9.91 9.99z" style="mix-blend-mode:multiply" fill="#939599" opacity=".61"/><path data-name="&lt;Tracé transparent&gt;" d="M254.34 13.84a8.32 8.32 0 1 0 8.32 8.32 8.32 8.32 0 0 0-8.32-8.32zm0 11.6a3.28 3.28 0 1 1 3.28-3.28 3.28 3.28 0 0 1-3.28 3.28z" fill="#f8ac16"/><path data-name="&lt;Tracé transparent&gt;" d="M271.42 24.71v-5.09h-3.61a13.63 13.63 0 0 0-2.15-5.18l2.55-2.55-3.6-3.6-2.55 2.55a13.63 13.63 0 0 0-5.18-2.15V5.08h-5.09v3.61a13.63 13.63 0 0 0-5.18 2.15l-2.55-2.55-3.6 3.6 2.54 2.55a13.63 13.63 0 0 0-2.15 5.18h-3.61v5.09h3.61a13.63 13.63 0 0 0 2.15 5.18l-2.55 2.55 3.6 3.6 2.55-2.55a13.63 13.63 0 0 0 5.18 2.15v3.61h5.09v-3.62a13.63 13.63 0 0 0 5.18-2.15l2.57 2.52 3.6-3.6-2.55-2.55a13.63 13.63 0 0 0 2.15-5.18zm-7-2.54a10 10 0 1 1-10-10 10 10 0 0 1 9.95 9.99z" fill="#f8ac16"/></g><path data-name="&lt;Tracé transparent&gt;" d="M254.81 33.68a11.51 11.51 0 0 0 0-23m-.47 6.61a4.91 4.91 0 0 1 4.91 4.91" fill="none" stroke="#fff" stroke-linecap="round" stroke-linejoin="round" stroke-width="2"/></g><g data-name="&lt;Groupe&gt;" fill="none" stroke="#f8ac16" stroke-miterlimit="10" stroke-width="3"><path d="M103.19 120.63h-5.5m-2.03 0h-5.5v-5.5"/><path stroke-dasharray="10.327315330505371,10.327315330505371" d="M90.16 104.8V48"/><path d="M90.16 42.84v-5.5h5.5"/><path stroke-dasharray="11.947919845581055,11.947919845581055" d="M107.6 37.34h65.72"/><path d="M179.29 37.34h5.5"/></g><g data-name="&lt;Groupe&gt;"><g data-name="&lt;Groupe&gt;"><rect data-name="&lt;Rectangle&gt;" x="61.15" y="113.63" width="77.42" height="46.74" rx="10.8" ry="10.8" style="mix-blend-mode:multiply" fill="#939599" opacity=".61"/><rect data-name="&lt;Rectangle&gt;" x="66.74" y="109.21" width="77.42" height="46.74" rx="10.8" ry="10.8" fill="#f8ac16"/></g><path d="M80.59 125.15H75v-2h13.63v2H83v16.4h-2.4zm12.46-2.02v18.42h-2.37v-18.42zm7.65 2.02h-5.6v-2h13.64v2h-5.63v16.4h-2.4zm10.09-2.02h2.38v16.42H121v2h-10.21zm22.43 9.78h-7.16v6.64h8v2h-10.38v-18.42h9.95v2h-7.57v5.82h7.16z" data-name="&lt;Groupe&gt;" fill="#fff"/></g><g data-name="&lt;Groupe&gt;"><rect data-name="&lt;Rectangle&gt;" x="235.87" y="160.51" width="41.77" height="36.37" rx="7" ry="7" style="mix-blend-mode:multiply" fill="#939599" opacity=".61"/><rect data-name="&lt;Rectangle&gt;" x="238.88" y="157.07" width="41.77" height="36.37" rx="7" ry="7" fill="#f8ac16"/><g data-name="&lt;Groupe&gt;"><rect data-name="&lt;Rectangle&gt;" x="253.93" y="163.97" width="11.69" height="14.77" rx="5.17" ry="5.17" fill="none" stroke="#fff" stroke-miterlimit="10" stroke-width="3"/><rect data-name="&lt;Rectangle&gt;" x="250.78" y="171.35" width="17.98" height="15.19" rx="4.05" ry="4.05" fill="#fff"/><g data-name="&lt;Groupe&gt;" fill="#f8ac16"><circle data-name="&lt;Tracé&gt;" cx="259.77" cy="178.14" r="2.49"/><path data-name="&lt;Rectangle&gt;" d="M258.4 178.93h2.73v3.31h-2.73z"/></g></g></g></g></g></svg>