<svg xmlns="http://www.w3.org/2000/svg" viewBox="0 0 400 225"><defs><linearGradient id="a" data-name="Dégradé sans nom 6" x1="43.75" y1="268.75" x2="356.25" y2="-43.75" gradientUnits="userSpaceOnUse"><stop offset="0" stop-color="#95c11f"/><stop offset=".03" stop-color="#8dbe20"/><stop offset=".18" stop-color="#62af27"/><stop offset=".34" stop-color="#3fa32c"/><stop offset=".51" stop-color="#239931"/><stop offset=".67" stop-color="#109234"/><stop offset=".83" stop-color="#048e35"/><stop offset="1" stop-color="#008d36"/></linearGradient><clipPath id="b"><circle cx="133.78" cy="90.4" r="9.27" transform="rotate(-75.04 133.78 90.4)" fill="none"/></clipPath><clipPath id="c"><path d="M131.22 181.8l-6.63-6.07a2 2 0 0 1-.1-2.91L142 154.29a2.05 2.05 0 0 1 2.86-.1l6.63 6.07a2 2 0 0 1 .1 2.91l-17.51 18.53a2.05 2.05 0 0 1-2.86.1z" fill="none"/></clipPath></defs><path fill="url(#a)" d="M0 0h400v225H0z"/><circle cx="200.6" cy="112.5" r="104.13" fill="#334a5b" opacity=".5"/><path d="M214.67 143.13h-28.13S188.81 183 174.83 183h51.54c-13.98 0-11.7-39.87-11.7-39.87z" fill="#607384"/><path d="M290 41H111.24a5.14 5.14 0 0 0-5.14 5.14v114.52a4.48 4.48 0 0 0 4.48 4.48h180a4.48 4.48 0 0 0 4.48-4.48V46.12A5.14 5.14 0 0 0 290 41z" fill="#334a5b"/><path fill="#fff" d="M112.23 46.91h176.75v94.9H112.23z"/><path fill="#607384" d="M112.16 141.02h176.88v5.54H112.16z"/><circle cx="200.6" cy="155.61" r="4.65" fill="#607384"/><path fill="#334a5b" d="M174.3 182.24h52.6v1.79h-52.6zm16.52-108.37h19.57a11.24 11.24 0 0 1 11.24 11.24v36.13h-42V85.11a11.24 11.24 0 0 1 11.19-11.24z"/><path fill="#fff" d="M180.79 81.53h39.62v38.32h-39.62z"/><path d="M185.52 76.47a.83.83 0 0 1-1.17 1.17.83.83 0 0 1 1.17-1.17z" fill="#ffd462"/><circle cx="182.52" cy="77.05" r=".8" fill="#ea5344"/><path d="M187.93 76.47a.83.83 0 0 1-1.17 1.17.83.83 0 0 1 1.17-1.17z" fill="#62bfb5"/><path d="M217.84 78.16h-26.55a1.12 1.12 0 0 1-1.11-1.16 1.12 1.12 0 0 1 1.11-1.11h26.55A1.12 1.12 0 0 1 219 77a1.12 1.12 0 0 1-1.16 1.16z" fill="#425c6e"/><path d="M194.43 93.56l-.8.49a3.17 3.17 0 0 0-.73-.53l.22-.91a.16.16 0 0 0-.12-.19l-1.24-.3a.16.16 0 0 0-.19.12l-.22.91a3.17 3.17 0 0 0-.89.14l-.49-.8a.16.16 0 0 0-.21-.05l-1.09.67a.16.16 0 0 0-.05.21l.49.8a3.17 3.17 0 0 0-.53.73l-.91-.22a.16.16 0 0 0-.19.12L187.2 96a.16.16 0 0 0 .12.19l.91.22a3.17 3.17 0 0 0 .14.89l-.8.49a.16.16 0 0 0-.05.21l.67 1.09a.16.16 0 0 0 .21.05l.8-.49a3.17 3.17 0 0 0 .73.53l-.22.91a.16.16 0 0 0 .12.19l1.24.3a.16.16 0 0 0 .19-.12l.22-.91a3.17 3.17 0 0 0 .89-.14l.49.8a.16.16 0 0 0 .21.05l1.09-.67a.16.16 0 0 0 .05-.21l-.49-.8a3.17 3.17 0 0 0 .53-.73l.91.22a.16.16 0 0 0 .19-.12l.3-1.24a.16.16 0 0 0-.12-.19l-.91-.22a3.17 3.17 0 0 0-.14-.89l.8-.49a.16.16 0 0 0 .05-.21l-.67-1.09a.16.16 0 0 0-.23-.06zm-2 4.44a1.94 1.94 0 1 1 .63-2.67 1.94 1.94 0 0 1-.62 2.67zm1.81-10.71l-.45.28a1.81 1.81 0 0 0-.42-.3l.12-.52a.09.09 0 0 0-.07-.11l-.71-.17a.09.09 0 0 0-.11.07l-.12.52a1.81 1.81 0 0 0-.51.08l-.28-.45a.09.09 0 0 0-.12 0L191 87a.09.09 0 0 0 0 .12l.28.45a1.82 1.82 0 0 0-.3.42l-.52-.12a.09.09 0 0 0-.11.07l-.17.71a.09.09 0 0 0 .07.11l.52.12a1.81 1.81 0 0 0 .08.51l-.45.28a.09.09 0 0 0 0 .12l.38.62a.09.09 0 0 0 .12 0l.45-.28a1.81 1.81 0 0 0 .42.3l-.12.52a.09.09 0 0 0 .07.11l.71.17a.09.09 0 0 0 .11-.07l.12-.52a1.81 1.81 0 0 0 .51-.08l.28.45a.09.09 0 0 0 .12 0l.62-.38a.09.09 0 0 0 0-.12l-.28-.45a1.81 1.81 0 0 0 .3-.42l.52.12a.09.09 0 0 0 .11-.07l.17-.71a.09.09 0 0 0-.07-.11l-.52-.12a1.81 1.81 0 0 0-.08-.51l.45-.28a.09.09 0 0 0 0-.12l-.38-.62a.09.09 0 0 0-.17.07zm-1.14 2.54a1.11 1.11 0 1 1 .36-1.53 1.11 1.11 0 0 1-.36 1.53z" fill="#334a5b"/><path d="M188.5 87.81l-.63.39a2.51 2.51 0 0 0-.58-.42l.17-.72a.12.12 0 0 0-.09-.15l-1-.23a.12.12 0 0 0-.15.09l-.17.72a2.51 2.51 0 0 0-.7.11L185 87a.12.12 0 0 0-.17 0l-.86.53a.12.12 0 0 0 0 .17l.39.63a2.51 2.51 0 0 0-.42.58l-.72-.17a.12.12 0 0 0-.15.09l-.23 1a.12.12 0 0 0 .09.15l.72.17a2.51 2.51 0 0 0 .11.7l-.63.39a.12.12 0 0 0 0 .17l.53.86a.12.12 0 0 0 .17 0l.63-.39a2.51 2.51 0 0 0 .58.42l-.17.72a.12.12 0 0 0 .09.15l1 .23a.12.12 0 0 0 .15-.09l.17-.72a2.51 2.51 0 0 0 .7-.11l.39.63a.12.12 0 0 0 .17 0l.86-.53a.12.12 0 0 0 0-.17l-.39-.63a2.51 2.51 0 0 0 .42-.58l.72.17a.12.12 0 0 0 .15-.09l.23-1a.12.12 0 0 0-.09-.15l-.72-.17a2.51 2.51 0 0 0-.11-.7l.63-.39a.12.12 0 0 0 0-.17l-.53-.86a.12.12 0 0 0-.21-.03zm-1.58 3.51a1.53 1.53 0 1 1 .5-2.11 1.53 1.53 0 0 1-.49 2.11z" fill="#62bfb5"/><path d="M204.74 93l-3.31-2.81c-.35.39-2 2.21-2.08 2.3l-.09-.11c.09-.07 1.31-1.43 2.1-2.33V90l3.31 2.81 1.88-2.09 1.11.94 3-2.84 3.92 2.88 3.31-3.67.11.09-3.41 3.78-3.92-2.71-3 2.67-1.11-.94z" fill="#cfcece"/><ellipse cx="199.32" cy="92.46" rx=".29" ry=".28" transform="rotate(-3.84 199.082 92.383)" fill="#404040"/><ellipse cx="201.39" cy="90.17" rx=".29" ry=".28" transform="rotate(-3.84 201.25 90.067)" fill="#404040"/><ellipse cx="204.65" cy="92.88" rx=".29" ry=".28" transform="rotate(-3.84 204.441 92.861)" fill="#404040"/><ellipse cx="206.53" cy="90.79" rx=".29" ry=".28" transform="rotate(-3.83 206.553 90.893)" fill="#404040"/><ellipse cx="207.72" cy="91.62" rx=".29" ry=".28" transform="rotate(-3.84 207.474 91.47)" fill="#404040"/><ellipse cx="210.66" cy="88.96" rx=".29" ry=".28" transform="rotate(-3.83 210.66 88.934)" fill="#404040"/><ellipse cx="217.9" cy="88.08" rx=".29" ry=".28" transform="rotate(-3.84 217.747 87.932)" fill="#404040"/><ellipse cx="214.56" cy="91.72" rx=".29" ry=".28" transform="rotate(-3.84 214.335 91.7)" fill="#404040"/><path fill="#ea5344" d="M199.19 98.73l2.75-.76 1.64-.76 2.79 1.48 1.58-2.39 2.55.27 1.65-2.25 2.68.6 3.34-1.68v7.94h-18.93l-.05-2.45z"/><path d="M202 109.9h-18.94a.28.28 0 0 1-.28-.28.28.28 0 0 1 .28-.28H202a.28.28 0 0 1 .28.28.28.28 0 0 1-.28.28zm0 1.1h-18.94a.28.28 0 0 1-.28-.28.28.28 0 0 1 .28-.28H202a.28.28 0 0 1 .28.28.28.28 0 0 1-.28.28zm0 2.92h-18.94a.28.28 0 0 1-.28-.28.28.28 0 0 1 .28-.28H202a.28.28 0 0 1 .28.28.28.28 0 0 1-.28.28zm0 1.08h-18.94a.28.28 0 0 1-.28-.28.28.28 0 0 1 .28-.28H202a.28.28 0 0 1 .28.28.28.28 0 0 1-.28.28z" fill="#cfcece"/><rect x="206.6" y="108.73" width="11.57" height="8.4" rx="4.2" ry="4.2" fill="#cfcece"/><path d="M130.77 67.06h29.74a11.24 11.24 0 0 1 11.24 11.24v47.58h-52.21V78.29a11.24 11.24 0 0 1 11.23-11.23z" fill="#334a5b"/><path fill="#fff" d="M121.05 76.57h49.19v47.59h-49.19z"/><path d="M126.91 70.28a1 1 0 0 1-1.45 1.45 1 1 0 0 1 1.45-1.45z" fill="#ffd462"/><circle cx="123.19" cy="71.01" r=".99" fill="#ea5344"/><path d="M129.91 70.28a1 1 0 0 1-1.45 1.45 1 1 0 0 1 1.45-1.45z" fill="#62bfb5"/><path d="M167.05 72.39h-33A1.39 1.39 0 0 1 132.7 71a1.39 1.39 0 0 1 1.38-1.38h33a1.39 1.39 0 0 1 1.35 1.38 1.39 1.39 0 0 1-1.38 1.39z" fill="#425c6e"/><g clip-path="url(#b)"><circle cx="133.78" cy="90.4" r="9.27" transform="rotate(-75.04 133.78 90.4)" fill="#62bfb5"/><path fill="#ec6769" d="M133.78 90.4L142 78.38l-16.01 2.08 7.79 9.94z"/><path fill="#fff" d="M147.21 94.89l-13.48-4.62 12.36-5.77 1.12 10.39z"/><path fill="#ea5344" d="M133.78 90.4L142 78.38l-16.01 2.08 7.79 9.94z"/><path fill="#334a5b" d="M147.21 94.89l-13.43-4.49L142 78.38l5.21 16.51z"/></g><rect x="161.09" y="89.78" width="2.2" height="9.89" rx="1.1" ry="1.1" fill="#ea5344"/><rect x="157.59" y="91.35" width="2.2" height="8.32" rx="1.1" ry="1.1" fill="#334a5b"/><rect x="164.58" y="87.91" width="2.2" height="11.77" rx="1.1" ry="1.1" fill="#62bfb5"/><path d="M163.86 80.41h-10.34a.71.71 0 0 0-.71.71v3.79a.71.71 0 0 0 .71.71h7.31c.6 1.19 1.44 2.7 1.44 2.7v-2.7h1.59a.71.71 0 0 0 .71-.71v-3.79a.71.71 0 0 0-.71-.71zM155.05 98h-8.49a.43.43 0 0 1-.43-.43.43.43 0 0 1 .43-.43h8.49a.43.43 0 0 1 .43.43.43.43 0 0 1-.43.43zm0 1.68h-8.49a.43.43 0 0 1-.43-.43.43.43 0 0 1 .43-.43h8.49a.43.43 0 0 1 .43.43.43.43 0 0 1-.43.43zm0-4.86h-8.49a.43.43 0 0 1-.43-.43.43.43 0 0 1 .43-.43h8.49a.43.43 0 0 1 .43.43.43.43 0 0 1-.43.43zm0 1.7h-8.49a.43.43 0 0 1-.43-.43.43.43 0 0 1 .43-.43h8.49a.43.43 0 0 1 .43.43.43.43 0 0 1-.43.43z" fill="#cfcece"/><circle cx="128.9" cy="106.22" r="1.05" fill="#62bfb5"/><circle cx="133.09" cy="106.22" r="1.05" fill="#62bfb5"/><circle cx="137.27" cy="106.22" r="1.05" fill="#62bfb5"/><circle cx="141.46" cy="106.22" r="1.05" fill="#62bfb5"/><circle cx="145.64" cy="106.22" r="1.05" fill="#62bfb5"/><circle cx="149.83" cy="106.22" r="1.05" fill="#62bfb5"/><circle cx="154.01" cy="106.22" r="1.05" fill="#62bfb5"/><circle cx="158.2" cy="106.22" r="1.05" fill="#62bfb5"/><circle cx="162.38" cy="106.22" r="1.05" fill="#cfcece"/><circle cx="128.9" cy="110.45" r="1.05" fill="#ea5344"/><circle cx="133.09" cy="110.45" r="1.05" fill="#ea5344"/><circle cx="137.27" cy="110.45" r="1.05" fill="#ea5344"/><circle cx="141.46" cy="110.45" r="1.05" fill="#ea5344"/><circle cx="145.64" cy="110.45" r="1.05" fill="#ea5344"/><circle cx="149.83" cy="110.45" r="1.05" fill="#cfcece"/><circle cx="154.01" cy="110.45" r="1.05" fill="#cfcece"/><circle cx="158.2" cy="110.45" r="1.05" fill="#cfcece"/><circle cx="162.38" cy="110.45" r="1.05" fill="#cfcece"/><circle cx="128.9" cy="114.68" r="1.05" fill="#334a5b"/><circle cx="133.09" cy="114.68" r="1.05" fill="#334a5b"/><circle cx="137.27" cy="114.68" r="1.05" fill="#334a5b"/><circle cx="141.46" cy="114.68" r="1.05" fill="#334a5b"/><circle cx="145.64" cy="114.68" r="1.05" fill="#334a5b"/><circle cx="149.83" cy="114.68" r="1.05" fill="#334a5b"/><circle cx="154.01" cy="114.68" r="1.05" fill="#cfcece"/><circle cx="158.2" cy="114.68" r="1.05" fill="#cfcece"/><circle cx="162.38" cy="114.68" r="1.05" fill="#cfcece"/><circle cx="128.9" cy="118.91" r="1.05" fill="#ffd462"/><circle cx="133.09" cy="118.91" r="1.05" fill="#ffd462"/><circle cx="137.27" cy="118.91" r="1.05" fill="#cfcece"/><circle cx="141.46" cy="118.91" r="1.05" fill="#cfcece"/><circle cx="145.64" cy="118.91" r="1.05" fill="#cfcece"/><circle cx="149.83" cy="118.91" r="1.05" fill="#cfcece"/><circle cx="154.01" cy="118.91" r="1.05" fill="#cfcece"/><circle cx="158.2" cy="118.91" r="1.05" fill="#cfcece"/><circle cx="162.38" cy="118.91" r="1.05" fill="#cfcece"/><path d="M240.69 67.06h29.74a11.24 11.24 0 0 1 11.24 11.24v47.58h-52.21V78.29a11.24 11.24 0 0 1 11.23-11.23z" fill="#334a5b"/><path fill="#fff" d="M230.96 76.57h49.19v47.59h-49.19z"/><path d="M236.83 70.28a1 1 0 0 1-1.45 1.45 1 1 0 0 1 1.45-1.45z" fill="#ffd462"/><circle cx="233.11" cy="71.01" r=".99" fill="#ea5344"/><path d="M239.83 70.28a1 1 0 0 1-1.45 1.45 1 1 0 0 1 1.45-1.45z" fill="#62bfb5"/><path d="M277 72.39h-33a1.39 1.39 0 0 1-1.38-1.39 1.39 1.39 0 0 1 1.38-1.38h33a1.39 1.39 0 0 1 1.35 1.38 1.39 1.39 0 0 1-1.35 1.39z" fill="#425c6e"/><rect x="237.17" y="113.49" width="9.8" height="2.95" rx="1.47" ry="1.47" transform="rotate(-90 242.07 114.96)" fill="#ea5344"/><rect x="238.74" y="110.55" width="15.67" height="2.95" rx="1.47" ry="1.47" transform="rotate(-90 246.57 112.03)" fill="#334a5b"/><rect x="245.02" y="112.35" width="12.08" height="2.95" rx="1.47" ry="1.47" transform="rotate(-90 251.065 113.815)" fill="#ea5344"/><rect x="246.84" y="109.67" width="17.44" height="2.95" rx="1.47" ry="1.47" transform="rotate(-90 255.56 111.14)" fill="#334a5b"/><rect x="252.19" y="110.52" width="15.74" height="2.95" rx="1.47" ry="1.47" transform="rotate(-90 260.06 111.99)" fill="#ea5344"/><rect x="254.16" y="107.99" width="20.79" height="2.95" rx="1.47" ry="1.47" transform="rotate(-90 264.555 109.465)" fill="#334a5b"/><rect x="257.77" y="107.11" width="22.56" height="2.95" rx="1.47" ry="1.47" transform="rotate(-90 269.05 108.58)" fill="#ea5344"/><circle cx="237.12" cy="84.76" r="3.85" fill="#cfcece"/><path d="M237.13 85.11v-5.2a4.76 4.76 0 1 0 4.74 5.2z" fill="#ea5344"/><circle cx="249.71" cy="84.76" r="3.85" fill="#cfcece"/><path d="M249.72 79.91a4.76 4.76 0 0 0 0 9.52z" fill="#334a5b"/><circle cx="262.31" cy="84.76" r="3.85" fill="#cfcece"/><path d="M259 88l3.36-3.36v-4.73A4.76 4.76 0 0 0 259 88z" fill="#62bfb5"/><circle cx="274.91" cy="84.76" r="3.85" fill="#cfcece"/><path d="M274.92 79.91a4.74 4.74 0 0 0-3.36 1.39l3.36 3.36z" fill="#ffd462"/><path d="M256.65 95.09h-23.48a.35.35 0 0 1-.34-.34.35.35 0 0 1 .34-.34h23.48a.35.35 0 0 1 .34.34.35.35 0 0 1-.34.34zm0 1.37h-23.48a.35.35 0 0 1-.34-.34.35.35 0 0 1 .34-.34h23.48a.35.35 0 0 1 .34.34.35.35 0 0 1-.34.34z" fill="#cfcece"/><circle cx="169.83" cy="134.45" r="32.63" transform="rotate(-3.36 169.918 134.485)" fill="#eeeded"/><circle cx="172.8" cy="134.27" r="24.97" transform="rotate(-3.36 172.992 134.405)" fill="#f4f3f4"/><circle cx="179.6" cy="133.87" r="11.27" transform="rotate(-3.36 179.83 133.923)" fill="#fff"/><path d="M132.48 180.47l-6.63-6.07a2 2 0 0 1-.1-2.91L143.31 153a2.05 2.05 0 0 1 2.86-.1l6.63 6.07a2 2 0 0 1 .1 2.91l-17.55 18.54a2.05 2.05 0 0 1-2.87.05z" fill="#2db39e"/><g clip-path="url(#c)"><path d="M192.91 110.19a36 36 0 0 0-50.3 1.81 34.6 34.6 0 0 0 1.73 49.47 36 36 0 0 0 50.3-1.81 34.6 34.6 0 0 0-1.73-49.47zm-41.63 44a24.71 24.71 0 0 1-1.28-35.38 25.72 25.72 0 0 1 35.93-1.3 24.71 24.71 0 0 1 1.24 35.34 25.72 25.72 0 0 1-35.89 1.3z" fill="#20917f"/></g><path fill="#2db39e" d="M118.28 202.96L104 189.88l15.27-16.12 14.28 13.08-15.27 16.12z"/><path d="M96.35 198a2.28 2.28 0 0 0 .09 3.25l10.9 10a2.37 2.37 0 0 0 3.3-.15l7.65-8.08L104 189.88zM141 175.67l-10.9-10a2.35 2.35 0 0 0-3.27.12l-7.53 8 14.28 13.08 7.53-8a2.26 2.26 0 0 0-.11-3.2z" fill="#65c0b6"/><path fill="#20917f" d="M133.27 187.13l-14.28-13.08.28-.29 14.28 13.08-.28.29zm-15.07 15.91l-14.28-13.08.28-.29 14.28 13.08-.28.29z"/><path d="M194.11 108.8a36 36 0 0 0-50.3 1.81 34.6 34.6 0 0 0 1.73 49.47 36 36 0 0 0 50.3-1.81 34.6 34.6 0 0 0-1.73-49.47zM164 162.72a28.86 28.86 0 1 1 34.07-22.47A28.86 28.86 0 0 1 164 162.72z" fill="#65c0b6"/><path d="M149.69 155.72a28.73 28.73 0 0 1-1.44-41 29.91 29.91 0 0 1 41.72-1.5 28.73 28.73 0 0 1 1.44 41 29.91 29.91 0 0 1-41.72 1.5zM189 114.18a28.5 28.5 0 0 0-39.75 1.43 27.38 27.38 0 0 0 1.37 39.1 28.5 28.5 0 0 0 39.75-1.43 27.38 27.38 0 0 0-1.37-39.1z" fill="#20917f"/></svg>