<svg xmlns="http://www.w3.org/2000/svg" viewBox="0 0 400 225"><defs><radialGradient id="a" cx="200" cy="112.5" r="162.26" gradientUnits="userSpaceOnUse"><stop offset="0" stop-color="#fedca2"/><stop offset="0" stop-color="#fedca2"/><stop offset=".32" stop-color="#ecafa0"/><stop offset=".6" stop-color="#df8e9f"/><stop offset=".84" stop-color="#d77a9e"/><stop offset="1" stop-color="#d4739e"/></radialGradient><radialGradient id="b" cx="240.03" cy="93.29" r="31.09" gradientUnits="userSpaceOnUse"><stop offset="0" stop-color="#39bde5"/><stop offset=".1" stop-color="#34b3df"/><stop offset=".27" stop-color="#269acf"/><stop offset=".45" stop-color="#1378b9"/><stop offset="1" stop-color="#242f5d"/></radialGradient></defs><path fill="url(#a)" d="M0 0h400v225H0z" data-name="Calque 2"/><g data-name="Calque 1"><path d="M257.23 192.24l-.34-.57 9.92-5.81a3.89 3.89 0 0 1 4 0l8.2 4.9-.34.57-8.2-4.9a3.23 3.23 0 0 0-3.29 0zm29.51-1.6l-.34-.57 25.73-15.2a.8.8 0 0 0 0-1.38l-8.54-5.25.35-.57 8.54 5.24a1.47 1.47 0 0 1 0 2.52zm-28.02-20.94l-.33-.58 25.07-14.44a.83.83 0 0 0 0-1.44l-13.27-7.62a5.88 5.88 0 0 1-2.95-5.09V96.87a5.45 5.45 0 0 1 2.39-4.51l2-1.36.37.55-2 1.36a4.79 4.79 0 0 0-2.1 4v43.66a5.22 5.22 0 0 0 2.61 4.51l13.27 7.62a1.49 1.49 0 0 1 0 2.59z" fill="#d5ecfb"/><path d="M257.06 183.49a.66.66 0 0 1-.34-1.24l9.92-5.81a4.22 4.22 0 0 1 4.3 0l8.2 4.9a.66.66 0 1 1-.68 1.14l-8.2-4.9a2.9 2.9 0 0 0-3 0l-9.92 5.81a.66.66 0 0 1-.28.1z" fill="#e93e8f"/><path d="M243 214.57l-55.19-31.86c-1.92-1.11-1.68-3 .54-4.32a8.32 8.32 0 0 1 7.48-.31L251 209.94c1.92 1.11 1.68 3-.54 4.32a8.32 8.32 0 0 1-7.46.31zm52.77-84.3a10.34 10.34 0 0 0-1.32-.63l-2.53-1.12.19.44a16.37 16.37 0 0 0-5.94-.06l.12-.49-3 1.32a10.19 10.19 0 0 0-1.11.54c-3.74 2.16-3.74 5.66 0 7.82a15 15 0 0 0 13.55 0c3.79-2.16 3.79-5.66.04-7.82z" fill="#d5ecfb"/><path d="M292.18 132.31a7 7 0 0 1-6.35 0c-1.75-1-1.75-2.65 0-3.67a7 7 0 0 1 6.35 0c1.75 1.02 1.75 2.66 0 3.67z" fill="#5793ce"/><path d="M289 131.18a1.53 1.53 0 0 1-1.53-1.53v-19.29h3.05v19.29a1.53 1.53 0 0 1-1.52 1.53z" fill="#5793ce"/><path d="M290.07 111.06a2.43 2.43 0 0 1-2.2 0 .67.67 0 0 1 0-1.27 2.43 2.43 0 0 1 2.2 0 .67.67 0 0 1 0 1.27z" fill="#5793ce"/><path d="M289 111a1.24 1.24 0 0 1-1.24-1.24V91.65h2.47v18.14A1.24 1.24 0 0 1 289 111z" fill="#d5ecfb"/><path d="M306.79 101.15v-.71l1-.15 1.12-.84a.76.76 0 0 1 .74 0l.83.48.82-.12v.72a.27.27 0 0 1-.19.22l-2.62 1.17a.82.82 0 0 1-.69 0l-.87-.5a.25.25 0 0 1-.15-.21z" fill="#3a6dac"/><path d="M306.9 100.25l2-1.51a.75.75 0 0 1 .74 0l1.51.87c.21.12.19.32 0 .43l-2.62 1.17a.82.82 0 0 1-.69 0l-.87-.5c-.21-.17-.23-.34-.07-.46z" fill="#5793ce"/><path d="M303.49 103.68a1.64 1.64 0 0 0 .81-.2l3.14-1.81a.36.36 0 0 0-.36-.63l-3.14 1.81a1 1 0 0 1-.89 0l-5.21-3a.36.36 0 1 0-.36.63l5.21 3a1.64 1.64 0 0 0 .8.2z" fill="#d5ecfb"/><path fill="url(#b)" d="M273.34 97.04l5.03-2.92-2.82-1.28-2.41 1.71.2 2.49z"/><path d="M305.68 92.7a6.63 6.63 0 0 1-.85-.53l-10.73-7.86c-1.94-1.42-3.93-1.79-5.47-1l-.11.07L273.68 92l1.33.44 5.19 2.35 7.06 5 5.57 3 .25.05c1.3-1.09 2.75-2 3.55-3.63 1.38-2.41 5.22-3.11 7.48-5.06.23.15.46.28.68.4a5.07 5.07 0 0 0 .89-1.85z" fill="#5793ce"/><path d="M310.38 89.15a1 1 0 0 0-.61.21l-14.5 8.39.53 2.17.54-.26a14.9 14.9 0 0 1-3.26 3.12l1.64.35 14.2-8.26.2-.09a3.54 3.54 0 0 0 .55-.35 5 5 0 0 0 1.69-4.1v-.17a1 1 0 0 0-.98-1.01z" fill="#3a6dac"/><path d="M290.52 82.9a6.07 6.07 0 0 1 2.85.92 6.07 6.07 0 0 0-2.85-.92z" fill="#eaeaea"/><path d="M297.13 98.43v-.17a1 1 0 0 0-2 0v.17a2.84 2.84 0 0 1-1.16 2.69c-.83.42-2.1.11-3.39-.83l-10.73-7.86a5.71 5.71 0 0 0-4.76-1.27l8.86-5.16-10.27 6 1.33.44 5.19 2.35 7.06 5 5.57 3 .25.05c1.3-1.09 2.75-2 3.55-3.63a4.19 4.19 0 0 1 .49-.67s.01-.09.01-.11z" fill="#5793ce"/><path d="M292.83 103.62a6.46 6.46 0 0 1-3.74-1.41l-10.73-7.86c-1.29-.95-2.56-1.26-3.39-.83a2.84 2.84 0 0 0-1.16 2.69 1 1 0 1 1-2 0c0-2.11.82-3.74 2.25-4.46s3.54-.42 5.47 1l10.73 7.86c1.29.95 2.56 1.26 3.39.83a2.84 2.84 0 0 0 1.16-2.69v-.17a1 1 0 0 1 2 0v.17c0 2.11-.82 3.74-2.25 4.46a3.81 3.81 0 0 1-1.73.41z" fill="#d5ecfb"/><path d="M284.39 121.2s-2-1-3.26.5-3 5.1-3.07 7.52 1.92 2.26 3.09 1.68 4.59-5.54 4.8-6.51a3.38 3.38 0 0 0-.57-2.55c-.38-.25-.99-.64-.99-.64z" fill="#1a3e78"/><path d="M284.84 120.71l.09 2.09a1.19 1.19 0 0 1-.59 1.09 2.33 2.33 0 0 1-1.56.24c-1.52-.24-1.66-.68-1.77-2.77s3.83-.65 3.83-.65z" fill="#5793ce"/><path d="M277 117.18s-2-1-3.26.5-3 5.1-3.07 7.52 1.92 2.26 3.09 1.68 4.59-5.54 4.8-6.51a3.38 3.38 0 0 0-.57-2.55c-.34-.25-.99-.64-.99-.64z" fill="#1a3e78"/><path d="M277.44 116.69l.09 2.09a1.19 1.19 0 0 1-.59 1.09 2.33 2.33 0 0 1-1.56.24c-1.52-.24-1.66-.68-1.77-2.77s3.83-.65 3.83-.65z" fill="#5793ce"/><path d="M295.47 78.25c-.6-9.73-10.54 1.43-10.54 1.43l-6.81 6.67-6.12 6.73a6 6 0 0 0-1.52 4.85l2.52 18.88a1.86 1.86 0 0 0 1.86 1.61 6.3 6.3 0 0 0 .92-.08 2.31 2.31 0 0 0 2-2.45l-.45-17.65 12.87-7.76s5.87-2.48 5.27-12.23z" fill="#fdd762"/><path d="M302.87 82c-.6-9.73-10.54 1.43-10.54 1.43l-6.8 6.67-6.13 6.73a6 6 0 0 0-1.52 4.85l2.48 18.88a1.86 1.86 0 0 0 1.86 1.61 6.31 6.31 0 0 0 .92-.08 2.31 2.31 0 0 0 2-2.45l-.45-17.65 12.87-7.76s5.91-2.54 5.31-12.23z" fill="#fdd762"/><path d="M297 50.71c7.54 3.13 7.39 7.58 7.39 7.58s-1.48 16.34-1 27.25c.21 4.56-24.23 4.91-20.59-7.26 4.3-14.35 2.69-26 4.7-27.71s7.5-.67 9.5.14z" fill="#e93e8f"/><ellipse cx="295.65" cy="53.69" rx="2.86" ry="3.89" transform="rotate(-75.56 295.632 53.698)" fill="#f8c0b0"/><path d="M296.22 57a5.52 5.52 0 0 1-1.38-.18 5 5 0 0 1-2.64-1.62 2.88 2.88 0 0 1-.67-2.56c.44-1.72 2.65-2.64 4.92-2.06a5 5 0 0 1 2.64 1.62 2.72 2.72 0 0 1-1.15 4.48 4.62 4.62 0 0 1-1.72.32zm-1.15-5.87a2.73 2.73 0 0 0-2.84 1.7 2.18 2.18 0 0 0 .53 1.93 4.57 4.57 0 0 0 4.91 1.24 2.18 2.18 0 0 0 1.39-1.43 2.18 2.18 0 0 0-.53-1.93 4.29 4.29 0 0 0-2.26-1.38 4.82 4.82 0 0 0-1.2-.15z" fill="#fff"/><path d="M294 50.37a18.6 18.6 0 0 1-.07 2.69c0 .75 2.59 1.45 3.27.77s.41-1.39.57-3.94-3.77.48-3.77.48z" fill="#f8c0b0"/><path d="M297.74 49.89a5.3 5.3 0 0 1-3.84 3.28v-2.15z" fill="#eb9d93"/><circle cx="294.14" cy="45.32" r="5.8" transform="rotate(-14.5 294.06 45.317)" fill="#f8c0b0"/><path d="M295.48 45.54a18 18 0 0 1-5.41 1.38c-2.21 0-1.72-1.84-1.72-1.84l6.57-.95z" fill="#eb9d93"/><path d="M289.41 45.9a10.36 10.36 0 0 1 5.22-.69 2.56 2.56 0 0 1 1.48.88.87.87 0 0 0 .45.32c.43.1 1.14-1.7 2-1.74s1.4.55.71 1.66-.46 2.34-.14 2.52 3.68-2.4.71-8.29-10.53-2.71-11.7-1.56c0 0-1.24 1.08-2.24.12 0 .04-1.13 8.48 3.51 6.78z" fill="#fdd762"/><path d="M300.15 70.23v4.41a1.8 1.8 0 0 1-.59 1.33l-9.07 8.27 1 1.58 12-8.68a2.43 2.43 0 0 0 1-1.72l.81-7.7z" fill="#f8c0b0"/><path d="M303.74 56.08s2.75 4.14 3.78 15c0 0-4.7 1.52-7.37.66s3.59-15.66 3.59-15.66z" fill="#e93e8f"/><path d="M299.64 61.31a76.7 76.7 0 0 0-1.14 8.47 1.73 1.73 0 0 0 1.14 1.67z" fill="#ca2586"/><path d="M297.29 90l-2-.26-12.94-7.47a1.8 1.8 0 0 0-1.62.07l-9.17 5.29-1.21-.16v1.21a.47.47 0 0 0 .28.42l14.66 8.46a1.8 1.8 0 0 0 1.62-.07l10-5.76a.65.65 0 0 0 .4-.54z" fill="#1a3e78"/><path d="M287.57 85.26l-.92-.53h-10.1l-5 2.87-1.21-.16v1.21a.47.47 0 0 0 .28.42l14.66 8.46a1.52 1.52 0 0 0 .84.16z" fill="#3a6dac"/><path d="M270.89 87.51l-.54-.07v1.21a.47.47 0 0 0 .28.42l.26.15z" fill="#5793ce"/><path d="M285.44 97.6a1.88 1.88 0 0 0 1.37-.09v-2.04h-1.37z" fill="#284f8a"/><path d="M285.29 96.33l-14.66-8.46c-.41-.24-.36-.66.12-.93l10-5.76a1.8 1.8 0 0 1 1.62-.07L297 89.57c.41.24.36.66-.12.93l-10 5.76a1.8 1.8 0 0 1-1.59.07z" fill="#fff"/><path d="M285 95l-12.19-7c-.34-.2-.3-.55.1-.78l5.35-3a1.5 1.5 0 0 1 1.35-.06l12.19 7c.34.2.3.55-.1.78l-5.35 3A1.5 1.5 0 0 1 285 95z" fill="#d5ecfb"/><path d="M281.3 80.89l-.15 1a7.48 7.48 0 0 0 .07 2.59l.18.89a1.25 1.25 0 0 0 1 1 .69.69 0 0 0 .81-.6l.24-2.16s.55.73.82.73-.3-2.17-.9-3.39-2.07-.06-2.07-.06z" fill="#f8c0b0"/><path d="M286.27 64.81l-1.57 3.11a6.11 6.11 0 0 0-.64 2.36l-.68 10.65h-2.07l-.94-12a4.38 4.38 0 0 1 .05-1.11l1.07-6.07z" fill="#f8c0b0"/><path d="M284.8 97.14l-1.23-1.6-12.93-7.48a1.8 1.8 0 0 1-.75-1.44V76l-.74-1 .7-.4a.47.47 0 0 1 .51 0L285 83.17a1.8 1.8 0 0 1 .75 1.44v11.52a.65.65 0 0 1-.27.61z" fill="#1a3e78"/><path d="M275.86 91.07l-.92-.53-5-8.76V76l-.74-1 .7-.4a.47.47 0 0 1 .51 0L285 83.17a1.52 1.52 0 0 1 .55.65z" fill="#3a6dac"/><path d="M269.49 75.49l-.33-.43.7-.4a.47.47 0 0 1 .51 0l.26.15z" fill="#5793ce"/><path d="M285.15 83.26a1.88 1.88 0 0 1 .61 1.23l-1.43.83-.69-1.19z" fill="#284f8a"/><path d="M284.32 83.57l-14.65-8.48c-.41-.24-.75 0-.75.57v11.53a1.8 1.8 0 0 0 .75 1.44l14.63 8.47c.41.24.75 0 .75-.57V85a1.8 1.8 0 0 0-.73-1.43z" fill="#5793ce"/><path d="M291.52 85.81l-.23.49a3.26 3.26 0 0 1-1.22 1.36l-1.46.9a1.45 1.45 0 0 1-1.49 0 .88.88 0 0 1-.12-1.35l1.52-1.56s-.85.65-1.09.39.83-1.14 1.6-1.17a3 3 0 0 0 1.52-.64z" fill="#f8c0b0"/><path d="M287.67 50.54s-5.58 6.07-7.82 11.63a11.38 11.38 0 0 0 6.56 4.83c4.67 1.3 1.26-16.46 1.26-16.46z" fill="#e93e8f"/><path d="M285.36 66.6l.9-8.73-2.12 8.13a12.21 12.21 0 0 0 1.22.6z" fill="#ca2586"/><path d="M291.84 49.32l-1.5-.41a3.62 3.62 0 0 0 1.76 1.41c1 .29 1.21-.6 1.21-.6z" fill="#fff"/><path d="M253 45.78l-59.48-34.33c-2-1.13-3.73-1.16-5.07-.31L181 15.45l5 .93v141.03c0 5.57 3.39 12 7.56 14.45l58.63 33.85c-.53 1.67-1.67 5.2-1.67 5.2l7.3-4.23c1.69-.87 2.77-3.06 2.77-6.2V60.23c-.04-5.57-3.43-12.04-7.59-14.45z" fill="#e93e8f"/><path fill="#d5ecfb" d="M308.88 166.18l-8.93-5.16-8.93 5.16 8.93 5.15 8.93-5.15z"/><path fill="#e8a304" d="M299.95 166.55v-5.81l10.67-6.16v5.81l-10.67 6.16z"/><path fill="#f9bf32" d="M299.95 160.74l-10.67-6.16v5.81l10.67 6.16v-5.81z"/><path fill="#fdd762" d="M310.62 154.58l-10.67-6.16-10.67 6.16 10.67 6.16 10.67-6.16z"/><path d="M273.6 87.5c0 .91-.64 1.28-1.43.83a3.16 3.16 0 0 1-1.43-2.48c0-.91.64-1.28 1.43-.83a3.16 3.16 0 0 1 1.43 2.48z" fill="#fff"/><path d="M258.55 165.6a.66.66 0 0 1-.33-1.24l25.07-14.44a.5.5 0 0 0 0-.86L270 141.45a6.22 6.22 0 0 1-3.11-5.38V92.4a5.78 5.78 0 0 1 2.53-4.79l2-1.36a.66.66 0 0 1 .75 1.1l-2 1.36a4.46 4.46 0 0 0-2 3.69v43.66a4.88 4.88 0 0 0 2.45 4.23l13.38 7.62a1.82 1.82 0 0 1 0 3.16l-25.07 14.44a.66.66 0 0 1-.38.09z" fill="#e93e8f"/><path d="M186 157.41c0 5.57 3.39 12 7.56 14.45l58.63 33.85c-.53 1.67-1.67 5.2-1.67 5.2l7.3-4.23c1.69-.87 2.77-3.06 2.77-6.2V60.23a18.8 18.8 0 0 0-2.4-8.74L186 93.16z" fill="#ca2586"/><path d="M245.48 210.54L186 176.2c-4.18-2.41-7.56-8.88-7.56-14.45V21.51c0-5.57 3.39-8.13 7.56-5.72l59.46 34.34c4.2 2.41 7.54 8.87 7.54 14.45v140.24c0 5.57-3.34 8.13-7.52 5.72z" fill="#e93e8f"/><path fill="#ca2586" d="M188.29 59.72l-4.6-3.17-1.8-5.9-1.8 3.83-1.63-.77v3.25l.52.82-.52 2.35v2.23l3.43-.46 3.96 5.1-1.05-5.86 3.49-1.42z"/><path d="M244.38 205.89l-57.13-33c-3.1-1.79-5.62-6.6-5.62-10.74V23.91c0-4.14 2.52-6 5.62-4.25l57.13 33c3.1 1.79 5.62 6.6 5.62 10.74v138.25c0 4.13-2.52 6.04-5.62 4.24z" fill="#fff"/><path d="M221 163.43l-28-16.19V79.06l13.21 7.63A29.66 29.66 0 0 1 221 112.38z" fill="#eeeded"/><path d="M182.93 72.47c-2.83-1.69-6.76-1.48-11.11 1-8.6 5-15.6 17.08-15.6 27v7.17l.3.17 28.1 16.53.43-8.57.35-3.33 1.49-5.17.17-.79 3.19-6.44 2.52-3.14 2-2.43 5-3.91.44-.32 2.44-1.05 3.29-.85h2.56l2.87.5z" fill="#d5ecfb"/><path d="M186.51 138.74l.91-.53v-32.64a6.69 6.69 0 0 0-.91 2.31z" fill="#d5ecfb"/><path fill="#d5ecfb" d="M214.91 155.1l-28.4-16.36.3-30.91 1.08-3.12 3.29-5.65 3.88-4.61 3.51-2.8 3.79-2.31 6.88-.78 3.63 2.06 2.04 3.11.63 4.77-.21 51.66-.42 4.94z"/><path d="M182.94 72.47c-2.37-1.41-5.51-1.49-9 0l28.93 16.7 3.1-.81h2.56l2.87.5-28.47-16.39z" fill="#5793ce"/><path d="M174.6 72.2a18 18 0 0 0-2.77 1.31c-.63.37-1.26.77-1.87 1.21l28.84 16.65 1-.78.44-.32 2.44-1.05 1-.25z" fill="#e9f5fe"/><path d="M195.06 94.31l3.94-3.09-28.85-16.64a27.85 27.85 0 0 0-3.75 3.19z" fill="#fff"/><path d="M215.82 154.57l-.91.53V99.39c0-9.35-6.59-13.15-14.68-8.48s-14.69 16.09-14.69 25.44v7.51l-.91.53v-7.51c0-9.93 7-22 15.6-27s15.6-.93 15.6 9z" fill="#5793ce"/><path fill="#b0deed" d="M164.84 95.19l-1.59 6.53.79 10.56-2.02-1.19-2.59-5.74 2.27-7.25 3.14-2.91z"/><path d="M211.3 137a1.07 1.07 0 0 1-.53-.16l-20.65-11.92a2.53 2.53 0 0 1-1.08-2v-16.29a1.13 1.13 0 0 1 .48-1 .9.9 0 0 1 .93 0l20.65 11.92a2.53 2.53 0 0 1 1.08 2v16.25a1.13 1.13 0 0 1-.48 1 .8.8 0 0 1-.4.2zm-21.38-30.84h-.07c-.07 0-.15.18-.15.46v16.25a1.86 1.86 0 0 0 .75 1.47l20.65 11.92c.05 0 .18.09.27 0s.15-.18.15-.46v-16.18a1.86 1.86 0 0 0-.75-1.47l-20.65-11.92a.45.45 0 0 0-.2-.07z" fill="#fff" opacity=".4"/><path d="M196.53 125.58l-.15-.08a2.33 2.33 0 0 1-1-1.86v-7.74c0-.72.44-1 1-.74l.15.08a2.33 2.33 0 0 1 1 1.86v7.74c-.03.73-.46 1.06-1 .74zm4.15 2.42l-.15-.08a2.33 2.33 0 0 1-1-1.86v-4.53c0-.72.44-1 1-.74l.15.08a2.33 2.33 0 0 1 1 1.86v4.53c-.02.74-.46 1.03-1 .74z" fill="#b2d3ea"/><path d="M204.84 130.38l-.15-.08a2.33 2.33 0 0 1-1-1.86v-10.79c0-.72.44-1 1-.74l.15.08a2.33 2.33 0 0 1 1 1.86v10.79c-.03.72-.47 1.05-1 .74z" fill="#3a6dac"/><path d="M159 210.57c6.94 4 18.18 4 25.12 0s6.94-10.5 0-14.5-18.18-4-25.12 0-6.91 10.5 0 14.5z" fill="#d5ecfb"/><path d="M160.7 197.89a3.39 3.39 0 0 0-1.91 3.39 5.72 5.72 0 0 0 .28 1.66 2.79 2.79 0 0 0 3.74 1.15c2.06-.81 6.63-5.11 6.81-7.93.31-5.23-5.62.34-8.92 1.73zm12.1 8.64a15.15 15.15 0 0 0-.25 3.57 3.88 3.88 0 0 0 3.79 1.48c2.12-.25 8.21-2.36 9.57-6.37 2.1-6.23-11.76.47-11.76.47z" fill="#1a3e78"/><path d="M178.76 158.36l.47 47a3.3 3.3 0 0 1-2.56 3.26l-.57.07a2.93 2.93 0 0 1-2.79-1.16 3.45 3.45 0 0 1-.63-1.9l-.6-20.08-3-18-4.15 31.78a2.75 2.75 0 0 1-1.14 2.09 3.18 3.18 0 0 1-1.89.51 3.48 3.48 0 0 1-2.51-1.24 2.52 2.52 0 0 1-.6-1.7l1.63-18.99.61-24.39z" fill="#fdd762"/><path d="M172.67 116.25l-.74 4.29a2 2 0 0 0 1.61 1.87c1.63.41 2.14-.65 2.14-.65l.74-4.83z" fill="#f8c0b0"/><path d="M181.66 113.9c-1.16 3.67-4.75 5.8-8 4.76s-5-4.87-3.81-8.54 4.75-5.8 8-4.76 4.97 4.87 3.81 8.54z" fill="#f8c0b0"/><path d="M172.86 120.62c-.11 0-6.93-4.43-9.45.16-4.11 7.49-1.1 16.07-2.57 34.71-.25 3.12 4.2 5 6.3 6.22a12.58 12.58 0 0 0 6.11 1.74c2.13 0 6.21-1.88 6.07-4.66-.68-12.8.45-23.6 1.5-34.07 0-.01-1.31-1.41-7.96-4.1z" fill="#6c4b99"/><path d="M169.07 167.64l-4.15 31.78a2.75 2.75 0 0 1-1.14 2.09 3.08 3.08 0 0 1-.35.2c.86-.65 3.38-27.32 3.84-30.29s1.8-3.78 1.8-3.78z" fill="#d88a2c"/><path fill="#f8c0b0" d="M194.96 124.5l5.7-11.33-1.79-1.13-5.91 8.63 2 3.83zm-37.64-12.03l2.78-12.63 2.21.03-.83 10.47-4.16 2.13z"/><path d="M180.82 124.71s6.38 2.52 11.86-4.4a1.05 1.05 0 0 1 1.76.12 5.43 5.43 0 0 1 .36 4.45c-3.31 7.11-14.62 6.86-17.35 10.85s3.37-11.02 3.37-11.02zM168.54 119s-5.27.41-6-4.16a34.85 34.85 0 0 1-.53-4.56.92.92 0 0 0-1-.89c-1.26.16-3.22.53-3.48 1.38-.4 1.26-1.14 7.46 4.06 17 3.35 6.23 6.95-8.77 6.95-8.77z" fill="#6c4b99"/><path d="M160.09 99.87l.05-1.44a3 3 0 0 1 .43-1.44L162 94.6l.38-.48a1.11 1.11 0 0 1 1.46-.25l.34.21a1.38 1.38 0 0 1 .64 1.26l-.75 2 1-.19a.34.34 0 0 1 .4.27.34.34 0 0 1-.21.37l-1.56.63-1.42 2zm40.62 13.37l.67-1.28a3 3 0 0 0 .34-1.46l-.08-2.81-.09-.61a1.11 1.11 0 0 0-1.15-.94h-.4a1.38 1.38 0 0 0-1.18.77l-.36 2.15-.74-.63a.34.34 0 0 0-.48 0 .34.34 0 0 0 0 .43l1 1.32.27 2.74z" fill="#f8c0b0"/><path d="M176.65 134.31c-.55 2.53 2.79 21.61-.93 28.58 1.86-.75 3.69-2.23 3.59-4.11a174.25 174.25 0 0 1 .63-25c3.18-1.61 8.14-2.57 11.65-5.14-3.76 1.36-14.44 3.41-14.94 5.67z" fill="#584193"/><path d="M170.41 119.41l.95-1a7.71 7.71 0 0 0 2.81 1.87 14.61 14.61 0 0 0 2.24.46l.61 1.68s-4.96-.33-6.61-3.01z" fill="#fff"/><path d="M177.22 114a.8.8 0 0 0 .65-.34c.26-.37.1-2.1.89-2.38 1.25-.44 4.2 1.11 4.52-3.38.16-2.34-1-3-1-4.24 0 0 .1.64-5.91.24s-8 4.94-8.11 7.48 1.09 6.72 5.2 7.3c.68.1 3.54-2.21 3.47-2.51s-1.15-.28-1-1.16a1.13 1.13 0 0 1 1.29-1.01z" fill="#1a3e78"/><path d="M208.06 59.72L189.9 49.23a3.5 3.5 0 0 1-1.46-2.79V32.93c0-1.08.65-1.57 1.46-1.11l18.17 10.49a3.5 3.5 0 0 1 1.46 2.79v13.51c-.01 1.08-.66 1.57-1.47 1.11z" fill="#eeeded"/><path d="M206.27 38.29L188.1 27.8a.93.93 0 0 0-.94-.08l-1.76 1 1.24.45v13.24a3.5 3.5 0 0 0 1.46 2.79l17.36 10v1.55l1.78-1a1.3 1.3 0 0 0 .49-1.17v-13.5a3.5 3.5 0 0 0-1.46-2.79z" fill="#584193"/><path d="M204.47 56.73L186.3 46.24a3.5 3.5 0 0 1-1.46-2.79V29.94c0-1.08.65-1.57 1.46-1.11l18.17 10.49a3.5 3.5 0 0 1 1.46 2.79v13.51c0 1.08-.65 1.57-1.46 1.11z" fill="#6c4b99"/><path d="M204.47 39.32L186.3 28.83a.86.86 0 0 0-1.13.08 1.1 1.1 0 0 1 .64.16L204 39.56a3.5 3.5 0 0 1 1.46 2.79v13.51a1.48 1.48 0 0 1-.33 1c.48 0 .82-.5.82-1.27V42.11a3.5 3.5 0 0 0-1.48-2.79zm-12.06 2.26c0 .78-.55 1.1-1.23.71a2.71 2.71 0 0 1-1.18-2.12c0-.78.55-1.1 1.23-.71a2.71 2.71 0 0 1 1.18 2.12z" fill="#fff"/><path d="M196.13 43.73c0 .78-.55 1.1-1.23.71a2.71 2.71 0 0 1-1.23-2.12c0-.78.55-1.1 1.23-.71a2.71 2.71 0 0 1 1.23 2.12zm3.71 2.14c0 .78-.55 1.1-1.23.71a2.71 2.71 0 0 1-1.23-2.12c0-.78.55-1.1 1.23-.71a2.71 2.71 0 0 1 1.23 2.12z" fill="#fff"/><path d="M244.22 131L226 120.53a3.5 3.5 0 0 1-1.46-2.79v-30.4c0-1.08.65-1.57 1.46-1.11l18.17 10.49a3.5 3.5 0 0 1 1.46 2.79v30.4c.05 1.09-.63 1.58-1.41 1.09z" fill="#eeeded"/><path d="M242.42 92.7l-18.17-10.49a.93.93 0 0 0-.94-.08l-1.76 1 1.24.45v30.12a3.5 3.5 0 0 0 1.46 2.79l17.36 10v1.55l1.78-1a1.3 1.3 0 0 0 .49-1.17V95.49a3.5 3.5 0 0 0-1.46-2.79z" fill="#5793ce"/><path d="M240.62 128l-18.17-10.49a3.5 3.5 0 0 1-1.46-2.79V84.35c0-1.08.65-1.57 1.46-1.11l18.17 10.49a3.5 3.5 0 0 1 1.46 2.79v30.4c0 1.08-.65 1.58-1.46 1.08z" fill="#d5ecfb"/><path d="M240.62 93.73l-18.16-10.48a.86.86 0 0 0-1.13.08 1.1 1.1 0 0 1 .64.16L240.14 94a3.5 3.5 0 0 1 1.46 2.79v30.4a1.48 1.48 0 0 1-.33 1c.48 0 .82-.5.82-1.27V96.53a3.5 3.5 0 0 0-1.47-2.8z" fill="#fff"/><path d="M244.22 172.1L226 161.61a3.5 3.5 0 0 1-1.46-2.79v-30.4c0-1.08.65-1.57 1.46-1.11l18.17 10.49a3.5 3.5 0 0 1 1.46 2.79V171c.05 1.07-.63 1.56-1.41 1.1z" fill="#eeeded"/><path d="M242.42 133.77l-18.17-10.49a.93.93 0 0 0-.94-.08l-1.76 1 1.24.45v30.12a3.5 3.5 0 0 0 1.46 2.79l17.36 10v1.55l1.78-1a1.3 1.3 0 0 0 .49-1.17v-30.4a3.5 3.5 0 0 0-1.46-2.77z" fill="#ca2586"/><path d="M240.62 169.11l-18.17-10.49a3.5 3.5 0 0 1-1.46-2.79v-30.4c0-1.08.65-1.57 1.46-1.11l18.17 10.49a3.5 3.5 0 0 1 1.46 2.79V168c0 1.08-.65 1.57-1.46 1.11z" fill="#e93e8f"/><path d="M240.62 134.81l-18.17-10.49a.86.86 0 0 0-1.13.08 1.1 1.1 0 0 1 .64.16L240.14 135a3.5 3.5 0 0 1 1.46 2.79v30.4a1.48 1.48 0 0 1-.33 1c.48 0 .82-.5.82-1.27V137.6a3.5 3.5 0 0 0-1.47-2.79z" fill="#fff"/><path d="M122.3 185.31l16-9a3.06 3.06 0 0 1 2.75.14l10.16 6c.81.48.89 1.19.18 1.59l-16 9a3.06 3.06 0 0 1-2.75-.14l-10.16-6c-.81-.48-.89-1.2-.18-1.59z" fill="#d5ecfb"/><path d="M135.16 188.52l18.28-10.3a.93.93 0 0 0 .54-.77v-2l-1 .84-11.39-6.73a3.5 3.5 0 0 0-3.15-.16L121 179.21l-1.34-.79v2.05a1.3 1.3 0 0 0 .75 1l11.59 6.89a3.5 3.5 0 0 0 3.16.16z" fill="#f9bf32"/><path d="M120.2 177.59l18.28-10.3a3.5 3.5 0 0 1 3.15.16l11.63 6.88c.93.55 1 1.36.21 1.82l-18.28 10.3a3.5 3.5 0 0 1-3.15-.16l-11.63-6.88c-.93-.55-1.02-1.41-.21-1.82z" fill="#fdd762"/><path d="M135.18 186.45l18.28-10.3a.86.86 0 0 0 .51-1 1.1 1.1 0 0 1-.47.47l-18.28 10.3a3.5 3.5 0 0 1-3.15-.16l-11.63-6.88a1.48 1.48 0 0 1-.72-.81c-.21.44 0 1 .68 1.35l11.6 6.87a3.5 3.5 0 0 0 3.18.16zm4.19-11.53a.75.75 0 0 1 0-1.42 2.71 2.71 0 0 1 2.45 0 .75.75 0 0 1 0 1.42 2.71 2.71 0 0 1-2.45 0z" fill="#fff"/><path d="M135.64 177a.75.75 0 0 1 0-1.42 2.71 2.71 0 0 1 2.45 0 .75.75 0 0 1 0 1.42 2.71 2.71 0 0 1-2.45 0zm-3.74 2.13a.75.75 0 0 1 0-1.42 2.71 2.71 0 0 1 2.45 0 .75.75 0 0 1 0 1.42 2.71 2.71 0 0 1-2.45 0z" fill="#fff"/><path d="M116.08 168.83c-5 2.88-13.08 2.88-18.07 0s-5-7.55 0-10.43 13.08-2.88 18.07 0 4.99 7.6 0 10.43z" fill="#d5ecfb"/><path d="M99.83 74.44s.33 6.77.84 11.32 11.48-3.5 11.48-3.5v-5.17z" fill="#523f92"/><path d="M105.66 158.7c.16.41 3 3.87 5.84 4.73a6.53 6.53 0 0 0 2.61.36.86.86 0 0 0 .7-1.15 10.79 10.79 0 0 0-5.45-6c-4.81-2.38-3.7 2.06-3.7 2.06zm-.94 1.3a23.51 23.51 0 0 1 1.4 4.61 7.47 7.47 0 0 1-1.08 4 1.18 1.18 0 0 1-1.84.32 6.83 6.83 0 0 1-2.31-4.41c-.33-3.54 0-4.16 0-4.16z" fill="#1a3e78"/><path d="M97.88 117.25a67.31 67.31 0 0 0 0 9.4c.37 4.94 1.7 28 1.94 33.59 0 0-.12 1.68 3.13 1.31s3-2.24 3-2.24 4.57-.06 4.72-2.76 4.68-32.19 4.68-42.8z" fill="#fdd762"/><path d="M117 94.16l2.24 3.47 7.7 9.3a1.73 1.73 0 0 1-1.22 1.09c-.75.18-7.23-6-10-8.72a2.15 2.15 0 0 1-.3-2.73z" fill="#f8c0b0"/><path d="M112.67 79.91s3.56-.09 4.8 5.05 2.21 11.59 1.13 12.12a4.7 4.7 0 0 1-5.28-.27z" fill="#644696"/><path d="M113.73 80.13a2.91 2.91 0 0 0-1.92-.11c-3 .87-14.44 4.22-16.31 5.82-2.17 1.86 3.26 12.28 3.18 15.7s-.46 7.45-.77 11.17-.71 5.75 2.33 7.34a12 12 0 0 0 12.12-1.31c3.89-3 3.18-5 3-7.14s-1.48-11.45-1.37-14.08a10 10 0 0 0 2.38-2.74c1-1.73-.78-4.91-1.52-7s.42-4.43.19-6.12a1.91 1.91 0 0 0-1.31-1.53z" fill="#6c4b99"/><ellipse cx="105.81" cy="84.24" rx="4.32" ry="3.43" transform="rotate(-7.3 105.833 84.192)" fill="#fff"/><ellipse cx="105.81" cy="84.24" rx="3.09" ry="2.45" transform="rotate(-7.3 105.828 84.27)" fill="#f8c0b0"/><path d="M107.19 79.44s-2.06-1.69-2.46-.84a26.38 26.38 0 0 0-.74 4.54l4.09 1.1-.62-3.73s.81-.7-.27-1.07z" fill="#f8c0b0"/><circle cx="107.48" cy="75.04" r="6.1" transform="rotate(-86.62 107.479 75.043)" fill="#f8c0b0"/><path d="M104.44 79.67c0 .19-.07.4-.1.61.41 2.12 3.59 3.05 3.59 3.05l-.47-2.82s.39-.33.28-.65c-1.27-.4-2.85-.75-3.3-.19z" fill="#eb9d93"/><circle cx="107.48" cy="75.04" r="6.1" transform="rotate(-86.62 107.479 75.043)" fill="#f8c0b0"/><path fill="#f8c0b0" d="M92.44 100.88l.69 16.33 2.39.25 1.55-14.71-4.63-1.87z"/><path d="M100.29 99.51c-.13-.57-1.17-1-1.33-1.78a66.73 66.73 0 0 1-1-9.42L97.27 96a21 21 0 0 1 1.4 5.57c0 2-.2 4.23-.38 6.47s2.79-5.04 2-8.53z" fill="#644696"/><path d="M96 85.51s-1.91.73-3 6.59-1.89 11.74 0 12.5 3.54 1.33 4.1-.24.92-9.13 1-11.85.17-6.46-2.1-7z" fill="#8865a9"/><path d="M126.41 106.25a5.13 5.13 0 0 1 1.78 1.19 11.61 11.61 0 0 1 1.22 1.63c.59.89 1.1 2.8.73 3s-2.44-3.21-2.77-2.41 0 1.54-.43 1.56-1.92-3.47-3.09-4.55 2.56-.42 2.56-.42z" fill="#f8c0b0"/><path d="M105.95 159.32a9.36 9.36 0 0 0 1.31-.14l.9-35.91z" fill="#d88a2c"/><path d="M102.49 139.92l-1.27-1.66-13.36-7.74a1.86 1.86 0 0 1-.77-1.48v-10.93l-.77-1 .72-.42a.49.49 0 0 1 .52 0l15.14 8.77a1.86 1.86 0 0 1 .77 1.48v11.91a.68.68 0 0 1-.28.64z" fill="#6c4b99"/><path d="M93.25 133.65l-.95-.55-5.21-9.1v-5.94l-.77-1 .72-.42a.49.49 0 0 1 .52 0l15.14 8.77a1.57 1.57 0 0 1 .57.67z" fill="#bb9fcc"/><path d="M86.67 117.55l-.34-.45.72-.42a.49.49 0 0 1 .52 0l.27.15z" fill="#bb9fcc"/><path d="M102.85 125.58a1.94 1.94 0 0 1 .63 1.28l-1.48.85-.71-1.23z" fill="#6c4b99"/><path d="M102 125.9l-15.14-8.77c-.43-.25-.78 0-.78.59v11.91a1.86 1.86 0 0 0 .77 1.48l15.15 8.77c.43.25.78 0 .78-.59v-11.91a1.86 1.86 0 0 0-.78-1.48z" fill="#8865a9"/><path fill="#fff" d="M98.89 134.44l-.73-.41v-6.2l.73.42v6.19zm-1.69-.97l-.72-.41v-6.2l.72.42v6.19zm-1.68-.97l-.73-.42v-6.19l.73.41v6.2z"/><path d="M93.15 117.08a37 37 0 0 0-.54 5c.09 1.22.75 3.24 1.24 3.19s0-4.91.89-4.43 1 1.32 1.36 1-.69-4.45-.4-6.26-2.55 1.5-2.55 1.5z" fill="#f8c0b0"/><path d="M109.83 75.58c3.06 1.09 3.66.42 3.69.39s.05-.37.06-.56a6.09 6.09 0 0 0-.2-2l-7.94-1.07a8.66 8.66 0 0 0 4.39 3.24z" fill="#eb9d93"/><path d="M113.8 69.32a9 9 0 0 0-8-3c-2.92.45-5.37 2.44-5.92 7a10.43 10.43 0 0 0 2.82 8.29 2.5 2.5 0 0 0 .33-.17c1.17-.77 1.29-1.19 1.29-1.2l.26-2.31a.65.65 0 0 0-.58-.64 1.16 1.16 0 0 1-.85-.52 1.36 1.36 0 0 1 1-2.29 1 1 0 0 0 1.07-.76.55.55 0 0 1 .71-.37c1.52.55 5.28 1.74 7.7 1.06 3.08-.86.89-4.47.17-5.09z" fill="#523f92"/><path d="M110.32 78.33l1.87-.51a4.51 4.51 0 0 1-2.19 1.76c-1.3.36-1.5-.74-1.5-.74z" fill="#fff"/><path fill="#bb9fcc" d="M96.32 121.78l-1.59-.91.6.97.8.3.19-.36z"/><path d="M131.43 124.38L149.67 114a.93.93 0 0 0 .54-.77v-2l-1 .84-11.42-6.69a3.5 3.5 0 0 0-3.15-.15l-17.43 9.92-1.34-.78v2.05a1.3 1.3 0 0 0 .76 1l11.66 6.83a3.5 3.5 0 0 0 3.14.13z" fill="#ca2586"/><path d="M116.43 113.52l18.23-10.38a3.5 3.5 0 0 1 3.15.15l11.66 6.83c.93.54 1 1.36.21 1.82l-18.23 10.38a3.5 3.5 0 0 1-3.15-.15l-11.66-6.83c-.93-.55-1.02-1.34-.21-1.82z" fill="#e93e8f"/><path d="M131.45 122.31l18.23-10.38a.86.86 0 0 0 .51-1 1.1 1.1 0 0 1-.47.47l-18.23 10.38a3.5 3.5 0 0 1-3.15-.15l-11.66-6.83a1.48 1.48 0 0 1-.68-.8c-.21.44 0 1 .68 1.35l11.66 6.83a3.5 3.5 0 0 0 3.11.13zm4.14-11.55a.75.75 0 0 1 0-1.42 2.71 2.71 0 0 1 2.45 0 .75.75 0 0 1 0 1.42 2.71 2.71 0 0 1-2.45 0z" fill="#fff"/><path d="M131.86 112.89a.75.75 0 0 1 0-1.42 2.71 2.71 0 0 1 2.45 0 .75.75 0 0 1 0 1.42 2.71 2.71 0 0 1-2.45 0zm-3.72 2.11a.75.75 0 0 1 0-1.42 2.71 2.71 0 0 1 2.45 0 .75.75 0 0 1 0 1.42 2.71 2.71 0 0 1-2.45 0z" fill="#fff"/><path d="M234.19 138.93c0 1.69-1.19 2.38-2.65 1.53a5.86 5.86 0 0 1-2.65-4.59c0-1.69 1.19-2.38 2.65-1.53a5.86 5.86 0 0 1 2.65 4.59zm1.1 4.78v-.08c-.11-.71-.79-1.34-1.23-1.18a3 3 0 0 1-2.51-.42 7.86 7.86 0 0 1-2.51-2.48c-.44-.67-1.12-.82-1.23-.24v.07l-1.26 8 10 5.79z" fill="#ca2586"/><path d="M234.19 138.93c0 1.69-1.19 2.38-2.65 1.53a5.86 5.86 0 0 1-2.65-4.59c0-1.69 1.19-2.38 2.65-1.53a5.86 5.86 0 0 1 2.65 4.59zm1.1 4.78v-.08c-.11-.71-.79-1.34-1.23-1.18a3 3 0 0 1-2.51-.42 7.86 7.86 0 0 1-2.51-2.48c-.44-.67-1.12-.82-1.23-.24v.07l-1.26 8 10 5.79zm1.97 15.51l-12.17-7.03v-.88l12.17 7.03v.88zm-3.67 1.71l-8.5-4.91v-.88l8.5 4.91v.88zm-1.15-2.58l-7.35-4.25v-.87l7.35 4.24v.88zm4.82 2.78l-3.67-2.12v-.88l3.67 2.12v.88z" fill="#fff"/><path fill="#5793ce" d="M237.29 100.6l-12.17-7.03v-.87l12.17 7.02v.88zm-3.68 1.71l-8.49-4.9v-.88l8.49 4.9v.88zm-1.14-2.58l-7.35-4.24v-.88l7.35 4.25v.87zm4.82 2.79l-3.68-2.13v-.87l3.68 2.12v.88zm0 5.48l-12.17-7.02v-.88l12.17 7.03v.87zm-3.68 1.71l-8.49-4.9v-.88l8.49 4.91v.87zm-1.14-2.57l-7.35-4.25v-.87l7.35 4.24v.88zm4.82 2.78l-3.68-2.12v-.88l3.68 2.12v.88zm0 5.48l-12.17-7.02v-.88l12.17 7.03v.87zm-3.68 1.71l-8.49-4.9v-.88l8.49 4.91v.87zm-1.14-2.57l-7.35-4.25v-.87l7.35 4.24v.88zm4.82 2.78l-3.68-2.12v-.88l3.68 2.12v.88z"/><path fill="#fff" d="M198.94 136.17l-8.69-5.02v-.81l8.69 5.02v.81zm5.38 3.1l-3.71-2.14v-.81l3.71 2.14v.81zm-5.08-1.17l-3.71-2.14v-.81l3.71 2.14v.81zm8.03 4.64l-6.66-3.84v-.81l6.66 3.84v.81zm4.55 4.39l-9.84-5.68v-.81l9.84 5.68v.81zm-2.2-4.79l-3.71-2.15v-.81l3.71 2.15v.81zm-15.66-7.28l-3.71-2.14v-.81l3.71 2.14v.81zm6.43 5.47l-10.15-5.86v-.81l10.15 5.86v.81zm-3.91-.49l-6.13-3.53v-.82l6.13 3.54v.81z"/><path d="M286.57 182.77a.66.66 0 0 1-.34-1.24l25.77-15.2a.47.47 0 0 0 0-.81l-7-4.21a.66.66 0 1 1 .68-1.14l7 4.21a1.8 1.8 0 0 1 0 3.09l-25.73 15.2a.67.67 0 0 1-.38.1z" fill="#fdd762"/><path fill="#d5ecfb" d="M291.6 194.42l-8.93-5.16-8.93 5.16 8.93 5.15 8.93-5.15z"/><path fill="#ca2586" d="M282.67 194.79v-5.81l10.67-6.16v5.81l-10.67 6.16zm0-5.81L272 182.82v5.81l10.67 6.16v-5.81z"/><path fill="#e93e8f" d="M293.34 182.82l-10.67-6.16-10.67 6.16 10.67 6.16 10.67-6.16z"/><path fill="#eeeded" d="M196.56 59.05l1.8 5.9 4.6 3.17-3.49 1.42 1.05 5.85-3.96-5.09-3.95.53 1.04-4.65-3.49-5.45 4.6 2.14 1.8-3.82zm14.67 8.4l1.8 5.9 4.6 3.16-3.49 1.43 1.05 5.85-3.96-5.09-3.95.52 1.04-4.64-3.49-5.46 4.61 2.15 1.79-3.82zm-22.94-7.73l-4.6-3.17-1.8-5.9-.27.58v10.71l.27-.04 3.96 5.1-1.05-5.86 3.49-1.42z"/><path fill="#e8a304" d="M149.47 29.98l1.79 5.9 4.61 3.17-3.49 1.42 1.04 5.86-3.95-5.1-3.96.53 1.05-4.65-3.5-5.45 4.61 2.14 1.8-3.82z"/><path d="M140.92 32.89l2.15-1.23 3.32 1.55v2.28a11.64 11.64 0 0 1-1.46.12c-.1 0-4.01-2.72-4.01-2.72z" fill="#f9bf32"/><path d="M153.42 46.33l-2.15 1.23-1-5.85 1-1.1 1.17.2z" fill="#e8a304"/><path fill="#fdd762" d="M147.32 31.22l1.8 5.9 4.6 3.16-3.49 1.42 1.04 5.86-3.95-5.09-3.96.52 1.05-4.64-3.49-5.46 4.6 2.15 1.8-3.82z"/><path d="M151.27 47.56l-1-5.85 3.49-1.42-4.6-3.17-1.8-5.9-1.84 3.78-4.6-2.15.32.5 4.44 2.07 1.58-3.36 1.59 5.21 4.21 2.9-3.18 1.3 1 5.51z" fill="#fff"/><path fill="#e8a304" d="M147.32 31.22l2.15-1.24 1.79 5.9-2.14 1.24-1.8-5.9z"/><path fill="#f9bf32" d="M155.87 39.05l-2.15 1.23-4.6-3.16 2.14-1.24 4.61 3.17z"/><path fill="#fff" d="M149.22 37.26l-.32-.19 2.32-1.35.04.16.16.11-2.2 1.27z"/><path fill="#e8a304" d="M164.13 38.38l1.8 5.9 4.61 3.17-3.5 1.42 1.05 5.85-3.96-5.09-3.95.53 1.05-4.65-3.49-5.46 4.6 2.15 1.79-3.82z"/><path d="M155.59 41.29l2.15-1.23 3.32 1.55v2.28a11.65 11.65 0 0 1-1.46.12c-.1-.01-4.01-2.72-4.01-2.72z" fill="#f9bf32"/><path d="M168.09 54.72L165.94 56l-1-5.85 1-1.1 1.17.2z" fill="#e8a304"/><path fill="#fdd762" d="M161.99 39.61l1.8 5.9 4.6 3.17-3.49 1.42 1.04 5.86-3.95-5.1-3.96.53 1.05-4.65-3.49-5.45 4.6 2.15 1.8-3.83z"/><path d="M165.94 56l-1-5.85 3.49-1.42-4.6-3.17-1.8-5.9-1.8 3.82-4.6-2.15.32.5 4.44 2.07 1.58-3.36 1.59 5.21 4.21 2.9-3.18 1.3 1 5.51z" fill="#fff"/><path fill="#e8a304" d="M161.99 39.61l2.14-1.23 1.8 5.9-2.14 1.23-1.8-5.9z"/><path fill="#f9bf32" d="M170.54 47.45l-2.15 1.23-4.6-3.17 2.14-1.23 4.61 3.17z"/><path fill="#fff" d="M163.89 45.66l-.32-.19 2.32-1.35.04.16.16.1-2.2 1.28z"/><path fill="#e8a304" d="M178.81 46.78l1.79 5.9 4.61 3.16-3.49 1.43 1.04 5.85-3.95-5.09-3.96.52 1.05-4.64-3.49-5.46 4.6 2.15 1.8-3.82z"/><path d="M170.26 49.69l2.15-1.23 3.31 1.54v2.28a11.65 11.65 0 0 1-1.46.12c-.09 0-4-2.71-4-2.71z" fill="#f9bf32"/><path d="M182.76 63.12l-2.15 1.23-1-5.85 1-1.1 1.17.2z" fill="#e8a304"/><path fill="#fdd762" d="M176.66 48.01l1.8 5.9 4.6 3.17-3.49 1.42 1.04 5.85-3.95-5.09-3.96.52 1.05-4.64-3.49-5.45 4.6 2.14 1.8-3.82z"/><path d="M180.61 64.35l-1-5.85 3.49-1.42-4.6-3.17-1.8-5.9-1.8 3.82-4.6-2.15.32.5 4.38 2.08 1.58-3.36 1.59 5.21 4.21 2.9-3.18 1.3 1 5.51z" fill="#fff"/><path fill="#e8a304" d="M176.66 48.01l2.15-1.23 1.79 5.9-2.14 1.23-1.8-5.9z"/><path fill="#f9bf32" d="M185.21 55.84l-2.15 1.24-4.6-3.17 2.14-1.23 4.61 3.16z"/><path fill="#fff" d="M178.56 54.06l-.32-.19 2.32-1.35.04.16.16.1-2.2 1.28z"/><path fill="#e8a304" d="M193.47 55.18l1.8 5.89 4.61 3.17-3.5 1.42 1.05 5.86-3.96-5.1-3.95.53 1.05-4.65-3.5-5.45 4.61 2.15 1.79-3.82z"/><path d="M184.93 58.08l2.15-1.23 3.32 1.55v2.28a11.64 11.64 0 0 1-1.46.12c-.1 0-4.01-2.72-4.01-2.72z" fill="#f9bf32"/><path d="M197.43 71.52l-2.15 1.23-1-5.85 1-1.1 1.17.2z" fill="#e8a304"/><path fill="#fdd762" d="M191.33 56.41l1.8 5.9 4.6 3.16-3.49 1.43 1.04 5.85-3.95-5.09-3.96.52 1.05-4.64-3.49-5.46 4.6 2.15 1.8-3.82z"/><path d="M195.28 72.75l-1-5.85 3.49-1.42-4.6-3.17-1.8-5.9-1.8 3.82-4.6-2.15.32.5 4.44 2.07 1.58-3.36 1.59 5.21 4.21 2.9-3.18 1.3 1 5.51z" fill="#fff"/><path fill="#e8a304" d="M191.33 56.41l2.14-1.23 1.8 5.89-2.14 1.24-1.8-5.9z"/><path fill="#f9bf32" d="M199.88 64.24l-2.15 1.23-4.6-3.16 2.14-1.24 4.61 3.17z"/><path fill="#fff" d="M193.23 62.45l-.32-.18 2.31-1.35.05.15.16.11-2.2 1.27z"/><path fill="#e8a304" d="M208.15 63.57l1.79 5.9 4.61 3.17-3.5 1.42 1.05 5.85-3.95-5.09-3.96.53 1.05-4.65-3.5-5.45 4.61 2.14 1.8-3.82z"/><path d="M199.6 66.48l2.15-1.23 3.32 1.55v2.28a11.63 11.63 0 0 1-1.46.12c-.1 0-4.01-2.72-4.01-2.72z" fill="#f9bf32"/><path d="M212.1 79.91l-2.1 1.24-1-5.85 1-1.1 1.17.2z" fill="#e8a304"/><path fill="#fdd762" d="M206 64.81l1.79 5.89 4.61 3.17-3.49 1.42 1.04 5.86-3.95-5.09-3.96.52 1.05-4.65-3.49-5.45 4.6 2.15 1.8-3.82z"/><path d="M210 81.15l-1-5.85 3.49-1.42-4.6-3.17-1.8-5.9-1.8 3.82-4.6-2.15.32.5 4.34 2.02 1.58-3.36 1.59 5.21 4.21 2.9-3.18 1.3 1 5.51z" fill="#fff"/><path fill="#e8a304" d="M206 64.81l2.15-1.24 1.79 5.9-2.15 1.23-1.79-5.89z"/><path fill="#f9bf32" d="M214.55 72.64l-2.15 1.23-4.61-3.17 2.15-1.23 4.61 3.17z"/><path fill="#fff" d="M207.9 70.85l-.33-.19 2.33-1.35.04.16.16.11-2.2 1.27z"/></g></svg>