<svg xmlns="http://www.w3.org/2000/svg" viewBox="0 0 400 225"><g style="isolation:isolate"><path fill="#f6b5c2" d="M0 0h400v225H0z" data-name="Calque 2"/><g data-name="Calque 1"><path d="M0 225v-23.16s43.86-57.47 204.59-57.37 195.41 56 195.41 56V225z" fill="#826cae"/><path d="M188.09 14c17.67-6.22 36.66-12.22 54.83-7.63 4.7 1.19 9.76 3.63 11.15 8.27 1.48 5-1.88 10-5.41 13.76C234.53 43.48 215.06 50.39 196 57a92.8 92.8 0 0 1-15.73 4.43c-7 1.1-14.13.6-21.1 1.74-13.94 2.29-26.62 11.06-40.75 10.93-6.91-.1-18.42-4.74-13.14-13.64 1.41-2.37 4-4.33 5.84-6.42 2.56-2.92 6-5.29 9.12-7.59a160.75 160.75 0 0 1 21.38-13.23c14.89-7.77 30.66-13.64 46.47-19.22zm68.42 50.47c-8.84 3.08-18.37 5.94-27.94 2-2.48-1-5.19-2.85-6.12-5.91-1-3.26.52-6.33 2.18-8.57 6.61-9 16.34-12.38 25.88-15.63a35.25 35.25 0 0 1 7.92-2c3.55-.34 7.26.36 10.8 0 7.09-.74 13.24-5.72 20.53-4.9 3.56.4 9.72 4 7.38 9.46-.62 1.45-1.87 2.58-2.73 3.83a24.8 24.8 0 0 1-4.37 4.41 64.28 64.28 0 0 1-10.44 7.39c-7.31 4.21-15.19 7.16-23.09 9.92z" fill="#ab96c7"/><path fill="#5453a0" d="M111.05 140.18h38.29v43.1h-38.29zm131.5 0h38.29v43.1h-38.29z"/><path fill="#7878b8" d="M143.84 126.13h105.85v57.16H143.84z"/><path d="M246.55 194.17h2.53l-1.7-6.43-17.28-65.38h-2.53l.62 2.35h-9.57l-.62-2.35h-2.53l19 71.81H237l-1.39-5.26h9.57zm-15.33-58h-9.57l-1.2-4.54H230zm.31 1.19l1.2 4.54h-9.57l-1.2-4.54zm1.51 5.73l1.2 4.54h-9.57l-1.2-4.54zm1.51 5.73l1.2 4.54h-9.57l-1.2-4.54zm1.51 5.73l1.2 4.54h-9.56l-1.2-4.54zm1.51 5.73l1.2 4.54h-9.57l-1.2-4.54zm1.53 5.72l1.2 4.54h-9.57l-1.2-4.54zm1.51 5.73l1.2 4.54h-9.57l-1.2-4.54zm-8.06 5.73h9.57l1.2 4.54h-9.57zm-4-51.56l1.2 4.54h-9.57l-1.2-4.54zm6.76 61.83l-1.2-4.54h9.57l1.2 4.54z" fill="#565354"/><path d="M271.22 199.4a1.21 1.21 0 0 1 .32-1 6.92 6.92 0 0 0 .78-1.15l.47-1.85h2c0 .37.09.78.08.88a6.62 6.62 0 0 0-.18 1.63 4 4 0 0 1-.36 1.64c-.1.18-.46.53-1.75.47s-1.35-.51-1.36-.62z" fill="#f59b11"/><path d="M272.59 199.43a3.23 3.23 0 0 0 1.88-.3 3.74 3.74 0 0 1-.19.5c-.1.18-.46.53-1.75.47s-1.31-.58-1.33-.7a1.1 1.1 0 0 1 0-.31 2.23 2.23 0 0 0 1.39.34z" fill="#f5e6db"/><path d="M284.64 199.4a1.21 1.21 0 0 0-.32-1 6.93 6.93 0 0 1-.78-1.15l-.47-1.85h-2c0 .37-.09.78-.08.88a6.62 6.62 0 0 1 .18 1.63 4 4 0 0 0 .36 1.64c.1.18.46.53 1.75.47s1.34-.51 1.36-.62z" fill="#f59b11"/><path d="M283.26 199.43a3.23 3.23 0 0 1-1.88-.3 3.73 3.73 0 0 0 .19.5c.1.18.46.53 1.75.47s1.31-.58 1.33-.7a1.1 1.1 0 0 0 0-.31 2.23 2.23 0 0 1-1.39.34z" fill="#f5e6db"/><path d="M275.72 141.1l.11 4.09c0 .18-.67.43-.8.49l-.56.26a3.08 3.08 0 0 0-.48.36.39.39 0 0 0-.2.33.4.4 0 0 0 .11.2 3.08 3.08 0 0 0 1.42.91 6.87 6.87 0 0 0 1.68.26 17.47 17.47 0 0 0 4.73-.33.36.36 0 0 0 .28-.16.31.31 0 0 0 0-.16 1.51 1.51 0 0 0-.61-1 4.53 4.53 0 0 1-1.05-.85 2.53 2.53 0 0 1-.48-1.13c-.06-.52 0-1.05-.06-1.58v-1.64z" fill="#4b200f"/><path d="M271.49 164.81c-.11.17.09 6.14 0 7.49s.92 24.48.92 24.48l2.37.31s1.34-9.23 1.39-9.79 1.8-17.88 1.8-17.88l3 27.43 2.27-.18s.8-21.66.68-23.9 0-7.83 0-7.83z" fill="#3f3383"/><path d="M275 187.81c0 .47-1 7-1.29 9.14l1 .13s1.34-9.23 1.39-9.79c0-.35 1.29-12.77 1.8-17.88l-1 .24s-1.83 17.59-1.9 18.16zm8.94-15c-.12-2.24 0-7.83 0-7.83l-12.44-.13a2.52 2.52 0 0 0 0 .53l11.33.12s-.1 5.59 0 7.83c.11 2.05-.55 20.43-.66 23.47l1.13-.09s.78-21.71.7-23.95z" style="mix-blend-mode:multiply" fill="#ead0b5" opacity=".5"/><path d="M283.86 170l-12.36-.13v1.97a32.3 32.3 0 0 0 6.4.8 51.25 51.25 0 0 0 6-.71v-1.1z" style="mix-blend-mode:multiply" fill="#ead0b5" opacity=".5"/><path d="M270.46 171.34a48 48 0 0 0 7.4.82c3.41-.2 6.92-.73 6.92-.73l-1.9-24.49-2.74-1.74s-.5 2.29-2.19 2.29-2.47-2.06-2.47-2.06l-3 1.13z" fill="#e9ae45"/><path d="M273.55 146.9a.69.69 0 0 0-.21-.36.72.72 0 0 0-.82 0c-1.84 1.18-2 3.75-2.38 5.65a26.72 26.72 0 0 0-.68 7c0 .2.28.19.46.15s.66-.72.88-1a8.53 8.53 0 0 0 2.19-3.59 19.14 19.14 0 0 0 .61-7.63 2.13 2.13 0 0 0-.05-.22z" fill="#e9ae45"/><path d="M279.85 143.85v-1.27c-.26.59-.59 1.16-.91 1.24s-1-.41-1.42-.47a3 3 0 0 1-1.76-1.61v1.28a3.15 3.15 0 0 0 .81 1.17 3.92 3.92 0 0 0 1.18.7 1.13 1.13 0 0 0 .9 0 3.24 3.24 0 0 0 .86-.59 2.48 2.48 0 0 0 .34-.45z" style="mix-blend-mode:multiply" fill="#ead0b5"/><path d="M275.77 142a7.6 7.6 0 0 0 1.51 2 1.45 1.45 0 0 0 .84.46c1.77.12 2.62-3.58 2.68-4.84.09-1.89-.77-3.56-2.85-3.56a2.81 2.81 0 0 0-2.88 2.73 5.75 5.75 0 0 0 .7 3.21z" fill="#6f330e"/><path d="M282.33 153.41c.17 1.1-.14 2.77.23 3.8a2.88 2.88 0 0 0 2 2 18.59 18.59 0 0 0 1.6-1c1-.39-.3-2.93-.36-3.73a43.73 43.73 0 0 0-1.26-5.12c-.14-.66-1-3-2.11-2.29a1.65 1.65 0 0 0-.58 1.12c-.38 1.89.15 3.29.48 5.22z" fill="#e9ae45"/><path d="M275.94 138.79a1.15 1.15 0 0 1 1-.81 1.28 1.28 0 0 1 1.16.54 2.52 2.52 0 0 1 .27.58 26.8 26.8 0 0 1 1 3.45 2.62 2.62 0 0 0 .36 1 8.11 8.11 0 0 0 .47-4.95 3.73 3.73 0 0 0-.76-1.68 1.82 1.82 0 0 0-1.66-.65 2.31 2.31 0 0 0-1.47 1.37 2.55 2.55 0 0 0-.27.85s0 .05 0 0" style="mix-blend-mode:multiply" fill="#ead0b5"/><path d="M273.16 163.56a5.05 5.05 0 0 0 1.38 0l8.14-.69c1.48-.12 1-2.12 1.16-3.18a6.42 6.42 0 0 0 .29-1.84 8.21 8.21 0 0 0-1 .22 4.94 4.94 0 0 1-1.42-.27 13.42 13.42 0 0 0-8.69 1.06 2.74 2.74 0 0 0-.86.59c-1 1.09-.76 3.61.76 4zm.76-13.24c-.44-.26-.58.23-.65.57a16.27 16.27 0 0 0-.31 3.46l.88.58a.18.18 0 0 0 .11 0c.07 0 .11-.09.13-.16a10.62 10.62 0 0 0 .18-3.06c-.01-.3.01-1.18-.34-1.39zm9.8 4.1l-1-2.06a9.35 9.35 0 0 1-1.31-3.36 46.66 46.66 0 0 0 .12 5.4.3.3 0 0 0 .28.36l1.48.25c.19 0 .44 0 .54-.13a.5.5 0 0 0-.11-.46z" style="mix-blend-mode:multiply" fill="#b93e5e" opacity=".5"/><path d="M269.72 157.83a16.54 16.54 0 0 1 3.42-1.79l.23.76-.19 1.92-.12.77a7.76 7.76 0 0 1-1.9 1 1.33 1.33 0 0 1-1.54-.44c0-.06-.22-.49-.45-1.08a1.64 1.64 0 0 1 .55-1.14z" fill="#4b200f"/><path d="M280.25 140q0-.37-.06-.73a2.58 2.58 0 0 0-1.4-1.77 2.15 2.15 0 0 0-2.14.36 2.33 2.33 0 0 0-.89 1.74 8.32 8.32 0 0 0-.13 1.14 7.86 7.86 0 0 0 .12 1.31.34.34 0 0 1 0 .23s-.83-.77-.9-.86a9.84 9.84 0 0 1-.72-1 5.12 5.12 0 0 1-.89-2.37 4.56 4.56 0 0 1 .36-2 5.18 5.18 0 0 1 .58-1.1 4.44 4.44 0 0 1 3.59-1.81 4.94 4.94 0 0 1 3.66 1.72 4.52 4.52 0 0 1 1.06 2.19 4.75 4.75 0 0 1-.31 2.48c-.12.3-1.61 3-2 2.43-.1-.12.07-.67.08-.83a9.12 9.12 0 0 0-.01-1.13z" fill="#32170d"/><path d="M284.46 157.25a6 6 0 0 0-2.5 1.47c-.46.64.46 2.32 1.34 2.49a1.38 1.38 0 0 0 .82-.19 6.49 6.49 0 0 0 2.18-1.14 1.62 1.62 0 0 0 .33-1.89 1.87 1.87 0 0 0-2.17-.74z" fill="#4b200f"/><rect x="272.57" y="153.92" width="11.49" height="8.4" rx="1.77" ry="1.77" fill="#eaeaea"/><path d="M283.84 159.24s.11-.7-.16-.88c0 0-.22-.12-.25-.14s-.25-.13-.38-.17a1 1 0 0 1-.27-.11l-.35-.28a.56.56 0 0 0-.19-.12c-.07 0-.7-.38-.75-.31-.15.22.57.89.75 1s.92.62.92.62-.08.37-.36.39a9.63 9.63 0 0 0-1.68 0c-.14.14.31.28.25.4a.22.22 0 0 0 0 .07.1.1 0 0 0 0 .05.67.67 0 0 0 .21.22l.67.51a3.58 3.58 0 0 0 .59.44l.46.19.35.11.43.14h.05a5.7 5.7 0 0 0-.09-.71 4.58 4.58 0 0 1-.13-.72z" style="mix-blend-mode:multiply" fill="#d29a69" opacity=".5"/><path d="M284.22 158.55s.08-.72-.25-.86a11.44 11.44 0 0 0-2.56-.5c-.08.11.54.5.81.63s1.14.48 1.14.48a.59.59 0 0 1-.41.45 11 11 0 0 0-1.88.39c-.14.14.05.34.36.31s1.89 0 1.89 0a11.1 11.1 0 0 0-2 .24c0 .13 0 .31.46.31.29 0 1.78.28 1.78.28a5.53 5.53 0 0 0-1.34.17c-.14.13.13.31.48.3a4.3 4.3 0 0 1 1.05.23s.27.15.41-.07a.68.68 0 0 0 .11-.44.49.49 0 0 0 .14-.42 2 2 0 0 1 0-.54z" fill="#6f330e"/><path d="M271.56 157.2s-.22-.69 0-.91c0 0 .2-.15.23-.18s.23-.17.36-.24a1 1 0 0 0 .25-.15l.31-.34a.57.57 0 0 1 .18-.15c.07 0 .65-.49.7-.44s-.43 1-.59 1.15-.82.78-.82.78.14.36.43.33a9.81 9.81 0 0 1 1.69-.27c.16.11-.27.34-.19.44s0 0 0 .06a.1.1 0 0 1 0 .06.68.68 0 0 1-.18.25l-.59.62a3.65 3.65 0 0 1-.53.54l-.44.26-.33.17-.42.21h-.06a5.82 5.82 0 0 1 0-.73 4.67 4.67 0 0 0 0-.75z" style="mix-blend-mode:multiply" fill="#d29a69" opacity=".5"/><path d="M271.06 156.57s-.2-.72.11-.91a11.66 11.66 0 0 1 2.5-.91c.1.1-.47.59-.72.76s-1.07.66-1.07.66a.6.6 0 0 0 .48.39 11.23 11.23 0 0 1 2 .1c.17.12 0 .35-.32.37s-1.9.28-1.9.28a11.32 11.32 0 0 1 2.07-.08c.07.12 0 .31-.42.38-.29 0-1.75.57-1.75.57a5.64 5.64 0 0 1 1.37 0c.16.11-.08.34-.44.38a4.38 4.38 0 0 0-1 .39s-.25.19-.43 0a.69.69 0 0 1-.18-.43.5.5 0 0 1-.21-.4 2 2 0 0 0 0-.55z" fill="#6f330e"/><path d="M231.69 155.59l-.23.16c-2.8 2.22-5.22 4.81-8.72 6-1.77.58-4.78 2.2-6.55 1-.25-.17-.67-.58-1-.55h-.07a.08.08 0 0 0 0 .05c.17.39.58.65.74 1 .38.91-1.92 1-2.45 1.11a1.56 1.56 0 0 0-.47.17c-.06 0-.33.26-.27.34a.11.11 0 0 0 .08 0 1.26 1.26 0 0 0 .37 0 12.48 12.48 0 0 1 1.64-.16s0 .08-.05.1l-.84.54c-.48.3-1 .18-1.47.6a.21.21 0 0 0 .09.14c.5 0 1-.09 1.5-.11l1.66-.09a9 9 0 0 0 1-.09 7 7 0 0 0 2.06-.82 9 9 0 0 1 2.11-.68c1.43-.32 2.9-.44 4.34-.68a8.23 8.23 0 0 0 1.89-.47 7.47 7.47 0 0 0 1.68-1.08c.79-.62 1.61-1.21 2.38-1.86a4.75 4.75 0 0 0 2.08-3.21c.04-.94-.31-2.08-1.5-1.41z" fill="#dfbb94"/><path d="M232.31 150s-.3 4.13-.46 5.22-4 5.2-4 5.2l3.36 2c.8.49 1.68.92 2.44 1.47.51.37 1.34 1.59 1.88.78a8.32 8.32 0 0 0 1.39-3.52 6.51 6.51 0 0 0-.07-3.23c-.54-1.2-2.38-1.88-2.2-3.29l.36-2.75z" fill="#e2c09c"/><path d="M232.3 150.18v.67c0 .57-.1 1.35-.17 2.11v1.77a9.43 9.43 0 0 0 1.68 1.82 1.08 1.08 0 0 0 1.77-.23 3 3 0 0 1-.65-.87l-.21-.09.45-3.45-2.65-1.9v.15z" style="mix-blend-mode:multiply" fill="#ead0b5"/><path d="M230.23 149.33c-.41 2.24.07 5.37 1.69 5.34 1.86 0 3-1.68 3.35-3.93s-.09-3.62-1.7-3.86-2.69-1.13-3.34 2.45z" fill="#ead0b5"/><path d="M229.18 172.92a4.12 4.12 0 0 0-.45 1c-1.51 4.71.11 7.82.83 12.58s2.37 11.41 2.38 16.23c0 .5.19 2.62 1.26 2.05a1.22 1.22 0 0 0 .5-.76 20.51 20.51 0 0 0 .73-5.2 45.53 45.53 0 0 0 .06-7.47 21.57 21.57 0 0 1-.55-3.57c0-.56.39-6.13.44-6.9s1-8.26 1-8.26c0-.27-4.28-.46-4.67-.45a2.47 2.47 0 0 0-.71.09 1.55 1.55 0 0 0-.82.66z" fill="#e2c09c"/><path d="M231.23 170.82a3.48 3.48 0 0 0-1.08.27 24.05 24.05 0 0 1-3.52.11s3.28 10.64 4 12a41.2 41.2 0 0 0 3.89 5.47c2.59 2.62 5 5.35 7.49 8.09.37.41 3.51 5.13 3.75 2.51a3.48 3.48 0 0 0-.5-1.79c-1.85-3.8-4.2-8.15-7.22-11.2-2.28-2.3-2.91-5.83-3.46-9-.33-1.87.13-4.94-1.75-5.9a3.37 3.37 0 0 0-1.6-.56z" fill="#ead0b5"/><path d="M227.44 168.4a25.26 25.26 0 0 0-1.26 4.88c-.41 2.71-.24 4.5 1 8.91a90.9 90.9 0 0 0 3 8.58s4.31-.42 6.71-2.16a21.11 21.11 0 0 0 3.28-2.77s-3-3.52-3.33-5.44-.52-4.5-.8-6.94a11.15 11.15 0 0 0-2.63-5.21c-.25-.25-5.97.15-5.97.15z" fill="#db6f30"/><path d="M231.18 156.48s-4.07 3.85-4.24 4.54c-.32 1.3.53 2.42.6 3.72a8.17 8.17 0 0 1 .18 2.3c-.45 2-1.35 3.89-1.63 6-.09.72 3.49.23 4 .15a17.58 17.58 0 0 0 4.24-1.3 1.47 1.47 0 0 0 .87-.74 1.52 1.52 0 0 0 0-.65 13.45 13.45 0 0 1 .08-4.89 24.19 24.19 0 0 1 1.63-3.91c.66-1.55 1-3.31-.55-4.56a9 9 0 0 1-1.51-1.31c-1.27.63-2 2.22-3.35 2.51a.86.86 0 0 1-.83-.18c-.37-.5.16-1.34.51-1.68z" fill="#3b3181"/><rect x="231.68" y="175.79" width="6.92" height="8.68" rx="2.38" ry="2.38" transform="rotate(-4.75 235.137 180.146)" fill="#eaeaea"/><path d="M234.27 157.55a2.69 2.69 0 0 0-.06.3 3.55 3.55 0 0 0 0 1c.26 1.54.88 3 1.19 4.6a16.59 16.59 0 0 1 .32 5.17c-.22 1.93 0 5.5-1.88 6.62-.27.16-.82.37-.93.68v.09h.09c.43 0 .84-.25 1.28-.23 1 .05.08 2.25 0 2.81a1.67 1.67 0 0 0 0 .52c0 .07.09.43.2.41a.11.11 0 0 0 .07-.06 1.32 1.32 0 0 0 .14-.36 13.15 13.15 0 0 1 .56-1.62s.07.05.07.1c0 .35.09.69.14 1 .07.59-.27 1.05-.08 1.66a.2.2 0 0 0 .17 0c.16-.32.82-1.43.7-1.77l.3.81c0 .11.17.25.25.16a.18.18 0 0 0 0-.13 11.49 11.49 0 0 1 .24-2.9 10.14 10.14 0 0 0 .12-2.5 9.67 9.67 0 0 1 .28-2.29 34 34 0 0 0 .93-4.65 40.34 40.34 0 0 0 0-4.88c-.09-1.85-.54-4.41-2.35-5.42a1.08 1.08 0 0 0-1.33.11 1.51 1.51 0 0 0-.42.77z" fill="#ead0b5"/><path d="M231.89 148.82a.61.61 0 0 1 .05.19 1.25 1.25 0 0 1-.14.6c-.33.81-.3 1.66.62 1.92s.61 1 .5 1.88a1.56 1.56 0 0 0 .3 1.12c.23.3.55.51.78.82.58.8.46 2.18.54 3.12a12 12 0 0 0 1.14 3.73 10.64 10.64 0 0 0 2.29 3.27c.57.54 2.09 2.13 2.91 1.49a.86.86 0 0 0 .33-.47c.09-.41-.28-.78-.33-1.2-.08-.67.68-1.28.49-1.93-.11-.37-.51-.63-.53-1a1 1 0 0 1 .09-.41 8.05 8.05 0 0 0 .59-1.84 1.68 1.68 0 0 0-.71-1.68 2.85 2.85 0 0 1-.67-.35c-.41-.4-.14-1.07-.07-1.64a2.14 2.14 0 0 0-.74-1.88 9 9 0 0 1-1.19-.87 2.27 2.27 0 0 1-.43-1.55c0-.55.12-1.1.08-1.64a4.26 4.26 0 0 0-1.13-2.46c-1.06-1.19-2.62-2.34-4.3-2.06a4.35 4.35 0 0 0-3.26 3.36 1.84 1.84 0 0 0 .11 1.36c.16.26.42.46.47.76a1.44 1.44 0 0 1-.26.82 2.83 2.83 0 0 0-.11 2.26 2.74 2.74 0 0 0 1.55 1.58.91.91 0 0 0 1.13-1 1 1 0 0 0-.23-.43 7.55 7.55 0 0 1-1.51-4.15 3 3 0 0 1 .36-1.76.79.79 0 0 1 1.28.04z" fill="#6f330e"/><path d="M244 199.16c0 .05-.35 4-.41 4.34a5 5 0 0 1-.58 1.4c-.22.31-1.13 1.59-.6 1.85s1.3 0 2.13-1 2-3 2.26-3.29a4.61 4.61 0 0 0 1.49-1.67c.16-.42-2.8-2.89-2.8-2.89zm-12 4.32s-3.06 2.27-3.3 2.4a4.16 4.16 0 0 1-1.22.38c-.32 0-1.45.12-1.52.61s.67.86 1.79.84 3.89-.21 4.23-.17a2.92 2.92 0 0 0 1.75.13c.48-.17.06-4 .06-4z" fill="#db6f30"/><path fill="#cdcccc" d="M246.272 85.557l1.388.569-3.409 8.318-1.388-.568z"/><path d="M249.6 82.5l-.83 2-2.16-.88.83-2a2.42 2.42 0 0 0-1.9 1.49 2.36 2.36 0 1 0 4.36 1.79 2.42 2.42 0 0 0-.3-2.4z" fill="#cdcccc"/><path d="M252.33 105.78a.48.48 0 0 1-.36-.17 18.14 18.14 0 0 1-3.44 3.23.47.47 0 0 0 .6.22 1.9 1.9 0 0 0 .57-.41.87.87 0 0 1 .64-.27 13.76 13.76 0 0 0-1.92 2 .2.2 0 0 0 0 .19c.05.1.2 0 .3 0a4.18 4.18 0 0 1 .89-.6c.11.37-.89 1.19-.52 1.31s.84-.82 1.24-.91c-.07.27-.81 1.27-.52 1.44a.33.33 0 0 0 .36-.05 1 1 0 0 0 .22-.31c.14-.27.29-.68.56-.83a8.37 8.37 0 0 1-.27 1.25.45.45 0 0 0 .52-.22 1.63 1.63 0 0 0 .17-.59 13.11 13.11 0 0 1 1.79-3.84.85.85 0 0 0 .13-.77c-.19-.37-.82-.32-1-.69l.68.23m-7.4-15.09c-.29-.28-.65-.45-.91-.76s-.61-.89-.92-1.32a2.8 2.8 0 0 1-.35-.59 2.36 2.36 0 0 1 .37-2.07 7 7 0 0 1 .88 1.66 3.09 3.09 0 0 0 .86 1.06c.26.19 1 .57.83-.14a1.1 1.1 0 0 0-.31-.45c-.24-.25-.52-.47-.74-.74a.41.41 0 0 1-.06-.51 2.49 2.49 0 0 1 1.78 1.2c.47.7.78 1.48 1.23 2.19s1.3 1.23 1.32 2.06-1 1-1.57.56a28.46 28.46 0 0 1-2.37-2.12z" fill="#ead0b5"/><path d="M260.83 92c-.52-.21-.7 1.25-.82 1.54a18.72 18.72 0 0 1-1.65 2.79 51 51 0 0 1-3.69 5.1 35.52 35.52 0 0 0-3.71 4.87l2.11.92a.56.56 0 0 0 .79-.14c1.67-1.64 3.34-3.27 5-4.94s3-2.71 3.3-4.94a9.85 9.85 0 0 0 .13-2.8 3.32 3.32 0 0 0-1.4-2.4z" fill="#3b3181"/><path d="M259.3 89a.82.82 0 0 0-.53.33.81.81 0 0 0-.06.38q0 1.83.21 3.65a.67.67 0 0 0 .22.52c.05 0 .86.19.9.2.33 0 .56.33.78-.19a2.07 2.07 0 0 0 .12-.58 7.57 7.57 0 0 1 1.1-3 2.87 2.87 0 0 0 .52-1.19 8 8 0 0 0-3.26-.12z" fill="#dcb389"/><path d="M255.11 140.49q.84-.08 1.68-.2c.54-.08 1.63-.13 1.92-.57a6.06 6.06 0 0 0-.33-1.32 6.57 6.57 0 0 0-1.73-.38 11.55 11.55 0 0 1-1.3-.37c-.48-.07-.89.3-1.33.48a3.33 3.33 0 0 1-.94.19 3.81 3.81 0 0 0-2.32.71 1 1 0 0 0-.28 1.16 1.23 1.23 0 0 0 1 .44 20.16 20.16 0 0 0 3.63-.14z" fill="#f59b11"/><path d="M258 136.5c.25 1.14.51 2.35.54 2.35a23.53 23.53 0 0 1-4.41-.57c-1.45-3-1.53-6.4-1.74-9.63a46.77 46.77 0 0 1 1-13c.43-2 .82-4.57 1.86-6.31.73-1.23 3-1 4.28-1.16a18.05 18.05 0 0 0 2.83-.85c.14 0 1.31-.9 1.39-.47.9 4.49-1.61 6.27-2.63 8.2a42.79 42.79 0 0 0-3.46 7.49 22 22 0 0 0-.89 6.92 27 27 0 0 0 .81 5z" fill="#464345"/><path d="M263.81 140.58l2.23-.39c.26 0 .67 0 .86-.22a1.41 1.41 0 0 0 .13-1.14 2.68 2.68 0 0 0-.5-.88 1.75 1.75 0 0 0-.48-.45 1.42 1.42 0 0 0-.64-.16 5.6 5.6 0 0 0-1.83.35 18 18 0 0 1-1.88.45 5.45 5.45 0 0 0-1.68.59c-.31.17-.6.25-.75.59a1 1 0 0 0 .08.93 1.41 1.41 0 0 0 .64.44 5.79 5.79 0 0 0 3.06 0z" fill="#f59b11"/><path d="M265.93 135.92l.21.45c.19.41 1.17 1.76.8 2.21s-3.42-.62-4.09-.59q-1.41-3-2.81-5.93a24.25 24.25 0 0 1-2.23-5.12c-1.1-5.1-1.49-10.36-2.13-15.53a25.09 25.09 0 0 1 .3-3c1.3-.6 2.12-.66 3.42-1.26a17.91 17.91 0 0 0 2.71-1.26c.12-.08.85-2 1-1.63a9.47 9.47 0 0 1 .83 5c-.27 1.49-.13 3-.32 4.5-.22 1.75-.5 3.49-.65 5.26a32.52 32.52 0 0 0 1.66 13.79q.61 1.56 1.3 3.11z" fill="#575557"/><path d="M260.84 91.43a13.49 13.49 0 0 0 1.74-1 11.78 11.78 0 0 0 .4 5.26 50.61 50.61 0 0 1 .72 17.46c-2.8-.82-5.7-.91-8.46-2a.88.88 0 0 1-.69-1.19q1-6 2.59-11.84c.27-1 .47-2 .73-3 .12-.47.31-.94.43-1.41a4.32 4.32 0 0 1 .26-1.23 1.25 1.25 0 0 1 .7-.41 13.48 13.48 0 0 0 1.58-.64z" fill="#3b3b8f"/><path d="M260.4 92.58a2.79 2.79 0 0 1 1.47 1.42 3.84 3.84 0 0 1 .15 2.72 7.11 7.11 0 0 1-1.35 2.42 26.38 26.38 0 0 0-1.72 2.13 12.86 12.86 0 0 0-1.52 4.58l-1 5a.83.83 0 0 1-.09.28c-.23.38-.9.18-1.22 0a1 1 0 0 1-.57-1.21q1-6 2.59-11.84c.27-1 .47-2 .73-3 .12-.47.31-.94.43-1.41s0-.68.31-.95a1.54 1.54 0 0 1 1.08-.32 2.25 2.25 0 0 1 .71.18z" style="mix-blend-mode:multiply" fill="#24696c" opacity=".5"/><path d="M259.45 84.16a9.86 9.86 0 0 0-1.57 3.59c-.16 1.56-.39 2 .4 2.54.61.39 1.73 0 2.36-.14.39-.1.78-.23 1.17-.34s1 .15 1.59 0a1.75 1.75 0 0 0 .83-.7 1.09 1.09 0 0 0 .28-.9.6.6 0 0 0-.73-.38c-.26.09-.43.36-.68.43a4.54 4.54 0 0 0 .27-2.41c-.27-1.36-2.71-3.16-3.92-1.69z" fill="#ead0b5"/><path d="M255 102a2.42 2.42 0 0 1-1.63-.36 6.86 6.86 0 0 1-1.75-1.86q-1.47-2.06-2.73-4.26c-.71-1.25-1.57-2.29-2.39-3.48.63-.4.6-1.4.92-2 .61-1.13 1.22.12 1.81.84 1.35 1.64 2.69 3.35 3.9 5.07a3 3 0 0 0 1.57 1.38c1.07.26 1.73-.86 2.3-1.54a9.53 9.53 0 0 1 1.9-1.76c1-.71 2.46-.6 2.81.8a2.66 2.66 0 0 1-.39 2 7.88 7.88 0 0 1-1.32 1.56 18 18 0 0 1-4.09 3.35 2.8 2.8 0 0 1-.91.26z" fill="#3b3b8f"/><path d="M266.24 87l.07-.21c.26-.81.3-1.69.6-2.49l-.37.26c0-.06.05-.18.08-.25-.54 0-.23-1.09 0-1-.22-.05-.37.23-.59.27a.59.59 0 0 1-.47-.22 6.48 6.48 0 0 0-2.56-1.74c-1.24-.34-1.92.5-3 .72-.27.05-.61.05-.77-.18a.69.69 0 0 1 .09-.71 4.68 4.68 0 0 0-.38 1.44.93.93 0 0 0 .11.54c.31.49.9.66 1.3 1a2.13 2.13 0 0 1 .5 1.36 37 37 0 0 0 .28 3.83c.19.73.54 1.47 1.36 1.62a1 1 0 0 0 1-.35.62.62 0 0 1-.2 0 .43.43 0 0 1-.17-.54c.27-.74 1.27-1 1.83-1.52a4.67 4.67 0 0 0 1.29-1.83z" fill="#331537"/><path d="M208.14 117.49c-4.31-4.31-11.3-4.87-11.3-4.87h-2.14s-7 .56-11.3 4.87a23.38 23.38 0 0 0-5.65 8.68h36a23.38 23.38 0 0 0-5.61-8.68z" fill="#3b3181"/><path d="M198.35 113a11.55 11.55 0 0 0-1.76-.38H195a13.64 13.64 0 0 0-8.6 4.87 25.55 25.55 0 0 0-4.3 8.68h5.15a25.55 25.55 0 0 1 4.3-8.68 13.14 13.14 0 0 1 6.8-4.49z" fill="#fff" opacity=".2"/><path fill="#e9ae45" d="M186.95 107.5h17.65v7.37h-17.65z"/><path d="M137.16 125.49l30.27-21.31 1.67-34.89c-32.9 8.25-31.94 56.2-31.94 56.2zm85.29-56.2l1.67 34.89 30.27 21.31s.95-47.95-31.94-56.2z" fill="#f08053"/><path d="M222.45 69.29l.23 4.82c26.25 6.76 30.78 38.91 31.55 51.27l.15.11s.96-47.95-31.93-56.2zm-85.29 56.2l.15-.11c.77-12.36 5.3-44.51 31.55-51.27l.23-4.82c-32.89 8.25-31.93 56.2-31.93 56.2z" fill="#fff" opacity=".1"/><path fill="#db6f30" d="M168.94 102.66h53.66v7.37h-53.66z"/><path d="M228.22 107c.14-2.32-1.12-67.53-32.32-90.14-30.14 20.94-32.71 87.85-32.58 90.14z" fill="#e9ae45"/><path d="M179.93 35.85h32c-4.19-7.57-9.43-14.24-16-19-6.57 4.57-11.8 11.27-16 19z" fill="#f08053"/><circle cx="195.77" cy="53.44" r="7.31" transform="rotate(-89.92 195.77 53.446)" fill="#db6f30"/><circle cx="195.77" cy="53.44" r="5.32" transform="rotate(-89.92 195.77 53.446)" fill="#3b3181"/><path d="M193.8 48.51l-3.26 4a4.74 4.74 0 0 0 0 1.89l4.93-6.28a5.3 5.3 0 0 0-1.67.39zm2.47-.33L191 55.77a5.31 5.31 0 0 0 2.1 2.25l5.73-8.91a5.27 5.27 0 0 0-2.56-.93z" style="mix-blend-mode:soft-light" fill="#fff"/><circle cx="195.77" cy="28.48" r="4.93" transform="rotate(-89.92 195.772 28.478)" fill="#cdcccc"/><circle cx="195.77" cy="28.48" r="3.59" transform="rotate(-90 195.615 28.595)" fill="#3b3181"/><circle cx="195.77" cy="83.43" r="15.83" transform="rotate(-89.92 195.77 83.427)" fill="#db6f30"/><circle cx="195.77" cy="83.43" r="11.52" transform="rotate(-89.92 195.77 83.427)" fill="#3b3181"/><path d="M191.51 72.74l-7.06 8.73a10.28 10.28 0 0 0 0 4.1L195.14 72a11.47 11.47 0 0 0-3.63.74zm5.35-.73c-3.11 4.48-8 11.53-11.4 16.45a11.5 11.5 0 0 0 4.54 4.88L202.42 74a11.42 11.42 0 0 0-5.56-2z" style="mix-blend-mode:soft-light" fill="#fff"/><path d="M200.12 20.81a42.36 42.36 0 0 0-4.23-3.93c-27.19 20.94-29.5 87.86-29.39 90.12h8.56c-.06-2.14 1.94-61.89 25.06-86.19z" fill="#fff" opacity=".2"/><path d="M176.17 122.36l-.62 2.35H166l.62-2.35h-2.53l-17.29 65.36-1.7 6.43h2.53l1.39-5.26h9.57l-1.39 5.26h2.53l19-71.81zm-.93 3.53l-1.2 4.54h-9.57l1.2-4.54zm-22.88 50.37l1.2-4.54h9.57l-1.2 4.54zm9.26 1.19l-1.2 4.54h-9.57l1.2-4.54zm-7.75-6.92l1.2-4.54h9.57l-1.2 4.54zm1.51-5.73l1.2-4.54h9.57l-1.2 4.54zm1.51-5.73l1.2-4.54h9.57l-1.2 4.54zm1.51-5.73l1.2-4.54h9.57l-1.2 4.54zm1.51-5.73l1.2-4.54h9.57l-1.2 4.54zm1.51-5.73l1.2-4.54h9.57l-1.2 4.54zm1.51-5.73l1.2-4.54h9.57l-1.2 4.54zm-13.62 51.56l1.2-4.54h9.57l-1.2 4.54z" fill="#565354"/><circle cx="153.78" cy="180.65" r="24.58" fill="#f08053"/><circle cx="153.78" cy="180.65" r="18.7" fill="#eaeaea"/><path d="M146.28 163.51l-10.71 12.85a18.49 18.49 0 0 0-.35 6.62l17.5-21a18.6 18.6 0 0 0-6.44 1.53zm9.94-1.4L136 186.4a18.75 18.75 0 0 0 8.81 10.65l23.49-28.21a18.67 18.67 0 0 0-12.08-6.73z" fill="#fff" opacity=".5"/><path d="M182.2 144.48c-1 .13-1.93 2.42-2.15 3.33a11 11 0 0 0 .13 4c.16 1.29.19 2.62.29 3.92a2.19 2.19 0 0 0 .15.76.66.66 0 0 0 1.21.11 2.19 2.19 0 0 0 .28-.68 37.76 37.76 0 0 0 1.78-7.65 5.37 5.37 0 0 0-.69-3.17c-.34-.49-.67-.66-1-.62z" fill="#4b200f"/><path d="M182.49 162.85c0 .05-.14.1-.19.13l-.53.36-1.68 1.12a23.89 23.89 0 0 1-3.37 1.93 6 6 0 0 1-1.16.42c-.55.12-1.3.12-1.62-.42l-.59-1s-.07 0-.07.09a11.52 11.52 0 0 1-.18 1.84c-.18.75-.77.63-1.32.61a.21.21 0 0 0-.12 0c-.11.08 0 .26.12.31a4.63 4.63 0 0 0 2.22.13c1.26-.07 2.56.09 3.83.07s1.89-1.24 2.54-2.24z" fill="#fdd5a2"/><path d="M182.13 147.88s.06 4 0 5-3.43 5.29-3.43 5.29l3.37 1.66c.81.4 1.68.74 2.45 1.21.52.31 1.41 1.41 1.85.59a12.18 12.18 0 0 0 1.21-5.12 5.43 5.43 0 0 0-.09-1.74 2.34 2.34 0 0 0-1.39-1.55c-.09 0-1.42-.41-1.42-.42l.15-3.33z" fill="#feeec6"/><path d="M181.56 151.73l.08.1a11.32 11.32 0 0 0 2.25 2.17c1 .63 1.41.12 1.91-.75a4.28 4.28 0 0 0-.31-4.78c-.69-.83-2.71-2-3.82-1.4a1.69 1.69 0 0 0-.73 1.43 4.69 4.69 0 0 0 .62 3.23z" style="mix-blend-mode:multiply" fill="#b63941" opacity=".3"/><path d="M180.56 147.82c-.19 2 .45 4.68 1.84 4.53 1.59-.17 2.47-1.7 2.59-3.69s-.34-3.15-1.74-3.24-2.39-.77-2.69 2.4z" fill="#feeec6"/><path d="M189.64 198.51c0 .05-1.68 2.34-1.9 2.55a4.67 4.67 0 0 1-1.21.76c-.34.11-1.54.55-1.47 1.1s1 .74 2.18.4 3.24-1.12 3.62-1.18a9.58 9.58 0 0 0 2-.59c.37-.21-.72-3.06-.72-3.06zm-13.15.93c0 .05-2.6 2.26-2.86 2.45a5 5 0 0 1-1.39.62c-.37.07-1.71.35-1.72.94s.92.93 2.25.74 3.58-.7 4-.7a10.22 10.22 0 0 0 2.18-.33c.42-.16-.25-3.72-.25-3.72z" fill="#e9ae45"/><path d="M177.69 171.15s-.72 1.47.62 5.56a77.49 77.49 0 0 0 4.67 10c.38.59.85.78 1.27 1.23.76.82 1 2.27 1.52 3.27 1.2 2.45 2.69 4.78 3.41 7.43.17.63.19 1.41 1 1.44.49 0 1.36.52 1.81.33.69-.29.07-1.74-.07-2.43a65.62 65.62 0 0 0-1.69-6.38c-.44-1.39-.94-2.76-1.47-4.12a20.65 20.65 0 0 1-1.38-3.17c-.1-.53-1.15-5.77-1.28-6.49S185 170 185 170z" fill="#2f2972"/><path d="M185.41 168.5c-.13-.19-.26-.37-.4-.55a1.54 1.54 0 0 0-.62-.59c-.45-.17-5.07-.86-5.06-.88s-1.86 10.35-2.18 11.82a40.81 40.81 0 0 0-.61 6.62c.08 1.11.2 2.27.18 3.21-.12 3.86.22 7.7-.58 11.52a.68.68 0 0 0 0 .45.67.67 0 0 0 .37.26c1.25.51 1.91.71 2.41-.62a17.66 17.66 0 0 0 .82-3.62q.23-1.56.58-3.09a24.78 24.78 0 0 0 .85-7.13c-.22-3.2 1.13-6.76 2.76-9.48a15 15 0 0 1 1-1.41 9.24 9.24 0 0 0 1.46-2.35 4.06 4.06 0 0 0-.27-2.83 7.83 7.83 0 0 0-.71-1.33z" fill="#3b3181"/><path d="M181.58 154.13s-3.57 4-3.68 4.68a8.25 8.25 0 0 0 .28 2.43 41.81 41.81 0 0 1-.69 6 37.31 37.31 0 0 0 0 4.51 5.46 5.46 0 0 0 2.87.62c1.17-.05 6 .4 6.31-.9.18-.76-1.13-3.36-1.21-4.22a8.09 8.09 0 0 1 .34-3.41l1.35-4a.17.17 0 0 0-.16-.26c-.82-.14-.06-1.24-.15-2.27-.07-.81-1.94-2.1-.72-2.83s1.1-.41 1.1-.41l-.34-.58s-1.25-.22-2.94 1.54c-.7.73-2.49 2.13-3 2.09s-.92-.18-.43-1.08 1.07-1.91 1.07-1.91z" fill="#e9ae45"/><path d="M186.79 157.37c0-.41-.53-.95-.86-1.47l-.15.11c-1.38.27-5 3.66-5 3.66l.06.12a17.1 17.1 0 0 1-2.62 1.43A14.88 14.88 0 0 1 178 164l1.24-.16a8.74 8.74 0 0 0 2-.45 6.24 6.24 0 0 0 1.2-.67l.06.11a16.11 16.11 0 0 0 4.39-3.18c-.71-.23-.01-1.29-.1-2.28z" style="mix-blend-mode:multiply" fill="#e9ae45" opacity=".5"/><path d="M185.77 154.93l-.25.15c-3 2.22-5.61 4.83-9.27 5.95-1.85.57-5 2.17-6.8.92-.26-.18-.66-.6-1-.58h-.08a.08.08 0 0 0 0 .05c.16.4.57.67.72 1.08.35.93-2 1-2.58 1.09a1.66 1.66 0 0 0-.49.17c-.06 0-.35.26-.3.34a.11.11 0 0 0 .08 0 1.32 1.32 0 0 0 .39 0 13.12 13.12 0 0 1 1.7-.13s0 .08-.06.11l-.89.54c-.15.09-.81.33-.74.57a.12.12 0 0 0 .1.08.34.34 0 0 0 .14 0 8.67 8.67 0 0 1 1.69-.43c.13 0 .29 0 .35.11a.29.29 0 0 1 0 .28 1.89 1.89 0 0 1-.8.59 1.22 1.22 0 0 0-.5.45c-.14.26 0 .4.25.26a11.55 11.55 0 0 0 1.6-1 .8.8 0 0 1 .51-.21c0 .07 0 .15-.07.2l-.71.72a.16.16 0 0 0-.06.11.11.11 0 0 0 .13.09.32.32 0 0 0 .15-.07 10.09 10.09 0 0 0 1-.84c2.21-2.07 5.84-2.1 8.65-2.51a8.74 8.74 0 0 0 2-.45 8 8 0 0 0 1.78-1.07c.84-.62 1.71-1.21 2.54-1.86a5 5 0 0 0 2.29-3.24c.1-.96-.24-2.13-1.47-1.47z" fill="#feeec6"/><path d="M186.58 154.76a2.82 2.82 0 0 1 .09 1.14 5 5 0 0 1-2.29 3.24c-.82.65-1.7 1.24-2.54 1.86a8 8 0 0 1-1.78 1.07 8.74 8.74 0 0 1-2 .45c-2.81.41-6.44.43-8.65 2.51a10.1 10.1 0 0 1-1 .84.32.32 0 0 1-.15.07.11.11 0 0 1-.13-.09.16.16 0 0 1 .06-.11l.71-.72c.05-.05.11-.14.07-.2a.72.72 0 0 0-.47.18.29.29 0 0 1 0 .27 1.89 1.89 0 0 1-.8.59 1.22 1.22 0 0 0-.5.45c-.14.26 0 .4.25.26a11.55 11.55 0 0 0 1.6-1 .8.8 0 0 1 .51-.21c0 .07 0 .15-.07.2l-.71.72a.16.16 0 0 0-.06.11.11.11 0 0 0 .13.09.32.32 0 0 0 .15-.07 10.09 10.09 0 0 0 1-.84c2.21-2.07 5.84-2.1 8.65-2.51a8.74 8.74 0 0 0 2-.45 8 8 0 0 0 1.78-1.07c.84-.62 1.71-1.21 2.54-1.86a5 5 0 0 0 2.29-3.24c.05-.73-.09-1.56-.68-1.68z" style="mix-blend-mode:multiply" fill="#b63941" opacity=".2"/><path d="M186.95 157s-.36-1.56-1.51-1.68-5.27 3.68-5.27 3.68l1.73 3.12s5.63-2.8 5.05-5.12z" fill="#e9ae45"/><path d="M181 144.94a7.39 7.39 0 0 0-1.22 3.26c1.25-.2 2.48-.91 3.69-.58a1.45 1.45 0 0 1 .12-.86.24.24 0 0 1 .08-.11c.1-.06.23 0 .27.15.88 2.34 1.37 6.07-.17 8.27-.61.87-1.61 1.54-1.76 2.59.7-.75 2.12-2.08 3.28-1.81 3 .69-.2 5.32.13 7a3.26 3.26 0 0 0 1.17 1.91 1.14 1.14 0 0 0 .34.2 1 1 0 0 0 .77-.1 2.1 2.1 0 0 0 1.14-1.49 1 1 0 0 1-.53.56.65.65 0 0 1-.73-.15 1 1 0 0 1 0-1c.54-1.27 1.88-1.79 2.26-3.07a7 7 0 0 0-.17-4.54 15.88 15.88 0 0 1-1.19-2.9 14.46 14.46 0 0 1 .24-3.57c.09-1.29-.11-3.47-1.12-4.42-1.44-1.35-4.59-1.73-6-.16a7.23 7.23 0 0 0-.6.82z" fill="#6f330e"/><path d="M182.33 143.84a4.34 4.34 0 0 0-1 .84 6.4 6.4 0 0 0-1.25 3.12 3.73 3.73 0 0 1 1.84-.51c.1 0 .22 0 .26-.1a.26.26 0 0 0 0-.14c0-.22 0-.44-.05-.66a3.77 3.77 0 0 1 .58-2.1c.08-.13.59-.62.5-.78s-.75.23-.88.33zm3.87 12a6 6 0 0 1-.82-1.11 2.58 2.58 0 0 1-.07-1.41c.18-1.18.57-2.32.7-3.51a4.3 4.3 0 0 0-.87-3.36 1.44 1.44 0 0 0-1-.54 4.89 4.89 0 0 1 1 3 22.65 22.65 0 0 1-.31 4.21 5.61 5.61 0 0 0-.09 1.66 1.2 1.2 0 0 0 .3.68 4 4 0 0 0 .83.45 2.5 2.5 0 0 1 .91 1.66 2.91 2.91 0 0 0-.58-1.77zm1.22-1.34c-.43-.64-1-1.21-.93-2.06a4.05 4.05 0 0 0 0 1.29c.15.8.64 1.5.82 2.29a5.19 5.19 0 0 1-.29 2.79 19.46 19.46 0 0 0-.85 2.7 3.42 3.42 0 0 0 .51 2.7 3.63 3.63 0 0 1-.27-1.81 8.48 8.48 0 0 1 .89-2.29 9.05 9.05 0 0 0 .61-1.92 4.88 4.88 0 0 0-.49-3.73z" fill="#fff" opacity=".1"/><path d="M217 188.41a26.48 26.48 0 0 0 .06 4.14 3.14 3.14 0 0 0 .28.77 36.51 36.51 0 0 0-.06 3.81c.11 1.1 1.1 4.58 1.16 5.14s1.1 4.75 1.1 4.75l1.38.06a48.32 48.32 0 0 1 .06-5.58c.22-1.55 1.16-4.31.77-6s-.77-2.21-.83-2.93.17-2 .06-3.26-.22-2.65-.22-2.65z" fill="#d8a87e"/><path d="M218.38 196.68a36.52 36.52 0 0 1 .52-3.78 3.14 3.14 0 0 1-.18-.8 26.47 26.47 0 0 1 .45-4.12l1.6-.53-.06-.82-3.71 1.78a26.48 26.48 0 0 0 .06 4.14 3.14 3.14 0 0 0 .28.77 36.51 36.51 0 0 0-.06 3.81c.11 1.1 1.1 4.58 1.16 5.14s.72 3.18 1 4.29c-.11-.87-.5-4.16-.49-4.64s-.59-4.13-.57-5.24zm2.47 9.47c0 .51-.08.85-.08.85l-1.34-.22.06.25 1.38.06s0-.38-.01-.94z" fill="#d19764"/><path d="M220.89 207.08s-.08-2-.05-3.69a5.51 5.51 0 0 1-.88.06 10.84 10.84 0 0 1-1.33-.09c.32 1.42.88 3.65.88 3.65z" fill="#fff"/><path d="M222.65 208.54a1.36 1.36 0 0 0-.36-1.07 7.75 7.75 0 0 1-.88-1.28l-.53-2.07h-2.19c0 .41-.1.87-.08 1a7.41 7.41 0 0 1 .2 1.82 4.42 4.42 0 0 0 .41 1.83c.11.2.51.59 2 .53s1.4-.63 1.43-.76z" fill="#1e2022"/><path d="M221.78 209.2c-1.44.06-1.85-.32-2-.53a4.42 4.42 0 0 1-.41-1.83 7.4 7.4 0 0 0-.2-1.82c0-.11 0-.5.08-.88h-.61c0 .41-.1.87-.08 1a7.41 7.41 0 0 1 .2 1.82 4.42 4.42 0 0 0 .41 1.83c.11.2.51.59 2 .53a3.15 3.15 0 0 0 .85-.13z" style="mix-blend-mode:multiply" fill="#e9ae45"/><path d="M221.11 208.58a3.62 3.62 0 0 1-2.11-.34 4.2 4.2 0 0 0 .21.55c.11.2.51.59 2 .53s1.46-.65 1.48-.78a1.23 1.23 0 0 0 0-.35 2.5 2.5 0 0 1-1.58.39z" fill="#f5e6db"/><path d="M214.2 188.41a26.48 26.48 0 0 1-.06 4.14 3.14 3.14 0 0 1-.28.77 36.51 36.51 0 0 1 .06 3.81c-.11 1.1-1.1 4.58-1.16 5.14s-1.1 4.75-1.1 4.75l-1.38.06a48.32 48.32 0 0 0-.06-5.58c-.22-1.55-1.16-4.31-.77-6s.77-2.21.83-2.93-.17-2-.06-3.26.22-2.65.22-2.65z" fill="#d8a87e"/><path d="M212.27 201.92c0 .48-.38 3.77-.49 4.64.27-1.11.95-3.85 1-4.29s1-4 1.16-5.14a36.51 36.51 0 0 0-.06-3.81 3.14 3.14 0 0 0 .28-.77 26.48 26.48 0 0 0 .06-4.14l-3.76-1.77s0 .34-.06.82l1.6.53c.08.16 1.56 2.78 1.47 3.41s-.37 2.13-.37 2.13a23.7 23.7 0 0 0-.3 3.16c.01 1.1-.55 4.68-.53 5.23zm-2 5.16l1.38-.06.06-.25-1.34.22s0-.33-.08-.85c.01.57-.01.94-.01.94z" fill="#d19764"/><path d="M210.28 207.08s.08-2 .05-3.69a5.51 5.51 0 0 0 .88.06 10.84 10.84 0 0 0 1.33-.09c-.32 1.42-.88 3.65-.88 3.65z" fill="#fff"/><path d="M208.52 208.54a1.36 1.36 0 0 1 .36-1.07 7.77 7.77 0 0 0 .88-1.29l.53-2.08h2.2c0 .41.1.87.09 1a7.43 7.43 0 0 0-.2 1.83 4.43 4.43 0 0 1-.41 1.84c-.11.2-.51.59-2 .53s-1.43-.63-1.45-.76z" fill="#1e2022"/><path d="M209.38 209.2c1.45.06 1.85-.32 2-.53a4.43 4.43 0 0 0 .41-1.84A7.43 7.43 0 0 1 212 205c0-.11 0-.5-.08-.88h.61c0 .41.1.87.09 1a7.43 7.43 0 0 0-.2 1.83 4.43 4.43 0 0 1-.41 1.84c-.11.2-.51.59-2 .53a3.16 3.16 0 0 1-.86-.13z" style="mix-blend-mode:multiply" fill="#e9ae45"/><path d="M210.06 208.58a3.63 3.63 0 0 0 2.11-.34 4.2 4.2 0 0 1-.21.56c-.11.2-.51.59-2 .53s-1.47-.65-1.49-.78a1.23 1.23 0 0 1 0-.35 2.51 2.51 0 0 0 1.59.38z" fill="#f5e6db"/><path d="M213.65 151.3l.11 4c0 .17-1.45.76-1.6.88-.73.6-.61 1.34.11 2.07a5.11 5.11 0 0 0 1.62 1 8.38 8.38 0 0 0 1.33.48 4.89 4.89 0 0 0 3.51-.46c.67-.37 2-1.37 2.05-2.22s-1.3-1-2-1.45-1-.61-1-.61l-.06-3.59z" fill="#d8a87e"/><path d="M209.62 172.82c-.11.17.17 7.12.06 8.45s-.32 24.86-.32 24.86a5.46 5.46 0 0 1 2.21.39c.81.25 1.09-.23 1.09-.23s1.36-9.09 1.41-9.64l1.45-14.5 2.41 23.58s.29.95.8.77a12.79 12.79 0 0 1 2.86-.53s.33-21.17.22-23.38.06-9.94.06-9.94z" fill="#575557"/><path d="M209.61 179.76s2.71.55 4.86.77a49.43 49.43 0 0 0 7.32-.43l.12-19.82-5.29-1.41a2.25 2.25 0 0 1-2.15 1.33 3 3 0 0 1-2.43-1.1l-2.43 2.21z" style="mix-blend-mode:multiply" fill="#91bdab" opacity=".6"/><path d="M209 179.18s4.91.55 7.08.48c3.19-.11 6.44-.53 6.44-.53l-.29-22-4.12-1.84a2.48 2.48 0 0 1-2.25 1.42 2.66 2.66 0 0 1-2.31-1.11l-4.24 1.58z" fill="#3b3b8f"/><path d="M220.48 159.81c-.14.5-.28 1-.45 1.48a4 4 0 0 1-1.75 2.31 3.68 3.68 0 0 1-1.4.36 6.65 6.65 0 0 1-2-.14 2.86 2.86 0 0 1-1.4-.67 3.63 3.63 0 0 1-.7-1.14l-1.33-2.95c-.24-.53-.77-1.8-1.51-1.78a.72.72 0 0 0-.45.21 2 2 0 0 0-.51 1.35 16 16 0 0 0 .14 3.16 12.08 12.08 0 0 0 .76 3.79 4.77 4.77 0 0 1 .56 3.64 7 7 0 0 1-.45.89 6.85 6.85 0 0 0-.54 1.25.7.7 0 0 0 0 .55.68.68 0 0 0 .34.25 8.45 8.45 0 0 0 3 .54q2.57.13 5.15.1a19.86 19.86 0 0 0 2.41-.13 2.63 2.63 0 0 0 1.11-.34 2.06 2.06 0 0 0 .82-1.61 7.67 7.67 0 0 0-.21-1.86 15.4 15.4 0 0 1-.25-5c.28-1.7.67-3.39 1-5.08.09-.48.16-1.46-.47-1.66s-1.2.69-1.41 1.15a9.71 9.71 0 0 0-.46 1.33z" style="mix-blend-mode:multiply" fill="#80cacc"/><path d="M208.27 162.38a9.24 9.24 0 0 0 .08 2.65c.26 1.62.27 4.75.33 4.93a1 1 0 0 0 1.23.6 6.28 6.28 0 0 0 1.8-1.07l-1.94-7.25z" fill="#d8a87e"/><path d="M210.13 157.42a.7.7 0 0 0-.27-.33.69.69 0 0 0-.8.16c-1.57 1.53-1.3 4.17-1.28 6.14a28.53 28.53 0 0 0 .62 7.22c0 .2.3.14.47.07s.51-.85.68-1.13a9 9 0 0 0 1.48-4 20.43 20.43 0 0 0-.79-7.82 2.23 2.23 0 0 0-.11-.31z" fill="#3b3b8f"/><path d="M217.72 154v-1.25c-.26.59-.58 1.15-.9 1.22a4.37 4.37 0 0 1-1.4 0c-.61-.08-1.36-1.36-1.73-2.08v1.26a3.11 3.11 0 0 0 .8 1.15 3.86 3.86 0 0 0 1.16.69 1.11 1.11 0 0 0 .88 0 3.19 3.19 0 0 0 .84-.58 2.44 2.44 0 0 0 .35-.41z" style="mix-blend-mode:multiply" fill="#e1bd9c"/><path d="M224.71 164.57a4.24 4.24 0 0 1-.06 2.07 43.89 43.89 0 0 1-1.26 4.64 1.25 1.25 0 0 1-1.46.58 8 8 0 0 1-2.15-1.1l2.22-7.23z" fill="#d8a87e"/><path d="M213.66 151.92c.39.72 1.15 2 1.78 2.08a4.63 4.63 0 0 0 1.44 0c.33-.07.66-.64.93-1.22a9.05 9.05 0 0 0 .85-3.42c0-2.24-1.26-3.32-2.77-3.32a2.83 2.83 0 0 0-2.92 3.18 9 9 0 0 0 .69 2.7z" fill="#e1bd9c"/><path d="M221.33 164.14v.52a11.06 11.06 0 0 0 1 4.2 4.53 4.53 0 0 0 1.28 1.67c.81.53.88-.35 1-1.05.52-3.24 0-6.2-.48-9.39-.09-.65-.91-3.44-2.15-3.07-.43.13-.59.88-.56 1.49.15 1.91-.21 3.72-.09 5.63z" fill="#3b3b8f"/><path d="M218.27 148.19a1.25 1.25 0 0 0-1.21-.71 2 2 0 0 0-.5.16 2.21 2.21 0 0 1-2 .12.6.6 0 0 0-.21-.11c-.16 0-.3.11-.39.24a4 4 0 0 0-.52 2.73c0 .06 0 .14-.08.16-.4.1-.41-.54-.56-.72s-.67-.32-.68-.63c0-.58-.91-2 .11-2.26a1.29 1.29 0 0 1 .07-1c0-.07.62-.71.67-.59a.75.75 0 0 1 .34-.82 2.14 2.14 0 0 1 .9-.29 1.34 1.34 0 0 1 2-.35 7.3 7.3 0 0 1 1.09.16 5.19 5.19 0 0 0 1 .58c.62.24 1.41.62 1 1.4.38.22.39.71.37 1.1a5 5 0 0 0-.09.61c0 .22.23.36.23.61 0 .59-.66.73-.92 1.15s-.16.68-.38 1c-.33-.7.17-1.5 0-2.23a1.56 1.56 0 0 0-.24-.31z" fill="#331537"/><path d="M224.53 168.57a11 11 0 0 0-2.41-1.82l-.61.8-.56 1.93.06.89a7.27 7.27 0 0 0 1.86 1.2 1.31 1.31 0 0 0 1.6-.45c0-.07.26-.56.54-1.23a2 2 0 0 0-.48-1.32z" fill="#ddb28c"/><path fill="#eaeaea" d="M207.22 170.17h10.46v1.17h-10.46z"/><rect x="210.65" y="161.66" width="13.59" height="9.69" rx="1.81" ry="1.81" fill="#eaeaea"/><path d="M222.25 171.34s.73 0 .87-.3c0 0 .09-.24.1-.27s.09-.28.11-.42a1 1 0 0 1 .07-.29c.07-.14.15-.27.23-.4a.57.57 0 0 0 .09-.22c0-.08.27-.77.2-.81-.25-.12-.81.72-.91.92s-.48 1-.48 1-.38 0-.45-.3a9.86 9.86 0 0 0-.27-1.7c-.16-.12-.24.36-.36.32h-.13a.69.69 0 0 0-.19.25l-.41.76a3.67 3.67 0 0 0-.35.67q-.07.25-.12.5c0 .12 0 .25-.06.37l-.07.46v.05a5.85 5.85 0 0 0 .7-.21 4.69 4.69 0 0 1 .71-.24z" style="mix-blend-mode:multiply" fill="#d29a69"/><path d="M223 171.62s.75 0 .83-.39a11.72 11.72 0 0 0 .09-2.67c-.13-.07-.42.63-.5.93s-.3 1.23-.3 1.23a.6.6 0 0 1-.52-.34 11.29 11.29 0 0 0-.7-1.84c-.17-.12-.34.11-.26.42s.33 1.91.33 1.91a11.37 11.37 0 0 0-.57-2c-.14 0-.31.05-.23.52.05.29 0 1.85 0 1.85a5.66 5.66 0 0 0-.39-1.33c-.15-.12-.3.19-.23.53a4.4 4.4 0 0 1-.06 1.1s-.11.3.13.41a.7.7 0 0 0 .46 0 .5.5 0 0 0 .45.07 2 2 0 0 1 .54-.13z" fill="#e1bd9c"/><path d="M123.38 153.63a11.26 11.26 0 0 1 .08 2.8c-.17 1.24-.2 2.51-.2 2.51h3.45s-.45-.85-.9-1.78a2.31 2.31 0 0 1 0-1.64z" fill="#fee5a8"/><path d="M128.58 151.26a10 10 0 0 1-.57 3.93c-.7 1.42-.76 2-1.7 2s-3-2.56-3-2.56a1.1 1.1 0 0 1-.88-.64c-.22-.58-.31-1.86.26-1.47l.57.39a4.36 4.36 0 0 1 1.06-2.27c.94-1.05 4.01-1.29 4.26.62z" fill="#feeec6"/><path d="M127.84 150.73a9.51 9.51 0 0 0-1 3.17c0 1.32.38 2.76.16 3-.37.48-1.37 0-1.3.16a5.71 5.71 0 0 0 .47.69 2.89 2.89 0 0 1-2-1.26c-.5-1-.6-2.76.13-3.53s2.79-2.85 3.54-2.23z" style="mix-blend-mode:multiply" fill="#b63941" opacity=".2"/><path d="M124.2 204.08h-1.65c-.53 0-1.59.09-1.93-.32a6.75 6.75 0 0 1 .14-1.41 6.16 6.16 0 0 1 1.62-.64 7.63 7.63 0 0 0 1.88-.95c.17-.05 4.71.62 4.51 1.48-.33 1.41-.79 1.41-2.13 1.59q-1.22.17-2.44.25zm-14.75-2.62q-.65-.58-1.26-1.19c-.4-.39-1.26-1.1-1.23-1.64a6.21 6.21 0 0 1 1.07-.89 6.73 6.73 0 0 1 1.66.74 8.24 8.24 0 0 0 2.06.71c.17.09 3.13 3.89 2.39 4.34-1.21.76-1.56.42-2.69-.44q-1.04-.77-2-1.63z" fill="#3f3383"/><path d="M109.58 196.36c-.91.86-1.31 1.09-2 1.73.18-.17 3.73 1.38 4.17 1.1a58.23 58.23 0 0 0 8.47-8.27c2.91-4.31 5.16-9.05 7.64-13.61.26-.49 1.06-2.25 1.06-2.25l-3.21-3.2a14.73 14.73 0 0 1-1.52-1.42 4.94 4.94 0 0 0-1-1.21.17.17 0 0 0-.24 0 4.64 4.64 0 0 0-1.76 2.31 10.56 10.56 0 0 0-.78 3.35c-.11 1.69-.48 3.39-.76 5.08a28.07 28.07 0 0 1-1.21 5 22.8 22.8 0 0 1-3.51 6.31c-1.56 1.97-3.52 3.36-5.35 5.08z" fill="#464345"/><path d="M122 199.69c-.38.88-.89 1.95-1.23 2.84.09-.24 3.16-1.22 3.42-1.67.88-1.48 1.73-3 2.52-4.51a21.6 21.6 0 0 0 2.55-6.41c.76-5.23.79-10.58 1.09-15.85v-2.53l-4.11-1.56a18.15 18.15 0 0 1-2.83-1.09c-.13-.08-.65-1.59-.82-1.16-1.74 4.46.17 6.82.78 9a47.74 47.74 0 0 1 1.89 8.45 24.81 24.81 0 0 1-.48 7.34c-.53 2.51-1.78 4.83-2.78 7.15z" fill="#575557"/><path d="M123 158.18a9.63 9.63 0 0 0 0 1.18c0 1.05.12 2.11.08 3.16-.08 2.14-1 3.92-1.71 5.91a20.45 20.45 0 0 0-1.22 6.43q0 .69.05 1.38l3.75.49a16.48 16.48 0 0 0 6.28-.44.25.25 0 0 0 .24-.23c.82-3.43.47-6.86.47-10.35l-2-5.35a5.84 5.84 0 0 0-.37-1c-.18-.29-.73-.47-1-.62a18.06 18.06 0 0 0-2.56-1 2.59 2.59 0 0 0-.72-.14c-.31 0-.8.2-.82-.22v-.08a.08.08 0 0 0-.06 0 .62.62 0 0 0-.29.48c-.12.11-.12.22-.12.4z" fill="#3f3383"/><path d="M125.35 158.62a7.59 7.59 0 0 1 1 .34c.81.27 1.62.55 2.42.83 2 .73 4 1.63 6 2.52a33.61 33.61 0 0 0 5.64 1.89 3.3 3.3 0 0 0 3.52-.82c1.07-1.08 1.6-1 1.29-.63s-1.15.86-1.17 1.34 3-.86 3-.08a4.58 4.58 0 0 1-1.63.47 6.13 6.13 0 0 1 1 .21c.08 0 .18.07.19.16s-.12.16-.22.18q-.62.15-1.25.28a4.22 4.22 0 0 1 1 .39.22.22 0 0 1 .11.1c0 .12-.13.21-.26.22l-1.6.2a1.62 1.62 0 0 1 .93.45 7.25 7.25 0 0 1-3 .18 77.82 77.82 0 0 1-12.32-2.66c-1.09-.35-2.48-1.27-3.67-1.16a2.09 2.09 0 0 1-1.74-.36 1.71 1.71 0 0 1-.86-1.59 3.45 3.45 0 0 1 .45-1.78 1.64 1.64 0 0 1 .4-.52 1 1 0 0 1 .77-.16z" fill="#feeec6"/><path d="M124.54 158.78a1.64 1.64 0 0 0-.4.52 3.45 3.45 0 0 0-.45 1.78 1.71 1.71 0 0 0 .86 1.59 2.09 2.09 0 0 0 1.74.36c1.19-.11 2.58.81 3.67 1.16a77.82 77.82 0 0 0 12.31 2.65 7.25 7.25 0 0 0 3-.18 1.61 1.61 0 0 0-.82-.42 7.22 7.22 0 0 1-1.26-.07 77.83 77.83 0 0 1-12.31-2.65c-1.09-.35-2.48-1.27-3.67-1.16a2.09 2.09 0 0 1-1.74-.36 1.71 1.71 0 0 1-.86-1.59 3.45 3.45 0 0 1 .45-1.78.87.87 0 0 0-.52.15z" style="mix-blend-mode:multiply" fill="#b63941" opacity=".2"/><path d="M122.42 148.23a3.87 3.87 0 0 1 4.62-.79 6.46 6.46 0 0 1 2 2.25.62.62 0 0 1 .44-.33c.27.76.48 1.77-.53 2a7.79 7.79 0 0 1-1.14.09 3.37 3.37 0 0 0-.62.07 1.32 1.32 0 0 0-.68.64 5.45 5.45 0 0 0-.42.89c-.32.81-.63 1.63-1 2.43-.12.3-.31.72-.71.59a.91.91 0 0 1-.3-.18 8.86 8.86 0 0 1-2.21-2.77 5.65 5.65 0 0 1-.54-2.46 3.6 3.6 0 0 1 .77-2.09 3.31 3.31 0 0 1 .32-.34z" fill="#6f330e"/><path d="M127 147.44a3.87 3.87 0 0 0-4.62.79 3.32 3.32 0 0 0-.26.33 3.6 3.6 0 0 0-.77 2.09 5.67 5.67 0 0 0 .53 2.43 7.23 7.23 0 0 1-.15-1.33 3.6 3.6 0 0 1 .77-2.09 3.32 3.32 0 0 1 .26-.33 3.87 3.87 0 0 1 4.62-.79 6.46 6.46 0 0 1 2 2.25.61.61 0 0 1 .27-.27 3 3 0 0 0-.22-1.16.62.62 0 0 0-.44.33 6.46 6.46 0 0 0-1.99-2.25z" style="mix-blend-mode:soft-light" fill="#fff"/><path d="M129.65 149.85c-.41.58-1.52.61-2.4.4s-4 .18-4.16 2.83a6.77 6.77 0 0 0 .13 1.91 8.46 8.46 0 0 0 .91.88.91.91 0 0 0 .3.18c.4.12.59-.3.71-.59.34-.8.64-1.62 1-2.43a5.45 5.45 0 0 1 .42-.89 1.32 1.32 0 0 1 .68-.64 3.36 3.36 0 0 1 .62-.07 7.78 7.78 0 0 0 1.14-.09c.77-.17.8-.84.65-1.49z" style="mix-blend-mode:multiply" fill="#b63941"/><path d="M141.27 164l-2.57 2.79s-13.57-3.29-14.4-3.83-1.53-3-1.25-3.46 2.23-1.9 2.83-1.31 15.39 5.81 15.39 5.81z" fill="#3f3383"/><path d="M124 158.68c-.27.42.42 2.92 1.25 3.46s12.55 3.38 14.2 3.78l-.79.85s-13.57-3.29-14.4-3.83-1.53-3-1.25-3.46a4.43 4.43 0 0 1 1-.88z" style="mix-blend-mode:multiply" fill="#80cacc"/><path d="M160.89 108.69a4.93 4.93 0 0 1 .95-.63c.29-.12.7.19.2.51-.15.1-.5.35-.47.41.59 0 1.35-.92 1.57-1.41a18.32 18.32 0 0 0 .83-2.39 15.85 15.85 0 0 1 1.06-2.65c.74-1.46 1.69-2.85 2.38-4.32a35 35 0 0 0 1.59-4.73c.31-1 1.23-1.81 1.46-2.77.68-2.83-3.45-3.15-4-.51-.37 1.85-1.31 3.37-1.31 5.33v1.58a9.12 9.12 0 0 1-1 2.95 15.82 15.82 0 0 0-1.23 4.09 7.14 7.14 0 0 1-.22 1.09c-.5 1.52-2.29 2.16-2.61 3.75a.19.19 0 0 0 0 .07.14.14 0 0 0 .17.09.42.42 0 0 0 .18-.12 5.21 5.21 0 0 1 .45-.34z" fill="#fdd5a2"/><path d="M161.68 109a.19.19 0 0 0 0-.11c-.07.06-.11.11-.1.13zm5.76-20.23a1.71 1.71 0 0 1 1.42 2.19c-.18 1-1.05 1.82-1.31 2.84a35 35 0 0 1-1.3 4.81c-.6 1.5-1.48 2.94-2.14 4.44a15.86 15.86 0 0 0-.92 2.7 18.31 18.31 0 0 1-.7 2.44 2.67 2.67 0 0 1-.28.5 3.4 3.4 0 0 0 .91-1.1 18.32 18.32 0 0 0 .83-2.39 15.85 15.85 0 0 1 1.06-2.65c.74-1.46 1.69-2.85 2.38-4.32a35 35 0 0 0 1.61-4.75c.31-1 1.23-1.81 1.46-2.77.48-2.1-1.66-2.81-3.02-1.97z" style="mix-blend-mode:multiply" fill="#b63941" opacity=".3"/><path d="M165.4 141.93a.25.25 0 0 1-.49 0 16.8 16.8 0 0 1-.63-3.71c0-1.46-.59-1.87-.53-2.8 0-.6 1.06-1.39 1.37-1.82s.72-6.58 1.7-8.42 2.69-6.62 2.62-8.41.07-6.37-.19-7.55a9 9 0 0 1 1-5c.73-1.21 1.84 0 3 .45a3 3 0 0 1 1.23.8c1.41 1.66.85 5 .67 7a24.54 24.54 0 0 1-1.78 7.88c-1.78 3.88-4 6.79-5.07 9.1a35 35 0 0 0-1.94 6c-.28.85-.69 4.94-.96 6.48z" fill="#fdd5a2"/><path d="M174.44 105.45a3 3 0 0 0-1.23-.8l-.3-.14a1.92 1.92 0 0 0-1.81.59c-.8 1.11-.31 3-.11 4.27s-.28 5.72-.33 7.5v.05c0 .41 0 .77.07 1.06.16 1.8-.9 4.22-1.8 6.14a41.76 41.76 0 0 0-1.22 6.67c.18-.47.37-.93.58-1.38 1.09-2.31 3.29-5.22 5.07-9.1a24.54 24.54 0 0 0 1.78-7.88c.15-1.93.71-5.32-.7-6.98z" style="mix-blend-mode:multiply" fill="#b63941" opacity=".3"/><path d="M168.6 141.81a.18.18 0 0 1-.35 0 9.65 9.65 0 0 1-.47-2.85c-.1-1.47-1.09-3-.83-4 .16-.63.91-1.06 1.2-1.51s.4-6.66 1.3-8.58 2.37-6.83 2.21-8.63-.24-6.42-.55-7.58-1-2.87-.29-4.56 2.08-3.89.82-6.39-3.42-4.73-3.86-6.64-.38-2.25-.64-3a13 13 0 0 0-1-1.93.23.23 0 0 1 .08-.32l3-1.28a.2.2 0 0 1 .26.16c.19.84.87 3.57 1.5 4.06s3.34 1 4.07 2.5-.09 4.23.22 5.64 1.78 7.61 1.85 10.12.18 8.51-1.41 12.53-3.64 7.09-4.62 9.48a22.6 22.6 0 0 0-1.61 5.85c-.03.79-.64 5.47-.88 6.93z" fill="#feeec6"/><path d="M171.29 110.65c0-1.54.38-5.48.17-6.49s-.76-2.49.15-3.9 1.48-2 .47-4.2-2.52-4.36-2.77-6 .36-3 .18-3.62a9.69 9.69 0 0 0-.8-1.68l-2.48 1a.19.19 0 0 0-.09.28 9.74 9.74 0 0 1 .92 1.62c.23.64-.28 2 .09 3.62s2 3.69 3.21 5.78.64 2.75-.16 4.23-.14 2.91.14 3.9.21 4.95.31 6.48a9.5 9.5 0 0 1-.57 2.87 12.7 12.7 0 0 0 1.23-3.89z" style="mix-blend-mode:soft-light" fill="#3f3383"/><path d="M168 87.28a10.47 10.47 0 0 0 1.76-1.89c-.42-.25-1-.36-1.25-.55l-2.27.9a.19.19 0 0 0-.09.28 9.74 9.74 0 0 1 .92 1.62 1 1 0 0 1 0 .17 5.17 5.17 0 0 0 .93-.53z" style="mix-blend-mode:multiply" fill="#b63941" opacity=".3"/><path d="M167.88 133.79A2.93 2.93 0 0 0 167 135c-.26 1.06.73 2.56.83 4a10.13 10.13 0 0 0 .37 2.6c.37 1.07 1.2-.42 1.22-1a3.43 3.43 0 0 0 0-.6c-.09-.67-.22-1.3-.24-2a17.86 17.86 0 0 0-.33-2.37 4.05 4.05 0 0 0-.41-1.39 1.59 1.59 0 0 0-.56-.45zm-2 4.68c-.1-.79-.21-1.58-.34-2.36a4.05 4.05 0 0 0-.41-1.39 1.55 1.55 0 0 0-.5-.55c-.39.4-.84.88-.87 1.27-.06.93.5 1.34.53 2.8a14.84 14.84 0 0 0 .36 2.67c.05.26.11 1 .37 1.11.46.22 1-.58 1-.92a3.53 3.53 0 0 0 0-1.36z" fill="#3b3181"/><path d="M163.93 82.77a5.6 5.6 0 0 0 3.51 3.55c1 .32 5.34.87 4.61-1.47a3.19 3.19 0 0 0-.53-.92 14 14 0 0 0-1.93-2.25 4.67 4.67 0 0 0-4-1.15c-1.17.2-2.04.95-1.66 2.24z" fill="#feeec6"/><path d="M168 109.2c.17 4.21 1.23 8.64-.19 12.61-1.35 3.78-2.32 6.68-3.31 10.4a4.27 4.27 0 0 0-.25 1.05.77.77 0 0 0 .49.37l2 .72c1.82-5.42 3.49-10.87 5.31-16.3a16.38 16.38 0 0 0 1.17-6.38l.18-7.22c0-1.81 1.58-5.14-1.17-4.89-3.47.31-4.3 7.23-4.23 9.64z" fill="#434797"/><path d="M170.48 109.65a36.35 36.35 0 0 1 0 12.58c-.75 3.78-2.54 7.28-3.54 11a.75.75 0 0 0 0 .46.77.77 0 0 0 .49.37l2.24.87c1-3 1.56-6 3.13-8.84 2.1-3.81 3.8-7.5 4.37-11.84a87.25 87.25 0 0 0 .73-10.35c0-1.26.32-2.77-.58-3.69a4.42 4.42 0 0 0-3.32-1.07 5.33 5.33 0 0 0-3.23 1.59 4.44 4.44 0 0 0-1.35 2.49 6.56 6.56 0 0 0 .22 2.25c.36 1.38.62 2.77.84 4.18z" fill="#5453a0"/><path d="M168.3 84.38a5.5 5.5 0 0 1-1.94-3.9 5.16 5.16 0 0 0-.75.06c-1.2.2-2.07.94-1.68 2.24a5.6 5.6 0 0 0 3.51 3.55c.81.26 3.85.67 4.55-.46a7.24 7.24 0 0 1-3.69-1.49z" style="mix-blend-mode:multiply" fill="#b63941" opacity=".2"/><path d="M177.4 101.08a3.52 3.52 0 0 0 .44-.46.31.31 0 0 0 .07-.34 8.93 8.93 0 0 0-.89-1.66 15.31 15.31 0 0 1-1.08-2 9.52 9.52 0 0 1-.42-4.34c.22-1.61-.23-2.72-2.44-3.41-2-.63-3-1.41-4.18-1.26a2.26 2.26 0 0 0-1.81.1 15.21 15.21 0 0 0 .05 3.55c.37 1.62 2 3.69 3.21 5.78a2.5 2.5 0 0 1 .42 2.3 5.25 5.25 0 0 1-.68.79 7.82 7.82 0 0 0-1.49 3.16 1.9 1.9 0 0 1 1-.18 19.14 19.14 0 0 0 2.4-.11 17.11 17.11 0 0 0 2.64-.6 7.28 7.28 0 0 0 2.76-1.32z" fill="#3b3181"/><path d="M190.81 96.39c-.17-.19-.32-.42-.48-.6s-.56-.62-.85-.92c-.12-.12-.34-.31-.33-.51s.32-.32.49-.37c.92-.26.7-.4.7-.4s-.59.11-1.44.18-2.9-.4-4.26-.54l-6.64-.69a40.3 40.3 0 0 1-5.28-2.87 6.43 6.43 0 0 0-3.26-1.58 2.59 2.59 0 0 0-2.22 1.72c-.27 1.16 1.21 2.61 2.38 2.72a71.76 71.76 0 0 1 7.47 2c.83.28 8.69.36 9.58.44a1.89 1.89 0 0 1 1.29.56 3 3 0 0 1 .71.94c.14.33.3.65.46 1 0 0 .18.22.17.16a3.61 3.61 0 0 0-.19-.69v-.08c0-.01 0 0 .06 0 .22.26.42.66.77.77a.06.06 0 0 0 .06 0c0-.11-.06-.21-.13-.3s-.26-.31-.38-.47-.16-.14-.13-.26a.07.07 0 0 1 0-.05.09.09 0 0 1 .07 0 1 1 0 0 1 .25.2 4.78 4.78 0 0 0 .69.6c.05 0 .32.23.36.13a.13.13 0 0 0 0-.09.65.65 0 0 0-.09-.18l-.12-.14c-.1-.1-.88-.83-.66-1a3.44 3.44 0 0 1 .58.43c.17.14.48.37.72.29s0-.08-.07-.1a1.24 1.24 0 0 1-.28-.3z" fill="#feeec6"/><path d="M169.6 92.53a71.79 71.79 0 0 1 7.47 2c.83.28 8.69.36 9.58.44a1.89 1.89 0 0 1 1.29.56 3 3 0 0 1 .71.94c.14.33.3.65.46 1 0 0 .18.22.17.16a3.61 3.61 0 0 0-.19-.69v-.08c0-.01 0 0 .06 0 .22.26.42.66.77.77a.06.06 0 0 0 .06 0c0-.11-.06-.21-.13-.3s-.26-.31-.38-.47-.16-.14-.13-.26a.07.07 0 0 1 0-.05.09.09 0 0 1 .07 0 1 1 0 0 1 .25.2 4.78 4.78 0 0 0 .69.6c.05 0 .32.23.36.13a.13.13 0 0 0 0-.09.65.65 0 0 0-.09-.18l-.12-.14c-.1-.1-.88-.83-.66-1a3.44 3.44 0 0 1 .58.43 1.12 1.12 0 0 0 .64.3l-.12-.26-.18-.18c-.17-.19-.32-.42-.48-.6s-.54-.6-.82-.89a2.35 2.35 0 0 0-.65-.14c-.89-.08-8.75-.16-9.58-.44a71.78 71.78 0 0 0-7.47-2c-1.17-.1-2.65-1.56-2.38-2.72a2.1 2.1 0 0 1 .95-1.25 2.85 2.85 0 0 0-1-.22 2.59 2.59 0 0 0-2.22 1.72c-.11 1.18 1.32 2.6 2.49 2.71z" style="mix-blend-mode:multiply" fill="#b63941" opacity=".3"/><path d="M169.62 80.88a.49.49 0 0 1-.08.12 5.26 5.26 0 0 0-1.07 2 3.57 3.57 0 0 0 .15 2.27c-.46-.51-1.82-1.9-2.55-1.24a.55.55 0 0 0-.11.63c.2.43.69.28.93.63a.58.58 0 0 1-.37.87 1.46 1.46 0 0 1-.91-.39 5.71 5.71 0 0 1-1.09-1.1c-.11-.14-.57.81-.6.92a4.32 4.32 0 0 0 .38 2.17 3.06 3.06 0 0 1-.84 3.05c-.7.62-2.5 1.08-3 0a.92.92 0 0 0 .51.32.66.66 0 0 0 .53-.21 1.41 1.41 0 0 0 .18-1.5 10.52 10.52 0 0 0-.82-1.38 3.54 3.54 0 0 1-.52-1.92 1.81 1.81 0 0 1 1.18-1.81 5.77 5.77 0 0 1 2.66-.31 2.89 2.89 0 0 1-.91-2.19 3.43 3.43 0 0 1 3.63-2.42 6.55 6.55 0 0 1 2.66 1.23.23.23 0 0 1 .09.08.14.14 0 0 1-.03.18z" fill="#331537"/><path d="M164.56 84.67a.61.61 0 0 0-.14-.52c-.07-.08-.35-.34-.47-.23a.11.11 0 0 0 0 .09.79.79 0 0 0 .09.2l.09.21a.61.61 0 0 0 .27.33.13.13 0 0 0 .14 0 .14.14 0 0 0 .02-.08z" fill="#3b3181"/><path d="M168.12 82.63c.25-.57.83-1.34 1.13-1.88a4 4 0 0 0-1.6-1 1.6 1.6 0 0 0-1.59.06.64.64 0 0 0-.24.34c-.08.33.22.63.5.81a5.24 5.24 0 0 1 1.8 1.67zM161 84.84a1.84 1.84 0 0 0-.18 1.84 14.29 14.29 0 0 0 .94 1.7 2.45 2.45 0 0 1 .32 1.86 3.45 3.45 0 0 0 0-2.29 8.71 8.71 0 0 1-.51-1.34 1.94 1.94 0 0 1 .26-1.34c.24-.41.69-.54.95-.89-.37-.38-1.46.12-1.78.46z" fill="#fff" opacity=".1"/><path d="M214.92 168.82a4.94 4.94 0 0 0 1.64-.73.68.68 0 0 0 0-.87.68.68 0 0 0-.87 0 4.94 4.94 0 0 0-.77 1.62z" fill="#e9ae45"/><path d="M215.4 168.35a4.28 4.28 0 0 0 1.17-.61.46.46 0 0 0 .07-.59.46.46 0 0 0-.59.05 4.28 4.28 0 0 0-.64 1.16zm1.8-2.91a.71.71 0 0 0-.74-.17 2.33 2.33 0 0 0-.95.62l-.63.72a.08.08 0 0 0 .1.12 4.19 4.19 0 0 1 1.33-.53c.67-.08.73.08.73.08l.41-.58zm1.31 1.93a.71.71 0 0 0-.15-.75l-.24-.25-.59.39s.16.07.06.73a4.19 4.19 0 0 1-.56 1.32.08.08 0 0 0 .11.1l.73-.62a2.33 2.33 0 0 0 .64-.92z" fill="#db6f30"/><path d="M215.82 167.93a2.13 2.13 0 0 0 .71-.32.29.29 0 0 0 0-.38.29.29 0 0 0-.38 0 2.13 2.13 0 0 0-.33.7z" fill="#f7efae"/><path fill="#292a23" d="M216.543 166.745l.496.508-.314.308-.497-.508z"/><path d="M217.04 165.954l.79.809-.409.398a.57.57 0 0 1-.806-.01.57.57 0 0 1 .01-.806l.408-.398z" fill="#3b3181"/><path d="M219.67 164.19a5.23 5.23 0 0 0-2.57 1.25.73.73 0 0 0-.08 1.09l.25.25a.73.73 0 0 0 1.09-.05 5.23 5.23 0 0 0 1.31-2.54z" fill="#e9ae45"/><circle cx="218.1" cy="165.67" r=".55" transform="rotate(-44.32 218.11 165.678)" fill="#db6f30"/><circle cx="218.1" cy="165.67" r=".4" transform="rotate(-44.32 218.098 165.673)" fill="#3b3181"/><path d="M219.48 165a2 2 0 0 0 .19-.79 2 2 0 0 0-.79.17z" fill="#db6f30"/><path d="M276 160.4a4.94 4.94 0 0 0 1.64-.73.68.68 0 0 0 0-.87.68.68 0 0 0-.87 0 4.94 4.94 0 0 0-.77 1.62z" fill="#e9ae45"/><path d="M276.51 159.93a4.28 4.28 0 0 0 1.17-.61.46.46 0 0 0 .07-.59.46.46 0 0 0-.59.05 4.28 4.28 0 0 0-.64 1.16zm1.8-2.93a.71.71 0 0 0-.74-.17 2.33 2.33 0 0 0-.95.62l-.63.72a.08.08 0 0 0 .1.12 4.19 4.19 0 0 1 1.33-.53c.67-.08.73.08.73.08l.41-.58zm1.31 1.93a.71.71 0 0 0-.15-.75l-.24-.25-.59.39s.16.07.06.73a4.19 4.19 0 0 1-.56 1.32.08.08 0 0 0 .11.1l.73-.62a2.33 2.33 0 0 0 .64-.91z" fill="#db6f30"/><path d="M276.93 159.51a2.14 2.14 0 0 0 .71-.32.29.29 0 0 0 0-.38.29.29 0 0 0-.38 0 2.13 2.13 0 0 0-.33.7z" fill="#f7efae"/><path fill="#292a23" d="M277.66 158.317l.496.508-.315.307-.496-.508z"/><path d="M278.17 157.533l.789.808-.408.398a.57.57 0 0 1-.806-.01.57.57 0 0 1 .01-.805l.407-.398.007.007z" fill="#3b3181"/><path d="M280.77 155.76a5.23 5.23 0 0 0-2.57 1.24.73.73 0 0 0-.08 1.09l.25.25a.73.73 0 0 0 1.09-.05 5.23 5.23 0 0 0 1.31-2.53z" fill="#e9ae45"/><circle cx="279.21" cy="157.25" r=".55" transform="rotate(-44.32 279.22 157.26)" fill="#db6f30"/><circle cx="279.21" cy="157.25" r=".4" transform="rotate(-44.32 279.208 157.255)" fill="#3b3181"/><path d="M280.59 156.55a2 2 0 0 0 .19-.79 2 2 0 0 0-.79.17z" fill="#db6f30"/><path d="M259.58 83.34a4.06 4.06 0 0 0 .46.32 2.25 2.25 0 0 1 .8 1c.28-.25.3-.68.49-1a1.88 1.88 0 0 1 1-.68 1.25 1.25 0 0 0 .55-.3.63.63 0 0 0-.27-1 .86.86 0 0 0-.65.11 5.51 5.51 0 0 0-.55.4 4.35 4.35 0 0 1-2.21.62 1.88 1.88 0 0 0 .38.53z" fill="#fff" opacity=".2"/></g></g></svg>