<svg data-name="Calque 1" xmlns="http://www.w3.org/2000/svg" xmlns:xlink="http://www.w3.org/1999/xlink" viewBox="0 0 400 225"><defs><linearGradient id="b" y1="112.5" x2="400" y2="112.5" gradientTransform="rotate(-180 200 112.5)" gradientUnits="userSpaceOnUse"><stop offset="0" stop-color="#f0856e"/><stop offset="1" stop-color="#f8b46e"/></linearGradient><linearGradient id="a" x1="289.94" y1="46.55" x2="400" y2="46.55" gradientUnits="userSpaceOnUse"><stop offset="0" stop-color="#fff"/><stop offset="1" stop-color="#f8b46e"/></linearGradient><linearGradient id="c" x1="121.5" y1="179.94" x2="168.08" y2="179.94" gradientTransform="matrix(-1 0 0 1 401 0)" xlink:href="#a"/><linearGradient id="d" x1="0" y1="112.5" x2="201.87" y2="112.5" xlink:href="#a"/><linearGradient id="e" x1="285.55" y1="52" x2="323.48" y2="52" gradientTransform="matrix(-1 0 0 1 401 0)" xlink:href="#a"/><linearGradient id="f" x1="351.22" y1="34.09" x2="374.05" y2="34.09" gradientTransform="matrix(-1 0 0 1 401 0)" xlink:href="#a"/><linearGradient id="g" x1="188.28" y1="28.71" x2="207.76" y2="28.71" gradientTransform="matrix(-1 0 0 1 401 0)" xlink:href="#a"/><linearGradient id="h" x1="106.56" y1="77.24" x2="123.55" y2="77.24" xlink:href="#a"/><linearGradient id="i" x1="210.16" y1="75.08" x2="222.03" y2="75.08" xlink:href="#a"/><linearGradient id="j" x1="260.36" y1="152.46" x2="272.23" y2="152.46" xlink:href="#a"/><linearGradient id="k" x1="108.9" y1="183.87" x2="129.51" y2="183.87" xlink:href="#a"/><linearGradient id="l" x1="74.96" y1="113.69" x2="93.56" y2="113.69" xlink:href="#a"/><linearGradient id="m" x1="249.48" y1="83.13" x2="264.36" y2="83.13" xlink:href="#a"/></defs><path transform="rotate(180 200 112.5)" fill="url(#b)" d="M0 0h400v225H0z"/><path d="M299.58 0A60.37 60.37 0 0 0 400 67V0z" opacity=".42" fill="url(#a)"/><circle cx="256.21" cy="179.94" r="23.29" opacity=".42" fill="url(#c)"/><path d="M120.12 119.41C66.88 131.62 46.7 73.08 63.86 58.7c25-21 66.43 6.58 84.71-26.94 7.34-13.46 5.6-24 0-31.76h-45C93.72 10.53 75.21 22.79 53.5 27.57 30.07 32.73 12.62 41.19 0 52.63v145A118.93 118.93 0 0 0 36.39 225h131.43c62.79-34.6 34.02-124.33-47.7-105.59z" fill="url(#d)"/><circle cx="96.49" cy="52" r="18.96" opacity=".42" fill="url(#e)"/><circle cx="38.37" cy="34.09" r="11.41" opacity=".42" fill="url(#f)"/><circle cx="202.98" cy="28.71" r="9.74" opacity=".42" fill="url(#g)"/><path d="M143.74 182.29a7 7 0 1 1 7-7 7 7 0 0 1-7 7zm0-12.79a5.83 5.83 0 1 0 5.83 5.83 5.83 5.83 0 0 0-5.83-5.84z" fill="#5d8bc8"/><path fill="#e55553" d="M175.31 68.54l-11.93-20.68-11.94 20.68h6.84v89.24h10.18V68.54h6.85z"/><path d="M164.06 148.55a22.09 22.09 0 1 1 22.09-22.09 22.11 22.11 0 0 1-22.09 22.09zm0-43a21 21 0 1 0 21 21 21 21 0 0 0-21-21.04zm60.1 6.11a22.09 22.09 0 1 1 22.09-22.09 22.11 22.11 0 0 1-22.09 22.09zm0-43a21 21 0 1 0 21 21 21 21 0 0 0-21-21.04zm31.21 118.13a22.09 22.09 0 1 1 22.09-22.09 22.11 22.11 0 0 1-22.09 22.09zm0-43a21 21 0 1 0 21 21 21 21 0 0 0-21-21.04z" fill="#5d8bc8"/><path opacity=".42" fill="url(#h)" d="M108.26 70.38l5.77 2.52 4.74-4.14-.62 6.26 5.41 3.22-6.15 1.36-1.39 6.13-3.19-5.42-6.27.56 4.18-4.7-2.48-5.79z"/><path opacity=".42" fill="url(#i)" d="M210.16 74.78l4.27-1.4.58-4.54 2.62 3.71 4.4-.85-2.65 3.7 2.14 4.01-4.26-1.42-3.08 3.32.02-4.57-4.04-1.96z"/><path opacity=".42" fill="url(#j)" d="M260.36 152.17l4.27-1.41.58-4.53 2.61 3.7 4.41-.84-2.65 3.69 2.14 4.01-4.26-1.42-3.08 3.32.02-4.57-4.04-1.95z"/><path opacity=".42" fill="url(#k)" d="M108.9 183.36l7.4-2.44 1.02-7.88 4.54 6.44 7.65-1.47-4.6 6.41 3.71 6.97-7.38-2.46-5.36 5.77.04-7.94-7.02-3.4z"/><path opacity=".42" fill="url(#l)" d="M79.74 104.65l5.34 4.15 6.15-3.08-2.43 6.38 4.76 4.79-6.84-.2-3.22 6.03-1.8-6.5-6.74-1.06 5.73-3.82-.95-6.69z"/><path opacity=".42" fill="url(#m)" d="M253.31 75.9l4.27 3.32 4.92-2.47-1.94 5.11 3.81 3.83-5.48-.16-2.57 4.83-1.44-5.21-5.4-.84 4.59-3.06-.76-5.35z"/><path d="M272.29 89.44s2.67-2.35 2.7-4.13a15.23 15.23 0 0 1 1.21-4.8c.41-.95.68-4.47 1.78-3.81s-.19 5.86-.26 7 3.71-1.6 4.8-1.46 5.25 7.83 2.43 9.37-6.86 1-7.3 1.4a17.52 17.52 0 0 1-2 1.22z" fill="#f9c5b1"/><path d="M281.77 82.44s8.94-4 9.77-3.74 1 .89.21 1.31-8.52 4.2-8.52 4.2 11.43-2.72 12.15-2.63c.42.05.87 1.15.45 1.42s-11.56 3.71-11.56 3.71 10.67-2.52 11.27-2.24.71 1.35-.06 1.6S285 89.3 285 89.3s7.91-1.27 8.31-.71c.25.34.67 1.27-1.38 1.53s-6.81 1.44-6.81 1.44z" fill="#f9c5b1"/><path d="M236.52 97.2c-1.74.36-19-.78-30.61-1l20.81 13.55a94 94 0 0 0 12.43.46c5-.45 36-13.44 37.17-15.6s-2.08-9.1-2.08-9.1-35.15 11.15-37.72 11.69z" fill="#e7effa"/><path d="M127 89.76s-2.67-2.35-2.7-4.13a15.24 15.24 0 0 0-1.21-4.8c-.41-.95-.68-4.47-1.78-3.81s.19 5.86.26 7-3.71-1.6-4.8-1.46-5.25 7.83-2.43 9.37 6.86 1 7.3 1.4a17.52 17.52 0 0 0 2 1.22z" fill="#f9c5b1"/><path d="M117.52 82.77s-8.94-4-9.77-3.74-1 .89-.21 1.31 8.52 4.2 8.52 4.2-11.43-2.72-12.15-2.63c-.42.05-.87 1.15-.45 1.42S115 87 115 87s-10.67-2.52-11.27-2.24-.71 1.35.06 1.6 10.53 3.23 10.53 3.23-7.91-1.27-8.31-.71c-.25.34-.67 1.27 1.38 1.53s6.81 1.44 6.81 1.44z" fill="#f9c5b1"/><path d="M162.77 97.52c1.74.36 19-.78 30.61-1L172.57 110a93.93 93.93 0 0 1-12.43.46c-5-.45-36-13.44-37.17-15.6s2.08-9.1 2.08-9.1S160.2 97 162.77 97.52z" fill="#e7effa"/><path d="M289.34 158.39c-.06-.32.64-.45 1.21-1.08s-2.17-4.84-2.55-5.74-2.68-2.68-4-3.19-5.35.83-7.27.83h-1.66s-3.19 2.69-2.92 3.61 3.18 4 3.68 5.06 5.31 4.38 7.61 5.83 2.65-.19 2.65-.19a12.63 12.63 0 0 0 3 1.08c2 .48 1.45-1 1.45-1 .45-.13 3.63 1.53 3.7.32s-4.83-5.21-4.9-5.53zm-2.2-2.52c-.06.32-1.12-.29-1.91-1s-3-2.58-2.68-3.06 2.9.19 3.6.89a22.71 22.71 0 0 1 .99 3.17zm-176.97 4.34c-.3 1.17 3.23.55 3.62.81 0 0-1.14 1 .87 1.29a12.57 12.57 0 0 0 3.42 0s-.65 1.51 2 1.1 8.65-2.54 9.45-3.39 4.51-2.93 5-3.72-1.7-4.32-1.7-4.32l-1.58-.5c-1.82-.58-5.25-3.06-6.68-3s-4.16 1.09-4.79 1.83-4.51 3.92-4.16 4.7 1 1.11.83 1.4-5.98 2.59-6.28 3.8zm11.09-8.21c.88-.46 3.57-.31 3.7.23s-2.51 1.71-3.47 2.11-2.15.66-2.11.34a22.76 22.76 0 0 1 1.88-2.68z" fill="#f9c5b1"/><path d="M208.95 94.46s9.72 3.12 12.76 4.13 9.5 4.28 12.18 11.39 13.27 19.58 13.56 19.87 11.89 7.91 16.32 11.6 12 7.25 12 7.25-2.76 5.44-3.55 4.86c0 0-27.7-11.68-29.84-13.85s-4.53-6.74-6.06-8.12-11.53-12.33-11.53-12.33-.8 6.74-2 9.21-2.1 8.92-2 11.17 1 10.55 1 10.55-5 1.49-8.29 1.32-31.21 1.47-31.1.24c.45-5.21.89-6.73 1.38-8.19s.58-3.63-.58-8.34-5.29-13.78-5.29-13.78-11 12.22-12 13.67a22.42 22.42 0 0 1-7.18 6.71c-3.41 1.81-23.08 14.79-23.08 14.79s-5.55-4.91-4.39-5.78 18.45-17.39 21.81-19.16c6.26-3.3 13-14.58 14.07-15.88s6.45-12.69 9.65-14.29 19.44-7 19.44-7z" fill="#e7effa"/><path d="M204.11 59.58s9.93 1.56 8.41 17.09-10.27 14.26-10.86 14.24-8.79.28-9.43-18.68c.01 0-.23-14.02 11.88-12.65z" fill="#f9c5b1"/><path d="M208.75 86.34s-.3 6.74.32 8.12-8.31 5.24-13.69.3c0 0 1.45-6.72 1.09-9.18s12.28.76 12.28.76zm3.93-14.06s1.09-1.16 1.49 0-1.48 6.42-1.55 6.66c0 0-.2.46-.46.2s.52-6.86.52-6.86zm-20.18-.19s-1.06-1.18-1.49 0 1.34 6.44 1.42 6.69c0 0 .19.46.45.21s-.38-6.9-.38-6.9z" fill="#f9c5b1"/><path d="M212.68 74.67l-1.42 1.9a38 38 0 0 0-.19-4.82c-.23-.65-.58-2.65-.77-3.12s-8.52-2.81-15.88.68c0 0 .32 3-.38 3.26s-.36 4.88-.36 4.88l-1.17-1.32s-1.79-11.95-1.35-13.19 1.85-8.73 16.95-4.29c0 0 4.71-1 5.65 2.25s-1.08 13.77-1.08 13.77z" fill="#d98b52"/><path d="M202.59 109.11a28 28 0 0 1 2.51 9.89c.33 5.49-2.18 20.89-3.21 24.42l-5.06 3.58-2.18-4.76s4.57-20.07 4.62-23.5a95.39 95.39 0 0 1 1.2-10.2z" fill="#f8b46e"/><path d="M272.11 162.52c-.33 2.28-14 11.9-16.75 13.82-2.17 1.54-4.05 2.25-7.33 3.48-7.45 2-54.2 15.91-54.2 15.91a5.92 5.92 0 0 0-.46-1.42c-1.74.7-3.54 1.15-4.68 1.5-1.74.54-15.56 1-18.38 1.52s-8.49 1.41-10.77-.76 1.41-6.85 4.57-8 14.69-1.52 16.75-1.74 4.79-1 6.09-.54c.41.14 2.24-.4 4.54-1.19-.06-.85-.07-1.38-.07-1.38l12.28-3.54-2.27-21.74s5.34-20.13 26.68-4.77c0 0 4.76 1.4 6.39 1.84a1.79 1.79 0 0 0 .55 0c3.26-.24 17.24-4.48 22.3-4.48 5.44 0 7.18-.33 9.14.65s5.94 8.56 5.62 10.84z" fill="#364c70"/><path d="M250.25 196.57c-2.28 2.18-7.94 1.31-10.77.76s-16.64-1-18.39-1.52-5-1.3-7.29-2.83a7.39 7.39 0 0 0-1.22-.54l-3.46 2.49-48-15.29a17.21 17.21 0 0 1-6.68-3.31c-2.5-2.18-16.43-11.53-16.75-13.82s3.7-9.9 5.66-10.88 3.7-.65 9.14-.65 21.21 4.9 22.85 4.46a23.73 23.73 0 0 0 3.73-1.78c1.74-1 3.37-1.92 3.37-1.92 23.36-10.43 26 6.64 26 6.64L207 179.46s1.95 1 4.48 2.17L223 184.9l-1.47 1.1a3 3 0 0 0 1.31.24c1.31-.44 4 .33 6.09.54s13.6.54 16.75 1.74 6.85 5.88 4.57 8.05z" fill="#364c70"/><path d="M189.51 174s-15.19-9.11-21.83-10.54c-6.27-1.35-8.56-3.7-8.56-3.7s10 0 16.61 4.71c4.51 3.18 13.78 9.53 13.78 9.53zm13.49 6.32s26.43-13.88 37.22-16.89c6.18-1.72 8.56-3.7 8.56-3.7s-16.34 1.6-26.27 7.58c-4.74 2.85-19.51 13.01-19.51 13.01z" fill="#314663"/><path d="M182.4 151.75s-.36-2.72.47-4.26a219.55 219.55 0 0 0 38.53-.8s.91 2.08.39 3.5c.01 0-12.26 3.16-39.39 1.56z" fill="#404040"/><path d="M210.18 95l-8.7 11.68L194.66 95s.62-.23 2.56-.75 12.96.75 12.96.75z" fill="#f9c5b1"/><path fill="#bfe2f0" d="M201.47 106.64l3.41 3.01L212 95.44l-3.17-2.01-7.36 13.21zm0 0l-3.82 3.29-4.69-14.35 2.62-1.82 5.89 12.88z"/><path d="M250.25 196.57c-2.28 2.18-7.94 1.31-10.77.76s-16.64-1-18.39-1.52-5-1.3-7.29-2.83a7.39 7.39 0 0 0-1.22-.54l8.94-6.45a3 3 0 0 0 1.31.24c1.31-.44 4 .33 6.09.54s13.6.54 16.75 1.74 6.86 5.89 4.58 8.06zm-56.9-2.26c-1.74.7-3.54 1.15-4.68 1.5-1.74.54-15.56 1-18.38 1.52s-8.49 1.41-10.77-.76 1.41-6.85 4.57-8 14.69-1.52 16.75-1.74 4.79-1 6.09-.54c.41.14 2.24-.4 4.54-1.19.06 1.33 1.88 9.21 1.88 9.21z" fill="#404040"/><path d="M203 193l26-7.69-5.14-1.57S203.09 191.26 203 193z" fill="#364c70"/><path fill="#314663" d="M203.01 193l12.15-3.71-8.43 4.89-3.72-1.18z"/><path fill="#364c70" d="M214.34 147.39l1.44-.12.42 4.27-1.58.21-.28-4.36zm-24.1.48l-.48 4.83h1.45l.51-4.79-1.48-.04z"/><path d="M198.79 147.73l-.21 4.76s4.73.19 6.45-.28l-.19-4.56z" fill="#b4b4b4"/><path d="M179 153.68c1.61.11 12.5 6.42 15.08 7.93-3.93-2.05-18.81-6.15-18.81-6.15a23.73 23.73 0 0 0 3.73-1.78z" fill="#314663"/><path d="M194.66 161.92l-.55-.32a5.24 5.24 0 0 1 .55.32z" fill="#535353"/><path d="M235 155.47s-18.75 4.55-22.19 6.46c.16-.11 10.14-7.32 15.25-8.31 0 0 4.76 1.4 6.39 1.84a1.79 1.79 0 0 0 .55 0z" fill="#314663"/><path d="M196.44 88.08a8 8 0 0 0 5.77 2.86c2.33 0 4.16-.81 6.48-3.07a7 7 0 0 1-6.46 4.85s-4.04.28-5.79-4.64z" fill="#a77961"/><path d="M201.48 106.64l3 2.65a4.7 4.7 0 0 1-6.09 0z" fill="#e99c4f"/><path fill="#3a65a4" d="M135.24 135.49l-11.94-20.68-11.94 20.68h6.85v21.84h10.17v-21.84h6.86z"/><path fill="#e55553" d="M110.2 135.49l-11.93-20.68-11.94 20.68h6.85v58.74h10.17v-58.74h6.85z"/><path d="M180.2 74.86v-2.22l1.13-.08c.05.76.07 1.54 0 2.32zM86.78 91.55l1-.55a29.58 29.58 0 0 0 2.37 3.66l-.9.69a30.75 30.75 0 0 1-2.47-3.8zm-1.89-4.12a31.31 31.31 0 0 1-1.27-4.35l1.11-.24A30.07 30.07 0 0 0 86 87zm7.36 11.31l.79-.82a26.44 26.44 0 0 0 3.38 2.75l-.64.94a27.58 27.58 0 0 1-3.52-2.87zM83 78.59a26.54 26.54 0 0 1 .13-4.59l1.13.13a25.45 25.45 0 0 0-.12 4.35zm16.73 25.25l.47-1a25.16 25.16 0 0 0 4.1 1.45l-.29 1.1a26.33 26.33 0 0 1-4.28-1.56zM84.09 69.59A19.6 19.6 0 0 1 86 65.43l1 .57a18.47 18.47 0 0 0-1.79 3.92zm24.4 36.53l.1-1.13a28.85 28.85 0 0 0 4.36 0l.07 1.13a30.14 30.14 0 0 1-4.54 0zM88.86 61.86l.37-.35a18.84 18.84 0 0 1 3.31-2.38l.56 1a17.7 17.7 0 0 0-3.1 2.23l-.35.32zm28.63 43.71l-.22-1.11c1-.2 2-.44 3-.73.42-.12.83-.25 1.24-.38l.36 1.08c-.42.14-.85.27-1.29.4-1.03.29-2.07.54-3.09.75zm8.55-2.91l-.52-1 .12-.06a27.83 27.83 0 0 0 3.57-2.24l.67.91a29 29 0 0 1-3.72 2.33zm6.48-6.15a36.12 36.12 0 0 0 2.91-3.27l.89.71a37.37 37.37 0 0 1-3 3.37zm5.48-6.85c.76-1.18 1.5-2.42 2.26-3.79l1 .55c-.77 1.4-1.52 2.66-2.3 3.86zm4.29-7.72c.58-1.18 1.18-2.46 1.89-4l1 .47c-.72 1.56-1.32 2.85-1.91 4zm3.71-8.06c.59-1.31 1.22-2.7 1.86-4.06l1 .48c-.63 1.34-1.26 2.74-1.85 4zm3.84-8.07c.56-1.06 1.09-2 1.63-2.93.2-.34.41-.67.63-1l.94.64c-.2.3-.4.61-.59.92-.53.89-1.05 1.82-1.6 2.87zm5.35-7.31a15 15 0 0 1 2.56-1.7 14.69 14.69 0 0 1 1.41-.65l.42 1.06a13.52 13.52 0 0 0-1.3.6 13.89 13.89 0 0 0-2.36 1.57zm8.53-2.22l-.07-1.13a15.31 15.31 0 0 1 4.59.41l-.27 1.1a14.16 14.16 0 0 0-4.24-.38zm8.2 2l.57-1a16.6 16.6 0 0 1 3.61 2.84l-.82.79a15.47 15.47 0 0 0-3.34-2.65zm7.51 10.1a18.42 18.42 0 0 0-1.61-4l1-.55a19.43 19.43 0 0 1 1.71 4.24zm-82.3-9.9l-.29-1.1a19.35 19.35 0 0 1 2.29-.46l.16 1.08a18.11 18.11 0 0 0-2.16.48z" fill="#3a65a4"/><path d="M106.06 57.77a34.33 34.33 0 0 0-9.83 5.18l2.08-5.36-1.83-5.45a34.29 34.29 0 0 0 9.58 5.63zm153.05-10.2c-.68.33-1.33.68-2 1.05l-.58-1c.65-.39 1.34-.76 2-1.1zm57.32 75.64l-.94-.64a29.55 29.55 0 0 0 2.18-3.78l1 .49a30.7 30.7 0 0 1-2.24 3.93zm-2.81 3.55a31.29 31.29 0 0 1-3.29 3.11l-.72-.88a30 30 0 0 0 3.17-3zm6.73-11.7l-1.09-.33a26.48 26.48 0 0 0 .91-4.25l1.13.15a27.67 27.67 0 0 1-.96 4.43zm-13.75 17.4a26.51 26.51 0 0 1-4.1 2l-.4-1.06a25.39 25.39 0 0 0 3.92-1.87zm14.89-26.37l-1.13.05a25.24 25.24 0 0 0-.57-4.31l1.11-.25a26.32 26.32 0 0 1 .59 4.51zm-23.39 29.49a19.58 19.58 0 0 1-4.57.2l.09-1.13a18.47 18.47 0 0 0 4.3-.19zm21.45-38.33l-1.05.42a28.92 28.92 0 0 0-1.94-3.9l1-.58a30 30 0 0 1 1.98 4.06zM289 134.84l-.48-.18a18.85 18.85 0 0 1-3.62-1.86l.63-.95a17.72 17.72 0 0 0 3.41 1.75l.45.16zm26-45.37l-.89.7c-.62-.79-1.3-1.57-2-2.34-.3-.32-.6-.63-.9-.93l.8-.81c.32.31.63.63.94 1 .68.76 1.38 1.57 2.05 2.38zm-6.48-6.29l-.66.92-.11-.08a27.82 27.82 0 0 0-3.62-2.16l.51-1a29 29 0 0 1 3.77 2.25zm-8.42-3a36.12 36.12 0 0 0-4.23-1.11l.22-1.11a37.31 37.31 0 0 1 4.37 1.14zm-8.58-1.76a63.73 63.73 0 0 0-4.4-.29v-1.14c1.6.05 3.06.15 4.48.29zm-8.83-.31c-1.32 0-2.73.06-4.43.14v-1.13c1.72-.07 3.14-.12 4.47-.14zm-8.88.34c-1.43.07-3 .14-4.46.19V77.5c1.49 0 3-.12 4.44-.19zm-8.93.24c-1.2 0-2.3-.05-3.35-.12-.39 0-.78-.06-1.16-.11l.15-1.13c.36 0 .72.08 1.09.11 1 .07 2.1.11 3.29.12zm-8.94-1.45a15 15 0 0 1-2.68-1.5 14.73 14.73 0 0 1-1.22-1l.75-.85a13.64 13.64 0 0 0 1.12.88 13.85 13.85 0 0 0 2.47 1.39zM250 70.68l-1 .58a15.29 15.29 0 0 1-1.65-4.26l1.11-.26a14.15 14.15 0 0 0 1.54 3.94zm-2-8.21l-1.13-.06a16.61 16.61 0 0 1 .89-4.5l1.07.37a15.48 15.48 0 0 0-.75 4.2zm5.58-11.28a18.43 18.43 0 0 0-2.82 3.25l-.94-.64a19.41 19.41 0 0 1 3-3.45zM282.27 129l-.84.76a19.31 19.31 0 0 1-1.45-1.83l.93-.65a18.08 18.08 0 0 0 1.36 1.72z" fill="#3a65a4"/><path d="M277.57 121.39a34.33 34.33 0 0 0 9.08 6.41l-5.72.58-4 4.1a34.3 34.3 0 0 0 .64-11.09z" fill="#3a65a4"/><circle cx="114.61" cy="75.21" r="13.9" fill="#f8b46e"/><path d="M114.61 89.68a14.46 14.46 0 1 1 14.46-14.46 14.48 14.48 0 0 1-14.46 14.46zm0-27.79a13.33 13.33 0 1 0 13.33 13.33 13.34 13.34 0 0 0-13.33-13.34z" fill="#3a65a4"/><path fill="#3a65a4" d="M118.63 79.75l-4.58-3.56V65.22h1.13v10.41l4.14 3.22-.69.9zm152.68 91.21h13.13v25.83h-13.13z"/><path fill="#e55553" d="M284.22 160.66h13.13v36.13h-13.13z"/><path fill="#f8b46e" d="M297.28 149.03h13.13v47.76h-13.13z"/><path fill="#e7effa" d="M310.4 157.23h13.13v39.56H310.4z"/><path d="M294.49 61a15.15 15.15 0 1 1-7.18-3.55 14.63 14.63 0 0 1 1.88.49 15.06 15.06 0 0 1 5.3 3.06z" fill="#e55553"/><path d="M289.2 57.93l-4.77 14.38-11.32-10.07a15.14 15.14 0 0 1 16.09-4.31z" fill="#f8b46e"/><path d="M284.43 72.31l11.32 10.06a15.15 15.15 0 0 1-24.17-2z" fill="#3a65a4"/><path d="M294.49 61a15.14 15.14 0 0 1 1.26 21.38l-11.32-10.07 2.88-14.86a14.63 14.63 0 0 1 1.88.49 15.06 15.06 0 0 1 5.3 3.06z" fill="#5d8bc8"/><path d="M296.46 62.19a15.71 15.71 0 1 1-25.36 18.43 15.71 15.71 0 0 1 16.33-23.74 15.15 15.15 0 0 1 2 .51 15.56 15.56 0 0 1 5.49 3.17 16 16 0 0 1 1.54 1.63zM273.29 81.7a14.58 14.58 0 0 0 22 .29 14.57 14.57 0 0 0-1.21-20.58 14.44 14.44 0 0 0-5.1-2.94 14.11 14.11 0 0 0-1.81-.47 14.58 14.58 0 0 0-15.15 22 14.45 14.45 0 0 0 1.27 1.7z" fill="#3a65a4"/><path d="M260.33 126.73a7 7 0 1 1 7-7 7 7 0 0 1-7 7zm0-12.79a5.83 5.83 0 1 0 5.83 5.83 5.83 5.83 0 0 0-5.83-5.84zM229 62.85a7 7 0 1 1 7-7 7 7 0 0 1-7 7zm0-12.79a5.83 5.83 0 1 0 5.83 5.83 5.83 5.83 0 0 0-5.83-5.83z" fill="#5d8bc8"/></svg>