<svg xmlns="http://www.w3.org/2000/svg" viewBox="0 0 400 225"><g data-name="Calque 1"><path fill="#f18831" d="M0 0h400v225H0z"/><path d="M83.52 138.53h1.26v-.7a11.76 11.76 0 0 1 11.76-11.76h7.22v-3.72a20 20 0 0 1-5.42-7.7h-48.5a203 203 0 0 0 33.11 30v-5.52a.58.58 0 0 1 .57-.6zM87.84 120h.78a2.7 2.7 0 0 1 .41-.71l-.42-.66.7-.58.57.52a2.8 2.8 0 0 1 .77-.28l.1-.77h.91l.1.77a2.76 2.76 0 0 1 .77.28l.57-.52.7.58-.41.66a2.7 2.7 0 0 1 .41.71h.77l.16.9-.74.24a2.87 2.87 0 0 1-.14.81l.61.47-.46.79-.72-.29a2.79 2.79 0 0 1-.62.52l.16.76-.86.31-.36-.68a2.7 2.7 0 0 1-.82 0l-.36.68-.86-.31.16-.76a2.81 2.81 0 0 1-.62-.52l-.72.29-.46-.79.61-.47a2.8 2.8 0 0 1-.14-.81l-.74-.24z" fill="#d35715"/><path d="M90.18 135.79l-22.89-22.88h6.29l19.76 19.76a11.2 11.2 0 0 0 15.82 0l-.24.24h6.3l-2.9 2.89a15.68 15.68 0 0 1-22.14-.01z" fill="#f18831"/><path d="M281 147.92l14.2-14.2-13.2-21.77V128h-11.49l1.15.2-1.17 8.28 5.82 6-5.82 6 1.17 8.28-4.55.8-3.69.65-3.92 7.39-7.5-3.65-7.51 3.67-3.92-7.39-8.24-1.44 1.17-8.28-5.81-6 5.81-6-1.17-8.28 2.31-.41V92.6H282v6L302.77 86l15.14 25V99.35a4.23 4.23 0 0 1 2-7.93h2.15l9.73-9.73a2.26 2.26 0 0 1 3.21 3.18l-6.55 6.54h15.36l-6.54-6.54a2.256 2.256 0 1 1 3.19-3.19l9.73 9.73h2.29a4.23 4.23 0 0 1 2 7.93v12.54A201.65 201.65 0 0 0 390.31 51H11.69a200.86 200.86 0 0 0 12 26.39v-15h4.8v23.33q2.3 3.78 4.77 7.45l5.84-3v11.3q1 1.32 2 2.62V89.11l7.43-3.86v21.66h-5.2q1.18 1.48 2.39 2.93H97c0-.15-.05-.3-.07-.45h-.08a4.08 4.08 0 0 1-3.73-2.48H88V84.22l7.43-5.16v13.53a17.64 17.64 0 0 1 2-2.64V77.69l7.43-5.15v12.55a17.62 17.62 0 0 1 23.26 16.7v3.53a4.08 4.08 0 0 1-4.05 4.08h-.33a21 21 0 0 1-6.6 12.8v3.88h7.22a16 16 0 0 1 6.59 1.13l20.78-6.64a3.53 3.53 0 0 1 4.43 2.29l8.17 25.58 2-.1a.73.73 0 0 1 .68 1.06l-1.49 2.9.37 1.17 6.42 3.31a.73.73 0 0 1 .31 1l-1.24 2.4-1.22 2.37a.73.73 0 0 1-1 .31l-.36-.18.81 2.53.5 1.56a3.52 3.52 0 0 1-2.29 4.43l-16.79 5.36a202.22 202.22 0 0 0 49.97 6.2 203.83 203.83 0 0 0 22.46-1.25l-.28-.48 2-1.52a9 9 0 0 1-.45-2.58l-2.37-.76.51-2.87 2.48.1a9 9 0 0 1 1.31-2.27l-1.37-2.13 2.24-1.87 1.84 1.66a8.78 8.78 0 0 1 2.46-.9l.33-2.46h2.92l.34 2.46a8.76 8.76 0 0 1 2.46.9l1.84-1.66L242 169l-1.33 2.11a8.87 8.87 0 0 1 1.31 2.27l2.48-.1.51 2.87-2.36.76a9.46 9.46 0 0 1-.2 1.58 200.33 200.33 0 0 0 50.07-17.61L281 149.41a1.05 1.05 0 0 1 0-1.49zm65.8-72.07h.48a1.69 1.69 0 0 1 .26-.44l-.26-.41.44-.36.36.32a1.74 1.74 0 0 1 .48-.17l.06-.48h.57l.06.48a1.72 1.72 0 0 1 .48.17l.36-.32.44.36-.26.41a1.71 1.71 0 0 1 .25.44h.48l.1.56-.46.15a1.8 1.8 0 0 1-.09.5l.38.3-.28.49-.45-.18a1.71 1.71 0 0 1-.39.33l.1.47-.53.19-.22-.43h-.5l-.23.43-.53-.19.1-.47a1.71 1.71 0 0 1-.39-.33l-.45.18-.28-.49.38-.3a1.74 1.74 0 0 1-.09-.5l-.46-.15zm-17-8.37h.78a2.74 2.74 0 0 1 .41-.71l-.42-.66.7-.58.57.52a2.77 2.77 0 0 1 .77-.28l.1-.77h.91l.1.77a2.77 2.77 0 0 1 .77.28l.57-.52.7.58-.41.66a2.73 2.73 0 0 1 .41.71h.78l.16.9-.74.24a2.89 2.89 0 0 1-.14.81l.61.47-.46.79-.72-.29a2.78 2.78 0 0 1-.62.52l.16.76-.86.31-.36-.68a2.69 2.69 0 0 1-.82 0l-.36.68-.86-.31.16-.76a2.82 2.82 0 0 1-.62-.52l-.72.29-.46-.79.61-.47a2.78 2.78 0 0 1-.14-.81l-.74-.24zm-17.57 5.77l1.79.07a6.48 6.48 0 0 1 .95-1.64l-1-1.52 1.62-1.35 1.33 1.2a6.39 6.39 0 0 1 1.78-.65l.24-1.77h2.11l.24 1.77a6.34 6.34 0 0 1 1.78.65l1.33-1.2 1.6 1.35-1 1.52a6.45 6.45 0 0 1 .95 1.64l1.79-.07.36 2.08-1.71.55a6.67 6.67 0 0 1-.33 1.86l1.41 1.1-1.05 1.83-1.57-.67a6.39 6.39 0 0 1-1.45 1.21l.38 1.76-2 .72-.78-1.6a6.31 6.31 0 0 1-1.89 0l-.83 1.59-2-.72.38-1.76a6.46 6.46 0 0 1-1.47-1.2l-1.66.68-1.06-1.83 1.41-1.1a6.49 6.49 0 0 1-.32-1.86l-1.71-.55zM57.92 106.91h-7.43V84.22l4.17-2.17 3.26 2.34zm9.41 0H59.9v-21.1l4.68 3.35L66 90.28l1.33-1zm9.27 0h-7.43V88l6.07-4.2 1.36 1zm9.41 0h-7.43v-20.8l2 1.4 1.33.81 1.37-.84L86 85.59zm22.29-38.75L106.81 66l-25 17.33-.82.5-.82-.51-5.84-4.1-8.42 5.82-.82.64-.82-.68-10.43-7.44-22.17 11.52v-3.24L53.3 74.59l.83-.4.68.51 10.32 7.4 8.41-5.82.85-.57.8.57L81 80.39l24.16-16.76-1.36-2 7.86-.64zm61 50.84l-2.47 2.47-2.35-2.35-9.25-9.25 1.14-1.14-3.64-3.64a13.11 13.11 0 1 1 2.65-2.65l3.66 3.66 1.14-1.14 9.25 9.25 2.35 2.35zm56.93-24.5L216 84.25l13.7-13.7 10.21 10.25z" fill="#d35715"/><path d="M255.41 62.61l11.54-11.54h6.37l-14.75 14.7a11.2 11.2 0 0 0 0 15.82l39.28 39.28-3.16 3.13-39.28-39.25a15.68 15.68 0 0 1 0-22.14z" fill="#f18831"/><path d="M111.49 152.06v-1.49h-2.8a4.08 4.08 0 0 1-1.26-.22v2.88a.58.58 0 0 1-.58.58H96.8a201 201 0 0 0 33.09 16.06l-5.69-17.8zm213.16-29.98l-4.78 2.9 5.3 5.3 3.17 3.17 2.22 2.22a203 203 0 0 0 16.87-15.87h-24.16z" fill="#d35715"/><path fill="#9f4216" d="M117.13 129.95l-.03-3.88v3.88h.03zM119 96.08c.68-.41 1.35-.83 2-1.28-.63.45-1.3.87-2 1.28zm-1.92 30a11.65 11.65 0 0 1-1.31.77 11.82 11.82 0 0 0 1.31-.77zm.05 3.87l-1.42 3.43-2.31 5.6 3.73-9.03zm-5.94-1.86a12.26 12.26 0 0 0 1.5-.18 11.85 11.85 0 0 1-1.5.18z"/><path fill="#fff" d="M155.36 105.08h-2.65l3.64 3.65 1.33-1.33-2.32-2.32z"/><path d="M157.68 107.4l1.33-1.33-3.66-3.66a13 13 0 0 1-1.22 1.43 13.23 13.23 0 0 1-1.43 1.22h2.65z" fill="#a3a3a2"/><path fill="#f18831" d="M157.68 107.4l-1.33 1.33-1.14 1.13 9.26 9.26 2.46-2.47-9.25-9.25z"/><path fill="#9f4216" d="M166.93 116.65l2.47-2.46-9.25-9.26-1.14 1.14-1.33 1.33 9.25 9.25z"/><path fill="#a3a3a2" d="M166.928 116.639l2.469-2.468 2.347 2.348-2.469 2.468z"/><path fill="#d5d8d9" d="M164.473 119.125l2.467-2.468 2.348 2.347-2.467 2.468z"/><path d="M138.42 101a9.11 9.11 0 0 1 6.44-15.55v-4a13.11 13.11 0 0 0 0 26.22v-4a9.08 9.08 0 0 1-6.44-2.67z" fill="#12abc3"/><path d="M155.35 102.41a13.1 13.1 0 0 0-10.49-20.94v4a9.11 9.11 0 0 1 0 18.22v4a13.06 13.06 0 0 0 7.83-2.62 13.23 13.23 0 0 0 1.43-1.22 13 13 0 0 0 1.23-1.44z" fill="#118192"/><path d="M138.42 101a9.11 9.11 0 1 0 0-12.88 9.08 9.08 0 0 0 0 12.88zm7.58-5.06a3.9 3.9 0 0 0-1.11-.6l-.41-.14-.48-.2a5.62 5.62 0 0 1-1-.46 3.32 3.32 0 0 1-1.54-2.79 3.19 3.19 0 0 1 .46-1.68 3.37 3.37 0 0 1 1.27-1.22 3.41 3.41 0 0 1 .79-.32v-2h1.88v2a3.22 3.22 0 0 1 .81.32 3.19 3.19 0 0 1 1.24 1.2 3.73 3.73 0 0 1 .51 1.74h-2.26a1.33 1.33 0 0 0-.41-.9 1.29 1.29 0 0 0-.88-.33 1.11 1.11 0 0 0-.85.35 1.24 1.24 0 0 0-.33.89 1.16 1.16 0 0 0 .33.86 2.75 2.75 0 0 0 .88.51l.28.11.51.17a6.14 6.14 0 0 1 1.81.91 3.27 3.27 0 0 1 1.21 2.64 3.75 3.75 0 0 1-1.91 3.3 3.79 3.79 0 0 1-.94.38v2H144v-2a3.72 3.72 0 0 1-2-1.02 3.3 3.3 0 0 1-.76-1.15 3.62 3.62 0 0 1-.27-1.31h2.3a1.49 1.49 0 0 0 1.55 1.5h.08a1.55 1.55 0 0 0 1.13-.43 1.46 1.46 0 0 0 .44-1.09 1.55 1.55 0 0 0-.47-1.24z" fill="#063b5a"/><path d="M144.94 98.69h-.08a1.49 1.49 0 0 1-1.55-1.5H141a3.62 3.62 0 0 0 .27 1.31 3.3 3.3 0 0 0 .76 1.15 3.72 3.72 0 0 0 1.93 1.07v2h1.88v-2a3.82 3.82 0 0 0 2.34-1.76 3.75 3.75 0 0 0 .51-1.92 3.27 3.27 0 0 0-1.25-2.65 6.14 6.14 0 0 0-1.81-.91l-.51-.17-.28-.11a2.75 2.75 0 0 1-.88-.51 1.16 1.16 0 0 1-.33-.86 1.24 1.24 0 0 1 .33-.89 1.11 1.11 0 0 1 .85-.35 1.29 1.29 0 0 1 .88.33 1.33 1.33 0 0 1 .41.9h2.26a3.73 3.73 0 0 0-.51-1.74 3.19 3.19 0 0 0-1.24-1.2 3.22 3.22 0 0 0-.81-.32v-2H144v2a3.41 3.41 0 0 0-.79.32 3.37 3.37 0 0 0-1.27 1.22 3.19 3.19 0 0 0-.46 1.68 3.32 3.32 0 0 0 1.52 2.8 5.62 5.62 0 0 0 1 .46l.47.15.41.14a3.9 3.9 0 0 1 1.11.6 1.55 1.55 0 0 1 .54 1.24 1.46 1.46 0 0 1-.44 1.09 1.55 1.55 0 0 1-1.15.43z" fill="#fff"/><path d="M352.5 99.9h-.8v15.24q1.43-1.61 2.83-3.25V99.35a4.19 4.19 0 0 1-2.03.55zm-3.6 15.39V99.92h-2.85v15.4a1.41 1.41 0 1 1-2.82 0v-15.4h-2.85v15.4a1.41 1.41 0 0 1-2.82 0v-15.4h-2.76v15.4a1.41 1.41 0 1 1-2.82 0v-15.4h-2.85v15.4a1.41 1.41 0 1 1-2.82 0v-15.4h-2.85v15.4a1.41 1.41 0 0 1-1.41 1.41 1.38 1.38 0 0 1-1.1-.57l2.22 3.67h24.16q1.46-1.53 2.88-3.1a1.41 1.41 0 0 1-1.31-1.44zm-28.16 0V99.92H320a4.19 4.19 0 0 1-2-.55V111l2.93 4.84a1.38 1.38 0 0 1-.19-.55z" fill="#012428"/><path d="M320.74 100v15.32a1.38 1.38 0 0 0 .1.5l.2.34a1.38 1.38 0 0 0 1.1.57 1.41 1.41 0 0 0 1.41-1.41v-15.4h-2.78s-.03.03-.03.08zm5.63 0v15.32a1.41 1.41 0 1 0 2.82 0v-15.4h-2.78s-.04.03-.04.08zm5.63 0v15.32a1.41 1.41 0 1 0 2.82 0v-15.4H332v.08zm5.64 0v15.32a1.41 1.41 0 0 0 2.82 0v-15.4h-2.79s-.03.03-.03.08zm5.63 0v15.32a1.41 1.41 0 1 0 2.82 0v-15.4h-2.78s-.04.03-.04.08zm8.43-.1h-2.78v15.4a1.41 1.41 0 0 0 1.4 1.41l1.41-1.57V100s-.03-.08-.03-.1z" fill="#a3a3a2"/><path d="M328.48 91.42l-5.69 5.7a2.256 2.256 0 0 1-3.19-3.19l2.51-2.51H320a4.23 4.23 0 0 0-2 7.93 4.19 4.19 0 0 0 2 .55h16.28v-8.48z" fill="#12abc3"/><path d="M352.5 99.9a4.29 4.29 0 0 0 4.24-4.24 4.24 4.24 0 0 0-4.24-4.24h-2.29l2.51 2.51a2.256 2.256 0 1 1-3.19 3.19l-5.69-5.7h-7.61v8.48h16.27z" fill="#118192"/><path d="M319.6 97.11a2.25 2.25 0 0 0 3.19 0l5.69-5.7 6.52-6.54a2.256 2.256 0 0 0-3.19-3.19l-9.73 9.73-2.51 2.51a2.26 2.26 0 0 0 .03 3.19zm1.56-2.6a1.14 1.14 0 1 1-1.16 1.15 1.15 1.15 0 0 1 1.16-1.15z" fill="#012428"/><circle cx="321.16" cy="95.66" r="1.14" fill="#fff"/><path d="M352.72 97.11a2.26 2.26 0 0 0 0-3.19l-2.51-2.51-9.73-9.73a2.256 2.256 0 1 0-3.19 3.19l6.54 6.54 5.69 5.7a2.25 2.25 0 0 0 3.2 0zm-1.56-2.6a1.14 1.14 0 1 1-1.16 1.15 1.15 1.15 0 0 1 1.16-1.15z" fill="#012428"/><circle cx="351.16" cy="95.66" r="1.15" fill="#fff"/><path fill="#d5d8d9" d="M281.97 104.28v7.66l13.2 21.78 2.89-2.89-1.6-2.64-14.49-23.91zm35.94 6.68l-15.14-24.97-20.8 12.6v4.33l19.34-11.72 4.84 7.99 1.19 1.97 3.02 4.98 3.02 4.99 3.02 4.97 3.02 4.98-2.15 1.31 2.6 2.59 4.78-2.9-1.39-2.28-2.22-3.67-.2-.34-2.93-4.83z"/><path fill="#12abc3" d="M296.46 128.19l4.99-3.02-3.02-4.98-3.02-4.98 4.98-3.02 4.99-3.03 4.98-3.02-4.98 3.02-4.99 3.03-4.98 3.02-3.02-4.99 4.98-3.02-3.02-4.98 4.99-3.02 4.98-3.03 1.83 3.02-4.84-7.99-19.34 11.72v1.36l14.49 23.91z"/><path fill="#d35715" d="M317.27 122.39l2.15-1.31-3.02-4.98-3.37 2.04 4.24 4.25z"/><path fill="#f18831" d="M306.55 122.34l.68-.68-.8.48.12.2z"/><path fill="#f8b959" d="M306.43 122.14l-4.98 3.03.86 1.41 3.62-3.62.62-.62-.12-.2z"/><path fill="#d35715" d="M296.46 128.19l1.6 2.64 4.25-4.25-.86-1.41-4.99 3.02z"/><path d="M310.79 118.1l.35-.35a1.05 1.05 0 0 1 1.49 0l.4.4 3.37-2-3-5-5 3z" fill="#f18831"/><path fill="#f8b959" d="M303.42 117.17l3.01 4.97.8-.48 3.56-3.56-2.39-3.95-4.98 3.02z"/><path fill="#fff" d="M300.072 120.263l5.014-3.031 3.027 5.005-5.014 3.031z"/><path fill="#f8b959" d="M305.378 109.14l4.986-3.022 3.022 4.986-4.986 3.022z"/><path fill="#f8b881" d="M300.385 112.164l4.985-3.022 3.023 4.985-4.985 3.022z"/><path fill="#fcd4b2" d="M297.03 115.252l5.014-3.031 3.032 5.013-5.014 3.032z"/><path fill="#f8b881" d="M303.997 104.171l5.014-3.032 3.031 5.014-5.013 3.032z"/><path fill="#f18831" d="M297.37 107.202l4.986-3.023 3.023 4.985-4.985 3.023z"/><path fill="#fff" d="M292.388 110.196l4.985-3.023 3.023 4.986-4.985 3.022zM299.34 99.2l3.02 4.98 4.98-3.02-1.19-1.97-1.83-3.02-4.98 3.03z"/><path fill="#fcd4b2" d="M295.944 102.202l5.014-3.032 3.031 5.014-5.013 3.032z"/><path fill="#d5d8d9" d="M281.97 102.92V92.59h-47.34v35.21l2.29-.4 3.64-.64 1.71-3.23h-3.82V97.07h39.29v26.46h-16.03l1.71 3.23 7.09 1.25h11.46v-25.09z"/><path d="M252 123.05l7.51-3.67 2.2 4.15h16V97.07h-39.26v26.46h3.83l2.2-4.15zm19.52-10.92h1v8.27h-8.27v-1h7.28zm-1.73-7.58v11.54a1.6 1.6 0 0 1-1.6 1.6H248a1.6 1.6 0 0 1-1.6-1.6v-11.54a1.6 1.6 0 0 1 1.6-1.6h20.16a1.6 1.6 0 0 1 1.63 1.6zm-26.1-3.36v-1H252v1h-7.28v7.28h-1z" fill="#fff"/><path d="M246.42 104.55v11.54a1.6 1.6 0 0 0 1.6 1.6h20.16a1.6 1.6 0 0 0 1.6-1.6v-11.54a1.6 1.6 0 0 0-1.6-1.6H248a1.6 1.6 0 0 0-1.58 1.6zm11.68 1.1a4.68 4.68 0 0 1 4.68 4.68v.24a4.67 4.67 0 0 1-4.48 4.43h-.19a4.68 4.68 0 1 1 0-9.35z" fill="#12abc3"/><path d="M258.1 115h.19a4.67 4.67 0 0 0 4.47-4.42v-.24a4.68 4.68 0 1 0-4.66 4.66zm0-7.33a2.66 2.66 0 1 1-2.66 2.66 2.66 2.66 0 0 1 2.66-2.66z" fill="#fff"/><circle cx="258.1" cy="110.32" r="2.66" fill="#012428"/><path fill="#f18831" d="M244.68 101.19h7.27v-.99h-8.27v8.27h1v-7.28zm19.56 19.21h8.27v-8.27h-1v7.28h-7.27v.99z"/><path d="M229.66 70.55L216 84.25l10.21 10.25 13.7-13.7zM226 92.1l-7.66-7.66 11.37-11.37 7.66 7.66z" fill="#d5d8d9"/><path d="M229.73 73.07l-11.37 11.37L226 92.1l11.37-11.37zm-6.56 13.15l-2.11-2.11-.29-.29.29-.29 2.11-2.11.29.29-2.11 2.11 2.11 2.11zm3 1.41l-3.34-3.34a.65.65 0 0 1 0-.93l5.83-5.84a.66.66 0 0 1 .93 0l3.34 3.34a.66.66 0 0 1 0 .93l-5.83 5.83a.66.66 0 0 1-.93.02zm6.4-3.91l-.29-.29 2.11-2.11-2.11-2.11.29-.29 2.11 2.11.29.29-.29.29z" fill="#012428"/><path d="M232.93 80.88l-3.34-3.34a.66.66 0 0 0-.93 0l-5.83 5.84a.65.65 0 0 0 0 .93l3.34 3.34a.66.66 0 0 0 .93 0l5.83-5.83a.66.66 0 0 0 0-.94zm-3.64 3l-.05.06a1.91 1.91 0 1 1 0-2.71l.07.07a1.91 1.91 0 0 1-.02 2.58z" fill="#d35715"/><path d="M229.24 81.24a1.91 1.91 0 1 0 0 2.71l.05-.06a1.91 1.91 0 0 0 0-2.57zm-.59 2.12a1.09 1.09 0 1 1 0-1.54 1.09 1.09 0 0 1 0 1.54z" fill="#fff"/><circle cx="227.88" cy="82.59" r="1.09" transform="rotate(-45 227.9 82.59)" fill="#012428"/><path fill="#12abc3" d="M223.46 81.73l-.29-.29-2.1 2.11-.29.28.29.29 2.1 2.11.29-.29-2.11-2.11 2.11-2.1zm11.22-.68l-2.11-2.11-.28.29 2.1 2.11-2.1 2.1.28.29 2.11-2.1.29-.29-.29-.29z"/><path d="M28.49 62.35H23.7v15q2.3 4.23 4.8 8.33zM97 109.84H45.71q2 2.43 4.12 4.8h48.5a20.25 20.25 0 0 1-1.33-4.8z" fill="#063b5a"/><path d="M39.1 90.14l-5.84 3q2.82 4.21 5.84 8.26z" fill="#04242a"/><path d="M48.51 106.91V85.25l-7.43 3.86v14.94q1.11 1.44 2.24 2.86z" fill="#09373f"/><path fill="#0b4853" d="M50.49 84.22v22.69h7.43V84.39l-3.26-2.34-4.17 2.17z"/><path fill="#10606e" d="M64.58 89.16l-4.68-3.35v21.1h7.43V89.25L66 90.28l-1.42-1.12z"/><path fill="#118192" d="M69.17 87.97v18.94h7.43V84.72l-1.36-.95-6.07 4.2z"/><path fill="#12abc3" d="M81.9 88.33l-1.32-.81-2-1.41v20.8h7.43V85.59l-2.73 1.9-1.38.84z"/><path d="M92.82 101.78v-1a17.52 17.52 0 0 1 2.57-8.24V79.07L88 84.22v22.69h5.16a4.06 4.06 0 0 1-.33-1.6z" fill="#74c8d7"/><path d="M104.83 85.09V72.54l-7.43 5.15V90a17.63 17.63 0 0 1 7.43-4.91z" fill="#a2d7e2"/><path fill="#f18831" d="M105.17 63.63L81.01 80.39l-5.83-4.1-.8-.57-.85.57-8.41 5.82L54.8 74.7l-.67-.5-.83.39-21.63 11.24v3.25l22.17-11.52 10.43 7.47.83.66.83-.64 8.41-5.82 5.84 4.09.83.51.82-.5L106.81 66l1.49 2.16 3.38-7.13-7.86.64 1.35 1.96z"/><path d="M313.88 77.74l-1.41 1.1 1.06 1.83 1.66-.68a6.46 6.46 0 0 0 1.45 1.21l-.38 1.8 2 .72.83-1.59a6.31 6.31 0 0 0 1.89 0l.84 1.59 2-.72-.38-1.76a6.39 6.39 0 0 0 1.41-1.24l1.66.68 1.05-1.83-1.41-1.1a6.67 6.67 0 0 0 .33-1.86l1.71-.55-.36-2.08-1.79.07a6.45 6.45 0 0 0-.95-1.64l1-1.52-1.62-1.35-1.38 1.18a6.34 6.34 0 0 0-1.78-.65l-.24-1.77H319l-.24 1.77a6.39 6.39 0 0 0-1.78.65l-1.33-1.2-1.65 1.36 1 1.52a6.48 6.48 0 0 0-.95 1.64l-1.79-.07-.36 2.08 1.71.55a6.49 6.49 0 0 0 .27 1.86z" fill="#12abc3"/><path d="M244.94 176.17l-.51-2.87-2.48.1a8.87 8.87 0 0 0-1.31-2.27L242 169l-2.24-1.87-1.84 1.66a8.76 8.76 0 0 0-2.46-.9l-.34-2.46h-2.92l-.33 2.46a8.78 8.78 0 0 0-2.46.9l-1.84-1.66-2.28 1.87 1.33 2.11a9 9 0 0 0-1.31 2.27l-2.48-.1-.51 2.87 2.37.76a9 9 0 0 0 .45 2.58l-2 1.52.28.48q9.6-1.06 18.92-3a9.46 9.46 0 0 0 .2-1.58zM330.5 69.42l-.61.47.46.79.72-.29a2.82 2.82 0 0 0 .62.52l-.16.76.86.31.36-.68a2.69 2.69 0 0 0 .82 0l.36.68.86-.31-.16-.76a2.78 2.78 0 0 0 .62-.52l.72.29.46-.79-.61-.47a2.89 2.89 0 0 0 .14-.81l.74-.24-.16-.9h-.78a2.73 2.73 0 0 0-.41-.71l.41-.66-.7-.58-.57.52a2.77 2.77 0 0 0-.77-.28l-.1-.77h-.91l-.1.77a2.77 2.77 0 0 0-.77.28l-.57-.52-.7.58.42.66a2.74 2.74 0 0 0-.41.71h-.78l-.16.9.74.24a2.78 2.78 0 0 0 .12.81zM161.82 99.85l-.61.47.46.79.72-.29a2.79 2.79 0 0 0 .62.52l-.16.76.86.31.36-.68a2.78 2.78 0 0 0 .82 0l.36.68.86-.31-.16-.76a2.75 2.75 0 0 0 .62-.52l.72.29.46-.79-.61-.47a2.91 2.91 0 0 0 .14-.81l.74-.24-.16-.9h-.77a2.73 2.73 0 0 0-.41-.71l.41-.66-.7-.58-.57.52a2.7 2.7 0 0 0-.77-.28l-.1-.77H164l-.1.77a2.72 2.72 0 0 0-.77.28l-.57-.52-.7.58.42.66a2.75 2.75 0 0 0-.41.71h-.77l-.16.9.74.24a2.83 2.83 0 0 0 .14.81z" fill="#f18831"/><path d="M88.56 122l-.61.47.46.79.72-.29a2.81 2.81 0 0 0 .62.52l-.16.76.86.31.36-.68a2.7 2.7 0 0 0 .82 0l.36.68.86-.31-.16-.76a2.79 2.79 0 0 0 .62-.52l.72.29.46-.79-.61-.47a2.87 2.87 0 0 0 .14-.81l.74-.24-.16-.9h-.77a2.7 2.7 0 0 0-.41-.71l.41-.66-.7-.58-.57.52a2.76 2.76 0 0 0-.77-.28l-.1-.77h-.91l-.1.77a2.8 2.8 0 0 0-.77.28l-.57-.52-.7.58.42.66a2.7 2.7 0 0 0-.41.71h-.78l-.16.9.74.24a2.8 2.8 0 0 0 .11.81z" fill="#063b5a"/><path d="M347.25 77.06l-.38.3.28.49.45-.18a1.71 1.71 0 0 0 .4.33l-.1.47.53.19.23-.43h.5l.22.43.53-.19-.1-.47a1.71 1.71 0 0 0 .39-.33l.45.18.28-.49-.38-.3a1.8 1.8 0 0 0 .09-.5l.46-.15-.1-.56h-.48a1.71 1.71 0 0 0-.25-.44l.26-.41-.44-.36-.36.32a1.72 1.72 0 0 0-.48-.17l-.06-.48h-.57l-.06.48a1.74 1.74 0 0 0-.48.17l-.36-.32-.44.36.26.41a1.69 1.69 0 0 0-.26.44h-.48l-.1.56.46.15a1.74 1.74 0 0 0 .09.5z" fill="#fff"/><path d="M305.93 149.52V123l-3.62 3.62-4.24 4.24-2.89 2.89L281 147.92a1.05 1.05 0 0 0 0 1.49l11.47 11.47q2.25-1.15 4.47-2.35zm-9.72-4.92l3.17 3.17-7.2 7.23-3.18-3.21z" fill="#12abc3"/><path d="M312.84 148.94a202.32 202.32 0 0 0 17.71-13.27l-2.22-2.22zm.16-30.8l-.4-.4a1.05 1.05 0 0 0-1.49 0l-.35.35-3.56 3.56-.68.68-.62.62v26.56l19.24-19.24-5.3-5.3-2.59-2.59zm5 16.23a5.92 5.92 0 1 1 0-8.37 5.91 5.91 0 0 1 0 8.37z" fill="#118192"/><path d="M316.8 130.4a7.25 7.25 0 0 0-1.09-1.68l-1.46 1.46 1.38 1.38zm-6.27-.27a7.31 7.31 0 0 0 1.16 1.69l1.64-1.64-1.42-1.42zm2.25 5.22a5.29 5.29 0 0 0 3.52-.54 8 8 0 0 1-2.37-.61zm-2.78-4.73l-1.24 1.24a5.22 5.22 0 0 0 1 1.8l1.38-1.38a8.08 8.08 0 0 1-1.14-1.66zm4.43 3.08a7.26 7.26 0 0 0 2.77.49l.08-.06-1.64-1.64zm-2.74-.96l-1.38 1.38a5.23 5.23 0 0 0 1.74 1l1.26-1.26a7.9 7.9 0 0 1-1.62-1.12zm4.41-.74l1.4 1.4a7.36 7.36 0 0 0-.42-2.37zm1.19-2.09l1.46-1.47a5.22 5.22 0 0 0-1-1.74l-1.56 1.56a8 8 0 0 1 1.1 1.65zm.85 3.23a5.28 5.28 0 0 0 .81-4l-1.37 1.37a8 8 0 0 1 .56 2.63zm-2.96-1.14l-1.38-1.38-1.64 1.64a7.26 7.26 0 0 0 1.63 1.13z" fill="#fff"/><path d="M309.61 134.37a5.91 5.91 0 0 0 8.37 0 5.92 5.92 0 0 1-8.37 0zm8.39 0a5.91 5.91 0 0 0 0-8.37 5.92 5.92 0 0 1 0 8.37zm-2.27-6.58l1.55-1.55a5.19 5.19 0 0 0-1.8-1l-1.37 1.37a8 8 0 0 1 1.62 1.18zm-3.36.51l1.42 1.42 1.47-1.47a7.38 7.38 0 0 0-1.65-1.2zm-2.76-2.3a5.92 5.92 0 0 0 0 8.37 5.92 5.92 0 0 1 0-8.37zm3.88.25l1.25-1.25a5.3 5.3 0 0 0-3.54.6 7.94 7.94 0 0 1 2.29.65z" fill="#fff"/><path d="M309.16 127.68a5.29 5.29 0 0 0-.54 3.44l1.13-1.13a7.88 7.88 0 0 1-.59-2.31zm2.28.62l-1.6-1.6-.07.08a7.35 7.35 0 0 0 .47 2.71zm1.56-1.55a7.34 7.34 0 0 0-2.64-.55l1.6 1.6zm-3.39-.75a5.92 5.92 0 0 1 8.37 0 5.92 5.92 0 0 0-8.37 0z" fill="#fff"/><path d="M309.61 126a5.92 5.92 0 1 0 8.37 0 5.92 5.92 0 0 0-8.37 0zm.75.2a7.34 7.34 0 0 1 2.64.55l-1.08 1.08-1.6-1.6zm3.44 4.44l1.38 1.38-1.39 1.39a7.26 7.26 0 0 1-1.63-1.13zm-2.1 1.17a7.31 7.31 0 0 1-1.16-1.69l1.37-1.37 1.42 1.42zm2.56-1.64l1.46-1.46a7.25 7.25 0 0 1 1.09 1.68l-1.17 1.17zm-.46-.46l-1.42-1.42 1.25-1.25a7.38 7.38 0 0 1 1.65 1.2zm-3.94-3l1.6 1.6-1.19 1.19a7.35 7.35 0 0 1-.47-2.71zm-.69 1a7.88 7.88 0 0 0 .59 2.31l-1.13 1.13a5.29 5.29 0 0 1 .53-3.47zm-.35 4.18l1.24-1.24a8.08 8.08 0 0 0 1.18 1.66l-1.38 1.38a5.22 5.22 0 0 1-1.05-1.83zm1.5 2.27l1.38-1.38a7.9 7.9 0 0 0 1.62 1.15l-1.26 1.26a5.23 5.23 0 0 1-1.75-1.06zm2.47 1.22l1.15-1.15a8 8 0 0 0 2.37.61 5.29 5.29 0 0 1-3.53.51zm4.42-1.15a7.26 7.26 0 0 1-2.77-.49l1.21-1.21 1.64 1.64zM316.1 132l1-1a7.36 7.36 0 0 1 .42 2.37zm2 1.11a8 8 0 0 0-.56-2.6l1.37-1.37a5.28 5.28 0 0 1-.77 4zm.61-4.7l-1.46 1.47a8 8 0 0 0-1.11-1.65l1.56-1.56a5.22 5.22 0 0 1 1.06 1.77zm-1.49-2.21l-1.55 1.55a8 8 0 0 0-1.63-1.22l1.37-1.37a5.19 5.19 0 0 1 1.86 1.08zm-2.49-1.2l-1.25 1.25a7.94 7.94 0 0 0-2.29-.65 5.3 5.3 0 0 1 3.54-.6z" fill="#12abc3"/><path d="M305.93 149.52l-9 9q4.58-2.48 9-5.19v-3.83z" fill="#063b5a"/><path d="M305.93 153.35q3.51-2.14 6.91-4.41l15.49-15.49-3.17-3.17-19.24 19.24z" fill="#012428"/><path fill="#d35715" d="M289.013 151.787l7.189-7.194 3.169 3.167-7.189 7.194z"/><path d="M170.15 166.73l-.5-1.56a.72.72 0 0 1-.49-.07l-3.3-1.7.27.85-27.32 8.75q6.05 2 12.27 3.53l16.79-5.36a3.52 3.52 0 0 0 2.28-4.44zm-18.23 7.5a1.62 1.62 0 1 1 1-2 1.62 1.62 0 0 1-1 2zm-24.5-22.17h-3.22l5.69 17.8q1.81.68 3.64 1.33zm8.07-18.87l18.81-6 6.83 21.39 3.17-.15-8.17-25.58a3.53 3.53 0 0 0-4.43-2.29l-20.78 6.64a8 8 0 0 1 4.57 5.99zm3.75-5.55l.38 1.2-4.09 1.31-.38-1.2z" fill="#12abc3"/><circle cx="151.42" cy="172.69" r="1.62" transform="rotate(-17.71 151.463 172.71)" fill="#012428"/><path fill="#012428" d="M135.152 128.942l4.086-1.305.383 1.2-4.086 1.306z"/><path d="M154.77 142.65l-15.47 4.94 2.87 1.78 13.38-4.28.78 2.45-4.64 1.46 9.44-.45-6.83-21.39-18.81 6c.1.43.19.88.26 1.36l.75 3.78 15.33-4.9zm-3.95 12.09l2.23 1.39-1.12-1.74-1.11.35zm11.04 6.86l4.28 2.66-.27-.85-3.9-2.01-.11.2zm-13.91-8.6l2.64-.84a.78.78 0 0 1 .07-.37.71.71 0 0 1 .59-.42h.2l-.74-1.15a.71.71 0 0 1 0-.69.8.8 0 0 1 .14-.17l-5.8 1.85z" fill="#fff"/><path d="M150.68 152.44a.63.63 0 0 1-.09-.32l-2.64.84 2.87 1.78 1.11-.36zm4.87-7.34l-13.38 4.28 2.87 1.78 5.8-1.85a.65.65 0 0 1 .46-.25h.4l4.64-1.48z" fill="#012428"/><path d="M138.22 143.55a1.65 1.65 0 0 1 .35.64 1.78 1.78 0 0 1 .08.95 1.56 1.56 0 0 1-.37.72 2.49 2.49 0 0 1-.22.2v.76l1.25.78 15.47-4.94-2.94-9.21-15.33 4.9.49 2.65a1.67 1.67 0 0 1 .26.5 1.55 1.55 0 0 1 .08.52 1.37 1.37 0 0 1-.07.36l.15.76a1.34 1.34 0 0 1 .3.08 1.49 1.49 0 0 1 .5.33zm5.63-5.83a4.1 4.1 0 0 1 .65-.15l2 2.33.3-3.07a4 4 0 0 1 .61-.25 4.4 4.4 0 0 1 .65-.15l-.63 4.42.68 2.14-.3.14-.3.1-.3.09-.32.07-.68-2.14-3.04-3.25a4.87 4.87 0 0 1 .68-.28zm-5.48 1.77l.3-.11.29-.09.32-.06 1 3.09a9 9 0 0 0 .31.85 1.94 1.94 0 0 0 .34.55.8.8 0 0 0 .43.25 1.17 1.17 0 0 0 .56-.06 1.15 1.15 0 0 0 .49-.28.81.81 0 0 0 .2-.45 1.94 1.94 0 0 0 0-.65 8.85 8.85 0 0 0-.24-.88l-1-3.09.3-.14.29-.1.31-.09.32-.06 1.07 3.35a6 6 0 0 1 .25 1.14 2.3 2.3 0 0 1-.08 1 1.78 1.78 0 0 1-.51.77 3.32 3.32 0 0 1-2.19.7 1.79 1.79 0 0 1-.86-.33 2.26 2.26 0 0 1-.63-.75 6 6 0 0 1-.45-1.07l-1.07-3.35z" fill="#f18831"/><path d="M137.27 141.48a1.67 1.67 0 0 0-.26-.5l.27 1.38a1.37 1.37 0 0 0 .07-.36 1.55 1.55 0 0 0-.08-.52zm1 4.37a1.56 1.56 0 0 0 .37-.72 1.78 1.78 0 0 0-.08-.95 1.65 1.65 0 0 0-.35-.64 1.49 1.49 0 0 0-.48-.35 1.34 1.34 0 0 0-.3-.08l.24 1.22a5.61 5.61 0 0 1 .37 1.71 2.49 2.49 0 0 0 .23-.19zm1.32-1.85a2.26 2.26 0 0 0 .63.75 1.79 1.79 0 0 0 .86.33 3.32 3.32 0 0 0 2.19-.7 1.78 1.78 0 0 0 .51-.77 2.3 2.3 0 0 0 .08-1 6 6 0 0 0-.25-1.14l-1.07-3.35-.32.06-.31.09-.29.1-.3.14 1 3.09a8.85 8.85 0 0 1 .24.88 1.94 1.94 0 0 1 0 .65.81.81 0 0 1-.2.45 1.15 1.15 0 0 1-.49.28 1.17 1.17 0 0 1-.56.06.8.8 0 0 1-.43-.25 1.94 1.94 0 0 1-.34-.55 9 9 0 0 1-.31-.85l-1-3.09-.32.06-.29.09-.3.11-.3.13 1.07 3.35a6 6 0 0 0 .5 1.08zm7.34-.63l.32-.07.3-.09.3-.1.3-.14-.68-2.14.63-4.42a4.4 4.4 0 0 0-.65.15 4 4 0 0 0-.61.25l-.3 3.07-2-2.33a4.1 4.1 0 0 0-.65.15 4.87 4.87 0 0 0-.68.27l3.08 3.24zm14.29 19.48l.08.26-.26.08-1 1.87a.72.72 0 0 1-1.25.06l-.65-1-6.05 1.88-2.61-8.18 3.89-1.24-.32-.5-2.23-1.38-16.4 5.3-.78-2.45 14.31-4.55-2.95-1.85-12.16 3.85-.78-2.45 10.11-3.23-2.87-1.78-1.48.47a5.6 5.6 0 0 1-5.35 4h-5l6.11 19.14c1.75.62 3.5 1.22 5.28 1.8l27.34-8.73-4.28-2.66zm-23.4 7.76l-2.61-8.18 9.21-2.94 2.61 8.18z" fill="#fff"/><path d="M161.22 162.85l.08.26-.26.08-1 1.87a.72.72 0 0 1-1.25.06l-.65-1-6.05 1.88-2.61-8.18 3.89-1.24-.32-.5-2.23-1.38-16.4 5.3-.78-2.45 14.31-4.55-2.95-1.85-12.16 3.85-.78-2.45 10.11-3.23-2.87-1.78-1.48.47a5.6 5.6 0 0 1-5.35 4h-5l6.11 19.14c1.75.62 3.5 1.22 5.28 1.8l27.34-8.73-4.28-2.66zm-23.4 7.76l-2.61-8.18 9.21-2.94 2.61 8.18z" style="mix-blend-mode:multiply" fill="#d5d8d9"/><path fill="#012428" d="M133.64 157.53l.78 2.45 16.4-5.24-2.87-1.78-14.31 4.57z"/><path style="mix-blend-mode:multiply" fill="#d5d8d9" d="M133.64 157.53l.78 2.45 16.4-5.24-2.87-1.78-14.31 4.57z"/><path fill="#012428" d="M132.06 152.6l.78 2.45 12.2-3.9-2.87-1.78-10.11 3.23z"/><path style="mix-blend-mode:multiply" fill="#d5d8d9" d="M132.06 152.6l.78 2.45 12.2-3.9-2.87-1.78-10.11 3.23z"/><path d="M137.82 148.06l1.48-.47-1.25-.78a5.53 5.53 0 0 1-.23 1.25z" fill="#f18831"/><path d="M137.82 148.06l1.48-.47-1.25-.78a5.53 5.53 0 0 1-.23 1.25z" style="mix-blend-mode:multiply" fill="#d5d8d9"/><path fill="#a3a3a2" d="M134.161 162.599l9.186-2.901 2.577 8.16-9.186 2.901z"/><path style="mix-blend-mode:multiply" fill="#d5d8d9" d="M134.161 162.599l9.186-2.901 2.577 8.16-9.186 2.901z"/><path fill="#a3a3a2" d="M149.48 157.87l2.61 8.18 6.09-1.94-4.81-7.49-3.89 1.25z"/><path style="mix-blend-mode:multiply" fill="#d5d8d9" d="M149.48 157.87l2.61 8.18 6.09-1.94-4.81-7.49-3.89 1.25z"/><path fill="#a3a3a2" d="M161.3 163.11l-.08-.26-.18.34.26-.08z"/><path style="mix-blend-mode:multiply" fill="#d5d8d9" d="M161.3 163.11l-.08-.26-.18.34.26-.08z"/><path fill="#9f4216" d="M169.65 165.17l-.81-2.53.81 2.53z"/><path style="mix-blend-mode:multiply" fill="#a3a3a2" d="M169.65 165.17l-.81-2.53.81 2.53z"/><path fill="#9f4216" d="M165.91 153.45l-.38-1.17.38 1.17z"/><path style="mix-blend-mode:multiply" fill="#a3a3a2" d="M165.91 153.45l-.38-1.17.38 1.17z"/><path fill="#12abc3" d="M165.91 153.45l-.38-1.17-.39.77.77.4z"/><path style="mix-blend-mode:multiply" fill="#a3a3a2" d="M165.91 153.45l-.38-1.17-.39.77.77.4z"/><path d="M165 160.65l.88 2.75 3.3 1.7a.72.72 0 0 0 .49.07l-.81-2.53z" fill="#12abc3"/><path d="M165 160.65l.88 2.75 3.3 1.7a.72.72 0 0 0 .49.07l-.81-2.53z" style="mix-blend-mode:multiply" fill="#a3a3a2"/><path d="M150.66 151.74a.78.78 0 0 0-.07.37l1.15-.37-.28-.44h-.2a.71.71 0 0 0-.6.44z" fill="#fff"/><path d="M150.66 151.74a.78.78 0 0 0-.07.37l1.15-.37-.28-.44h-.2a.71.71 0 0 0-.6.44z" style="mix-blend-mode:multiply" fill="#a3a3a2"/><path fill="#fff" d="M162.01 159.12l-1.01 1.95.86.53.11-.2 3.9 2.01-.88-2.76-2.98-1.53z"/><path style="mix-blend-mode:multiply" fill="#a3a3a2" d="M162.01 159.12l-1.01 1.95.86.53.11-.2 3.9 2.01-.88-2.76-2.98-1.53z"/><path fill="#fff" d="M153.05 156.13l.63.39.93-.29-1.43-2.24-1.25.4 1.12 1.74z"/><path style="mix-blend-mode:multiply" fill="#a3a3a2" d="M153.05 156.13l.63.39.93-.29-1.43-2.24-1.25.4 1.12 1.74z"/><path d="M150.68 152.44l1.25 1.95 1.25-.4-1.44-2.24-1.15.37a.63.63 0 0 0 .09.32z" fill="#012428"/><path d="M150.68 152.44l1.25 1.95 1.25-.4-1.44-2.24-1.15.37a.63.63 0 0 0 .09.32z" style="mix-blend-mode:multiply" fill="#a3a3a2"/><path fill="#a3a3a2" d="M155.54 157.68l-.93-1.45-.93.29 1.86 1.16z"/><path style="mix-blend-mode:multiply" fill="#a3a3a2" d="M155.54 157.68l-.93-1.45-.93.29 1.86 1.16z"/><path fill="#fff" d="M153.05 156.13l.32.49.31-.1-.63-.39z"/><path style="mix-blend-mode:multiply" fill="#d5d8d9" d="M153.05 156.13l.32.49.31-.1-.63-.39z"/><path style="mix-blend-mode:multiply" fill="#a3a3a2" d="M153.05 156.13l.32.49.31-.1-.63-.39z"/><path d="M158.83 165.12a.72.72 0 0 0 1.25-.06l1-1.87-2.87.92z" fill="#fff"/><path d="M158.83 165.12a.72.72 0 0 0 1.25-.06l1-1.87-2.87.92z" style="mix-blend-mode:multiply" fill="#d5d8d9"/><path d="M158.83 165.12a.72.72 0 0 0 1.25-.06l1-1.87-2.87.92z" style="mix-blend-mode:multiply" fill="#a3a3a2"/><path fill="#fff" d="M161.86 161.6l-.86-.53-.21.42.43 1.36.64-1.25z"/><path style="mix-blend-mode:multiply" fill="#d5d8d9" d="M161.86 161.6l-.86-.53-.21.42.43 1.36.64-1.25z"/><path style="mix-blend-mode:multiply" fill="#a3a3a2" d="M161.86 161.6l-.86-.53-.21.42.43 1.36.64-1.25z"/><path d="M153.37 156.62l4.81 7.48 2.87-.92.18-.34-.44-1.36-.67 1.3a.73.73 0 0 1-1.26.06l-3.32-5.17-1.86-1.15z" fill="#a3a3a2"/><path d="M153.37 156.62l4.81 7.48 2.87-.92.18-.34-.44-1.36-.67 1.3a.73.73 0 0 1-1.26.06l-3.32-5.17-1.86-1.15z" style="mix-blend-mode:multiply" fill="#d5d8d9"/><path d="M153.37 156.62l4.81 7.48 2.87-.92.18-.34-.44-1.36-.67 1.3a.73.73 0 0 1-1.26.06l-3.32-5.17-1.86-1.15z" style="mix-blend-mode:multiply" fill="#a3a3a2"/><path d="M150.72 150.16l.74 1.15.28.44 1.44 2.24 1.44 2.24.93 1.45 3.32 5.17a.73.73 0 0 0 1.26-.06l.67-1.3.22-.42 1-1.95 3 1.54 3.85 2 .36.18a.73.73 0 0 0 1-.31l1.22-2.37-20.75-10.69a.71.71 0 0 0 .02.69z" fill="#d35715"/><path d="M151.69 149h-.4a.65.65 0 0 0-.46.25.8.8 0 0 0-.14.17l20.71 10.68 1.24-2.4a.73.73 0 0 0-.31-1l-6.42-3.31-.77-.4.4-.77 1.49-2.9a.73.73 0 0 0-.68-1.06l-2 .1-3.17.15zm110.02-25.47l-2.2-4.15-7.51 3.67-7.51-3.67-2.2 4.15-1.71 3.23-3.63.64 3.5 3.5a16.37 16.37 0 0 1 23.15 23.15l3.53 3.53 4.55-.8-1.17-8.28 5.82-6-5.82-6 1.17-8.28-1.15-.2-7.09-1.24z" fill="#f18831"/><path d="M252 158.87a16.37 16.37 0 0 1-11.56-28l-3.5-3.5-2.29.4-2.31.41 1.17 8.28-5.81 6 5.81 6-1.17 8.28 8.24 1.44 3.92 7.39 7.51-3.67 7.51 3.67 3.92-7.39 3.69-.65-3.53-3.53a16.32 16.32 0 0 1-11.6 4.87z" fill="#9f4216"/><path fill="#fff" d="M113.4 138.98l2.31-5.6-2.24-2.23-1.73 1.73 1.66 6.1z"/><path d="M109.16 132.88l-1.73-1.73 3-3-5.31 5.31 2.09 5.25a.57.57 0 0 1 .19.42v.09z" fill="#d5d8d9"/><path d="M105 126.77l.17.09a11.88 11.88 0 0 0 1.22.53l.21.07a11.7 11.7 0 0 0 1.31.38h.14a11.65 11.65 0 0 0 1.42.21l-2-2-3.72-3.72v3.72h.06a12 12 0 0 0 1.19.72z" fill="#fac9b4"/><path d="M110.33 125a10.32 10.32 0 0 1-6.58-2.66l3.72 3.72 2 2h1.73a11.85 11.85 0 0 0 1.5-.18 11.42 11.42 0 0 0 1.5-.4h.08a11.65 11.65 0 0 0 1.39-.58h.07a11.65 11.65 0 0 0 1.31-.77v-3.88a10.39 10.39 0 0 1-6.65 2.8z" fill="#f7b59e"/><path d="M123.81 104.77s-2-2.26-6.39-2.26c-2.14 0-4.14 1.84-5 2.8-.32.34-.5.57-.5.57v8.7a1.53 1.53 0 0 1-1.42 1.59V125a10.39 10.39 0 0 0 6.65-2.8 21 21 0 0 0 6.6-12.8 15.36 15.36 0 0 0 .1-1.69zm-5.81 4.62a1.28 1.28 0 1 0-2.55 0h-1a2.305 2.305 0 0 1 4.61 0z" fill="#f7b59e"/><path d="M103.75 122.34a10.32 10.32 0 0 0 6.58 2.66h.12v-8.82a1.53 1.53 0 0 0 1.42-1.59v-8.7s.18-.23.5-.57c.9-1 2.9-2.8 5-2.8 4.42 0 6.39 2.26 6.39 2.26V103a13.4 13.4 0 0 0-2.76-8.2c-.65.45-1.32.87-2 1.28l-.33.21c-.54.32-1.1.6-1.65.9-.27.14-.52.29-.79.43s-.71.31-1.06.47-1 .46-1.49.67l-.21.08a37.22 37.22 0 0 1-10.86 2.52q-1.46.11-2.95.11c-.92 0-1.82 0-2.72-.11a13.39 13.39 0 0 0-.11 1.63v4.71a15.38 15.38 0 0 0 .1 1.69c0 .15 0 .3.07.45a20.25 20.25 0 0 0 1.31 4.8 20 20 0 0 0 5.44 7.7zm.43-15.25a2.31 2.31 0 0 1 2.3 2.3h-1a1.28 1.28 0 0 0-2.55 0h-1a2.31 2.31 0 0 1 2.26-2.3z" fill="#fac9b4"/><path d="M96.85 103a13.39 13.39 0 0 1 .11-1.63c.9.07 1.81.11 2.72.11s2 0 2.95-.11a37.22 37.22 0 0 0 10.86-2.52l.21-.08c.51-.21 1-.44 1.49-.67s.71-.3 1.06-.47.52-.29.79-.43c.56-.29 1.11-.58 1.65-.9l.33-.21c.68-.41 1.35-.83 2-1.28a13.4 13.4 0 0 1 2.79 8.19v4.71a15.36 15.36 0 0 1-.1 1.69h.29a4.08 4.08 0 0 0 4.05-4.08v-3.53a17.63 17.63 0 0 0-35.24-1v4.53a4.08 4.08 0 0 0 4.06 4.08H97a15.38 15.38 0 0 1-.1-1.69z" fill="#012428"/><path d="M105.14 133.43l5.31-5.31h-1a11.65 11.65 0 0 1-1.42-.21h-.14a11.7 11.7 0 0 1-1.31-.38l-.21-.07a11.88 11.88 0 0 1-1.22-.53l-.17-.09a12 12 0 0 1-1.17-.7h-.06V130z" fill="#fff"/><path d="M117.08 126.08a11.82 11.82 0 0 1-1.31.77h-.07a11.65 11.65 0 0 1-1.39.58h-.08a11.42 11.42 0 0 1-1.5.4 12.26 12.26 0 0 1-1.5.18h-.73l3 3 2.24 2.24 1.42-3.43v-3.88zm-5.89 2.01h-.73.62z" fill="#d5d8d9"/><path d="M113.4 139l-1.66-6.1-1.29 1.29-1.29-1.29-1.72 6.32v3.33a4.11 4.11 0 0 1 1.26-.22h2.8v-1.49h21a5.61 5.61 0 0 1 5.21 3.53l-.24-1.22-.15-.76L137 141l-.52-2.64-.75-3.78c-.07-.48-.16-.93-.26-1.36a8 8 0 0 0-4.58-6 16 16 0 0 0-6.59-1.13h-7.2v3.88zm-9.65-9l-5.47 5.47 3.11 3.11h5.46a.57.57 0 0 1 .38.15l-2.09-5.25zm0-3.93h-3.88l3.88 3.88v-3.88z" fill="#118192"/><path d="M103.75 130l-3.88-3.88h-3.33a11.76 11.76 0 0 0-11.76 11.76v.7h16.61l-3.11-3.11zm5.41 2.88l1.29 1.29 1.29-1.29 1.73-1.73-3.02-3.03-3.02 3.03 1.73 1.73z" fill="#12abc3"/><path d="M104.19 108.12a1.28 1.28 0 0 1 1.28 1.28h1a2.305 2.305 0 0 0-4.61 0h1a1.28 1.28 0 0 1 1.33-1.28zm12.52-1.03a2.31 2.31 0 0 0-2.3 2.3h1a1.28 1.28 0 1 1 2.55 0h1a2.31 2.31 0 0 0-2.25-2.3zM92.55 148.8h12.76a4.1 4.1 0 0 1 2.12-6.27v-3.42a.59.59 0 0 0-.58-.57H83.52a.58.58 0 0 0-.58.57v5.52q3 2.14 6 4.17zm5-7.23a3.62 3.62 0 1 1 0 5.12 3.61 3.61 0 0 1 .03-5.12zm-11.93 1.57h5.56v2.45h-5.53zm21.81 10.09v-2H92.69q2 1.3 4.1 2.55h10.06a.58.58 0 0 0 .58-.55z" fill="#063b5a"/><path d="M105.31 148.8H88.94q1.86 1.25 3.75 2.45h14.74v-.9a4.12 4.12 0 0 1-2.12-1.55z" fill="#012428"/><path fill="#5e799a" d="M85.65 143.14h5.56v2.45h-5.56z"/><path d="M100.14 147.75a3.62 3.62 0 1 0-2.56-1.06 3.6 3.6 0 0 0 2.56 1.06zm.32-3.22a1.1 1.1 0 0 0-.32-.17h-.26a1.59 1.59 0 0 1-.28-.13 1 1 0 0 1-.44-.8.92.92 0 0 1 .13-.48 1 1 0 0 1 .36-.35.83.83 0 0 1 .23-.09v-.59h.54v.58a1.06 1.06 0 0 1 .23.09.92.92 0 0 1 .36.35 1.06 1.06 0 0 1 .15.5h-.65a.38.38 0 0 0-.12-.26.37.37 0 0 0-.26-.09.32.32 0 0 0-.24.1.36.36 0 0 0-.09.26.34.34 0 0 0 .09.25.77.77 0 0 0 .25.15h.23a1.83 1.83 0 0 1 .52.26 1 1 0 0 1 .36.77 1.1 1.1 0 0 1-.82 1.06v.58h-.54v-.57a1.08 1.08 0 0 1-.56-.31 1 1 0 0 1-.22-.33 1 1 0 0 1-.08-.38h.66a.45.45 0 0 0 .14.32.47.47 0 0 0 .31.12.44.44 0 0 0 .32-.12.42.42 0 0 0 .13-.31.45.45 0 0 0-.13-.41z" fill="#f18831"/><path d="M100.16 145.32a.47.47 0 0 1-.31-.12.45.45 0 0 1-.14-.32H99a1 1 0 0 0 .08.38 1 1 0 0 0 .22.33 1.08 1.08 0 0 0 .56.31v.57h.54v-.58a1.09 1.09 0 0 0 .27-.11 1.08 1.08 0 0 0 .55-1 1 1 0 0 0-.36-.77 1.83 1.83 0 0 0-.52-.26h-.23a.77.77 0 0 1-.25-.15.34.34 0 0 1-.09-.25.36.36 0 0 1 .09-.26.32.32 0 0 1 .24-.1.37.37 0 0 1 .26.09.38.38 0 0 1 .12.26h.65a1.06 1.06 0 0 0-.15-.5.92.92 0 0 0-.36-.35 1.06 1.06 0 0 0-.23-.09v-.58h-.54v.59a.83.83 0 0 0-.23.09 1 1 0 0 0-.36.35.92.92 0 0 0-.13.48 1 1 0 0 0 .44.8 1.59 1.59 0 0 0 .28.13h.26a1.1 1.1 0 0 1 .32.17.45.45 0 0 1 .16.36.42.42 0 0 1-.13.31.44.44 0 0 1-.3.22z" fill="#012428"/><path d="M111.49 142.31h-2.8a4.13 4.13 0 0 0 0 8.26h2.8v-8.26z" fill="#fac9b4"/><path d="M137.82 148.06a5.53 5.53 0 0 0 .23-1.25v-.38h-26.6v5.62h21a5.6 5.6 0 0 0 5.37-3.99z" fill="#118192"/><path d="M120.86 146.44h17.23v-.38a5.55 5.55 0 0 0-5.58-5.24h-21v5.62z" fill="#12abc3"/><path d="M171.68 122.21H117.1l2-2c.49-.49 1.75-2.45 1.75-2.45h50.88a11.2 11.2 0 0 0 11.19-11.19v-8.8h4.47v8.78a15.68 15.68 0 0 1-15.71 15.66z" fill="#f18831"/><circle cx="251.95" cy="142.75" r="16.67" fill="#fff"/><circle cx="205.25" cy="113.47" r="20.28" fill="#fff"/><path d="M252.09 150.08H252a2.76 2.76 0 0 1-1.83-.68 2.73 2.73 0 0 1-.82-1.88h-3.94a6.32 6.32 0 0 0 .47 2.25 5.61 5.61 0 0 0 1.3 2 6.35 6.35 0 0 0 3.31 1.84V157h3.21v-3.44a6.76 6.76 0 0 0 1.61-.65 6.42 6.42 0 0 0 3.26-5.64 5.6 5.6 0 0 0-2.14-4.54 10.45 10.45 0 0 0-3.09-1.56l-.87-.29-.48-.19a4.4 4.4 0 0 1-1.5-.87 2 2 0 0 1-.56-1.46 2.14 2.14 0 0 1 .56-1.52 1.89 1.89 0 0 1 1.45-.59h.06a2.21 2.21 0 0 1 1.51.56 2.26 2.26 0 0 1 .71 1.54H258a6.4 6.4 0 0 0-.88-3 5.5 5.5 0 0 0-2.12-2.05 6.12 6.12 0 0 0-1.38-.54v-3.46h-3.21v3.49a5.68 5.68 0 0 0-1.35.55 5.75 5.75 0 0 0-2.17 2.09 5.46 5.46 0 0 0-.79 2.87 5.7 5.7 0 0 0 2.63 4.77 10 10 0 0 0 1.68.78l.81.26.71.25a6.47 6.47 0 0 1 1.9 1 2.65 2.65 0 0 1 .93 2.12 2.5 2.5 0 0 1-.76 1.86 2.65 2.65 0 0 1-1.91.74z" fill="#f8b881"/><path d="M230.27 107.21a25.91 25.91 0 0 0-2.77-6.68l2.82-4.24-3.91-3.92-3.92-3.92-4.25 2.82a25.93 25.93 0 0 0-6.68-2.77l-1-5h-11.08l-1 5a25.93 25.93 0 0 0-6.66 2.78l-4.24-2.82-3.92 3.92-3.92 3.92 2.82 4.24a25.94 25.94 0 0 0-2.77 6.68l-5 1v11.07l5 1a25.93 25.93 0 0 0 2.77 6.68l-2.82 4.24 3.92 3.92 3.92 3.92 4.24-2.81a25.93 25.93 0 0 0 6.68 2.76l1 5h11.07l1-5a25.93 25.93 0 0 0 6.68-2.77l4.25 2.82 3.92-3.92 3.91-3.92-2.82-4.21a25.9 25.9 0 0 0 2.77-6.68l5-1v-11.1zm-25.26 26a19.4 19.4 0 1 1 19.4-19.4A19.4 19.4 0 0 1 205 133.16z" fill="#f18831"/><path d="M220 114.53l-3-2.34h-13.93a6.78 6.78 0 0 0-5.72-3.28c-3.61 0-6.56 2.25-6.56 5.91s3 7.27 6.56 7.27a7.77 7.77 0 0 0 6.19-3.38H217z" fill="#8d4614"/><path d="M220 114.53l-3-3.28h-13.93a6.78 6.78 0 0 0-5.72-3.28 6.59 6.59 0 0 0 0 13.17 6.87 6.87 0 0 0 5.72-3.38H217z" fill="#f8ac43"/><path d="M190.79 114.62a6.58 6.58 0 0 0 6.56 6.56 6.87 6.87 0 0 0 5.72-3.38H217l3-3.28-3-3.28h-13.93a6.78 6.78 0 0 0-5.72-3.28" fill="#f6a144"/><path d="M190.79 114.62a6.54 6.54 0 0 0 6.56 6.52 6.83 6.83 0 0 0 5.72-3.33H217l3-3.28-3-3.28h-13.93" fill="#f29333"/><path d="M190.79 114.62a6.58 6.58 0 0 0 6.56 6.56 6.87 6.87 0 0 0 5.72-3.38H217l3-3.28m-22.65 6.66a6.57 6.57 0 0 0 5.72-3.38" fill="#ce6e14"/><path fill="#e2831b" d="M203.07 117.81H217l3.04-3.28"/><ellipse cx="193.27" cy="114.62" rx="1.13" ry="1.92" fill="#492e17"/><path d="M192.15 114.62c0 1.08.52 1.92 1.13 1.92s1.13-.84 1.13-1.92" fill="#010101"/><path fill="#bf6317" d="M217 117.81l-1.27-1.32-.84.85-.8-.8-.8.8-.79-.8-.8.8-.8-.8-.84.8-.8-.8-.79.8-.8-.8-.8.8-.8-.8-.84.8-.8-.85-1.31 1.32H217z"/><path fill="#f8ac43" d="M203.5 111.71h13.08l-11.63.57-1.45-.57z"/><path fill="#f6a144" d="M217 112.09l1.92 2.11-2.16-.85.24-1.26z"/><path d="M193.18 116.87a4.84 4.84 0 0 0 4.17 2.67 4.9 4.9 0 0 0 4.17-2.67z" fill="#bf6317"/><path d="M209.64 108a.44.44 0 0 1-.47.47.44.44 0 0 1-.47-.47v-6.09a.44.44 0 0 1 .47-.47.44.44 0 0 1 .47.47zm3.7.66a.51.51 0 0 1-.7 0 .51.51 0 0 1 0-.7l4.08-4.08a.51.51 0 0 1 .7 0 .51.51 0 0 1 0 .7zm-8.34 0a.51.51 0 0 0 .7 0 .51.51 0 0 0 0-.7l-4.08-4.08a.51.51 0 0 0-.7 0 .51.51 0 0 0 0 .7z" fill="#f29333"/></g></svg>