<svg xmlns="http://www.w3.org/2000/svg" viewBox="0 0 400 225"><g style="isolation:isolate"><g data-name="Calque 2"><path fill="#fec902" d="M0 0h400v225H0z"/><path d="M0 0v225h400S49.5 183.3 207.43 121C384 51.33 0 0 0 0z" fill="#f38f2e"/></g><g data-name="Calque 1"><circle cx="202.62" cy="111.68" r="102.65" fill="#00978b"/><path d="M247.18 65.77a8.61 8.61 0 0 1 6.23-8.29 31.46 31.46 0 0 0-3.15-7.57 8.62 8.62 0 0 1-10.2-1.4l-.06-.06a.38.38 0 0 1-.06-.08c-.26-.27-.55-.54-.82-.8.22.2.47.43.69.66a8.57 8.57 0 0 1-1.25-10 31.33 31.33 0 0 0-7.56-3.17 8.63 8.63 0 0 1-16.58 0 31.75 31.75 0 0 0-7.57 3.14 8.55 8.55 0 0 1-1.32 10.1l.7-.66-.82.8-.14.15a8.63 8.63 0 0 1-10.12 1.31 31.46 31.46 0 0 0-3.15 7.58A8.61 8.61 0 0 1 192 74a31.51 31.51 0 0 0 3.15 7.57A8.62 8.62 0 0 1 205.32 83l.06.08h.06a8.6 8.6 0 0 1 1.4 10.2 31.79 31.79 0 0 0 7.57 3.15 8.67 8.67 0 0 1 8-6.23h.59a8.67 8.67 0 0 1 8 6.23 31.37 31.37 0 0 0 7.55-3.15 8.65 8.65 0 0 1 1.36-10.14l.19-.19a8.62 8.62 0 0 1 10.16-1.36 32.23 32.23 0 0 0 3.15-7.59 8.6 8.6 0 0 1-6.23-8.23zM222.7 77.08A11.31 11.31 0 1 1 234 65.77a11.32 11.32 0 0 1-11.3 11.31z" fill="#82cbd0"/><path d="M222.7 54.45A11.31 11.31 0 1 0 234 65.77a11.31 11.31 0 0 0-11.3-11.32zm0 19.93a8.62 8.62 0 1 1 8.62-8.62 8.62 8.62 0 0 1-8.62 8.63z" fill="#f2f2f2"/><path d="M239.79 48.22c-.23-.23-.47-.45-.69-.66.27.27.56.53.82.8a.68.68 0 0 0-.13-.14zm-17.42 42a2.23 2.23 0 0 0 .66 0zM205.52 48.3a1 1 0 0 0-.12.15l.82-.8zm-.14.15a.6.6 0 0 0-.12.15l.14-.15z" fill="#bbc2c3"/><path d="M240.06 48.51l-.05-.05-.08-.08A24.48 24.48 0 0 0 205.32 83l.07.07.05.05a24.46 24.46 0 0 0 34.46.05l.08-.08.08-.08a24.48 24.48 0 0 0-.05-34.46zM222.7 83.69a17.92 17.92 0 1 1 17.93-17.92 17.92 17.92 0 0 1-17.93 17.92z" fill="#38b3c6"/><path d="M222.7 54.45A11.31 11.31 0 1 0 234 65.77a11.31 11.31 0 0 0-11.3-11.32zm0 19.93a8.62 8.62 0 1 1 8.62-8.62 8.62 8.62 0 0 1-8.62 8.63z" fill="#eaf0f1"/><path d="M133.12 62.63a5.05 5.05 0 0 1 3.66-4.86 18.4 18.4 0 0 0-1.85-4.44 5.06 5.06 0 0 1-6-.82l-.48-.47.41.38a5 5 0 0 1-.73-5.88 18.56 18.56 0 0 0-4.43-1.85 5.06 5.06 0 0 1-9.73 0 18.79 18.79 0 0 0-4.44 1.85 5 5 0 0 1-.77 5.93l.41-.39-.48.47-.08.08a5.06 5.06 0 0 1-5.94.77 18.47 18.47 0 0 0-1.85 4.44 5.06 5.06 0 0 1 0 9.72 18.46 18.46 0 0 0 1.85 4.44 5.06 5.06 0 0 1 6 .81 5 5 0 0 1 .82 6 18.65 18.65 0 0 0 4.44 1.84 5.09 5.09 0 0 1 4.64-3.65h.43a5.09 5.09 0 0 1 4.67 3.66 18.42 18.42 0 0 0 4.43-1.84 5.07 5.07 0 0 1 .8-6l.11-.11a5.06 5.06 0 0 1 6-.8 18.87 18.87 0 0 0 1.85-4.44 5 5 0 0 1-3.74-4.84zm-14.36 6.64a6.64 6.64 0 1 1 6.64-6.64 6.64 6.64 0 0 1-6.64 6.64z" fill="#e6f4f9"/><path d="M118.76 56a6.64 6.64 0 1 0 6.64 6.64 6.63 6.63 0 0 0-6.64-6.64zm0 11.7a5.06 5.06 0 1 1 5.06-5.06 5.06 5.06 0 0 1-5.06 5.05z" fill="#f2f2f2"/><path d="M128.79 52.33l-.41-.38.48.47zM118.57 77zm-9.88-24.6l-.07.08.48-.47zm-.09.08a.4.4 0 0 0-.07.08l.08-.08z" fill="#bbc2c3"/><path d="M128.95 52.5a14.36 14.36 0 0 0-20.31 20.32 14.35 14.35 0 0 0 20.22 0 14.37 14.37 0 0 0 0-20.22zm-10.19 20.65a10.52 10.52 0 1 1 10.52-10.52 10.52 10.52 0 0 1-10.52 10.52z" fill="#c6e6f0"/><path d="M118.76 56a6.64 6.64 0 1 0 6.64 6.64 6.63 6.63 0 0 0-6.64-6.64zm0 11.7a5.06 5.06 0 1 1 5.06-5.06 5.06 5.06 0 0 1-5.06 5.05z" fill="#c6e6f0"/><path d="M146 115.2a9.55 9.55 0 0 1 6.91-9.19 35 35 0 0 0-3.49-8.39 9.56 9.56 0 0 1-11.31-1.55l-.07-.07a.42.42 0 0 1-.07-.09l-.91-.89c.25.23.53.48.77.73a9.51 9.51 0 0 1-1.39-11.11 34.71 34.71 0 0 0-8.37-3.49 9.57 9.57 0 0 1-18.38 0 35.25 35.25 0 0 0-8.4 3.49 9.49 9.49 0 0 1-1.46 11.2c.25-.25.52-.5.77-.73l-.9.89-.16.16a9.56 9.56 0 0 1-11.22 1.46 35 35 0 0 0-3.49 8.38 9.55 9.55 0 0 1 0 18.36 34.92 34.92 0 0 0 3.49 8.4 9.56 9.56 0 0 1 11.29 1.53l.07.09h.07a9.53 9.53 0 0 1 1.55 11.31 35.06 35.06 0 0 0 8.4 3.49 9.61 9.61 0 0 1 8.83-6.91h.73a9.62 9.62 0 0 1 8.83 6.91 34.52 34.52 0 0 0 8.37-3.49A9.6 9.6 0 0 1 138 134.5l.2-.21a9.56 9.56 0 0 1 11.27-1.5 35.88 35.88 0 0 0 3.49-8.4 9.53 9.53 0 0 1-6.96-9.19zm-27.15 12.55a12.55 12.55 0 1 1 12.55-12.55 12.55 12.55 0 0 1-12.52 12.55z" fill="#9fd5d6"/><path d="M118.88 102.66a12.55 12.55 0 1 0 12.55 12.55 12.54 12.54 0 0 0-12.55-12.55zm0 22.11a9.56 9.56 0 1 1 9.56-9.56 9.56 9.56 0 0 1-9.56 9.55z" fill="#f2f2f2"/><path d="M137.84 95.74c-.25-.25-.53-.5-.77-.73l.91.89a1.14 1.14 0 0 0-.14-.16zm-19.32 46.58a1.9 1.9 0 0 0 .36 0 1.93 1.93 0 0 0 .37 0zM99.84 95.84a.72.72 0 0 0-.14.16l.91-.89c-.25.23-.52.48-.77.73zm-.16.16a.85.85 0 0 0-.14.16l.16-.16z" fill="#bbc2c3"/><path d="M138.13 96.07l-.06-.06-.08-.09a27.15 27.15 0 0 0-38.39 38.39l.08.08.06.06a27.13 27.13 0 0 0 38.22.06l.09-.09.09-.09a27.16 27.16 0 0 0-.06-38.21zm-19.25 39a19.88 19.88 0 1 1 19.88-19.88 19.87 19.87 0 0 1-19.88 19.89z" fill="#7cc9cf"/><path d="M118.88 102.66a12.55 12.55 0 1 0 12.55 12.55 12.54 12.54 0 0 0-12.55-12.55zm0 22.11a9.56 9.56 0 1 1 9.56-9.56 9.56 9.56 0 0 1-9.56 9.55z" fill="#eaf0f1"/><path d="M276.92 150.73a4.27 4.27 0 0 1-4.46 4.05H130a4.27 4.27 0 0 1-4.46-4.05V66.22a4.27 4.27 0 0 1 4.46-4.05h142.45a4.27 4.27 0 0 1 4.46 4.06z" fill="#534b64"/><path fill="#ccd5d8" d="M131.97 69.82h138.5v76.94h-138.5z"/><path d="M222.16 101.13l-1.26-.89-15.52-11c-6.75 9.48-.72 16.22-2.28 18.42s-10.08-1.06-16.68 8.19l8.4 6 8.38 6c6.6-9.27.72-16.22 2.3-18.44s9.9 1.21 16.66-8.28zm-25.92 18.64l-6.24-4.41a30.47 30.47 0 0 0 7.47-.62 20.61 20.61 0 0 0 2.59-.39h.13a17.73 17.73 0 0 0 .49 2.71c.42 1.86.38 3.8 1.61 7.08zm9-24.73l5.69 4 5.71 4a14.39 14.39 0 0 1-8 2.59 19.08 19.08 0 0 0-2.67.39 17 17 0 0 0-.52-2.65c-.56-2.26-1.24-4.98-.17-8.37z" fill="#fffef4"/><path d="M216.68 103.13a14.39 14.39 0 0 1-8 2.59 19.08 19.08 0 0 0-2.67.39 17 17 0 0 0-.52-2.65c-.56-2.34-1.24-5.07-.17-8.42l5.69 4zm-14.34 20.98l-6.1-4.34-6.24-4.41a30.47 30.47 0 0 0 7.47-.62 20.61 20.61 0 0 0 2.59-.39h.13a17.73 17.73 0 0 0 .49 2.71c.48 1.82.44 3.76 1.66 7.05z" fill="#fabf72" opacity=".97"/><path d="M225.06 99.7l-1.32 1.84c-.19.27-.68.25-1.1-.06l-.48-.35-1.26-.89-7.12-5.09-8.4-6-.49-.35c-.42-.31-.62-.76-.42-1l1.31-1.8c.19-.27.68-.23 1.1.06l8.86 6.33 8.88 6.33c.44.28.61.73.44.98zm-20.96 29.44l-1.32 1.86c-.17.27-.68.23-1.08-.06l-8.88-6.33-8.88-6.33c-.43-.29-.6-.76-.43-1l1.31-1.86c.19-.25.68-.23 1.1.06l.48.35 8.4 6 8.38 6 .5.35c.42.22.61.69.42.96z" fill="#ec643f"/><path d="M242.73 105.88l-3.29 6.06-2.27 4.18-1 1.88-2.67-4.36-.93-1.53-3.6-5.89 4.94-.13a30.23 30.23 0 0 0-58-9.66l-3.78-1.61A34.35 34.35 0 0 1 238 106z" fill="#107980"/><path d="M165.2 111.08l3.3-6.06 2.27-4.18 1-1.88 2.66 4.35.94 1.53 3.61 5.89-4.94.12a30.23 30.23 0 0 0 58 9.67l3.78 1.61A34.35 34.35 0 0 1 169.93 111z" fill="#ee754d"/><path d="M285.2 170.9c0 4.6-3.41 8.33-7.6 8.33H124.82c-4.19 0-7.57-3.74-7.57-8.33z" fill="#5c99a7"/><path fill="#7bcbdf" d="M285.2 170.9H117.25l8.27-16.11h151.4l8.28 16.11z"/><path d="M226.56 169.45h-54.95l3.11-6.61h48.73z" fill="#c3e5ef"/><path d="M188.41 56a6.84 6.84 0 0 1 4.95-6.58 24.82 24.82 0 0 0-2.5-6 6.84 6.84 0 0 1-8.1-1.11.24.24 0 0 1 0-.06l-.65-.64.55.52a6.79 6.79 0 0 1-1-7.95 24.73 24.73 0 0 0-6-2.5 6.85 6.85 0 0 1-13.16 0 25.1 25.1 0 0 0-6 2.5 6.79 6.79 0 0 1-1 8l.55-.52-.65.64-.11.12a6.85 6.85 0 0 1-8 1 24.94 24.94 0 0 0-2.5 6 6.84 6.84 0 0 1 0 13.14 25 25 0 0 0 2.5 6 6.85 6.85 0 0 1 8.08 1.09v.07h.05a6.82 6.82 0 0 1 1.11 8.1 25 25 0 0 0 6 2.49 6.89 6.89 0 0 1 6.32-4.94h.52a6.88 6.88 0 0 1 6.32 4.94 24.67 24.67 0 0 0 6-2.49 6.86 6.86 0 0 1 1.08-8l.15-.15a6.84 6.84 0 0 1 8.06-1.08 25.45 25.45 0 0 0 2.5-6 6.83 6.83 0 0 1-5.07-6.59zM169 65a9 9 0 1 1 9-9 9 9 0 0 1-9 9z" fill="#ee754d"/><path d="M169 47a9 9 0 1 0 9 9 9 9 0 0 0-9-9zm0 15.82a6.84 6.84 0 1 1 6.82-6.82 6.84 6.84 0 0 1-6.82 6.84z" fill="#f2f2f2"/><path d="M182.55 42.07l-.55-.52.65.64a.9.9 0 0 0-.1-.12zm-13.83 33.34a2.34 2.34 0 0 0 .52 0zm-13.37-33.27a.62.62 0 0 0-.1.11l.65-.64zm-.12.11a.6.6 0 0 0-.09.12l.11-.12z" fill="#bbc2c3"/><path d="M182.76 42.3l-.06-.07a19.43 19.43 0 0 0-27.47 27.48h.06a19.41 19.41 0 0 0 27.35 0l.07-.07.07-.06a19.44 19.44 0 0 0 0-27.35zM169 70.22A14.23 14.23 0 1 1 183.21 56 14.22 14.22 0 0 1 169 70.22z" fill="#db673f"/><path d="M169 47a9 9 0 1 0 9 9 9 9 0 0 0-9-9zm0 15.82a6.84 6.84 0 1 1 6.82-6.82 6.84 6.84 0 0 1-6.82 6.84z" fill="#db673f"/><path fill="#fff" d="M215.73 38.37h89.35v70.93h-89.35z"/><path fill="#534b64" d="M212.82 38.37h95.16v9.33h-95.16z"/><path fill="#63bbbf" d="M235.97 106.04h48.44v6.53h-48.44z"/><path fill="#ee754d" d="M221.41 83.94h6.55v13.23h-6.55zm10.15-3.66h6.56v16.88h-6.56zm10.15-5.57h6.56v22.45h-6.56zm10.16 2.09h6.55v20.36h-6.55zm10.15-6.79h6.55v27.15h-6.55zm10.15-5.22h6.55v32.37h-6.55zm10.16-4.18h6.56v36.55h-6.56zm10.15-5.04h6.55v41.6h-6.55z"/><path fill="#b4b4b4" d="M225.01 79.85l-.66-1.23 10.16-5.4 10.45-6.39 10.08 5.3 10-8.63 10.16-3.94 10.06-5.76 10.24-4.1.52 1.29-10.16 4.06-10.06 5.76-10.14 3.95-10.42 9.05-10.23-5.37-9.81 5.99-10.19 5.42z"/><path fill="#f2f2f2" d="M238.81 112.57h2.9v20.98h-2.9zm-2.67 20.98h8.24v2.61h-8.24zm42.7-20.98h2.9v20.98h-2.9zm-2.67 20.98h8.24v2.61h-8.24z"/><path fill="#e5e5e4" d="M241.71 117.3h37.12v1.97h-37.12z"/><path d="M276.92 119.28v31.45a4.3 4.3 0 0 1-4.18 4.05h-18l-7-7-11.67-11.67h8.24v-2.61h-2.67v-14.22zm-35.21-6.71h35.21v4.74h-35.21z" style="mix-blend-mode:multiply" fill="#7a8494" opacity=".42"/><path style="mix-blend-mode:multiply" fill="#7a8494" opacity=".42" d="M238.8 112.57v19.82l-23.09-23.09h20.25v3.27h2.84z"/><path fill="#e5e5e4" d="M151.59 134.96h7.09v5.98h-7.09zm-17.715 9.69l3.98-3.298 2.776 3.35L136.65 148zm36.203.043l2.777-3.347 3.98 3.3-2.778 3.348z"/><path d="M155.14 139.41a27 27 0 1 0 27 27 27 27 0 0 0-27-27zm0 48.55a21.56 21.56 0 1 1 21.56-21.56 21.59 21.59 0 0 1-21.56 21.6z" fill="#f07f1a"/><path d="M155.14 143.55A22.88 22.88 0 1 0 178 166.43a22.89 22.89 0 0 0-22.86-22.88zm.09 44.45a21.56 21.56 0 1 1 21.57-21.56A21.58 21.58 0 0 1 155.23 188z" fill="#534b64"/><path d="M176.7 166.39a21.56 21.56 0 1 1-21.56-21.56 21.59 21.59 0 0 1 21.56 21.56z" fill="#fff"/><path d="M172.08 153a21.55 21.55 0 0 0-30.27 30.26A21.55 21.55 0 1 1 172.08 153z" style="mix-blend-mode:multiply" fill="#a5adb9" opacity=".43"/><path d="M155.14 116.2a11.78 11.78 0 0 0-3.55 23v-1.9a10 10 0 1 1 7.09 0v1.91a11.78 11.78 0 0 0-3.54-23z" fill="#f07f1a"/><path fill="#f2f2f2" d="M130.764 142.849l5.909-4.907 2.632 3.17-5.908 4.906zm19.096-12.509h10.56V136h-10.56zm21.553 10.8l2.633-3.169 5.908 4.907-2.633 3.17z"/><path d="M154 167.8l-3.6 1-.56-2.58 3.67-.62a2 2 0 0 1 3.36-.54l16-2.66.08.38-15.73 4.19a2 2 0 0 1-3.27.87z" fill="#c23218"/><circle cx="155.38" cy="166.34" r=".94" transform="rotate(-11.5 158.674 165.921)" fill="#fff"/><path d="M171.12 161.21l-3.92.91a15.45 15.45 0 0 0-16.55-11.87 15.44 15.44 0 0 1 20.46 11z" fill="#ec643f"/><path d="M228.06 186.72l33.49-.51a12.21 12.21 0 0 1 22.08 1.73l-9.63-1.62a2.42 2.42 0 0 0-2.79 2l-1.24 7.3a2.42 2.42 0 0 0 2 2.79l9.62 1.64a12.2 12.2 0 0 1-21-4l-33.28.5a12.22 12.22 0 0 1-22.18-1.37l9.64 1.53a2.41 2.41 0 0 0 2.78-2l1.17-7.31a2.43 2.43 0 0 0-2-2.78l-9.64-1.54a12.22 12.22 0 0 1 21 3.64z" fill="#ee754d"/><path d="M257.39 189a2.21 2.21 0 0 1 2.24 2.18 2.21 2.21 0 0 1-2.18 2.25l-26.44.4a2.21 2.21 0 0 1-2.25-2.18 2.21 2.21 0 0 1 2.18-2.24z" style="mix-blend-mode:multiply" fill="#cdcccc" opacity=".77"/></g></g></svg>