<svg xmlns="http://www.w3.org/2000/svg" viewBox="0 0 400 225"><g data-name="Calque 1"><path fill="#d35757" d="M0 0h400v225H0z"/><path d="M296 217.17h-31v-20.55h31zm-29.64-1.43h28.24v-17.69h-28.21zM276 156v-3.27h-26v-.94h7.78V141h-16.9v10.8h7.78v.94h-26.75L222 156h-7v10.77h7.78v1.4H215v10.76h7.78v.63H215v10.76h16.86v-10.76h-7.78v-.63h7.78v-10.76h-7.78v-1.4h7.78V156h-8.56v-2H240v2h-7.78v10.77H240v1.51h-7.78V179h16.86v-10.73h-7.78v-1.51h7.78V156h-7.78v-2h16.35v2h-8.13v10.77h7.73v1.55h-7.78v10.77h7.78v.63h-7.78v10.76h16.86V179.7h-7.77v-.63h7.77v-10.76h-7.77v-1.55h7.83V156H259v-2h15.71v2h-7.78v10.77h16.86V156zm-33.78-13.66h14.25v8.15h-14.28zM230.53 189h-14.25v-8.15h14.24zm0-11.39h-14.25v-8.15h14.24zm0-12.17h-14.25v-8.15h14.24zm17.25 12.27h-14.25v-8.15h14.25zm0-12.27h-14.25v-8.15h14.25zM265 189.16h-14.23V181H265zm0-11.39h-14.23v-8.15H265zm.05-12.31h-14.23v-8.15h14.25zm17.37 0h-14.23v-8.15h14.25zm82.7.93v-9.48h-11.84v-5.67h-20.21v5.67h-12.23v9.48h-8.44v5.67h-.69v-5.56H291.5v12.9h20.21v-5.78h.69v5.67h20.21v-6h.46v6h9.32V181h-9.32v12.9h9.32v.75h-9.32v12.9h20.21v-12.9H344v-.75h9.32V181H344v-1.7h9.32v-6h.53v6H374v-12.9zm-55 11.44h-17.05v-9.77h17.07zM351.71 206h-17.07v-9.77h17.08zm0-13.66h-17.07v-9.77h17.08zm-17.08-39.52h17.08v9.77h-17.07zm-3.63 24.9h-17V168h17zm1.57-6v-5.37H322.4v-7.91h10.66v5.67h9.32v2.24h-9.32v5.37zm19.11 6h-17.04V168h17.08zm1.57-6v-5.37H344v-2.24h9.32v-5.67h10.27v7.91h-9.79v5.37zm19.17 6h-17.05V168h17.08zM370.65 24V7.83h-25.26V24H357v2.8h-11.61v16.09H357V45h-11.61v16.14H357v.94h-11.61v16.13h25.26V62.08H359v-.94h11.65V45H359v-2.11h11.65V26.76H359V24zm-2 52.29h-21.3V64h21.34zm0-17.07h-21.3V47h21.34zm0-18.25h-21.3V28.72h21.34zm-21.3-31.18h21.34V22h-21.34zm-77.2 33.15V26.81h-25.26v7.09H243v-7.14h-11.64V24H243V7.83h-25.25V24h11.65v2.8h-11.65v16.09h11.65V45h-11.65v16.14h11.65v.94h-11.65v16.13H243V62.08h-11.64v-.94H243v-7.79h1.88v8.51h11.65V64h-11.64v16.12h11.65v.94h-11.65v16.13h25.26V81.06H258.5v-.94h11.65V64H258.5v-2.13h11.65V45.74h-25.26v5.66H243V45h-11.64v-2.11H243v-7h1.88v7.09zM219.71 9.79h21.34V22h-21.34zm21.34 66.46h-21.34V64h21.34zm27.14 19h-21.34V83h21.34zm0-17.07h-21.34V65.94h21.34zm-21.34-30.49h21.34v12.22h-21.34zm-5.8 11.49h-21.34V47h21.34zm0-18.25h-21.34V28.72h21.34zm5.8-12.17h21.34V41h-21.34zM96 216.33H65v-20.54h31zm-29.6-1.43h28.21v-17.68H66.4zm9.6-59.73v-3.27H50v-.9h7.78v-10.8H40.9V151h7.78v.94H21.93l.08 3.27H15v10.77h7.78v1.4H15v10.72h7.78v.63H15v10.76h16.85v-10.76h-7.77v-.63h7.78v-10.77h-7.78v-1.4h7.78v-10.76h-8.54v-2H40v2h-7.76v10.77H40v1.51h-7.76v10.75H49.1v-10.76h-7.78v-1.51h7.78v-10.76h-7.78v-2h16.35v2h-8.14v10.77h7.73v1.55h-7.78v10.77h7.78v.63h-7.78v10.76h16.86v-10.78h-7.77v-.63h7.77v-10.76h-7.77v-1.55h7.83v-10.76H59v-2h15.68v2H66.9v10.77h16.86v-10.77zm-33.79-13.66h14.24v8.15H42.21zm-11.67 46.68H16.3V180h14.24zm0-11.39H16.3v-8.15h14.24zm0-12.17H16.3v-8.15h14.24zm17.25 12.27H33.54v-8.15h14.25zm0-12.27H33.54v-8.15h14.25zM65 188.33H50.79v-8.15H65zm0-11.39H50.79v-8.15H65zm.05-12.31H50.84v-8.15h14.25zm17.37 0H68.21v-8.15h14.24zm82.71.92v-9.48h-11.84v-5.67h-20.2v5.67h-12.23v9.48h-8.44v5.67h-.69v-5.56H91.52v12.9h20.21v-5.78h.69v5.67h20.21v-6h.46v6h9.32v1.7h-9.32v12.9h9.32v.75h-9.32v12.9h20.21v-12.9H144v-.75h9.32v-12.9H144v-1.7h9.32v-6h.53v6H174v-12.9zm-55 11.44H93.08v-9.77h17.07zm41.57 28.15h-17.05v-9.77h17.08zm0-13.66h-17.05v-9.77h17.08zM134.65 152h17.08v9.77h-17.08zm-3.6 24.91H114v-9.77h17.07zm1.57-6v-5.37h-10.2v-7.91h10.66v5.67h9.32v2.24h-9.32v5.37zm19.11 6h-17.08v-9.77h17.08zm1.57-6v-5.37H144v-2.24h9.32v-5.67h10.27v7.91h-9.75v5.37zm19.17 6h-17.09v-9.77h17.08zm-1.8-153.78V7h-25.26v16.13h11.65v2.8h-11.65v16.13h11.65v2.12h-11.65v16.13h11.65v.94h-11.65v16.13h25.26V61.25H159v-.94h11.65V44.18H159v-2.12h11.65V25.93H159v-2.8zm-2 52.29h-21.3V63.21h21.34zm0-17.07h-21.3V46.14h21.34zm0-18.25h-21.3V27.89h21.34zM147.37 9h21.34v12.17h-21.34zM70.16 42.1V26H44.91v7.09H43v-7.16H31.38v-2.8H43V7H17.77v16.13h11.65v2.8H17.77v16.13h11.65v2.12H17.77v16.13h11.65v.94H17.77v16.13H43V61.25H31.38v-.94H43v-7.79h1.88V61h11.68v2.12H44.91v16.16h11.65v.94H44.91v16.13h25.25V80.22H58.51v-.94h11.65V63.15H58.51V61h11.65V44.9H44.91v5.66H43v-6.38H31.38v-2.12H43V35h1.88v7.1zM19.72 9h21.35v12.17H19.72zm21.35 66.42H19.72V63.21h21.35zm27.14 19H46.86V82.18h21.35zm0-17.07H46.86V65.11h21.35zM46.86 46.86h21.35v12.21H46.86zm-5.8 11.49H19.72V46.14h21.35zm0-18.25H19.72V27.89h21.35zm5.8-12.17h21.35v12.21H46.86z" style="mix-blend-mode:multiply" fill="#f2f2f2"/><path fill="#fff" d="M329.67 195H69.99V41.63l259.68-.67V195z"/><path fill="#fff" d="M329.67 195H69.99V41.63l259.68.7V195z"/><path fill="#d35757" d="M259.89 96.41H139.96v-8.18l119.93-.03v8.21zm0 11.73H139.96v-8.18l119.93-.03v8.21z"/><path fill="#fbcb44" d="M319.35 84.15H80.5V59.53l238.85-.1v24.72z"/><path fill="#3fb17a" d="M139.96 111.72h119.92v34.94H139.96zm0 38.96h119.92v35.09H139.96z"/><path d="M329.67 44.1V40c0-4.74-5.23-8.59-11.68-8.59H81.67C75.22 31.39 70 35.24 70 40v4.1zM79.86 88.2h56.44v97.57H79.86zm184.15 0h55.34v97.57h-55.34z" fill="#1888c9"/><path fill="#f2f2f2" d="M298.17 31.39h15.94v6.15h-15.94z"/></g></svg>