<svg xmlns="http://www.w3.org/2000/svg" xmlns:xlink="http://www.w3.org/1999/xlink" viewBox="0 0 400 225"><defs><linearGradient id="a" x1="76.32" y1="-17.24" x2="257.93" y2="188.62" gradientUnits="userSpaceOnUse"><stop offset="0" stop-color="#4b2564"/><stop offset="1" stop-color="#251435"/></linearGradient><linearGradient id="d" x1="229.97" y1="232.79" x2="274.77" y2="134.43" gradientTransform="rotate(10.27 357.952 182.768)" gradientUnits="userSpaceOnUse"><stop offset="0" stop-color="#40368c"/><stop offset=".67" stop-color="#59c1d4"/><stop offset="1" stop-color="#8ad0e9"/></linearGradient><linearGradient id="e" x1="206.87" y1="226.2" x2="97.98" y2="166.44" gradientTransform="rotate(22.44 225.607 198.726)" gradientUnits="userSpaceOnUse"><stop offset="0" stop-color="#40368c"/><stop offset=".67" stop-color="#8f529c"/><stop offset="1" stop-color="#daa9cf"/></linearGradient><linearGradient id="f" x1="221.44" y1="20.12" x2="200.16" y2="130.76" gradientUnits="userSpaceOnUse"><stop offset="0" stop-color="#8f529c"/><stop offset="1" stop-color="#231e49" stop-opacity="0"/></linearGradient><linearGradient id="g" x1="841.93" y1="234.03" x2="841.93" y2="195.07" gradientTransform="matrix(-1 0 0 1 1050.69 0)" gradientUnits="userSpaceOnUse"><stop offset="0" stop-color="#8f529c"/><stop offset="1" stop-color="#231e49"/></linearGradient><linearGradient id="h" x1="822.89" y1="190.45" x2="824.39" y2="137.78" gradientTransform="matrix(-1 0 0 1 1050.69 0)" xlink:href="#a"/><linearGradient id="i" x1="793.49" y1="134" x2="841.15" y2="66.78" gradientTransform="matrix(-1 0 0 1 1050.69 0)" xlink:href="#a"/><linearGradient id="b" x1="848.65" y1="80.56" x2="848.92" y2="80.31" gradientTransform="matrix(-1 0 0 1 1050.69 0)" gradientUnits="userSpaceOnUse"><stop offset="0" stop-color="#3c2258"/><stop offset="1" stop-color="#59c1d4"/></linearGradient><linearGradient id="j" x1="805.58" y1="181" x2="849.98" y2="139.1" xlink:href="#b"/><linearGradient id="c" x1="870.65" y1="62.23" x2="830.12" y2="42.55" gradientTransform="matrix(-1 0 0 1 1050.69 0)" gradientUnits="userSpaceOnUse"><stop offset="0" stop-color="#daa9cf"/><stop offset=".49" stop-color="#c27cb3"/><stop offset="1" stop-color="#8f529c"/></linearGradient><linearGradient id="k" x1="883.25" y1="207.95" x2="868.33" y2="79.3" gradientTransform="matrix(-1 0 0 1 1050.69 0)" gradientUnits="userSpaceOnUse"><stop offset="0" stop-color="#4b2564"/><stop offset=".54" stop-color="#251435"/><stop offset=".73" stop-color="#4b2564"/><stop offset="1" stop-color="#251435"/></linearGradient><linearGradient id="l" x1="833.73" y1="23.73" x2="879.7" y2="41.88" gradientTransform="matrix(-1 0 0 1 1050.69 0)" gradientUnits="userSpaceOnUse"><stop offset="0" stop-color="#231e49"/><stop offset="1" stop-color="#4b2564"/></linearGradient><linearGradient id="m" x1="858.96" y1="85.35" x2="852.94" y2="65.21" gradientTransform="matrix(-1 0 0 1 1050.69 0)" gradientUnits="userSpaceOnUse"><stop offset=".01" stop-color="#8f529c"/><stop offset="1" stop-color="#8f348b"/></linearGradient><linearGradient id="n" x1="881.48" y1="65.38" x2="902.9" y2="128.92" gradientTransform="matrix(-1 0 0 1 1050.69 0)" gradientUnits="userSpaceOnUse"><stop offset=".29" stop-color="#4b2564" stop-opacity="0"/><stop offset="1" stop-color="#8c92c8"/></linearGradient><linearGradient id="o" x1="902.29" y1="137.66" x2="894.19" y2="111.25" gradientTransform="matrix(-1 0 0 1 1050.69 0)" gradientUnits="userSpaceOnUse"><stop offset="0" stop-color="#231e49"/><stop offset="1" stop-color="#6ac5d7"/></linearGradient><linearGradient id="p" x1="894.26" y1="136.3" x2="875" y2="157.33" xlink:href="#c"/><linearGradient id="q" x1="855.36" y1="113.98" x2="796.69" y2="142.91" xlink:href="#c"/><linearGradient id="r" x1="137.19" y1="103.19" x2="137.19" y2="64.98" gradientUnits="userSpaceOnUse"><stop offset="0" stop-color="#8f529c"/><stop offset="1" stop-color="#daa9cf"/></linearGradient><linearGradient id="s" x1="244.76" y1="70.9" x2="244.76" y2="99.73" gradientUnits="userSpaceOnUse"><stop offset="0" stop-color="#6ac5d7"/><stop offset="1" stop-color="#251435"/></linearGradient></defs><g data-name="Calque 1"><path d="M0 0h373.69a17.4 17.4 0 0 1 17.4 17.4v190.2a17.4 17.4 0 0 1-17.4 17.4H0z" fill="url(#a)"/><path d="M400 225H138.89c10.14-44 44.65-83.85 91.84-102.81 11.82-4.75 24.64-8.47 34-16.32 10.9-9.15 15.42-22.54 17.83-35.52S285.71 44 291 31.7c5.59-13.25 16.77-24.27 30.55-31.7H400z" fill="#251435"/><path d="M211.4 179.72a25.75 25.75 0 0 1 13.6-16.94c4.08-2 8.88-3 11.84-6.46 4.93-5.72 2.93-16.08 9.31-20.12 5.9-3.73 14.17 1.24 20.51-1.68 6.06-2.8 8-11.77 14.5-13.28 5.66-1.32 11 4.85 10.52 10.64s-5.13 10.48-10.3 13.13c-2.11 1.08-4.38 1.93-6.21 3.42s-3.21 3.88-2.7 6.19c1.18 5.31 10.08 5.23 11.91 10.35 1.22 3.41-1.68 7.09-5.06 8.39s-7.12 1-10.71 1.5-7.48 2-8.81 5.41c-1.62 4.11 1.3 8.47 2.34 12.76 1.67 6.84-1.91 14.38-7.82 18.2S240.59 215.38 234 213s-13-8-18-12.77-6.18-13.84-4.6-20.51z" fill="url(#d)"/><path d="M157.43 210.34a26.59 26.59 0 0 1-12.71-18.45c-.75-4.62-.34-9.68-2.86-13.62-4.19-6.57-15-7.68-17.12-15.19-1.94-6.94 5.44-13.63 4.44-20.77-1-6.83-9.26-11.41-8.82-18.29.38-6 8.07-9.45 13.65-7.23s8.84 8.19 9.91 14.09c.44 2.41.6 4.9 1.54 7.16s2.88 4.32 5.32 4.51c5.6.42 8.17-8.41 13.78-8.7 3.73-.19 6.51 3.77 6.79 7.5s-1.09 7.35-1.7 11-.2 8 2.73 10.32c3.58 2.83 8.76 1.24 13.32 1.48 7.26.39 13.65 6.16 15.66 13.15s0 14.78-4.34 20.59-11.76 10.45-18 14c-6.41 3.67-15.46 2-21.59-1.55z" fill="url(#e)"/><circle cx="205.87" cy="101.08" r="80.49" fill="url(#f)"/><path d="M245.06 214.08h-72.92a30.48 30.48 0 0 1-.26-5.93v-5.68c1.8-4.49-.36-10.45 3-14a11.45 11.45 0 0 1 4.34-2.52 158.47 158.47 0 0 1 15.94-5.28 54.32 54.32 0 0 1 12.06-2.18c4-.16 7.9.4 11.85.57a61.33 61.33 0 0 0 14.93-1.14c3.19-.65 8.27-2 10.76 1.06 1.66 2.05.66 5.63.68 8.12.02 8.99-.08 17.99-.38 26.98z" fill="url(#g)"/><path d="M248.56 166.66c1.73 5.55 3.38 11.4 2.28 17.11a1.91 1.91 0 0 1-.51 1.13c-.58.5-1.47.19-2.19-.08-4.4-1.64-9.43-.56-13.59 1.63s-7.68 5.39-11.39 8.28c-2.7 2.1-5.87 4.15-9.27 3.74a30.22 30.22 0 0 0 1.51-15.6 91.54 91.54 0 0 0-4-15.33c-4.94-15.35-9.84-31.11-9.13-47.22 0-1 .25-2.28 1.2-2.7a2.92 2.92 0 0 1 2.56.58c8.59 5.19 17 11 26.59 13.93a44.19 44.19 0 0 1 6.59 2.23c1.75.85 4.91 3 4.87 5.23 0 .74-.77 1.67-.89 2.5a20.36 20.36 0 0 0 .38 5.16c.86 6.64 3 13.03 4.99 19.41z" fill="url(#h)"/><path d="M201.91 80.44a151.89 151.89 0 0 0 10.2-15.17 17.53 17.53 0 0 0 2.34-5.35c.66-3.38-1-4.76-2.71-6.54a10 10 0 0 0 2.64 1c1.94.48 4 .55 5.9 1 4.69 1.1 8.59 4.31 13.1 6s9.8 1.86 14 4.41a20.59 20.59 0 0 1 6.81 7.53 39.64 39.64 0 0 1 4.94 14.32c1.35 9.59-.86 19.39.3 29 .47 3.87 1.45 8-.05 11.55-1.19 2.86-3.79 4.94-5.07 7.75a43.55 43.55 0 0 1-1.64 4 3.68 3.68 0 0 1-3.55 2.07 4.09 4.09 0 0 1-1.74-.89 11.8 11.8 0 0 1-3.68-4.95c-.63-1.6-.9-3.31-1.47-4.93-2.32-6.54-9.15-10.4-15.87-12.11s-13.79-1.88-20.39-4a8.62 8.62 0 0 1-3.38-1.75 8.24 8.24 0 0 1-1.92-3.38c-3.07-8.88-1.13-18.62.84-27.8.12-.54.25-1.2.4-1.76z" fill="url(#i)"/><path d="M196.65 129.48c-.17-5-.37-10.13.63-15.07l-.75-.76c.7.13-1-.31-.45-.71a61.43 61.43 0 0 1-.21-22.94c.24-1.46.52-2.94.75-4.42a9.12 9.12 0 0 0 3.8-3.22c.51-.64 1-1.31 1.49-2-.15.61-.28 1.22-.41 1.83-2 9.19-3.92 18.93-.84 27.8a8.24 8.24 0 0 0 1.92 3.38 8.62 8.62 0 0 0 3.42 1.83 66.82 66.82 0 0 0 10.58 2.22c.12 2.45.2 4.9.3 7.35-3.63-2.13-7.19-4.41-10.78-6.58a2.92 2.92 0 0 0-2.56-.58c-1 .42-1.15 1.66-1.2 2.7-.7 16.11 4.2 31.87 9.13 47.22a91.54 91.54 0 0 1 4 15.33 34.3 34.3 0 0 1 0 10.34 24.35 24.35 0 0 1-6.81 1.78 57.39 57.39 0 0 1-11.61.37q.72-32.93-.4-65.87z" fill="url(#j)"/><path d="M214.44 59.91a17.54 17.54 0 0 1-2.34 5.35 151.91 151.91 0 0 1-11.69 17.13c-1.31 1.66-3 3.45-5.08 3.43-1.94 0-3.51-1.59-4.5-3.25A14 14 0 0 1 188.9 76a5.33 5.33 0 0 0-.67-3.16c-1.45-1.83-4.78-.59-6.44-2.22a6.24 6.24 0 0 1-1.2-2.58c-1.23-3.61-4.28-6.3-5.95-9.74a26.88 26.88 0 0 1-2-7.08q-.93-5.22-1.74-10.46a8.29 8.29 0 0 1 0-3.83c.7-2.12 2.91-3.3 5-4.09a38.44 38.44 0 0 1 27.66.3c2.19.88 4.43 2.1 5.48 4.22 2 4-1.32 9.24.67 13.29 1.83 3.68 5.69 4.42 4.73 9.26z" fill="url(#c)"/><path d="M153 87.94c1.85-4.61 6.36-7.5 10.61-10.09l16.77-10.22c.05.14.11.28.16.42a6.24 6.24 0 0 0 1.2 2.58c1.66 1.64 5 .39 6.44 2.22a5.33 5.33 0 0 1 .72 3.15 14 14 0 0 0 1.95 6.56c1 1.66 2.56 3.23 4.5 3.25a3.82 3.82 0 0 0 1.27-.21c-.23 1.48-.51 3-.75 4.42a61.43 61.43 0 0 0 .22 22.91c-.59.39 1.15.83.45.71l.75.76c-1 4.94-.81 10-.63 15.07q1.26 36.82.09 73.67a2 2 0 0 1-.56 1.64 2 2 0 0 1-1.07.29 40.15 40.15 0 0 1-25.32-7 7.9 7.9 0 0 1-2.73-2.73c-.87-1.72-.52-3.78-.19-5.68a125.18 125.18 0 0 0 1.84-23.59 20 20 0 0 0-.88-6.45c-1-2.88-3.22-5.16-5-7.62a34.61 34.61 0 0 1-5.92-12.94 34 34 0 0 0-1.61-6.23c-.5-1.15-1.19-2.22-1.59-3.41-.71-2.18-.36-4.54-.1-6.81a76.24 76.24 0 0 0-.42-20.24c-.78-4.79-1.97-9.9-.2-14.43z" fill="url(#k)"/><path d="M209.66 40.14c.07-1-.15-2.31-1.13-2.64s-1.78.42-2.39 1.14c-1.63 1.92-2.21 4.2-2.7 6.67a4 4 0 0 1-1 2.47c-1.08.88-2.8.13-3.55-1a18.17 18.17 0 0 1-1.38-3.93A8.74 8.74 0 0 0 189 37.2c-3.49.22-6.89 2.56-10.25 1.6-1.18-.34-2.21-1.06-3.36-1.5a3.41 3.41 0 0 0-3.48.32c-.37.34-.65.83-1.13 1-.89.27-1.59-.79-1.84-1.69-1.22-4.4 0-9.11 1.66-13.34 1.15-2.85 2.65-5.75 5.24-7.4a17.13 17.13 0 0 1 4.36-1.75l8.22-2.46c4-1.18 8.68-2.24 11.89.37.83.68 1.48 1.55 2.26 2.29 1.56 1.46 3.58 2.3 5.32 3.54a14.39 14.39 0 0 1 5.94 10.57c.42 6-2.44 11.64-2.16 17.67.08 1.62-.11 5.86-2.24 2.58-1.34-2 .07-6.64.23-8.86z" fill="url(#l)"/><path d="M192.46 70c3.85-1.22 6.53-4.66 8.6-8.13 1-1.73 3.41-5.81 5.58-3.19 1.38 1.67.1 7.49-.52 9.36a7 7 0 0 1-1.89 2.96 23.89 23.89 0 0 1-4.37 2.67 6.22 6.22 0 0 0-3.26 3.77c-.41 2 .76 3.85 1.61 5.66a9.5 9.5 0 0 1 .48 1.24 5 5 0 0 1-3.36 1.52c-1.94 0-3.51-1.59-4.5-3.25A14 14 0 0 1 188.9 76a5.33 5.33 0 0 0-.67-3.16 2.88 2.88 0 0 0-1.69-1 5.58 5.58 0 0 1 1.21-.69c1.51-.56 3.16-.66 4.71-1.15z" fill="url(#m)"/><path style="mix-blend-mode:screen" fill="url(#n)" d="M144.95 123l15.44 2.92 22.88-51.01-32.08-7.28-6.24 55.37z"/><path d="M147.95 137.92l9.88-.18a2.7 2.7 0 0 0 2.65-2.73l-.22-21.42a2.7 2.7 0 0 0-2.7-2.68h-10.35a2.7 2.7 0 0 0-2.7 2.79l.69 21.6a2.7 2.7 0 0 0 2.75 2.62z" fill="url(#o)"/><path d="M168.81 156.7a4.86 4.86 0 0 1-2.55 2.56c-4.59 2.28-10.38.08-13.79-3.74s-5-8.89-6.47-13.79l-1.57-5.19a36.92 36.92 0 0 1-1.13-4.37 19 19 0 0 1-.18-7.08c.18-.83.57-2.82 1.83-2.09.9.52.73 2.44.84 3.31s.49 3.89-.11 4.57q2.75-3.14 5.6-6.2c1.66-1.78 3.64-3.67 6.07-3.62 1.15 4.73-7.25 7.67-6.25 12.44 2.09.26 3.82-1.49 5.22-3.07q3.1-3.49 6.42-6.77c.71-.7 1.68-1.44 2.6-1 1.19.52.89 2.31.17 3.39s-1.72 2.27-1.31 3.5c.21.63.76 1.11.9 1.75.23 1.07-.77 2.1-.64 3.19.08.66.56 1.22.61 1.88.08 1.06-.93 1.82-1.73 2.51s-1.53 1.9-.88 2.73a2.57 2.57 0 0 0 1 .63c5.64 2.64 7.3 8.93 5.35 14.46z" fill="url(#p)"/><path d="M224.44 113.26c-7.65-.56-14.73-4.4-22.34-5.34-5.51-.68-11.11.18-16.65-.26-2.83-.22-5.7-.78-8.48-.23a21.7 21.7 0 0 0-6.62 3l-8.79 5.18a2.49 2.49 0 0 0-1.26 1.25c-.31 1 .86 2 1.92 1.92a5.89 5.89 0 0 0 2.85-1.33 23.15 23.15 0 0 1 10.54-3.86l-2.41 5.73c-.66 1.58-1.33 3.38-.65 4.94s3.43 2 3.94.39a3 3 0 0 0 4.3.48c.32-.28.61-.65 1-.74.78-.16 1.33.74 2 1.1 1.14.57 2.56-.44 2.89-1.68a6.55 6.55 0 0 0-.48-3.74 14.88 14.88 0 0 0 9.87-1.31 7.12 7.12 0 0 1 3.42-1.23c1.42.06 2.56 1.15 3.58 2.16 5.8 5.78 12.14 11.12 19.4 14.91s15.52 5.94 23.67 5.11c1.13-.12.54-10 .41-11.1a35.07 35.07 0 0 0-3.26-11.17c-3.35-6.98-12.47-3.71-18.85-4.18z" fill="url(#q)"/><path d="M158.94 67.63h-43.5a5.78 5.78 0 0 0-5.78 5.78v12.76a5.78 5.78 0 0 0 5.78 5.78h33.17l7.89 10-.29-10h2.73a5.78 5.78 0 0 0 5.78-5.78V73.41a5.78 5.78 0 0 0-5.78-5.78z" fill="url(#r)"/><circle cx="122.84" cy="79.86" r="6.57" fill="#fff"/><path d="M133 73.83h25.65v2.62H133zm0 4.72h25.65v2.62H133zm0 4.72h20.04v2.62H133z" fill="#fff"/><path d="M260.42 72.51h-23.58l-12.3-7.44 4.46 7.49a4.54 4.54 0 0 0-4 4.5v17a4.55 4.55 0 0 0 4.55 4.55h30.8a4.55 4.55 0 0 0 4.65-4.56v-17a4.55 4.55 0 0 0-4.58-4.54z" fill="url(#s)"/><path d="M228.68 80.98h32.69v1.31h-32.69zm0 3.92h32.69v1.31h-32.69zm0 3.93h26.01v1.31h-26.01z" fill="#fff"/><circle cx="277.13" cy="43.34" r="4.95" fill="#daa9cf"/><path d="M113.79 145.48l-3.17-3.17 3.17-3.17a1 1 0 1 0-1.47-1.47l-3.17 3.17-3.15-3.16a1 1 0 0 0-1.47 1.47l3.17 3.17-3.17 3.17A1 1 0 0 0 106 147l3.17-3.17 3.17 3.17a1 1 0 0 0 1.47-1.47z" fill="#6ac5d7"/><path d="M159.54 57a2.45 2.45 0 0 1-1.74-.72l-13.52-13.47a2.46 2.46 0 1 1 3.47-3.47l13.52 13.52a2.46 2.46 0 0 1-1.73 4.14z" fill="#8f529c"/><path d="M267.92 166.94a2.45 2.45 0 0 1 .72-1.74l13.52-13.52a2.46 2.46 0 1 1 3.47 3.47l-13.52 13.52a2.46 2.46 0 0 1-4.19-1.74z" fill="#fff"/></g></svg>