<svg xmlns="http://www.w3.org/2000/svg" xmlns:xlink="http://www.w3.org/1999/xlink" viewBox="0 0 354.3 202.84"><defs><linearGradient id="a" x1="295.05" y1="130.98" x2="359.43" y2="86.62" gradientUnits="userSpaceOnUse"><stop offset="0" stop-color="#f3921b"/><stop offset=".99" stop-color="#f2d45a"/></linearGradient><linearGradient id="g" x1="297.17" y1="134.05" x2="361.54" y2="89.7" xlink:href="#a"/><linearGradient id="h" x1="295.84" y1="132.12" x2="360.21" y2="87.76" xlink:href="#a"/><linearGradient id="i" x1="293.35" y1="128.5" x2="357.72" y2="84.15" xlink:href="#a"/><linearGradient id="j" x1="291.88" y1="126.37" x2="356.25" y2="82.02" xlink:href="#a"/><linearGradient id="k" x1="291.02" y1="125.12" x2="355.39" y2="80.77" xlink:href="#a"/><linearGradient id="l" x1="290.38" y1="124.19" x2="354.75" y2="79.84" xlink:href="#a"/><linearGradient id="m" x1="291.55" y1="125.9" x2="355.93" y2="81.54" xlink:href="#a"/><linearGradient id="n" x1="297.3" y1="134.25" x2="361.68" y2="89.89" xlink:href="#a"/><linearGradient id="o" x1="294.76" y1="130.56" x2="359.14" y2="86.2" xlink:href="#a"/><linearGradient id="p" x1="295.84" y1="132.12" x2="360.22" y2="87.77" xlink:href="#a"/><linearGradient id="q" x1="296.62" y1="133.25" x2="360.99" y2="88.89" xlink:href="#a"/><linearGradient id="r" x1="290.59" y1="124.5" x2="354.96" y2="80.14" xlink:href="#a"/><linearGradient id="s" x1="297.52" y1="134.56" x2="361.9" y2="90.21" xlink:href="#a"/><linearGradient id="t" x1="299.81" y1="137.89" x2="364.19" y2="93.53" xlink:href="#a"/><linearGradient id="u" x1="290.38" y1="124.2" x2="354.75" y2="79.84" xlink:href="#a"/><linearGradient id="v" x1="298.83" y1="136.47" x2="363.21" y2="92.11" xlink:href="#a"/><linearGradient id="w" x1="289.79" y1="123.34" x2="354.17" y2="78.99" xlink:href="#a"/><linearGradient id="b" x1="262.63" y1="145.42" x2="341.92" y2="127.76" gradientUnits="userSpaceOnUse"><stop offset="0" stop-color="#a6cbed"/><stop offset=".97" stop-color="#7d8ac4"/></linearGradient><linearGradient id="x" x1="64.8" y1="24.49" x2="80.11" y2="-92.87" gradientTransform="rotate(-8.08 603.05 9.865)" xlink:href="#a"/><linearGradient id="y" x1="33.82" y1="20.45" x2="49.13" y2="-96.91" gradientTransform="rotate(-8.08 603.05 9.865)" xlink:href="#a"/><linearGradient id="z" x1="32.72" y1="20.31" x2="48.02" y2="-97.06" gradientTransform="rotate(-8.08 603.05 9.865)" xlink:href="#a"/><linearGradient id="A" x1="40" y1="21.26" x2="55.31" y2="-96.11" gradientTransform="rotate(-8.08 603.05 9.865)" xlink:href="#a"/><linearGradient id="B" x1="46.27" y1="22.08" x2="61.58" y2="-95.29" gradientTransform="rotate(-8.08 603.05 9.865)" xlink:href="#a"/><linearGradient id="C" x1="60.5" y1="23.93" x2="75.81" y2="-93.43" gradientTransform="rotate(-8.08 603.05 9.865)" xlink:href="#a"/><linearGradient id="D" x1="73.11" y1="25.58" x2="88.41" y2="-91.79" gradientTransform="rotate(-8.08 603.05 9.865)" xlink:href="#a"/><linearGradient id="E" x1="54.07" y1="23.09" x2="69.38" y2="-94.27" gradientTransform="rotate(-8.08 603.05 9.865)" xlink:href="#a"/><linearGradient id="F" x1="37.68" y1="20.96" x2="52.99" y2="-96.41" gradientTransform="rotate(-8.08 603.05 9.865)" xlink:href="#a"/><linearGradient id="G" x1="51.51" y1="22.76" x2="66.82" y2="-94.6" gradientTransform="rotate(-8.08 603.05 9.865)" xlink:href="#a"/><linearGradient id="H" x1="58.36" y1="23.65" x2="73.67" y2="-93.71" gradientTransform="rotate(-8.08 603.05 9.865)" xlink:href="#a"/><linearGradient id="I" x1="63.83" y1="24.37" x2="79.14" y2="-93" gradientTransform="rotate(-8.08 603.05 9.865)" xlink:href="#a"/><linearGradient id="J" x1="67.53" y1="24.85" x2="82.84" y2="-92.51" gradientTransform="rotate(-8.08 603.05 9.865)" xlink:href="#a"/><linearGradient id="K" x1="69.48" y1="25.11" x2="84.79" y2="-92.26" gradientTransform="rotate(-8.08 603.05 9.865)" xlink:href="#a"/><linearGradient id="L" x1="78.56" y1="26.29" x2="93.87" y2="-91.07" gradientTransform="rotate(-8.08 603.05 9.865)" xlink:href="#a"/><linearGradient id="M" x1="82.02" y1="26.74" x2="97.32" y2="-90.62" gradientTransform="rotate(-8.08 603.05 9.865)" xlink:href="#a"/><linearGradient id="N" x1="73.53" y1="25.63" x2="88.84" y2="-91.73" gradientTransform="rotate(-8.08 603.05 9.865)" xlink:href="#a"/><linearGradient id="O" x1="88.4" y1="27.57" x2="103.7" y2="-89.79" gradientTransform="rotate(-8.08 603.05 9.865)" xlink:href="#a"/><linearGradient id="P" x1="708.52" y1="570.52" x2="636.29" y2="517.92" gradientTransform="rotate(91.1 647.278 33.547)" xlink:href="#b"/><linearGradient id="Q" x1="6.7" y1="109.36" x2="169.84" y2="109.36" xlink:href="#a"/><linearGradient id="R" x1="59.84" y1="120.76" x2="191.9" y2="120.76" xlink:href="#a"/><linearGradient id="c" x1="102.28" y1="129.25" x2="-19.87" y2="129.25" gradientUnits="userSpaceOnUse"><stop offset=".03" stop-color="#ddd9ee"/><stop offset=".05" stop-color="#dddaee"/><stop offset=".6" stop-color="#edecf1"/><stop offset="1" stop-color="#f2f2f2"/></linearGradient><linearGradient id="S" x1="6.7" y1="149.13" x2="169.84" y2="149.13" gradientUnits="userSpaceOnUse"><stop offset="0" stop-color="#2c4093"/><stop offset=".03" stop-color="#2b3d8c"/><stop offset=".17" stop-color="#253471"/><stop offset=".31" stop-color="#212c5d"/><stop offset=".48" stop-color="#1e274e"/><stop offset=".68" stop-color="#1d2446"/><stop offset="1" stop-color="#1c2343"/></linearGradient><linearGradient id="T" x1="7.36" y1="160.69" x2="170.5" y2="160.69" xlink:href="#a"/><linearGradient id="U" x1="7.36" y1="177.34" x2="170.5" y2="177.34" xlink:href="#a"/><linearGradient id="V" x1="-34.76" y1="169.02" x2="122.76" y2="169.02" gradientUnits="userSpaceOnUse"><stop offset="0" stop-color="#f2f2f2"/><stop offset=".4" stop-color="#edecf1"/><stop offset=".95" stop-color="#dddaee"/><stop offset=".97" stop-color="#ddd9ee"/></linearGradient><linearGradient id="W" x1="-2.46" y1="88.4" x2="116.34" y2="88.4" xlink:href="#c"/><linearGradient id="d" x1="177.15" y1="191.55" x2="177.15" y2="89.56" gradientUnits="userSpaceOnUse"><stop offset="0" stop-color="#1c2343"/><stop offset=".21" stop-color="#1f2953"/><stop offset=".61" stop-color="#25326e"/><stop offset=".85" stop-color="#273678"/><stop offset=".98" stop-color="#2b3e8e"/><stop offset="1" stop-color="#2c4093"/></linearGradient><linearGradient id="X" x1="177.15" y1="171.8" x2="177.15" y2="69.68" xlink:href="#c"/><linearGradient id="Y" x1="95.32" y1="63.96" x2="258.97" y2="63.96" xlink:href="#a"/><linearGradient id="Z" x1="95.32" y1="67.12" x2="258.97" y2="67.12" xlink:href="#b"/><linearGradient id="aa" x1="177.15" y1="180.72" x2="177.15" y2="165.1" xlink:href="#d"/><linearGradient id="ab" x1="322.77" y1="142.66" x2="335.36" y2="142.66" gradientUnits="userSpaceOnUse"><stop offset="0" stop-color="#f3921b"/><stop offset=".23" stop-color="#f18f1c"/><stop offset=".41" stop-color="#ed841d"/><stop offset=".59" stop-color="#e47321"/><stop offset=".76" stop-color="#d95b25"/><stop offset=".92" stop-color="#ca3b2b"/><stop offset=".99" stop-color="#c1292e"/></linearGradient><linearGradient id="ac" x1="332.22" y1="149.36" x2="345.97" y2="149.36" gradientUnits="userSpaceOnUse"><stop offset="0" stop-color="#f3921b"/><stop offset=".18" stop-color="#e47221"/><stop offset=".4" stop-color="#d55227"/><stop offset=".62" stop-color="#ca3c2b"/><stop offset=".82" stop-color="#c32e2d"/><stop offset=".99" stop-color="#c1292e"/></linearGradient><linearGradient id="f" x1="344.31" y1="137.95" x2="326.2" y2="152.46" gradientUnits="userSpaceOnUse"><stop offset=".01" stop-color="#c1292e"/><stop offset=".08" stop-color="#ca3b2b"/><stop offset=".24" stop-color="#d95b25"/><stop offset=".41" stop-color="#e47321"/><stop offset=".59" stop-color="#ed841d"/><stop offset=".77" stop-color="#f18f1c"/><stop offset="1" stop-color="#f3921b"/></linearGradient><linearGradient id="ad" x1="349.12" y1="167.62" x2="316.59" y2="167.62" xlink:href="#d"/><linearGradient id="ae" x1="341.12" y1="133.21" x2="335.15" y2="193.94" gradientTransform="rotate(-180 335.68 188.54)" xlink:href="#b"/><linearGradient id="af" x1="1343.74" y1="109.7" x2="1337.77" y2="170.42" gradientTransform="matrix(-1 0 0 1 1670.16 0)" xlink:href="#b"/><linearGradient id="e" x1="337.35" y1="197.16" x2="330.39" y2="157.12" gradientTransform="rotate(-180 333.45 174.725)" gradientUnits="userSpaceOnUse"><stop offset="0" stop-color="#c1292e"/><stop offset=".3" stop-color="#c12c30"/><stop offset=".55" stop-color="#c03738"/><stop offset=".78" stop-color="#c04845"/><stop offset=".98" stop-color="#bf5f56"/></linearGradient><linearGradient id="ag" x1="350.34" y1="194.92" x2="343.37" y2="154.85" xlink:href="#e"/><linearGradient id="ah" x1="334.95" y1="197.6" x2="327.98" y2="157.53" gradientTransform="rotate(-180 330.075 169.595)" xlink:href="#e"/><linearGradient id="ai" x1="340.02" y1="196.71" x2="333.05" y2="156.64" xlink:href="#e"/><linearGradient id="aj" x1="253.62" y1="115.62" x2="248.17" y2="129.94" xlink:href="#f"/><linearGradient id="ak" x1="259.99" y1="137.57" x2="259.99" y2="159.24" xlink:href="#d"/><linearGradient id="al" x1="271.79" y1="121.34" x2="262.37" y2="139.35" xlink:href="#f"/><linearGradient id="am" x1="262.62" y1="118.14" x2="257.17" y2="132.46" xlink:href="#f"/><linearGradient id="an" x1="271.45" y1="121.16" x2="262.03" y2="139.18" xlink:href="#f"/><linearGradient id="ao" x1="112.69" y1="209.62" x2="112.69" y2="170.89" xlink:href="#b"/><linearGradient id="ap" x1="112.69" y1="168.09" x2="112.69" y2="159.4" xlink:href="#d"/><linearGradient id="aq" x1="302.61" y1="206.01" x2="302.61" y2="167.28" xlink:href="#b"/><linearGradient id="ar" x1="302.6" y1="164.48" x2="302.6" y2="155.78" xlink:href="#d"/><linearGradient id="as" x1="128.45" y1="153.98" x2="135.1" y2="153.98" xlink:href="#d"/><linearGradient id="at" x1="124.31" y1="159.26" x2="136" y2="159.26" xlink:href="#b"/><linearGradient id="au" x1="106.61" y1="149.34" x2="127.57" y2="149.34" gradientUnits="userSpaceOnUse"><stop offset=".01" stop-color="#c1292e"/><stop offset=".31" stop-color="#d24d28"/><stop offset=".77" stop-color="#ea7f1f"/><stop offset="1" stop-color="#f3921b"/></linearGradient><linearGradient id="av" x1="79.67" y1="194.23" x2="116.51" y2="192.49" gradientTransform="rotate(-180 109.515 192.82)" xlink:href="#b"/><linearGradient id="aw" x1="1287.56" y1="219.48" x2="1324.4" y2="217.74" gradientTransform="matrix(-1 0 0 1 1670.16 0)" xlink:href="#b"/><linearGradient id="ax" x1="1551.89" y1="208.57" x2="1556.12" y2="139.13" gradientTransform="matrix(-1 0 0 1 1648.1 -11.4)" xlink:href="#e"/><linearGradient id="ay" x1="109.22" y1="203.83" x2="113.45" y2="134.4" xlink:href="#e"/><linearGradient id="az" x1="103.8" y1="209.81" x2="108.03" y2="140.37" xlink:href="#e"/><linearGradient id="aA" x1="187.57" y1="28.24" x2="187.57" y2="47.49" xlink:href="#f"/><linearGradient id="aB" x1="210.83" y1="28.24" x2="210.83" y2="47.49" xlink:href="#f"/><linearGradient id="aC" x1="192.7" y1="28.24" x2="192.7" y2="47.49" xlink:href="#f"/><linearGradient id="aD" x1="204.69" y1="28.24" x2="204.69" y2="47.49" xlink:href="#f"/></defs><g data-name="Calque 1"><path d="M350.8 119.74c-2.92-10.74-9.09-21.07-7.71-32.08 1.35-10.77 9.76-19.69 11-30.48 1.51-12.81-7.32-24.47-16.72-33.31-11-10.38-25.55-19.62-40.41-16.67-12.83 2.55-23.01 13.79-36.01 15.2-11.23 1.21-21.69-5.1-31.92-9.88-30.75-14.37-67.63-15.92-98.78-2.41-12.74 5.49-25.61 13.58-39.3 11.55-11.4-1.68-20.68-10.06-31.73-13.14-10.66-3-22.39-.78-32 4.69C9.35 23.35-5.39 43.79 1.95 64.6c3.21 9.14 8.33 17.94 8.43 27.62.12 11-6.31 21-8.79 31.78a41.72 41.72 0 0 0-.75 14.12c2.52 22 21.19 38.66 43.35 39.3 44.84 1.31 212.55 1.1 260.71 1 24.57 0 45.4-18.73 47.36-43.22a44.57 44.57 0 0 0-1.12-14.29q-.19-.59-.34-1.17z" fill="#fdefd1"/><ellipse cx="176.14" cy="189.34" rx="169.44" ry="13.5" style="mix-blend-mode:multiply" fill="#f2f2f2"/><path d="M296.95 68.67c-6.4-2.44-.63-5.29 3.39-6.42 3.25-.92 11.4-2.42 8.09-8-3.46-5.81-6.78 1.37-9.53 2.18-6.15 1.81.25-5.91 1.78-8 2.09-2.82 6.5-8.58 1.06-9.54-4.4-.78-9 5.35-10.78 8.41-1.3 2.18-4.5 12.38-7.83 10.12-2.52-1.71.09-11.93-5.93-4.63-2.45 3-2.05 7.74-3.16 11.14-1.62 5-2.3 7-6.71 5.76-2.29-.66-2.36-3.53-5.19-1.59-1.45 1-1.88 5.6-1.87 7.19.11 14.66 6 24.48 8.74 25.75 3.74 1.71 10.7-.76 13.9-2.6 1.59-.91 4.5-2.43 4.29-4.74-.23-2.6-4.25-2.23-4.39-3.75-.42-4.33 7.55-.19 9.75-.81 2.86-.8 7.59-5.91 4.59-8.61-.31-.28-12.77-1.18-5.64-5.15 3.95-2.2 8.18 3.9 12-.43 5.44-6.17-4.18-5.35-6.56-6.28z" fill="#1c2343"/><path d="M295.86 70.98a28.53 28.53 0 0 0-8.59-2.47 58.74 58.74 0 0 0 5.92-8.17c.45-.82-.9-1.39-1.34-.58-.2.36-.41.7-.62 1.05a9 9 0 0 1 .13-2.94 18.68 18.68 0 0 1 1.59-5.17.73.73 0 0 0-1.34-.58 20.15 20.15 0 0 0-1.85 6.68 5.24 5.24 0 0 0 .53 3.43c-2.27 3.36-5.09 6.46-7.45 9.72a14.31 14.31 0 0 1-2.09-5.16c-.37-2.07-.12-4.16-.33-6.24a.73.73 0 0 0-1.45.18c.26 2.5 0 5 .59 7.42a16.5 16.5 0 0 0 2.39 5.08 90.13 90.13 0 0 0-7.27 12.37c-.68 1.43-1.31 2.89-1.92 4.36a27.22 27.22 0 0 1-3.28-6.51 21.85 21.85 0 0 1-1.1-4 10.94 10.94 0 0 0-.43-3 .732.732 0 0 0-1.36.54c.5 1.2.33 2.77.65 4.05a37.66 37.66 0 0 0 1.12 3.56 28.85 28.85 0 0 0 3.67 6.82s.05 0 .07.07c-1 2.54-2 5.08-3.16 7.57a.68.68 0 0 0-.22.3 6.75 6.75 0 0 0-.4 1c-2 5.13-4.08 10.25-6 15.4-.33.88 1 1.46 1.34.58 2-5.13 4-10.24 6-15.35v-.06c.65-1.34 1.25-2.7 1.82-4.08 2.66.68 5.62-.1 8.1-1.1a.732.732 0 0 0-.54-1.36 12.71 12.71 0 0 1-7 1.08c1.28-3.14 2.48-6.32 3.94-9.38.58-1.22 1.2-2.41 1.85-3.59a.7.7 0 0 0 .15.1 21.47 21.47 0 0 0 11.43 1.45c.93-.15.75-1.6-.18-1.45a20 20 0 0 1-10.67-1.35 110.74 110.74 0 0 1 6.61-10.07c.4-.55.82-1.1 1.25-1.64a.61.61 0 0 0 .55.39 27 27 0 0 1 8.3 2.37.73.73 0 0 0 .59-1.32z" fill="#273477"/><path d="M346 99.49c-6.47 2.51-13.08 4-19.13 7.56a147.63 147.63 0 0 0-16.76 11.4c-4.88 3.83-9.55 7.9-14.45 11.71-5.72 4.45-9.75 9.86-14.63 15.1-.78.84-2.16-.3-1.38-1.14 4.43-4.75 8.09-9.87 13.17-14 5.4-4.38 10.79-8.84 16.25-13.13a145.92 145.92 0 0 1 17.48-11.81c5.94-3.41 12.51-4.9 18.84-7.37a.89.89 0 0 1 .61 1.68z" transform="translate(-22.05 -11.4)" fill="url(#a)"/><path d="M344.88 99a5.29 5.29 0 0 1 5 .66c1.32 1.23.11 2.43-1.32 2.7-1.59.31-3.24-.3-4.78-.6s-3.34 0-4.85-.48a11.67 11.67 0 0 1 3.8-1.45c1.19-.31 2.29-.89 3.46-1.21" transform="translate(-22.05 -11.4)" fill="url(#g)"/><path d="M342 100.22c2.46-.87 6.09-.59 7.81-3 1.12-1.56.73-3-1.27-3.16a4.78 4.78 0 0 0-3.71 1.94 30.8 30.8 0 0 0-3.63 4.52" transform="translate(-22.05 -11.4)" fill="url(#h)"/><path d="M335.24 101.74c.89-2.85 1.93-6.46 4.68-8.17 1.71-1.07 2 1 1.63 2.22-1 2.72-3.62 5-6 6.46z" transform="translate(-22.05 -11.4)" fill="url(#i)"/><path d="M328.84 104.44c.54-3.6 1.12-8.16 4.11-10.74 1.87-1.61 2.66.85 2.38 2.37-.65 3.46-3.42 6.74-6.05 8.93z" transform="translate(-22.05 -11.4)" fill="url(#j)"/><path d="M315.2 113c-.09-3.64-.33-8.23 2.17-11.3 1.56-1.91 2.77.37 2.76 1.92 0 3.52-2.19 7.23-4.4 9.85z" transform="translate(-22.05 -11.4)" fill="url(#k)"/><path d="M304.24 121.6c-1.25-4.12-3-9.28-1.07-13.56 1.18-2.67 3.28-.44 3.74 1.32 1.06 4-.22 8.93-1.92 12.61z" transform="translate(-22.05 -11.4)" fill="url(#l)"/><path d="M319.74 109.57c1.18-4 2.55-9.15 6.33-11.57 2.36-1.51 2.87 1.45 2.31 3.13-1.28 3.85-4.92 7.11-8.24 9.15z" transform="translate(-22.05 -11.4)" fill="url(#m)"/><path d="M335.78 103.24c2.51 1.61 5.63 3.72 8.83 3.27 2-.28.91-2.1-.17-2.74-2.48-1.47-6-1.54-8.76-1.1z" transform="translate(-22.05 -11.4)" fill="url(#n)"/><path d="M321 108.8c3.26.95 7.34 2.25 10.69.72 2.09-1 .32-2.59-1.07-2.94-3.18-.8-7 .26-9.92 1.63z" transform="translate(-22.05 -11.4)" fill="url(#o)"/><path d="M313.55 116c3.49 1 7.87 2.41 11.47.77 2.24-1 .34-2.77-1.15-3.15-3.41-.86-7.55.28-10.63 1.75z" transform="translate(-22.05 -11.4)" fill="url(#p)"/><path d="M305.78 121.91c4.66 1.16 10.49 2.78 15.43.44 3.08-1.46.6-3.67-1.4-4.09-4.56-1-10.19.74-14.43 2.84z" transform="translate(-22.05 -11.4)" fill="url(#q)"/><path d="M310 117.33c-.8-2.23-2-4.18-2.09-6.61a8.16 8.16 0 0 1 2.2-5.59c.6-.69 1.23-1.61 2.23-1.73 1.4-.16.81 1.34.55 2.25a56.55 56.55 0 0 0-1.37 6c-.19 1.1-.4 2.12-.68 3.17a14.41 14.41 0 0 1-.48 2.52" transform="translate(-22.05 -11.4)" fill="url(#r)"/><path d="M314.81 124.79c-2.6 0-11 .84-14.24.88-.74.59-1.49 1.17-2.25 1.75 5.27 1.28 14 2.11 16.25 1.57 1-.24 3-1.1 3.4-2.11.65-1.88-2.02-2.11-3.16-2.09z" transform="translate(-22.05 -11.4)" fill="url(#s)"/><path d="M307.32 137.64c-3.13-.69-13.41-2.08-17.29-2.94-1 .5-2.11 1-3.18 1.46 5.95 3 16.11 6.45 19 6.44 1.25 0 4-.46 4.66-1.57 1.29-2.03-1.83-3.08-3.19-3.39z" transform="translate(-22.05 -11.4)" fill="url(#t)"/><path d="M296.5 128.31c-.42-1.4-4-5.56-2.44-13.21.22-1.08.61-2.51 1.77-2.93 1.61-.58 1.72 1.22 1.77 2.35.09 2.25-.2 10.78 0 12.91" transform="translate(-22.05 -11.4)" fill="url(#u)"/><path d="M292.23 132.12c1.58.45 3.15 1.43 4.78 2s11.47 2.21 14.53 1.58c1.33-.27 3.93-.18 4.26-1.87s-1.67-2.66-3-3.08c-3-1-17.08 0-20.66.77" transform="translate(-22.05 -11.4)" fill="url(#v)"/><path d="M290.93 132.69c-3.69-5.24-5.16-16.09-4.26-17.19 2-2.39 4.42 1.33 4.9 3.14 1.09 4.06.1 13.6-.57 13.74" transform="translate(-22.05 -11.4)" fill="url(#w)"/><path d="M281.38 141.05c-2.43 2-5.56 4.52-8.09 6.36-3.3 2.41-3.3 4.77-.46 7.62 3.5 3.51 9.74 5.43 14.56 6.2 1.71.27 2 .15 2.06-1.78 0-1.43-.16-2.76 0-4.2a14.16 14.16 0 0 1 2.33-7.47c2.58-3.62 2.81.88 2.07 3a23.77 23.77 0 0 0-1.46 7.68c0 4.52 14.71-2.25 16.88-4.84-1.69-1.28-3.66-6.59-2.35-8.66 1.15-1.83 1.65.18 1.9 1.39a9.49 9.49 0 0 0 1.25 3.87c3.39 4.73 10.45-7.76 11.78-10.33 1.75-3.38 3.76-3.88 7.28-4-2.5-3.28-6.14-8-10.54-8.19-2.13-.08-4 1.44-5.63 2.54-1.16.76-5 2.68-2.92-.19 1.42-2 4.13-2.67 5.53-4.77-1.14-1.42-5.07-4-7-3.6-2.27.51-3 5-4.4 6.51-1.61-2.74 1.48-5.46 2.55-7.7-3-2.16-9.06-4.81-13-3.76-5.69 1.53-.39 8.9.69 10.13.79.9 2 2.53-.08 1.82-1.87-.62-4.28-4.75-5.05-6.53-.38-.87-.44-3.34-1.24-3.89s-16.04 6.06-17.74 11.07c-1.78 5.2 6.7 11.06 11.08 11.72z" transform="translate(-22.05 -11.4)" fill="url(#b)"/><path d="M46.5 29.82c6.42-2.39.67-5.28-3.34-6.45-3.24-.94-11.38-2.5-8-8 3.48-5.77 6.79 1.39 9.49 2.23 6.14 1.86-.21-5.91-1.72-8-2.07-2.84-6.44-8.63-1-9.55 4.41-.74 8.92 5.42 10.72 8.49 1.29 2.19 4.41 12.41 7.76 10.18 2.53-1.69 0-11.93 6-4.58 2.43 3 2 7.76 3.07 11.16 1.58 5 2.24 7.05 6.67 5.81 2.29-.64 2.39-3.52 5.2-1.56 1.45 1 1.84 5.61 1.82 7.21-.22 14.67-6.22 24.44-8.96 25.69-3.76 1.69-10.7-.84-13.88-2.7-1.58-.93-4.48-2.46-4.26-4.78.25-2.6 4.26-2.2 4.42-3.72.46-4.33-7.55-.25-9.75-.88-2.85-.82-7.55-6-4.53-8.64.31-.28 12.74-1.13 5.68-5.13-3.93-2.23-8.21 3.84-12-.52-5.41-6.25 4.21-5.36 6.61-6.26z" fill="#1c2343"/><path d="M47.55 32.14a28.54 28.54 0 0 1 8.61-2.4 58.73 58.73 0 0 1-5.86-8.21c-.45-.83.91-1.39 1.35-.57.19.36.41.71.62 1.06a9 9 0 0 0-.11-2.94 18.68 18.68 0 0 0-1.6-5.2.751.751 0 0 1 1.39-.57 20.15 20.15 0 0 1 1.8 6.69 5.24 5.24 0 0 1-.56 3.42c2.24 3.38 5 6.5 7.38 9.78a14.31 14.31 0 0 0 2.13-5.15c.39-2.06.15-4.16.38-6.24a.731.731 0 0 1 1.45.19c-.28 2.5 0 5-.65 7.42a16.49 16.49 0 0 1-2.42 5.07 90.14 90.14 0 0 1 7.19 12.37c.67 1.44 1.29 2.9 1.88 4.37a27.23 27.23 0 0 0 3.33-6.48 21.84 21.84 0 0 0 1.13-4 11 11 0 0 1 .45-3 .73.73 0 0 1 1.35.55c-.51 1.2-.35 2.76-.68 4a37.64 37.64 0 0 1-1.16 3.69 28.85 28.85 0 0 1-3.72 6.79.69.69 0 0 1-.07.07c1 2.54 2 5.1 3.1 7.59a.68.68 0 0 1 .22.3 6.75 6.75 0 0 1 .39 1c2 5.14 4 10.28 5.93 15.44.33.88-1 1.45-1.35.57-1.93-5.15-3.93-10.26-5.91-15.38v-.06c-.64-1.34-1.23-2.71-1.79-4.09-2.67.66-5.62-.14-8.09-1.16a.73.73 0 0 1 .55-1.35 12.71 12.71 0 0 0 7 1.13c-1.26-3.15-2.44-6.34-3.87-9.41a71.69 71.69 0 0 0-1.82-3.61.7.7 0 0 1-.15.1 21.47 21.47 0 0 1-11.44 1.37c-.93-.15-.74-1.6.19-1.45a20 20 0 0 0 10.62-1.24 110.73 110.73 0 0 0-6.54-10.12c-.4-.56-.81-1.1-1.24-1.65a.61.61 0 0 1-.55.38 27 27 0 0 0-8.32 2.31.74.74 0 0 1-.54-1.38z" fill="#273477"/><path d="M39 49.18c6.45 2.56 13 4.13 19.08 7.7a147.63 147.63 0 0 1 16.7 11.52c4.85 3.87 9.49 8 14.36 11.82 5.69 4.5 9.67 9.93 14.52 15.21.78.85 2.16-.28 1.38-1.13-4.39-4.78-8-9.93-13.07-14.09-5.35-4.42-10.71-8.92-16.14-13.21a145.93 145.93 0 0 0-17.39-12c-5.92-3.44-12.44-5-18.78-7.5a.89.89 0 0 0-.66 1.68z" transform="translate(-22.05 -11.4)" fill="url(#x)"/><path d="M40.19 48.7a5.29 5.29 0 0 0-5 .63c-1.33 1.22-.13 2.43 1.3 2.71 1.59.32 3.24-.27 4.79-.56s3.34.07 4.85-.45a11.66 11.66 0 0 0-3.79-1.47c-1.19-.31-2.29-.91-3.45-1.23" transform="translate(-22.05 -11.4)" fill="url(#y)"/><path d="M43 49.94c-2.45-.88-6.08-.63-7.78-3-1.11-1.57-.71-3 1.3-3.15a4.78 4.78 0 0 1 3.72 1.95 30.81 30.81 0 0 1 3.6 4.55" transform="translate(-22.05 -11.4)" fill="url(#z)"/><path d="M49.81 51.52c-.87-2.85-1.88-6.48-4.62-8.21-1.71-1.08-2.06 1-1.64 2.2.94 2.72 3.58 5 6 6.51z" transform="translate(-22.05 -11.4)" fill="url(#A)"/><path d="M56.19 54.26c-.52-3.61-1.06-8.17-4-10.77-1.86-1.62-2.67.83-2.4 2.35.62 3.46 3.37 6.77 6 9z" transform="translate(-22.05 -11.4)" fill="url(#B)"/><path d="M69.77 62.93c.12-3.64.39-8.23-2.09-11.31-1.54-1.92-2.77.35-2.77 1.9 0 3.52 2.14 7.25 4.33 9.88z" transform="translate(-22.05 -11.4)" fill="url(#C)"/><path d="M80.66 71.6c1.28-4.11 3-9.25 1.17-13.55-1.16-2.68-3.27-.47-3.75 1.29-1.09 4 .16 8.93 1.83 12.62z" transform="translate(-22.05 -11.4)" fill="url(#D)"/><path d="M65.26 59.46c-1.15-4-2.48-9.16-6.25-11.62-2.35-1.53-2.88 1.42-2.33 3.11 1.25 3.86 4.87 7.15 8.17 9.21z" transform="translate(-22.05 -11.4)" fill="url(#E)"/><path d="M49.26 53c-2.52 1.59-5.65 3.68-8.86 3.2-2-.3-.9-2.11.19-2.74 2.49-1.45 6-1.49 8.77-1z" transform="translate(-22.05 -11.4)" fill="url(#F)"/><path d="M64 58.68c-3.27.92-7.35 2.19-10.7.64-2.08-1-.3-2.59 1.1-2.93 3.19-.78 7 .31 9.9 1.7z" transform="translate(-22.05 -11.4)" fill="url(#G)"/><path d="M71.4 65.92c-3.5 1-7.89 2.35-11.47.69-2.24-1-.32-2.77 1.18-3.14 3.42-.83 7.54.33 10.62 1.83z" transform="translate(-22.05 -11.4)" fill="url(#H)"/><path d="M79.12 71.9c-4.67 1.13-10.51 2.7-15.43.33-3.07-1.48-.57-3.67 1.43-4.08 4.56-.93 10.18.82 14.41 2.95z" transform="translate(-22.05 -11.4)" fill="url(#I)"/><path d="M75 67.29c.82-2.23 2-4.17 2.14-6.59A8.17 8.17 0 0 0 75 55.09c-.59-.69-1.22-1.62-2.21-1.74-1.4-.17-.82 1.33-.57 2.25a56.56 56.56 0 0 1 1.32 6c.18 1.1.39 2.12.66 3.17a14.42 14.42 0 0 0 .46 2.53" transform="translate(-22.05 -11.4)" fill="url(#J)"/><path d="M70.07 74.71c2.6.05 11 .93 14.23 1 .73.6 1.48 1.18 2.24 1.76-5.28 1.24-14 2-16.26 1.44-1-.24-3-1.12-3.39-2.13-.63-1.84 2.04-2.09 3.18-2.07z" transform="translate(-22.05 -11.4)" fill="url(#K)"/><path d="M77.47 87.62c3.13-.67 13.43-2 17.31-2.82 1 .51 2.1 1 3.17 1.48-6 3-16.15 6.33-19.05 6.3-1.25 0-4-.48-4.65-1.6C73 89 76.1 87.92 77.47 87.62z" transform="translate(-22.05 -11.4)" fill="url(#L)"/><path d="M88.36 78.38c.43-1.4 4-5.53 2.54-13.19-.21-1.09-.59-2.51-1.75-2.94-1.6-.6-1.73 1.2-1.78 2.34-.1 2.25.12 10.78-.1 12.91" transform="translate(-22.05 -11.4)" fill="url(#M)"/><path d="M92.59 82.22c-1.58.44-3.16 1.41-4.8 1.92s-11.48 2.13-14.55 1.47c-1.33-.28-3.93-.2-4.24-1.9s1.69-2.64 3-3.06c3-1 17.08.14 20.66.92" transform="translate(-22.05 -11.4)" fill="url(#N)"/><path d="M93.89 82.79c3.73-5.21 5.28-16.05 4.38-17.16-1.94-2.4-4.43 1.3-4.93 3.1-1.12 4-.2 13.6.47 13.75" transform="translate(-22.05 -11.4)" fill="url(#O)"/><path d="M113.22 79.77c-2.38 2.06-5.4 4.71-7.65 6.89-2.93 2.84-5.26 2.43-7.58-.85-2.86-4-3.69-10.52-3.63-15.4 0-1.73.19-2 2.11-1.73 1.41.22 2.69.63 4.13.75a14.16 14.16 0 0 0 7.76-1c4-1.92-.39-2.92-2.57-2.55A23.77 23.77 0 0 1 98 66c-4.46-.73 4.73-14.11 7.65-15.81 1 1.88 5.87 4.73 8.14 3.79 2-.83.11-1.66-1-2.11a9.49 9.49 0 0 1-3.6-1.89c-4.08-4.15 9.43-9 12.19-9.84 3.63-1.14 4.46-3 5.2-6.48 2.81 3 6.86 7.42 6.27 11.79-.28 2.12-2.09 3.65-3.46 5.12-.95 1-3.49 4.42-.31 2.91 2.22-1.05 3.34-3.62 5.64-4.64 1.21 1.36 3.1 5.68 2.36 7.48-.89 2.15-5.4 2.08-7.16 3.23 2.42 2.05 5.63-.53 8-1.2 1.62 3.32 3.2 9.75 1.5 13.42-2.48 5.35-8.84-1.13-9.86-2.4-.75-.94-2.15-2.45-1.81-.23.29 1.95 4 5 5.58 6.09.79.52 3.22 1 3.62 1.89s-8.77 14.77-14 15.6c-5.5.83-9.83-8.48-9.73-12.95z" transform="translate(-22.05 -11.4)" fill="url(#P)"/><rect x="6.7" y="99.42" width="163.14" height="19.89" rx="4.75" ry="4.75" fill="url(#Q)"/><path d="M191.9 115.56v10.38a4.75 4.75 0 0 1-4.75 4.75H69.78a9.94 9.94 0 0 1 0-19.89h117.36a4.75 4.75 0 0 1 4.76 4.76z" transform="translate(-22.05 -11.4)" style="mix-blend-mode:multiply" fill="url(#R)"/><path fill="#9d446a" d="M7.36 119.3H170.5v3.23H7.36zm0 16.65H170.5v3.23H7.36z"/><path fill="url(#c)" d="M10.16 122.54h157.53v13.42H10.16z"/><rect x="6.7" y="139.19" width="163.14" height="19.89" rx="4.75" ry="4.75" fill="url(#S)"/><path d="M169.85 143.94v10.38a4.75 4.75 0 0 1-4.75 4.75H47.73a9.945 9.945 0 0 1 0-19.89h117.36a4.75 4.75 0 0 1 4.76 4.76z" style="mix-blend-mode:multiply" fill="#1e3c73"/><path fill="url(#T)" d="M7.36 159.07H170.5v3.23H7.36z"/><path fill="url(#U)" d="M7.36 175.73H170.5v3.23H7.36z"/><path fill="url(#V)" d="M10.16 162.31h157.53v13.42H10.16z"/><path d="M10.95 80.71v15.37h121v3.33H9.32a2 2 0 0 1-1.66-2.16V79.54a2 2 0 0 1 1.66-2.16h122.63v3.33z" fill="#9d446a"/><path fill="url(#W)" d="M10.92 80.71h118.81v15.36H10.92z"/><rect x="86.75" y="53.27" width="180.79" height="116.31" rx="7.48" ry="7.48" fill="url(#d)"/><path fill="url(#X)" d="M95.32 61.76h163.65v99.33H95.32z"/><path fill="url(#Y)" d="M95.32 61.76h163.65v4.4H95.32z"/><path fill="url(#Z)" d="M95.32 64.92h163.65v4.4H95.32z"/><circle cx="97.32" cy="67.09" r=".91" fill="#e62d2d"/><circle cx="100.41" cy="67.09" r=".91" fill="#fcd440"/><circle cx="103.43" cy="67.09" r=".91" fill="#34aa42"/><rect x="78.77" y="169.13" width="196.77" height="10.01" rx="4.97" ry="4.97" fill="url(#aa)"/><path d="M136.84 137.65l-.47-.35a3.69 3.69 0 0 0-5.77 2.36 3.73 3.73 0 0 0 4.86 4.28 2.85 2.85 0 0 0 2.06-2.18c.09-.41.09-.42-.32-.42h-2.71c-.19 0-.26-.08-.26-.27v-.89c0-.3.08-.29.29-.29h4c.44 0 .46 0 .49.41a4.55 4.55 0 0 1-4.34 5.22 5.172 5.172 0 0 1-1.23-10.27 5 5 0 0 1 3.89 1c.44.34.43.34.06.73-.17.22-.36.45-.55.67zm45.53 2.24c.11 0 .14-.09.19-.15a2.43 2.43 0 0 1 2.57-.68 2.12 2.12 0 0 1 1.54 2.07c.05 1.31 0 2.63 0 3.94 0 .18-.07.25-.25.27-.92.08-.92.08-.92-.84v-3.1a1.34 1.34 0 0 0-.95-1.3 1.56 1.56 0 0 0-1.73.51 2.22 2.22 0 0 0-.46 1.42v2.86c0 .43 0 .44-.42.44-.86 0-.74.12-.74-.71v-5.21c0-.11.06-.25.23-.25h.25c.79 0 .65 0 .66.61a.66.66 0 0 0 .03.12zm33.8 3.89l.28-.14a2 2 0 0 1 .64-.24c.27 0 .28.32.42.48a1.79 1.79 0 0 0 1.92.53.86.86 0 0 0 .66-.77.78.78 0 0 0-.61-.74c-.44-.14-.89-.24-1.33-.34a2.86 2.86 0 0 1-1.23-.58 1.52 1.52 0 0 1-.12-2.27 3 3 0 0 1 4 0 2.17 2.17 0 0 1 .19.23c.29.4.28.44-.16.62l-.18.07c-.37.15-.37.15-.63-.14a1.72 1.72 0 0 0-2.08-.28.61.61 0 0 0 .05 1.13 5.19 5.19 0 0 0 1.09.31 7.66 7.66 0 0 1 1 .29 1.76 1.76 0 0 1 .17 3.28 2.94 2.94 0 0 1-4.08-1.44zm-13.82-4.58l-.56 1.29c-1 2.38-2.07 4.75-3.09 7.14a.61.61 0 0 1-.74.46 4.3 4.3 0 0 0-.59 0c-.05-.22.07-.37.14-.53.35-.76.69-1.52 1.06-2.28a.7.7 0 0 0 0-.65c-.7-1.57-1.39-3.15-2.09-4.73l-.22-.5c-.07-.16 0-.25.16-.25.93-.07.93-.07 1.29.79l1.43 3.46a.56.56 0 0 0 .05.08c.17-.06.17-.23.23-.35.49-1.2 1-2.4 1.46-3.61.11-.27.24-.41.54-.38a4.48 4.48 0 0 1 .93.06zm10.53 6.34a3.16 3.16 0 0 1-3.18-3.61 3.23 3.23 0 0 1 .88-2 3.1 3.1 0 0 1 4.73.31c.34.51.34.53-.21.75-.18.07-.37.24-.54.17s-.21-.28-.31-.42a1.82 1.82 0 0 0-2.77-.08 2.45 2.45 0 0 0-.14 3.08 1.86 1.86 0 0 0 3.09-.1c.16-.23.28-.28.5-.15.74.31.75.35.24 1a2.85 2.85 0 0 1-2.29 1.05zm-49.86-5.09v4.48c0 .4 0 .4-.41.41h-.66c-.36 0-.37 0-.37-.39v-9c0-.37 0-.37.38-.38h.74c.34 0 .35 0 .35.37v2.66q-.03.92-.03 1.85zm40.76 1.68v-1.57c0-.26-.09-.37-.34-.34h-.1c-.2 0-.48.11-.59-.09a1.54 1.54 0 0 1 0-.82.17.17 0 0 1 .17-.15h.2c.71 0 .71 0 .71-.76v-.84c0-.28.06-.31.28-.3s.43 0 .64 0 .29.1.29.3v1.23c0 .41 0 .36.36.37h.89c.18 0 .28.08.27.26 0 .91.08.74-.7.76s-.8-.13-.81.81v2.16a3.69 3.69 0 0 0 0 .49.7.7 0 0 0 .75.68 3 3 0 0 0 .39 0c.1 0 .2 0 .24.11s.19.45.28.68 0 .19-.12.22a2.56 2.56 0 0 1-1.91-.16 1.64 1.64 0 0 1-.82-1.38c-.1-.54-.08-1.1-.08-1.66zm-9.4-1.33v-4.09c0-.41 0-.41.41-.41.93 0 .76-.06.76.75v8.03c0 .11-.08.26-.26.26a5.11 5.11 0 0 0-.59 0c-.27 0-.33-.11-.32-.35.01-1.39 0-2.8 0-4.19zm13.19 1.42v-2.71c0-.35 0-.37.35-.37 1 0 .81-.09.82.8v4.93c0 .45 0 .46-.46.46-.83 0-.7.11-.71-.69s0-1.61 0-2.42zm.55-4.38a.81.81 0 0 1-.82-.8.83.83 0 0 1 .85-.83.82.82 0 0 1 .81.86.8.8 0 0 1-.84.77zm-47.57 2.21c0-.3.14-.69-.08-.9s-.57 0-.86-.06a1.13 1.13 0 0 0-.39 0c-.16.05 0 .28-.19.37l-.16-.1a2.47 2.47 0 0 0-2.28-.41 3.36 3.36 0 0 0-2.24 4.37 3 3 0 0 0 4.77 1.48v.75a1.59 1.59 0 0 1-1.11 1.53 1.78 1.78 0 0 1-2-.58c-.13-.15-.16-.41-.35-.45s-.4.13-.6.2l-.32.13c-.33.15-.35.18-.15.5a3.08 3.08 0 0 0 2.56 1.61 2.91 2.91 0 0 0 3.25-2.24 5.64 5.64 0 0 0 .16-1.36c-.01-1.59 0-3.22-.01-4.84zm-1.73 3.5a1.72 1.72 0 0 1-2.7.06 2.15 2.15 0 0 1 .2-3 1.7 1.7 0 0 1 2.62.45 2.42 2.42 0 0 1 .3 1.08 2.31 2.31 0 0 1-.42 1.4zm21.6 1.43l-3-7.92c-.29-.78-.3-.77-1.13-.77-.47 0-.47 0-.63.43q-1.48 3.91-3 7.83a2.43 2.43 0 0 0-.24.78h.94a.37.37 0 0 0 .42-.31c.19-.58.41-1.14.62-1.71.15-.4.15-.4.55-.4h3c.42 0 .42 0 .56.38.21.59.42 1.17.63 1.76 0 .12.06.27.24.27h1.09a.59.59 0 0 0-.05-.34zm-2.69-3.19H175l1.49-4.09.94 2.59.45 1.24c.07.14.07.26-.15.26zm-27.54-2.9a3.33 3.33 0 1 0 0 6.65 3.33 3.33 0 1 0 0-6.65zm.85 5.12a1.86 1.86 0 0 1-2.7-1.49v-.33a1.92 1.92 0 0 1 1-1.79 1.77 1.77 0 0 1 2 .24 2.1 2.1 0 0 1-.29 3.37z" fill="#767676"/><path d="M142.9 138.89a3.33 3.33 0 1 0 0 6.65 3.33 3.33 0 1 0 0-6.65zm.83 5.14a1.86 1.86 0 0 1-2.67-1.49v-.31a2 2 0 0 1 .66-1.56 1.78 1.78 0 0 1 2.18-.17 2.09 2.09 0 0 1-.17 3.53zm25.82-.14l-.41-.27c-.43-.28-.43-.28-.81.08a1.81 1.81 0 0 1-2.7-.14c-.22-.29-.21-.34.14-.48l3.41-1.41c.75-.31.74-.3.38-1a3 3 0 0 0-4.65-1.1 3.47 3.47 0 0 0-1 3.84 3.34 3.34 0 0 0 5.68 1c.22-.32.21-.33-.04-.52zM165.2 142a1.65 1.65 0 0 1 .74-1.48 1.57 1.57 0 0 1 1.62-.2 1.16 1.16 0 0 1 .32.22c.27.24.26.33-.07.47l-2.39 1a.2.2 0 0 1-.22-.01zm27.95-.4a2.39 2.39 0 0 0-1.39-2.31 3.19 3.19 0 0 0-2.63 0 2.34 2.34 0 0 0-1.05.86c-.25.36-.25.38.14.55.15.07.31.12.45.19s.27.09.37-.09a1.61 1.61 0 0 1 2.94.9c-.23-.07-.43-.14-.64-.19a3.53 3.53 0 0 0-2.76.34 2 2 0 0 0-.22 3.27 2.63 2.63 0 0 0 3.38-.24c.07-.07.09-.22.25-.18 0 .74 0 .73.81.72.25 0 .35-.07.35-.33 0-1.23.02-2.38 0-3.49zm-1.2 1.4a1.94 1.94 0 0 1-2.44 1.37 1 1 0 0 1-.27-1.71 2.07 2.07 0 0 1 1.29-.39 3.32 3.32 0 0 1 1.19.26.36.36 0 0 1 .23.47z" fill="#767676"/><path d="M182.41 96.9a2.3 2.3 0 0 0-.08-.88.2.2 0 0 0-.09-.09v-.31H170.6a4.77 4.77 0 0 0-1 .09 3.45 3.45 0 0 0-2.77 3.25v12h-10.54a3.57 3.57 0 0 0-2 .54 3.18 3.18 0 0 0-1.57 2.21 1.63 1.63 0 0 0-.11.77v8.39a2.21 2.21 0 0 0 .19 1 2.42 2.42 0 0 0 .7 1.24.09.09 0 0 0 .09.09.1.1 0 0 0 .09.09.09.09 0 0 0 .09.09.2.2 0 0 0 .17.12.12.12 0 0 0 .11.09.11.11 0 0 0 .11.08.2.2 0 0 0 .18.11.21.21 0 0 0 .19.1.21.21 0 0 0 .2.1 2.11 2.11 0 0 0 1.07.29h26.49a.53.53 0 0 0 .14-.36v-12.26c-.04-5.5-.01-11.12-.02-16.75zm-.26-1zm-21.48 30.2zm-6.51-.39h.06z" fill="#fec829"/><path d="M197.61 122.6V85.03a2.72 2.72 0 0 0-.17-1 .63.63 0 0 0-.07-.33 3.62 3.62 0 0 0-3.4-2.31h-8.07a3.54 3.54 0 0 0-1.53.33 3.31 3.31 0 0 0-1.93 2.22 2.74 2.74 0 0 0-.19 1.2v10.42a.19.19 0 0 0 0 .13.15.15 0 0 0 0 .17v30.45h11.62a3.91 3.91 0 0 0 .54 0 3.4 3.4 0 0 0 2.63-1.68.07.07 0 0 0 .06-.08v-.1a2.2 2.2 0 0 0 .4-1.26 1.09 1.09 0 0 0 .11-.59zm-4.66-6.74z" fill="#ef790e"/><path d="M309.49 113.08a4.84 4.84 0 0 1 4.7-3.1 6.8 6.8 0 0 1 3-.19c3 .48 5.12 3.14 5.83 6a29 29 0 0 0 .89 2.91l.42 1.19c.42 1.16 1.48 6.15-.35 5.94a16.5 16.5 0 0 0 1 3.6 29.62 29.62 0 0 1 .73 3.82c.17 1.37.2 2.81-.72 3.68s-1.54.31-2.1-.62c-.09 2-.88 3-2.29 3.23-2.14.37-3.54-1-4.38-3.86-.81 1.62-2.25 1.71-3.59 1.52-.84-.12-3.55-1.56-2.62-3.36-.31.46-1-.35-1.23-.79a7.81 7.81 0 0 1-.2-3.17 32.2 32.2 0 0 0-.34-4.06c-.73-7.97.78-11.66 1.25-12.74z" fill="#9d446a"/><path d="M296.89 126.5l4 5.65c0 1.56-.35 4-1.73 5.46-3.11-1.27-5.31-12.2-5.31-12.2a1 1 0 0 0-.87-.63c-2.38-.08-4.63-2.85-4.83-4a1.36 1.36 0 0 1 2.34-1.17c.45.48 1.77 1.59 2.69 2.41a.18.18 0 0 0 .3-.13c.07-1.79.87-2.53 1.1-1.31l.22 3 .82 1.15z" fill="#f4a699"/><path d="M338.6 140.66a2.94 2.94 0 0 1-1.87 2.72L326 147.57l.35-5.55 8-3.95a2.91 2.91 0 0 1 4.25 2.59z" transform="translate(-22.05 -11.4)" fill="url(#ab)"/><path d="M292.03 189.38l-.25-.57v.06a2 2 0 0 1 .25.51z" fill="#f08472"/><path d="M292.16 183.23c-.13 2-.26 3.93-.37 5.52v.07h-2.36c-1.62-9.38-4.6-28.45-4.6-28.45-.62-2.37-.63-5.64 1.28-7a5.44 5.44 0 0 1 1.54-.78h.11a4.49 4.49 0 0 1 1.24-.18l5.7-.11a5.15 5.15 0 0 0 .24.55c.58 1.27 2.12 4.42 3 6.31-2.43 0-4.83.18-7.22.41 2.68.67 2.07 13.92 1.44 23.66z" fill="#f08472"/><path d="M289.95 192.01h-5.2c-1.06-.11-1.68-.71-.52-1.26l5.19-1.86h2.36l.25.57v.21a2.11 2.11 0 0 1-2.08 2.34z" fill="#1c2343"/><path d="M281.47 189.69a.3.3 0 0 0 0 .06.31.31 0 0 0 0 .07l-2.15-1.17v-.07c.64-1.64 1.89-4.64 2.52-6.1a137.9 137.9 0 0 0 6.77-22.53c.74-3.74 1.06-4.62 2.17-5.67a5.21 5.21 0 0 1 4.22-1.36l1 .12s4 7.17 4.1 7.57c-.92-.06-4.41-.32-5.33-.37 2.38 7.41-9.26 23.26-13.3 29.45z" fill="#f4a699"/><path d="M279.53 192.2c-1.84-.83-4-2.13-6-2.9-.45-.18-.62-.23-.77-.64s.51-.71.91-.76c1.2.18 3.51.53 4.45.63l1.15.13c.66.38 1.42.77 2.13 1.16v.35c-.14 1.18-.22 2.78-1.87 2.03z" fill="#1c2343"/><path d="M316.55 125.5l-.73-3.61-3.26.15a6.16 6.16 0 0 1 .23 4z" fill="#f08472"/><path d="M317.8 114.27c-.29-1.74-1-3.26-2.07-3.82-1.57-.81-4.4 1.42-6.16 3.06a19.8 19.8 0 0 0-2.68 3.05 2.81 2.81 0 0 0-.29.46c-.06.23.22.44.44.57h.06a5.61 5.61 0 0 0 2.22 5.55c1.55 1 4.73.26 6.49-1.27 2.87-2.48 2.14-6.4 1.99-7.6z" fill="#f4a699"/><path d="M308.8 119.34a2 2 0 0 0 1.43-1.35.14.14 0 1 0-.26-.09 1.88 1.88 0 0 1-2.18 1.21.14.14 0 1 0-.06.26 2.67 2.67 0 0 0 1.07-.03z" fill="#1c2343"/><ellipse cx="330.98" cy="127.37" rx=".81" ry=".4" transform="rotate(-70.75 311.913 137.2)" fill="#1c2343"/><path d="M310.54 115.07a.14.14 0 0 0 .11-.15 1.12 1.12 0 0 0-1.21-1 .14.14 0 0 0-.12.15.13.13 0 0 0 .15.12.86.86 0 0 1 .92.79.14.14 0 0 0 .15.09z" fill="#1c2343"/><path d="M328.92 163a26.36 26.36 0 0 0 8.66-.11l2.19-.54c-2.31-5.13.74-12.59.45-18.21a28.38 28.38 0 0 0-1.66-8.68l-3.72 2-6.84 6.1a4.29 4.29 0 0 0 .26 6.77 2.78 2.78 0 0 1 .54 1.4 62.63 62.63 0 0 1 .12 11.27z" transform="translate(-22.05 -11.4)" fill="url(#ac)"/><path d="M307.07 139.9a6.12 6.12 0 0 1 1.95 5.39c-3.18 1.05-11.8-6.25-11.8-6.25l-.52-.36-.55.4c-1.91 1.41-5.4.64-6.24-.11a1.36 1.36 0 0 1 1.11-2.37c.65.1 2.37.15 3.6.22a.18.18 0 0 0 .15-.28c-1.05-1.45-.89-2.53.05-1.72l2 2.19 1.36.39 2.08.6 6.77 2z" fill="#f4a699"/><path d="M339.66 142.68l-5.75 9.82a16.16 16.16 0 0 0-2.68-5.62l3.3-6.92a2.91 2.91 0 1 1 5.13 2.72z" transform="translate(-22.05 -11.4)" fill="url(#f)"/><path d="M341.47 168.62a4.4 4.4 0 0 1-.28.85c-1.08 2.44-4 3-6.39 3.25h-.07c-.58.06-1.15.1-1.73.13a53.85 53.85 0 0 1-10.22-.59c-.67-.09-1.35-.19-2-.32l-.26-.52-.47-1c-.92-1.89-2.46-5-3-6.31a6 6 0 0 1-.24-.55h.09l12.09-.62 1.13.17 9.71-.82.07.12.14.24.07.13c.89 1.7 1.79 3.87 1.36 5.84z" transform="translate(-22.05 -11.4)" fill="url(#ad)"/><path d="M315.28 114.6c-1 .19-2.21.08-2.3-1.14-.51.81-2.47 1.12-2.64-.12-1 1.19-3.31.51-2.93-1.2.28-1.25 2.33-3 3.54-3.32 3.06-.75 6.42 1.4 8.26 3.61a2.87 2.87 0 0 1 .63 2.25c-.14.7-2.61 6.73-2.16 3 .01 0-2.44-1.49-2.4-3.08z" fill="#9d446a"/><path d="M320.86 125.2a22.35 22.35 0 0 1-.3-3.29 16.15 16.15 0 0 0-3-8.19c-1.35-1.66-3.51-3.24-5.49-1.61-.85.69-.94 2.13-.93 3.14a2.42 2.42 0 0 0 .8 1.83c0 .32.19.58.67.75-.92 1-.75 2.28.75 2.51a1.37 1.37 0 0 0 1.28 2.26c-.92 1.16-.6 2.18 1 2.19-.19 1.28-.08 2 1.15 2.64a3.79 3.79 0 0 1 1.35 1.24c.31.44.48.86 1.07.9 1.08.07 1.71-1 1.86-1.9a6 6 0 0 0-.21-2.47z" fill="#9d446a"/><path d="M311.86 141.1c-1.25 2.12-2.21 3.77-2.27 3.84a1.51 1.51 0 0 1-.58.35 6.12 6.12 0 0 0-1.95-5.39l2.11-4.42a16.16 16.16 0 0 1 2.69 5.62zm-7.56-10.5a13.24 13.24 0 0 1-.35 5.55l-4 1.56a1.5 1.5 0 0 1-.74-.12c1.38-1.48 1.69-3.9 1.73-5.46l.07.09z" fill="#fcc152"/><path transform="rotate(180 324.655 182.84)" fill="url(#ae)" d="M333.57 174.87h4.22v27.33h-4.22z"/><path d="M326.47 204h18.42a3.54 3.54 0 0 0-3.54-3.54H330a3.54 3.54 0 0 0-3.54 3.54z" transform="translate(-22.05 -11.4)" fill="url(#af)"/><rect x="319.61" y="171.95" width="27.69" height="5.54" rx="2.75" ry="2.75" transform="rotate(180 322.425 169.025)" fill="url(#e)"/><path d="M347.2 163.78c5.31-23.15-.89-23.15-4-23.15s-4.77 15.47-4.77 23.15 1.06 11.73 5.76 11.73c4.33.01 1.29-4.25 3.01-11.73z" transform="translate(-22.05 -11.4)" fill="url(#ag)"/><path transform="rotate(180 319.05 163.895)" fill="url(#ah)" d="M329.17 165.16h1.8v8.88h-1.8z"/><path d="M342.82 166.17h-15.53a1.39 1.39 0 0 1-1.39-1.39 1.39 1.39 0 0 1 1.39-1.39h15.53z" transform="translate(-22.05 -11.4)" fill="url(#ai)"/><path d="M249.79 116.35c-.59-2.28-1.77-4.41-1.86-6.78s.93-4.69 1-7.08c.1-2.66-.87-7.6-2.56-9.52-3.3-3.75-10.6-4.28-13.56 1.52-1.15 2.26-1 5-.72 7.58s.77 5.2.2 7.71c-.94 4.14-4.55 7.37-4.5 11.64a9 9 0 0 0 2.44 5.76 19.69 19.69 0 0 0 4.87 3.66 2.32 2.32 0 0 0 .94.38c.67.06 1.25-.48 1.81-.9 2.34-1.75 5.43-1.79 7.92-3.28a9.77 9.77 0 0 0 4.21-9.77c-.03-.3-.11-.61-.19-.92z" fill="#1c2343"/><path d="M223.23 103.27a3.51 3.51 0 0 1-.39-3.78l4.93-9.68a4.82 4.82 0 0 1-1.73-4.12.75.75 0 0 1 1.08-.57 4.37 4.37 0 0 1 2 3l.63-1.34a.42.42 0 0 1 .75 0c.19.34.19 1-.55 2.27l-3.79 11.55a.32.32 0 0 0 .11.36 2.82 2.82 0 0 1-3.04 2.31z" fill="#d0817b"/><path d="M257.78 119.58l-1.87 4.72-8.39-7.54a1 1 0 0 0 .21-.09 4.33 4.33 0 0 0 2-3 .74.74 0 0 0 0-.26z" transform="translate(-22.05 -11.4)" fill="url(#aj)"/><path d="M238.87 137.99v.34c0 .29-.08.63-.13 1q-.08-.5-.13-.93l.15-.2z" fill="#f4a699"/><path d="M233.95 181.02a1.54 1.54 0 0 1-.18.44l-3.64 2.9a.57.57 0 0 0 .16 1h.16c1 .26 2.84.31 3.54-.5a1.58 1.58 0 0 1 1.22-.55h.15c1.19 0 .83-1.36.59-2.57v-.72z" fill="#1c2343"/><path d="M238.83 138.33c0 .29-.08.63-.13 1q-.08-.5-.13-.93c0-.14 0-.28-.05-.41l.2.21z" fill="#f4a699"/><path d="M246.79 181.52c-.19 1.15-.47 2.48.65 2.41h.15a1.5 1.5 0 0 1 1.18.47c.7.74 2.43.62 3.38.34l.15-.05a.54.54 0 0 0 .11-.95l-3.56-2.61a3.18 3.18 0 0 1-.09-.52l-1.79.06z" fill="#1c2343"/><path d="M245.95 142.47a84.11 84.11 0 0 0-1.47-10.34 11.68 11.68 0 0 0-.8-2.14 9.29 9.29 0 0 1-.59-1.42 8.62 8.62 0 0 1-.39-1.73 7.8 7.8 0 0 1-.07-.84 4.59 4.59 0 0 1 .24-1.77l2-3.58a12.41 12.41 0 0 0 1.56-5.16v-2.16c0-.15 0-.43-.1-.79a12.11 12.11 0 0 0-1.3-3.91l-1.3-.35-1.14-.31-1-.28v-3.15l-3.21.59a2.82 2.82 0 0 1 .1 1.7c0 .08 0 .17-.06.26s-.05.22-.09.33l-.08.27-.08.21h-.22l-1 .09-1.26.11-1.51 3.81-.75 1.89a7.09 7.09 0 0 0-.13 4.87l.21.63.82 2.42a5.15 5.15 0 0 1 .27 1.64 5.09 5.09 0 0 1-.9 2.9 4.79 4.79 0 0 1-.52.64 7.77 7.77 0 0 0-.74.88 12.64 12.64 0 0 0-1.4 2.48 13.08 13.08 0 0 0-1.15 5.9l.54 6.11 3.52 38.75 2 .06s3-17-.21-19.42c.27-2.23.56-7.71 1.26-12.91.24-1.8.37-3.78.48-5.58s.19-3.58.34-4.69c.11.68.51 2.4 1.07 4.6 1.48 5.81 4 14.92 4.59 16.72-1.89 1.09 1.39 13 3.48 20.87l1.79-.06c-.13-5.14-1.44-25.22-2.8-38.14z" fill="#d0817b"/><path d="M241.6 107.11a3.92 3.92 0 0 1-1.65.36 4 4 0 0 1-1.57-.32c0-.09 0-.18.06-.26a2.82 2.82 0 0 0-.1-1.7l3.21-.59v1.34c.05.38.06.77.05 1.17z" fill="#bf5f56"/><path d="M245.41 98.01a1.27 1.27 0 0 0-.73.21 9.85 9.85 0 0 0-2.1-4.21 3.34 3.34 0 0 0-1.39-1.12 2.4 2.4 0 0 0-.84-.25h-1.14a2.4 2.4 0 0 0-.84.25 3.34 3.34 0 0 0-1.39 1.12 9.85 9.85 0 0 0-2.1 4.21 1.27 1.27 0 0 0-.73-.21c-.75.06-1 1.25-.79 2.15a2.33 2.33 0 0 0 1.92 1.73 8.33 8.33 0 0 0 1.48 2.11 4.51 4.51 0 0 0 2.35 1.51h1.32a4.51 4.51 0 0 0 2.35-1.51 8.32 8.32 0 0 0 1.48-2.11 2.33 2.33 0 0 0 1.92-1.73c.23-.89-.02-2.08-.77-2.15z" fill="#d0817b"/><path d="M240.57 92.44a3.18 3.18 0 0 1-1.06 3.68c-1 .78-2.22 1.15-3.08 2a7.18 7.18 0 0 0-1.43 3l-.51-2.64a7.76 7.76 0 0 1-.21-2.38 6.17 6.17 0 0 1 2-3.49 5.8 5.8 0 0 1 1.31-1 5.42 5.42 0 0 1 6.3 1.26c1.32 1.76 1.6 3.53.35 9 .18-4.51-2.68-3.83-3.51-8.45" fill="#1c2343"/><path d="M240.15 103.11a2 2 0 0 0 1.34-1.42.14.14 0 1 0-.26-.07 1.87 1.87 0 0 1-2.11 1.33.14.14 0 1 0 0 .27 2.66 2.66 0 0 0 1.03-.11z" fill="#1c2343"/><ellipse cx="263.54" cy="111.25" rx=".81" ry=".4" transform="rotate(-86.12 246.405 117.35)" fill="#1c2343"/><ellipse cx="259.82" cy="111.18" rx=".81" ry=".4" transform="rotate(-86.12 242.693 117.28)" fill="#1c2343"/><path d="M242.45 98.7a.14.14 0 0 0 .07-.18 1.12 1.12 0 0 0-1.44-.66.13.13 0 0 0-.08.17.13.13 0 0 0 .17.08.86.86 0 0 1 1.09.52.14.14 0 0 0 .19.07zm-5.05-.29a.14.14 0 0 0 .09-.08.5.5 0 0 1 .66-.3.14.14 0 1 0 .08-.26.77.77 0 0 0-1 .46.14.14 0 0 0 .08.17z" fill="#1c2343"/><path d="M246.53 114.53v1a12.41 12.41 0 0 1-1.58 5.07l-2 3.58a4.59 4.59 0 0 0-.24 1.77 7.8 7.8 0 0 0 .07.84 8.62 8.62 0 0 0 .39 1.73c-2.07.44-7.79 1.39-10.64-.72a7.77 7.77 0 0 1 .74-.88 4.79 4.79 0 0 0 .52-.64 5.09 5.09 0 0 0 .9-2.9 5.15 5.15 0 0 0-.27-1.64l-.82-2.42-.21-.63a7.09 7.09 0 0 1 .13-4.87l.75-1.89c1.18-.43 2.65.94 4.91 1.07 2 .13 4.8-1.09 7.35.47-.01.39 0 .72 0 1.06z" fill="#9d446a"/><path d="M268 153.87l-7.08.6c-.56-2.2-1-3.93-1.07-4.6-.15 1.11-.23 2.81-.34 4.69a41.09 41.09 0 0 1-7-.82l-.54-6.11a13.08 13.08 0 0 1 1.15-5.9 11.36 11.36 0 0 1 2.14-3.36 4.79 4.79 0 0 0 .52-.64c2.09 2.05 6.19 1.86 9 .5a9.25 9.25 0 0 0 1 3.15 11.68 11.68 0 0 1 .8 2.14 84.11 84.11 0 0 1 1.42 10.35z" transform="translate(-22.05 -11.4)" fill="url(#ak)"/><path d="M268.58 143l-3.3.88c-3-5.88-3.26-12.26-2.94-16.51a11.72 11.72 0 0 1 2.1-5.82 2.52 2.52 0 0 0 .24-2.13l1.14.31 1.3.35a12.71 12.71 0 0 1 1.46 3.77 8.16 8.16 0 0 1 .1 1.11 17.22 17.22 0 0 1-.85 6c-1.29 3.9-1.74 5.96.75 12.04z" transform="translate(-22.05 -11.4)" fill="url(#al)"/><path d="M257.75 133.34l-.13 9.84s-3.18 0-4.49-1.44a1.94 1.94 0 0 1-.54-1.19c2-1.86 3.17-5 3-9.78l-.21-.63a7.45 7.45 0 0 1 0-5l2.35-5.57 1.26-.11 1-.09a3.06 3.06 0 0 0-.59 1.45 15.68 15.68 0 0 1-1.08 4.49 9.41 9.41 0 0 0-.7 4.51 34 34 0 0 1 .13 3.52z" transform="translate(-22.05 -11.4)" fill="url(#am)"/><path d="M227.69 102.29a4.33 4.33 0 0 1-2 3 1 1 0 0 1-.21.09.92.92 0 0 1-1-.35l-1.27-1.74a2.82 2.82 0 0 0 3-2.33l.85.32a.9.9 0 0 1 .59.79.74.74 0 0 1 .04.22z" fill="#fcc152"/><path d="M273.47 130.43c-2.07 0-3 1.74-3.31 3.49l-5.39-9.92.64-4.38s2.81.22 3.86 2.44z" transform="translate(-22.05 -11.4)" fill="url(#an)"/><path d="M251.8 124.54a2.77 2.77 0 0 1-3.31-1.32l-.39-.71c.35-1.75 1.23-3.44 3.31-3.49l.28.56.46-.5c-.2.24-2.39 2.95-.35 5.46z" fill="#fcc152"/><path d="M252.17 119.08l-.46.5-.28-.56a4 4 0 0 1 .74.06z" fill="#f9c8c8"/><path d="M264.71 108.6l-1.22.93a2.16 2.16 0 0 1-1.22.45c0-.09.06-.17.09-.24.16-.36.58-1 .24-1.06a10.89 10.89 0 0 0-2.75 2.15l-.65.72-7 7.56c-.19.23-2.39 2.94-.35 5.45a2.72 2.72 0 0 0 1.36-1l8.15-11.86c3.77.18 4-2 4-2.65.01-.39-.35-.67-.65-.45z" fill="#d0817b"/><path d="M239.06 102c-.61-.1-.7-.38-.71-.44a.14.14 0 0 1 0-.11l.82-1.22a.144.144 0 1 1 .24.16l-.77 1.15c.06.06.25.19.77.21a.14.14 0 0 1 .14.15.14.14 0 0 1-.15.14z" fill="#1c2343"/><path d="M77.92 161.74h69.54V166h-3v41a.46.46 0 0 1-.47.44h-3.22a.46.46 0 0 1-.47-.44v-41H88.94v41a.43.43 0 0 1-.44.41h-3.28a.43.43 0 0 1-.44-.41v-41h-6.86z" transform="translate(-22.05 -11.4)" fill="url(#ao)"/><path d="M74.9 162h75.56a1.29 1.29 0 0 0 1.33-1.23 1.29 1.29 0 0 0-1.33-1.23H74.9a1.29 1.29 0 0 0-1.33 1.23A1.29 1.29 0 0 0 74.9 162z" transform="translate(-22.05 -11.4)" fill="url(#ap)"/><path d="M280.55 158.13h44.11v4.23h-3v41a.46.46 0 0 1-.47.44H318a.46.46 0 0 1-.47-.44v-41h-26v41a.43.43 0 0 1-.44.41h-3.28a.43.43 0 0 1-.44-.41v-41h-6.86z" transform="translate(-22.05 -11.4)" fill="url(#aq)"/><path d="M277.54 158.39h50.14a1.29 1.29 0 0 0 1.33-1.23 1.29 1.29 0 0 0-1.33-1.23h-50.14a1.29 1.29 0 0 0-1.33 1.23 1.29 1.29 0 0 0 1.33 1.23z" transform="translate(-22.05 -11.4)" fill="url(#ar)"/><path d="M129.06 158.18l-.6-.45 6-7.82a.38.38 0 0 1 .53-.07.37.37 0 0 1 .07.52z" transform="translate(-22.05 -11.4)" fill="url(#as)"/><path d="M135.43 159h-10.55a.57.57 0 0 0-.57.56H136a.57.57 0 0 0-.57-.56z" transform="translate(-22.05 -11.4)" fill="url(#at)"/><path d="M95.95 177.83c-.88 3.3-1.79 6.13-2.3 7.68a4 4 0 0 0 0 2.36 45.47 45.47 0 0 1 .87 5.12 4.07 4.07 0 0 0 .69 1.79c1 1.29-2.39 1.74-3.7 1.18s-.54-5-.54-5-1.85-2.65 0-4.22v-.14c-.15-3.21-.28-6.54-.32-9.66-.09-7.58.33-13.93 2.21-14.27-.14 0-1.4-.47-1.54-.51-2.78-.87-4.64-2.29-5.08-4.57 0 0 11.26-1 11.94 3.81.55 4.42-.78 11.05-2.23 16.43z" fill="#f4a699"/><path d="M110.83 186.22a13.67 13.67 0 0 1-3.94-6.41c-1.92-2.47-4-5-6-7.5-4.95-6.16-9.36-12.18-9.23-16.94a3.05 3.05 0 0 1 1-2.14 3.19 3.19 0 0 1 2.21-.88 4.58 4.58 0 0 1 4.23 2.79l5.85 14.15 3.77 9.07a14.19 14.19 0 0 1 3.7 4 11.46 11.46 0 0 1 1 2.57c.46 1.67-1.36 2.55-2.59 1.29zM89.4 119.7a7.3 7.3 0 0 1 .83-5.3 3.83 3.83 0 0 1 2.28-2c1.9-.35 4.43-.13 5 4.26a2.54 2.54 0 0 0 .72 1.48c.42.41.71 1-.46 1.13a4.84 4.84 0 0 1-3.21 4.84 4 4 0 0 1-3.4-1.2 5.54 5.54 0 0 1-1.75-3z" fill="#f4a699"/><ellipse cx="118.35" cy="128.5" rx=".3" ry=".75" transform="rotate(-8.42 29.92 272.642)" fill="#1c2343"/><path d="M94.83 116.03a.16.16 0 0 0 .14-.11 1 1 0 0 1 1.24-.71.16.16 0 0 0 .2-.11.16.16 0 0 0-.11-.2 1.32 1.32 0 0 0-1.64.91.16.16 0 0 0 .1.2zm2.36 4.13a.16.16 0 0 0-.16-.08 1 1 0 0 1-1.18-.8.16.16 0 0 0-.18-.13.16.16 0 0 0-.13.18 1.32 1.32 0 0 0 1.53 1.07.16.16 0 0 0 .14-.18.15.15 0 0 0-.02-.06z" fill="#1c2343"/><path d="M90.35 121.6s-.88 5-.89 5l4.07.36a8 8 0 0 1 .6-4z" fill="#f4a699"/><path d="M91.48 195.95c-1.32-.57-.54-5-.54-5s-1.85-2.65 0-4.22c1.31-.15 2.63.13 2.8 3a10.4 10.4 0 0 0 .23 1.73 3.89 3.89 0 0 0 .57 1.47 4.07 4.07 0 0 0 .69 1.79c.98 1.34-2.44 1.79-3.75 1.23zm19.35-9.73a13.67 13.67 0 0 1-3.94-6.41 17.28 17.28 0 0 1 1.81-1.43l.87.71a13 13 0 0 1 2.85 3.23 11.46 11.46 0 0 1 1 2.57c.46 1.71-1.36 2.59-2.59 1.33z" fill="#1c2343"/><path d="M122.41 152.76a53.82 53.82 0 0 1-.45-6.3v-2.16a1 1 0 0 1 0-.13 6.26 6.26 0 0 1-.55.32 6.07 6.07 0 0 0 .55-.32 6.5 6.5 0 0 0-4.19-5.6l-.54-.18-.38-.85a1.93 1.93 0 0 0-1.15-1.2h-.05l-3.59-1.34a.3.3 0 0 0-.4.25l-.16 1.78a.64.64 0 0 1-.54.55 5.42 5.42 0 0 0-4.51 4.06c-1.47 5.88-1 13-4.65 22.11l10.77-.59c.13-2.17 2.42-11 2.42-11a3 3 0 0 0 2.69-2.32 9 9 0 0 0 .31-1.56c0-.22 0-.44.05-.66l.68 7.59a4.57 4.57 0 0 1 4 0zm-4.41-5.59a1.81 1.81 0 0 1 .35-.92 1.82 1.82 0 0 0-.35.92zm.36-.94z" transform="translate(-22.05 -11.4)" fill="url(#au)"/><path d="M111.04 144.8c-.18 2-2.9 1.55-2.9 1.55l-7.72 3.64a2.3 2.3 0 0 1-1.22.23 9.23 9.23 0 0 1 1.74-4.47v.12l6-1.46.54-.14a2.42 2.42 0 0 1-.05-.79.64.64 0 0 1 .65-.55h.95a1.62 1.62 0 0 1 1.32-.62c.6 0 .8 1.01.69 2.49z" fill="#f4a699"/><path d="M95.61 160.33H81.95a4.29 4.29 0 0 1-4.26-4.29 4.29 4.29 0 0 1 4.26-4.29H95.6a4.29 4.29 0 0 1 4.26 4.29 4.29 4.29 0 0 1-4.25 4.29z" fill="#1c2343"/><path d="M100.95 145.74a9.23 9.23 0 0 0-1.74 4.47 2.33 2.33 0 0 1-2.16-2.11l-.39-4.3a4.57 4.57 0 0 1 4 0z" fill="#fcc152"/><path d="M97.64 111.34a6.34 6.34 0 0 0-1.13-.36 29.5 29.5 0 0 0-4-.68 7.57 7.57 0 0 0-4.95.76c-2.08 1.36-2.58 4.14-3.94 6.22a18.29 18.29 0 0 1-3.19 3.33c-.89.81-1.83 1.78-1.82 3 0 1.42 1.32 2.47 1.79 3.81a3.44 3.44 0 0 1-.88 3.58c-1.53 1.42-4 1.15-5.8 2.23a1.92 1.92 0 0 0-1.09 1.68c.07.71.74 1.2 1.08 1.83a2.15 2.15 0 0 1-2.12 3.16 4.3 4.3 0 0 0 2.49 1.94 20.08 20.08 0 0 0 3.17.65c2.59.45 5.09 1.33 7.67 1.86a13.76 13.76 0 0 0 7.78-.27 7.2 7.2 0 0 1-2.63-1.62c-.3-.29-.6-.74-.39-1.1a1 1 0 0 1 .47-.37c1.62-.82 3.44-1.52 4.47-3.1.72-1.1 1.69-3.24.56-4.37-.48-1-1.38-1.93-1.53-3.07a7.73 7.73 0 0 1 .7-3.07 7.17 7.17 0 0 0-2.13-7.27 4.09 4.09 0 0 1-1-1.08 1 1 0 0 1 .26-1.34 1 1 0 0 1 1.09.22 2.85 2.85 0 0 1 .6 1 12.87 12.87 0 0 1 2.9-4.71 1 1 0 0 0 1.66-.92 1.43 1.43 0 0 1 .91.47 1.47 1.47 0 0 0-.23-1.91 2.57 2.57 0 0 0-.77-.5z" fill="#9d446a"/><path transform="rotate(180 98.49 187.12)" fill="url(#av)" d="M107.41 179.15h4.22v27.33h-4.22z"/><path d="M100.31 208.25h18.42a3.54 3.54 0 0 0-3.54-3.54h-11.35a3.54 3.54 0 0 0-3.54 3.54z" transform="translate(-22.05 -11.4)" fill="url(#aw)"/><path fill="url(#ax)" d="M92.95 154.03h1.8v8.88h-1.8z"/><path d="M103.17 166.45h15.53a1.39 1.39 0 0 0 1.39-1.39 1.39 1.39 0 0 0-1.39-1.39h-15.53z" transform="translate(-22.05 -11.4)" fill="url(#ay)"/><path d="M115 170.86h-2.89a4.11 4.11 0 0 1-4.1-3.78l.7-9a10 10 0 0 0-9.92-10.71A9.94 9.94 0 0 0 89 159.33c1.84 8.93 4.62 19.8 7.47 21a12.15 12.15 0 0 0 4.75 1h20.93a1.62 1.62 0 0 0 1.62-1.62 8.81 8.81 0 0 0-8.77-8.85z" transform="translate(-22.05 -11.4)" fill="url(#az)"/><path d="M194.77 30.13l-1.51 8.2-6.4 5-4.63 3.67a2.39 2.39 0 0 1-1.29-3.87l2.27-2.7.23-.28a62.42 62.42 0 0 0 4.56-6.36c3.09-4.88 6.77-3.66 6.77-3.66z" transform="translate(-22.05 -11.4)" fill="url(#aA)"/><path d="M183.7 8.02a7.37 7.37 0 0 0-.4-3.44 7.07 7.07 0 0 0-2-2.49c-1.15-.89-5.32-1.69-7.69.84a19.12 19.12 0 0 0-1.66 1.67 6.12 6.12 0 0 0-1.2 3.62 35 35 0 0 0 .47 4.73 11.68 11.68 0 0 1 .28 3.33c-.14 1-.47 2-.63 3a6.37 6.37 0 0 0 3.29 6.8 20.5 20.5 0 0 0 3.09 1.12c.88.24 1.81.3 2.67.57a3.76 3.76 0 0 1 1.27.62c.48.42.11.77.26 1.27a7 7 0 0 0 3.28-3.48 5.47 5.47 0 0 0 .14-4.89c-3.92-7.64-1.27-11.82-1.17-13.27z" fill="#fcc152"/><path d="M216.17 47l-5-4-6-4.73-1.51-8.2s3.68-1.21 6.78 3.66a63 63 0 0 0 4.48 6.3l.29.36 2.27 2.7a2.39 2.39 0 0 1-1.31 3.91z" transform="translate(-22.05 -11.4)" fill="url(#aB)"/><path d="M194.12 35.6l-5-4a4.66 4.66 0 0 1 3.76-3l.29.36 2.27 2.7a2.39 2.39 0 0 1-1.32 3.94z" fill="#fcc152"/><path d="M184.59 44.25l-13 .3a3.88 3.88 0 0 0-2.47 6.8l1.83 1.63 12.72.07s5.74-8.02.92-8.8z" fill="#1c2343"/><path d="M182.95 23.86c-.12.32-.61.61-1.32.84-2.91 1-9.55 1.14-10.16-.15l1.67-5a.68.68 0 0 1 0-.11l.28-.83.62-.07a2.22 2.22 0 0 0 .7-.26 1.42 1.42 0 0 0 .65-1 4.23 4.23 0 0 0 0-.46 2.56 2.56 0 0 0-.25-1.35l3.5-.84.13 1.43c0 .26 0 .53.06.8s0 .49 0 .74a.73.73 0 0 0 .65.72l.77.1 1.78 3.78z" fill="#f08472"/><path d="M181.66 38.51a2.44 2.44 0 0 1-.36-1.09v-.65a3.7 3.7 0 0 1 .17-1.25l.92-1.8 1.09-2.12c1.07-2.09 1.76-4.76.76-6.8s-.57-5-1.32-6.17a6.77 6.77 0 0 0-2.3-.22l-1-.09s2.24 6-2 6.29-3.49-6-3.49-6l-.62.07h-1a8 8 0 0 0-1.85.29l.16 1.63.06 2.49a8.56 8.56 0 0 1-.43 2 7.38 7.38 0 0 0 .15 5.22l1.16 2.77.17.42a5.37 5.37 0 0 1 0 4.18l-4.41 7.15c6.79 4.73 12.8 5 17.81-.52z" fill="#9d446a"/><path d="M192.68 48.81a12.17 12.17 0 0 0-.61-7.15 7.41 7.41 0 0 1-.15-5.22 8.75 8.75 0 0 0 .43-2L192.3 32l-.16-1.64a7.83 7.83 0 0 1 1.85-.28h1l.62-.07a10.49 10.49 0 0 0 0 1.76 14.52 14.52 0 0 1-.38 2.55q-.18 1.33-.3 2.66-.25 2.67-.31 5.35a65.09 65.09 0 0 0 .63 10.46 67.5 67.5 0 0 0 1.35 6.88 18.5 18.5 0 0 1-7.6-3.45c-.74-.6 1.09-2.3 1.45-2.73a10.68 10.68 0 0 0 2.23-4.68z" transform="translate(-22.05 -11.4)" fill="url(#aC)"/><path d="M207.82 55.65a11.87 11.87 0 0 1-6.27 3.88c5.52-26.88.66-29.84.66-29.84l1 .08a6.81 6.81 0 0 1 2.3.22c.75 1.2.33 4.17 1.31 6.17a7 7 0 0 1-.15 5.42c-.48 1.27-1.23 2.44-1.61 3.75a9.71 9.71 0 0 0 1.35 8c.14.23 1.59 2.14 1.41 2.32z" transform="translate(-22.05 -11.4)" fill="url(#aD)"/><path d="M183.33 8.13a1.34 1.34 0 0 0-.77.22 10.43 10.43 0 0 0-2.22-4.46 3.53 3.53 0 0 0-1.48-1.18 2.55 2.55 0 0 0-.89-.27 8.38 8.38 0 0 0-1.21 0 2.54 2.54 0 0 0-.89.27 3.53 3.53 0 0 0-1.48 1.18 10.43 10.43 0 0 0-2.22 4.46 1.35 1.35 0 0 0-.77-.22c-.79.07-1.05 1.33-.83 2.28a2.47 2.47 0 0 0 2 1.83 8.82 8.82 0 0 0 1.57 2.24 4.78 4.78 0 0 0 2.49 1.6h1.41a4.78 4.78 0 0 0 2.49-1.6 8.82 8.82 0 0 0 1.57-2.24 2.47 2.47 0 0 0 2-1.83c.28-.95.02-2.21-.77-2.28z" fill="#f4a699"/><path d="M177.75 13.53a2.06 2.06 0 0 0 1.42-1.51.146.146 0 0 0-.28-.08 2 2 0 0 1-2.23 1.41.14.14 0 1 0 0 .28 2.82 2.82 0 0 0 1.09-.1z" fill="#1c2343"/><ellipse cx="201.22" cy="21.46" rx=".64" ry=".37" transform="rotate(-86.12 184.095 27.561)" fill="#1c2343"/><ellipse cx="197.23" cy="21.37" rx=".64" ry=".37" transform="rotate(-86.12 180.098 27.474)" fill="#1c2343"/><path d="M180.19 8.86a.14.14 0 0 0 .07-.19 1.18 1.18 0 0 0-1.52-.7.14.14 0 0 0-.08.18.14.14 0 0 0 .18.08.91.91 0 0 1 1.16.55.14.14 0 0 0 .19.08zm-4.32-.55a.14.14 0 0 0-.06-.19 1.18 1.18 0 0 0-1.62.42.14.14 0 0 0 .05.19.14.14 0 0 0 .2-.05.91.91 0 0 1 1.24-.31.14.14 0 0 0 .19-.06zm.85 3.89c-.61-.1-.7-.38-.71-.44a.14.14 0 0 1 0-.11l.82-1.22a.144.144 0 1 1 .24.16l-.77 1.15c.06.06.25.19.77.21a.14.14 0 0 1 .14.15.14.14 0 0 1-.15.14z" fill="#1c2343"/><path d="M180.1 9.6h-1a1.41 1.41 0 0 0-1.56 1 1.6 1.6 0 0 0-.66-.13 1.44 1.44 0 0 0-.44.09 1.43 1.43 0 0 0-1.49-.96h-1c-.85 0-1.54.52-1.54 1.15s.69 1.15 1.54 1.15h1a1.53 1.53 0 0 0 1.48-.85.91.91 0 0 1 .51-.17 1.16 1.16 0 0 1 .72.25 1.57 1.57 0 0 0 1.44.77h1c.85 0 1.54-.52 1.54-1.15s-.69-1.15-1.54-1.15zm-5.18 2h-1c-.61 0-1.11-.37-1.11-.83s.5-.83 1.11-.83h1c.61 0 1.11.37 1.11.83s-.5.76-1.08.76zm5.18 0h-1c-.61 0-1.11-.37-1.11-.83s.5-.83 1.11-.83h1c.61 0 1.11.37 1.11.83s-.5.76-1.11.76z" fill="#1c2343"/><path fill="#1c2343" d="M181.42 10.37l.21.33.92-2.34.01-.57-1.14 2.58z"/><path d="M194.69 35.78l-6.26 4.12-1.69 1.11-1 .64-.61-1.62a.77.77 0 0 0 .25-.2l.08-.09 1.11-1.27s5.38-8.87 8.29-7.33a2.85 2.85 0 0 1-.17 4.64z" fill="#f4a699"/><path d="M185.78 41.65l-.14.1a1.57 1.57 0 0 1-.76.24l-2.77.07c.43 1-3.52 3-4.33 1.71 0 0 2-3.33 2.31-3.68l.42-.39a1.71 1.71 0 0 1 1.73-.37l2.2.76a.88.88 0 0 0 .72-.06z" fill="#f4a699"/><path d="M164.8 31.97l-4.62 3.63a2.39 2.39 0 0 1-1.29-3.87l2.27-2.7.23-.28a4.67 4.67 0 0 1 3.41 3.22z" fill="#fcc152"/><path d="M159.62 35.78l6.26 4.12 1.69 1.11 1 .64.61-1.62a.77.77 0 0 1-.25-.2l-.08-.09-1.11-1.27s-5.33-8.83-8.26-7.33a2.85 2.85 0 0 0 .14 4.64z" fill="#f4a699"/><path d="M168.53 41.65l.14.1a1.57 1.57 0 0 0 .76.24l2.77.07c-.43 1 3.52 3 4.33 1.71 0 0-2-3.33-2.31-3.68l-.42-.39a1.71 1.71 0 0 0-1.73-.37l-2.2.76a.88.88 0 0 1-.72-.06z" fill="#f4a699"/><path d="M186.83 35.19h-19.78a1 1 0 0 0-1 1.2l1.49 10.21a.87.87 0 0 0-.66.84.87.87 0 0 0 .86.86h18.27a.87.87 0 0 0 .86-.86.86.86 0 0 0-.83-.86l1.81-10.2a1 1 0 0 0-1.02-1.19z" fill="#1c2343"/><circle cx="199.35" cy="53.09" r="1.25" transform="rotate(-45 174.575 74.009)" fill="#fff"/><path d="M185.68 73.6l-1.83 1.49c-1.95-2.52-6.8-9.41-8.84-12-5-6.29-8-10.78-7.88-15.65a3.15 3.15 0 0 1 1-2.18 3.25 3.25 0 0 1 2.24-.9 4.65 4.65 0 0 1 4.29 2.85l4.5 12.82z" fill="#f4a699"/><path d="M190.46 80.22c-.78-2.83-1.75-4.1-4.23-6.21l-.51-.43-1.83 1.49c.09.34.2.67.3 1a14.33 14.33 0 0 0 3.65 5.53c1.25 1.27 3.11.34 2.62-1.38z" fill="#1c2343"/><path d="M187.02 47.43c.13 4.86-2.87 9.36-7.88 15.65-2 2.55-6.89 9.43-8.84 12l-1.87-1.48 6.56-13.56 4.5-12.82a4.65 4.65 0 0 1 4.29-2.85 3.24 3.24 0 0 1 2.24.9 3.15 3.15 0 0 1 1 2.16z" fill="#f4a699"/><path d="M168.43 73.6l-.9.77a10.34 10.34 0 0 0-3.83 5.87c-.48 1.72 1.37 2.66 2.61 1.37a14.32 14.32 0 0 0 3.54-5.16c.16-.42.32-.88.46-1.37z" fill="#1c2343"/><path d="M182.65 5.05c-.44-1.13-1.4-2.4-2.74-2.37a2.27 2.27 0 0 0-.63-1.62 2 2 0 0 0-1.38-.62c-1.07-.11-6.93.59-6.93 7.31a26 26 0 0 0 .82 4.37c.19.81.53 1.61.65 2.43a7.1 7.1 0 0 1-.46 3.27 3.38 3.38 0 0 0 .43 2.77c1.14 1.55 3 2.8 4.82 2.65-.72-.64-1.74-1-1.94-2.25s.56-1.54 1-2.4c1-1.91-1.45-3.27-2.16-4.51a6.54 6.54 0 0 1 .32-5.67c1.1-1.67 2.69-1.43 4-2.56a4.1 4.1 0 0 0 .58-.62c.15.2.33.39.45.53a3.13 3.13 0 0 0 1.23.82c.49.2 1 .3 1.26.82a2.87 2.87 0 0 1 .12 1.35c1.21-.89 1.03-2.46.56-3.7z" fill="#fcc152"/></g></svg>