<svg xmlns="http://www.w3.org/2000/svg" viewBox="0 0 400 225"><g data-name="Calque 1"><path fill="#248d83" d="M0 0h400v225H0z"/><g style="mix-blend-mode:multiply"><path d="M221.89 166.64c-1.75-.06-3.59-.16-5.46-.32l.18-2.15c1.83.16 3.63.26 5.34.32zm5.51-.03l-.14-2.16 1-.09c.86-.1 2.29-.3 4.21-.67l.4 2.12c-1.57.3-3.08.54-4.36.69-.31.05-.68.08-1.11.11zm-16.4-.87c-1.81-.24-3.63-.52-5.39-.83l.38-2.13c1.74.31 3.52.58 5.3.81zm27.23-1.09l-.52-2.1c1.71-.43 3.45-.91 5.15-1.43l.63 2.06c-1.74.54-3.49 1.03-5.26 1.47zm-37.96-.81c-1.8-.41-3.58-.86-5.29-1.34l.58-2.08c1.68.47 3.42.91 5.19 1.31zm48.4-2.39l-.74-2c1.7-.62 3.37-1.28 5-2l.85 2c-1.67.69-3.37 1.37-5.11 2zm-58.92-.57a90.63 90.63 0 0 1-5.12-1.93l.83-2c1.61.67 3.29 1.3 5 1.88zm68.95-3.76l-1-1.92c1.61-.82 3.18-1.68 4.66-2.57l1.11 1.85c-1.47.91-3.11 1.8-4.77 2.64zm-79.05-.45c-1.67-.84-3.28-1.74-4.8-2.67l1.13-1.84c1.46.9 3 1.77 4.64 2.58zm88.44-5.19l-1.25-1.76c1.46-1 2.87-2.14 4.17-3.27l1.41 1.64c-1.35 1.16-2.81 2.3-4.33 3.39zm-97.79-.59a49.23 49.23 0 0 1-4.2-3.57l1.49-1.56a47 47 0 0 0 4 3.41zm106.11-6.61l-1.57-1.48a45.26 45.26 0 0 0 3.39-4L280 140a47.51 47.51 0 0 1-3.59 4.28zm-114.07-1.01a40.57 40.57 0 0 1-3.19-4.52l1.85-1.12a38.22 38.22 0 0 0 3 4.28zm-5.72-9.45a39.67 39.67 0 0 1-1.81-5.23l2.09-.56a37.54 37.54 0 0 0 1.71 4.94zm-2.88-10.65c0-.31-.08-.62-.11-.93l2.15-.24q.05.45.11.89z" fill="#d1ebfa"/><path fill="#d1ebfa" d="M158.96 124.91l-4.09-1.47-3.89 1.93 3.44-9.69 4.54 9.23zm-10.32 36.65c0-.07-.92-1.86-2.24-5l2-.84c1.29 3.07 2.18 4.86 2.19 4.88zm-4.26-10.06c-.64-1.69-1.26-3.41-1.84-5.12l2-.69c.57 1.69 1.18 3.39 1.81 5.05zm-3.5-10.3c-.53-1.75-1-3.51-1.48-5.24l2.09-.55c.45 1.7.93 3.43 1.46 5.16zm-2.76-10.53c-.4-1.79-.76-3.59-1.07-5.34l2.13-.38c.31 1.73.66 3.49 1.05 5.25zm-1.91-10.73c-.24-1.83-.43-3.65-.58-5.42l2.15-.17c.14 1.73.33 3.52.56 5.32zm-.86-10.88v-2.14c0-1.11 0-2.22.06-3.33l2.16.08q-.06 1.62-.06 3.24v2.08zm2.59-10.69l-2.15-.24c.2-1.84.48-3.67.82-5.42l2.12.41c-.32 1.7-.59 3.46-.79 5.25zM140 88l-2.08-.59c.51-1.79 1.1-3.54 1.76-5.21l2 .79c-.68 1.56-1.23 3.25-1.68 5.01zm3.89-9.82l-1.92-1a50 50 0 0 1 2.82-4.74l1.79 1.2a48.19 48.19 0 0 0-2.73 4.5zm5.87-8.75L148.07 68l.72-.83c1-1.09 2-2.16 3-3.19l1.54 1.52c-1 1-2 2-2.91 3.11zm7.47-7.57l-1.43-1.62c1.36-1.2 2.77-2.37 4.21-3.49l1.32 1.71c-1.44 1.06-2.82 2.2-4.14 3.37zm8.42-6.51l-1.21-1.79c1.5-1 3.06-2 4.63-2.91l1.09 1.87c-1.56.86-3.08 1.81-4.55 2.79zm9.2-5.37l-1-1.93c1.62-.81 3.28-1.59 5-2.3l.85 2c-1.7.65-3.31 1.4-4.88 2.19zm77.76-2.17a36.71 36.71 0 0 1-5.52-.62l.42-2.12a34.43 34.43 0 0 0 5.2.58zm5.51-.05l-.12-2.19c1.71-.1 3.49-.27 5.3-.51l.28 2.14c-1.9.25-3.74.42-5.5.52zm10.86-1.42l-.42-2.12c1.72-.34 3.47-.75 5.2-1.2l.55 2.09c-1.81.42-3.6.84-5.37 1.19zm-84.32-.56l-.73-2c1.69-.61 3.44-1.18 5.19-1.7l.61 2.07c-1.73.44-3.46 1-5.11 1.59zm57-.47l-.26-.16a23.93 23.93 0 0 0-4.44-2l.72-2a25.88 25.88 0 0 1 4.85 2.23l.22.13zm37.87-1.75l-.67-2.05c1.7-.55 3.39-1.16 5-1.8l.79 2c-1.65.63-3.4 1.29-5.14 1.82zm-84.66-.81l-.5-2.1c1.77-.42 3.57-.79 5.35-1.1l.38 2.13c-1.76.26-3.52.62-5.25 1.03zm37-1c-1.64-.36-3.4-.66-5.23-.9l.28-2.14c1.89.24 3.71.55 5.41.93zm-26.51-.82l-.26-2.14c1.8-.22 3.63-.39 5.44-.51l.14 2.15c-1.77.03-3.56.2-5.32.41zm16-.56c-1.56-.09-3.17-.13-4.76-.13h-.6V38h.58c1.63 0 3.27 0 4.88.14zm68.34-.77l-.92-2c1.62-.76 3.22-1.57 4.74-2.42l1 1.89c-1.52.83-3.18 1.67-4.84 2.45zm9.57-5.33l-1.19-1.8c1.51-1 3-2 4.3-3.11L303.7 31c-1.4 1.07-2.89 2.15-4.45 3.18zm8.58-6.86l-1.51-1.55a45 45 0 0 0 3.55-3.89l1.68 1.36a47.08 47.08 0 0 1-3.74 4zm6.91-8.61l-1.86-1.2a34.69 34.69 0 0 0 2.36-4.66l2 .83a36.6 36.6 0 0 1-2.52 4.95z"/><path fill="#d1ebfa" d="M320.42 14.26l-3.53-2.54-4.27.78 5.99-8.37 1.81 10.13z"/><circle cx="198.11" cy="28.31" r="8.17" fill="#fff"/><path d="M193 26.6a2.84 2.84 0 0 1 .12-.82 2.12 2.12 0 0 1 .36-.7 1.77 1.77 0 0 1 .61-.49 2.17 2.17 0 0 1 1.76 0 1.82 1.82 0 0 1 .62.49 2.08 2.08 0 0 1 .36.7 2.9 2.9 0 0 1 0 1.63 2.08 2.08 0 0 1-.36.7 1.84 1.84 0 0 1-.62.49 2.17 2.17 0 0 1-1.76 0 1.79 1.79 0 0 1-.61-.49 2.12 2.12 0 0 1-.36-.7 2.83 2.83 0 0 1-.12-.81zm2.54 0a1.74 1.74 0 0 0-.13-.75.47.47 0 0 0-.86 0 1.74 1.74 0 0 0-.13.75 1.79 1.79 0 0 0 .13.75.47.47 0 0 0 .86 0 1.78 1.78 0 0 0 .15-.75zm1 5.17h-1.11a3.25 3.25 0 0 1-.46-.06l4.24-7.26h1.11a3.24 3.24 0 0 1 .46.06zm2.27-2.06a2.83 2.83 0 0 1 .12-.82 2.1 2.1 0 0 1 .36-.7 1.78 1.78 0 0 1 .61-.49 2.18 2.18 0 0 1 1.76 0 1.84 1.84 0 0 1 .62.49 2 2 0 0 1 .36.7 2.88 2.88 0 0 1 0 1.63 2.06 2.06 0 0 1-.36.7 1.81 1.81 0 0 1-.62.49 2.16 2.16 0 0 1-1.76 0 1.75 1.75 0 0 1-.61-.49 2.12 2.12 0 0 1-.36-.7 2.81 2.81 0 0 1-.1-.82zm2.54 0a1.77 1.77 0 0 0-.13-.75.47.47 0 0 0-.86 0 1.76 1.76 0 0 0-.13.75 1.8 1.8 0 0 0 .13.75.47.47 0 0 0 .86 0 1.81 1.81 0 0 0 .15-.76z" fill="#91d4f6"/><path d="M163.64 192.49a13.4 13.4 0 0 1-.71-26.72v-5.89a19.28 19.28 0 0 0 1.3 38.52v-5.89z" fill="#d1ebfa"/><path d="M162.93 188.17a5.5 5.5 0 0 1-2.85-1.58 4.88 4.88 0 0 1-1.11-1.69 5.42 5.42 0 0 1-.41-1.94h3.39a2.33 2.33 0 0 0 .71 1.62 2.37 2.37 0 0 0 1.58.59h.12a2.26 2.26 0 0 0 1.66-.64 2.17 2.17 0 0 0 .65-1.61 2.28 2.28 0 0 0-.79-1.82 5.7 5.7 0 0 0-1.63-.88l-.62-.21-.69-.22a8.54 8.54 0 0 1-1.45-.67 4.88 4.88 0 0 1-2.26-4.11 4.66 4.66 0 0 1 .69-2.47 4.94 4.94 0 0 1 1.87-1.8 4.74 4.74 0 0 1 1.16-.48v-4.5a13.4 13.4 0 0 0 .71 26.72l-.71-.05z" fill="#48baeb"/><path d="M165.59 192.45h-.38z" fill="#aad8d5"/><path d="M165.69 170.25a5.3 5.3 0 0 1 1.19.47 4.76 4.76 0 0 1 1.83 1.76 5.53 5.53 0 0 1 .75 2.56h-3.33a2 2 0 0 0-.61-1.33 1.91 1.91 0 0 0-1.3-.49h-.06a1.64 1.64 0 0 0-1.25.5 1.86 1.86 0 0 0-.48 1.31 1.69 1.69 0 0 0 .49 1.26 4 4 0 0 0 1.3.75l.41.16.74.25a9 9 0 0 1 2.63 1.35 4.83 4.83 0 0 1 1.84 3.91 5.53 5.53 0 0 1-2.8 4.86 5.79 5.79 0 0 1-1.39.56v4.3a13.4 13.4 0 0 0 0-26.64v4.46z" fill="#48baeb"/><path d="M164.22 192.52h-.58zm.99-.05h-1c.22.05.65.02 1 0zm.48-.03z" fill="#4bae9c"/><path d="M177.86 165.47a19.19 19.19 0 0 0-12.17-5.58c-.49 0-1-.07-1.46-.07s-.87 0-1.3.06v10.39a4.74 4.74 0 0 0-1.16.48 4.94 4.94 0 0 0-1.87 1.8 4.66 4.66 0 0 0-.69 2.47 4.88 4.88 0 0 0 2.26 4.11 8.54 8.54 0 0 0 1.45.67l.69.22.62.21a5.7 5.7 0 0 1 1.63.88 2.28 2.28 0 0 1 .79 1.82 2.17 2.17 0 0 1-.65 1.61 2.26 2.26 0 0 1-1.66.64h-.12a2.37 2.37 0 0 1-1.58-.59 2.33 2.33 0 0 1-.71-1.62h-3.39a5.42 5.42 0 0 0 .41 1.94 4.88 4.88 0 0 0 1.11 1.69 5.5 5.5 0 0 0 2.85 1.58v4.27l.71.05h1.58-1v5.89a19.29 19.29 0 0 0 13.64-32.93zm-4.16 23.12a13.33 13.33 0 0 1-8 3.84v-4.3a5.79 5.79 0 0 0 1.39-.56 5.53 5.53 0 0 0 2.8-4.86 4.83 4.83 0 0 0-1.89-3.91 9 9 0 0 0-2.67-1.34l-.74-.25-.41-.16a4 4 0 0 1-1.3-.75 1.69 1.69 0 0 1-.49-1.26 1.86 1.86 0 0 1 .48-1.31 1.64 1.64 0 0 1 1.25-.5h.06a1.91 1.91 0 0 1 1.3.49 2 2 0 0 1 .61 1.33h3.33a5.53 5.53 0 0 0-.75-2.56 4.76 4.76 0 0 0-1.83-1.76 5.3 5.3 0 0 0-1.19-.47v-4.46a13.4 13.4 0 0 1 8 22.8zm-65.87-71.5A5.87 5.87 0 0 0 102 123v3.15h11.7V123a5.87 5.87 0 0 0-5.87-5.91z" fill="#91d4f6"/><circle cx="107.83" cy="113.07" r="4.02" fill="#91d4f6"/><path d="M233.6 94.27l5-3.33a14.49 14.49 0 0 0 6.83 1.64c6.34 0 11.47-3.72 11.47-8.31S251.76 76 245.43 76 234 79.67 234 84.27a6.65 6.65 0 0 0 1.59 4.22z" fill="#91d4f6"/><circle cx="251.36" cy="84.27" r="1.66" fill="#48baeb"/><circle cx="245.43" cy="84.27" r="1.66" fill="#48baeb"/><circle cx="239.5" cy="84.27" r="1.66" fill="#48baeb"/><path d="M219.86 18.34l-3.72-2.47a10.79 10.79 0 0 1-5.08 1.22c-4.71 0-8.53-2.77-8.53-6.18s3.82-6.18 8.53-6.18 8.53 2.77 8.53 6.18a5 5 0 0 1-1.18 3.09z" fill="#91d4f6"/><circle cx="206.65" cy="10.9" r="1.24" fill="#48baeb"/><circle cx="211.06" cy="10.9" r="1.24" fill="#48baeb"/><circle cx="215.47" cy="10.9" r="1.24" fill="#48baeb"/><path d="M230.52 88.47l-7 4.65a20.23 20.23 0 0 0-9.52-2.29c-8.85 0-16 5.2-16 11.62s7.18 11.61 16 11.61 16-5.2 16-11.61a9.3 9.3 0 0 0-2.22-5.9z" fill="#91d4f6"/><circle cx="205.69" cy="102.44" r="2.32" fill="#48baeb"/><circle cx="213.98" cy="102.44" r="2.32" fill="#48baeb"/><circle cx="222.27" cy="102.44" r="2.32" fill="#48baeb"/><path fill="#91d4f6" d="M183.07 209.67h-42.48v1.37h68.52v-1.37h-26.04zm0 2.74h-42.48v1.37h68.52v-1.37h-26.04zm0 2.74h-42.48v1.37h68.52v-1.37h-26.04zm0 2.74h-42.48v1.37h68.52v-1.37h-26.04zm0 2.74h-42.48V222h68.52v-1.37h-26.04zm-42.48-19.15h68.52v1.37h-68.52zm0 2.74h68.52v1.37h-68.52zm0 2.74h68.52v1.37h-68.52zM124.8 94.23v42.47h1.37V68.19h-1.37v26.04zm2.74 0v42.47h1.37V68.19h-1.37v26.04zm2.74 0v42.47h1.37V68.19h-1.37v26.04zm-14.64 0v42.47H117V68.19h-1.36v26.04zm205.23-36.56h-16.11v1.37h25.98v-1.37h-9.87zm-16.11-8.19h25.98v1.37h-25.98zm0 2.74h25.98v1.37h-25.98zm0 2.74h25.98v1.37h-25.98zm-27.213 56.909l21.383-21.383 4.822 4.822-21.382 21.383z"/><path fill="#48baeb" d="M282.469 113.372l-1.606-1.605 19.665-19.678 1.606 1.604z"/><path fill="#fff" d="M277.533 111.843l1.711-1.712 2.412 2.411-1.711 1.712zm2.417 2.409l1.711-1.71 2.411 2.411-1.711 1.711zm25.36-23.132l-1.56 4.19-2.41-2.42 2.87-2.87 1.1 1.1z"/><path fill="#fff" d="M303.11 88.92l1.1 1.1-2.87 2.87-2.41-2.41 4.18-1.56z"/><path d="M275.1 118l.56.57.57.56a2.61 2.61 0 0 0 3.69 0l2.45-2.45-2.37-2.4-2.41-2.41-2.45 2.45a2.61 2.61 0 0 0-.04 3.68zm28.01-29.08l1.1 1.1 1.1 1.1 1.31-3.51-3.51 1.31z" fill="#91d4f6"/></g><path fill="#48baeb" d="M164.94 58.89l-11.31-7.33v10.62h22.62V51.56l-11.31 7.33z"/><path fill="#1e8fbf" d="M176.25 51.56h-22.62l11.31 7.33 11.31-7.33z"/><path fill="#18989f" d="M156.7 59.43h1.64v1.64h-1.64z"/><path fill="#fff" d="M159.16 59.43h1.64v1.64h-1.64zm2.77.67h6.03v.97h-6.03z"/><g opacity=".43"><path fill="#fff" d="M153.64 51.56h11.31v10.62h-11.31z" opacity=".74"/></g><path d="M202.23 211q-.77 0-1.54-.06l.16-2.09a17.66 17.66 0 0 0 4.89-.3l.42 2.05a19.66 19.66 0 0 1-3.93.4zm-6.9-1.26a19.37 19.37 0 0 1-4.81-2.64l1.26-1.67a17.38 17.38 0 0 0 4.29 2.36zm16-1l-1-1.85a17.33 17.33 0 0 0 4-2.87l1.46 1.51a19.56 19.56 0 0 1-4.46 3.27zm-24.72-5.3l-3.68-3.68 1.48-1.48 3.68 3.68zm32.86-1.61L218 200.4l3.68-3.68 1.48 1.48zm-40.22-5.75l-3.68-3.68L177 191l3.68 3.68zm47.59-1.61l-1.49-1.47 3.68-3.68 1.48 1.48zm-55-5.75l-3.68-3.68 1.48-1.48 3.68 3.68zm62.32-1.61l-1.48-1.48 3.72-3.63 1.48 1.48zm-69.68-5.75l-3.68-3.68 1.48-1.48 3.68 3.68zm77-1.61l-1.48-1.48 3.68-3.68 1.48 1.48zM157.15 174l-3.68-3.68 1.48-1.48 3.68 3.68zm91.78-1.61l-1.48-1.48 3.68-3.68 1.48 1.48zm-99.14-5.75L146.1 163l1.48-1.48 3.68 3.68zm106.51-1.61l-1.48-1.48 3.68-3.68 1.48 1.48zm-113.87-5.75l-3.68-3.68 1.48-1.48 3.68 3.68zm121.24-1.61l-1.48-1.48 3.68-3.68 1.48 1.48zm-128.6-5.75l-3.68-3.68 1.48-1.48 3.68 3.68zm136-1.61l-1.48-1.48 3.68-3.68 1.48 1.48zm-143.33-5.75l-3.74-3.67 1.48-1.48 3.68 3.68zM278.39 143l-1.48-1.48 3.68-3.68 1.48 1.48zm-158.06-5.75l-3.68-3.68 1.48-1.48 3.68 3.68zm165.43-1.61l-1.48-1.48 3.68-3.68 1.48 1.48zM113 129.85l-3.68-3.68 1.48-1.48 3.68 3.68zm180.16-1.61l-1.48-1.48 3.68-3.68 1.53 1.43-.1.1zm-187.46-6a19.32 19.32 0 0 1-2.56-4.85l2-.7a17.27 17.27 0 0 0 2.29 4.33zm194.47-2.08l-1.84-1a17.32 17.32 0 0 0 1.72-4.59l2 .45a19.39 19.39 0 0 1-1.92 5.1zM102 112v-1.22a19.68 19.68 0 0 1 .47-4.25l2 .45a17.59 17.59 0 0 0-.42 3.8v1.09zm198.39-2.33a17.42 17.42 0 0 0-1-4.79l2-.71a19.53 19.53 0 0 1 1.11 5.37zm-194.19-7.26l-1.84-1a19.52 19.52 0 0 1 3.28-4.41l1.48 1.48a17.51 17.51 0 0 0-2.93 3.9zm190.91-1.86a17.59 17.59 0 0 0-1.78-2.08l-1.63-1.63 1.48-1.48L296.8 97a19.7 19.7 0 0 1 2 2.33zm-184.3-5.76l-1.48-1.48 3.67-3.69 1.48 1.48zM290 93.14l-3.68-3.68L287.8 88l3.68 3.68zm-169.83-5.72l-1.48-1.48 3.68-3.68 1.48 1.48zm162.47-1.65L279 82.09l1.48-1.48 3.68 3.68zm-155.1-5.71l-1.48-1.48 3.68-3.68 1.48 1.48zm147.74-1.65l-3.68-3.68 1.48-1.48 3.68 3.68zM134.9 72.69l-1.48-1.48 3.68-3.68 1.49 1.47zm133-1.65l-3.68-3.68 1.48-1.48 3.68 3.68zm-125.63-5.71l-1.48-1.48 3.68-3.68 1.53 1.47zm118.28-1.65L256.86 60l1.48-1.48 3.66 3.67zM149.64 58l-1.48-1.48 3.68-3.68 1.48 1.48zm103.55-1.65l-3.68-3.68 1.49-1.52 3.68 3.68zM157 50.6l-1.48-1.48 3.68-3.68 1.48 1.48zm88.81-1.65l-3.68-3.68 1.48-1.48 3.68 3.68zm-81.45-5.72l-1.48-1.48 3.68-3.68 1.44 1.48zm74.08-1.65l-3.68-3.68 1.48-1.48 3.68 3.68zm-66.72-5.72l-1.48-1.48 3.68-3.68 1.48 1.48zm59.35-1.65l-3.68-3.68 1.48-1.48 3.68 3.68zm-52-5.72L177.61 27l3.68-3.68 1.48 1.48zm44.62-1.65L220 23.17l1.48-1.48 3.68 3.68zm-37.26-5.71L185 19.66l3.7-3.69 1.46 1.51zm29.89-1.65l-1.81-1.81a17.66 17.66 0 0 0-1.85-1.67l1.26-1.67a19.5 19.5 0 0 1 2.08 1.86l1.84 1.81zm-22.26-4.9l-1-1.85a19.38 19.38 0 0 1 5.16-1.86l.42 2.05a17.4 17.4 0 0 0-4.55 1.67zm14.27-.9a17.39 17.39 0 0 0-4.78-1.06l.16-2.09a19.57 19.57 0 0 1 5.36 1.19z" fill="#344142"/><path fill="#7cc7bd" d="M238.26 62.39l-13.47-8.73V66.3h26.93V53.66l-13.46 8.73z"/><path fill="#aad8d5" d="M251.72 53.66h-26.93l13.47 8.73 13.46-8.73z"/><path fill="#18989f" d="M228.44 63.03h1.96v1.96h-1.96z"/><path fill="#fff" d="M231.37 63.03h1.96v1.96h-1.96z"/><path fill="#7cc7bd" d="M234.67 63.83h7.18v1.15h-7.18z"/><g opacity=".43"><path fill="#fff" d="M224.79 53.66h13.47v12.65h-13.47z" opacity=".74"/></g><path fill="#7cc7bd" d="M191.58 186.76l-7.03-4.56v6.61h14.07v-6.61l-7.04 4.56z"/><path fill="#aad8d5" d="M198.62 182.2h-14.07l7.03 4.56 7.04-4.56z"/><path fill="#18989f" d="M186.45 187.09h1.02v1.02h-1.02z"/><path fill="#fff" d="M187.99 187.09h1.02v1.02h-1.02z"/><path fill="#7cc7bd" d="M189.71 187.52h3.75v.6h-3.75z"/><g opacity=".43"><path fill="#fff" d="M184.55 182.2h7.04v6.6h-7.04z" opacity=".74"/></g><path fill="#7cc7bd" d="M222.63 161.22l-21.32-13.82v20.02h42.64V147.4l-21.32 13.82z"/><path fill="#aad8d5" d="M243.95 147.4h-42.64l21.32 13.82 21.32-13.82z"/><path fill="#18989f" d="M207.09 162.23h3.1v3.1h-3.1z"/><path fill="#fff" d="M211.73 162.23h3.1v3.1h-3.1z"/><path fill="#7cc7bd" d="M216.95 163.51h11.36v1.82h-11.36z"/><g opacity=".43"><path fill="#fff" d="M201.31 147.4h21.32v20.02h-21.32z" opacity=".74"/></g><path fill="#355a60" d="M228.56 178.51l-9.2-5.96v8.64h18.4v-8.64l-9.2 5.96z"/><path fill="#344142" d="M237.76 172.55h-18.4l9.2 5.96 9.2-5.96z"/><path fill="#18989f" d="M221.85 178.95h1.34v1.34h-1.34z"/><path fill="#fff" d="M223.86 178.95h1.34v1.34h-1.34z"/><path fill="#7cc7bd" d="M226.11 179.5h4.9v.79h-4.9z"/><g opacity=".43"><path fill="#fff" d="M219.36 172.55h9.2v8.64h-9.2z" opacity=".74"/></g><path fill="#355a60" d="M229.09 46.78l-9.2-5.97v8.64h18.4v-8.64l-9.2 5.97z"/><path fill="#344142" d="M238.29 40.81h-18.4l9.2 5.97 9.2-5.97z"/><path fill="#18989f" d="M222.39 47.21h1.34v1.34h-1.34z"/><path fill="#fff" d="M224.39 47.21h1.34v1.34h-1.34z"/><path fill="#7cc7bd" d="M226.64 47.76h4.9v.78h-4.9z"/><g opacity=".43"><path fill="#fff" d="M219.89 40.81h9.2v8.64h-9.2z" opacity=".74"/></g><circle cx="199.8" cy="100.09" r="32.09" fill="#7cc7bd"/><path d="M179.47 100.21q0 5.54 4.65 5.54a7.62 7.62 0 0 0 1.58-.16 15.86 15.86 0 0 0 1.82-.52 14 14 0 0 1 1.15 3.87c-.51.19-1 .35-1.41.47a10.78 10.78 0 0 1-1.25.28c-.4.06-.8.1-1.19.13s-.8 0-1.22 0a9.86 9.86 0 0 1-3.91-.72 7.8 7.8 0 0 1-2.82-2 8.46 8.46 0 0 1-1.71-3.06 12.53 12.53 0 0 1-.57-3.87 12.16 12.16 0 0 1 .6-3.88 9 9 0 0 1 1.74-3.1 7.79 7.79 0 0 1 2.81-2 9.36 9.36 0 0 1 3.79-.73 14.71 14.71 0 0 1 2.38.19 12.2 12.2 0 0 1 2.51.73 7.63 7.63 0 0 1-.39 2.08 15.35 15.35 0 0 1-.71 1.76l-1-.31c-.29-.09-.56-.16-.83-.21s-.52-.09-.78-.12-.54 0-.84 0a4 4 0 0 0-3.24 1.42 6.61 6.61 0 0 0-1.16 4.21zM191 90.82l2.37-.25a21.22 21.22 0 0 1 2.29-.12 15.37 15.37 0 0 1 2.87.27 7.72 7.72 0 0 1 2.56 1 5.36 5.36 0 0 1 1.83 1.86 5.73 5.73 0 0 1 .7 3 6.38 6.38 0 0 1-.22 1.74 6.09 6.09 0 0 1-.58 1.37 5.52 5.52 0 0 1-.78 1 7.27 7.27 0 0 1-.85.76l4.08 8.05q-.63.11-1.37.16c-.49 0-.94.05-1.35.05s-.75 0-1.22-.05a10 10 0 0 1-1.22-.16l-3.71-8.55.23-.13a3 3 0 0 0 .69-.52 5 5 0 0 0 .71-.88 5.52 5.52 0 0 0 .55-1.14 3.93 3.93 0 0 0 .22-1.31 2.32 2.32 0 0 0-.73-1.91 2.75 2.75 0 0 0-1.8-.6 3.11 3.11 0 0 0-.44 0 .91.91 0 0 0-.24.05v15a14 14 0 0 1-2.27.24 13.81 13.81 0 0 1-2.33-.24zm16.65 0l1.19-.14c.43 0 .83-.07 1.19-.07a11 11 0 0 1 1.14.07l1.14.14 3.71 9.73 3.85-9.73 1.06-.14a8.82 8.82 0 0 1 1.06-.07 10.11 10.11 0 0 1 1.13.07l1.12.14.89 18.67-.93.16a9.22 9.22 0 0 1-1.34.08 11.88 11.88 0 0 1-2.17-.24l-.37-10.82-2.88 7.14-.94.13a8 8 0 0 1-.86.05h-.81a6.42 6.42 0 0 1-.86-.14l-2.56-7-.29 10.72a9.87 9.87 0 0 1-2.09.24 11.05 11.05 0 0 1-2.12-.24z" fill="#fff"/><path d="M240.34 100.09a40.49 40.49 0 0 0-37.51-40.32v3.33a37.1 37.1 0 0 1 0 74v3.34a40.48 40.48 0 0 0 37.51-40.35z" fill="#48baeb"/><path d="M162.79 100.09A37.15 37.15 0 0 1 197 63.1v-3.34a40.43 40.43 0 0 0 0 80.65v-3.34a37.15 37.15 0 0 1-34.21-36.98z" fill="#91cfc9"/><path d="M199.73 54.9a45.23 45.23 0 0 1 45 41.77h3.34a48.5 48.5 0 0 0-96.75 0h3.34a45.23 45.23 0 0 1 45.07-41.77z" fill="#ebc31b"/><path d="M199.73 145.27a45.24 45.24 0 0 1-45.12-42.78h-3.33a48.51 48.51 0 0 0 96.9 0h-3.33a45.24 45.24 0 0 1-45.12 42.78z" fill="#f49817"/><path fill="#ebc31b" d="M246.13 100.54l-4.83-7.74h9.66l-4.83 7.74z"/><path fill="#f49817" d="M153.24 98.61l4.83 7.75h-9.66l4.83-7.75z"/><path fill="#48baeb" d="M198.95 138.51l7.75-4.83v9.66l-7.75-4.83z"/><path fill="#91cfc9" d="M200.89 61.7l-7.75 4.83v-9.66l7.75 4.83z"/><path d="M199.73 82.66a19.76 19.76 0 0 1 9.18 2.26 4.26 4.26 0 0 0 5-.76 4.28 4.28 0 0 0-1-6.8 28.37 28.37 0 0 0-26.33 0 4.28 4.28 0 0 0-1 6.8 4.26 4.26 0 0 0 5 .76 19.75 19.75 0 0 1 9.15-2.26z" fill="#fff" opacity=".51"/><path d="M199 116.78a19.75 19.75 0 0 1-9.18-2.26 4.26 4.26 0 0 0-5 .76 4.28 4.28 0 0 0 1 6.8 28.38 28.38 0 0 0 26.33 0 4.28 4.28 0 0 0 1-6.8 4.26 4.26 0 0 0-5-.76 19.74 19.74 0 0 1-9.15 2.26z" fill="#079cd9" opacity=".52"/><path d="M185.15 139c0 1.74 1.39 2.71 3.16 4a3.15 3.15 0 0 0 3.14-3.16v-8.3a3.15 3.15 0 0 0-3.16-3.14 3.15 3.15 0 0 0-3.14 3.16z" fill="#f7b59e"/><path d="M213.5 150.66l-.08-24.51v-.74a3.15 3.15 0 1 0-6.3 0v-2.36a3.15 3.15 0 1 0-6.29 0V121a3.14 3.14 0 0 0-6.27-.2v-13.12a3.16 3.16 0 0 0-6.31 0v15.62l.08 25.08v7.31l25.17-.08z" fill="#fac9b4"/><circle cx="200.9" cy="146.42" r="5.76" transform="rotate(-.18 197.127 143.55)" fill="#fff"/><path d="M207.77 142.92A7.7 7.7 0 0 0 194 143h-5.71v8.22h6.51a7.69 7.69 0 0 0 12.16 0h6.51V143zm-6.85 9.27a5.76 5.76 0 1 1 5.75-5.78 5.77 5.77 0 0 1-5.75 5.78z" fill="#344142"/><path d="M204.55 146.11H202a1.11 1.11 0 0 0-.75-.75v-3.59h-.62v3.6a1.1 1.1 0 1 0 1.37 1.36h2.59z" fill="#274347"/><path d="M188.35 155.44h-.91a11.93 11.93 0 0 0 12 11.91H201v-11.94z" fill="#91d4f6"/><path d="M214.44 155.36h-13.5v11.94h1.58a11.93 11.93 0 0 0 11.89-12z" fill="#48baeb"/><path d="M155.65 97.37v-1.11h-.9v-9.1a2.19 2.19 0 0 0-2.19-2.16h-1.72a1.12 1.12 0 0 0-2.23 0h-.67l-6.34-11h-9.9v-1.76H127V74h-10l-6.34 11h-.62a1.12 1.12 0 0 0-2.23 0h-1.72a2.19 2.19 0 0 0-2.19 2.19v9.1h-.9v1.11h-.85v4.34a21.4 21.4 0 0 0 21.38 21.22h11.68a21.4 21.4 0 0 0 21.29-21.26v-4.33z" fill="#7f8080" opacity=".52"/><path d="M125.43 120zm-2.92 0zm30.26-25.52h-6.56v14.44a3.69 3.69 0 0 1-3.69 3.69h-16.06V120h5.89a21.4 21.4 0 0 0 21.27-21.21v-4.31zm-.67 2.28a.76.76 0 1 1 .76-.76.76.76 0 0 1-.76.77zm-26.68 15.87h-15a3.69 3.69 0 0 1-3.69-3.69V94.48h-7.44v4.34A21.4 21.4 0 0 0 120.67 120h5.79v-7.41zm-24.61-15.86a.76.76 0 1 1 .76-.76.76.76 0 0 1-.76.76z" fill="#355a60"/><path d="M125.42 112.63h-15a3.69 3.69 0 0 1-3.69-3.69V94.48h-7.44v4.34A21.4 21.4 0 0 0 120.67 120h5.79v-7.41zm-24.61-15.86a.76.76 0 1 1 .76-.76.76.76 0 0 1-.76.76z" fill="#fff" opacity=".34"/><path d="M113.61 85.58a4.61 4.61 0 0 1 .26-1.51h-6.68V85l6.42 11.12zm27.71 6.93l2.51-4.35 1.89-3.28v-.82h-5.14a4.59 4.59 0 0 1 .73 2.49zm-9.24-4.21v-.18.18z" fill="#136194"/><path d="M110.18 84.06h3.68a4.62 4.62 0 0 1 4.37-3.06 3.16 3.16 0 0 1-3.16-3.16 3.11 3.11 0 0 1 .06-.64c0-.07 0-.14.06-.21a2.87 2.87 0 0 1 .12-.39c0-.08.08-.14.12-.22a3.14 3.14 0 0 1 .18-.32c0-.07.11-.13.16-.2a3.19 3.19 0 0 1 .23-.27c.06-.06.14-.11.2-.17a2.83 2.83 0 0 1 .27-.22l.24-.13a3.07 3.07 0 0 1 .3-.16l.22-.07h.15l.22-.07h.65a3 3 0 0 1 .6.06 3.1 3.1 0 0 1 .56.17 3.17 3.17 0 0 1 1.74 1.8 3.14 3.14 0 0 1-3 4.27 4.62 4.62 0 0 1 4.22 2.75h.42a3.09 3.09 0 0 1 .6.06 3.07 3.07 0 0 1 .56.17l.22.1v-3.5a3.15 3.15 0 0 1 .07-.64c0-.07 0-.14.06-.21a3.26 3.26 0 0 1 .12-.39c0-.08.08-.14.12-.21a2.87 2.87 0 0 1 .18-.33c0-.07.11-.13.16-.2a3 3 0 0 1 .23-.27c.06-.06.14-.11.2-.17a3.24 3.24 0 0 1 .27-.22l.24-.13a3.28 3.28 0 0 1 .3-.16l.22-.07h.15l.22-.07h.65a3.21 3.21 0 0 1 .6.06 3.07 3.07 0 0 1 .56.17 3.16 3.16 0 0 1 1.74 1.8 3.12 3.12 0 0 1 .21 1.11V83c0-.05.09-.11.14-.16s.14-.11.2-.17a2.77 2.77 0 0 1 .27-.22 2.57 2.57 0 0 1 .24-.13 3.06 3.06 0 0 1 .3-.16l.22-.07h.15l.22-.07h.79a3.18 3.18 0 0 1 .6.06 3.24 3.24 0 0 1 .56.17 3.36 3.36 0 0 1 .43.22 4.59 4.59 0 0 1 2-.48 3.14 3.14 0 0 1-3-4.27 3.17 3.17 0 0 1 1.74-1.8 3.07 3.07 0 0 1 .56-.17 3.21 3.21 0 0 1 .6-.06h.12a3.15 3.15 0 0 1 .42 0h.11l.22.07h.15l.22.07a2.54 2.54 0 0 1 .29.16l.25.13a2.92 2.92 0 0 1 .26.21 2.46 2.46 0 0 1 .21.17 3 3 0 0 1 .22.26c.05.07.12.13.17.2a3 3 0 0 1 .17.32c0 .07.09.14.12.22a3.58 3.58 0 0 1 .12.38c0 .07.05.14.07.21a3.17 3.17 0 0 1-3.1 3.8 4.61 4.61 0 0 1 3.89 2.13h2.14a2 2 0 0 1-2-2h4.3l-6.34-11h-9.9v1.76h-4.5v-1.66h-10l-6.34 11h4.35a2 2 0 0 1-1.93 1.94z" fill="#91d4f6"/><path fill="#f8ac1a" d="M124.1 71.12h4.72v1.76h-4.72zm0-1.76h4.72v1.76h-4.72z"/><path fill="#fff" d="M124.1 69.36h4.72v1.76h-4.72z" opacity=".46"/><path d="M113.61 96.09l.53.92h4.09v-2.77a4.31 4.31 0 0 1 1.45-3.24v-4.17a3.19 3.19 0 0 1 .06-.64c0-.07 0-.14.06-.21a3.33 3.33 0 0 1 .12-.39c0-.07.08-.14.12-.21a3.18 3.18 0 0 1 .18-.32c0-.07.11-.13.16-.2a3.06 3.06 0 0 1 .23-.27c.06-.06.13-.11.2-.17a3.34 3.34 0 0 1 .27-.22l.24-.13a3.31 3.31 0 0 1 .3-.16l.22-.07h.15l.22-.07h.23a4.62 4.62 0 0 0-8.84 1.87z" fill="#24b3a9"/><path d="M118.23 74.63zm-3.17 3.17a3.11 3.11 0 0 1 .06-.64 3.11 3.11 0 0 0-.06.64zm1.14-2.41a2.83 2.83 0 0 1 .27-.22 2.83 2.83 0 0 0-.27.22zm5.19 2.41a3.15 3.15 0 0 0-.21-1.11h-.06a2.24 2.24 0 0 1-1.44-.58 2.17 2.17 0 0 0-1.42-.52h-.16a3.15 3.15 0 0 1-3 2.2 3.16 3.16 0 0 0 6.32 0zm-5.62-1.97a3.19 3.19 0 0 1 .23-.27 3.19 3.19 0 0 0-.23.27zm-.34.52a3.14 3.14 0 0 1 .18-.32 3.14 3.14 0 0 0-.18.32zm3.42-1.65zm.6.18zM115.19 77a3 3 0 0 1 .12-.39 2.87 2.87 0 0 0-.12.39zm1.51-2a3.07 3.07 0 0 1 .3-.16 3.07 3.07 0 0 0-.3.16zm.9-.3l-.22.07z" fill="#f7b59e"/><path d="M118.09 75.6h.16a2.17 2.17 0 0 1 1.42.52 2.24 2.24 0 0 0 1.44.58h.09a3.17 3.17 0 0 0-1.74-1.8 3.1 3.1 0 0 0-.56-.17 3 3 0 0 0-.6-.06 3.09 3.09 0 0 1-.21.93zm-.7-.84h-.15zm.85-.13h-.53a3.19 3.19 0 0 1 .53 0z" fill="#3e2813"/><path d="M118.09 75.6a3.09 3.09 0 0 0 .16-1 3.19 3.19 0 0 0-.54.05h-.11l-.21.06h-.16l-.22.07a3.07 3.07 0 0 0-.3.16l-.24.13a2.83 2.83 0 0 0-.27.22c-.07.06-.14.11-.2.17a3.19 3.19 0 0 0-.23.27c-.05.07-.11.13-.16.2a3.14 3.14 0 0 0-.18.32c0 .07-.08.14-.12.22a3 3 0 0 0-.12.39c0 .07 0 .14-.06.21a3.11 3.11 0 0 0-.06.64 3.15 3.15 0 0 0 3.02-2.11z" fill="#7f4d12"/><path d="M136 84a3.14 3.14 0 0 1-3 4.27 3.18 3.18 0 0 1-.91-.15v.2a4.3 4.3 0 0 1 .61 0h.3a4.62 4.62 0 0 1 4.62 4.62V97h1.11l2.6-4.51v-6a4.61 4.61 0 0 0-6.66-4.14A3.18 3.18 0 0 1 136 84z" fill="#18989f"/><path d="M139.62 77.54a3.58 3.58 0 0 1 .12.38 3.58 3.58 0 0 0-.12-.38zm-2.92-1.93zm1.23.25a2.54 2.54 0 0 1 .29.16 2.54 2.54 0 0 0-.29-.16zm.54.29a2.92 2.92 0 0 1 .26.21 2.92 2.92 0 0 0-.26-.21zm.46.39a3 3 0 0 1 .22.26 3 3 0 0 0-.22-.26zm-2.93-.85zm3.32 1.31a3 3 0 0 1 .17.32 3 3 0 0 0-.17-.32zm-1.77-1.26l-.22-.07.21.07zm2.31 3.03a3.15 3.15 0 0 1-3-2.2h-.16a2.18 2.18 0 0 0-1.42.52 2.23 2.23 0 0 1-1.44.58h-.06a3.16 3.16 0 1 0 6.11 1.11z" fill="#f7b59e"/><path d="M139.8 78.14a3.18 3.18 0 0 1 .06.64 3.18 3.18 0 0 0-.06-.64zm-4.33-2.28z" fill="#f7b59e"/><path d="M137.22 75.66a3.15 3.15 0 0 0-.42 0h-.11a3.08 3.08 0 0 1 .53 0zm.49.13h-.15z" fill="#3e2813"/><path d="M135.26 77.09a2.18 2.18 0 0 1 1.42-.52h.16a3.13 3.13 0 0 1-.16-1 3.21 3.21 0 0 0-.6.06 3.07 3.07 0 0 0-.56.17 3.17 3.17 0 0 0-1.74 1.8h.09a2.23 2.23 0 0 0 1.39-.51z" fill="#3e2813"/><path d="M136.84 76.57a3.15 3.15 0 0 0 3 2.2 3.18 3.18 0 0 0-.06-.64c0-.07 0-.14-.07-.21a3.58 3.58 0 0 0-.12-.38c0-.08-.08-.14-.12-.22a3 3 0 0 0-.17-.32c0-.07-.11-.14-.17-.2a3 3 0 0 0-.22-.26 2.46 2.46 0 0 0-.21-.17 2.92 2.92 0 0 0-.26-.21l-.25-.13a2.54 2.54 0 0 0-.29-.16l-.22-.07h-.16l-.21-.07h-.11a3.08 3.08 0 0 0-.54-.05 3.13 3.13 0 0 0 .18.89z" fill="#7f4d12"/><path fill="#fff" d="M143.83 88.17l.01-.01-.01.01z"/><path d="M126.46 109.95h-1v-.68h1v-8.73h-2.36V97h-10l-.53-.92L107.19 85v4.59a2.21 2.21 0 0 1-.49 1.38v18a3.69 3.69 0 0 0 3.69 3.69h16.07zm-7.08-.68v.68h-2v-.68zm-6.1 0h2v.68h-2zm-4.12-16.81h.68v2h-.68zm0 4.07h.68v2h-.68zm0 4.07h.68v2h-.68zm0 4.07h.68v2h-.68zm2.08 5.28h-.4a1.69 1.69 0 0 1-1.58-1.1l.64-.24a1 1 0 0 0 .94.66h.4zm12.21 0h-2v-.68h2z" fill="#48baeb"/><path d="M145.73 89.56v-4.68l-1.89 3.28-2.51 4.35-2.61 4.49h-9.9v3.52h-2.36v8.73h1.06v.68h-1.06v2.68h16.07a3.69 3.69 0 0 0 3.69-3.69v-18a2.21 2.21 0 0 1-.49-1.36zm-2.57 2.89h.68v2h-.68zm0 4.07h.68v2h-.68zm0 4.07h.68v2h-.68zm-3.43 8.68v.68h-2v-.68zm-4.07 0v.68h-2v-.68zm-4.07.68h-2v-.68h2zm10.56 0h-.39v-.68h.39a1 1 0 0 0 .95-.66l.64.23a1.69 1.69 0 0 1-1.59 1.11zm1-3.25v-2h.68v2z" fill="#079cd9"/><path fill="#e84612" d="M124.1 98.78v1.76h4.72v-1.76h-4.72z"/><path fill="#48baeb" d="M125.48 109.27h.98v.68h-.98z"/><path fill="#fff" d="M125.48 109.27h.98v.68h-.98z"/><path fill="#48baeb" d="M109.15 92.46h.68v2.03h-.68z"/><path fill="#fff" d="M109.15 92.46h.68v2.03h-.68z"/><path fill="#48baeb" d="M113.27 109.27h2.03v.68h-2.03z"/><path fill="#fff" d="M113.27 109.27h2.03v.68h-2.03z"/><path fill="#48baeb" d="M109.15 96.53h.68v2.03h-.68z"/><path fill="#fff" d="M109.15 96.53h.68v2.03h-.68z"/><path fill="#48baeb" d="M109.15 104.67h.68v2.04h-.68z"/><path fill="#fff" d="M109.15 104.67h.68v2.04h-.68z"/><path fill="#48baeb" d="M117.34 109.27h2.04v.68h-2.04z"/><path fill="#fff" d="M117.34 109.27h2.04v.68h-2.04z"/><path fill="#48baeb" d="M109.15 100.6h.68v2.04h-.68z"/><path fill="#fff" d="M109.15 100.6h.68v2.04h-.68z"/><path fill="#48baeb" d="M121.41 109.27h2.03v.68h-2.03z"/><path fill="#fff" d="M121.41 109.27h2.03v.68h-2.03z"/><path d="M109.89 108.61l-.64.24a1.69 1.69 0 0 0 1.58 1.1h.4v-.68h-.4a1 1 0 0 1-.94-.66z" fill="#48baeb"/><path d="M109.89 108.61l-.64.24a1.69 1.69 0 0 0 1.58 1.1h.4v-.68h-.4a1 1 0 0 1-.94-.66z" fill="#fff"/><path fill="#079cd9" d="M143.16 104.66h.68v2.04h-.68z"/><path fill="#fff" d="M143.16 104.66h.68v2.04h-.68z"/><path fill="#079cd9" d="M143.16 96.52h.68v2.04h-.68z"/><path fill="#fff" d="M143.16 96.52h.68v2.04h-.68z"/><path fill="#079cd9" d="M137.69 109.27h2.03v.68h-2.03z"/><path fill="#fff" d="M137.69 109.27h2.03v.68h-2.03z"/><path fill="#079cd9" d="M129.55 109.27h2.04v.68h-2.04z"/><path fill="#fff" d="M129.55 109.27h2.04v.68h-2.04z"/><path fill="#079cd9" d="M133.62 109.27h2.04v.68h-2.04z"/><path fill="#fff" d="M133.62 109.27h2.04v.68h-2.04z"/><path fill="#079cd9" d="M143.16 92.45h.68v2.04h-.68z"/><path fill="#fff" d="M143.16 92.45h.68v2.04h-.68z"/><path fill="#079cd9" d="M143.16 100.59h.68v2.04h-.68z"/><path fill="#fff" d="M143.16 100.59h.68v2.04h-.68z"/><path fill="#079cd9" d="M126.46 109.27h1.06v.68h-1.06z"/><path fill="#fff" d="M126.46 109.27h1.06v.68h-1.06z"/><path d="M142.15 109.27h-.39v.68h.39a1.69 1.69 0 0 0 1.59-1.11l-.64-.23a1 1 0 0 1-.95.66z" fill="#079cd9"/><path d="M142.15 109.27h-.39v.68h.39a1.69 1.69 0 0 0 1.59-1.11l-.64-.23a1 1 0 0 1-.95.66z" fill="#fff"/><path fill="#e84612" d="M127.46 97.02h-3.36v1.76h4.72v-1.76h-1.36z"/><path fill="#fff" d="M127.46 97.02h-3.36v1.76h4.72v-1.76h-1.36z" opacity=".46"/><path d="M127.46 83.68a4.58 4.58 0 0 1 2.46.71v-.13a3.3 3.3 0 0 1 .12-.39c0-.08.08-.14.12-.21a3.06 3.06 0 0 1 .18-.32c0-.07.11-.13.16-.2l.09-.11v-2.51a3.16 3.16 0 0 1-3.13 3.16z" fill="#3e2813"/><path d="M126.59 83.54v.22a4.57 4.57 0 0 1 .88-.09 3.14 3.14 0 0 1-.88-.13z" fill="#3e2813"/><path d="M127.46 94.54V97h.91v-4.41a4.32 4.32 0 0 1 3.71-4.27v-.18a3.15 3.15 0 0 1-2.18-3.65v-.08a4.58 4.58 0 0 0-3.33-.63v1.62a2.27 2.27 0 0 1-.58 1.51v4.27a4.6 4.6 0 0 1 1.47 3.36z" fill="#f49817"/><path d="M124.67 79.07a2.87 2.87 0 0 1 .18-.33 2.87 2.87 0 0 0-.18.33zm3.42-1.65zm-1.25 0l-.22.07zm1.85.18zm-4.39 2.92a3.15 3.15 0 0 1 .07-.64 3.15 3.15 0 0 0-.07.64zm4.61-1.69a2.17 2.17 0 0 0-1.42-.53h-.16a3.16 3.16 0 0 1-.74 1.25v4a3.13 3.13 0 0 0 3.83-4.13h-.06a2.24 2.24 0 0 1-1.45-.59zm-4.48.84a3.26 3.26 0 0 1 .12-.39 3.26 3.26 0 0 0-.12.39zm.57-1.12a3 3 0 0 1 .23-.27 3 3 0 0 0-.23.27zm.94-.79a3.28 3.28 0 0 1 .3-.16 3.28 3.28 0 0 0-.3.16zm-.5.35a3.24 3.24 0 0 1 .27-.22 3.24 3.24 0 0 0-.27.22zm2.02-.76z" fill="#f7b59e"/><path d="M127.48 77.36h-.53a3.2 3.2 0 0 1 .53 0zm.01 0a3.14 3.14 0 0 1-.16 1h.16a2.17 2.17 0 0 1 1.42.53 2.24 2.24 0 0 0 1.44.58h.09a3.16 3.16 0 0 0-1.74-1.8 3.07 3.07 0 0 0-.56-.17 3.21 3.21 0 0 0-.6-.06zm-.86.12h-.15zm-.81 8.25a3.15 3.15 0 0 1 .21 1.11v.07a2.27 2.27 0 0 0 .58-1.51v-5.84a3.14 3.14 0 0 1-2.26 1V84a3.18 3.18 0 0 1 1.47 1.73z" fill="#3e2813"/><path d="M126.59 79.56a3.33 3.33 0 0 0 .9-2.21 3.2 3.2 0 0 0-.54 0h-.11l-.21.06h-.16l-.22.07a3.28 3.28 0 0 0-.3.16l-.24.13a3.24 3.24 0 0 0-.27.22c-.07.06-.14.11-.2.17a3 3 0 0 0-.23.27c-.05.07-.11.13-.16.2a2.87 2.87 0 0 0-.18.33c0 .07-.08.14-.12.21a3.26 3.26 0 0 0-.12.39c0 .07 0 .14-.06.21a3.15 3.15 0 0 0-.07.64 3.14 3.14 0 0 0 2.29-.85z" fill="#7f4d12"/><path d="M119.68 86.83V91a4.3 4.3 0 0 1 2.53-1.07 3.16 3.16 0 0 1-2.53-3.1zm3.67 3.12a4.6 4.6 0 0 1 2.65 1.22v-4.34a3.16 3.16 0 0 1-2.65 3.12z" fill="#3e2813"/><path d="M127.46 97v-2.46a4.63 4.63 0 0 0-4.11-4.59 3.2 3.2 0 0 1-.51 0v7h4.62z" fill="#ebc31b"/><path d="M124.07 83.92zm-.6-.18zm-.62-.07zM119.81 86a3.33 3.33 0 0 1 .12-.39 3.33 3.33 0 0 0-.12.39zm-.13.83a3.19 3.19 0 0 1 .06-.64 3.19 3.19 0 0 0-.06.64zm.32-1.44a3.18 3.18 0 0 1 .18-.32 3.18 3.18 0 0 0-.18.32zm.82-.96a3.34 3.34 0 0 1 .27-.22 3.34 3.34 0 0 0-.27.22zm-.43.44a3.06 3.06 0 0 1 .23-.27 3.06 3.06 0 0 0-.23.27zm1.23-.95a3.31 3.31 0 0 0-.3.16 3.31 3.31 0 0 1 .3-.16zm.6-.18l-.22.07zm-.01 6.19h.63V90a3.2 3.2 0 0 0 .51 0 3.13 3.13 0 0 0 2.44-4.22h-.07a2.23 2.23 0 0 1-1.44-.58 2.18 2.18 0 0 0-1.42-.53h-.16a3.15 3.15 0 0 1-3 2.2 3.16 3.16 0 0 0 2.51 3.06z" fill="#f7b59e"/><path d="M122.86 83.67h-.53a3.06 3.06 0 0 1 .53 0zm.01.01a3.11 3.11 0 0 1-.16 1h.16a2.18 2.18 0 0 1 1.42.53 2.23 2.23 0 0 0 1.44.58h.09A3.18 3.18 0 0 0 124.3 84l-.22-.1a3.07 3.07 0 0 0-.56-.17 3.09 3.09 0 0 0-.6-.06zm-.87.12h-.15z" fill="#3e2813"/><path d="M122.32 83.72h-.11l-.21.06h-.16l-.22.07a3.31 3.31 0 0 0-.3.16l-.24.13a3.34 3.34 0 0 0-.27.22c-.07.06-.14.1-.2.17a3.06 3.06 0 0 0-.23.27c-.05.07-.11.13-.16.2a3.18 3.18 0 0 0-.18.32c0 .07-.08.14-.12.21a3.33 3.33 0 0 0-.12.39c0 .07 0 .13-.06.21a3.19 3.19 0 0 0-.06.64 3.15 3.15 0 0 0 3-2.2 3.11 3.11 0 0 0 .16-1 3.06 3.06 0 0 0-.52.15z" fill="#7f4d12"/><path d="M133 88.27V97h4.62v-4.11a4.62 4.62 0 0 0-4.62-4.62z" fill="#91d4f6"/><path d="M132.37 82l-.22.07zm-.9.35a3.06 3.06 0 0 1 .3-.16 3.06 3.06 0 0 0-.3.16zm2.75-.16zm-3.22.51a2.77 2.77 0 0 1 .27-.22 2.77 2.77 0 0 0-.27.22zm2.62-.7zm-.62-.05zm-2.92 1.92a3.3 3.3 0 0 0-.12.39 3.3 3.3 0 0 1 .12-.39zm.68-1c-.05 0-.09.11-.14.16l-.09.11a3.12 3.12 0 0 1 .23-.27zm-.56.79a3.06 3.06 0 0 1 .18-.32 3.06 3.06 0 0 0-.18.32zm1.87 4.46a3.12 3.12 0 0 0 4.07-3 3.14 3.14 0 0 0-.21-1.11h-.07a2.23 2.23 0 0 1-1.44-.58 2.18 2.18 0 0 0-1.42-.53h-.16a3.15 3.15 0 0 1-3 2.2 3.15 3.15 0 0 0 2.23 3.02z" fill="#f7b59e"/><path d="M129.9 84.47a3.18 3.18 0 0 0-.06.64 3.18 3.18 0 0 1 .06-.64z" fill="#f7b59e"/><path d="M132.16 82.07h-.15zm.84-.12h-.53a3.17 3.17 0 0 1 .53 0zm0 0a3.1 3.1 0 0 1-.16 1h.16a2.18 2.18 0 0 1 1.42.52 2.23 2.23 0 0 0 1.44.58h.14a3.18 3.18 0 0 0-1.31-1.58 3.36 3.36 0 0 0-.43-.22 3.24 3.24 0 0 0-.56-.17 3.18 3.18 0 0 0-.6-.06z" fill="#3e2813"/><path d="M130.54 83.14c-.05.07-.11.13-.16.2a3.06 3.06 0 0 0-.18.32c0 .07-.08.14-.12.21a3.3 3.3 0 0 0-.12.39v.21a3.18 3.18 0 0 0-.06.64 3.15 3.15 0 0 0 3-2.2 3.1 3.1 0 0 0 .16-1 3.17 3.17 0 0 0-.54 0h-.11l-.21.06-.16.05-.22.07a3.06 3.06 0 0 0-.3.16 2.57 2.57 0 0 0-.24.13 2.77 2.77 0 0 0-.27.22c-.07.06-.14.1-.2.17a3.12 3.12 0 0 0-.27.37z" fill="#7f4d12"/><path d="M119.68 91.17V91a4.31 4.31 0 0 0-1.46 3.23v.3a4.61 4.61 0 0 1 1.46-3.36z" fill="#24b3a9"/><path d="M119.68 91.17V91a4.31 4.31 0 0 0-1.46 3.23v.3a4.61 4.61 0 0 1 1.46-3.36z" fill="#fff" opacity=".53"/><path d="M122.34 89.95h-.12a4.3 4.3 0 0 0-2.54 1.05v.17a4.6 4.6 0 0 1 2.66-1.22z" fill="#3e2813"/><path d="M122.34 89.95h-.12a4.3 4.3 0 0 0-2.54 1.05v.17a4.6 4.6 0 0 1 2.66-1.22z" fill="#fff" opacity=".53"/><path d="M122.85 90a3.2 3.2 0 0 1-.51 0 4.63 4.63 0 0 0-4.11 4.59V97h4.62z" fill="#ebc31b"/><path d="M122.85 90a3.2 3.2 0 0 1-.51 0 4.63 4.63 0 0 0-4.11 4.59V97h4.62z" fill="#fff" opacity=".53"/><path d="M122.85 89.92h-.63.12a3.2 3.2 0 0 0 .51 0z" fill="#f7b59e"/><path d="M122.85 89.92h-.63.12a3.2 3.2 0 0 0 .51 0z" fill="#fff" opacity=".53"/><path d="M133 88.27h-.3a4.3 4.3 0 0 0-.61 0 4.67 4.67 0 0 1 .91 0z" fill="#18989f"/><path d="M133 88.27h-.3a4.3 4.3 0 0 0-.61 0 4.67 4.67 0 0 1 .91 0z" fill="#fff" opacity=".53"/><path d="M128.37 92.59v.3a4.62 4.62 0 0 1 3.71-4.53 4.32 4.32 0 0 0-3.71 4.23z" fill="#f49817"/><path d="M128.37 92.59v.3a4.62 4.62 0 0 1 3.71-4.53 4.32 4.32 0 0 0-3.71 4.23z" fill="#fff" opacity=".53"/><path d="M132.08 88.36a4.62 4.62 0 0 0-3.71 4.53V97H133v-8.73a4.67 4.67 0 0 0-.92.09z" fill="#91d4f6"/><path d="M132.08 88.36a4.62 4.62 0 0 0-3.71 4.53V97H133v-8.73a4.67 4.67 0 0 0-.92.09z" fill="#fff" opacity=".53"/><path d="M104.95 84.06v-2h-1.71a2.19 2.19 0 0 0-2.24 2.22v7.21h3.9zm0 7.74v-.31h-3.9v1.89h3.9V91.8zm2.24-7.74h3a2 2 0 0 0 2-2h-5v.05zM105 82.09z" fill="#f7b59e"/><path d="M104.95 84.06v7.74a2.27 2.27 0 0 0 2.24-2.24V82.1a1.12 1.12 0 0 0-2.23 0v.05z" fill="#fac9b4"/><path fill="#91d4f6" d="M105.85 94.48v-1.1h-5.71v1.1h5.71z"/><path d="M148 84.06v7.43h3.9v-7.21a2.19 2.19 0 0 0-2.19-2.19H148v2z" fill="#f7b59e"/><path fill="#f7b59e" d="M147.97 91.8v1.58h3.9v-1.89h-3.9v.31zm-5.24-7.74h3V82.1h-5a2 2 0 0 0 2 1.96zm5.27-1.97v.05z"/><path d="M145.73 84.06v5.5A2.26 2.26 0 0 0 148 91.8v-9.7a1.12 1.12 0 0 0-2.23 0v.05z" fill="#fac9b4"/><path fill="#91d4f6" d="M147.07 93.38v1.1h5.7v-1.1h-5.7z"/><circle cx="152.1" cy="96.01" r=".76" fill="#91d4f6"/><circle cx="100.81" cy="96.01" r=".76" fill="#91d4f6"/><circle cx="213.3" cy="22.3" r="11.87" fill="#df6710"/><circle cx="213.27" cy="22.23" r="9.46" fill="#fff"/><path d="M213.33 10.4zm2.16.21l.72.16zm-3.4-.14zm.04 23.66zm2.6-.03h-.35zm3.39-.92c-.5.19-1 .38-1.39.51a11.6 11.6 0 0 0 1.39-.51zm-1.63-22.34l.64.19zm-.6 23.07l-.39.08z" fill="#ebc31b"/><path d="M218.26 33.13l-.14.07zm-3.26.94l.48-.09-.78.12zm1.6-.33h.13c-.27.08-.55.15-.83.22zm-1.54-23.21a10.51 10.51 0 0 0-1.69-.12 12 12 0 0 1 2.13.2zm-2.93 23.6a7.92 7.92 0 0 0 1.44.06l.8-.05c-.34 0-.69.05-1 .05a11.9 11.9 0 0 1-1.24-.06zm.05-23.67c.36 0 .72-.05 1.09-.05q-.53 0-1.09.05zm4.03.31l.28.07zm1.73.56l-.8-.29c.27.09.54.19.8.29z" fill="#18989f"/><path d="M209.83 16.29a6.93 6.93 0 1 0 3.51-1 7 7 0 0 0-3.52 1z" fill="#f49817"/><circle cx="213.34" cy="22.23" r="4.6" fill="#fff"/><circle cx="213.33" cy="22.23" r="2.3" fill="#ebc31b"/><path d="M164.33 22.3a.88.88 0 0 0 .88.88h48.22v-1.77h-48.22a.88.88 0 0 0-.88.89z" fill="#48baeb"/><path fill="#344142" d="M215.2 22.3l-1.87 1.87v-3.75l1.87 1.88z"/><path d="M167.88 19.26H164a.35.35 0 0 0-.25.6l1.55 1.55h6.14l-1.17-1.17a3.35 3.35 0 0 0-2.39-.98z" fill="#355a60"/><path d="M167.88 25.33H164a.35.35 0 0 1-.25-.6l1.55-1.55h6.14l-1.17 1.17a3.34 3.34 0 0 1-2.39.98z" fill="#344142"/><path fill="#f49817" d="M153.63 143.83l-18.69-12.12v17.55h37.37v-17.55l-18.68 12.12z"/><path fill="#ebc31b" d="M172.31 131.71h-37.37l18.69 12.12 18.68-12.12z"/><path fill="#18989f" d="M140 144.71h2.71v2.71H140z"/><path fill="#fff" d="M144.07 144.71h2.72v2.71h-2.72z"/><path fill="#48baeb" d="M148.65 145.83h9.96v1.6h-9.96z"/><g opacity=".43"><path fill="#fff" d="M134.94 131.71h18.68v17.55h-18.68z" opacity=".74"/></g><path fill="#f49817" d="M264.26 138.94l-12.5-8.1v11.73h25v-11.73l-12.5 8.1z"/><path fill="#ebc31b" d="M276.76 130.84h-25l12.5 8.1 12.5-8.1z"/><path fill="#18989f" d="M255.15 139.53h1.82v1.81h-1.82z"/><path fill="#fff" d="M257.87 139.53h1.82v1.81h-1.82z"/><path fill="#48baeb" d="M260.93 140.28h6.66v1.07h-6.66z"/><g opacity=".43"><path fill="#fff" d="M251.76 130.84h12.5v11.74h-12.5z" opacity=".74"/></g><path fill="#f49817" d="M182.51 44.54l-12.5-8.1v11.73h25V36.44l-12.5 8.1z"/><path fill="#ebc31b" d="M195.01 36.44h-25l12.5 8.1 12.5-8.1z"/><path fill="#18989f" d="M173.4 45.13h1.82v1.82h-1.82z"/><path fill="#fff" d="M176.12 45.13h1.82v1.82h-1.82z"/><path fill="#48baeb" d="M179.18 45.88h6.66v1.07h-6.66z"/><g opacity=".43"><path fill="#fff" d="M170.01 36.44h12.5v11.74h-12.5z" opacity=".74"/></g><path fill="#7f8080" d="M177.45 159.02H156.2v19.96h42.51v-19.96h-21.26z" opacity=".52"/><path fill="#48baeb" d="M173.5 168.85l-21.26-13.78v19.96h42.51v-19.96l-21.25 13.78z"/><path fill="#1e8fbf" d="M194.75 155.07h-42.51l21.26 13.78 21.25-13.78z"/><path fill="#18989f" d="M158 169.86h3.09v3.09H158z"/><path fill="#fff" d="M162.63 169.86h3.09v3.09h-3.09zm5.2 1.27h11.33v1.81h-11.33z"/><g opacity=".43"><path fill="#fff" d="M152.24 155.07h21.26v19.96h-21.26z" opacity=".74"/></g><path d="M283.08 64.86a3.63 3.63 0 0 0-.24-1.28 3.67 3.67 0 0 0-2-2.09 3.48 3.48 0 0 0-.65-.2 3.62 3.62 0 0 0-.69-.07h-.14a4 4 0 0 0-.49 0h-.12c-.09 0-.17.05-.26.08l-.18.05-.25.08a3.65 3.65 0 0 0-.34.19 2 2 0 0 0-.59.4 2.82 2.82 0 0 0-.24.2 3.69 3.69 0 0 0-.26.31c-.06.08-.14.15-.19.23a3.73 3.73 0 0 0-.2.37c0 .09-.1.16-.14.25a3.75 3.75 0 0 0-.14.45c0 .08-.06.15-.07.23a3.7 3.7 0 0 0-.07.74 3.66 3.66 0 0 0 7.31 0zM311 98.87l-4-3.05v1.7h-1l-.06-.08a49.93 49.93 0 0 0-12.07-11.12l.87-.87 1.2 1.21.67-5-5 .68 1.2 1.2-1.37 1.37a26.38 26.38 0 0 0-10.7-3.23v-5h4v-3.17a5 5 0 0 0-5-5h-.69a5 5 0 0 0-5 5v3.22h4v5a26.38 26.38 0 0 0-10.7 3.23L266 83.55l1.2-1.2-5-.67.67 5 1.2-1.21.87.87a49.93 49.93 0 0 0-12.07 11.12l-.06.08h-1v-1.7l-4 3.05 4 3.05v-1.7h1l.06.08A50 50 0 0 0 265 111.41l-1.37 1.37-1.2-1.2-.68 5 5-.68-1.21-1.2 1.87-1.87a26.38 26.38 0 0 0 10.7 3.23v1.54h-1.7l3.05 4 3.05-4h-1.7V116a26.38 26.38 0 0 0 10.7-3.23l1.85 1.85-1.2 1.2 5 .67-.68-5-1.2 1.21-1.34-1.35a50 50 0 0 0 12.07-11.12l.06-.08h1v1.7z" fill="#7f8080" opacity=".52"/><path d="M273.92 70.07l3.05-4h-.34a5 5 0 0 0-5 5v3.21h4v-4.21zm4.4 0v4.21h4v-3.22a5 5 0 0 0-5-5H277l3.05 4z" fill="#f49817"/><path d="M274.63 59.62a3.57 3.57 0 0 1 .3-.25 3.66 3.66 0 0 0-.3.25zm-.5.5a3.55 3.55 0 0 1 .26-.31 3.55 3.55 0 0 0-.26.31zm2.87-1.37zm-1.79.46a3.76 3.76 0 0 1 .34-.19 3.76 3.76 0 0 0-.34.19zm-1.9 3.19a3.65 3.65 0 0 1 .07-.74 3.65 3.65 0 0 0-.07.74zm7.32 0a3.63 3.63 0 0 0-.24-1.28h-.07a2.59 2.59 0 0 1-1.67-.67 2.52 2.52 0 0 0-1.64-.61h-.19a3.64 3.64 0 0 1-3.46 2.54 3.66 3.66 0 1 0 7.31 0zm-7.17-.97a3.57 3.57 0 0 1 .14-.45 3.57 3.57 0 0 0-.14.45zm.28-.7a3.6 3.6 0 0 1 .2-.37 3.6 3.6 0 0 0-.2.37zm3.95-1.91zm-1.44 0l-.26.08zm2.14.18z" fill="#f7b59e"/><path d="M276.81 59.86h.19a2.52 2.52 0 0 1 1.64.61 2.59 2.59 0 0 0 1.67.67h.11a3.67 3.67 0 0 0-2-2.08 3.55 3.55 0 0 0-.65-.2 3.61 3.61 0 0 0-.69-.07 3.6 3.6 0 0 1-.27 1.07zm-.81-.97l-.18.06zm1-.14h-.13a3.58 3.58 0 0 0-.49 0 3.59 3.59 0 0 1 .62 0z" fill="#3e2813"/><path d="M276.81 59.86a3.6 3.6 0 0 0 .19-1.11 3.59 3.59 0 0 0-.62.06h-.12l-.25.07-.19.06-.25.08a3.76 3.76 0 0 0-.34.19c-.09.05-.19.09-.28.15a3.57 3.57 0 0 0-.3.25c-.08.07-.17.12-.24.2a3.55 3.55 0 0 0-.26.31c-.06.08-.14.15-.19.23a3.6 3.6 0 0 0-.2.37c0 .09-.1.16-.14.25a3.57 3.57 0 0 0-.14.45c0 .08-.06.15-.07.23a3.65 3.65 0 0 0-.07.74 3.64 3.64 0 0 0 3.47-2.53z" fill="#7f4d12"/><path d="M278.32 79.23v-9.16H280l-3.05-4-3.05 4h1.7v9.16h1.35c.45 0 .92-.03 1.37 0z" fill="#079cd9"/><path d="M263.56 81.09l1.2-1.21-5-.68.68 5 1.2-1.2.87.87c.77-.49 1.58-1 2.41-1.4zm-13.17 13.97h-1v-1.7l-4 3.05 4 3.05v-1.7h1l-1-1.35 1-1.35zm10.76 15.26l-1.2-1.2-.68 5 5-.67-1.2-1.21 1.87-1.87c-.83-.44-1.63-.91-2.41-1.4zm14.47 3.27v1.54h-1.7l3.05 4 3.05-4h-1.7v-1.54h-1.35c-.45 0-.9.03-1.35 0zm15.24-1.38l-1.2 1.2 5 .67-.67-5-1.2 1.2-1.37-1.28q-1.16.74-2.41 1.4zm17.7-15.8l-4.01-3.05v1.7h-1l1 1.35-1 1.35h1v1.7l4.01-3.05zM292.29 83l1.2 1.21.67-5-5 .67 1.2 1.21-1.36 1.37c.83.44 1.63.91 2.41 1.4z" fill="#7cc7bd"/><path d="M262.91 101.09a4.47 4.47 0 0 1-.56-.52 5.22 5.22 0 0 1-1.06-1.89 7.75 7.75 0 0 1-.35-2.39 7.5 7.5 0 0 1 .37-2.4 5.62 5.62 0 0 1 1.07-1.89 4.83 4.83 0 0 1 .67-.63A14.82 14.82 0 0 1 277 81.58c-13.58 0-24.59 14.83-24.59 14.83s11 14.83 24.59 14.83a14.83 14.83 0 0 1-14.09-10.15z" fill="#d1ebfa"/><path d="M301.56 96.41s-11-14.83-24.59-14.83a14.82 14.82 0 0 1 13.53 8.78h.43l.69.09.55 11.54-.58.1a5.73 5.73 0 0 1-.83 0h-.12a14.83 14.83 0 0 1-13.64 9.15c13.55 0 24.56-14.83 24.56-14.83z" fill="#d1ebfa"/><path d="M303.55 95.06l-.06-.08a50 50 0 0 0-12.07-11.12c-.77-.49-1.58-1-2.41-1.4a26.36 26.36 0 0 0-10.69-3.23h-2.7a26.36 26.36 0 0 0-10.7 3.23c-.83.44-1.63.91-2.41 1.4A50 50 0 0 0 250.45 95l-.06.08-1 1.35 1 1.35.06.08A49.92 49.92 0 0 0 262.52 109c.77.49 1.58 1 2.41 1.4a26.36 26.36 0 0 0 10.7 3.23h2.7a26.36 26.36 0 0 0 10.67-3.27q1.25-.66 2.41-1.4a49.91 49.91 0 0 0 12.07-11.12l.06-.08 1-1.35zM277 111.24c-13.58 0-24.59-14.83-24.59-14.83s11-14.83 24.59-14.83 24.59 14.83 24.59 14.83-11.04 14.83-24.59 14.83z" fill="#079cd9"/><path d="M290.64 102.16a7.65 7.65 0 0 1-1.22-.14l-.23-6.69-1.78 4.41-.58.08a4.71 4.71 0 0 1-.53 0h-.5a3.79 3.79 0 0 1-.53-.09l-1.58-4.35-.18 6.62a6.13 6.13 0 0 1-1.29.15 6.87 6.87 0 0 1-1.31-.15l.47-11.54.74-.09a7.07 7.07 0 0 1 .74 0 6.51 6.51 0 0 1 .7 0l.7.09 2.29 6 2.38-6 .65-.09a5.27 5.27 0 0 1 .66 0h.27a14.81 14.81 0 0 0-27.45 1 5 5 0 0 1 1.07-.63 5.79 5.79 0 0 1 2.34-.45 9.17 9.17 0 0 1 1.47.11 7.57 7.57 0 0 1 1.55.45 4.73 4.73 0 0 1-.24 1.28 9.75 9.75 0 0 1-.44 1.09l-.59-.19-.51-.13-.48-.07h-.52a2.47 2.47 0 0 0-2 .88 4.09 4.09 0 0 0-.72 2.63q0 3.42 2.88 3.43a4.68 4.68 0 0 0 1-.1 9.74 9.74 0 0 0 1.12-.32 8.67 8.67 0 0 1 .71 2.39c-.31.12-.6.22-.87.29a6.47 6.47 0 0 1-.77.17q-.37.06-.73.08h-.75a6.12 6.12 0 0 1-2.42-.44 5 5 0 0 1-1.18-.71 14.82 14.82 0 0 0 27.74 1.07zm-19.21-16.37a11.93 11.93 0 0 1 11.08 0 1.8 1.8 0 0 1-1.68 3.21 8.32 8.32 0 0 0-7.73 0 1.79 1.79 0 0 1-2.1-.32 1.8 1.8 0 0 1 .43-2.89zm1.09 16.38a8.59 8.59 0 0 1-1.44-.15V90.48l1.46-.15a13.07 13.07 0 0 1 1.41-.07 9.46 9.46 0 0 1 1.78.17 4.76 4.76 0 0 1 1.58.59 3.3 3.3 0 0 1 1.13 1.15 3.54 3.54 0 0 1 .44 1.84 3.92 3.92 0 0 1-.14 1.07 3.74 3.74 0 0 1-.36.85 3.34 3.34 0 0 1-.48.65 4.49 4.49 0 0 1-.52.47l2.52 5c-.26 0-.54.08-.85.1h-1.58a6.66 6.66 0 0 1-.75-.1l-2.29-5.28.15-.08a1.83 1.83 0 0 0 .43-.32 3 3 0 0 0 .44-.54 3.56 3.56 0 0 0 .34-.7 2.43 2.43 0 0 0 .14-.81 1.44 1.44 0 0 0-.45-1.18 1.7 1.7 0 0 0-1.12-.37h-.42V102a8.68 8.68 0 0 1-1.42.16zm-1.09 5a1.8 1.8 0 0 1 1.67-3.18 8.33 8.33 0 0 0 7.73 0 1.8 1.8 0 0 1 1.67 3.18 11.92 11.92 0 0 1-11.08 0z" fill="#48baeb"/><path d="M262.38 92a5.62 5.62 0 0 0-1.08 1.92 7.5 7.5 0 0 0-.37 2.4 7.75 7.75 0 0 0 .35 2.39 5.22 5.22 0 0 0 1.06 1.89 4.47 4.47 0 0 0 .56.52 5 5 0 0 0 1.18.71 6.12 6.12 0 0 0 2.42.44h.75q.36 0 .73-.08a6.47 6.47 0 0 0 .77-.17c.27-.08.56-.17.87-.29a8.67 8.67 0 0 0-.71-2.39 9.74 9.74 0 0 1-1.12.32 4.68 4.68 0 0 1-1 .1q-2.88 0-2.88-3.43a4.09 4.09 0 0 1 .72-2.63 2.47 2.47 0 0 1 2-.88h.52l.48.07.51.13.59.19a9.75 9.75 0 0 0 .44-1.09 4.73 4.73 0 0 0 .24-1.28 7.57 7.57 0 0 0-1.55-.45 9.17 9.17 0 0 0-1.47-.11 5.79 5.79 0 0 0-2.34.45 5 5 0 0 0-1.07.63 4.83 4.83 0 0 0-.6.64zm11.54.77h.42a1.7 1.7 0 0 1 1.12.37 1.44 1.44 0 0 1 .45 1.18 2.43 2.43 0 0 1-.14.81 3.56 3.56 0 0 1-.34.7 3 3 0 0 1-.44.54 1.83 1.83 0 0 1-.43.32l-.15.08 2.29 5.28a6.66 6.66 0 0 0 .75.1h1.58c.31 0 .59-.06.85-.1l-2.52-5a4.49 4.49 0 0 0 .52-.47 3.34 3.34 0 0 0 .48-.65 3.74 3.74 0 0 0 .36-.85 3.92 3.92 0 0 0 .14-1.07 3.54 3.54 0 0 0-.44-1.84 3.3 3.3 0 0 0-1.1-1.17 4.76 4.76 0 0 0-1.58-.59 9.46 9.46 0 0 0-1.78-.17 13.07 13.07 0 0 0-1.41.07l-1.46.15V102a8.59 8.59 0 0 0 1.44.15 8.68 8.68 0 0 0 1.41-.15zm15.66-2.38l-.65.09-2.38 6-2.29-6-.7-.09a6.51 6.51 0 0 0-.7 0 7.07 7.07 0 0 0-.74 0l-.74.09-.47 11.52a6.87 6.87 0 0 0 1.31.15 6.13 6.13 0 0 0 1.29-.15l.18-6.62 1.58 4.35a3.79 3.79 0 0 0 .53.09h.5a4.71 4.71 0 0 0 .53 0l.58-.08 1.78-4.41.23 6.69a7.65 7.65 0 0 0 1.22.14h.12a5.73 5.73 0 0 0 .83 0l.58-.1-.55-11.54-.69-.09h-.7a5.27 5.27 0 0 0-.65-.04z" fill="#274347"/><path d="M271 88.65a1.79 1.79 0 0 0 2.1.32 8.32 8.32 0 0 1 7.73 0 1.8 1.8 0 0 0 1.67-3.18 11.93 11.93 0 0 0-11.08 0 1.8 1.8 0 0 0-.43 2.86z" fill="#48baeb"/><path d="M271 88.65a1.79 1.79 0 0 0 2.1.32 8.32 8.32 0 0 1 7.73 0 1.8 1.8 0 0 0 1.67-3.18 11.93 11.93 0 0 0-11.08 0 1.8 1.8 0 0 0-.43 2.86z" fill="#fff" opacity=".77"/><path d="M282.51 107.18a1.8 1.8 0 0 0-1.67-3.18 8.33 8.33 0 0 1-7.73 0 1.8 1.8 0 0 0-1.67 3.18 11.92 11.92 0 0 0 11.08 0z" fill="#48baeb"/><path d="M282.51 107.18a1.8 1.8 0 0 0-1.67-3.18 8.33 8.33 0 0 1-7.73 0 1.8 1.8 0 0 0-1.67 3.18 11.92 11.92 0 0 0 11.08 0z" fill="#079cd9" opacity=".52"/></g></svg>