<svg data-name="Calque 1" xmlns="http://www.w3.org/2000/svg" viewBox="0 0 336.89 223.82"><path fill="#e99f47" d="M28.17 109.18h9.26v12.02h-9.26z"/><ellipse cx="168.44" cy="209.05" rx="168.44" ry="14.78" fill="#010101" opacity=".1"/><path d="M177.88.42c52.73 9 84.35 43.07 82.81 89.1.41 18.73-7.81 37.55-23.24 53.17-18.85 19.13-45.25 30.62-69.27 30.37a77.6 77.6 0 0 1-55.44-18.92c-19-16.35-31-41.28-33-68.39l-.07-1.54c-.43-22.48 7-42.26 21.59-57.2C118.02 9.8 143.37.21 172.64.01z" fill="#fff" opacity=".2"/><path d="M304.77 203.91h-4.76V88.5a17.45 17.45 0 0 0-17.41-17.44H59.14A17.45 17.45 0 0 0 41.7 88.5v113.44h-4.76V88.5a22.22 22.22 0 0 1 22.2-22.2H282.6a22.22 22.22 0 0 1 22.2 22.2z" fill="#e99f47"/><path fill="#f9b656" d="M59.79 66.71h2.8v96.59h-2.8zm30.17 0h2.8v96.59h-2.8zm30.17 0h2.8v96.59h-2.8zm30.17 0h2.8v96.59h-2.8zm30.17 0h2.8v96.59h-2.8zm30.18 0h2.8v96.59h-2.8zm30.17 0h2.8v96.59h-2.8zm30.17 0h2.8v96.59h-2.8z"/><path fill="#e99f47" d="M61.76 66.71h2.8v96.59h-2.8zm30.17 0h2.8v96.59h-2.8zm30.17 0h2.8v96.59h-2.8zm30.17 0h2.8v96.59h-2.8zm30.17 0h2.8v96.59h-2.8zm30.18 0h2.8v96.59h-2.8zm30.17 0h2.8v96.59h-2.8zm30.17 0h2.8v96.59h-2.8z"/><path d="M301.33 201.94h-4.73V86.53a17.45 17.45 0 0 0-17.43-17.43H55.69a17.45 17.45 0 0 0-17.43 17.43v115.41H33.5V86.53a22.22 22.22 0 0 1 22.2-22.2h223.43a22.22 22.22 0 0 1 22.2 22.2z" fill="#f9b656"/><path fill="#f9b656" d="M35.88 160.92h263.07v4.76H35.88zm244 38.64h38.64v4.76h-38.64z"/><path fill="#e99f47" d="M306.54 199.56h14.5v4.76h-14.5z"/><path fill="#f9b656" d="M120.65 78.76h91.4v56.35h-91.4z"/><path fill="#f9b656" d="M127.61 83.06h77.46v47.75h-77.46z"/><path d="M140.16 87.09a11.25 11.25 0 0 1 1.56-.36 10 10 0 0 1 1.59-.14 7.77 7.77 0 0 1 1.59.16 4.27 4.27 0 0 1 1.38.54 2.75 2.75 0 0 1 1 1 3.29 3.29 0 0 1 .32 1.63v9.52h3.19a6.56 6.56 0 0 1 .43 1 4.28 4.28 0 0 1 .21 1.36 2.57 2.57 0 0 1-.61 1.93 2.16 2.16 0 0 1-1.54.57h-1.68v4.22l-1.18.2a9.6 9.6 0 0 1-1.5.13 12.09 12.09 0 0 1-1.4-.07 2.35 2.35 0 0 1-1-.34 1.68 1.68 0 0 1-.63-.77 3.53 3.53 0 0 1-.21-1.36v-2h-9a4 4 0 0 1-1.41-1.27 3.49 3.49 0 0 1-.59-2.06 7.09 7.09 0 0 1 .18-1.5 3.88 3.88 0 0 1 .61-1.43zm1.83 5.62h-.11l-4.76 6.73h4.87zm34 5.02a15.49 15.49 0 0 1-.72 4.9 10.35 10.35 0 0 1-2 3.6 8.31 8.31 0 0 1-3 2.2 10.32 10.32 0 0 1-7.73 0 8.31 8.31 0 0 1-3-2.2 10.13 10.13 0 0 1-2-3.6 15.85 15.85 0 0 1-.7-4.9 15.69 15.69 0 0 1 .7-4.89 10.15 10.15 0 0 1 2-3.58 8.31 8.31 0 0 1 3-2.2 10.32 10.32 0 0 1 7.73 0 8.31 8.31 0 0 1 3 2.2 10.38 10.38 0 0 1 2 3.58 15.33 15.33 0 0 1 .72 4.89zm-6.12 0a10.55 10.55 0 0 0-.91-4.87 2.83 2.83 0 0 0-2.6-1.72 2.76 2.76 0 0 0-2.56 1.68 10.92 10.92 0 0 0-.88 4.87 11 11 0 0 0 .88 4.89 2.76 2.76 0 0 0 2.56 1.74 2.83 2.83 0 0 0 2.6-1.74 10.67 10.67 0 0 0 .91-4.85zm21.37-10.64a11.25 11.25 0 0 1 1.56-.36 10 10 0 0 1 1.59-.14 7.77 7.77 0 0 1 1.59.16 4.27 4.27 0 0 1 1.38.54 2.75 2.75 0 0 1 1 1 3.29 3.29 0 0 1 .36 1.61v9.52h3.19a6.56 6.56 0 0 1 .43 1 4.28 4.28 0 0 1 .21 1.36 2.57 2.57 0 0 1-.61 1.93 2.16 2.16 0 0 1-1.54.57h-1.68v4.22l-1.18.2a9.6 9.6 0 0 1-1.5.13 12.09 12.09 0 0 1-1.44-.01 2.35 2.35 0 0 1-1-.34 1.68 1.68 0 0 1-.63-.77 3.53 3.53 0 0 1-.21-1.36v-2h-9a4 4 0 0 1-1.41-1.27 3.49 3.49 0 0 1-.59-2.06 7.09 7.09 0 0 1 .18-1.5 3.88 3.88 0 0 1 .61-1.43zm1.83 5.62h-.11l-4.76 6.73h4.87zm-44.62 34.85a6.88 6.88 0 0 1-2.15-.32 4.87 4.87 0 0 1-1.73-1 4.5 4.5 0 0 1-1.16-1.63 5.77 5.77 0 0 1-.42-2.3 5.37 5.37 0 0 1 .42-2.23 4.31 4.31 0 0 1 2.68-2.41 5.85 5.85 0 0 1 1.8-.28 5.46 5.46 0 0 1 1.89.31 4.57 4.57 0 0 1 1.47.86 3.84 3.84 0 0 1 1 1.31 4 4 0 0 1 .34 1.67 1.34 1.34 0 0 1-.37 1 1.86 1.86 0 0 1-1 .45l-4.85.73a1.63 1.63 0 0 0 .88 1 3.47 3.47 0 0 0 1.53.32 5.48 5.48 0 0 0 1.52-.21 4.83 4.83 0 0 0 1.17-.48 1.64 1.64 0 0 1 .53.55 1.44 1.44 0 0 1-.61 2.06 4.37 4.37 0 0 1-1.41.45 9.94 9.94 0 0 1-1.53.15zm-.55-7.74a1.94 1.94 0 0 0-.81.16 1.63 1.63 0 0 0-.56.4 1.66 1.66 0 0 0-.32.55 2.26 2.26 0 0 0-.13.62l3.35-.55a1.48 1.48 0 0 0-.43-.78 1.45 1.45 0 0 0-1.1-.4zm10.1 7.41a4.55 4.55 0 0 1-.62.12 6.33 6.33 0 0 1-.87.06 4.62 4.62 0 0 1-.78-.06 1.31 1.31 0 0 1-.58-.24 1.13 1.13 0 0 1-.36-.48 2.08 2.08 0 0 1-.13-.79v-5.88a1.67 1.67 0 0 1 .17-.77 1.81 1.81 0 0 1 .48-.58 3.46 3.46 0 0 1 .77-.46 8 8 0 0 1 1-.36 8.38 8.38 0 0 1 1.1-.25 7.39 7.39 0 0 1 1.14-.09 2.67 2.67 0 0 1 1.49.36 1.32 1.32 0 0 1 .55 1.19 1.89 1.89 0 0 1-.08.54 2.48 2.48 0 0 1-.2.48h-.84q-.43 0-.84.12l-.77.17a3.42 3.42 0 0 0-.62.21zm8.36 0a4.55 4.55 0 0 1-.62.12 6.33 6.33 0 0 1-.87.06 4.62 4.62 0 0 1-.78-.06 1.31 1.31 0 0 1-.58-.24 1.13 1.13 0 0 1-.36-.48 2.08 2.08 0 0 1-.13-.79v-5.88a1.67 1.67 0 0 1 .17-.77 1.81 1.81 0 0 1 .48-.58 3.46 3.46 0 0 1 .77-.46 8 8 0 0 1 1-.36 8.38 8.38 0 0 1 1.1-.25 7.39 7.39 0 0 1 1.14-.09 2.67 2.67 0 0 1 1.49.36 1.32 1.32 0 0 1 .55 1.19 1.89 1.89 0 0 1-.08.54 2.48 2.48 0 0 1-.2.48h-.84c-.29 0-.57.07-.84.12l-.77.17a3.41 3.41 0 0 0-.62.21zm14.71-4.75a5.91 5.91 0 0 1-.37 2.17 4.39 4.39 0 0 1-1 1.6 4.47 4.47 0 0 1-1.62 1 6.26 6.26 0 0 1-2.1.33 5.94 5.94 0 0 1-2.1-.35 4.62 4.62 0 0 1-1.62-1 4.5 4.5 0 0 1-1-1.6 6.15 6.15 0 0 1 0-4.22 4.51 4.51 0 0 1 1-1.6 4.62 4.62 0 0 1 1.62-1 5.94 5.94 0 0 1 2.1-.35 5.8 5.8 0 0 1 2.1.36 4.74 4.74 0 0 1 1.62 1 4.51 4.51 0 0 1 1 1.6 5.61 5.61 0 0 1 .37 2.06zm-6.87 0a3.1 3.1 0 0 0 .46 1.83 1.5 1.5 0 0 0 1.28.64 1.44 1.44 0 0 0 1.27-.65 3.22 3.22 0 0 0 .44-1.82 3.11 3.11 0 0 0-.45-1.81 1.59 1.59 0 0 0-2.55 0 3.11 3.11 0 0 0-.45 1.81zm12.32 4.75a4.55 4.55 0 0 1-.62.12 6.33 6.33 0 0 1-.87.06 4.62 4.62 0 0 1-.78-.06 1.31 1.31 0 0 1-.58-.24 1.13 1.13 0 0 1-.36-.48 2.08 2.08 0 0 1-.13-.79v-5.88a1.67 1.67 0 0 1 .17-.77 1.81 1.81 0 0 1 .48-.58 3.46 3.46 0 0 1 .77-.46 8 8 0 0 1 1-.36 8.38 8.38 0 0 1 1.1-.25 7.39 7.39 0 0 1 1.14-.09 2.67 2.67 0 0 1 1.49.36 1.32 1.32 0 0 1 .55 1.19 1.89 1.89 0 0 1-.08.54 2.48 2.48 0 0 1-.2.48h-.84q-.43 0-.84.12l-.77.17a3.42 3.42 0 0 0-.62.21z" fill="#575757"/><path fill="none" stroke="#f9b656" stroke-miterlimit="10" stroke-width="5" d="M298.47 115.01h13.78v12.39"/><path fill="#fffcf5" d="M80.97 150.51l-1.18-4.67h-6.71l-1.18 4.67-14.97 51.4h39.01l-14.97-51.4z"/><path fill="#cac9c9" d="M80.97 150.51l-1.18-4.67h-3.35l-4.78 56.07h24.28l-14.97-51.4z"/><path fill="#ef774d" d="M49.4 201.91h54.08v6.17H49.4z"/><path fill="#c5563b" d="M76.44 201.91h27.04v6.17H76.44z"/><path fill="#ef774d" d="M80.97 150.51l-1.18-4.67h-6.71l-1.18 4.67-2.5 8.57h14.07l-2.5-8.57zm9.69 33.25H62.21l-5.28 18.15h39.01l-5.28-18.15zm-4.86-16.69H67.08l-2.54 8.71h23.79l-2.53-8.71z"/><path fill="#c5563b" d="M90.66 183.76H73.2l-1.54 18.15h24.28l-5.28-18.15zm-16.78-7.98h14.45l-2.53-8.71H74.63l-.75 8.71zm9.59-16.7l-2.5-8.57-1.18-4.67h-3.35l-1.13 13.24h8.16z"/><path fill="#fff" opacity=".2" d="M62.96 192.84l8.7-37.39h2.22l-5.46 37.39h-5.46z"/><path fill="#fffcf5" d="M171.59 208.86l4.75.81.07-.16 2.58-5.81.07-.17-3.79-2.97-40.93-34.51-.81 1.82-14.19 32.03-.81 1.82 53.06 7.14z"/><path fill="#cac9c9" d="M171.59 208.86l4.75.81.07-.16 1.29-2.91-49.33-27.08-9.03 20.38-.81 1.82 53.06 7.14z"/><path fill="#ef774d" d="M109.84 206.094l21.91-49.443 5.64 2.5-21.91 49.443z"/><path fill="#c5563b" d="M109.837 206.101l10.955-24.721 5.64 2.5-10.954 24.72z"/><path fill="#ef774d" d="M171.59 208.86l4.75.81.07-.16 2.58-5.81.07-.17-3.79-2.97-6.83-5.75-5.7 12.86 8.85 1.19zm-34.33-4.62l11.53-26.01-14.45-12.18-.81 1.82-14.19 32.03-.81 1.82 18.73 2.52zm17.24 2.32l7.58-17.12-6.93-5.84-9.65 21.75 9 1.21z"/><path fill="#c5563b" d="M137.26 204.24l7.07-15.96-15.96-8.76-9.03 20.38-.81 1.82 18.73 2.52zm14.1-12.1l-5.86 13.21 9 1.21 4.52-10.21-7.66-4.21zm11.38 15.53l8.85 1.19 4.75.81.07-.16 1.29-2.91-11.65-6.39-3.31 7.46z"/><path fill="#fff" opacity=".2" d="M140.19 175.24l30.65 23.1-.9 2.04-31.96-20.14 2.21-5z"/><path d="M217.22 212.76a5.73 5.73 0 0 1-5-8.59l40.58-70.28a5.73 5.73 0 0 1 9.92 0l40.44 70a5.73 5.73 0 0 1-4.82 8.83z" fill="#ea6665"/><path d="M257.8 131.89a4.86 4.86 0 0 1 4.21 2.43l40.45 70.07a4.86 4.86 0 0 1-4.08 7.51h-81.16a4.86 4.86 0 0 1-4.21-7.29l40.59-70.29a4.86 4.86 0 0 1 4.21-2.43m0-1.74a6.61 6.61 0 0 0-5.71 3.3l-40.58 70.28a6.6 6.6 0 0 0 5.71 9.89h81.16a6.6 6.6 0 0 0 5.57-10.15l-40.43-70a6.61 6.61 0 0 0-5.71-3.3z" fill="#fff"/><path d="M290.86 201.65l-32.16-55.7a1 1 0 0 0-1.8 0l-32.16 55.7a1 1 0 0 0 .9 1.56h64.32a1 1 0 0 0 .9-1.56z" fill="#fff"/><path d="M253.12 189.69a4.36 4.36 0 1 1 1.24 3.29 4.55 4.55 0 0 1-1.24-3.29zm9-24.57v3.24q0 2.12-.2 4.58-.15 2.46-.39 4.92t-.58 4.27a2.42 2.42 0 0 1-.58.29 6.17 6.17 0 0 1-.83.24 8.07 8.07 0 0 1-.88.15 7.1 7.1 0 0 1-.78 0 5.63 5.63 0 0 1-2.36-.44 2.18 2.18 0 0 1-1.19-1.71 26.78 26.78 0 0 1-.41-3.41q-.17-2.29-.32-5t-.22-5.31q-.07-2.63-.07-4.49a9.42 9.42 0 0 1 2.22-.85 10 10 0 0 1 2.46-.32 4.67 4.67 0 0 1 3.1.93 3.5 3.5 0 0 1 1 2.9z" fill="#ea6665"/><path d="M303.94 203.48l-40.43-70a6.61 6.61 0 0 0-5.71-3.3v83.48h40.58a6.6 6.6 0 0 0 5.57-10.15z" fill="#010101" opacity=".2"/></svg>