<svg xmlns="http://www.w3.org/2000/svg" xmlns:xlink="http://www.w3.org/1999/xlink" viewBox="0 0 400 225"><defs><radialGradient id="d" cx="41.01" cy="39.5" fx="-209.054" fy="-48.71" r="265.17" gradientTransform="matrix(.67 0 0 .5 66.67 56.75)" gradientUnits="userSpaceOnUse"><stop offset="0" stop-color="#2e2b76"/><stop offset="1" stop-color="#262554"/></radialGradient><linearGradient id="a" x1="151.89" y1="195.83" x2="246.82" y2="195.83" gradientUnits="userSpaceOnUse"><stop offset="0" stop-color="#515da7"/><stop offset=".16" stop-color="#5878b0"/><stop offset=".39" stop-color="#6199bc"/><stop offset=".62" stop-color="#68b1c4"/><stop offset=".82" stop-color="#6cbfc9"/><stop offset="1" stop-color="#6dc4cb"/></linearGradient><linearGradient id="e" x1="151.89" y1="188.53" x2="246.82" y2="188.53" xlink:href="#a"/><linearGradient id="f" x1="151.89" y1="181.23" x2="246.82" y2="181.23" xlink:href="#a"/><linearGradient id="g" x1="151.89" y1="173.92" x2="246.82" y2="173.92" xlink:href="#a"/><linearGradient id="h" x1="151.89" y1="184.88" x2="246.82" y2="184.88" xlink:href="#a"/><linearGradient id="i" x1="151.89" y1="165.62" x2="246.82" y2="165.62" xlink:href="#a"/><linearGradient id="j" x1="151.89" y1="158.32" x2="246.82" y2="158.32" xlink:href="#a"/><linearGradient id="k" x1="151.89" y1="151.02" x2="246.82" y2="151.02" xlink:href="#a"/><linearGradient id="l" x1="151.89" y1="143.71" x2="246.82" y2="143.71" xlink:href="#a"/><linearGradient id="m" x1="151.89" y1="154.67" x2="246.82" y2="154.67" xlink:href="#a"/><linearGradient id="n" x1="151.89" y1="135.41" x2="246.82" y2="135.41" xlink:href="#a"/><linearGradient id="o" x1="151.89" y1="128.11" x2="246.82" y2="128.11" xlink:href="#a"/><linearGradient id="p" x1="151.89" y1="120.81" x2="246.82" y2="120.81" xlink:href="#a"/><linearGradient id="q" x1="151.89" y1="113.5" x2="246.82" y2="113.5" xlink:href="#a"/><linearGradient id="r" x1="151.89" y1="124.46" x2="246.82" y2="124.46" xlink:href="#a"/><linearGradient id="s" x1="151.89" y1="126.66" x2="246.82" y2="126.66" xlink:href="#a"/><linearGradient id="t" x1="190.76" y1="94.3" x2="194.87" y2="94.3" xlink:href="#a"/><linearGradient id="u" x1="192.85" y1="85.27" x2="203.14" y2="85.27" xlink:href="#a"/><linearGradient id="v" x1="192.9" y1="75.14" x2="204.05" y2="75.14" xlink:href="#a"/><linearGradient id="w" x1="204.62" y1="155.58" x2="211.38" y2="155.58" gradientTransform="matrix(1 -.09 .09 1 -7.98 -25.19)" xlink:href="#a"/><linearGradient id="x" x1="212.44" y1="102.85" x2="213.39" y2="102.85" gradientTransform="matrix(1 -.09 .09 1 -7.98 -25.19)" xlink:href="#a"/><linearGradient id="y" x1="198.12" y1="136.75" x2="214.35" y2="136.75" gradientTransform="matrix(1 -.09 .09 1 -7.98 -25.19)" xlink:href="#a"/><linearGradient id="z" x1="213.52" y1="117.51" x2="217.35" y2="117.51" gradientTransform="matrix(1 -.09 .09 1 -7.98 -25.19)" xlink:href="#a"/><linearGradient id="A" x1="189.54" y1="151.93" x2="202.68" y2="151.93" gradientTransform="matrix(1 -.09 .09 1 -7.98 -25.19)" xlink:href="#a"/><linearGradient id="B" x1="196.92" y1="147.18" x2="198.59" y2="147.18" gradientTransform="matrix(1 -.09 .09 1 -7.98 -25.19)" xlink:href="#a"/><linearGradient id="C" x1="193.76" y1="144.01" x2="195.42" y2="144.01" gradientTransform="matrix(1 -.09 .09 1 -7.98 -25.19)" xlink:href="#a"/><linearGradient id="D" x1="196.95" y1="129.54" x2="209.38" y2="129.54" gradientTransform="matrix(1 -.09 .09 1 -7.98 -25.19)" xlink:href="#a"/><linearGradient id="c" x1="108.81" y1="101.29" x2="175.33" y2="101.29" gradientUnits="userSpaceOnUse"><stop offset="0" stop-color="#515da7"/><stop offset=".16" stop-color="#5863ab"/><stop offset=".39" stop-color="#6c75b5"/><stop offset=".67" stop-color="#8c91c6"/><stop offset=".97" stop-color="#b8b8dd"/><stop offset="1" stop-color="#bcbcdf"/></linearGradient><linearGradient id="b" x1="127.63" y1="92.31" x2="167.56" y2="92.31" gradientUnits="userSpaceOnUse"><stop offset="0" stop-color="#6dc4cb"/><stop offset=".18" stop-color="#6cbfc9"/><stop offset=".38" stop-color="#68b1c4"/><stop offset=".61" stop-color="#6199bc"/><stop offset=".84" stop-color="#5878b0"/><stop offset="1" stop-color="#515da7"/></linearGradient><linearGradient id="E" x1="147.6" y1="85.09" x2="167.56" y2="85.09" xlink:href="#b"/><linearGradient id="F" x1="127.63" y1="85.09" x2="147.6" y2="85.09" xlink:href="#b"/><linearGradient id="G" x1="127.63" y1="89.4" x2="167.56" y2="89.4" xlink:href="#b"/><linearGradient id="H" x1="147.6" y1="96.62" x2="167.56" y2="96.62" xlink:href="#b"/><linearGradient id="I" x1="127.63" y1="96.62" x2="147.6" y2="96.62" xlink:href="#b"/><linearGradient id="J" x1="108.81" y1="169.37" x2="175.33" y2="169.37" xlink:href="#c"/><linearGradient id="K" x1="127.63" y1="160.38" x2="167.56" y2="160.38" xlink:href="#b"/><linearGradient id="L" x1="147.6" y1="153.17" x2="167.56" y2="153.17" xlink:href="#b"/><linearGradient id="M" x1="127.63" y1="153.17" x2="147.6" y2="153.17" xlink:href="#b"/><linearGradient id="N" x1="127.63" y1="157.48" x2="167.56" y2="157.48" xlink:href="#b"/><linearGradient id="O" x1="147.6" y1="164.69" x2="167.56" y2="164.69" xlink:href="#b"/><linearGradient id="P" x1="127.63" y1="164.69" x2="147.6" y2="164.69" xlink:href="#b"/><linearGradient id="Q" x1="212.84" y1="101.29" x2="279.36" y2="101.29" xlink:href="#c"/><linearGradient id="R" x1="231.67" y1="92.31" x2="271.59" y2="92.31" xlink:href="#b"/><linearGradient id="S" x1="251.63" y1="85.09" x2="271.59" y2="85.09" xlink:href="#b"/><linearGradient id="T" x1="231.67" y1="85.09" x2="251.63" y2="85.09" xlink:href="#b"/><linearGradient id="U" x1="231.67" y1="89.4" x2="271.59" y2="89.4" xlink:href="#b"/><linearGradient id="V" x1="251.63" y1="96.62" x2="271.59" y2="96.62" xlink:href="#b"/><linearGradient id="W" x1="231.67" y1="96.62" x2="251.63" y2="96.62" xlink:href="#b"/><linearGradient id="X" x1="212.84" y1="169.37" x2="279.36" y2="169.37" xlink:href="#c"/><linearGradient id="Y" x1="231.67" y1="160.38" x2="271.59" y2="160.38" xlink:href="#b"/><linearGradient id="Z" x1="251.63" y1="153.17" x2="271.59" y2="153.17" xlink:href="#b"/><linearGradient id="aa" x1="231.67" y1="153.17" x2="251.63" y2="153.17" xlink:href="#b"/><linearGradient id="ab" x1="231.67" y1="157.48" x2="271.59" y2="157.48" xlink:href="#b"/><linearGradient id="ac" x1="251.63" y1="164.69" x2="271.59" y2="164.69" xlink:href="#b"/><linearGradient id="ad" x1="231.67" y1="164.69" x2="251.63" y2="164.69" xlink:href="#b"/></defs><g data-name="Calque 1"><path fill="url(#d)" d="M0 0h400v225H0z"/><path d="M271.25 48.35q2.89.75 5.68 1.56v13.74q-2.79-.81-5.68-1.56V48.35z" fill="#6dc4cb"/><path d="M258.09 48.93q3.09.59 6.1 1.26v10.2q-3-.66-6.1-1.26v-10.2z" fill="#6dc4cb" opacity=".5"/><path d="M244.1 37.75q3.27.42 6.46.93v19.15q-3.19-.5-6.46-.93V37.75z" fill="#6dc4cb"/><path d="M229.38 25.67q3.42.25 6.77.58V56q-3.35-.33-6.77-.58V25.67zM214 32.06q3.55.06 7.05.2V55q-3.5-.14-7.05-.2V32.06z" fill="#6dc4cb" opacity=".5"/><path d="M198.55 8.31q3.47-.14 7-.19v46.63q-3.52.05-7 .19V8.31zm-14.97 9.6q3.34-.32 6.74-.57V55.4q-3.4.24-6.74.57V17.91zM169.23 5.48q3.18-.5 6.44-.92v52.3q-3.26.42-6.44.92V5.48z" fill="#6dc4cb"/><g opacity=".5"><path d="M203 169.9a7.28 7.28 0 0 0-7.27 0l-43.35 25a1 1 0 0 0 0 1.77l43.71 25.24a6.42 6.42 0 0 0 6.42 0l43.78-25.21a1 1 0 0 0 0-1.77z" fill="url(#a)" opacity=".11"/><path d="M203 162.6a7.28 7.28 0 0 0-7.27 0l-43.35 25a1 1 0 0 0 0 1.77l43.71 25.24a6.42 6.42 0 0 0 6.42 0l43.78-25.21a1 1 0 0 0 0-1.77z" fill="url(#e)" opacity=".11"/><path d="M203 155.3a7.28 7.28 0 0 0-7.27 0l-43.35 25a1 1 0 0 0 0 1.77l43.71 25.24a6.42 6.42 0 0 0 6.42 0l43.78-25.21a1 1 0 0 0 0-1.77z" fill="url(#f)" opacity=".11"/><path d="M203 148a7.28 7.28 0 0 0-7.27 0l-43.33 25a1 1 0 0 0 0 1.77L196.11 200a6.42 6.42 0 0 0 6.42 0l43.78-25.21a1 1 0 0 0 0-1.77z" fill="url(#g)" opacity=".11"/><path d="M246.3 173L203 148a7.28 7.28 0 0 0-7.27 0l-43.33 25a1 1 0 0 0-.51.89v21.91a1 1 0 0 0 .51.89l43.71 25.24a6.42 6.42 0 0 0 6.42 0l43.78-25.21a1 1 0 0 0 .51-.89v-21.96a1 1 0 0 0-.52-.87z" opacity=".11" fill="url(#h)"/></g><path d="M203 139.69a7.28 7.28 0 0 0-7.27 0l-43.35 25a1 1 0 0 0 0 1.77l43.71 25.24a6.42 6.42 0 0 0 6.42 0l43.78-25.21a1 1 0 0 0 0-1.77z" fill="url(#i)" opacity=".11"/><path d="M203 132.39a7.28 7.28 0 0 0-7.27 0l-43.35 25a1 1 0 0 0 0 1.77l43.71 25.24a6.42 6.42 0 0 0 6.42 0l43.78-25.21a1 1 0 0 0 0-1.77z" fill="url(#j)" opacity=".11"/><path d="M203 125.09a7.28 7.28 0 0 0-7.27 0l-43.35 25a1 1 0 0 0 0 1.77l43.71 25.24a6.42 6.42 0 0 0 6.42 0l43.78-25.21a1 1 0 0 0 0-1.77z" fill="url(#k)" opacity=".11"/><path d="M203 117.78a7.28 7.28 0 0 0-7.27 0l-43.35 25a1 1 0 0 0 0 1.77l43.71 25.24a6.42 6.42 0 0 0 6.42 0l43.78-25.21a1 1 0 0 0 0-1.77z" fill="url(#l)" opacity=".11"/><path d="M246.3 142.77l-43.28-25a7.28 7.28 0 0 0-7.27 0l-43.35 25a1 1 0 0 0-.51.89v21.91a1 1 0 0 0 .51.89l43.71 25.24a6.42 6.42 0 0 0 6.42 0l43.78-25.21a1 1 0 0 0 .51-.89v-21.94a1 1 0 0 0-.52-.89z" opacity=".11" fill="url(#m)"/><path d="M203 109.48a7.28 7.28 0 0 0-7.27 0l-43.35 25a1 1 0 0 0 0 1.77l43.71 25.24a6.42 6.42 0 0 0 6.42 0l43.78-25.21a1 1 0 0 0 0-1.77z" fill="url(#n)" opacity=".11"/><path d="M203 102.18a7.28 7.28 0 0 0-7.27 0l-43.35 25a1 1 0 0 0 0 1.77l43.71 25.24a6.42 6.42 0 0 0 6.42 0l43.78-25.21a1 1 0 0 0 0-1.77z" fill="url(#o)" opacity=".11"/><path d="M203 94.87a7.28 7.28 0 0 0-7.27 0l-43.35 25a1 1 0 0 0 0 1.77l43.71 25.24a6.42 6.42 0 0 0 6.42 0l43.78-25.21a1 1 0 0 0 0-1.77z" fill="url(#p)" opacity=".11"/><path d="M203 87.57a7.28 7.28 0 0 0-7.27 0l-43.35 25a1 1 0 0 0 0 1.77l43.71 25.24a6.42 6.42 0 0 0 6.42 0l43.78-25.21a1 1 0 0 0 0-1.77z" fill="url(#q)" opacity=".11"/><path d="M246.3 112.56L203 87.57a7.28 7.28 0 0 0-7.27 0l-43.35 25a1 1 0 0 0-.51.89v21.91a1 1 0 0 0 .51.89l43.71 25.24a6.42 6.42 0 0 0 6.42 0l43.78-25.21a1 1 0 0 0 .51-.89v-21.95a1 1 0 0 0-.5-.89z" opacity=".5" fill="url(#r)"/><path d="M203 87.57a7.28 7.28 0 0 0-7.27 0l-43.35 25a1 1 0 0 0 0 1.77l43.71 25.24a6.42 6.42 0 0 0 6.42 0l43.78-25.21a1 1 0 0 0 0-1.77z" fill="url(#q)" opacity=".11"/><path d="M246.3 113.33l-43.78 25.21a6.42 6.42 0 0 1-6.42 0l-43.7-25.24a1 1 0 0 1-.38-.38 1 1 0 0 0 .38 1.39l43.71 25.24a6.42 6.42 0 0 0 6.42 0l43.78-25.21a1 1 0 0 0 .38-1.39 1 1 0 0 1-.39.38z" fill="url(#s)"/><path fill="#6dc4cb" d="M156.98 121.04l1.08.63v-.73l-1.08-.62v.72zm0 4.89l1.08.62v-4.23l-1.08-.62v4.23zm0 2.33l1.08.62v-1.67l-1.08-.63v1.68zm0 2.42l1.08.62v-1.67l-1.08-.63v1.68zm-1.6-8.23l1.07.62v-1.67l-1.07-.63v1.68zm0 3.21l1.07.62v-2.46l-1.07-.63v2.47zm0 2.95l1.07.62v-2.11l-1.07-.62v2.11zm1.6 4.49l1.08.62v-1.67l-1.08-.63v1.68zm-1.6-12.99l1.07.63v-.72l-1.07-.63v.72zm.8 14.88l1.88 1.08v-.7l-1.88-1.09v.71z"/><path d="M182.89 123c9.09 5.25 23.82 5.25 32.91 0s9.09-13.76 0-19-23.82-5.25-32.91 0-9.08 13.76 0 19z" fill="#262554" opacity=".2"/><path d="M199.47 102.43v.21l.06-.14a2.94 2.94 0 0 1 0 1.62 12.86 12.86 0 0 1-1.25 2c-.58.76-1.5 2.33-1.74 2.64a5.94 5.94 0 0 1-3.41 1.66c-1.76.18-2.21-.82-2.06-1.37a12.17 12.17 0 0 1 2.12-3.16 15.72 15.72 0 0 0 1.82-2.69zm-5.28-4.77a8.09 8.09 0 0 1-.06 1.59c-.12.46-2.7.61-3.62.73a13.25 13.25 0 0 0-3 1c-.5.25-3.85.6-4.26-.64s1.68-2.27 3.1-2.6 3.74-1 3.74-1z" fill="#252553"/><path d="M203.14 75.34a31.56 31.56 0 0 1-1 7.52 29.62 29.62 0 0 0-.93 7.42s1.1 4.94.13 8.31-1.79 4.31-1.79 4.31a2.91 2.91 0 0 1-4.48.27 40.52 40.52 0 0 0 1.6-8.31 25 25 0 0 1-1.7-5.12s-.36 3.84-.58 5.39c0 0 .22 2.28-.39 3.2s-3.34 1.19-4.22-.41.73-.82.24-8.18a16.75 16.75 0 0 1-2.88-8.92c-.36-5.78-.33-8.07 0-9.2s5.91-5.19 5.91-5.19l3.15 4z" fill="#2c2661"/><path d="M194.87 91.16a16 16 0 0 1-.39-1.61s-.36 3.84-.58 5.39c0 0 .22 2.28-.39 3.2a2.81 2.81 0 0 1-2.75.64c1.17.56 2.82.24 3.28-.45.61-.92.39-3.2.39-3.2.13-.95.32-2.72.44-3.97z" fill="url(#t)"/><path d="M203.14 75.34l-6.89-4.89-3.15-4-.24.18 2.87 3.66 6.89 4.89a31.57 31.57 0 0 1-1 7.52 29.62 29.62 0 0 0-.93 7.42s1.1 4.94.13 8.31-1.79 4.31-1.79 4.31a3.06 3.06 0 0 1-2.93 1.14 2.94 2.94 0 0 0 3.46-1s.82-.95 1.79-4.31-.13-8.31-.13-8.31a29.62 29.62 0 0 1 .93-7.42 31.56 31.56 0 0 0 .99-7.5z" fill="url(#u)"/><path d="M190.71 81.79c-.91-1.09-1.42-4.51-1.42-4.51a16.09 16.09 0 0 0 2.44 3.72 6.9 6.9 0 0 1 2.07 3.6c.18 1.09 1.21 5.14 1.21 5.14s-.36 3.84-.58 5.39c0 0 .22 2.28-.39 3.2a1.42 1.42 0 0 1-.6.47s.15-5.08 0-7.22-1.82-8.7-2.73-9.79z" fill="#252553"/><path d="M211.53 52s2.41 4.71 2.65 5.07 4.75 6.11 5.19 9.43a2.41 2.41 0 0 1-1.21 2.42c-1.55 1.14-9.38 6.11-9.86 6.18a4.72 4.72 0 0 1-3.44-4.41s6.13-2.86 7.46-4.29a42.81 42.81 0 0 0-3.56-5.19 2.72 2.72 0 0 1-.56-1.48 8.07 8.07 0 0 1 2.62-7.07z" fill="#494999"/><path d="M193.53 41s-3.73 1.38-5 .91-4.4-.87-6.54-2.07-11.51-3.62-12.9-3.7c0 0 0 .05.21.15a1.75 1.75 0 0 1 1.45 1.27 3.46 3.46 0 0 1-.47 2.49c-.16.09-.25-.3-1.15-.71a3.49 3.49 0 0 0-1.45-.39l-.34.43-.21.32a2.11 2.11 0 0 0 1.64 1.41c1.2.09 8.91 3.31 9.39 3.45s7 2.93 8.17 3.37a14.14 14.14 0 0 1 2.16 1s3.78-2.52 3.9-2.52 1.14-5.41 1.14-5.41z" fill="#2c2661"/><path d="M159.83 34.57c.16 0 2.11.69 2.11.69s-.78.4-.85.75a12.1 12.1 0 0 0 .23 2.45 2.78 2.78 0 0 0 .59.46c.12.07.42.75.7.67a.64.64 0 0 0 .36-.44l.28-.15a4.89 4.89 0 0 1 1.92.38 3.16 3.16 0 0 0 1.94.32 8.46 8.46 0 0 0 1.21-.53 3 3 0 0 1 .75.21c.27.14 1.11.71 1.24.76s1.87-3.36-1.24-4a7.58 7.58 0 0 1-1.85-.38c-.56-.27-2.13-1.48-2.71-1.5a3.84 3.84 0 0 0-1.18.17s-3.51-1-3.8-.69.15.79.3.83zm2.54 2.34a1 1 0 0 0 .71-.43.48.48 0 0 0 .54 0c0 .06.48.15.48.15s.22.18.49.38-.09.79-.09.79a1.78 1.78 0 0 1-.83-.23 5 5 0 0 0-.67-.18 4.1 4.1 0 0 1-.62-.48z" fill="#fad1c6"/><path d="M187.18 71.61c.33-1.13 5.91-5.19 5.91-5.19l1.57 2 1.34 5.23 7.14 2.22s-.38 3.57-6.14 3.13-6.5-4.92-6.5-4.92-.65 1.48-3.51 1.87a16 16 0 0 1 .19-4.34z" fill="#252553"/><path d="M204.46 43.93l1 2.52s4.73 4.09 6.09 5.57a28.55 28.55 0 0 0-2.77 9.21 29.55 29.55 0 0 0-2.82 2.57 46.29 46.29 0 0 0-2.84 5.8c-.53 1.24.95 5 .95 5s-2 3.71-5.25 3.59-5.44-2.1-5.85-5.61a19.64 19.64 0 0 1-.29-4s-1.45 4.31-3.66 4.31-5.71-3.74-5.71-3.74-2.38-2.15-2.16-3.15 5.56-9.35 5.85-10.74 1.49-6.33 1.49-6.33l5-7.92 3.07.15z" fill="#464193"/><path d="M198.67 77.28a5.73 5.73 0 0 1-5.77-5.18l.05.46c.41 3.51 2.62 5.49 5.85 5.61s5.25-3.59 5.25-3.59-.11-.27-.25-.69c-.47.76-2.34 3.49-5.13 3.39z" fill="url(#v)"/><path d="M204.46 43.93a8.71 8.71 0 0 1-.57 3c-.59 1.49-2.53 9.89-6.93 12.76l-1.69 1.07v-5.34a20.27 20.27 0 0 1 .78-5.37 15.46 15.46 0 0 0 .73-4.63s1.23-.34 1.23-.32 6.45-1.17 6.45-1.17z" fill="#f0f6fd"/><path d="M199 47.84s-.78.32-1.12-.19a3.72 3.72 0 0 1-.59-2s-2.08.1-2.49-1a1.81 1.81 0 0 1 .1-1.71 8.54 8.54 0 0 1 .41-1.88v-.28s-.42-.36-.23-.75 1.33-1.57 1.45-1.77 0-1.67.41-2.41a17.9 17.9 0 0 1 1.3-1.75s4.44-3.46 7.92 0-1.77 9.83-1.77 9.83a6 6 0 0 1-1.39 2.88c-1 .82-4 1.03-4 1.03z" fill="#fad1c6"/><path d="M202.29 39.41a1.08 1.08 0 0 1 .06-.38 1.83 1.83 0 0 0-.71-2.18c-1.33-1-3.68-1.84-3.61-2.81s3.78-3.37 6.52-2.08 5.31 4.53 3.44 8-3.51 4-3.51 4-.56-.12-.06-.69 1.41-2 .65-2.47-2.06.53-2.24.75a2.75 2.75 0 0 0-.19.29.37.37 0 0 1-.47.15h-.06a.37.37 0 0 1-.19-.46l.33-.89a1.14 1.14 0 0 0 .07-.42z" fill="#aa8383"/><path d="M199.16 48.81a5.26 5.26 0 0 1 1.57 2 7.07 7.07 0 0 0-1.65-1.31s-1.16.55-1.16.91a24 24 0 0 1-.38 3.72 41.57 41.57 0 0 0-.24 5.29l-.74.49-.35-1.81.13-3.85.68-3.51s.13-1.33.18-1.4 1.96-.53 1.96-.53z" fill="#c5cdd7"/><path d="M199.16 48.81s-1.13-1.2-1.7-1.22a1 1 0 0 0-.89.35c0 .07-.55 1.95-.55 1.95a23.5 23.5 0 0 0-1 7.09 22.38 22.38 0 0 0 .2 3.79l1.4-.89a17.58 17.58 0 0 1 .38-5.89c.76-3.16.09-3.64.45-4s1.88-.8 1.71-1.18zm6.78 15a46.22 46.22 0 0 0-2.8 5.8 1.93 1.93 0 0 0-.15.77l-.21.14-.71-.69s.63-2.29 1.65-5.13 5-3.47 5-3.47a29.55 29.55 0 0 0-2.78 2.58z" fill="#2c2661"/><path d="M204.85 70.81a13.11 13.11 0 0 0-1.51-1.89s.08.47-.57.76-4.08 1.62-4.2 1.77 0 .35.23.39a4.64 4.64 0 0 1-1 .24c-.29 0-.68.36-.48.68s.36.29.36.29-.08.35.13.43a3.24 3.24 0 0 0 .72.09s-.1.35.18.49a10.68 10.68 0 0 0 1.67.29s1.08-.12 1.39-.12a16.41 16.41 0 0 0 2.32.25 18.19 18.19 0 0 0 2.78-.91c.2-.1-2.02-2.76-2.02-2.76z" fill="#fad1c6"/><path d="M205.67 47.27l-.15 2.25-1.22.38.82.67s-3.3 7.51-7.52 9.88c0 0 4-1.43 7.83-9.82l-.52-.61.85-.38zM194.89 47s-1.5 7.66-.22 13.43c0 0-1.53-2.77-.15-13.43z" fill="#2c2661"/><path d="M161.17 35.85a2.68 2.68 0 0 1 .77-.59s1.59.65 1.87.78c0-.04-1.64-.18-2.64-.19zm9.16 4.29c-.07 0-.32-.19-.59-.36 1.06-1.42-.1-3.48-.11-3.49 2.37.92.82 3.9.7 3.85zm36.54 33.44a19.88 19.88 0 0 1-2.09.74 11.49 11.49 0 0 1-.41-2.76c.12-.69.41-.86.41-.86l.08.11s2.21 2.66 2.01 2.77z" fill="#e2b2a6"/><path d="M204.85 70.71a2.42 2.42 0 0 0 .45 2.12c.81.93.9 1 .9 1h.93a10.13 10.13 0 0 0 .41-1.5z" fill="#494999"/><path d="M196.2 49.27a43.5 43.5 0 0 0-.69 7.18 33.68 33.68 0 0 1 .13 4l-.28.25-.08.05a22.38 22.38 0 0 1-.2-3.79 23.5 23.5 0 0 1 1-7.09z" fill="#2c2661"/><path d="M195.91 103.75a4.35 4.35 0 0 1-.8-.58 40.52 40.52 0 0 0 1.6-8.31 25 25 0 0 1-1.7-5.12 40.27 40.27 0 0 1 2.25 5.73c.66 2.64-1.35 8.28-1.35 8.28z" fill="#252553"/><path d="M202.41 43.09zm0 0a7.74 7.74 0 0 1-1.16 2.91c-.78.91-1.38 1.78-1.38 1.78-.49.06-.82.09-.82.09s-.78.32-1.12-.19a3.72 3.72 0 0 1-.59-2 11.58 11.58 0 0 0 3.88-1 2.69 2.69 0 0 0 1.19-1.59z" fill="#e2b2a6"/><path d="M203.43 68.94s-.15.32-.18.34-.07-.24-.07-.24l.13-.26z" fill="#1b2c3b"/><path d="M195.27 60.76s-2 6.26-2.61 7.77v1.51s2.53-7.77 2.61-9.28z" fill="#2c2661"/><ellipse cx="193.99" cy="63.18" rx=".69" ry=".64" transform="rotate(-73.08 194 63.174)" fill="#2c2661"/><ellipse cx="193" cy="65.88" rx=".69" ry=".64" transform="rotate(-73.09 192.986 65.88)" fill="#2c2661"/><path d="M202.23 40.58a1.14 1.14 0 0 0 .07-.42v-.75a1.08 1.08 0 0 1 .06-.38 2.1 2.1 0 0 0 .1-.47s3.05 2.22 5 2.31c-1.63 2.6-3 3.06-3 3.06s-.56-.12-.06-.69 1.41-2 .65-2.47-2.06.53-2.24.75a2.75 2.75 0 0 0-.19.29.37.37 0 0 1-.47.15h-.06a.37.37 0 0 1-.19-.46z" fill="#936e6d"/><path d="M208 122.41a15.66 15.66 0 0 1-2.71.39c-1.33.05-5 .78-4.87 2.13s2 3.31 4.36 3.6 5.43-.39 7-.35a2.17 2.17 0 0 0 2-3.06c-.61-1.5-5.78-2.71-5.78-2.71zm8-3.63s.51.82.26 1.32-.91 1.75-3.08.54-6.33-2.92-6.33-2.92-2.39-1.27-2.26-2.77 2.33-1.27 2.33-1.27z" fill="#252553"/><path d="M201.92 97.48s.92 9.75 2.88 13.44 2.54 10.63 3 11.95a5.38 5.38 0 0 0 3.74 3.62c2 .4 2.37-1 2.27-1.81a31.12 31.12 0 0 1-.67-3.07 9.45 9.45 0 0 1 .23-1.73s2.33.69 2.68-1.12a5.09 5.09 0 0 1-.22-.79c0-.27.2-6.8.26-7.59a33.43 33.43 0 0 0-1-7.16c-.64-2.08-.43-6.52-.43-6.52l-6.66-.9z" fill="#2c2661"/><path d="M215 103.24c-.64-2.08-.43-6.52-.43-6.52l-.58-.08a25.73 25.73 0 0 0 .42 6.42 33.39 33.39 0 0 1 1 7.15c-.06.79-.3 7.31-.27 7.58a5.1 5.1 0 0 0 .22.79c-.36 1.8-2.68 1.12-2.68 1.12a9.44 9.44 0 0 0-.23 1.72 31.07 31.07 0 0 0 .67 3.06c.1.83-.23 2.21-2.27 1.81l-.18-.05a4 4 0 0 0 .79.25c2 .4 2.37-1 2.27-1.81a31 31 0 0 1-.67-3.07 10.65 10.65 0 0 1 .23-1.81s2.33.77 2.68-1a5.09 5.09 0 0 1-.22-.79c0-.27.2-6.8.26-7.59a33.45 33.45 0 0 0-1.01-7.18z" fill="url(#w)"/><path d="M212.64 97.43a7.51 7.51 0 0 1-.66 2.8 53.57 53.57 0 0 1-.52 7.81s.86 5.27 1.4 6.93a20 20 0 0 1 .47 4.93 2.27 2.27 0 0 0 .64.11c.38 0 .41-6.44-.18-7.58s-1-6.16-.8-7.7.14-5.88.43-6.65a1 1 0 0 0-.36-1.17zm-5.58-35.17a4.77 4.77 0 0 0-1.83 3.8l1.43-.31s-.43-2.66.4-3.49z" fill="#252553"/><path d="M207.8 99.55a10.64 10.64 0 0 0 6.77-1.81v-1L208 95.8l-6 1.69s.18 1.92.56 4.38c1.08.12 2.14-2.53 2.14-2.53l3 .19s-4.29-.11.1.02z" fill="#252553"/><path d="M202.77 97.63s9.55 3.9 14.17-3.5a1.3 1.3 0 0 0 .18-.73l-.06-1.72a1.81 1.81 0 0 1 .09-.64 2.74 2.74 0 0 0 .1-1.38c-.36-1.93-1.33-7.16-1.55-8.62-.28-1.77.66-8.87 2.25-11.94s-2.45-9.84-2.45-9.84a2.6 2.6 0 0 0-2.91-1s1.84 1.29.83 2.64-4 2.46-4 2.46-5.58 2.9-7.5 6.42a14.75 14.75 0 0 0-.72 4.15c-.06 2.34.2 8 .1 8.76s-.4 6.15-.36 6.4 1.83 8.54 1.83 8.54z" fill="#464193"/><path d="M213.48 59.2a1.38 1.38 0 0 0 0-1.08 2.74 2.74 0 0 0-.86.1 3.43 3.43 0 0 1 .86.98z" fill="url(#x)"/><path d="M205.66 98.43s5.63-15.19 5.36-20.71-8.21 10.89-8.21 10.89v9a17.17 17.17 0 0 0 2.85.82z" fill="#2c2661"/><path d="M217 89.55a1.79 1.79 0 0 0-.09.63l.09 1.72a1.28 1.28 0 0 1-.18.72c-4.6 7.35-14.13 3.47-14.13 3.47s-1.31-6-1.72-7.91v.86c0 .25 1.85 8.58 1.85 8.58s9.55 3.9 14.17-3.5a1.29 1.29 0 0 0 .18-.73l-.06-1.72a1.81 1.81 0 0 1 .09-.64 2.74 2.74 0 0 0 .09-1.38l-.13-.71a2.67 2.67 0 0 1-.16.61z" fill="url(#y)"/><path d="M217.79 67.76c-1.58 3.05-2.52 10.1-2.24 11.86l.1.62c0-2.54.89-8.42 2.29-11.14a5.14 5.14 0 0 0 .2-3.22 3.88 3.88 0 0 1-.35 1.88z" fill="url(#z)"/><path d="M202.63 80.48a24.69 24.69 0 0 0 .34-3.73c0-2.16.63-5.74 4.54-5.12 5.53.88 3.16 8.62 2.56 10s-3 7.49-3.15 7.84a108 108 0 0 1-5.31 9.82.34.34 0 0 1-.5.06c-.55-.47-1.8-1.59-2-2.3-.21-.91.59-4.23.59-4.23s2.15-8.28 2.33-8.66.27-1.67.6-3.68z" fill="#494999"/><path d="M207.15 62.43a2 2 0 0 0-1.45-1.1c-1-.1-1.59-.38-1.69-.76a7.19 7.19 0 0 0-.35-1.39 10.29 10.29 0 0 1-.45-2s-.77-.26-.8-.6.36-1.55.32-1.64a3 3 0 0 1-.4-1.41 7.09 7.09 0 0 1 .44-2.12c.31-.7 2.45-5 8-2.78s1.35 7 1.91 10c0 0 .5.65-.42 1.75s-3.57 1.43-5.11 2.05z" fill="#fad1c6"/><path d="M212.29 60.46c.92-1.1.42-1.75.42-1.75a4.25 4.25 0 0 1 0-1.37l-2.21.42s-3.27-2.9-3-1.35-.56 1.84-.56 1.84l.67.85c.17.22.07.48-.07.72-.93 1.6-3.2 1.12-3.2 1.12a3.22 3.22 0 0 0 1.38.38 2 2 0 0 1 1.45 1.1c1.52-.61 4.2-.85 5.12-1.96z" fill="#e2b2a6"/><path d="M202.51 49.82s-.39 1.15.24 1.63l1.21.94v1.45a1.08 1.08 0 0 0 .17.59l.8 1.23a1.49 1.49 0 0 1 .24.8v.59a.34.34 0 0 0 .3.34h.21a.34.34 0 0 0 .37-.31l.09-.83s.42-.66 1.34.13l.82.34a.89.89 0 0 1 .5.52 5.84 5.84 0 0 0 1.1 2.1c.5.28 2.43-.72 2.69-1.16s.91-3.39 1.31-4.79.17-4.85-4-5.73-6.81.91-7.39 2.16z" fill="#aa8383"/><path d="M212.59 58.22c.26-.44.91-3.39 1.31-4.79a10.2 10.2 0 0 1-3.7 1.39c-2.09.32-6.24-2-6.24-2v1.07a1.08 1.08 0 0 0 .17.59l.8 1.23a1.49 1.49 0 0 1 .24.8v.59a.34.34 0 0 0 .3.34h.21a.34.34 0 0 0 .37-.31l.09-.83s.42-.66 1.34.13l1.19.49s.73 2.19 1.23 2.47 2.43-.73 2.69-1.17z" fill="#936e6d"/><path d="M212.67 58.36s1.62 1 .81 2.41-6.68 4-7 4.33c0 0-.23-2.12.55-2.84 0 0 4.49-.88 5.19-2a2.32 2.32 0 0 0 .45-1.9z" fill="#f0f6fd"/><path d="M212.67 58.36a2.32 2.32 0 0 1-.42 1.88c-.53.87-3.23 1.58-4.51 1.88a4.72 4.72 0 0 1 1.26 1.62c1.81-.94 4-2.14 4.47-3 .82-1.39-.8-2.38-.8-2.38z" fill="#c5cdd7"/><path d="M213.76 62.88s-2.61 1.5-3.89 2.17-2.67 1.58-2.67 1.58l-.49-.49-.59 1.29a17.47 17.47 0 0 0-2.95 2.21 10.26 10.26 0 0 0-1.76 2.63s2.52-3.27 4.5-4.27l.53-.27.3-1 .48.51s5.78-3.46 6.54-4.36z" fill="#2c2661"/><path d="M207 107.24a1.31 1.31 0 0 0-.35-.56l-10.75-9c-.28-.24-.56-.06-.61.41L194 108.56a1.69 1.69 0 0 0 .42 1.33l9 7.81-.31 3 2.7-1.24a.65.65 0 0 0 .23-.51l1-11a1.86 1.86 0 0 0-.04-.71z" fill="url(#A)"/><path d="M193 98.68l2.54-1.1h.08a.35.35 0 0 1 .31.1l10.75 9a1.31 1.31 0 0 1 .35.56l-.38.19-2.19 1.06-9.46-8.07z" fill="#464193"/><path d="M191.82 111.07l11 9.58c.3.26.59.06.64-.45l1.07-11a1.71 1.71 0 0 0-.45-1.33l-10.73-9.07c-.28-.24-.56-.06-.62.41l-1.32 10.56a1.69 1.69 0 0 0 .41 1.3z" fill="#2c2661"/><path d="M204.82 119.56l1-11a1.71 1.71 0 0 0-.45-1.32l-10.74-9a.38.38 0 0 0-.25-.1.33.33 0 0 1 .34.08l10.74 9a1.71 1.71 0 0 1 .45 1.32l-1 11c0 .35-.17.57-.36.57.15-.06.24-.26.27-.55z" fill="#252553"/><path d="M200.88 103.35l.56-.28a.54.54 0 0 1 .35-.06c.06 0 .09.07.08.16v.1l-1.58.79V104a.49.49 0 0 1 .12-.26l.05-.06a1.3 1.3 0 0 1 .42-.33z" fill="#252553"/><path fill="#252553" d="M201.08 104.71l-.76-.64 1.57-1.02.75.63-1.56 1.03z"/><path d="M201.64 104l.56-.28a.54.54 0 0 1 .35-.06c.06 0 .09.07.08.16v.1l-1.58.79v-.1a.49.49 0 0 1 .12-.26l.05-.06a1.3 1.3 0 0 1 .42-.29z" fill="url(#B)"/><path fill="#732418" d="M201.98 104.26l.05-.46-.05.02-.05.46.05-.02zm.05-.46l-.79-.63-.04.02.78.63.05-.02z"/><path d="M197.47 100.48l.56-.28a.54.54 0 0 1 .35-.06c.06 0 .08.07.07.16v.1l-1.58.78v-.1a.48.48 0 0 1 .12-.25l.05-.06a1.31 1.31 0 0 1 .43-.29z" fill="#252553"/><path fill="#252553" d="M197.65 101.82l-.75-.63 1.57-1.01.74.62-1.56 1.02z"/><path d="M198.21 101.11l.56-.28a.54.54 0 0 1 .35-.06c.06 0 .08.07.07.16v.1l-1.58.78v-.1a.49.49 0 0 1 .12-.25l.05-.06a1.31 1.31 0 0 1 .43-.29z" fill="url(#C)"/><path fill="#732418" d="M198.55 101.38l.05-.46-.05.02-.05.46.05-.02zm.05-.46l-.77-.62-.04.02.76.62.05-.02z"/><path d="M202.33 101.59l-.2 2-.51-.43.2-1.9a1 1 0 0 0-.3-.8l-2.19-1.83c-.2-.16-.38-.07-.41.2l-.21 1.88-.5-.42.22-1.93c.07-.6.47-.8.9-.44l2.33 1.95a2.25 2.25 0 0 1 .67 1.72z" fill="#464193"/><path d="M198.56 98.46l.9-.09 2.61 2.43.11 1.5-.05 1.25-.58.29v-2.63l-.54-.77s-1-.79-1-.81-1.45-1.17-1.45-1.17zm-.44 2.51l.58-.29.16-1.39-.56.04-.16.03-.02 1.61zm.02-2.94l.63-.31-.17.34-.21.08-.25-.11z" fill="#464193"/><path d="M201.75 101.88l-.21 2-.51-.43.2-1.91a1 1 0 0 0-.3-.8l-2.19-1.83c-.2-.16-.38-.07-.41.2l-.21 1.89-.5-.42.22-1.93c.07-.61.47-.8.9-.44l2.33 2a2.25 2.25 0 0 1 .68 1.67z" fill="#252553"/><path d="M199.3 96.94a12.11 12.11 0 0 0-.27 2.4 3.19 3.19 0 0 0 1.57 1.58c.55.17.33-.49.45-.9a6 6 0 0 0 .1-1.31z" fill="#fad1c6"/><path d="M201.16 98.7l-1.86-1.76s-.08.39-.15.87a4.62 4.62 0 0 0 2 2 7.56 7.56 0 0 0 .01-1.11z" fill="#e2b2a6"/><path d="M199.16 97.08s.66 2.06 2.31 2.26l-.56-2.26-1.44-.4-.31.4z" fill="#494999"/><path d="M209.93 72.85c1.53 4.67-2.31 11.93-2.86 14s-6.4 12-6.4 12.05l-.06.1a3.38 3.38 0 0 0 .38.26 1.15 1.15 0 0 0 .26.1.33.33 0 0 0 .34-.14 108 108 0 0 0 5.31-9.82c.13-.35 2.54-6.48 3.15-7.84.5-1.04 2.12-6.26-.12-8.71z" fill="url(#D)"/><path d="M147.59 117.77a2.21 2.21 0 0 1-1.09-.25l-24.43-14.12a.86.86 0 0 1-.49-.74 1.12 1.12 0 0 1 .65-.91l24.11-13.92a2.7 2.7 0 0 1 2.47-.09l24.44 14.11a.86.86 0 0 1 .49.74 1.12 1.12 0 0 1-.65.91L149 117.42a2.83 2.83 0 0 1-1.41.35zm-.9-.58a2.36 2.36 0 0 0 2.09-.09l24.11-13.92c.29-.17.46-.38.46-.58a.51.51 0 0 0-.3-.41l-24.43-14.12a2.37 2.37 0 0 0-2.09.09l-24.11 13.92c-.29.17-.46.38-.46.58a.51.51 0 0 0 .3.41z" style="mix-blend-mode:lighten" fill="#7d81bd"/><path fill="url(#c)" d="M173.55 92.3v3l-25.95 14.99-25.96-14.99v-3h51.91z"/><path fill="#bcbcdf" d="M147.6 107.29L121.64 92.3l25.96-14.98 25.95 14.98-25.95 14.99z"/><path fill="#fff" d="M147.6 106.94l-25.66-14.81-.3.17 25.96 14.99 25.95-14.99-.3-.17-25.65 14.81z"/><path fill="#202045" d="M147.6 103.83l-19.97-11.52 19.97-11.53 19.96 11.53-19.96 11.52z"/><path opacity=".5" fill="url(#b)" d="M147.6 103.83l-19.97-11.52 19.97-11.53 19.96 11.53-19.96 11.52z"/><path opacity=".5" fill="url(#E)" d="M147.6 77.88l19.96 11.52v2.91L147.6 80.78v-2.9z"/><path opacity=".5" fill="url(#F)" d="M147.6 80.78l-19.97 11.53V89.4l19.97-11.52v2.9z"/><path opacity=".5" fill="url(#G)" d="M147.6 100.93L127.63 89.4l19.97-11.52 19.96 11.52-19.96 11.53z"/><path fill="#6dc4cb" opacity=".5" d="M147.6 94l-7.98-4.6 7.98-4.6 7.97 4.6-7.97 4.6z"/><path fill="#6dc4cb" opacity=".5" d="M147.6 85.22l7.61 4.39.36-.21-7.97-4.6-7.98 4.6.37.21 7.61-4.39z"/><path opacity=".5" fill="url(#H)" d="M147.6 100.93v2.9l19.96-11.52V89.4l-19.96 11.53z"/><path opacity=".5" fill="url(#I)" d="M127.63 89.4v2.91l19.97 11.52v-2.9L127.63 89.4z"/><path fill="#6dc4cb" opacity=".8" d="M147.6 100.61l-19.69-11.37-.28.16 19.97 11.53 19.96-11.53-.28-.16-19.68 11.37z"/><path d="M147.59 185.85a2.2 2.2 0 0 1-1.09-.25l-24.44-14.11a.86.86 0 0 1-.49-.74 1.12 1.12 0 0 1 .65-.91l24.11-13.92a2.7 2.7 0 0 1 2.47-.09l24.44 14.11a.86.86 0 0 1 .49.74 1.12 1.12 0 0 1-.65.91L149 185.5a2.83 2.83 0 0 1-1.41.35zm-.9-.58a2.36 2.36 0 0 0 2.09-.09l24.11-13.92c.29-.17.46-.38.46-.58a.51.51 0 0 0-.3-.41l-24.44-14.11a2.37 2.37 0 0 0-2.09.09l-24.11 13.92c-.29.17-.46.38-.46.58a.51.51 0 0 0 .3.41z" style="mix-blend-mode:lighten" fill="#7d81bd"/><path fill="url(#J)" d="M173.55 160.38v3l-25.95 14.99-25.96-14.99v-3h51.91z"/><path fill="#bcbcdf" d="M147.6 175.37l-25.96-14.99 25.96-14.98 25.95 14.98-25.95 14.99z"/><path fill="#fff" d="M147.6 175.01l-25.66-14.8-.3.17 25.96 14.99 25.95-14.99-.3-.17-25.65 14.8z"/><path fill="#202045" d="M147.6 171.91l-19.97-11.53 19.97-11.52 19.96 11.52-19.96 11.53z"/><path opacity=".5" fill="url(#K)" d="M147.6 171.91l-19.97-11.53 19.97-11.52 19.96 11.52-19.96 11.53z"/><path opacity=".5" fill="url(#L)" d="M147.6 145.95l19.96 11.53v2.9l-19.96-11.52v-2.91z"/><path opacity=".5" fill="url(#M)" d="M147.6 148.86l-19.97 11.52v-2.9l19.97-11.53v2.91z"/><path opacity=".5" fill="url(#N)" d="M147.6 169l-19.97-11.52 19.97-11.53 19.96 11.53L147.6 169z"/><path fill="#6dc4cb" opacity=".5" d="M147.6 162.08l-7.98-4.6 7.98-4.61 7.97 4.61-7.97 4.6z"/><path fill="#6dc4cb" opacity=".5" d="M147.6 153.3l7.61 4.39.36-.21-7.97-4.61-7.98 4.61.37.21 7.61-4.39z"/><path opacity=".5" fill="url(#O)" d="M147.6 169v2.91l19.96-11.53v-2.9L147.6 169z"/><path opacity=".5" fill="url(#P)" d="M127.63 157.48v2.9l19.97 11.53V169l-19.97-11.52z"/><path fill="#6dc4cb" opacity=".8" d="M147.6 168.69l-19.69-11.37-.28.16L147.6 169l19.96-11.52-.28-.16-19.68 11.37z"/><path d="M251.63 117.77a2.21 2.21 0 0 1-1.09-.25L226.1 103.4a.86.86 0 0 1-.49-.74 1.12 1.12 0 0 1 .65-.91l24.11-13.92a2.7 2.7 0 0 1 2.47-.09l24.44 14.11a.86.86 0 0 1 .49.74 1.12 1.12 0 0 1-.65.91L253 117.42a2.83 2.83 0 0 1-1.37.35zm-.9-.58a2.36 2.36 0 0 0 2.09-.09l24.11-13.92c.29-.17.46-.38.46-.58a.51.51 0 0 0-.3-.41l-24.43-14.12a2.37 2.37 0 0 0-2.09.09l-24.11 13.92c-.29.17-.46.38-.46.58a.51.51 0 0 0 .3.41z" style="mix-blend-mode:lighten" fill="#7d81bd"/><path fill="url(#Q)" d="M277.58 92.3v3l-25.95 14.99-25.95-14.99v-3h51.9z"/><path fill="#bcbcdf" d="M251.63 107.29L225.68 92.3l25.95-14.98 25.95 14.98-25.95 14.99z"/><path fill="#fff" d="M251.63 106.94l-25.65-14.81-.3.17 25.95 14.99 25.95-14.99-.3-.17-25.65 14.81z"/><path fill="#202045" d="M251.63 103.83l-19.96-11.52 19.96-11.53 19.96 11.53-19.96 11.52z"/><path opacity=".5" fill="url(#R)" d="M251.63 103.83l-19.96-11.52 19.96-11.53 19.96 11.53-19.96 11.52z"/><path opacity=".5" fill="url(#S)" d="M251.63 77.88l19.96 11.52v2.91l-19.96-11.53v-2.9z"/><path opacity=".5" fill="url(#T)" d="M251.63 80.78l-19.96 11.53V89.4l19.96-11.52v2.9z"/><path opacity=".5" fill="url(#U)" d="M251.63 100.93L231.67 89.4l19.96-11.52 19.96 11.52-19.96 11.53z"/><path fill="#6dc4cb" opacity=".5" d="M251.63 94l-7.98-4.6 7.98-4.6 7.98 4.6-7.98 4.6z"/><path fill="#6dc4cb" opacity=".5" d="M251.63 85.22l7.61 4.39.37-.21-7.98-4.6-7.98 4.6.37.21 7.61-4.39z"/><path opacity=".5" fill="url(#V)" d="M251.63 100.93v2.9l19.96-11.52V89.4l-19.96 11.53z"/><path opacity=".5" fill="url(#W)" d="M231.67 89.4v2.91l19.96 11.52v-2.9L231.67 89.4z"/><path fill="#6dc4cb" opacity=".8" d="M251.63 100.61l-19.69-11.37-.27.16 19.96 11.53 19.96-11.53-.27-.16-19.69 11.37z"/><path d="M251.63 185.85a2.2 2.2 0 0 1-1.09-.25l-24.44-14.12a.86.86 0 0 1-.49-.74 1.12 1.12 0 0 1 .65-.91l24.11-13.92a2.7 2.7 0 0 1 2.47-.09l24.44 14.11a.86.86 0 0 1 .49.74 1.12 1.12 0 0 1-.65.91L253 185.5a2.83 2.83 0 0 1-1.37.35zm-.9-.58a2.36 2.36 0 0 0 2.09-.09l24.11-13.92c.29-.17.46-.38.46-.58a.51.51 0 0 0-.3-.41l-24.44-14.11a2.37 2.37 0 0 0-2.09.09l-24.11 13.92c-.29.17-.46.38-.46.58a.51.51 0 0 0 .3.41z" style="mix-blend-mode:lighten" fill="#7d81bd"/><path fill="url(#X)" d="M277.58 160.38v3l-25.95 14.99-25.95-14.99v-3h51.9z"/><path fill="#bcbcdf" d="M251.63 175.37l-25.95-14.99 25.95-14.98 25.95 14.98-25.95 14.99z"/><path fill="#fff" d="M251.63 175.01l-25.65-14.8-.3.17 25.95 14.99 25.95-14.99-.3-.17-25.65 14.8z"/><path fill="#202045" d="M251.63 171.91l-19.96-11.53 19.96-11.52 19.96 11.52-19.96 11.53z"/><path opacity=".5" fill="url(#Y)" d="M251.63 171.91l-19.96-11.53 19.96-11.52 19.96 11.52-19.96 11.53z"/><path opacity=".5" fill="url(#Z)" d="M251.63 145.95l19.96 11.53v2.9l-19.96-11.52v-2.91z"/><path opacity=".5" fill="url(#aa)" d="M251.63 148.86l-19.96 11.52v-2.9l19.96-11.53v2.91z"/><path opacity=".5" fill="url(#ab)" d="M251.63 169l-19.96-11.52 19.96-11.53 19.96 11.53L251.63 169z"/><path fill="#6dc4cb" opacity=".5" d="M251.63 162.08l-7.98-4.6 7.98-4.61 7.98 4.61-7.98 4.6z"/><path fill="#6dc4cb" opacity=".5" d="M251.63 153.3l7.61 4.39.37-.21-7.98-4.61-7.98 4.61.37.21 7.61-4.39z"/><path opacity=".5" fill="url(#ac)" d="M251.63 169v2.91l19.96-11.53v-2.9L251.63 169z"/><path opacity=".5" fill="url(#ad)" d="M231.67 157.48v2.9l19.96 11.53V169l-19.96-11.52z"/><path fill="#6dc4cb" opacity=".8" d="M251.63 168.69l-19.69-11.37-.27.16L251.63 169l19.96-11.52-.27-.16-19.69 11.37z"/><g opacity=".5" fill="#6dc4cb"><path d="M124.14 17.22c17.93-5.4 28.6 14.92 18.12 34.51-8.89 16.62-30.57 28.63-36.26 11.17-3.33-10.27-.57-35.44 16.39-44.94-4.57 2.36-7.93 5.71-11.22 11.18 6.26 7.7 6.77 8.33 12.17 14.54 6.4-15.11 6.92-16.35 11.65-26.57a15.41 15.41 0 0 0-10.87.11zm-1.26.52l-.41.19.41-.19zm.91-.39l.3-.12-.3.12zm-.43.17l-.42.18.42-.18zm0 0l.34-.14-.34.14z" opacity=".502"/><path d="M93.82 36.49q1.57-1.65 3.37-3.24v52.3q-1.79 1.59-3.37 3.24v-52.3zm-5.38 25.2a40.46 40.46 0 0 1 2.46-3.46v33.91a40.46 40.46 0 0 0-2.46 3.46V61.69z"/><path d="M83.63 101.11l.05.12.06-3.43-.12-.18v3.5zm0 10.11V57.93a26.93 26.93 0 0 1 1.23-7v52.3a26.93 26.93 0 0 0-1.23 7v1z" opacity=".502"/><path d="M83.63 101.11l.06.12.06-3.43-.12-.19v3.5zm38.84-83.18h-.06.06zm1.62-.69zm-1.15.47h-.06.06zm.76-.32h.09-.09zm-.34.13a15.35 15.35 0 0 1 11.64-.41c-6.69 14.73-7.39 16.28-11.65 26.57-6.59-7.66-7.6-8.84-12.17-14.54 1.29-2.15 5.22-8.68 12.17-11.61z"/><path d="M164.86 146.17c-5.38 1.6-8.83-1.67-10.1-2.64-9.88-8.36-18.53-18.56-28.44-26.89-2.93-2.46-4.72-1.44-5.74-1.17-18.48 7.33-18.48 7.33-21.44 2.86-5.43-9.61-5.62-10.39-8.14-16.39-.58-1.37-2.53-3.45-3.4-3.34-4.15 1.17-3.6 2-4 2.52v-3.5c4.92-1.89 5.4-2.12 7.4 2.43 9.13 19.37 10.74 18.94 12.86 18.44 19.45-7.78 19.21-7.21 24.16-2.06 8.58 8.93 25.87 26.31 31.21 27.69a18.49 18.49 0 0 0 5.79-.41c18.77-6.29 26.22-10.24 44.59-18.16l1.65 2.67c-6.8 3-27.35 11.05-46.27 17zm58.68 21.09V115q-8.66.49-17.66.42c-68-.54-122.25-25.72-122.25-56.46v52.3c0 30.74 54.28 55.92 122.25 56.46q9 .07 17.66-.42z" opacity=".502"/><path d="M164.86 146.17c-4.86 1.24-9.41 2.41-37.86-28.17-3.6-3.62-3.6-3.62-22.09 3.75-2.1.51-5.27 1.28-14-19.57-2.7-6.16-7.2-1.08-7.24-1v-3.5A12.09 12.09 0 0 1 87.56 96a1.73 1.73 0 0 1 1.26.1c.61.32 1.24 1 2.31 3.34 5 10.73 5 10.73 8.66 16.59 2.14 3.17 2.14 3.17 19.49-3.72 1.19-.32 3.65-1 7.37 2 10.45 8.34 19 18.76 29.27 27.25 3.87 2.75 6.21 4.42 53.68-16l1.65 2.67c-6.8 3-27.49 12-46.41 17.95z"/></g></g></svg>