<svg xmlns="http://www.w3.org/2000/svg" viewBox="0 0 400 225"><defs><clipPath id="a"><path data-name="&lt;Masque&gt;" d="M289.56 75.26a30.11 30.11 0 0 0 14.79-3.49c3.33-1.92 5.24-4.39 5.24-6.78s-1.91-4.86-5.24-6.79a33.06 33.06 0 0 0-29.59 0c-3.33 1.92-5.24 4.39-5.24 6.79s1.91 4.86 5.24 6.78a30.11 30.11 0 0 0 14.8 3.49z" fill="#cde3ea"/></clipPath></defs><g data-name="Calque 2"><path fill="#6fbb7a" d="M400 225H0V0h400v225z"/><path d="M183.27 100.32c85.9 16.73 52.23 76.23 132.23 65.92S400 0 400 0H0v225S97.37 83.59 183.27 100.32z" fill="#fed951"/></g><g data-name="Calque 1"><g data-name="&lt;Groupe&gt;"><path data-name="&lt;Tracé&gt;" fill="#67c7ea" d="M105.65 151.88l79.98 46.18 14.12-8.11 18.82 10.82 65.86-38.03-18.81-10.86 21.17-12.23-79.99-46.18-101.15 58.41z"/><g data-name="&lt;Groupe&gt;"><g data-name="&lt;Groupe&gt;"><path data-name="&lt;Tracé&gt;" d="M117.41 149.17a6.65 6.65 0 0 0 3.33 5.76l62.34 36a6.65 6.65 0 0 0 6.65 0l87.39-50.44a6.65 6.65 0 0 0 3.33-5.76v-.51z" fill="#e6f0f4"/><g data-name="&lt;Groupe&gt;"><path data-name="&lt;Tracé&gt;" d="M186.4 189l93.17-53.79a1.28 1.28 0 0 0 0-2.43l-66.89-38.61-95.27 55z" fill="#f5f9fa"/></g><path data-name="&lt;Tracé&gt;" d="M128.47 150.12l-2.34-1.36a.43.43 0 0 1 0-.81l84.57-48.84a1.55 1.55 0 0 1 1.4 0l2.34 1.36a.43.43 0 0 1 0 .81l-84.57 48.84a1.55 1.55 0 0 1-1.4 0z" fill="#3c5671"/><g data-name="&lt;Groupe&gt;"><path data-name="&lt;Tracé&gt;" fill="#cde3ea" d="M242.24 149.18l-.44.26-29.12 16.8-15.98-9.22-.45-.26 29.57-17.07 16.42 9.49z"/><path data-name="&lt;Tracé&gt;" fill="#e9f4f6" d="M241.8 149.44l-29.12 16.8-15.98-9.22 29.13-16.8 15.97 9.22z"/></g><g data-name="&lt;Groupe&gt;"><g data-name="&lt;Groupe&gt;"><path data-name="&lt;Tracé&gt;" d="M247.89 121.36l-83.55 48.25a1.57 1.57 0 0 1-1.41 0l-30.19-17a.42.42 0 0 1 0-.8l83.93-48.48a1.53 1.53 0 0 1 1.4 0l29.88 17.27a.43.43 0 0 1-.06.76z" fill="#cde3ea"/><path data-name="&lt;Tracé&gt;" d="M247.86 121.37l-83.55 48.25a1.57 1.57 0 0 1-1.41 0l-30.19-17 83.9-48.47a1.53 1.53 0 0 1 1.4 0z" fill="#dfeef3"/><g data-name="&lt;Groupe&gt;"><g data-name="&lt;Groupe&gt;" fill="#253a4c"><path data-name="&lt;Tracé&gt;" d="M158.85 159.89a126 126 0 0 1 0-.17 125.86 125.86 0 0 1 0-.17.1.1 0 0 0 0-.09.1.1 0 0 0 0-.09.1.1 0 0 0 0-.09.1.1 0 0 0 0-.09.1.1 0 0 0 0-.09.1.1 0 0 0 0-.09.11.11 0 0 0 0-.12l.72.41a.48.48 0 0 0 .43 0l2.58-1.49a.11.11 0 0 0 .06-.15.1.1 0 0 0 0-.09 377.66 377.66 0 0 1 0-.26 1889.28 1889.28 0 0 0 0-.51.11.11 0 0 0 0-.12l.72.41a.47.47 0 0 0 .43 0l2.58-1.49a.11.11 0 0 0 .06-.15.1.1 0 0 0 0-.09.1.1 0 0 0 0-.09.1.1 0 0 0 0-.09.1.1 0 0 0 0-.09.1.1 0 0 0 0-.09.1.1 0 0 0 0-.09.1.1 0 0 0 0-.09.1.1 0 0 0 0-.09.1.1 0 0 0 0-.09.1.1 0 0 0 0-.09.11.11 0 0 0 0-.12l.72.41a.48.48 0 0 0 .43 0l2.58-1.49a.11.11 0 0 0 .06-.15.1.1 0 0 0 0-.09.1.1 0 0 0 0-.09.1.1 0 0 0 0-.09.1.1 0 0 0 0-.09.1.1 0 0 0 0-.09.1.1 0 0 0 0-.09.1.1 0 0 0 0-.09.1.1 0 0 0 0-.09.1.1 0 0 0 0-.09.1.1 0 0 0 0-.09.11.11 0 0 0 0-.12l.72.41a.47.47 0 0 0 .43 0l2.58-1.49a.11.11 0 0 0 .06-.15.1.1 0 0 0 0-.09.1.1 0 0 0 0-.09.1.1 0 0 0 0-.09.1.1 0 0 0 0-.09.1.1 0 0 0 0-.09.1.1 0 0 0 0-.09.1.1 0 0 0 0-.09.1.1 0 0 0 0-.09.1.1 0 0 0 0-.09.1.1 0 0 0 0-.09.11.11 0 0 0 0-.12l.72.41a.48.48 0 0 0 .43 0l2.58-1.49a.11.11 0 0 0 .06-.15.1.1 0 0 0 0-.09.1.1 0 0 0 0-.09.1.1 0 0 0 0-.09.1.1 0 0 0 0-.09.1.1 0 0 0 0-.09.1.1 0 0 0 0-.09.1.1 0 0 0 0-.09.1.1 0 0 0 0-.09.1.1 0 0 0 0-.09.1.1 0 0 0 0-.09.11.11 0 0 0 0-.12l.72.41a.48.48 0 0 0 .43 0l2.58-1.49a.11.11 0 0 0 .06-.15.1.1 0 0 0 0-.09.1.1 0 0 0 0-.09.1.1 0 0 0 0-.09.1.1 0 0 0 0-.09.1.1 0 0 0 0-.09.1.1 0 0 0 0-.09.1.1 0 0 0 0-.09.1.1 0 0 0 0-.09.1.1 0 0 0 0-.09.1.1 0 0 0 0-.09.11.11 0 0 0 0-.12l.72.41a.48.48 0 0 0 .43 0l2.58-1.49a.11.11 0 0 0 .06-.15.1.1 0 0 0 0-.09.1.1 0 0 0 0-.09.1.1 0 0 0 0-.09 125.94 125.94 0 0 1 0-.26.1.1 0 0 0 0-.09.1.1 0 0 0 0-.09.1.1 0 0 0 0-.09.1.1 0 0 0 0-.09.11.11 0 0 0 0-.12l.72.41a.47.47 0 0 0 .43 0l2.58-1.49a.11.11 0 0 0 .06-.15.1.1 0 0 0 0-.09.1.1 0 0 0 0-.09.1.1 0 0 0 0-.09.1.1 0 0 0 0-.09.1.1 0 0 0 0-.09.1.1 0 0 0 0-.09.1.1 0 0 0 0-.09.1.1 0 0 0 0-.09.1.1 0 0 0 0-.09.1.1 0 0 0 0-.09.11.11 0 0 0 0-.12l.72.41a.48.48 0 0 0 .43 0l2.58-1.49a.11.11 0 0 0 .06-.15.1.1 0 0 0 0-.09.1.1 0 0 0 0-.09.1.1 0 0 0 0-.09.1.1 0 0 0 0-.09.1.1 0 0 0 0-.09.1.1 0 0 0 0-.09.1.1 0 0 0 0-.09.1.1 0 0 0 0-.09.1.1 0 0 0 0-.09.1.1 0 0 0 0-.09.11.11 0 0 0 0-.12l.72.41a.47.47 0 0 0 .43 0l2.58-1.49a.11.11 0 0 0 .06-.15.1.1 0 0 0 0-.09.1.1 0 0 0 0-.09 418.9 418.9 0 0 1 0-.26 279.3 279.3 0 0 0 0-.43.11.11 0 0 0 0-.12l.72.41a.48.48 0 0 0 .43 0l2.58-1.49a.11.11 0 0 0 .06-.15.1.1 0 0 0 0-.09.1.1 0 0 0 0-.09 377.66 377.66 0 0 1 0-.26 1259.52 1259.52 0 0 0 0-.43.11.11 0 0 0 0-.12l.72.41a.47.47 0 0 0 .43 0l5.76-3.32a.11.11 0 0 0 .06-.15.1.1 0 0 0 0-.09.1.1 0 0 0 0-.09.1.1 0 0 0 0-.09.1.1 0 0 0 0-.09.1.1 0 0 0 0-.09.1.1 0 0 0 0-.09.1.1 0 0 0 0-.09.1.1 0 0 0 0-.09.1.1 0 0 0 0-.09.1.1 0 0 0 0-.09c0-.06 0-.13-.09-.19l-7.79-4.5a.48.48 0 0 0-.43 0l-3 1.72a.11.11 0 0 0-.06.15.1.1 0 0 0 0 .09.1.1 0 0 0 0 .09.1.1 0 0 0 0 .09.1.1 0 0 0 0 .09.1.1 0 0 0 0 .09.1.1 0 0 0 0 .09.1.1 0 0 0 0 .09.1.1 0 0 0 0 .09.1.1 0 0 0 0 .09.1.1 0 0 0 0 .09.11.11 0 0 0 0 .12l-.72-.41a.47.47 0 0 0-.43 0l-2.58 1.49a.11.11 0 0 0-.06.15.1.1 0 0 0 0 .09.1.1 0 0 0 0 .09.1.1 0 0 0 0 .09.1.1 0 0 0 0 .09.1.1 0 0 0 0 .09.1.1 0 0 0 0 .09.1.1 0 0 0 0 .09.1.1 0 0 0 0 .09.1.1 0 0 0 0 .09.1.1 0 0 0 0 .09.11.11 0 0 0 0 .12l-.72-.41a.48.48 0 0 0-.43 0l-2.58 1.49a.11.11 0 0 0-.06.15.1.1 0 0 0 0 .09.1.1 0 0 0 0 .09.1.1 0 0 0 0 .09.1.1 0 0 0 0 .09.1.1 0 0 0 0 .09.1.1 0 0 0 0 .09.1.1 0 0 0 0 .09.1.1 0 0 0 0 .09.1.1 0 0 0 0 .09.1.1 0 0 0 0 .09.11.11 0 0 0 0 .12l-.72-.41a.47.47 0 0 0-.43 0l-2.58 1.49a.11.11 0 0 0-.06.15.1.1 0 0 0 0 .09.1.1 0 0 0 0 .09.1.1 0 0 0 0 .09.1.1 0 0 0 0 .09.1.1 0 0 0 0 .09.1.1 0 0 0 0 .09.1.1 0 0 0 0 .09.1.1 0 0 0 0 .09.1.1 0 0 0 0 .09.1.1 0 0 0 0 .09.11.11 0 0 0 0 .12l-.72-.41a.48.48 0 0 0-.43 0l-2.58 1.49a.11.11 0 0 0-.06.15.1.1 0 0 0 0 .09.1.1 0 0 0 0 .09.1.1 0 0 0 0 .09.1.1 0 0 0 0 .09.1.1 0 0 0 0 .09.1.1 0 0 0 0 .09.1.1 0 0 0 0 .09.1.1 0 0 0 0 .09.1.1 0 0 0 0 .09.1.1 0 0 0 0 .09.11.11 0 0 0 0 .12l-.72-.41a.47.47 0 0 0-.43 0l-2.7 1.92a.11.11 0 0 0-.06.15.1.1 0 0 0 0 .09.1.1 0 0 0 0 .09.1.1 0 0 0 0 .09 377.79 377.79 0 0 1 0 .26 755.88 755.88 0 0 0 0 .34.11.11 0 0 0 0 .12l-.72-.41a.48.48 0 0 0-.43 0l-2.58 1.49a.11.11 0 0 0-.06.15.1.1 0 0 0 0 .09.1.1 0 0 0 0 .09.1.1 0 0 0 0 .09 125.94 125.94 0 0 1 0 .26.1.1 0 0 0 0 .09.1.1 0 0 0 0 .09.1.1 0 0 0 0 .09.1.1 0 0 0 0 .09.11.11 0 0 0 0 .12l-.72-.41a.48.48 0 0 0-.43 0l-2.58 1.49a.11.11 0 0 0-.06.15.1.1 0 0 0 0 .09.1.1 0 0 0 0 .09.1.1 0 0 0 0 .09.1.1 0 0 0 0 .09.1.1 0 0 0 0 .09.1.1 0 0 0 0 .09.1.1 0 0 0 0 .09.1.1 0 0 0 0 .09.1.1 0 0 0 0 .09.1.1 0 0 0 0 .09.11.11 0 0 0 0 .12l-.72-.41a.48.48 0 0 0-.43 0l-2.58 1.49a.11.11 0 0 0-.06.15.1.1 0 0 0 0 .09.1.1 0 0 0 0 .09.1.1 0 0 0 0 .09.1.1 0 0 0 0 .09.1.1 0 0 0 0 .09.1.1 0 0 0 0 .09.1.1 0 0 0 0 .09.1.1 0 0 0 0 .09.1.1 0 0 0 0 .09.1.1 0 0 0 0 .09.11.11 0 0 0 0 .12l-.72-.41a.47.47 0 0 0-.43 0l-2.55 1.22a.11.11 0 0 0-.06.15.1.1 0 0 0 0 .09.1.1 0 0 0 0 .09.1.1 0 0 0 0 .09.1.1 0 0 0 0 .09.1.1 0 0 0 0 .09.1.1 0 0 0 0 .09.1.1 0 0 0 0 .09.1.1 0 0 0 0 .09.1.1 0 0 0 0 .09.1.1 0 0 0 0 .09.11.11 0 0 0 0 .12l-.72-.41a.48.48 0 0 0-.43 0l-2.58 1.49a.11.11 0 0 0-.06.15.1.1 0 0 0 0 .09.1.1 0 0 0 0 .09.1.1 0 0 0 0 .09.1.1 0 0 0 0 .09.1.1 0 0 0 0 .09.1.1 0 0 0 0 .09.1.1 0 0 0 0 .09.1.1 0 0 0 0 .09.1.1 0 0 0 0 .09.1.1 0 0 0 0 .09.11.11 0 0 0 0 .12l-.72-.41a.47.47 0 0 0-.43 0l-2.5 1.3a.11.11 0 0 0-.06.15.1.1 0 0 0 0 .09.1.1 0 0 0 0 .09.1.1 0 0 0 0 .09.1.1 0 0 0 0 .09 377.66 377.66 0 0 1 0 .26 377.87 377.87 0 0 0 0 .26.11.11 0 0 0 0 .12l-.72-.41a.48.48 0 0 0-.43 0l-2.58 1.49a.11.11 0 0 0-.06.15.1.1 0 0 0 0 .09.1.1 0 0 0 0 .09.1.1 0 0 0 0 .09.1.1 0 0 0 0 .09.1.1 0 0 0 0 .09.1.1 0 0 0 0 .09.1.1 0 0 0 0 .09.1.1 0 0 0 0 .09.1.1 0 0 0 0 .09.1.1 0 0 0 0 .09.11.11 0 0 0 0 .12l-.72-.41a.47.47 0 0 0-.43 0l-4 2.29a.11.11 0 0 0-.06.15.1.1 0 0 0 0 .09.1.1 0 0 0 0 .09.1.1 0 0 0 0 .09.1.1 0 0 0 0 .09.1.1 0 0 0 0 .09.1.1 0 0 0 0 .09.1.1 0 0 0 0 .09.1.1 0 0 0 0 .09.1.1 0 0 0 0 .09.1.1 0 0 0 0 .09c0 .06 0 .13.09.19l3.21 1.85a.47.47 0 0 0 .43 0l4-2.29a.11.11 0 0 0 .06-.15.1.1 0 0 0 0-.09.1.1 0 0 0 0-.09.1.1 0 0 0 0-.09.1.1 0 0 0 0-.09.1.1 0 0 0 0-.09.1.1 0 0 0 0-.09.1.1 0 0 0 0-.09.1.1 0 0 0 0-.09.1.1 0 0 0 0-.09.1.1 0 0 0 0-.09.11.11 0 0 0 0-.12l.72.41a.48.48 0 0 0 .43 0l2.58-1.49a.11.11 0 0 0 .06-.15.1.1 0 0 0 0-.09.1.1 0 0 0 0-.09.1.1 0 0 0 0-.09.1.1 0 0 0 0-.09.1.1 0 0 0 0-.09.1.1 0 0 0 0-.09.1.1 0 0 0 0-.09.1.1 0 0 0 0-.09.1.1 0 0 0 0-.09.1.1 0 0 0 0-.09.11.11 0 0 0 0-.12l.72.41a.47.47 0 0 0 .43 0l2.58-1.49a.11.11 0 0 0 .06-.15.1.1 0 0 0 0-.09.1.1 0 0 0 0-.09.1.1 0 0 0 0-.09 377 377 0 0 1 0-.26 754.44 754.44 0 0 0 0-.34.11.11 0 0 0 0-.12l.72.41a.48.48 0 0 0 .43 0l2.58-1.49a.11.11 0 0 0 .06-.15.1.1 0 0 0 0-.09.1.1 0 0 0 0-.09.1.1 0 0 0 0-.09.1.1 0 0 0 0-.09.1.1 0 0 0 0-.09 116.26 116.26 0 0 1 0-.17.1.1 0 0 0 0-.09.1.1 0 0 0 0-.09.1.1 0 0 0 0-.09.11.11 0 0 0 0-.12l.72.41a.48.48 0 0 0 .43 0l2.58-1.49a.11.11 0 0 0 .06-.15.1.1 0 0 0 0-.09.1.1 0 0 0 0-.09.1.1 0 0 0 0-.09.1.1 0 0 0 0-.09.1.1 0 0 0 0-.09.1.1 0 0 0 0-.09.1.1 0 0 0 0-.09.1.1 0 0 0 0-.09.1.1 0 0 0 0-.09.1.1 0 0 0 0-.09.11.11 0 0 0 0-.12l.72.41a.48.48 0 0 0 .43 0l2.58-1.49a.11.11 0 0 0 .06-.15.1.1 0 0 0 0-.09.1.1 0 0 0 0-.09.1.1 0 0 0 0-.09.1.1 0 0 0 0-.09.1.1 0 0 0 0-.09.1.1 0 0 0 0-.09.1.1 0 0 0 0-.09.1.1 0 0 0 0-.09.1.1 0 0 0 0-.09.1.1 0 0 0 0-.09.11.11 0 0 0 0-.12l.72.41a.47.47 0 0 0 .43 0l2.58-1.49a.11.11 0 0 0 .06-.15.1.1 0 0 0 0-.09.1.1 0 0 0 0-.09.1.1 0 0 0 0-.09.1.1 0 0 0 0-.09.1.1 0 0 0 0-.09.1.1 0 0 0 0-.09.1.1 0 0 0 0-.09.1.1 0 0 0 0-.09.1.1 0 0 0 0-.09.1.1 0 0 0 0-.09.11.11 0 0 0 0-.12l.72.41a.48.48 0 0 0 .43 0l2.58-1.49a.11.11 0 0 0 .06-.15.1.1 0 0 0 0-.09.1.1 0 0 0 0-.09.1.1 0 0 0 0-.09.1.1 0 0 0 0-.09.1.1 0 0 0 0-.09.1.1 0 0 0 0-.09.1.1 0 0 0 0-.09.1.1 0 0 0 0-.09.1.1 0 0 0 0-.09.1.1 0 0 0 0-.09.11.11 0 0 0 0-.12l.72.41a.48.48 0 0 0 .43 0l2.58-1.49a.11.11 0 0 0 .06-.15.1.1 0 0 0 0-.09.1.1 0 0 0 0-.09.1.1 0 0 0 0-.09.1.1 0 0 0 0-.09 377.79 377.79 0 0 1 0-.26 378 378 0 0 0 0-.26.11.11 0 0 0 0-.12l.72.41a.48.48 0 0 0 .43 0l2.58-1.49a.11.11 0 0 0 .06-.15.1.1 0 0 0 0-.09.1.1 0 0 0 0-.09.1.1 0 0 0 0-.09.1.1 0 0 0 0-.09.1.1 0 0 0 0-.09.1.1 0 0 0 0-.09.1.1 0 0 0 0-.09.1.1 0 0 0 0-.09.1.1 0 0 0 0-.09.1.1 0 0 0 0-.09.11.11 0 0 0 0-.12l.72.41a.47.47 0 0 0 .43 0l2.58-1.49a.11.11 0 0 0 .06-.15.1.1 0 0 0 0-.09.1.1 0 0 0 0-.09.1.1 0 0 0 0-.09.1.1 0 0 0 0-.09.1.1 0 0 0 0-.09.1.1 0 0 0 0-.09.1.1 0 0 0 0-.09.1.1 0 0 0 0-.09.1.1 0 0 0 0-.09.1.1 0 0 0 0-.09.11.11 0 0 0 0-.12l.72.41a.48.48 0 0 0 .43 0l2.58-1.49a.11.11 0 0 0 .06-.15.1.1 0 0 0 0-.09.1.1 0 0 0 0-.09.1.1 0 0 0 0-.09.1.1 0 0 0 0-.09.1.1 0 0 0 0-.09.1.1 0 0 0 0-.09.1.1 0 0 0 0-.09.1.1 0 0 0 0-.09.1.1 0 0 0 0-.09.1.1 0 0 0 0-.09.11.11 0 0 0 0-.12l.72.41a.47.47 0 0 0 .43 0l2.58-1.49a.11.11 0 0 0 .06-.15.1.1 0 0 0 0-.09.1.1 0 0 0 0-.09.1.1 0 0 0 0-.09.1.1 0 0 0 0-.09.1.1 0 0 0 0-.09.1.1 0 0 0 0-.09.1.1 0 0 0 0-.09.1.1 0 0 0 0-.09.1.1 0 0 0 0-.09.1.1 0 0 0 0-.09.11.11 0 0 0 0-.12l1 .61-1.77 1a.11.11 0 0 0-.06.15.1.1 0 0 0 0 .09.1.1 0 0 0 0 .09.1.1 0 0 0 0 .09.1.1 0 0 0 0 .09.1.1 0 0 0 0 .09.1.1 0 0 0 0 .09.1.1 0 0 0 0 .09.1.1 0 0 0 0 .09.1.1 0 0 0 0 .09.1.1 0 0 0 0 .09.11.11 0 0 0 0 .12l-.72-.41a.48.48 0 0 0-.43 0l-2.73 2.19a.11.11 0 0 0-.06.15.1.1 0 0 0 0 .09.1.1 0 0 0 0 .09.1.1 0 0 0 0 .09.1.1 0 0 0 0 .09.1.1 0 0 0 0 .09.1.1 0 0 0 0 .09.1.1 0 0 0 0 .09.1.1 0 0 0 0 .09.1.1 0 0 0 0 .09.1.1 0 0 0 0 .09.11.11 0 0 0 0 .12l-.72-.41a.48.48 0 0 0-.43 0l-2.58 1.49a.11.11 0 0 0-.06.15.1.1 0 0 0 0 .09.1.1 0 0 0 0 .09.1.1 0 0 0 0 .09.1.1 0 0 0 0 .09.1.1 0 0 0 0 .09.1.1 0 0 0 0 .09.1.1 0 0 0 0 .09.1.1 0 0 0 0 .09.1.1 0 0 0 0 .09.1.1 0 0 0 0 .09.11.11 0 0 0 0 .12l-.72-.41a.48.48 0 0 0-.43 0l-2.58 1.49a.11.11 0 0 0-.06.15.1.1 0 0 0 0 .09.1.1 0 0 0 0 .09.1.1 0 0 0 0 .09.1.1 0 0 0 0 .09.1.1 0 0 0 0 .09.1.1 0 0 0 0 .09.1.1 0 0 0 0 .09.1.1 0 0 0 0 .09.1.1 0 0 0 0 .09.1.1 0 0 0 0 .09.11.11 0 0 0 0 .12l-.72-.41a.48.48 0 0 0-.43 0l-2.58 1.49a.11.11 0 0 0-.06.15.1.1 0 0 0 0 .09.1.1 0 0 0 0 .09.1.1 0 0 0 0 .09.1.1 0 0 0 0 .09.1.1 0 0 0 0 .09.1.1 0 0 0 0 .09.1.1 0 0 0 0 .09.1.1 0 0 0 0 .09.1.1 0 0 0 0 .09.1.1 0 0 0 0 .09.11.11 0 0 0 0 .12l-.72-.41a.48.48 0 0 0-.43 0l-2.58 1.49a.11.11 0 0 0-.06.15.1.1 0 0 0 0 .09.1.1 0 0 0 0 .09.1.1 0 0 0 0 .09.1.1 0 0 0 0 .09.1.1 0 0 0 0 .09.1.1 0 0 0 0 .09.1.1 0 0 0 0 .09.1.1 0 0 0 0 .09.1.1 0 0 0 0 .09.1.1 0 0 0 0 .09.11.11 0 0 0 0 .12l-.72-.41a.48.48 0 0 0-.43 0l-2.58 1.49a.11.11 0 0 0-.06.15.1.1 0 0 0 0 .09.1.1 0 0 0 0 .09.1.1 0 0 0 0 .09.1.1 0 0 0 0 .09.1.1 0 0 0 0 .09.1.1 0 0 0 0 .09.1.1 0 0 0 0 .09.1.1 0 0 0 0 .09.1.1 0 0 0 0 .09.1.1 0 0 0 0 .09.11.11 0 0 0 0 .12l-.72-.41a.48.48 0 0 0-.43 0l-2.58 1.49a.11.11 0 0 0-.06.15.1.1 0 0 0 0 .09.1.1 0 0 0 0 .09.1.1 0 0 0 0 .09.1.1 0 0 0 0 .09.1.1 0 0 0 0 .09.1.1 0 0 0 0 .09.1.1 0 0 0 0 .09.1.1 0 0 0 0 .09.1.1 0 0 0 0 .09.1.1 0 0 0 0 .09.11.11 0 0 0 0 .12l-.72-.41a.47.47 0 0 0-.43 0l-2.58 1.49a.11.11 0 0 0-.06.15.1.1 0 0 0 0 .09.1.1 0 0 0 0 .09.1.1 0 0 0 0 .09.1.1 0 0 0 0 .09.1.1 0 0 0 0 .09.1.1 0 0 0 0 .09.1.1 0 0 0 0 .09.1.1 0 0 0 0 .09.1.1 0 0 0 0 .09.1.1 0 0 0 0 .09.11.11 0 0 0 0 .12l-.72-.41a.48.48 0 0 0-.43 0l-2.58 1.49a.11.11 0 0 0-.06.15.1.1 0 0 0 0 .09.1.1 0 0 0 0 .09.1.1 0 0 0 0 .09.1.1 0 0 0 0 .09.1.1 0 0 0 0 .09.1.1 0 0 0 0 .09.1.1 0 0 0 0 .09.1.1 0 0 0 0 .09.1.1 0 0 0 0 .09.1.1 0 0 0 0 .09.11.11 0 0 0 0 .12l-.72-.41a.47.47 0 0 0-.43 0l-2.58 1.49a.11.11 0 0 0-.06.15.1.1 0 0 0 0 .09.1.1 0 0 0 0 .09.1.1 0 0 0 0 .09.1.1 0 0 0 0 .09.1.1 0 0 0 0 .09.1.1 0 0 0 0 .09.1.1 0 0 0 0 .09.1.1 0 0 0 0 .09.1.1 0 0 0 0 .09.1.1 0 0 0 0 .09.11.11 0 0 0 0 .12l-.72-.41a.48.48 0 0 0-.43 0l-2.58 1.49a.11.11 0 0 0-.06.15.1.1 0 0 0 0 .09.1.1 0 0 0 0 .09.1.1 0 0 0 0 .09.1.1 0 0 0 0 .09.1.1 0 0 0 0 .09.1.1 0 0 0 0 .09.1.1 0 0 0 0 .09.1.1 0 0 0 0 .09.1.1 0 0 0 0 .09.1.1 0 0 0 0 .09.11.11 0 0 0 0 .12l-.72-.41a.48.48 0 0 0-.43 0l-5 2.86a.11.11 0 0 0-.06.15.1.1 0 0 0 0 .09.1.1 0 0 0 0 .09.1.1 0 0 0 0 .09.1.1 0 0 0 0 .09.1.1 0 0 0 0 .09.1.1 0 0 0 0 .09.1.1 0 0 0 0 .09.1.1 0 0 0 0 .09.1.1 0 0 0 0 .09.1.1 0 0 0 0 .09c0 .06 0 .13.09.19l3.21 1.85a.47.47 0 0 0 .43 0l5-2.86a.11.11 0 0 0 .29-.99zm-17.38-10.83l3.21 1.85a.47.47 0 0 0 .43 0l2.58-1.49a.11.11 0 0 0 .06-.15.1.1 0 0 0 0-.09.1.1 0 0 0 0-.09.1.1 0 0 0 0-.09.1.1 0 0 0 0-.09.1.1 0 0 0 0-.09.1.1 0 0 0 0-.09.1.1 0 0 0 0-.09.1.1 0 0 0 0-.09.1.1 0 0 0 0-.09.1.1 0 0 0 0-.09.11.11 0 0 0 0-.12l.72.41a.48.48 0 0 0 .43 0l2.58-1.49a.11.11 0 0 0 .06-.15.1.1 0 0 0 0-.09.1.1 0 0 0 0-.09.1.1 0 0 0 0-.09.1.1 0 0 0 0-.09.1.1 0 0 0 0-.09.1.1 0 0 0 0-.09.1.1 0 0 0 0-.09.1.1 0 0 0 0-.09.1.1 0 0 0 0-.09.1.1 0 0 0 0-.09.11.11 0 0 0 0-.12l.72.41a.47.47 0 0 0 .43 0l2.58-1.49a.11.11 0 0 0 .06-.15.1.1 0 0 0 0-.09.1.1 0 0 0 0-.09.1.1 0 0 0 0-.09.1.1 0 0 0 0-.09.1.1 0 0 0 0-.09.1.1 0 0 0 0-.09.1.1 0 0 0 0-.09.1.1 0 0 0 0-.09.1.1 0 0 0 0-.09.1.1 0 0 0 0-.09.11.11 0 0 0 0-.12l.72.41a.48.48 0 0 0 .43 0l2.58-1.49a.11.11 0 0 0 .06-.15.1.1 0 0 0 0-.09.1.1 0 0 0 0-.09.1.1 0 0 0 0-.09.1.1 0 0 0 0-.09.1.1 0 0 0 0-.09.1.1 0 0 0 0-.09.1.1 0 0 0 0-.09.1.1 0 0 0 0-.09.1.1 0 0 0 0-.09.1.1 0 0 0 0-.09c0-.06 0-.13-.09-.18l-3.21-1.85a.48.48 0 0 0-.43 0l-2.58 1.49a.11.11 0 0 0-.06.15.1.1 0 0 0 0 .09.1.1 0 0 0 0 .09.1.1 0 0 0 0 .09.1.1 0 0 0 0 .09.1.1 0 0 0 0 .09.1.1 0 0 0 0 .09.1.1 0 0 0 0 .09.1.1 0 0 0 0 .09.1.1 0 0 0 0 .09.1.1 0 0 0 0 .09.11.11 0 0 0 0 .12l-.72-.41a.48.48 0 0 0-.43 0l-2.6 1.68a.11.11 0 0 0-.06.15.1.1 0 0 0 0 .09.1.1 0 0 0 0 .09.1.1 0 0 0 0 .09.1.1 0 0 0 0 .09.1.1 0 0 0 0 .09.1.1 0 0 0 0 .09.1.1 0 0 0 0 .09.1.1 0 0 0 0 .09.1.1 0 0 0 0 .09.1.1 0 0 0 0 .09.11.11 0 0 0 0 .12l-.72-.41a.48.48 0 0 0-.43 0l-2.58 1.49a.11.11 0 0 0-.06.15.1.1 0 0 0 0 .09.1.1 0 0 0 0 .09.1.1 0 0 0 0 .09.1.1 0 0 0 0 .09.1.1 0 0 0 0 .09.1.1 0 0 0 0 .09.1.1 0 0 0 0 .09.1.1 0 0 0 0 .09.1.1 0 0 0 0 .09.1.1 0 0 0 0 .09.11.11 0 0 0 0 .12l-.72-.41a.48.48 0 0 0-.43 0l-2.58 1.49a.11.11 0 0 0-.06.15.1.1 0 0 0 0 .09.1.1 0 0 0 0 .09.1.1 0 0 0 0 .09.1.1 0 0 0 0 .09.1.1 0 0 0 0 .09.1.1 0 0 0 0 .09.1.1 0 0 0 0 .09.1.1 0 0 0 0 .09.1.1 0 0 0 0 .09.1.1 0 0 0 0 .09c-.02-.13.01-.07.11-.01z"/><path data-name="&lt;Tracé&gt;" d="M161.64 163.57a.1.1 0 0 0 0-.09.1.1 0 0 0 0-.09.1.1 0 0 0 0-.09.1.1 0 0 0 0-.09.1.1 0 0 0 0-.09.1.1 0 0 0 0-.09.1.1 0 0 0 0-.09.1.1 0 0 0 0-.09.1.1 0 0 0 0-.09.1.1 0 0 0 0-.09.11.11 0 0 0 0-.12l.72.41a.47.47 0 0 0 .43 0l2.58-1.49a.11.11 0 0 0 .06-.15.1.1 0 0 0 0-.09.1.1 0 0 0 0-.09.1.1 0 0 0 0-.09.1.1 0 0 0 0-.09.1.1 0 0 0 0-.09.1.1 0 0 0 0-.09.1.1 0 0 0 0-.09.1.1 0 0 0 0-.09.1.1 0 0 0 0-.09.1.1 0 0 0 0-.09.11.11 0 0 0 0-.12l.72.41a.48.48 0 0 0 .43 0l2.58-1.49a.11.11 0 0 0 .06-.15 251.84 251.84 0 0 0 0-.43 126 126 0 0 1 0-.17.1.1 0 0 0 0-.09.1.1 0 0 0 0-.09.1.1 0 0 0 0-.09.11.11 0 0 0 0-.12l.72.41a.48.48 0 0 0 .43 0l2.58-1.49a.11.11 0 0 0 .05 0 .1.1 0 0 0 0-.09.1.1 0 0 0 0-.09.1.1 0 0 0 0-.09.1.1 0 0 0 0-.09 377.22 377.22 0 0 1 0-.26 377.14 377.14 0 0 0 0-.26.11.11 0 0 0 0-.12l.72.41a.48.48 0 0 0 .43 0l2.58-1.49a.11.11 0 0 0 .06-.15.1.1 0 0 0 0-.09.1.1 0 0 0 0-.09.1.1 0 0 0 0-.09.1.1 0 0 0 0-.09.1.1 0 0 0 0-.09.1.1 0 0 0 0-.09.1.1 0 0 0 0-.09.1.1 0 0 0 0-.09.1.1 0 0 0 0-.09.1.1 0 0 0 0-.09.11.11 0 0 0 0-.12l.72.41a.47.47 0 0 0 .43 0l2.58-1.49a.11.11 0 0 0 .06-.15.1.1 0 0 0 0-.09.1.1 0 0 0 0-.09.1.1 0 0 0 0-.09.1.1 0 0 0 0-.09.1.1 0 0 0 0-.09.1.1 0 0 0 0-.09.1.1 0 0 0 0-.09.1.1 0 0 0 0-.09.1.1 0 0 0 0-.09.1.1 0 0 0 0-.09.11.11 0 0 0 0-.12l.72.41a.48.48 0 0 0 .43 0l2.58-1.49a.11.11 0 0 0 .06-.15.1.1 0 0 0 0-.09.1.1 0 0 0 0-.09.1.1 0 0 0 0-.09.1.1 0 0 0 0-.09.1.1 0 0 0 0-.09.1.1 0 0 0 0-.09.1.1 0 0 0 0-.09.1.1 0 0 0 0-.09.1.1 0 0 0 0-.09.1.1 0 0 0 0-.09.11.11 0 0 0 0-.12l.72.41a.47.47 0 0 0 .43 0l2.58-1.49a.11.11 0 0 0 .06-.15.1.1 0 0 0 0-.09.1.1 0 0 0 0-.09.1.1 0 0 0 0-.09.1.1 0 0 0 0-.09.1.1 0 0 0 0-.09.1.1 0 0 0 0-.09.1.1 0 0 0 0-.09.1.1 0 0 0 0-.09.1.1 0 0 0 0-.09.1.1 0 0 0 0-.09.11.11 0 0 0 0-.12l.72.41a.48.48 0 0 0 .43 0l2.58-1.49a.11.11 0 0 0 .06-.15.1.1 0 0 0 0-.09.1.1 0 0 0 0-.09.1.1 0 0 0 0-.09.1.1 0 0 0 0-.09.1.1 0 0 0 0-.09.1.1 0 0 0 0-.09.1.1 0 0 0 0-.09.1.1 0 0 0 0-.09.1.1 0 0 0 0-.09.1.1 0 0 0 0-.09.11.11 0 0 0 0-.12l.72.41a.48.48 0 0 0 .43 0l2.58-1.49a.11.11 0 0 0 .06-.15.1.1 0 0 0 0-.09.1.1 0 0 0 0-.09.1.1 0 0 0 0-.09.1.1 0 0 0 0-.09.1.1 0 0 0 0-.09.1.1 0 0 0 0-.09.1.1 0 0 0 0-.09.1.1 0 0 0 0-.09.1.1 0 0 0 0-.09.1.1 0 0 0 0-.09.11.11 0 0 0 0-.12l.72.41a.48.48 0 0 0 .43 0l2.58-1.49a.11.11 0 0 0 .06-.15.1.1 0 0 0 0-.09.1.1 0 0 0 0-.09.1.1 0 0 0 0-.09.1.1 0 0 0 0-.09.1.1 0 0 0 0-.09.1.1 0 0 0 0-.09.1.1 0 0 0 0-.09.1.1 0 0 0 0-.09.1.1 0 0 0 0-.09.1.1 0 0 0 0-.09.11.11 0 0 0 0-.12l.72.41a.48.48 0 0 0 .43 0l2.58-1.49a.11.11 0 0 0 .06-.15.1.1 0 0 0 0-.09.1.1 0 0 0 0-.09.1.1 0 0 0 0-.09.1.1 0 0 0 0-.09.1.1 0 0 0 0-.09.1.1 0 0 0 0-.09.1.1 0 0 0 0-.09.1.1 0 0 0 0-.09.1.1 0 0 0 0-.09.1.1 0 0 0 0-.09.11.11 0 0 0 0-.12l.72.41a.48.48 0 0 0 .43 0l7.54-4.35a.11.11 0 0 0 .06-.15.1.1 0 0 0 0-.09.1.1 0 0 0 0-.09.1.1 0 0 0 0-.09.1.1 0 0 0 0-.09.1.1 0 0 0 0-.09.1.1 0 0 0 0-.09.1.1 0 0 0 0-.09.1.1 0 0 0 0-.09.1.1 0 0 0 0-.09.1.1 0 0 0 0-.09c0-.06 0-.13-.09-.19l-3.21-1.85a.48.48 0 0 0-.43 0l-7.76 5.03a.11.11 0 0 0-.06.15.1.1 0 0 0 0 .09.1.1 0 0 0 0 .09.1.1 0 0 0 0 .09.1.1 0 0 0 0 .09.1.1 0 0 0 0 .09.1.1 0 0 0 0 .09.1.1 0 0 0 0 .09.1.1 0 0 0 0 .09.1.1 0 0 0 0 .09.1.1 0 0 0 0 .09.11.11 0 0 0 0 .12l-.72-.41a.48.48 0 0 0-.43 0l-2.58 1.49a.11.11 0 0 0-.06.15.1.1 0 0 0 0 .09.1.1 0 0 0 0 .09.1.1 0 0 0 0 .09.1.1 0 0 0 0 .09.1.1 0 0 0 0 .09.1.1 0 0 0 0 .09.1.1 0 0 0 0 .09.1.1 0 0 0 0 .09.1.1 0 0 0 0 .09.1.1 0 0 0 0 .09.11.11 0 0 0 0 .12l-.72-.41a.48.48 0 0 0-.43 0l-2.58 1.37a.11.11 0 0 0-.06.15.1.1 0 0 0 0 .09.1.1 0 0 0 0 .09.1.1 0 0 0 0 .09.1.1 0 0 0 0 .09.1.1 0 0 0 0 .09.1.1 0 0 0 0 .09.1.1 0 0 0 0 .09.1.1 0 0 0 0 .09.1.1 0 0 0 0 .09.1.1 0 0 0 0 .09.11.11 0 0 0 0 .12l-.72-.41a.47.47 0 0 0-.43 0l-2.58 1.49a.11.11 0 0 0-.06.15.1.1 0 0 0 0 .09.1.1 0 0 0 0 .09.1.1 0 0 0 0 .09.1.1 0 0 0 0 .09 377.79 377.79 0 0 1 0 .26 377.87 377.87 0 0 0 0 .26.11.11 0 0 0 0 .12l-.72-.41a.48.48 0 0 0-.43 0l-2.58 1.49a.11.11 0 0 0-.06.15.1.1 0 0 0 0 .09.1.1 0 0 0 0 .09.1.1 0 0 0 0 .09.1.1 0 0 0 0 .09.1.1 0 0 0 0 .09.1.1 0 0 0 0 .09.1.1 0 0 0 0 .09.1.1 0 0 0 0 .09.1.1 0 0 0 0 .09.1.1 0 0 0 0 .09.11.11 0 0 0 0 .12l-.72-.41a.47.47 0 0 0-.43 0l-2.58 1.49a.11.11 0 0 0-.06.15.1.1 0 0 0 0 .09.1.1 0 0 0 0 .09.1.1 0 0 0 0 .09.1.1 0 0 0 0 .09.1.1 0 0 0 0 .09.1.1 0 0 0 0 .09.1.1 0 0 0 0 .09.1.1 0 0 0 0 .09.1.1 0 0 0 0 .09.1.1 0 0 0 0 .09.11.11 0 0 0 0 .12l-.72-.41a.48.48 0 0 0-.43 0l-2.42 1.22a.11.11 0 0 0-.06.15.1.1 0 0 0 0 .09.1.1 0 0 0 0 .09.1.1 0 0 0 0 .09.1.1 0 0 0 0 .09.1.1 0 0 0 0 .09.1.1 0 0 0 0 .09.1.1 0 0 0 0 .09.1.1 0 0 0 0 .09.1.1 0 0 0 0 .09.1.1 0 0 0 0 .09.11.11 0 0 0 0 .12l-.72-.41a.48.48 0 0 0-.43 0l-2.58 1.49a.11.11 0 0 0-.06.15.1.1 0 0 0 0 .09.1.1 0 0 0 0 .09.1.1 0 0 0 0 .09.1.1 0 0 0 0 .09.1.1 0 0 0 0 .09.1.1 0 0 0 0 .09.1.1 0 0 0 0 .09.1.1 0 0 0 0 .09.1.1 0 0 0 0 .09.1.1 0 0 0 0 .09.11.11 0 0 0 0 .12l-.72-.41a.48.48 0 0 0-.43 0l-2.58 1.49a.11.11 0 0 0-.06.15.1.1 0 0 0 0 .09.1.1 0 0 0 0 .09.1.1 0 0 0 0 .09.1.1 0 0 0 0 .09.1.1 0 0 0 0 .09.1.1 0 0 0 0 .09.1.1 0 0 0 0 .09.1.1 0 0 0 0 .09.1.1 0 0 0 0 .09.1.1 0 0 0 0 .09.11.11 0 0 0 0 .12l-.72-.41a.47.47 0 0 0-.43 0l-2.58 1.49a.11.11 0 0 0-.06.15.1.1 0 0 0 0 .09.1.1 0 0 0 0 .09 377.87 377.87 0 0 1 0 .26 251.8 251.8 0 0 0 0 .43.11.11 0 0 0 0 .12l-.72-.41a.48.48 0 0 0-.43 0l-2.58 1.49a.11.11 0 0 0-.06.15.1.1 0 0 0 0 .09.1.1 0 0 0 0 .09.1.1 0 0 0 0 .09 125.94 125.94 0 0 1 0 .26.1.1 0 0 0 0 .09.1.1 0 0 0 0 .09.1.1 0 0 0 0 .09.1.1 0 0 0 0 .09.11.11 0 0 0 0 .12l-.72-.41a.48.48 0 0 0-.43 0l-2.52 1.19a.11.11 0 0 0-.06.15.1.1 0 0 0 0 .09.1.1 0 0 0 0 .09.1.1 0 0 0 0 .09.1.1 0 0 0 0 .09.1.1 0 0 0 0 .09.1.1 0 0 0 0 .09.1.1 0 0 0 0 .09.1.1 0 0 0 0 .09.1.1 0 0 0 0 .09.1.1 0 0 0 0 .09.11.11 0 0 0 0 .12l-.72-.41a.48.48 0 0 0-.43 0l-3.18 1.83a.11.11 0 0 0-.06.15.1.1 0 0 0 0 .09.1.1 0 0 0 0 .09.1.1 0 0 0 0 .09.1.1 0 0 0 0 .09.1.1 0 0 0 0 .09.1.1 0 0 0 0 .09.1.1 0 0 0 0 .09.1.1 0 0 0 0 .09.1.1 0 0 0 0 .09.1.1 0 0 0 0 .09c0 .06 0 .13.09.19l3.21 1.85a.48.48 0 0 0 .43 0l3.18-1.83a.11.11 0 0 0 .07-.28zm-19.31-11.15a.1.1 0 0 0 0-.09.1.1 0 0 0 0-.09.1.1 0 0 0 0-.09.1.1 0 0 0 0-.09.1.1 0 0 0 0-.09.1.1 0 0 0 0-.09.1.1 0 0 0 0-.09.1.1 0 0 0 0-.09.1.1 0 0 0 0-.09.1.1 0 0 0 0-.09c0-.06 0-.13-.09-.18l-3.24-1.81a.48.48 0 0 0-.43 0l-3.18 1.83a.11.11 0 0 0-.06.15.1.1 0 0 0 0 .09.1.1 0 0 0 0 .09.1.1 0 0 0 0 .09.1.1 0 0 0 0 .09.1.1 0 0 0 0 .09.1.1 0 0 0 0 .09.1.1 0 0 0 0 .09.1.1 0 0 0 0 .09.1.1 0 0 0 0 .09.1.1 0 0 0 0 .09c0 .06 0 .13.09.19l3.21 1.85a.48.48 0 0 0 .43 0l3.18-1.83a.11.11 0 0 0 .09-.2zm4.97 3.58a.1.1 0 0 0 0-.09.1.1 0 0 0 0-.09.1.1 0 0 0 0-.09.1.1 0 0 0 0-.09.1.1 0 0 0 0-.09.1.1 0 0 0 0-.09.1.1 0 0 0 0-.09.1.1 0 0 0 0-.09.1.1 0 0 0 0-.09.1.1 0 0 0 0-.09.11.11 0 0 0 0-.12l.72.41a.48.48 0 0 0 .43 0l2.58-1.49a.11.11 0 0 0 .06-.15.1.1 0 0 0 0-.09.1.1 0 0 0 0-.09.1.1 0 0 0 0-.09.1.1 0 0 0 0-.09.1.1 0 0 0 0-.09.1.1 0 0 0 0-.09.1.1 0 0 0 0-.09.1.1 0 0 0 0-.09.1.1 0 0 0 0-.09.1.1 0 0 0 0-.09.11.11 0 0 0 0-.12l.72.41a.48.48 0 0 0 .43 0l2.58-1.49a.11.11 0 0 0 .06-.15.1.1 0 0 0 0-.09.1.1 0 0 0 0-.09.1.1 0 0 0 0-.09.1.1 0 0 0 0-.09.1.1 0 0 0 0-.09.1.1 0 0 0 0-.09.1.1 0 0 0 0-.09.1.1 0 0 0 0-.09.1.1 0 0 0 0-.09.1.1 0 0 0 0-.09.11.11 0 0 0 0-.12l.72.41a.48.48 0 0 0 .43 0l2.58-1.49a.11.11 0 0 0 .06-.15.1.1 0 0 0 0-.09.1.1 0 0 0 0-.09.1.1 0 0 0 0-.09.1.1 0 0 0 0-.09.1.1 0 0 0 0-.09.1.1 0 0 0 0-.09.1.1 0 0 0 0-.09.1.1 0 0 0 0-.09.1.1 0 0 0 0-.09.1.1 0 0 0 0-.09.11.11 0 0 0 0-.12l.72.41a.48.48 0 0 0 .43 0l2.58-1.49a.11.11 0 0 0 .06-.15.1.1 0 0 0 0-.09.1.1 0 0 0 0-.09.1.1 0 0 0 0-.09.1.1 0 0 0 0-.09.1.1 0 0 0 0-.09.1.1 0 0 0 0-.09.1.1 0 0 0 0-.09.1.1 0 0 0 0-.09.1.1 0 0 0 0-.09.1.1 0 0 0 0-.09.11.11 0 0 0 0-.12l.72.41a.48.48 0 0 0 .43 0l2.58-1.49a.11.11 0 0 0 .06-.15.1.1 0 0 0 0-.09.1.1 0 0 0 0-.09.1.1 0 0 0 0-.09.1.1 0 0 0 0-.09.1.1 0 0 0 0-.09.1.1 0 0 0 0-.09.1.1 0 0 0 0-.09.1.1 0 0 0 0-.09.1.1 0 0 0 0-.09.1.1 0 0 0 0-.09.11.11 0 0 0 0-.12l.72.41a.48.48 0 0 0 .43 0l2.58-1.49a.11.11 0 0 0 .06-.15.1.1 0 0 0 0-.09.1.1 0 0 0 0-.09.1.1 0 0 0 0-.09.1.1 0 0 0 0-.09.1.1 0 0 0 0-.09.1.1 0 0 0 0-.09.1.1 0 0 0 0-.09.1.1 0 0 0 0-.09.1.1 0 0 0 0-.09.1.1 0 0 0 0-.09.11.11 0 0 0 0-.12l.72.41a.48.48 0 0 0 .43 0l2.58-1.49a.11.11 0 0 0 .06-.15.1.1 0 0 0 0-.09.1.1 0 0 0 0-.09.1.1 0 0 0 0-.09.1.1 0 0 0 0-.09.1.1 0 0 0 0-.09.1.1 0 0 0 0-.09.1.1 0 0 0 0-.09.1.1 0 0 0 0-.09.1.1 0 0 0 0-.09.1.1 0 0 0 0-.09.11.11 0 0 0 0-.12l.72.41a.47.47 0 0 0 .43 0l2.58-1.49a.11.11 0 0 0 .06-.15.1.1 0 0 0 0-.09.1.1 0 0 0 0-.09.1.1 0 0 0 0-.09.1.1 0 0 0 0-.09.1.1 0 0 0 0-.09.1.1 0 0 0 0-.09.1.1 0 0 0 0-.09.1.1 0 0 0 0-.09.1.1 0 0 0 0-.09.1.1 0 0 0 0-.09.11.11 0 0 0 0-.12l.72.41a.48.48 0 0 0 .43 0l2.58-1.49a.11.11 0 0 0 .06-.15.1.1 0 0 0 0-.09.1.1 0 0 0 0-.09.1.1 0 0 0 0-.09.1.1 0 0 0 0-.09.1.1 0 0 0 0-.09.1.1 0 0 0 0-.09.1.1 0 0 0 0-.09.1.1 0 0 0 0-.09.1.1 0 0 0 0-.09.1.1 0 0 0 0-.09.11.11 0 0 0 0-.12l.72.41a.48.48 0 0 0 .43 0l2.58-1.49a.11.11 0 0 0 .06-.15.1.1 0 0 0 0-.09.1.1 0 0 0 0-.09.1.1 0 0 0 0-.09.1.1 0 0 0 0-.09.1.1 0 0 0 0-.09.1.1 0 0 0 0-.09.1.1 0 0 0 0-.09.1.1 0 0 0 0-.09.1.1 0 0 0 0-.09.1.1 0 0 0 0-.09.11.11 0 0 0 0-.12l.72.41a.48.48 0 0 0 .43 0l2.58-1.49a.11.11 0 0 0 .06-.15.1.1 0 0 0 0-.09.1.1 0 0 0 0-.09.1.1 0 0 0 0-.09.1.1 0 0 0 0-.09.1.1 0 0 0 0-.09.1.1 0 0 0 0-.09.1.1 0 0 0 0-.09.1.1 0 0 0 0-.09.1.1 0 0 0 0-.09.1.1 0 0 0 0-.09.11.11 0 0 0 0-.12l.72.41a.47.47 0 0 0 .43 0l2.58-1.49a.11.11 0 0 0 .06-.15.1.1 0 0 0 0-.09.1.1 0 0 0 0-.09.1.1 0 0 0 0-.09.1.1 0 0 0 0-.09.1.1 0 0 0 0-.09.1.1 0 0 0 0-.09.1.1 0 0 0 0-.09.1.1 0 0 0 0-.09.1.1 0 0 0 0-.09.1.1 0 0 0 0-.09.11.11 0 0 0 0-.12l.72.41a.48.48 0 0 0 .43 0l4.37-2.52a.11.11 0 0 0 .06-.15.1.1 0 0 0 0-.09.1.1 0 0 0 0-.09.1.1 0 0 0 0-.09.1.1 0 0 0 0-.09.1.1 0 0 0 0-.09.1.1 0 0 0 0-.09.1.1 0 0 0 0-.09.1.1 0 0 0 0-.09.1.1 0 0 0 0-.09.1.1 0 0 0 0-.09c0-.06 0-.13-.09-.19l-3.21-1.85a.48.48 0 0 0-.43 0l-4.63 3.48a.11.11 0 0 0-.06.15.1.1 0 0 0 0 .09.1.1 0 0 0 0 .09.1.1 0 0 0 0 .09.1.1 0 0 0 0 .09.1.1 0 0 0 0 .09.1.1 0 0 0 0 .09.1.1 0 0 0 0 .09.1.1 0 0 0 0 .09.1.1 0 0 0 0 .09.1.1 0 0 0 0 .09.11.11 0 0 0 0 .12l-.72-.41a.47.47 0 0 0-.43 0l-2.58 1.49a.11.11 0 0 0-.06.15.1.1 0 0 0 0 .09.1.1 0 0 0 0 .09.1.1 0 0 0 0 .09.1.1 0 0 0 0 .09.1.1 0 0 0 0 .09.1.1 0 0 0 0 .09.1.1 0 0 0 0 .09.1.1 0 0 0 0 .09.1.1 0 0 0 0 .09.1.1 0 0 0 0 .09.11.11 0 0 0 0 .12l-.72-.41a.48.48 0 0 0-.43 0l-2.58 1.49a.11.11 0 0 0-.06.15.1.1 0 0 0 0 .09.1.1 0 0 0 0 .09.1.1 0 0 0 0 .09.1.1 0 0 0 0 .09.1.1 0 0 0 0 .09.1.1 0 0 0 0 .09.1.1 0 0 0 0 .09.1.1 0 0 0 0 .09.1.1 0 0 0 0 .09.1.1 0 0 0 0 .09.11.11 0 0 0 0 .12l-.72-.41a.48.48 0 0 0-.43 0l-2.58 1.49a.11.11 0 0 0-.06.15.1.1 0 0 0 0 .09.1.1 0 0 0 0 .09.1.1 0 0 0 0 .09.1.1 0 0 0 0 .09.1.1 0 0 0 0 .09.1.1 0 0 0 0 .09.1.1 0 0 0 0 .09.1.1 0 0 0 0 .09.1.1 0 0 0 0 .09.1.1 0 0 0 0 .09.11.11 0 0 0 0 .12l-.72-.41a.48.48 0 0 0-.43 0l-2.49 1.23a.11.11 0 0 0-.06.15.1.1 0 0 0 0 .09.1.1 0 0 0 0 .09.1.1 0 0 0 0 .09.1.1 0 0 0 0 .09.1.1 0 0 0 0 .09.1.1 0 0 0 0 .09.1.1 0 0 0 0 .09.1.1 0 0 0 0 .09.1.1 0 0 0 0 .09.1.1 0 0 0 0 .09.11.11 0 0 0 0 .12l-.72-.41a.48.48 0 0 0-.43 0l-2.58 1.49a.11.11 0 0 0-.06.15.1.1 0 0 0 0 .09.1.1 0 0 0 0 .09.1.1 0 0 0 0 .09.1.1 0 0 0 0 .09.1.1 0 0 0 0 .09.1.1 0 0 0 0 .09.1.1 0 0 0 0 .09.1.1 0 0 0 0 .09.1.1 0 0 0 0 .09.1.1 0 0 0 0 .09.11.11 0 0 0 0 .12l-.72-.41a.48.48 0 0 0-.43 0l-2.58 1.49a.11.11 0 0 0-.06.15.1.1 0 0 0 0 .09.1.1 0 0 0 0 .09.1.1 0 0 0 0 .09.1.1 0 0 0 0 .09.1.1 0 0 0 0 .09.1.1 0 0 0 0 .09.1.1 0 0 0 0 .09.1.1 0 0 0 0 .09.1.1 0 0 0 0 .09.1.1 0 0 0 0 .09.11.11 0 0 0 0 .12l-.72-.41a.47.47 0 0 0-.43 0l-2.58 1.49a.11.11 0 0 0-.06.15.1.1 0 0 0 0 .09.1.1 0 0 0 0 .09.1.1 0 0 0 0 .09.1.1 0 0 0 0 .09.1.1 0 0 0 0 .09.1.1 0 0 0 0 .09.1.1 0 0 0 0 .09.1.1 0 0 0 0 .09.1.1 0 0 0 0 .09.1.1 0 0 0 0 .09.11.11 0 0 0 0 .12l-.72-.41a.48.48 0 0 0-.43 0l-2.58 1.49a.11.11 0 0 0-.06.15.1.1 0 0 0 0 .09.1.1 0 0 0 0 .09.1.1 0 0 0 0 .09.1.1 0 0 0 0 .09.1.1 0 0 0 0 .09.1.1 0 0 0 0 .09.1.1 0 0 0 0 .09.1.1 0 0 0 0 .09.1.1 0 0 0 0 .09.1.1 0 0 0 0 .09.11.11 0 0 0 0 .12l-.72-.41a.48.48 0 0 0-.43 0l-2.58 1.49a.11.11 0 0 0-.06.15.1.1 0 0 0 0 .09.1.1 0 0 0 0 .09.1.1 0 0 0 0 .09.1.1 0 0 0 0 .09.1.1 0 0 0 0 .09.1.1 0 0 0 0 .09.1.1 0 0 0 0 .09.1.1 0 0 0 0 .09.1.1 0 0 0 0 .09.1.1 0 0 0 0 .09.11.11 0 0 0 0 .12l-.72-.41a.48.48 0 0 0-.43 0l-2.47.99a.11.11 0 0 0-.06.15.1.1 0 0 0 0 .09.1.1 0 0 0 0 .09.1.1 0 0 0 0 .09.1.1 0 0 0 0 .09.1.1 0 0 0 0 .09.1.1 0 0 0 0 .09.1.1 0 0 0 0 .09.1.1 0 0 0 0 .09.1.1 0 0 0 0 .09.1.1 0 0 0 0 .09.11.11 0 0 0 0 .12l-.72-.41a.48.48 0 0 0-.43 0l-2.58 1.49a.11.11 0 0 0-.06.15.1.1 0 0 0 0 .09.1.1 0 0 0 0 .09.1.1 0 0 0 0 .09.1.1 0 0 0 0 .09.1.1 0 0 0 0 .09.1.1 0 0 0 0 .09.1.1 0 0 0 0 .09.1.1 0 0 0 0 .09.1.1 0 0 0 0 .09.1.1 0 0 0 0 .09.11.11 0 0 0 0 .12l-.72-.41a.48.48 0 0 0-.43 0l-2.58 1.49a.11.11 0 0 0-.06.15.1.1 0 0 0 0 .09.1.1 0 0 0 0 .09.1.1 0 0 0 0 .09.1.1 0 0 0 0 .09.1.1 0 0 0 0 .09.1.1 0 0 0 0 .09.1.1 0 0 0 0 .09.1.1 0 0 0 0 .09.1.1 0 0 0 0 .09.1.1 0 0 0 0 .09.11.11 0 0 0 0 .12l-.72-.41a.47.47 0 0 0-.43 0l-2.51 1.3a.11.11 0 0 0-.06.15.1.1 0 0 0 0 .09.1.1 0 0 0 0 .09.1.1 0 0 0 0 .09.1.1 0 0 0 0 .09.1.1 0 0 0 0 .09.1.1 0 0 0 0 .09.1.1 0 0 0 0 .09.1.1 0 0 0 0 .09.1.1 0 0 0 0 .09.1.1 0 0 0 0 .09c0 .06 0 .13.09.19l3.21 1.85a.48.48 0 0 0 .43 0l2.58-1.49a.11.11 0 0 0 .05-.16zm64.85-32.06l2.58-1.49a.11.11 0 0 0 .06-.15.1.1 0 0 0 0-.09.1.1 0 0 0 0-.09.1.1 0 0 0 0-.09.1.1 0 0 0 0-.09.1.1 0 0 0 0-.09.1.1 0 0 0 0-.09.1.1 0 0 0 0-.09.1.1 0 0 0 0-.09.1.1 0 0 0 0-.09.1.1 0 0 0 0-.09c0-.06 0-.13-.09-.19l-3.21-1.85a.47.47 0 0 0-.43 0l-2.58 1.49a.11.11 0 0 0-.06.15.1.1 0 0 0 0 .09.1.1 0 0 0 0 .09.1.1 0 0 0 0 .09.1.1 0 0 0 0 .09.1.1 0 0 0 0 .09.1.1 0 0 0 0 .09.1.1 0 0 0 0 .09.1.1 0 0 0 0 .09.1.1 0 0 0 0 .09.1.1 0 0 0 0 .09.11.11 0 0 0 0 .12l-.72-.41a.48.48 0 0 0-.43 0l-2.58 1.49a.11.11 0 0 0-.06.15 251.8 251.8 0 0 0 0 .43 126 126 0 0 1 0 .17.1.1 0 0 0 0 .09.1.1 0 0 0 0 .09.1.1 0 0 0 0 .09.11.11 0 0 0 0 .12l-.72-.41a.48.48 0 0 0-.43 0l-2.58 1.49a.11.11 0 0 0-.06.15.1.1 0 0 0 0 .09.1.1 0 0 0 0 .09.1.1 0 0 0 0 .09.1.1 0 0 0 0 .09.1.1 0 0 0 0 .09.1.1 0 0 0 0 .09.1.1 0 0 0 0 .09.1.1 0 0 0 0 .09.1.1 0 0 0 0 .09.1.1 0 0 0 0 .09c0 .06 0 .13.09.19l3.21 1.85a.47.47 0 0 0 .43 0l2.58-1.49a.11.11 0 0 0 .06-.15.1.1 0 0 0 0-.09.1.1 0 0 0 0-.09.1.1 0 0 0 0-.09.1.1 0 0 0 0-.09.1.1 0 0 0 0-.09.1.1 0 0 0 0-.09.1.1 0 0 0 0-.09.1.1 0 0 0 0-.09.1.1 0 0 0 0-.09.1.1 0 0 0 0-.09.11.11 0 0 0 0-.12l.72.41a.48.48 0 0 0 .43 0l2.58-1.49a.11.11 0 0 0 .06-.15.1.1 0 0 0 0-.09.1.1 0 0 0 0-.09.1.1 0 0 0 0-.09.1.1 0 0 0 0-.09.1.1 0 0 0 0-.09.1.1 0 0 0 0-.09.1.1 0 0 0 0-.09.1.1 0 0 0 0-.09.1.1 0 0 0 0-.09.1.1 0 0 0 0-.09.11.11 0 0 0 0-.12l.72.41a.48.48 0 0 0 .43.03z"/><path data-name="&lt;Tracé&gt;" d="M196.39 123.78l3.21 1.85a.48.48 0 0 0 .43 0l2.58-1.49a.11.11 0 0 0 .06-.15.1.1 0 0 0 0-.09.1.1 0 0 0 0-.09.1.1 0 0 0 0-.09.1.1 0 0 0 0-.09.1.1 0 0 0 0-.09.1.1 0 0 0 0-.09.1.1 0 0 0 0-.09.1.1 0 0 0 0-.09.1.1 0 0 0 0-.09.1.1 0 0 0 0-.09.11.11 0 0 0 0-.12l.72.41a.48.48 0 0 0 .43 0l2.58-1.49a.11.11 0 0 0 .06-.15.1.1 0 0 0 0-.09.1.1 0 0 0 0-.09.1.1 0 0 0 0-.09.1.1 0 0 0 0-.09.1.1 0 0 0 0-.09.1.1 0 0 0 0-.09.1.1 0 0 0 0-.09.1.1 0 0 0 0-.09.1.1 0 0 0 0-.09.1.1 0 0 0 0-.09.11.11 0 0 0 0-.12l.72.41a.48.48 0 0 0 .43 0l2.58-1.49a.11.11 0 0 0 .06-.15.1.1 0 0 0 0-.09.1.1 0 0 0 0-.09.1.1 0 0 0 0-.09.1.1 0 0 0 0-.09.1.1 0 0 0 0-.09.1.1 0 0 0 0-.09.1.1 0 0 0 0-.09.1.1 0 0 0 0-.09.1.1 0 0 0 0-.09.1.1 0 0 0 0-.09c0-.06 0-.13-.09-.18l-3.21-1.85a.47.47 0 0 0-.43 0l-2.58 1.49a.11.11 0 0 0-.06.15.1.1 0 0 0 0 .09.1.1 0 0 0 0 .09.1.1 0 0 0 0 .09.1.1 0 0 0 0 .09.1.1 0 0 0 0 .09.1.1 0 0 0 0 .09.1.1 0 0 0 0 .09.1.1 0 0 0 0 .09.1.1 0 0 0 0 .09.1.1 0 0 0 0 .09.11.11 0 0 0 0 .12l-.72-.41a.48.48 0 0 0-.43 0l-2.58 1.49a.11.11 0 0 0-.06.15.1.1 0 0 0 0 .09.1.1 0 0 0 0 .09.1.1 0 0 0 0 .09.1.1 0 0 0 0 .09.1.1 0 0 0 0 .09 344.12 344.12 0 0 1 0 .26.1.1 0 0 0 0 .09.1.1 0 0 0 0 .09.11.11 0 0 0 0 .12l-.72-.41a.48.48 0 0 0-.43 0l-2.58 1.49a.11.11 0 0 0-.06.15.1.1 0 0 0 0 .09.1.1 0 0 0 0 .09.1.1 0 0 0 0 .09.1.1 0 0 0 0 .09.1.1 0 0 0 0 .09.1.1 0 0 0 0 .09.1.1 0 0 0 0 .09.1.1 0 0 0 0 .09.1.1 0 0 0 0 .09.1.1 0 0 0 0 .09c-.03.06 0 .13.09.19zm-5.56-3.22l3.21 1.85a.47.47 0 0 0 .43 0l2.58-1.49a.11.11 0 0 0 .06-.15.1.1 0 0 0 0-.09.1.1 0 0 0 0-.09.1.1 0 0 0 0-.09.1.1 0 0 0 0-.09.1.1 0 0 0 0-.09.1.1 0 0 0 0-.09.1.1 0 0 0 0-.09.1.1 0 0 0 0-.09.1.1 0 0 0 0-.09.1.1 0 0 0 0-.09.11.11 0 0 0 0-.12l.72.41a.48.48 0 0 0 .43 0l2.58-1.49a.11.11 0 0 0 .06-.15.1.1 0 0 0 0-.09.1.1 0 0 0 0-.09.1.1 0 0 0 0-.09.1.1 0 0 0 0-.09.1.1 0 0 0 0-.09.1.1 0 0 0 0-.09.1.1 0 0 0 0-.09.1.1 0 0 0 0-.09.1.1 0 0 0 0-.09.1.1 0 0 0 0-.09.11.11 0 0 0 0-.12l.72.41a.48.48 0 0 0 .43 0l2.58-1.49a.11.11 0 0 0 .06-.15.1.1 0 0 0 0-.09.1.1 0 0 0 0-.09.1.1 0 0 0 0-.09.1.1 0 0 0 0-.09.1.1 0 0 0 0-.09.1.1 0 0 0 0-.09.1.1 0 0 0 0-.09.1.1 0 0 0 0-.09.1.1 0 0 0 0-.09.1.1 0 0 0 0-.09c0-.06 0-.13-.09-.19l-3.21-1.85a.47.47 0 0 0-.43 0l-2.62 1.67a.11.11 0 0 0-.06.15.1.1 0 0 0 0 .09.1.1 0 0 0 0 .09.1.1 0 0 0 0 .09.1.1 0 0 0 0 .09.1.1 0 0 0 0 .09.1.1 0 0 0 0 .09.1.1 0 0 0 0 .09.1.1 0 0 0 0 .09.1.1 0 0 0 0 .09.1.1 0 0 0 0 .09.11.11 0 0 0 0 .12l-.72-.41a.48.48 0 0 0-.43 0l-2.58 1.49a.11.11 0 0 0-.06.15.1.1 0 0 0 0 .09.1.1 0 0 0 0 .09.1.1 0 0 0 0 .09.1.1 0 0 0 0 .09.1.1 0 0 0 0 .09.1.1 0 0 0 0 .09.1.1 0 0 0 0 .09.1.1 0 0 0 0 .09.1.1 0 0 0 0 .09.1.1 0 0 0 0 .09.11.11 0 0 0 0 .12l-.72-.41a.47.47 0 0 0-.43 0l-2.58 1.49a.11.11 0 0 0-.06.15.1.1 0 0 0 0 .09.1.1 0 0 0 0 .09.1.1 0 0 0 0 .09.1.1 0 0 0 0 .09 377.66 377.66 0 0 1 0 .26 377.87 377.87 0 0 0 0 .26c.01-.09.04-.02.13.03zm28.9-10.37l-.72-.41a.48.48 0 0 0-.43 0l-2.58 1.47a.11.11 0 0 0-.06.15.1.1 0 0 0 0 .09.1.1 0 0 0 0 .09.1.1 0 0 0 0 .09.1.1 0 0 0 0 .09.1.1 0 0 0 0 .09.1.1 0 0 0 0 .09.1.1 0 0 0 0 .09.1.1 0 0 0 0 .09.1.1 0 0 0 0 .09.1.1 0 0 0 0 .09.11.11 0 0 0 0 .12l-.72-.41a.48.48 0 0 0-.43 0l-2.58 1.49a.11.11 0 0 0-.06.15.1.1 0 0 0 0 .09.1.1 0 0 0 0 .09.1.1 0 0 0 0 .09.1.1 0 0 0 0 .09.1.1 0 0 0 0 .09.1.1 0 0 0 0 .09.1.1 0 0 0 0 .09.1.1 0 0 0 0 .09.1.1 0 0 0 0 .09.1.1 0 0 0 0 .09.11.11 0 0 0 0 .12l-.72-.41a.48.48 0 0 0-.43 0l-2.58 1.49a.11.11 0 0 0-.06.15.1.1 0 0 0 0 .09.1.1 0 0 0 0 .09.1.1 0 0 0 0 .09.1.1 0 0 0 0 .09.1.1 0 0 0 0 .09.1.1 0 0 0 0 .09.1.1 0 0 0 0 .09.1.1 0 0 0 0 .09.1.1 0 0 0 0 .09.1.1 0 0 0 0 .09c0 .06 0 .13.09.18l3.21 1.85a.48.48 0 0 0 .43 0l2.58-1.49a.11.11 0 0 0 .06-.15.1.1 0 0 0 0-.09.1.1 0 0 0 0-.09.1.1 0 0 0 0-.09.1.1 0 0 0 0-.09.1.1 0 0 0 0-.09.1.1 0 0 0 0-.09.1.1 0 0 0 0-.09.1.1 0 0 0 0-.09.1.1 0 0 0 0-.09.1.1 0 0 0 0-.09.11.11 0 0 0 0-.12l.72.41a.48.48 0 0 0 .43 0l2.58-1.49a.11.11 0 0 0 .06-.15.1.1 0 0 0 0-.09.1.1 0 0 0 0-.09.1.1 0 0 0 0-.09.1.1 0 0 0 0-.09.1.1 0 0 0 0-.09.1.1 0 0 0 0-.09.1.1 0 0 0 0-.09.1.1 0 0 0 0-.09.1.1 0 0 0 0-.09.1.1 0 0 0 0-.09.11.11 0 0 0 0-.12l.72.41a.47.47 0 0 0 .43 0l2.58-1.49a.11.11 0 0 0 .06-.15.1.1 0 0 0 0-.09.1.1 0 0 0 0-.09.1.1 0 0 0 0-.09.1.1 0 0 0 0-.09.1.1 0 0 0 0-.09.1.1 0 0 0 0-.09.1.1 0 0 0 0-.09.1.1 0 0 0 0-.09.1.1 0 0 0 0-.09.1.1 0 0 0 0-.09.11.11 0 0 0 0-.12l.72.41a.48.48 0 0 0 .43 0l2.58-1.49a.11.11 0 0 0 .06-.15.1.1 0 0 0 0-.09.1.1 0 0 0 0-.09.1.1 0 0 0 0-.09.1.1 0 0 0 0-.09.1.1 0 0 0 0-.09.1.1 0 0 0 0-.09.1.1 0 0 0 0-.09.1.1 0 0 0 0-.09.1.1 0 0 0 0-.09.1.1 0 0 0 0-.09c0-.06 0-.13-.09-.19l-3.21-1.85a.48.48 0 0 0-.43 0l-2.58 1.49a.11.11 0 0 0-.06.15.1.1 0 0 0 0 .09.1.1 0 0 0 0 .09.1.1 0 0 0 0 .09.1.1 0 0 0 0 .09.1.1 0 0 0 0 .09.1.1 0 0 0 0 .09.1.1 0 0 0 0 .09.1.1 0 0 0 0 .09.1.1 0 0 0 0 .09.1.1 0 0 0 0 .09.11.11 0 0 0 0 .15zm-15.62 4.06l.85.49a.48.48 0 0 0 .43 0l2.58-1.49a.11.11 0 0 0 .06-.15.1.1 0 0 0 0-.09.1.1 0 0 0 0-.09.1.1 0 0 0 0-.09.1.1 0 0 0 0-.09.1.1 0 0 0 0-.09.1.1 0 0 0 0-.09.1.1 0 0 0 0-.09.1.1 0 0 0 0-.09.1.1 0 0 0 0-.09.1.1 0 0 0 0-.09.11.11 0 0 0 0-.12l.72.41a.47.47 0 0 0 .43 0l2.58-1.49a.11.11 0 0 0 .06-.15.1.1 0 0 0 0-.09.1.1 0 0 0 0-.09.1.1 0 0 0 0-.09.1.1 0 0 0 0-.09.1.1 0 0 0 0-.09.1.1 0 0 0 0-.09.1.1 0 0 0 0-.09.1.1 0 0 0 0-.09.1.1 0 0 0 0-.09.1.1 0 0 0 0-.09.11.11 0 0 0 0-.12l.72.41a.48.48 0 0 0 .43 0l2.58-1.49a.11.11 0 0 0 .06-.15.1.1 0 0 0 0-.09.1.1 0 0 0 0-.09.1.1 0 0 0 0-.09.1.1 0 0 0 0-.09.1.1 0 0 0 0-.09.1.1 0 0 0 0-.09.1.1 0 0 0 0-.09.1.1 0 0 0 0-.09.1.1 0 0 0 0-.09.1.1 0 0 0 0-.09.11.11 0 0 0 0-.12l.72.41a.48.48 0 0 0 .43 0l2.58-1.49a.11.11 0 0 0 .06-.15.1.1 0 0 0 0-.09.1.1 0 0 0 0-.09.1.1 0 0 0 0-.09.1.1 0 0 0 0-.09 377.66 377.66 0 0 1 0-.26 377.87 377.87 0 0 0 0-.26c0-.06 0-.13-.09-.19l-.85-.49a.48.48 0 0 0-.43 0l-2.58 1.49a.11.11 0 0 0-.06.15.1.1 0 0 0 0 .09.1.1 0 0 0 0 .09.1.1 0 0 0 0 .09.1.1 0 0 0 0 .09.1.1 0 0 0 0 .09.1.1 0 0 0 0 .09.1.1 0 0 0 0 .09.1.1 0 0 0 0 .09.1.1 0 0 0 0 .09.1.1 0 0 0 0 .09.11.11 0 0 0 0 .12l-.72-.41a.48.48 0 0 0-.43 0l-2.58 1.49a.11.11 0 0 0-.06.15.1.1 0 0 0 0 .09.1.1 0 0 0 0 .09.1.1 0 0 0 0 .09.1.1 0 0 0 0 .09.1.1 0 0 0 0 .09.1.1 0 0 0 0 .09.1.1 0 0 0 0 .09.1.1 0 0 0 0 .09.1.1 0 0 0 0 .09.1.1 0 0 0 0 .09.11.11 0 0 0 0 .12l-.72-.41a.47.47 0 0 0-.43 0l-2.58 1.49a.11.11 0 0 0-.06.15.1.1 0 0 0 0 .09.1.1 0 0 0 0 .09.1.1 0 0 0 0 .09.1.1 0 0 0 0 .09.1.1 0 0 0 0 .09.1.1 0 0 0 0 .09.1.1 0 0 0 0 .09.1.1 0 0 0 0 .09.1.1 0 0 0 0 .09.1.1 0 0 0 0 .09.11.11 0 0 0 0 .12l-.72-.41a.48.48 0 0 0-.43 0l-2.58 1.49a.11.11 0 0 0-.06.15.1.1 0 0 0 0 .09.1.1 0 0 0 0 .09.1.1 0 0 0 0 .09.1.1 0 0 0 0 .09.1.1 0 0 0 0 .09.1.1 0 0 0 0 .09.1.1 0 0 0 0 .09.1.1 0 0 0 0 .09.1.1 0 0 0 0 .09.1.1 0 0 0 0 .09c-.02.05-.02.12.09.17zm-45.92 25.16l3.21 1.85a.48.48 0 0 0 .43 0l2.58-1.49a.11.11 0 0 0 .06-.15 232.56 232.56 0 0 0 0-.43 116.34 116.34 0 0 1 0-.17.1.1 0 0 0 0-.09.1.1 0 0 0 0-.09.1.1 0 0 0 0-.09.11.11 0 0 0 0-.12l.72.41a.48.48 0 0 0 .43 0l2.58-1.49a.11.11 0 0 0 .06-.15.1.1 0 0 0 0-.09.1.1 0 0 0 0-.09.1.1 0 0 0 0-.09.1.1 0 0 0 0-.09.1.1 0 0 0 0-.09.1.1 0 0 0 0-.09.1.1 0 0 0 0-.09.1.1 0 0 0 0-.09.1.1 0 0 0 0-.09.1.1 0 0 0 0-.09.11.11 0 0 0 0-.12l.72.41a.48.48 0 0 0 .43 0l2.58-1.49a.11.11 0 0 0 .06-.15.1.1 0 0 0 0-.09.1.1 0 0 0 0-.09.1.1 0 0 0 0-.09.1.1 0 0 0 0-.09.1.1 0 0 0 0-.09.1.1 0 0 0 0-.09.1.1 0 0 0 0-.09.1.1 0 0 0 0-.09.1.1 0 0 0 0-.09.1.1 0 0 0 0-.09.11.11 0 0 0 0-.12l.72.41a.47.47 0 0 0 .43 0l2.58-1.49a.11.11 0 0 0 .06-.15.1.1 0 0 0 0-.09.1.1 0 0 0 0-.09.1.1 0 0 0 0-.09.1.1 0 0 0 0-.09.1.1 0 0 0 0-.09.1.1 0 0 0 0-.09.1.1 0 0 0 0-.09.1.1 0 0 0 0-.09.1.1 0 0 0 0-.09.1.1 0 0 0 0-.09c0-.06 0-.13-.09-.19l-3.21-1.85a.48.48 0 0 0-.43 0l-2.58 1.49a.11.11 0 0 0-.06.15.1.1 0 0 0 0 .09.1.1 0 0 0 0 .09.1.1 0 0 0 0 .09.1.1 0 0 0 0 .09.1.1 0 0 0 0 .09.1.1 0 0 0 0 .09.1.1 0 0 0 0 .09.1.1 0 0 0 0 .09.1.1 0 0 0 0 .09.1.1 0 0 0 0 .09.11.11 0 0 0 0 .12l-.72-.41a.48.48 0 0 0-.43 0l-2.58 1.49a.11.11 0 0 0-.06.15.1.1 0 0 0 0 .09.1.1 0 0 0 0 .09.1.1 0 0 0 0 .09.1.1 0 0 0 0 .09.1.1 0 0 0 0 .09.1.1 0 0 0 0 .09.1.1 0 0 0 0 .09.1.1 0 0 0 0 .09.1.1 0 0 0 0 .09.1.1 0 0 0 0 .09.11.11 0 0 0 0 .12l-.72-.41a.47.47 0 0 0-.43 0l-2.6 1.54a.11.11 0 0 0-.06.15.1.1 0 0 0 0 .09.1.1 0 0 0 0 .09.1.1 0 0 0 0 .09.1.1 0 0 0 0 .09.1.1 0 0 0 0 .09.1.1 0 0 0 0 .09.1.1 0 0 0 0 .09.1.1 0 0 0 0 .09.1.1 0 0 0 0 .09.1.1 0 0 0 0 .09.11.11 0 0 0 0 .12l-.72-.41a.48.48 0 0 0-.43 0l-2.58 1.49a.11.11 0 0 0-.06.15.1.1 0 0 0 0 .09.1.1 0 0 0 0 .09.1.1 0 0 0 0 .09 126 126 0 0 1 0 .26.1.1 0 0 0 0 .09.1.1 0 0 0 0 .09.1.1 0 0 0 0 .09.1.1 0 0 0 0 .09c-.01-.01.02.07.11.12zm16.72-9.66l3.21 1.85a.47.47 0 0 0 .43 0l2.58-1.49a.11.11 0 0 0 .06-.15.1.1 0 0 0 0-.09.1.1 0 0 0 0-.09.1.1 0 0 0 0-.09.1.1 0 0 0 0-.09.1.1 0 0 0 0-.09.1.1 0 0 0 0-.09.1.1 0 0 0 0-.09.1.1 0 0 0 0-.09.1.1 0 0 0 0-.09.1.1 0 0 0 0-.09.11.11 0 0 0 0-.12l.72.41a.48.48 0 0 0 .43 0l2.56-1.35a.11.11 0 0 0 .06-.15.1.1 0 0 0 0-.09.1.1 0 0 0 0-.09.1.1 0 0 0 0-.09.1.1 0 0 0 0-.09.1.1 0 0 0 0-.09.1.1 0 0 0 0-.09.1.1 0 0 0 0-.09.1.1 0 0 0 0-.09.1.1 0 0 0 0-.09.1.1 0 0 0 0-.09.11.11 0 0 0 0-.12l.72.41a.47.47 0 0 0 .43 0l2.58-1.49a.11.11 0 0 0 .06-.15.1.1 0 0 0 0-.09.1.1 0 0 0 0-.09.1.1 0 0 0 0-.09 377.79 377.79 0 0 1 0-.26 755.88 755.88 0 0 0 0-.34.11.11 0 0 0 0-.12l.72.41a.48.48 0 0 0 .43 0l2.58-1.49a.11.11 0 0 0 .06-.15.1.1 0 0 0 0-.09.1.1 0 0 0 0-.09.1.1 0 0 0 0-.09.1.1 0 0 0 0-.09.1.1 0 0 0 0-.09.1.1 0 0 0 0-.09.1.1 0 0 0 0-.09.1.1 0 0 0 0-.09.1.1 0 0 0 0-.09.1.1 0 0 0 0-.09c0-.06 0-.13-.09-.18l-3.21-1.85a.48.48 0 0 0-.43 0l-2.62 1.55a.11.11 0 0 0-.06.15.1.1 0 0 0 0 .09.1.1 0 0 0 0 .09.1.1 0 0 0 0 .09.1.1 0 0 0 0 .09.1.1 0 0 0 0 .09.1.1 0 0 0 0 .09.1.1 0 0 0 0 .09.1.1 0 0 0 0 .09.1.1 0 0 0 0 .09.1.1 0 0 0 0 .09.11.11 0 0 0 0 .12l-.72-.41a.47.47 0 0 0-.43 0l-2.58 1.49a.11.11 0 0 0-.06.15.1.1 0 0 0 0 .09.1.1 0 0 0 0 .09.1.1 0 0 0 0 .09.1.1 0 0 0 0 .09.1.1 0 0 0 0 .09.1.1 0 0 0 0 .09.1.1 0 0 0 0 .09.1.1 0 0 0 0 .09.1.1 0 0 0 0 .09.1.1 0 0 0 0 .09.11.11 0 0 0 0 .12l-.72-.41a.48.48 0 0 0-.43 0l-2.58 1.49a.11.11 0 0 0-.06.15.1.1 0 0 0 0 .09.1.1 0 0 0 0 .09.1.1 0 0 0 0 .09.1.1 0 0 0 0 .09.1.1 0 0 0 0 .09.1.1 0 0 0 0 .09.1.1 0 0 0 0 .09.1.1 0 0 0 0 .09.1.1 0 0 0 0 .09.1.1 0 0 0 0 .09.11.11 0 0 0 0 .12l-.72-.41a.47.47 0 0 0-.43 0l-2.58 1.49a.11.11 0 0 0-.06.15.1.1 0 0 0 0 .09.1.1 0 0 0 0 .09.1.1 0 0 0 0 .09.1.1 0 0 0 0 .09.1.1 0 0 0 0 .09.1.1 0 0 0 0 .09.1.1 0 0 0 0 .09.1.1 0 0 0 0 .09.1.1 0 0 0 0 .09.1.1 0 0 0 0 .09c.03-.17.06-.1.15-.05zm69.51-9.53c0-.06 0-.13-.09-.19l-7.79-4.5a.48.48 0 0 0-.43 0l-2.58 1.47a.11.11 0 0 0-.06.15.1.1 0 0 0 0 .09.1.1 0 0 0 0 .09.1.1 0 0 0 0 .09.1.1 0 0 0 0 .09.1.1 0 0 0 0 .09.1.1 0 0 0 0 .09.1.1 0 0 0 0 .09.1.1 0 0 0 0 .09.1.1 0 0 0 0 .09.1.1 0 0 0 0 .09.11.11 0 0 0 0 .12l-.72-.41a.48.48 0 0 0-.43 0l-2.58 1.49a.11.11 0 0 0-.06.15.1.1 0 0 0 0 .09.1.1 0 0 0 0 .09.1.1 0 0 0 0 .09.1.1 0 0 0 0 .09.1.1 0 0 0 0 .09.1.1 0 0 0 0 .09.1.1 0 0 0 0 .09.1.1 0 0 0 0 .09.1.1 0 0 0 0 .09.1.1 0 0 0 0 .09.11.11 0 0 0 0 .12l-.72-.41a.48.48 0 0 0-.43 0l-2.53 1.35a.11.11 0 0 0-.06.15.1.1 0 0 0 0 .09.1.1 0 0 0 0 .09.1.1 0 0 0 0 .09.1.1 0 0 0 0 .09.1.1 0 0 0 0 .09.1.1 0 0 0 0 .09.1.1 0 0 0 0 .09.1.1 0 0 0 0 .09.1.1 0 0 0 0 .09.1.1 0 0 0 0 .09.11.11 0 0 0 0 .12l-.72-.41a.47.47 0 0 0-.43 0l-2.58 1.49a.11.11 0 0 0-.06.15.1.1 0 0 0 0 .09.1.1 0 0 0 0 .09.1.1 0 0 0 0 .09.1.1 0 0 0 0 .09.1.1 0 0 0 0 .09.1.1 0 0 0 0 .09.1.1 0 0 0 0 .09.1.1 0 0 0 0 .09.1.1 0 0 0 0 .09.1.1 0 0 0 0 .09c0 .06 0 .13.09.19l3.21 1.85a.48.48 0 0 0 .43 0l2.58-1.49a.11.11 0 0 0 .06-.15.1.1 0 0 0 0-.09.1.1 0 0 0 0-.09.1.1 0 0 0 0-.09.1.1 0 0 0 0-.09.1.1 0 0 0 0-.09.1.1 0 0 0 0-.09.1.1 0 0 0 0-.09.1.1 0 0 0 0-.09.1.1 0 0 0 0-.09.1.1 0 0 0 0-.09.11.11 0 0 0 0-.12l.72.41a.48.48 0 0 0 .43 0l2.58-1.49a.11.11 0 0 0 .06-.15.1.1 0 0 0 0-.09.1.1 0 0 0 0-.09.1.1 0 0 0 0-.09.1.1 0 0 0 0-.09.1.1 0 0 0 0-.09.1.1 0 0 0 0-.09.1.1 0 0 0 0-.09.1.1 0 0 0 0-.09.1.1 0 0 0 0-.09.1.1 0 0 0 0-.09.11.11 0 0 0 0-.12l.72.41a.48.48 0 0 0 .43 0l2.58-1.49a.11.11 0 0 0 .06-.15.1.1 0 0 0 0-.09.1.1 0 0 0 0-.09.1.1 0 0 0 0-.09.1.1 0 0 0 0-.09.1.1 0 0 0 0-.09.1.1 0 0 0 0-.09.1.1 0 0 0 0-.09.1.1 0 0 0 0-.09.1.1 0 0 0 0-.09.1.1 0 0 0 0-.09.11.11 0 0 0 0-.12l1.22.71a.45.45 0 0 0-.35 0l-2.58 1.49a.11.11 0 0 0-.06.15.1.1 0 0 0 0 .09.1.1 0 0 0 0 .09.1.1 0 0 0 0 .09.1.1 0 0 0 0 .09.1.1 0 0 0 0 .09.1.1 0 0 0 0 .09.1.1 0 0 0 0 .09.1.1 0 0 0 0 .09.1.1 0 0 0 0 .09.1.1 0 0 0 0 .09.11.11 0 0 0 0 .12l-.72-.41a.48.48 0 0 0-.43 0l-6.35 3.67a.11.11 0 0 0-.06.15.1.1 0 0 0 0 .09.1.1 0 0 0 0 .09.1.1 0 0 0 0 .09.1.1 0 0 0 0 .09.1.1 0 0 0 0 .09.1.1 0 0 0 0 .09.1.1 0 0 0 0 .09.1.1 0 0 0 0 .09.1.1 0 0 0 0 .09.1.1 0 0 0 0 .09c0 .06 0 .13.09.19l3.21 1.85a.48.48 0 0 0 .43 0l6.35-3.67a.11.11 0 0 0 .06-.15.1.1 0 0 0 0-.09.1.1 0 0 0 0-.09.1.1 0 0 0 0-.09.1.1 0 0 0 0-.09.1.1 0 0 0 0-.09.1.1 0 0 0 0-.09.1.1 0 0 0 0-.09.1.1 0 0 0 0-.09.1.1 0 0 0 0-.09.1.1 0 0 0 0-.09.11.11 0 0 0 0-.12l.72.41a.47.47 0 0 0 .43 0l2.58-1.49a.11.11 0 0 0 .06-.15.1.1 0 0 0 0-.09.1.1 0 0 0 0-.09.1.1 0 0 0 0-.09.1.1 0 0 0 0-.09.1.1 0 0 0 0-.09.1.1 0 0 0 0-.09.1.1 0 0 0 0-.09.1.1 0 0 0 0-.09.1.1 0 0 0 0-.09.1.1 0 0 0 0-.09.11.11 0 0 0 0-.12l.72.41a.48.48 0 0 0 .43 0l2.58-1.49a.11.11 0 0 0 .06-.15.1.1 0 0 0 0-.09.1.1 0 0 0 0-.09.1.1 0 0 0 0-.09.1.1 0 0 0 0-.09.1.1 0 0 0 0-.09.1.1 0 0 0 0-.09.1.1 0 0 0 0-.09.1.1 0 0 0 0-.09.1.1 0 0 0 0-.09.1.1 0 0 0-.07.09zm-28.08 15.97l-3.21-1.85a.48.48 0 0 0-.43 0l-4 2.29a.11.11 0 0 0-.06.15.1.1 0 0 0 0 .09.1.1 0 0 0 0 .09.1.1 0 0 0 0 .09.1.1 0 0 0 0 .09.1.1 0 0 0 0 .09.1.1 0 0 0 0 .09.1.1 0 0 0 0 .09.1.1 0 0 0 0 .09.1.1 0 0 0 0 .09.1.1 0 0 0 0 .09.11.11 0 0 0 0 .12l-.72-.41a.47.47 0 0 0-.43 0l-3.18 1.83a.11.11 0 0 0-.06.15.1.1 0 0 0 0 .09.1.1 0 0 0 0 .09 377.79 377.79 0 0 1 0 .26 251.84 251.84 0 0 0 0 .43.11.11 0 0 0 0 .12l-.72-.41a.48.48 0 0 0-.43 0l-3.1 1.7a.11.11 0 0 0-.06.15.1.1 0 0 0 0 .09.1.1 0 0 0 0 .09.1.1 0 0 0 0 .09.1.1 0 0 0 0 .09.1.1 0 0 0 0 .09.1.1 0 0 0 0 .09.1.1 0 0 0 0 .09.1.1 0 0 0 0 .09.1.1 0 0 0 0 .09.1.1 0 0 0 0 .09.11.11 0 0 0 0 .12l-.72-.41a.47.47 0 0 0-.43 0l-3.18 1.83a.11.11 0 0 0-.06.15.1.1 0 0 0 0 .09.1.1 0 0 0 0 .09.1.1 0 0 0 0 .09.1.1 0 0 0 0 .09.1.1 0 0 0 0 .09.1.1 0 0 0 0 .09.1.1 0 0 0 0 .09.1.1 0 0 0 0 .09.1.1 0 0 0 0 .09.1.1 0 0 0 0 .09.11.11 0 0 0 0 .12l-.72-.41a.48.48 0 0 0-.43 0l-21.23 12.26a.11.11 0 0 0-.06.15.1.1 0 0 0 0 .09.1.1 0 0 0 0 .09.1.1 0 0 0 0 .09.1.1 0 0 0 0 .09.1.1 0 0 0 0 .09.1.1 0 0 0 0 .09.1.1 0 0 0 0 .09.1.1 0 0 0 0 .09.1.1 0 0 0 0 .09.1.1 0 0 0 0 .09.11.11 0 0 0 0 .12l-.72-.41a.48.48 0 0 0-.43 0l-3.18 1.83a.11.11 0 0 0-.06.15.1.1 0 0 0 0 .09.1.1 0 0 0 0 .09.1.1 0 0 0 0 .09.1.1 0 0 0 0 .09.1.1 0 0 0 0 .09.1.1 0 0 0 0 .09.1.1 0 0 0 0 .09.1.1 0 0 0 0 .09.1.1 0 0 0 0 .09.1.1 0 0 0 0 .09.11.11 0 0 0 0 .12l-.72-.41a.47.47 0 0 0-.43 0l-3.18 1.83a.11.11 0 0 0-.06.15.1.1 0 0 0 0 .09.1.1 0 0 0 0 .09.1.1 0 0 0 0 .09.1.1 0 0 0 0 .09.1.1 0 0 0 0 .09.1.1 0 0 0 0 .09.1.1 0 0 0 0 .09.1.1 0 0 0 0 .09.1.1 0 0 0 0 .09.1.1 0 0 0 0 .09.11.11 0 0 0 0 .12l-.72-.41a.48.48 0 0 0-.43 0l-4 2.29a.11.11 0 0 0-.06.15.1.1 0 0 0 0 .09.1.1 0 0 0 0 .09.1.1 0 0 0 0 .09.1.1 0 0 0 0 .09.1.1 0 0 0 0 .09.1.1 0 0 0 0 .09.1.1 0 0 0 0 .09.1.1 0 0 0 0 .09.1.1 0 0 0 0 .09.1.1 0 0 0 0 .09c0 .06 0 .13.09.19l3.21 1.85a.48.48 0 0 0 .43 0l4-2.29a.11.11 0 0 0 .06-.15.1.1 0 0 0 0-.09.1.1 0 0 0 0-.09.1.1 0 0 0 0-.09.1.1 0 0 0 0-.09.1.1 0 0 0 0-.09.1.1 0 0 0 0-.09.1.1 0 0 0 0-.09.1.1 0 0 0 0-.09.1.1 0 0 0 0-.09.1.1 0 0 0 0-.09.11.11 0 0 0 0-.12l.72.41a.47.47 0 0 0 .43 0l3.18-1.83a.11.11 0 0 0 .06-.15.1.1 0 0 0 0-.09.1.1 0 0 0 0-.09.1.1 0 0 0 0-.09.1.1 0 0 0 0-.09.1.1 0 0 0 0-.09.1.1 0 0 0 0-.09.1.1 0 0 0 0-.09.1.1 0 0 0 0-.09.1.1 0 0 0 0-.09.1.1 0 0 0 0-.09.11.11 0 0 0 0-.12l.72.41a.48.48 0 0 0 .43 0l3.18-1.83a.11.11 0 0 0 .06-.15.1.1 0 0 0 0-.09.1.1 0 0 0 0-.09.1.1 0 0 0 0-.09.1.1 0 0 0 0-.09.1.1 0 0 0 0-.09.1.1 0 0 0 0-.09.1.1 0 0 0 0-.09.1.1 0 0 0 0-.09.1.1 0 0 0 0-.09.1.1 0 0 0 0-.09.11.11 0 0 0 0-.12l.72.41a.47.47 0 0 0 .43 0l21.23-12.26a.11.11 0 0 0 .06-.15.1.1 0 0 0 0-.09.1.1 0 0 0 0-.09.1.1 0 0 0 0-.09.1.1 0 0 0 0-.09.1.1 0 0 0 0-.09.1.1 0 0 0 0-.09.1.1 0 0 0 0-.09.1.1 0 0 0 0-.09.1.1 0 0 0 0-.09.1.1 0 0 0 0-.09.11.11 0 0 0 0-.12l.72.41a.48.48 0 0 0 .43 0l3.18-1.83a.11.11 0 0 0 .06-.15.1.1 0 0 0 0-.09.1.1 0 0 0 0-.09.1.1 0 0 0 0-.09 377.87 377.87 0 0 1 0-.26 755.58 755.58 0 0 0 0-.34.11.11 0 0 0 0-.12l.72.41a.48.48 0 0 0 .43 0l3.18-1.83a.11.11 0 0 0 .06-.15.1.1 0 0 0 0-.09.1.1 0 0 0 0-.09.1.1 0 0 0 0-.09.1.1 0 0 0 0-.09.1.1 0 0 0 0-.09.1.1 0 0 0 0-.09.1.1 0 0 0 0-.09.1.1 0 0 0 0-.09.1.1 0 0 0 0-.09.1.1 0 0 0 0-.09.11.11 0 0 0 0-.12l.72.41a.47.47 0 0 0 .43 0l3.18-1.83a.11.11 0 0 0 .06-.15.1.1 0 0 0 0-.09.1.1 0 0 0 0-.09.1.1 0 0 0 0-.09.1.1 0 0 0 0-.09.1.1 0 0 0 0-.09.1.1 0 0 0 0-.09.1.1 0 0 0 0-.09.1.1 0 0 0 0-.09.1.1 0 0 0 0-.09.1.1 0 0 0 0-.09.11.11 0 0 0 0-.12l.72.41a.47.47 0 0 0 .43 0l4-2.29a.11.11 0 0 0 .06-.15.1.1 0 0 0 0-.09.1.1 0 0 0 0-.09.1.1 0 0 0 0-.09.1.1 0 0 0 0-.09.1.1 0 0 0 0-.09.1.1 0 0 0 0-.09.1.1 0 0 0 0-.09.1.1 0 0 0 0-.09.1.1 0 0 0 0-.09.1.1 0 0 0 0-.09c-.04.06-.08-.01-.17-.06zm3.76-7.46l-3.21-1.85a.47.47 0 0 0-.43 0l-2.58 1.49a.11.11 0 0 0-.06.15.1.1 0 0 0 0 .09.1.1 0 0 0 0 .09.1.1 0 0 0 0 .09.1.1 0 0 0 0 .09.1.1 0 0 0 0 .09.1.1 0 0 0 0 .09.1.1 0 0 0 0 .09.1.1 0 0 0 0 .09.1.1 0 0 0 0 .09.1.1 0 0 0 0 .09c0 .06 0 .13.09.19l3.21 1.85a.48.48 0 0 0 .43 0l2.58-1.49a.11.11 0 0 0 .06-.15.1.1 0 0 0 0-.09.1.1 0 0 0 0-.09.1.1 0 0 0 0-.09.1.1 0 0 0 0-.09.1.1 0 0 0 0-.09.1.1 0 0 0 0-.09.1.1 0 0 0 0-.09.1.1 0 0 0 0-.09.1.1 0 0 0 0-.09.1.1 0 0 0 0-.09c.03-.06 0-.14-.09-.19zm8.35.47l-3.21-1.85a.47.47 0 0 0-.43 0l-2.58 1.49a.11.11 0 0 0-.06.15.1.1 0 0 0 0 .09.1.1 0 0 0 0 .09.1.1 0 0 0 0 .09.1.1 0 0 0 0 .09.1.1 0 0 0 0 .09.1.1 0 0 0 0 .09.1.1 0 0 0 0 .09.1.1 0 0 0 0 .09.1.1 0 0 0 0 .09.1.1 0 0 0 0 .09.11.11 0 0 0 0 .12l-.72-.41a.48.48 0 0 0-.43 0l-2.56 1.4a.11.11 0 0 0-.06.15.1.1 0 0 0 0 .09.1.1 0 0 0 0 .09.1.1 0 0 0 0 .09.1.1 0 0 0 0 .09.1.1 0 0 0 0 .09.1.1 0 0 0 0 .09.1.1 0 0 0 0 .09.1.1 0 0 0 0 .09.1.1 0 0 0 0 .09.1.1 0 0 0 0 .09.11.11 0 0 0 0 .12l-.72-.41a.48.48 0 0 0-.43 0l-2.58 1.49a.11.11 0 0 0-.06.15.1.1 0 0 0 0 .09.1.1 0 0 0 0 .09.1.1 0 0 0 0 .09.1.1 0 0 0 0 .09.1.1 0 0 0 0 .09.1.1 0 0 0 0 .09.1.1 0 0 0 0 .09.1.1 0 0 0 0 .09.1.1 0 0 0 0 .09.1.1 0 0 0 0 .09c0 .06 0 .13.09.19l3.21 1.85a.48.48 0 0 0 .43 0l2.58-1.49a.11.11 0 0 0 .06-.15.1.1 0 0 0 0-.09.1.1 0 0 0 0-.09.1.1 0 0 0 0-.09.1.1 0 0 0 0-.09.1.1 0 0 0 0-.09.1.1 0 0 0 0-.09.1.1 0 0 0 0-.09.1.1 0 0 0 0-.09.1.1 0 0 0 0-.09.1.1 0 0 0 0-.09.11.11 0 0 0 0-.12l.72.41a.48.48 0 0 0 .43 0l2.58-1.49a.11.11 0 0 0 .06-.15.1.1 0 0 0 0-.09.1.1 0 0 0 0-.09.1.1 0 0 0 0-.09.1.1 0 0 0 0-.09.1.1 0 0 0 0-.09.1.1 0 0 0 0-.09.1.1 0 0 0 0-.09.1.1 0 0 0 0-.09.1.1 0 0 0 0-.09.1.1 0 0 0 0-.09.11.11 0 0 0 0-.12l.72.41a.48.48 0 0 0 .43 0l2.58-1.49a.11.11 0 0 0 .06-.15.1.1 0 0 0 0-.09.1.1 0 0 0 0-.09 377.79 377.79 0 0 1 0-.26 1259.73 1259.73 0 0 0 0-.43c.01 0-.02-.08-.11-.13z"/><path data-name="&lt;Tracé&gt;" d="M224.3 111.86a.1.1 0 0 0 0 .09.1.1 0 0 0 0 .09.1.1 0 0 0 0 .09.1.1 0 0 0 0 .09.1.1 0 0 0 0 .09.1.1 0 0 0 0 .09.1.1 0 0 0 0 .09.1.1 0 0 0 0 .09.1.1 0 0 0 0 .09.1.1 0 0 0 0 .09.11.11 0 0 0 0 .12l-.72-.41a.48.48 0 0 0-.43 0l-2.58 1.49a.11.11 0 0 0-.06.15.1.1 0 0 0 0 .09.1.1 0 0 0 0 .09.1.1 0 0 0 0 .09 125.9 125.9 0 0 1 0 .26.1.1 0 0 0 0 .09.1.1 0 0 0 0 .09.1.1 0 0 0 0 .09.1.1 0 0 0 0 .09.11.11 0 0 0 0 .12l-.72-.41a.48.48 0 0 0-.43 0l-2.58 1.49a.11.11 0 0 0-.06.15.1.1 0 0 0 0 .09.1.1 0 0 0 0 .09.1.1 0 0 0 0 .09.1.1 0 0 0 0 .09.1.1 0 0 0 0 .09.1.1 0 0 0 0 .09.1.1 0 0 0 0 .09.1.1 0 0 0 0 .09.1.1 0 0 0 0 .09.1.1 0 0 0 0 .09.11.11 0 0 0 0 .12l-.72-.41a.48.48 0 0 0-.43 0l-2.57 1.29a.11.11 0 0 0-.06.15.1.1 0 0 0 0 .09.1.1 0 0 0 0 .09.1.1 0 0 0 0 .09.1.1 0 0 0 0 .09.1.1 0 0 0 0 .09.1.1 0 0 0 0 .09.1.1 0 0 0 0 .09.1.1 0 0 0 0 .09.1.1 0 0 0 0 .09.1.1 0 0 0 0 .09c0 .06 0 .13.09.18l3.21 1.85a.48.48 0 0 0 .43 0l2.58-1.49a.11.11 0 0 0 .06-.15.1.1 0 0 0 0-.09.1.1 0 0 0 0-.09.1.1 0 0 0 0-.09.1.1 0 0 0 0-.09.1.1 0 0 0 0-.09.1.1 0 0 0 0-.09.1.1 0 0 0 0-.09.1.1 0 0 0 0-.09.1.1 0 0 0 0-.09.1.1 0 0 0 0-.09.11.11 0 0 0 0-.12l.72.41a.48.48 0 0 0 .43 0l2.58-1.49a.11.11 0 0 0 .06-.15.1.1 0 0 0 0-.09.1.1 0 0 0 0-.09.1.1 0 0 0 0-.09.1.1 0 0 0 0-.09.1.1 0 0 0 0-.09.1.1 0 0 0 0-.09.1.1 0 0 0 0-.09.1.1 0 0 0 0-.09.1.1 0 0 0 0-.09.1.1 0 0 0 0-.09.11.11 0 0 0 0-.12l.72.41a.48.48 0 0 0 .43 0l2.58-1.49a.11.11 0 0 0 .06-.15.1.1 0 0 0 0-.09.1.1 0 0 0 0-.09.1.1 0 0 0 0-.09.1.1 0 0 0 0-.09.1.1 0 0 0 0-.09.1.1 0 0 0 0-.09.1.1 0 0 0 0-.09.1.1 0 0 0 0-.09.1.1 0 0 0 0-.09.1.1 0 0 0 0-.09.11.11 0 0 0 0-.12l1.22.71a.45.45 0 0 0-.35 0l-2.58 1.49a.11.11 0 0 0-.06.15.1.1 0 0 0 0 .09.1.1 0 0 0 0 .09.1.1 0 0 0 0 .09.1.1 0 0 0 0 .09.1.1 0 0 0 0 .09.1.1 0 0 0 0 .09.1.1 0 0 0 0 .09.1.1 0 0 0 0 .09.1.1 0 0 0 0 .09.1.1 0 0 0 0 .09.11.11 0 0 0 0 .12l-.72-.41a.48.48 0 0 0-.43 0l-2.58 1.49a.11.11 0 0 0-.06.15.1.1 0 0 0 0 .09.1.1 0 0 0 0 .09.1.1 0 0 0 0 .09.1.1 0 0 0 0 .09.1.1 0 0 0 0 .09.1.1 0 0 0 0 .09.1.1 0 0 0 0 .09.1.1 0 0 0 0 .09.1.1 0 0 0 0 .09.1.1 0 0 0 0 .09.11.11 0 0 0 0 .12l-.72-.41a.48.48 0 0 0-.43 0l-2.58 1.49a.11.11 0 0 0-.06.15.1.1 0 0 0 0 .09.1.1 0 0 0 0 .09.1.1 0 0 0 0 .09.1.1 0 0 0 0 .09.1.1 0 0 0 0 .09.1.1 0 0 0 0 .09.1.1 0 0 0 0 .09.1.1 0 0 0 0 .09.1.1 0 0 0 0 .09.1.1 0 0 0 0 .09c0 .06 0 .13.09.19l3.21 1.85a.48.48 0 0 0 .43 0l2.58-1.49a.11.11 0 0 0 .06-.15.1.1 0 0 0 0-.09.1.1 0 0 0 0-.09.1.1 0 0 0 0-.09.1.1 0 0 0 0-.09.1.1 0 0 0 0-.09.1.1 0 0 0 0-.09.1.1 0 0 0 0-.09.1.1 0 0 0 0-.09.1.1 0 0 0 0-.09.1.1 0 0 0 0-.09.11.11 0 0 0 0-.12l.72.41a.47.47 0 0 0 .43 0l2.58-1.49a.11.11 0 0 0 .06-.15.1.1 0 0 0 0-.09.1.1 0 0 0 0-.09.1.1 0 0 0 0-.09.1.1 0 0 0 0-.09.1.1 0 0 0 0-.09.1.1 0 0 0 0-.09.1.1 0 0 0 0-.09.1.1 0 0 0 0-.09.1.1 0 0 0 0-.09.1.1 0 0 0 0-.09.11.11 0 0 0 0-.12l.72.41a.48.48 0 0 0 .43 0l2.58-1.49a.11.11 0 0 0 .06-.15.1.1 0 0 0 0-.09.1.1 0 0 0 0-.09.1.1 0 0 0 0-.09.1.1 0 0 0 0-.09.1.1 0 0 0 0-.09.1.1 0 0 0 0-.09.1.1 0 0 0 0-.09.1.1 0 0 0 0-.09.1.1 0 0 0 0-.09.1.1 0 0 0 0-.09.11.11 0 0 0 0-.12l.72.41a.47.47 0 0 0 .43 0l2.58-1.49a.11.11 0 0 0 .06-.15.1.1 0 0 0 0-.09.1.1 0 0 0 0-.09.1.1 0 0 0 0-.09.1.1 0 0 0 0-.09.1.1 0 0 0 0-.09.1.1 0 0 0 0-.09.1.1 0 0 0 0-.09.1.1 0 0 0 0-.09.1.1 0 0 0 0-.09.1.1 0 0 0 0-.09c0-.06 0-.13-.09-.19l-7.79-4.5a.48.48 0 0 0-.43 0l-2.58 1.49a.11.11 0 0 0-.09.39z"/></g><g data-name="&lt;Groupe&gt;" fill="#3c5671"><path data-name="&lt;Tracé&gt;" d="M208.38 125.18l2.58-1.49c.11-.06.1-.17 0-.25l-3.21-1.85a.48.48 0 0 0-.43 0l-2.58 1.49c-.11.06-.1.17 0 .25l3.21 1.85a.48.48 0 0 0 .43 0zm-5.67-6.26l-2.58 1.49c-.11.06-.1.17 0 .25l3.21 1.85a.48.48 0 0 0 .43 0l2.58-1.49c.11-.06.1-.17 0-.25l-3.21-1.85a.48.48 0 0 0-.43 0zm-8.34 4.82l-4.37 2.52c-.11.06-.1.17 0 .25l3.21 1.85a.48.48 0 0 0 .43 0l4.37-2.52c.11-.06.1-.17 0-.25l-3.21-1.85a.48.48 0 0 0-.43 0zm4.57-2.64l-2.58 1.49c-.11.06-.1.17 0 .25l3.21 1.85a.47.47 0 0 0 .43 0l2.58-1.49c.11-.06.1-.17 0-.25l-3.21-1.85a.48.48 0 0 0-.43 0zm-10.12 5.84l-2.58 1.49c-.11.06-.1.17 0 .25l3.21 1.85a.48.48 0 0 0 .43 0l2.58-1.49c.11-.06.1-.17 0-.25l-3.21-1.79a.47.47 0 0 0-.43-.06zm-3.82 2.18l-2.58 1.49c-.11.06-.1.17 0 .25l3.21 1.85a.48.48 0 0 0 .43 0l2.58-1.49c.11-.06.1-.17 0-.25l-3.21-1.85a.48.48 0 0 0-.43 0zm12.68 7.52l2.58-1.49c.11-.06.1-.17 0-.25l-3.26-1.84a.48.48 0 0 0-.43 0l-2.57 1.47c-.11.06-.1.17 0 .25l3.21 1.85a.47.47 0 0 0 .47.01zm-3.77 2.18l2.58-1.49c.11-.06.1-.17 0-.25l-3.21-1.85a.48.48 0 0 0-.43 0l-2.58 1.49c-.11.06-.1.17 0 .25l3.21 1.85a.47.47 0 0 0 .43 0zm-3.77 2.18l2.58-1.49c.11-.06.1-.17 0-.25l-3.21-1.85a.48.48 0 0 0-.43 0l-2.58 1.49c-.11.06-.1.17 0 .25l3.21 1.85a.48.48 0 0 0 .43 0zm-3.77 2.18l2.58-1.49c.11-.06.1-.17 0-.25l-3.21-1.85a.47.47 0 0 0-.43 0l-2.58 1.49c-.11.06-.1.17 0 .25l3.21 1.85a.48.48 0 0 0 .43 0zm18.24-15.83l2.58-1.49c.11-.06.1-.17 0-.25l-3.19-1.85a.48.48 0 0 0-.43 0l-2.58 1.49c-.11.06-.1.17 0 .25l3.21 1.85a.47.47 0 0 0 .41 0zm-3.16 7.12l5.76-3.32c.11-.06.1-.17 0-.25l-7.79-4.5a.48.48 0 0 0-.43 0l-3 1.72c-.11.06-.1.17 0 .25l4.12 2.38c.13.07.14.18 0 .25l-2.38 1.37c-.11.06-.1.17 0 .25l3.21 1.85a.47.47 0 0 0 .51 0zm-20.17-3.17l-2.58 1.49c-.11.06-.1.17 0 .25l3.21 1.85a.47.47 0 0 0 .43 0l2.58-1.49c.11-.06.1-.17 0-.25l-3.21-1.85a.47.47 0 0 0-.43 0zm-3.77 2.17l-2.58 1.53c-.11.06-.1.17 0 .25l3.21 1.85a.48.48 0 0 0 .43 0l2.58-1.49c.11-.06.1-.17 0-.25l-3.21-1.85a.48.48 0 0 0-.43-.04zm-17.96 24.93a.48.48 0 0 0 .43 0l2.58-1.49c.11-.06.1-.17 0-.25l-3.21-1.85a.48.48 0 0 0-.43 0l-2.58 1.49c-.11.06-.1.17 0 .25zm-12.21-7.51l-2.58 1.49c-.11.06-.1.17 0 .25l3.21 1.85a.48.48 0 0 0 .43 0L151 153c.11-.06.1-.17 0-.25l-3.21-1.85a.47.47 0 0 0-.45-.01zm6.66 5.43a.48.48 0 0 0 .43 0l2.58-1.49c.11-.06.1-.17 0-.25l-3.21-1.85a.48.48 0 0 0-.43 0l-2.58 1.49c-.11.06-.1.17 0 .25zm12.54 3.59l2.58-1.49c.11-.06.1-.17 0-.25l-3.21-1.85a.48.48 0 0 0-.43 0l-2.58 1.49c-.11.06-.1.17 0 .25l3.21 1.85a.48.48 0 0 0 .43 0zm-4.19 2.16a.47.47 0 0 0 .43 0l2.58-1.49c.11-.06.1-.17 0-.25l-3.21-1.85a.48.48 0 0 0-.43 0l-2.61 1.52c-.11.06-.1.17 0 .25zm-11.24-13.36l-2.58 1.49c-.11.06-.1.17 0 .25l3.21 1.85a.47.47 0 0 0 .43 0l2.58-1.49c.11-.06.1-.17 0-.25l-3.21-1.85a.48.48 0 0 0-.43 0zM170 137.83l-2.58 1.49c-.11.06-.1.17 0 .25l3.21 1.85a.48.48 0 0 0 .43 0l2.58-1.49c.11-.06.1-.17 0-.25l-3.21-1.85a.48.48 0 0 0-.43 0zm-15.12 8.71L152.3 148c-.11.06-.1.17 0 .25l3.21 1.85a.48.48 0 0 0 .43 0l2.58-1.49c.11-.06.1-.17 0-.25l-3.21-1.85a.48.48 0 0 0-.43.03zm18.86-10.89l-2.58 1.49c-.11.06-.1.17 0 .25l3.21 1.85a.48.48 0 0 0 .43 0l2.58-1.49c.11-.06.1-.17 0-.25l-3.21-1.85a.48.48 0 0 0-.43 0zm-7.55 4.35l-2.58 1.49c-.11.06-.1.17 0 .25l3.21 1.85a.48.48 0 0 0 .43 0l2.58-1.49c.11-.06.1-.17 0-.25l-3.21-1.85a.47.47 0 0 0-.43 0zm-3.77 2.18l-2.58 1.49c-.11.06-.1.17 0 .25l3.21 1.85a.48.48 0 0 0 .43 0l2.58-1.49c.11-.06.1-.17 0-.25l-3.21-1.85a.48.48 0 0 0-.43 0zm-3.77 2.18l-2.58 1.49c-.11.06-.1.17 0 .25l3.21 1.85a.48.48 0 0 0 .43 0l2.58-1.49c.11-.06.1-.17 0-.25l-3.21-1.85a.48.48 0 0 0-.43 0zm20.18 3.17l2.58-1.49c.11-.06.1-.17 0-.25l-3.21-1.85a.47.47 0 0 0-.43 0l-2.58 1.49c-.11.06-.1.17 0 .25l3.21 1.85a.48.48 0 0 0 .43 0zM211 114.11l-2.58 1.49c-.11.06-.1.17 0 .25l3.21 1.85a.47.47 0 0 0 .43 0l2.58-1.49c.11-.06.1-.17 0-.25l-3.21-1.85a.47.47 0 0 0-.43 0zm-4.52 2.64l-2.58 1.49c-.11.06-.1.17 0 .25l3.21 1.85a.48.48 0 0 0 .43 0l2.58-1.49c.11-.06.1-.17 0-.25l-3.21-1.85a.48.48 0 0 0-.43 0zm8.34-4.82l-2.58 1.49c-.11.06-.1.17 0 .25l3.21 1.85a.48.48 0 0 0 .43 0l2.58-1.49c.11-.06.1-.17 0-.25l-3.22-1.78a.48.48 0 0 0-.42-.07z"/><path data-name="&lt;Tracé&gt;" d="M195.88 132.39l2.58-1.49c.11-.06.1-.17 0-.25l-3.21-1.85a.48.48 0 0 0-.43 0l-2.58 1.49c-.11.06-.1.17 0 .25l3.21 1.85a.48.48 0 0 0 .43 0zM219 109.77a.47.47 0 0 0-.43 0l-2.57 1.48c-.11.06-.1.17 0 .25l3.21 1.85a.48.48 0 0 0 .43 0l2.58-1.49c.11-.06.1-.17 0-.25zm-36.4 35.58l2.58-1.49c.11-.06.1-.17 0-.25l-3.21-1.85a.48.48 0 0 0-.43 0l-2.58 1.49c-.11.06-.1.17 0 .25l3.21 1.85a.48.48 0 0 0 .43 0zm46.24-26.69l2.58-1.49c.11-.06.1-.17 0-.25l-3.21-1.85a.48.48 0 0 0-.43 0l-2.58 1.49c-.11.06-.1.17 0 .25l3.21 1.85a.48.48 0 0 0 .43 0zm-8.35-.47l2.58-1.49c.11-.06.1-.17 0-.25l-3.21-1.85a.48.48 0 0 0-.43 0l-2.58 1.49c-.11.06-.1.17 0 .25l3.21 1.85a.47.47 0 0 0 .43 0zm3.11-5.77a.48.48 0 0 0-.43 0l-2.58 1.49c-.11.06-.1.17 0 .25l3.21 1.85a.48.48 0 0 0 .43 0l2.58-1.49c.11-.06.1-.17 0-.25zm.79-.42l7.79 4.5a.48.48 0 0 0 .43 0l2.58-1.49c.11-.06.1-.17 0-.25l-7.79-4.5a.47.47 0 0 0-.43 0l-2.58 1.49c-.14.03-.13.14 0 .25zm-8.76 4.76l-2.63 1.49c-.11.06-.1.17 0 .25l3.21 1.85a.48.48 0 0 0 .43 0l2.58-1.49c.11-.06.1-.17 0-.25l-3.21-1.85a.48.48 0 0 0-.38 0zm-28.38 16.38l-2.58 1.49c-.11.06-.1.17 0 .25l3.21 1.85a.48.48 0 0 0 .43 0l2.58-1.49c.11-.06.1-.17 0-.25l-3.21-1.85a.48.48 0 0 0-.43 0zm37.39-12.33a.48.48 0 0 0 .43 0l2.58-1.49c.11-.06.1-.17 0-.25l-3.21-1.85a.47.47 0 0 0-.43 0l-2.58 1.49c-.11.06-.1.17 0 .25zM191 131l-2.58 1.49c-.11.06-.1.17 0 .25l3.21 1.85a.48.48 0 0 0 .43 0l2.58-1.49c.11-.06.1-.17 0-.25l-3.19-1.85a.48.48 0 0 0-.45 0zm-27.68 25.22a.48.48 0 0 0 .43 0l2.58-1.49c.11-.06.1-.17 0-.25l-3.21-1.85a.47.47 0 0 0-.43 0l-2.58 1.49c-.11.06-.1.17 0 .25zm-6.24-5.66L154.5 152c-.11.06-.1.17 0 .25l3.21 1.85a.48.48 0 0 0 .43 0l2.58-1.49c.11-.06.1-.17 0-.25l-3.21-1.85a.48.48 0 0 0-.43.05zm10.44 3.5l2.58-1.49c.11-.06.1-.17 0-.25l-3.21-1.85a.48.48 0 0 0-.43 0l-2.58 1.49c-.11.06-.1.17 0 .25l3.21 1.85a.48.48 0 0 0 .43 0zm3.77-2.18l2.58-1.49c.11-.06.1-.17 0-.25l-3.21-1.85a.48.48 0 0 0-.43 0l-2.58 1.49c-.11.06-.1.17 0 .25l3.21 1.85a.47.47 0 0 0 .43 0zm3.77-2.17l2.58-1.49c.11-.06.1-.17 0-.25l-3.21-1.85a.48.48 0 0 0-.43 0l-2.58 1.49c-.11.06-.1.17 0 .25l3.21 1.85a.48.48 0 0 0 .43 0zm-14.21-1.33l-2.58 1.49c-.11.06-.1.17 0 .25l3.21 1.85a.48.48 0 0 0 .43 0l2.58-1.49c.11-.06.1-.17 0-.25l-3.21-1.85a.47.47 0 0 0-.43 0zm3.78-2.18l-2.63 1.49c-.11.06-.1.17 0 .25l3.21 1.85a.48.48 0 0 0 .43 0l2.58-1.49c.11-.06.1-.17 0-.25l-3.21-1.85a.47.47 0 0 0-.38 0zm15.08-8.7l-2.58 1.5c-.11.06-.1.17 0 .25l3.21 1.85a.47.47 0 0 0 .43 0l2.58-1.49c.11-.06.1-.17 0-.25l-3.21-1.85a.47.47 0 0 0-.43-.01zm-3.77 2.17l-2.58 1.49c-.11.06-.1.17 0 .25l3.21 1.85a.48.48 0 0 0 .43 0l2.58-1.49c.11-.06.1-.17 0-.25l-3.21-1.85a.48.48 0 0 0-.43 0zm7.54-4.35l-2.58 1.49c-.11.06-.1.17 0 .25l3.21 1.85a.48.48 0 0 0 .43 0l2.58-1.49c.11-.06.1-.17 0-.25l-3.21-1.85a.48.48 0 0 0-.43 0zM168.4 144l-2.58 1.49c-.11.06-.1.17 0 .25l3.21 1.85a.48.48 0 0 0 .43 0l2.58-1.49c.11-.06.1-.17 0-.25l-3.22-1.85a.48.48 0 0 0-.42 0zm3.77-2.15l-2.58 1.49c-.11.06-.1.17 0 .25l3.21 1.85a.47.47 0 0 0 .43 0l2.58-1.49c.11-.06.1-.17 0-.25l-3.21-1.85a.48.48 0 0 0-.43 0zm-1.86 15.89l2.58-1.49c.11-.06.1-.17 0-.25l-3.21-1.85a.48.48 0 0 0-.43 0l-2.58 1.49c-.11.06-.1.17 0 .25l3.21 1.85a.47.47 0 0 0 .43 0zm-23.1-2.8l-3.21-1.85a.47.47 0 0 0-.43 0l-2.57 1.47c-.11.06-.1.17 0 .25l3.21 1.85a.48.48 0 0 0 .43 0l2.58-1.49c.13-.05.11-.17-.01-.23zm5.97 1.84l-3.18-1.85a.47.47 0 0 0-.43 0l-4 2.29c-.11.06-.1.17 0 .25l3.21 1.85a.48.48 0 0 0 .43 0l4-2.29c.11-.03.1-.18-.03-.25zm-10.94-5.4l-3.24-1.85a.47.47 0 0 0-.43 0l-3.18 1.83c-.11.06-.1.17 0 .25l3.21 1.85a.48.48 0 0 0 .43 0l3.18-1.83c.17-.06.16-.17.03-.25zm2.43-1.38a.47.47 0 0 0 .43 0l2.58-1.49c.11-.06.1-.17 0-.25l-3.21-1.85a.47.47 0 0 0-.43 0l-2.58 1.49c-.11.06-.1.17 0 .25zm14.08 8.85l-3.2-1.85a.47.47 0 0 0-.43 0l-5 2.86c-.11.06-.1.17 0 .25l3.21 1.85a.48.48 0 0 0 .43 0l5-2.86c.13-.1.12-.17-.01-.25zm2.8 3.68l-3.21-1.85a.48.48 0 0 0-.43 0l-3.18 1.83c-.11.06-.1.17 0 .25l3.21 1.85a.48.48 0 0 0 .43 0l3.18-1.83c.14-.06.13-.18 0-.25zm11.16-28.74a.47.47 0 0 0 .43 0l2.58-1.49c.11-.06.1-.17 0-.25l-3.21-1.85a.48.48 0 0 0-.43 0l-2.58 1.49c-.11.06-.1.17 0 .25zm-7.54 4.35a.48.48 0 0 0 .43 0l2.58-1.49c.11-.06.1-.17 0-.25l-3.21-1.85a.47.47 0 0 0-.43 0l-2.61 1.45c-.11.06-.1.17 0 .25zm-16.73 9.66a.47.47 0 0 0 .43 0l2.58-1.49c.11-.06.1-.17 0-.25l-3.21-1.85a.48.48 0 0 0-.43 0l-2.58 1.49c-.11.06-.1.17 0 .25zm20.5-11.8a.47.47 0 0 0 .43 0l2.58-1.49c.11-.06.1-.17 0-.25l-3.21-1.85a.48.48 0 0 0-.43 0l-2.58 1.49c-.11.06-.1.17 0 .25zm-7.54 4.32a.48.48 0 0 0 .43 0l2.58-1.49c.11-.06.1-.17 0-.25l-3.21-1.85a.48.48 0 0 0-.43 0l-2.58 1.49c-.11.06-.1.17 0 .25zm2.32 22.55a.48.48 0 0 0-.43 0l-4 2.29c-.11.06-.1.17 0 .25l3.21 1.85a.48.48 0 0 0 .43 0l4-2.29c.11-.06.1-.17 0-.25zM156 143.45a.48.48 0 0 0 .43 0L159 142c.11-.06.1-.17 0-.25l-3.21-1.85a.48.48 0 0 0-.43 0l-2.58 1.49c-.11.06-.1.17 0 .25zm-3.78 2.17a.47.47 0 0 0 .43 0l2.58-1.49c.11-.06.1-.17 0-.25l-3.23-1.83a.47.47 0 0 0-.43 0l-2.57 1.47c-.11.06-.1.17 0 .25zm81.36-23.08a.48.48 0 0 0-.43 0l-6.35 3.67c-.11.06-.1.17 0 .25l3.21 1.85a.48.48 0 0 0 .43 0l6.35-3.67c.11-.06.1-.17 0-.25zm-8.34 4.81a.47.47 0 0 0-.43 0l-2.58 1.49c-.11.06-.1.17 0 .25l3.21 1.85a.48.48 0 0 0 .43 0l2.58-1.49c.11-.06.1-.17 0-.25zm-51.16 28.21l2.58-1.49c.11-.06.1-.17 0-.25l-3.23-1.82a.48.48 0 0 0-.43 0l-2.58 1.49c-.11.06-.1.17 0 .25l3.21 1.85a.48.48 0 0 0 .45-.03zm43.62-23.86a.48.48 0 0 0-.43 0l-2.58 1.49c-.11.06-.1.17 0 .25l3.21 1.85a.48.48 0 0 0 .43 0l2.58-1.49c.11-.06.1-.17 0-.25zm19.65-11.34a.47.47 0 0 0-.43 0l-2.58 1.49c-.11.06-.1.17 0 .25l3.21 1.85a.47.47 0 0 0 .43 0l2.58-1.49c.11-.06.1-.17 0-.25zm6.98-.36l-7.79-4.5a.47.47 0 0 0-.43 0l-2.58 1.5c-.11.06-.1.17 0 .25l7.79 4.5a.48.48 0 0 0 .43 0l2.58-1.49c.14-.04.12-.15 0-.26zm-40.72 19.84a.48.48 0 0 0-.43 0l-3.18 1.81c-.11.06-.1.17 0 .25l3.21 1.85a.48.48 0 0 0 .43 0l3.18-1.83c.11-.06.1-.17 0-.25zm9.53-5.5a.48.48 0 0 0-.43 0l-4 2.29c-.11.06-.1.17 0 .25l3.21 1.85a.48.48 0 0 0 .43 0l4-2.29c.11-.06.1-.17 0-.25zm-18.26 10.54a.48.48 0 0 0-.43 0l-21.23 12.26c-.11.06-.1.17 0 .25l3.21 1.85a.47.47 0 0 0 .43 0L198.12 147c.11-.06.1-.17 0-.25zm-22.43 12.95a.48.48 0 0 0-.43 0l-3.18 1.83c-.11.06-.1.17 0 .25l3.21 1.85a.48.48 0 0 0 .43 0l3.18-1.83c.11-.06.1-.17 0-.25zm26.79-15.47a.47.47 0 0 0-.43 0l-3.18 1.83c-.11.06-.1.17 0 .25l3.21 1.85a.48.48 0 0 0 .43 0l3.18-1.83c.11-.06.1-.17 0-.25zm-31.15 17.99a.47.47 0 0 0-.43 0l-3.18 1.83c-.11.06-.1.17 0 .25l3.21 1.85a.48.48 0 0 0 .43 0l3.18-1.83c.11-.06.1-.17 0-.25zM208 137.32a.48.48 0 0 0-.43 0l-3.18 1.83c-.11.06-.1.17 0 .25l3.21 1.85a.47.47 0 0 0 .43 0l3.18-1.83c.11-.06.1-.17 0-.25zm13.47-7.79a.48.48 0 0 0-.43 0l-2.58 1.47c-.11.06-.1.17 0 .25l3.21 1.85a.48.48 0 0 0 .43 0l2.58-1.49c.11-.06.1-.17 0-.25zm8.18-6.05l2.58-1.49c.11-.06.1-.17 0-.25l-3.23-1.85a.48.48 0 0 0-.43 0l-2.57 1.47c-.11.06-.1.17 0 .25l3.21 1.85a.48.48 0 0 0 .44.02zm-17.5-.48l2.58-1.49c.11-.06.1-.17 0-.25l-3.21-1.85a.47.47 0 0 0-.43 0l-2.58 1.49c-.11.06-.1.17 0 .25l3.21 1.85a.47.47 0 0 0 .43 0zm-7.9 15.14l7.54-4.35c.11-.06.1-.17 0-.25l-3.21-1.85a.47.47 0 0 0-.43 0l-7.57 4.31c-.11.06-.1.17 0 .25l3.21 1.85a.48.48 0 0 0 .46.04zm21.2-12.5a.47.47 0 0 0 .43 0l2.58-1.49c.11-.06.1-.17 0-.25l-3.21-1.85a.48.48 0 0 0-.43 0l-2.58 1.49c-.11.06-.1.17 0 .25zM221.3 123l2.58-1.49c.11-.06.1-.17 0-.25l-3.21-1.85a.48.48 0 0 0-.43 0l-2.58 1.49c-.11.06-.1.17 0 .25l3.21 1.85a.48.48 0 0 0 .43 0zm-20.82 17.32l2.58-1.49c.11-.06.1-.17 0-.25l-3.21-1.85a.48.48 0 0 0-.43 0l-2.58 1.49c-.11.06-.1.17 0 .25l3.21 1.85a.48.48 0 0 0 .43 0zm16.64-9.87a.47.47 0 0 0 .43 0l2.58-1.49c.11-.06.1-.17 0-.25l-3.21-1.85a.48.48 0 0 0-.43 0l-2.58 1.49c-.11.06-.1.17 0 .25zm-35.49 20.76l2.58-1.49c.11-.06.1-.17 0-.25l-3.21-1.85a.48.48 0 0 0-.43 0l-2.57 1.47c-.11.06-.1.17 0 .25l3.21 1.85a.48.48 0 0 0 .42.02zm3.77-2.21l2.58-1.49c.11-.06.1-.17 0-.25l-3.21-1.85a.47.47 0 0 0-.43 0l-2.58 1.49c-.11.06-.1.17 0 .25L185 149a.48.48 0 0 0 .4 0zm-7.54 4.38l2.58-1.49c.11-.06.1-.17 0-.25l-3.21-1.85a.47.47 0 0 0-.43 0l-2.58 1.49c-.11.06-.1.17 0 .25l3.21 1.85a.47.47 0 0 0 .43 0zm15.08-8.7l2.58-1.49c.11-.06.1-.17 0-.25l-3.21-1.85a.47.47 0 0 0-.43 0l-2.58 1.49c-.11.06-.1.17 0 .25l3.21 1.85a.47.47 0 0 0 .43 0zm-3.77 2.17l2.58-1.49c.11-.06.1-.17 0-.25l-3.21-1.85a.48.48 0 0 0-.43 0l-2.58 1.49c-.11.06-.1.17 0 .25l3.21 1.85a.48.48 0 0 0 .43 0zm7.54-4.35l2.58-1.49c.11-.06.1-.17 0-.25l-3.29-1.85a.48.48 0 0 0-.43 0l-2.57 1.47c-.11.06-.1.17 0 .25l3.21 1.85a.48.48 0 0 0 .5.02zM194 121.48a.47.47 0 0 0 .43 0L197 120c.11-.06.1-.17 0-.25l-3.21-1.85a.47.47 0 0 0-.43 0l-2.58 1.49c-.11.06-.1.17 0 .25zm7.58-4.36a.47.47 0 0 0 .43 0l2.58-1.49c.11-.06.1-.17 0-.25l-3.21-1.85a.48.48 0 0 0-.43 0l-2.61 1.47c-.11.06-.1.17 0 .25zm-12.15 7.02a.47.47 0 0 0 .43 0l2.58-1.49c.11-.06.1-.17 0-.25l-3.21-1.85a.48.48 0 0 0-.43 0l-2.61 1.45c-.11.06-.1.17 0 .25zm8.38-4.84a.48.48 0 0 0 .43 0l2.58-1.49c.11-.06.1-.17 0-.25l-3.21-1.85a.48.48 0 0 0-.43 0l-2.58 1.49c-.11.06-.1.17 0 .25zm-15.92 9.19a.48.48 0 0 0 .43 0l2.58-1.49c.11-.06.1-.17 0-.25l-3.21-1.85a.48.48 0 0 0-.43 0l-2.58 1.49c-.11.06-.1.17 0 .25zm3.77-2.18a.48.48 0 0 0 .43 0l2.58-1.49c.11-.06.1-.17 0-.25l-3.21-1.85a.47.47 0 0 0-.43 0l-2.58 1.49c-.11.06-.1.17 0 .25zM223 111.17a.48.48 0 0 0 .43 0l2.57-1.47c.11-.06.1-.17 0-.25l-3.21-1.85a.48.48 0 0 0-.43 0l-2.58 1.49c-.11.06-.1.17 0 .25zm10.42 10.13l2.58-1.49c.11-.06.1-.17 0-.25l-3.21-1.85a.47.47 0 0 0-.43 0l-2.58 1.49c-.11.06-.1.17 0 .25l3.21 1.85a.47.47 0 0 0 .43 0zm-55.3 9.37a.48.48 0 0 0 .43 0l2.58-1.49c.11-.06.1-.17 0-.25l-3.21-1.85a.48.48 0 0 0-.43 0l-2.58 1.49c-.11.06-.1.17 0 .25z"/></g></g></g><path data-name="&lt;Tracé&gt;" d="M212.51 109.45a.48.48 0 0 0 .43 0l2.58-1.49c.11-.06.1-.17 0-.25l-.85-.49a.48.48 0 0 0-.43 0l-2.58 1.49c-.11.06-.1.17 0 .25zm-7.51 4.36a.48.48 0 0 0 .43 0l2.58-1.49c.11-.06.1-.17 0-.25l-.85-.49a.48.48 0 0 0-.43 0l-2.58 1.49c-.11.06-.1.17 0 .25zm11.28-6.53a.48.48 0 0 0 .43 0l2.58-1.49c.11-.06.1-.17 0-.25l-.85-.49a.48.48 0 0 0-.43 0l-2.58 1.49c-.11.06-.1.17 0 .25zm-7.54 4.35a.48.48 0 0 0 .43 0l2.58-1.49c.11-.06.1-.17 0-.25l-.85-.49a.48.48 0 0 0-.43 0l-2.58 1.49c-.11.06-.1.17 0 .25z" fill="#aecb3b"/></g></g><g data-name="&lt;Groupe&gt;"><g data-name="&lt;Groupe&gt;"><path data-name="&lt;Tracé&gt;" d="M117.41 149.17l95.27-55L200 19.16l-.73-1.68-.79-.39a6.57 6.57 0 0 0-6.57 0l-87.14 50.32a6.57 6.57 0 0 0-3.29 5.69l12.64 70.38c.61 3.65 1.26 4.52 3.29 5.69z" fill="#e6f0f4"/><path data-name="&lt;Tracé&gt;" d="M197.84 17.47l-91.48 52.82a3.19 3.19 0 0 0-1.59 2.71l12.64 76.13 95.27-55L200 18.74a1.47 1.47 0 0 0-2.16-1.27z" fill="#3c5671"/></g><path data-name="&lt;Tracé&gt;" fill="#507e9e" d="M209.39 90.7l-11.84-69.3-1.14.66 11.84 67.98 1.14.66z"/><path data-name="&lt;Tracé&gt;" fill="#79cdf4" d="M196.41 22.06l11.84 67.99-89.05 51.29-11.36-68.13 88.57-51.15z"/><path data-name="&lt;Tracé&gt;" d="M194.6 29.87l-.41-2.47a.74.74 0 0 0-1.18-.55l-79.54 45.82a1.79 1.79 0 0 0-.81 1.72l.43 2.55 10.34 61.94 81.53-47z" fill="#0e678e"/><path data-name="&lt;Tracé&gt;" d="M205.41 91.68l-81.53 47-10.34-61.98-.43-2.57a1.79 1.79 0 0 1 .81-1.72l79.53-45.81a.75.75 0 0 1 1.19.56l.41 2.47z" fill="#69a7db"/><path data-name="&lt;Tracé&gt;" fill="#5f8caf" d="M209.39 90.7l-89.99 51.87-.2-1.23 89.05-51.29 1.14.65z"/><path data-name="&lt;Tracé&gt;" d="M195.05 29.63L113.54 76.7l-.43-2.57a1.79 1.79 0 0 1 .81-1.72l79.53-45.81a.75.75 0 0 1 1.19.56z" fill="#d7dff2"/><path data-name="&lt;Tracé&gt;" fill="#fff" d="M116.79 71.88l.32 1.76 69.92-40.37-.31-1.76-69.93 40.37z"/><g data-name="&lt;Groupe&gt;"><path data-name="&lt;Tracé&gt;" d="M116.1 72.64l-1.84 1.06-.07-.41 1.84-1.06.07.41zm.12.66l-1.84 1.06-.07-.41 1.84-1.06.07.41zm.12.68l-1.84 1.07-.07-.41 1.84-1.07.07.41z" fill="#7285b2"/></g><path data-name="&lt;Tracé&gt;" d="M189.2 31a1.36 1.36 0 0 1-.62 1.33.59.59 0 0 1-.93-.43 1.36 1.36 0 0 1 .62-1.33.59.59 0 0 1 .93.43z" fill="#7dbc53"/><path data-name="&lt;Tracé&gt;" d="M191.26 29.85a1.36 1.36 0 0 1-.62 1.33.59.59 0 0 1-.93-.43 1.36 1.36 0 0 1 .62-1.33.59.59 0 0 1 .93.43z" fill="#ffd96e"/><path data-name="&lt;Tracé&gt;" d="M193.32 28.67a1.36 1.36 0 0 1-.62 1.33.59.59 0 0 1-.93-.43 1.36 1.36 0 0 1 .62-1.33.59.59 0 0 1 .93.43z" fill="#ea4f6c"/></g></g><g data-name="&lt;Groupe&gt;"><g data-name="&lt;Groupe&gt;" fill="#e6f0f4"><path data-name="&lt;Tracé&gt;" d="M214.42 53.26V69c0 1 .73 1.47 1.64.95l18.27-10.53a3.61 3.61 0 0 0 1.64-2.84V40.84c0-1-.74-1.47-1.64-.95l-18.27 10.53a3.63 3.63 0 0 0-1.64 2.84z"/><path data-name="&lt;Tracé&gt;" d="M238.51 41.52l-3.01-1.7-.14 3.9 3.15-2.2zm-20.54 30.33l-3.07-1.78 2.83-1.65.24 3.43z"/></g><path data-name="&lt;Tracé&gt;" fill="#e6f0f4" d="M225.18 73.56v-7.1l-3.08-1.77v7.11l3.08 1.76z"/><path data-name="&lt;Tracé&gt;" d="M217.48 55.05v15.73c0 1 .73 1.47 1.64.95l18.25-10.54a3.63 3.63 0 0 0 1.63-2.85V42.59c0-1-.73-1.47-1.64-.94l-18.24 10.56a3.63 3.63 0 0 0-1.64 2.84z" fill="#fff"/><path data-name="&lt;Tracé&gt;" fill="#fff" d="M225.19 66.46l-.01 7.1 7.68-11.54-7.67 4.44z"/></g><g data-name="&lt;Groupe&gt;"><path data-name="&lt;Tracé&gt;" d="M227 55.71s1.36-3.11 1.49-3.56a13.84 13.84 0 0 0 0-2.32c0-.3 1.23-1.13 1.62-.26a4.49 4.49 0 0 1 .2 2.88l3-1.74c.63-.37.89.16.89.57a2.24 2.24 0 0 1-.49 1.29s.6-.18.6.63a2.12 2.12 0 0 1-.73 1.47s.19.15.2.71a2.36 2.36 0 0 1-.84 1.5 1.73 1.73 0 0 1 .13.71 2.3 2.3 0 0 1-1.1 1.72l-5 2.87zm-2.86 9.02l2.17-1.25-.01-7.54-2.16 1.25v7.54z" fill="#69a7db"/></g><g data-name="&lt;Groupe&gt;"><g data-name="&lt;Groupe&gt;" fill="#e6f0f4"><path data-name="&lt;Tracé&gt;" d="M208.12 21.52v15.74c0 1 .73 1.47 1.64.95L228 27.68a3.61 3.61 0 0 0 1.64-2.84V9.1c0-1-.74-1.47-1.64-.95l-18.24 10.53a3.63 3.63 0 0 0-1.64 2.84z"/><path data-name="&lt;Tracé&gt;" d="M232.21 9.78l-3-1.7-.15 3.9 3.15-2.2zM211.67 40.1l-3.07-1.77 2.84-1.65.23 3.42z"/></g><path data-name="&lt;Tracé&gt;" fill="#e6f0f4" d="M218.88 41.82v-7.1l-3.08-1.77v7.11l3.08 1.76z"/><path data-name="&lt;Tracé&gt;" d="M211.18 23.31V39c0 1 .73 1.47 1.64.95l18.25-10.54a3.63 3.63 0 0 0 1.64-2.84V10.85c0-1-.73-1.47-1.64-.94l-18.25 10.56a3.63 3.63 0 0 0-1.64 2.84z" fill="#fff"/><path data-name="&lt;Tracé&gt;" fill="#fff" d="M218.89 34.72l-.01 7.1 7.68-11.54-7.67 4.44z"/></g><g data-name="&lt;Groupe&gt;"><path data-name="&lt;Tracé&gt;" d="M222.18 30.17l-1.74-.46c-1.66-.44-3.64-1.41-3.64-3.54a5.6 5.6 0 0 1 2.7-4.26 1.69 1.69 0 0 1 2.68 1.28 6.73 6.73 0 0 1 2.68-4.37c1.49-.86 2.7-.35 2.7 1.14 0 2.13-2 5.39-3.63 7.74z" fill="#ed6b71"/></g><g data-name="&lt;Groupe&gt;"><path data-name="&lt;Tracé&gt;" fill="#69a7db" d="M283.74 158.28l-63.52 36.65v-1.32l63.52-36.66v1.33z"/><path data-name="&lt;Tracé&gt;" d="M204.1 97l-25.86 14.93-7 4a7.5 7.5 0 0 0-.66.38 9.29 9.29 0 0 0-4.45 8v13.58a9.27 9.27 0 0 1-3.76 7.52 9.49 9.49 0 0 1-5.67 1.91 9.33 9.33 0 0 1-4.69-1.27 28.23 28.23 0 0 1-14.11-24.45v-14.8a28.23 28.23 0 0 0-14.11-24.45l63.52-36.67a28.22 28.22 0 0 1 14.12 24.45V85a28.12 28.12 0 0 0 2.67 12z" fill="#f6fbfd"/><g data-name="&lt;Groupe&gt;"><path data-name="&lt;Tracé&gt;" d="M188.59 53.46l-53.48 30.87m57.86-25.29l-53.48 30.87m56.32-24.39L142.34 96.4m54.62-23.78l-53.48 30.87m53.49-23.68l-53.48 30.87m53.48-23.71l-53.48 30.88m54.09-23.69l-53.48 30.88m55.81-24.17l-53.48 30.88m57.39-24.98l-53.48 30.87m58.81-26.08l-53.48 30.87" fill="none" stroke="#5d6593" stroke-linecap="round" stroke-miterlimit="10" stroke-width="3"/></g><path data-name="&lt;Tracé&gt;" d="M220.22 193.61v1.33l-.58-.32-11.76-6.79a29.47 29.47 0 0 1-14.69-25.45v-21.75a27.12 27.12 0 0 0-13.53-23.44 8.25 8.25 0 0 0-12.38 7.15v13.58a10.45 10.45 0 0 1-4.67 8.77c-.2.13-.39.25-.6.37a10.46 10.46 0 0 1-10.57 0 29.47 29.47 0 0 1-14.69-25.45v-14.8a27.14 27.14 0 0 0-13-23.09v-1.34a28.23 28.23 0 0 1 14.11 24.45v14.8A28.23 28.23 0 0 0 152 146.07a9.33 9.33 0 0 0 4.69 1.27 9.49 9.49 0 0 0 5.67-1.91 4.81 4.81 0 0 0 .39-.31l.39-.35.08-.08c.22-.21.43-.43.63-.65l.32-.41.21-.28c.09-.13.17-.25.25-.38l.21-.35a8.43 8.43 0 0 0 .47-.94 7.52 7.52 0 0 0 .3-.81 1.2 1.2 0 0 0 .06-.19c0-.13.08-.27.12-.41v-.07c0-.15.07-.3.09-.46a.3.3 0 0 0 0-.1c0-.12 0-.25.06-.38s0-.14 0-.21v-16.18a1.16 1.16 0 0 1 0-.14 3.59 3.59 0 0 1 .07-.36 5.25 5.25 0 0 1 .13-.52c0-.18.1-.35.16-.53l.05-.16c0-.12.09-.23.13-.34s.2-.46.31-.68.17-.33.27-.49c.1-.17.2-.33.31-.49s.18-.27.28-.39a9.3 9.3 0 0 1 .75-.89l.17-.17.31-.29.44-.38a8.65 8.65 0 0 1 .9-.63l.25-.16.27-.15.14-.08a7.53 7.53 0 0 1 .83-.37l.3-.12.19-.06.31-.1.43-.12.38-.09h.07l.44-.08.45-.06a9.22 9.22 0 0 1 5 .92l.57.31a28.22 28.22 0 0 1 10.33 10.33 29 29 0 0 1 1.56 3.15 28.15 28.15 0 0 1 2.22 11v21.74a28.22 28.22 0 0 0 14.11 24.44z" fill="#90c5ec"/><path data-name="&lt;Tracé&gt;" d="M191.11 130.25l-28.51 16.44a10.45 10.45 0 0 0 4.67-8.77v-13.58a8.25 8.25 0 0 1 12.38-7.15 27.11 27.11 0 0 1 11.46 13.06z" fill="#c3dbef"/><path data-name="&lt;Tracé&gt;" d="M283.74 157l-63.51 36.65-11.76-6.79a28.22 28.22 0 0 1-14.11-24.44v-21.79a28.15 28.15 0 0 0-2.22-11 29 29 0 0 0-1.56-3.15 28.22 28.22 0 0 0-10.33-10.33 9.3 9.3 0 0 0-9-.23l7-4L204.1 97l30.18-17.42h.08a9.31 9.31 0 0 1 9.39 0A28.23 28.23 0 0 1 257.86 104v21.74A28.23 28.23 0 0 0 272 150.16z" fill="#fff"/><path data-name="&lt;Tracé&gt;" fill="none" stroke="#5d6593" stroke-linecap="round" stroke-miterlimit="10" stroke-width="3" d="M213.9 100.87l-24.4 14.17m64.64 9.62l-53.47 30.88m53.47-24.02l-53.47 30.88m53.47-45.35l-53.47 30.88m53.24-37.95l-53.48 30.87m23.81-21.44l-24.39 14.17m22.58-21.5l-24.39 14.17m20.64-20.41l-24.39 14.17"/><path data-name="&lt;Tracé&gt;" d="M229.19 119.41c-.33-4.73-2.69-9.76-5-13.67-2.44-4.22-4.76-7.15-9.12-9.67l25.54-14.85a28.78 28.78 0 0 1 10.16 10.72 27.3 27.3 0 0 1 3.93 12.62z" fill="#fdd6a4"/></g><path data-name="&lt;Tracé&gt;" fill="#67c7ea" d="M102.81 193.59l30.49-17.56-26.68-15.51-30.4 17.69 26.59 15.38z"/><g data-name="&lt;Groupe&gt;"><g data-name="&lt;Groupe&gt;"><path data-name="&lt;Tracé&gt;" fill="#e6f0f4" d="M131.55 174.98l-28.22 16.29.01-2.71 28.21-16.29v2.71z"/><path data-name="&lt;Tracé&gt;" fill="#f5f9fa" d="M131.55 172.27l-28.22 16.29-25.81-14.93 28.21-16.29 25.82 14.93z"/><path data-name="&lt;Tracé&gt;" fill="#dfeef3" d="M103.33 191.27l-25.81-14.93v-2.71l25.82 14.93-.01 2.71z"/></g><path data-name="&lt;Tracé&gt;" fill="#5ebdb0" d="M103.34 188.56l-11.79-6.82v-8.16l18.85.04 2.36-6.84 11.77 1.43 7.02 4.06-28.21 16.29z"/><path data-name="&lt;Tracé&gt;" d="M102.81 164.77c-1.44.83-1.44 2.17 0 3a5.75 5.75 0 0 0 5.2 0c1.44-.83 1.44-2.17 0-3a5.74 5.74 0 0 0-5.2 0z" fill="#fed951"/><path data-name="&lt;Tracé&gt;" fill="#1baf90" d="M103.33 191.27l.01-2.71-11.79-6.82v2.72l11.78 6.81z"/><path data-name="&lt;Tracé&gt;" fill="#40b59d" d="M103.34 188.56l28.21-16.29v2.71l-28.22 16.29.01-2.71z"/></g><path data-name="&lt;Tracé&gt;" fill="#67c7ea" d="M144.15 217.45l30.5-17.56-26.69-15.51-30.4 17.69 26.59 15.38z"/><g data-name="&lt;Groupe&gt;"><g data-name="&lt;Groupe&gt;"><path data-name="&lt;Tracé&gt;" fill="#e6f0f4" d="M172.89 198.84l-28.21 16.29v-2.71l28.21-16.29v2.71z"/><path data-name="&lt;Tracé&gt;" fill="#f5f9fa" d="M172.89 196.13l-28.21 16.29-25.82-14.93 28.21-16.29 25.82 14.93z"/><path data-name="&lt;Tracé&gt;" fill="#dfeef3" d="M144.68 215.13l-25.82-14.93v-2.71l25.82 14.93v2.71z"/></g><path data-name="&lt;Tracé&gt;" fill="#5ebdb0" d="M144.68 212.42l-11.78-6.82v-8.16l18.84.04 2.36-6.83 11.77 1.42 7.02 4.06-28.21 16.29z"/><path data-name="&lt;Tracé&gt;" d="M144.15 188.63c-1.44.83-1.44 2.17 0 3a5.75 5.75 0 0 0 5.2 0c1.44-.83 1.44-2.17 0-3a5.74 5.74 0 0 0-5.2 0z" fill="#fed951"/><path data-name="&lt;Tracé&gt;" fill="#1baf90" d="M144.68 215.13v-2.71l-11.78-6.82v2.72l11.78 6.81z"/><path data-name="&lt;Tracé&gt;" fill="#40b59d" d="M144.68 212.42l28.21-16.29v2.71l-28.21 16.29v-2.71z"/></g><path data-name="&lt;Tracé&gt;" d="M305.35 114.09c-8.91 4.22-22.9 4.48-31.26.59s-7.85-10.46 1.13-14.68 23-4.48 31.26-.59 7.78 10.47-1.13 14.68z" fill="#67c7ea"/><g data-name="&lt;Groupe&gt;"><g data-name="&lt;Groupe&gt;"><path data-name="&lt;Tracé&gt;" d="M306.71 99.2c.61-.06 6.12-.86 11.68-9.11 2.64-3.92 4.76-11.11 3.46-16.71a9.19 9.19 0 0 0-4.24-6.14c-5.9-3.4-11 .27-12.93 2.69l3.59 2.82-1.8-1.41 1.79 1.42c.32-.39 3.21-3.79 7.06-1.56a4.72 4.72 0 0 1 2.08 3.22c.92 4-.7 10-2.8 13.13-4.33 6.43-8.33 7.12-8.36 7.12z" fill="#fff"/></g><path data-name="&lt;Tracé&gt;" d="M266.52 65.7l46.07.14-4.19 36.9c0 2.76-1.87 5.51-5.51 7.61-7.36 4.25-19.29 4.25-26.64 0-3.66-2.11-5.49-4.88-5.51-7.65z" fill="#f1f9fc"/><path data-name="&lt;Tracé&gt;" d="M305.88 55.56c9 5.2 9 13.64 0 18.84s-23.62 5.2-32.63 0-9-13.64 0-18.84 23.62-5.2 32.63 0z" fill="#fff"/><g data-name="&lt;Ecrêter le groupe&gt;"><path data-name="&lt;Masque&gt;" d="M289.56 75.26a30.11 30.11 0 0 0 14.79-3.49c3.33-1.92 5.24-4.39 5.24-6.78s-1.91-4.86-5.24-6.79a33.06 33.06 0 0 0-29.59 0c-3.33 1.92-5.24 4.39-5.24 6.79s1.91 4.86 5.24 6.78a30.11 30.11 0 0 0 14.8 3.49z" fill="#cde3ea"/><g clip-path="url(#a)"><path data-name="&lt;Tracé&gt;" d="M289.56 81.4a30.11 30.11 0 0 0 14.79-3.49c3.33-1.92 5.24-4.39 5.24-6.78s-1.91-4.86-5.24-6.79a33.06 33.06 0 0 0-29.59 0c-3.33 1.92-5.24 4.39-5.24 6.79s1.91 4.86 5.24 6.78a30.11 30.11 0 0 0 14.8 3.49z" fill="#57383a"/></g></g></g><path data-name="&lt;Tracé&gt;" d="M296.73 63.09c-5.86-.5-15.07.92-17.58 4.27s7 6.62 7 6.62-9.8-.59-12.31-4.52 12.25-8.88 22.89-6.37z" fill="#805c60"/><path data-name="&lt;Tracé&gt;" d="M296.08 197.38c-11.72 4.88-30.12 5.18-41.11.68s-10.32-12.1 1.48-17 30.21-5.18 41.11-.68 10.24 12.12-1.48 17z" fill="#67c7ea"/><path data-name="&lt;Tracé&gt;" fill="#fff6e6" d="M223.14 150.01l-5.87 13.23 12.77-6.96-6.9-6.27z"/><path data-name="&lt;Tracé&gt;" fill="#f2e2cc" d="M217.27 163.24l10-9.48 2.78 2.52-12.78 6.96z"/><path data-name="&lt;Tracé&gt;" fill="#191f34" d="M217.27 163.24l1.53-3.46v.87l.6-.44-.15.86.86-.29-.39.7 1.1-.18-3.55 1.94z"/><path data-name="&lt;Tracé&gt;" d="M293.9 86.85l-.83.9-1 1.09-62 67.42a5.93 5.93 0 0 1-4.14-1.31c-1.81-1.36-3-3.47-2.77-4.95l61.75-67.13 1.92-2.08c-1.19 1.42 5.87 7.47 7.07 6.06z" fill="#67c7eb"/><path data-name="&lt;Tracé&gt;" d="M293.06 87.76l-1 1.09-62 67.42a5.93 5.93 0 0 1-4.14-1.31l63.44-68.5z" fill="#3797d1"/><path data-name="&lt;Tracé&gt;" d="M290.73 90.31l-1.86 2c-.52.6-2.11-.17-3.67-1.37-2.07-1.59-4.08-3.91-3.39-4.71l1.38-1.48.49-.53c-.69.8 1.32 3.13 3.39 4.72 1.49 1.15 3 1.91 3.6 1.42z" fill="#fed951"/><path data-name="&lt;Tracé&gt;" d="M290.26 90.8c-1.21 1.4-8.27-4.69-7.06-6.09l1.86-2c-1.21 1.4 5.85 7.49 7.06 6.09z" fill="#1092b3"/><path data-name="&lt;Tracé&gt;" d="M293.9 86.85l-1.84 2c-1.18 1.38-8.05-4.42-7.17-6a.38.38 0 0 1 .06-.09l1.86-2c-1.17 1.45 5.89 7.5 7.09 6.09z" fill="#fed951"/><path data-name="&lt;Tracé&gt;" d="M293.9 86.85l-1.78 1.93-.06.07-1.38 1.5-.41.44-1.39 1.52c-.52.6-2.11-.17-3.67-1.37l1.4-1.51.47-.5 1.33-1.42.08-.09 1.78-1.91.3-.32z" fill="#113242" opacity=".3"/><path data-name="&lt;Tracé&gt;" d="M301.69 78.38l-7.8 8.47c-.51.6-2.09-.16-3.64-1.34-2.08-1.58-4.11-3.91-3.44-4.72l7.5-8.15c1.59-2 5.94.45 7.33 3a2.38 2.38 0 0 1 .05 2.74z" fill="#ee7162"/><path data-name="&lt;Tracé&gt;" d="M301.69 78.38l-7.8 8.47c-.51.6-2.09-.16-3.64-1.34l7.55-8.59s2.17 1.5 3.19 1.16 1.08-1.3.65-2.41a2.38 2.38 0 0 1 .05 2.71z" fill="#dd4c40"/><path data-name="&lt;Tracé&gt;" d="M261.85 94.45s-1.33 3.78-1.14 4 1.44.29 1.44.29z" fill="#f0b99f"/><path data-name="&lt;Tracé&gt;" d="M259.79 94.3l2.36-.14v3.65s-1.47.22-2-.57-.36-2.94-.36-2.94z" fill="#99d3d9" opacity=".3"/><path data-name="&lt;Tracé&gt;" d="M283.87 108.9a28.38 28.38 0 0 1-.79 3.77l-4.76-10.16a3.44 3.44 0 0 1 3.61.17 5.7 5.7 0 0 1 1.88 3.83 10 10 0 0 1 .06 2.39z" fill="#ed6b71"/><path data-name="&lt;Tracé&gt;" d="M283.87 108.9a28.38 28.38 0 0 1-.79 3.77l-4.76-10.16 1.8.54a7.72 7.72 0 0 1 2.54 3.09c1.25 2.37 1.16.36 1.16.36a10 10 0 0 1 .05 2.4z" fill="#dc5763"/><path data-name="&lt;Tracé&gt;" d="M275 102.65l-6 3.12s-1-2.58-1.55-2.8-2.32.32-3.76.31a.68.68 0 0 1-.27-.05c-.87-.32-1.26-2.24-1.41-5.17v-.58c0-.93-.06-1.94-.06-3v-.58c.06-5 2.29-5.48 4.42-6.58a6.19 6.19 0 0 1 6.68.31c2.92 1.89 2.45 6.18 1.86 9.32-.14.77-.29 1.47-.4 2.05-.65 2.89.49 3.65.49 3.65z" fill="#f5d5b8"/><path data-name="&lt;Tracé&gt;" d="M267.72 94.54s.49-1.11 1.31-.55c.64.44.57 1.92-.08 2.8 0 0 .46-1.7-.16-2.23a1 1 0 0 0-1.07-.02zm7.28 8.11l-6 3.12s-1-2.58-1.55-2.8-2.32.32-3.76.31a.68.68 0 0 1-.27-.05 31.75 31.75 0 0 0 3.39-1.45c.7-.45 1.52-3.36 1.52-3.36l6.55-1.49c-.14.77-.29 1.47-.4 2.05-.62 2.91.52 3.67.52 3.67z" fill="#f0b99f"/><path data-name="&lt;Tracé&gt;" d="M293.36 172.18c-1.67 3.37-4.16 3.2-4.16 3.2s-10.2-14.22-10.49-15.45-2-11.07-2-11.07l-3.78 12.58a15.74 15.74 0 0 1 .39 3.37 31.78 31.78 0 0 1-.86 6.64c-1.09 5.17-2 9.42-2 9.42a4.18 4.18 0 0 1-3.13.65 6.36 6.36 0 0 1-2.35-.92s.13-12 0-15.2-.6-4.71-.35-6.82.76-7.3 1.47-12.74 1.8-12.82 1.8-12.82l15.87-3.46s1.66 1.94 1.82 8.92c.13 5.46.62 19.07.62 19.07 2.5 1.57 3.21 3.25 4.4 6.32.75 1.93 1.66 4.56 2.24 6.34a17.85 17.85 0 0 1 .51 1.97z" fill="#1281a6"/><path data-name="&lt;Tracé&gt;" d="M293.36 172.18c-1.67 3.37-4.16 3.2-4.16 3.2s-10.2-14.22-10.49-15.45-2-11.07-2-11.07l1.6-5.37a17.92 17.92 0 0 0 5.23-3.95 22.07 22.07 0 0 1-3.41 4.78v12.31c0 2.63 3.56 8.51 6.94 13.27 3 4.19 5.23 1.13 5.74.32a17.85 17.85 0 0 1 .55 1.96z" fill="#0e557b"/><g data-name="&lt;Groupe&gt;"><path data-name="&lt;Tracé&gt;" d="M276.53 90.18c-.59-1.63-1.63-1.82-1.63-1.82a3.84 3.84 0 0 0-2.9-2.86c-2.69-.84-2.77.27-5.6.06s-2.38-4.45-3.64-2.94.17 4.59.17 4.59A10.16 10.16 0 0 1 260.1 86c-1-.75-2.45-1.48-1.29 1.44a4.92 4.92 0 0 0 4.11 3.06 5.38 5.38 0 0 0 2.44 2.15s-.05.38-.08 1v1.04c0 1.21.36 1.92.9 1.7s.62-1.58.88-2.26a1.78 1.78 0 0 1 .1-.21 3.31 3.31 0 0 1 .51-.41c1.18-.74 2.09.08 2.44 1.14a3.73 3.73 0 0 1-.78 3.15c-.49.71-1 .58-1 .58.15 3.54 2.1 4.48 2.24 3.85s.25-1.85.25-1.85a2.5 2.5 0 0 0 .53.82c.68.65 1.8.43 1.7-.39 0-.27-.11-.8-.11-.8a4.84 4.84 0 0 0 .67.89c.39.31 1.18-.08 1.3-.94a13.29 13.29 0 0 1 .67-2.33c.55-1.88 1.54-5.82.95-7.45z" fill="#154454"/><path data-name="&lt;Tracé&gt;" d="M265.28 93.67l-3.43.2-2.36.14v.25a11.12 11.12 0 0 0 .17 2.77c.23.9 1.25 1 1.88 1h.42v-.58c-.23 0-1.52.13-1.71-.59a9.6 9.6 0 0 1-.17-2.33l1.81-.1 3.41-.2 1.78-.1a1.78 1.78 0 0 1 .1-.21 3.31 3.31 0 0 1 .51-.41z" fill="#e6374c"/></g><path data-name="&lt;Tracé&gt;" d="M267 107.71c-.94.6-3.61 1.89-4.22 3.59s1.05 7.42 2.63 10.1a17.55 17.55 0 0 1 2.48 6.43 20.77 20.77 0 0 1-.23 4.86c-.08.8 4.84 2.47 10.1.68s6.27-3.66 6.21-4.93a99.43 99.43 0 0 1-.79-11c.06-4.93-.35-10.47-2-13.16s-3.52-1.72-4.84-1-9.34 4.43-9.34 4.43z" fill="#f0818d"/><path data-name="&lt;Tracé&gt;" d="M289.63 176.71zm9.65-.17s-.31 10.35-.25 10.6-3.9 2.53-5.5 3.4l-.27.13a2.52 2.52 0 0 1-2.59-.61 4.41 4.41 0 0 1 1.08-4.85s.2 0 .16-1.55 0-4.09-.41-4.64a24.91 24.91 0 0 0-1.81-2.29l3.33-2.3 1.82-1.26c1.41 1.3 1.78 1.2 3.3 1.95s1.14 1.42 1.14 1.42z" fill="#0d6877"/><path data-name="&lt;Tracé&gt;" d="M294.7 188.19c-.47 1.27-.83 2.11-1.45 2.48a2.52 2.52 0 0 1-2.59-.61 4.41 4.41 0 0 1 1.08-4.85s.2 0 .16-1.55 0-4.09-.41-4.64a24.91 24.91 0 0 0-1.81-2.29l3.33-2.3c.64.41 1.42 1 1.48 1.83.09 1.36.24 1.87 1.44 2.49.98.54-.45 7.36-1.23 9.44z" fill="#154454" opacity=".3"/><circle data-name="&lt;Tracé&gt;" cx="292.54" cy="186.11" r=".42" fill="#fef9d5"/><circle data-name="&lt;Tracé&gt;" cx="292.78" cy="184.07" r=".42" fill="#fef9d5"/><circle data-name="&lt;Tracé&gt;" cx="292.89" cy="181.31" r=".42" fill="#fef9d5"/><path data-name="&lt;Tracé&gt;" d="M291.72 185.22a5.56 5.56 0 0 0-.52.75 5.58 5.58 0 0 0-.56 4.11c-2.8-.25-3.53-1.87-3.53-1.87a2.69 2.69 0 0 1 1.45-2.41 3.83 3.83 0 0 1 .61-.32 4.1 4.1 0 0 1 2.55-.26z" fill="#f2f3fb"/><path data-name="&lt;Tracé&gt;" d="M290.64 190.07c-2.8-.25-3.53-1.87-3.53-1.87a2.69 2.69 0 0 1 1.45-2.41 3.83 3.83 0 0 1 .61-.32c-.22.16-1.24 1.23-.92 2s1.82-.92 2.95-1.49a5.58 5.58 0 0 0-.56 4.09z" fill="#dee3f4"/><path data-name="&lt;Tracé&gt;" d="M300.38 176.92c.74.28.55 2.3.08 4.25s-.72 2.62-.48 4.24.37 2.34-.29 2.94a64.71 64.71 0 0 1-5.91 3 19.29 19.29 0 0 0 1.17-6.08c.14-3.58.38-5.89 2-7.52a3.15 3.15 0 0 1 3.43-.83z" fill="#be735a"/><path data-name="&lt;Tracé&gt;" d="M287.11 188.2a9.78 9.78 0 0 0 4.38 1.91c2.34.27 2.46-.63 2.7-3.41s.34-6.61 1.43-8.3 2.93-2.44 3.65-2.27c.15-.08.87.46 1.1.78a4 4 0 0 0-3.07 1.23c-1.46 1.43-1.73 4.45-1.8 7.19s-.19 5.92-2.37 6.26a8 8 0 0 1-6-1.81 1.11 1.11 0 0 1-.02-1.58zm-25.03-3.2l-.12.09-5.76 4.38c-3.76-.58-3.79-2-3.79-2a2.88 2.88 0 0 1 .12-.62c-.1-1.19.58-2.53 2.54-3.2a7.48 7.48 0 0 1 1.12-.28c4.07-.77 5.89 1.63 5.89 1.63z" fill="#f2f3fb"/><path data-name="&lt;Tracé&gt;" d="M262 185.08l-5.76 4.38c-3.76-.58-3.79-2-3.79-2a2.88 2.88 0 0 1 .12-.62c-.1-1.19.58-2.53 2.54-3.2a2.17 2.17 0 0 0-.75 3.46c.86.73 4.73-2.92 7.64-2.02z" fill="#dee3f4"/><path data-name="&lt;Tracé&gt;" d="M271.2 189.33s-2.48 2.33-4.88 2.37-3.09-.89-5.76-1.52a27.69 27.69 0 0 0-4.36-.72 3.87 3.87 0 0 1 .1-.47c.32-1.19 1.6-4.19 6.21-4a1.92 1.92 0 0 0 1.41-.93 7.73 7.73 0 0 0 .61-2l2.76.09 3.57.12a18.56 18.56 0 0 0 .19 3.14 14.87 14.87 0 0 1 .15 3.92z" fill="#0d6877"/><path data-name="&lt;Tracé&gt;" d="M271.2 189.33s-2.48 2.33-4.88 2.37-3.09-.89-5.76-1.52a27.69 27.69 0 0 0-4.36-.72 3.87 3.87 0 0 1 .1-.47 15.94 15.94 0 0 1 5.42 0c2.15.57 3.27 1 4.53.65 2.6-.71 1.72-2.94 1.67-4.44a7.22 7.22 0 0 1 .22-3.06l2.72.12a18.56 18.56 0 0 0 .19 3.14 14.87 14.87 0 0 1 .15 3.93z" fill="#154454" opacity=".3"/><circle data-name="&lt;Tracé&gt;" cx="263.41" cy="186.39" r=".42" fill="#fef9d5"/><circle data-name="&lt;Tracé&gt;" cx="259.27" cy="186.65" r=".42" fill="#fef9d5"/><circle data-name="&lt;Tracé&gt;" cx="261.36" cy="186.8" r=".42" fill="#fef9d5"/><path data-name="&lt;Tracé&gt;" d="M271.2 189.6a7.27 7.27 0 0 1-5.11 1.7c-3.26-.12-4.2-1.43-7-1.76s-5.1-.2-6.56-2.47c0 0-.23-.08-.26 1s1.51 2.16 3.4 2.45 3.89 0 5.82 1a9.89 9.89 0 0 0 4.49 1.33 9.49 9.49 0 0 0 5.15-1.78c.5-1.18.07-1.47.07-1.47z" fill="#be735a"/><path data-name="&lt;Tracé&gt;" d="M271.2 189.32a7.27 7.27 0 0 1-5.11 1.7c-3.26-.12-4.2-1.43-7-1.76s-5.1-.2-6.56-2.47c0 0-.23-.08-.26 1s1.51 2.16 3.4 2.45 3.89 0 5.82 1a9.89 9.89 0 0 0 4.49 1.33 9.49 9.49 0 0 0 5.15-1.78c.5-1.17.07-1.47.07-1.47z" fill="#f2f3fb"/><path data-name="&lt;Tracé&gt;" d="M276.82 104.26c-.15.23-1.48 2.06-5.36 2.75-1.44.25-2.45 0-4.44.68a5.73 5.73 0 0 1 1.85-3.23 16.75 16.75 0 0 1 3.82-2.35c1-.45 1.67-.74 1.67-.74s.77-.67 1.45.75z" fill="#ed6b71"/><g data-name="&lt;Groupe&gt;"><path data-name="&lt;Tracé&gt;" d="M264.15 121c-1.84 2.89-6.3 10-7.56 10.87-1 .7-5.18 1.08-7.42 1.19s-3.17.27-5.09.43-4.27-1.62-4.27-1.62l-2.49 2.7a2.43 2.43 0 0 1 .4-2.39c.92-1.38 2.44-4 4.09-3.72s2.65 1.46 6.31-.06a18.57 18.57 0 0 1 5-1.29s3.78-7.13 6.1-10.87a12.39 12.39 0 0 1 3.48-4.1 2.29 2.29 0 0 1 2.45 0c3.04 1.72.85 5.98-1 8.86z" fill="#f5d5b8"/><path data-name="&lt;Tracé&gt;" d="M264.15 121c-1.84 2.89-6.3 10-7.56 10.87-1 .7-5.18 1.08-7.42 1.19s-3.17.27-5.09.43-4.27-1.62-4.27-1.62l-2.49 2.7c.11-.19 2-3.69 3.34-4s2.44 1.24 4.58 1.32a46.9 46.9 0 0 0 10-1.51c1-.47 2.42-3.2 6.59-9.68s2.18-8.54.81-8.56a2.29 2.29 0 0 1 2.45 0c3.1 1.72.91 5.98-.94 8.86z" fill="#f0b99f"/><path data-name="&lt;Tracé&gt;" d="M266.52 117.91a48.25 48.25 0 0 1-3.14 5.72c-.58.56-1.86.33-3.19-.31-2.28-1.11-4.69-3.46-3.9-5.24 0 0 3-4.34 4.41-5.91 1.11-1.23 2.42-2.24 4-1.76a4.26 4.26 0 0 1 1.41.75c2.34 1.78 1.31 4.53.41 6.75z" fill="#ed6b71"/></g><path data-name="&lt;Tracé&gt;" d="M271.7 178.78l-.49 3.45c-.78 1.14-4.72 1-6.34.05a1.24 1.24 0 0 1-.67-.75v-3.29a.36.36 0 0 1 .48-.34 11.9 11.9 0 0 0 6.6.5.36.36 0 0 1 .42.38z" fill="#049dc0"/><path data-name="&lt;Tracé&gt;" d="M271.7 178.78l-.49 3.45c-.78 1.14-4.72 1-6.34.05 1.07.41 3.64.15 4.12-.55s-2.41-1.68-3.62-2.5-1.13-1-.53-.65a9.76 9.76 0 0 0 5 .73c1.85-.32 1.64-.8 1.42-.92a.36.36 0 0 1 .44.39z" fill="#0186ab"/><path data-name="&lt;Tracé&gt;" d="M287.09 173.71l1.91 2.89c1.2.68 4.67-1.18 5.73-2.71a1.24 1.24 0 0 0 .28-1l-1.41-3a.36.36 0 0 0-.58-.1 11.9 11.9 0 0 1-5.72 3.32.36.36 0 0 0-.21.6z" fill="#049dc0"/><path data-name="&lt;Tracé&gt;" d="M287.09 173.71l1.91 2.89c1.2.68 4.67-1.18 5.73-2.71-.78.83-3.21 1.72-4 1.3s1.44-2.56 2.17-3.83.58-1.4.19-.82a9.76 9.76 0 0 1-4.16 2.82c-1.81.52-1.82 0-1.68-.21a.36.36 0 0 0-.16.56z" fill="#0186ab"/><path data-name="&lt;Tracé&gt;" d="M266.52 117.91a48.25 48.25 0 0 1-3.14 5.72c-.58.56-1.86.33-3.19-.31a70.38 70.38 0 0 0 4.55-7.38c1.6-3.2 1.15-5 0-5.53a4.26 4.26 0 0 1 1.41.75c2.3 1.78 1.27 4.53.37 6.75zm10.29-13.62c-.15.23-1.48 2.06-5.36 2.75-1.44.25-2.45 0-4.44.68a5.73 5.73 0 0 1 1.85-3.23 16.75 16.75 0 0 1 3.82-2.35 2.78 2.78 0 0 0-1 3.32c.45.54 3.83.26 5.13-1.17z" fill="#dc5763"/><path data-name="&lt;Tracé&gt;" d="M262.88 184.89a3.49 3.49 0 0 0-3.87 1.73s.16.23.52 0a7.32 7.32 0 0 1 3.35-1.73z" fill="#1092b3"/><path data-name="&lt;Tracé&gt;" d="M263.36 184.69s-1.7-.18-2.14 2.08c0 0 .07.41.43-.1a4.2 4.2 0 0 1 1.71-1.98z" fill="#1092b3"/><path data-name="&lt;Tracé&gt;" d="M263.23 186.43a4 4 0 0 1 .18-2.08c.41-.63.67-.6.67-.6a6.76 6.76 0 0 0-.52 2.59c.01.2-.31.25-.33.09zm28.65-2.23a.77.77 0 0 0-.32.51 1.57 1.57 0 0 0 .79 1.44c.29.17.55.1.07-.48a3 3 0 0 1-.54-1.47zm-.04-1.93a.67.67 0 0 0-.2.42 2.4 2.4 0 0 0 1 1.51c.51.23.24-.34 0-.6a10.26 10.26 0 0 1-.8-1.33zm-.13-2.13a.47.47 0 0 0-.24.34c0 .22 1 1 1.37 1s.41-.13 0-.41-1.13-.93-1.13-.93z" fill="#1092b3"/></g></g></svg>