<svg xmlns="http://www.w3.org/2000/svg" xmlns:xlink="http://www.w3.org/1999/xlink" viewBox="0 0 2560 1440"><defs><linearGradient id="a" x1="280" y1="1720" x2="2280" y2="-280" gradientUnits="userSpaceOnUse"><stop offset="0" stop-color="#e96443"/><stop offset="1" stop-color="#6d3c95"/></linearGradient><linearGradient id="d" x1="517.26" y1="648.33" x2="842.52" y2="323.07" xlink:href="#a"/><linearGradient id="e" x1="1701.44" y1="63.44" x2="1795.9" y2="-31.02" xlink:href="#a"/><linearGradient id="f" x1="0" y1="720" x2="2560" y2="720" xlink:href="#a"/><linearGradient id="g" x1="2103.91" y1="257.45" x2="2560" y2="257.45" xlink:href="#a"/><linearGradient id="h" x1="200" y1="1087.48" x2="2560" y2="1087.48" xlink:href="#a"/><linearGradient id="b" x1="1691.69" y1="1042.87" x2="1779.09" y2="955.47" gradientTransform="rotate(19.74 1735.092 998.919)" gradientUnits="userSpaceOnUse"><stop offset="0" stop-color="#ff7c2b"/><stop offset="1" stop-color="#ffe253"/></linearGradient><linearGradient id="i" x1="1560.33" y1="1174.23" x2="1910.44" y2="824.12" xlink:href="#b"/><linearGradient id="j" x1="2032.72" y1="281.6" x2="2196.17" y2="118.14" gradientTransform="rotate(19.74 2114.03 199.759)" gradientUnits="userSpaceOnUse"><stop offset="0" stop-color="#522bff"/><stop offset="1" stop-color="#ff53d6"/></linearGradient><linearGradient id="c" y1="1008.81" x2="2428.11" y2="1008.81" gradientUnits="userSpaceOnUse"><stop offset="0" stop-color="#f7711e"/><stop offset="1" stop-color="#ffd200"/></linearGradient><linearGradient id="k" x1="1111.85" y1="894.74" x2="1244.11" y2="894.74" xlink:href="#c"/><linearGradient id="l" x1="1152.9" y1="884.44" x2="1223.65" y2="884.44" xlink:href="#c"/><linearGradient id="m" x1="1159.32" y1="76.27" x2="1272.88" y2="-37.3" xlink:href="#a"/><linearGradient id="n" x1="2230.75" y1="978.16" x2="2489.25" y2="719.65" xlink:href="#a"/><linearGradient id="o" x1="139.33" y1="148.18" x2="359.98" y2="-72.47" xlink:href="#a"/><linearGradient id="p" x1="1155.32" y1="639.83" x2="1191.74" y2="603.41" xlink:href="#a"/><linearGradient id="q" x1="201.08" y1="1641.08" x2="934.94" y2="907.22" xlink:href="#c"/><linearGradient id="r" x1="2619.64" y1="1389.96" x2="2314.88" y2="1026.77" xlink:href="#c"/><linearGradient id="s" x1="1210.53" y1="492.02" x2="1288.59" y2="492.02" xlink:href="#c"/></defs><g style="isolation:isolate"><path fill="url(#a)" d="M0 0h2560v1440H0z"/><circle cx="679.89" cy="485.7" r="230" opacity=".5" fill="url(#d)"/><path d="M1748.67 78.25A78.26 78.26 0 0 0 1826.93 0h-156.51a78.26 78.26 0 0 0 78.25 78.25z" opacity=".5" fill="url(#e)"/><path d="M1451.31 0c-38.72 70.94-33.45 147.46 33.9 211.17C1629.61 347.76 1995.22 387.74 2082 539c53.29 92.85-30.32 198.95-170 256.8s-323.13 73.49-495.84 64.4-338.75-40.65-504.42-69.56S576.12 735 402.67 736.22c-139.86 1-278.35 21.42-402.67 57.4V1440h2560V0z" style="mix-blend-mode:screen" opacity=".2" fill="url(#f)"/><g style="mix-blend-mode:screen" opacity=".2"><path d="M2320.14 0q-20.93 7.65-40.78 16.79C2118.93 91 2047.22 251.2 2155.78 359.42c88.57 88.3 251.43 116.08 404.22 155.48V0z" fill="url(#g)"/><path d="M2272.27 1246.16c-349.55 23.59-712.07-58.37-968-218.85-141.88-89-257-202.73-433.21-258.05-180.49-56.66-401.12-39.74-574.56 26a889.73 889.73 0 0 0-96.5 43.25V1440h2360v-241.25c-90.94 25.79-189.16 40.76-287.73 47.41z" fill="url(#h)"/></g><circle cx="1735.39" cy="999.17" r="61.78" transform="rotate(-19.74 1735.003 999.038)" fill="url(#b)"/><path d="M1695.38 995.28a61.48 61.48 0 0 1 .88-43.85 61.74 61.74 0 1 0 96.4 70.74 61.64 61.64 0 0 1-97.28-26.88z" opacity=".2"/><path d="M1777.57 954.15q1.43 1.34 2.78 2.78c100.38-33.17 177.68-50.29 181.7-39.07 4.72 13.15-92.94 60.21-218.13 105.12s-230.49 70.66-235.2 57.52c-4-11.22 66.51-47.13 165.06-85.33.09-1.31.19-2.61.36-3.9-116.43 44.61-200.79 87.18-196.11 100.24 5.35 14.93 124.91-14.31 267-65.3s253-104.43 247.65-119.35c-4.68-13.08-96.85 7.7-215.11 47.29z" style="mix-blend-mode:screen" fill="url(#i)"/><path d="M1703.83 1052.29c1.37.81 2.79 1.54 4.23 2.25q20.54-7 41.94-14.64t41.69-15.36c.66-1.45 1.29-2.92 1.83-4.42-14.39 5.51-29.32 11-44.68 16.56s-30.4 10.71-45.01 15.61z" opacity=".2"/><circle cx="2114.44" cy="199.87" r="115.55" transform="rotate(-19.74 2114.01 199.91)" fill="url(#j)"/><path d="M2039.63 192.59a115 115 0 0 1 1.64-82 115.48 115.48 0 1 0 180.3 132.3 115.29 115.29 0 0 1-181.94-50.28z" opacity=".2"/><path d="M2219.61 1113.19a208.07 208.07 0 0 0-162.45 77.81 281.72 281.72 0 0 0-177-62.25c-156.26 0-282.93 126.67-282.93 282.93 0 3.09.07 6.17.17 9.24a152.54 152.54 0 0 0-109.27-46c-2 0-4 .07-5.94.15-24-106.3-119-185.7-232.56-185.7a240.21 240.21 0 0 0-37.06 2.88c-37.53-99.69-16.26-216.47 64-296.69l15.25-15.25-101.14-100.98-15.25 15.25c-103.16 103.16-266.8 108.91-376.76 17.34C758.65 695 647.84 611 517.4 611a296.06 296.06 0 0 0-120.22 25.37A355.42 355.42 0 0 0 0 640.24V1440h2391.3a207.52 207.52 0 0 0 36.81-118.31c0-115.15-93.35-208.5-208.5-208.5z" fill="url(#c)"/><path d="M1210.26 862.46c.43-13.33-7.4-27.08-19.71-32.22s-26.82 2.9-38.11 10a62.23 62.23 0 0 0-25.44 32.18 17.75 17.75 0 0 1 8.8-3.73 125.6 125.6 0 0 0-21.41 40.6l8.77-6.58a64.72 64.72 0 0 0-8.46 55.34 64.72 64.72 0 0 0 55.3-8.45l-6.58 8.77A125.6 125.6 0 0 0 1204 937a17.75 17.75 0 0 1-3.73 8.8 62.22 62.22 0 0 0 32.17-25.48c7.11-11.29 15.14-25.8 10-38.11s-18.85-20.21-32.18-19.75z" style="mix-blend-mode:multiply" fill="url(#k)"/><path d="M1205.55 867.18c.23-7.13-4-14.49-10.54-17.23s-14.35 1.55-20.39 5.35a33.29 33.29 0 0 0-13.62 17.2 9.5 9.5 0 0 1 4.71-2 67.18 67.18 0 0 0-11.45 21.72l4.69-3.52a34.62 34.62 0 0 0-4.52 29.6 34.62 34.62 0 0 0 29.6-4.52l-3.52 4.69a67.18 67.18 0 0 0 21.7-11.47 9.5 9.5 0 0 1-2 4.71 33.29 33.29 0 0 0 17.21-13.63c3.8-6 8.1-13.8 5.35-20.39s-10.09-10.75-17.22-10.51z" style="mix-blend-mode:multiply" fill="url(#l)"/><path fill="#fff" d="M1492.095 579.24l126.07-126.07 2.037 2.036-126.07 126.07z"/><path fill="#00cce1" d="M1087.57 749.17l113.82 57.53 92.39-126.15-185.69-1.15-20.52 69.77z"/><ellipse cx="1099.25" cy="709.99" rx="64.4" ry="10.27" transform="rotate(-67.49 1099.27 709.983)" fill="#00cce1"/><ellipse cx="1099.25" cy="709.99" rx="64.4" ry="10.27" transform="rotate(-67.49 1099.27 709.983)" opacity=".2"/><path fill="#00cce1" d="M1266.7 872.01l57.53 113.83 69.78-20.52-1.16-185.7-126.15 92.39z"/><ellipse cx="1363.42" cy="974.16" rx="64.4" ry="10.27" transform="rotate(-22.51 1363.286 974.09)" fill="#00cce1"/><ellipse cx="1363.42" cy="974.16" rx="64.4" ry="10.27" transform="rotate(-22.51 1363.286 974.09)" opacity=".2"/><path d="M1146.92 779.17l54.48 27.53 92.39-126.15-65.91-.41a781.85 781.85 0 0 0-80.96 99.03zM1266.7 872l25.57 50.59a784.88 784.88 0 0 0 101-83.1l-.37-59.88z" opacity=".2"/><path d="M1240.41 729.88c-33.46 33.46-60.23 69-78.81 102.52q17.77 21.16 38 41.43t41.43 38c33.57-18.59 69.06-45.36 102.52-78.81 74.7-74.7 116.18-159.58 107.27-210.39-50.82-8.93-135.72 32.56-210.41 107.25z" fill="#4d4d4d"/><path d="M1266.47 674.37c-43 43-77.43 88.65-101.33 131.8q22.85 27.2 48.83 53.27t53.27 48.83C1310.39 884.37 1356 850 1399 806.94c96-96 149.37-205.16 137.91-270.48-65.28-11.46-174.41 41.88-270.44 137.91z" fill="#fff"/><path d="M1185 828.95q14 15.45 28.93 30.49t30.49 28.93c30.81-26.13 63.33-56.05 96.11-88.84 108-108 185.4-213.46 196.38-263.08-49.61 11-155 88.34-263.08 196.38-32.74 32.78-62.66 65.31-88.83 96.12z" opacity=".1"/><ellipse cx="1231.33" cy="842.07" rx="69.2" ry="10.65" transform="rotate(-45 1231.33 842.077)" fill="#00cce1"/><circle cx="1399.8" cy="673.61" r="54.2" transform="rotate(-45 1399.796 673.605)" fill="#ff5844"/><circle cx="1399.8" cy="673.61" r="44.32" transform="rotate(-45 1399.796 673.605)" opacity=".2"/><circle cx="1399.8" cy="673.61" r="38.33" transform="rotate(-45 1399.796 673.605)" fill="#94ddff"/><path d="M1431 682.31a38.29 38.29 0 0 1-65.37-25.93 38.31 38.31 0 1 0 72.49 16.05 38.23 38.23 0 0 1-7.12 9.88z" opacity=".1"/><circle cx="1421.19" cy="655.55" r="7.52" transform="rotate(-45 1421.19 655.554)" fill="#fff"/><circle cx="1411.38" cy="645.74" r="3.26" transform="rotate(-45 1411.383 645.736)" fill="#fff"/><path d="M1216.1 94.08A94.08 94.08 0 0 0 1310.18 0H1122a94.08 94.08 0 0 0 94.1 94.08z" opacity=".5" fill="url(#m)"/><circle cx="2360" cy="848.9" r="182.79" opacity=".5" fill="url(#n)"/><path d="M249.66 182.79A182.79 182.79 0 0 0 432.45 0H66.87a182.79 182.79 0 0 0 182.79 182.79z" opacity=".5" fill="url(#o)"/><circle cx="1173.53" cy="621.62" r="25.75" opacity=".5" fill="url(#p)"/><path d="M1241.65 1319.09a253.61 253.61 0 0 0-200.28 97.81 192.21 192.21 0 0 0-86.34-80 386.35 386.35 0 0 0 8.85-82.33c0-212.63-172.37-385-385-385a388.36 388.36 0 0 0-49 3.11A474.35 474.35 0 0 0 0 786.34V1440h1458c-44.74-72.53-124.87-120.91-216.35-120.91z" fill="url(#q)"/><path d="M2560 856.25c-179.66 67.39-307.54 240.72-307.54 443.93a473.87 473.87 0 0 0 21 139.82H2560z" fill="url(#r)"/><path d="M1322.65 461.45a.63.63 0 0 1-.25-.05l-65.63-29a.63.63 0 0 1 .51-1.15l65.63 29a.63.63 0 0 1-.25 1.2z" fill="#003870"/><path d="M1259 433.38a12.06 12.06 0 0 1-3.19 7.57c-2.51 2.83-5.87 4.73-9 6.86s-6.19 4.69-7.6 8.2c-2.7 6.74 1.51 14.28.87 21.51-.5 5.69-4 10.69-8 14.76s-8.63 7.52-12.34 11.86a38.33 38.33 0 0 0-2.54 46.53c-2.92-13.15 2.71-27.9 13.55-35.88 6.12-4.51 13.59-6.94 19.55-11.65a32.1 32.1 0 0 0 11.7-19.87c1-6.39.22-13.41 3.7-18.87 3-4.66 8.38-7 13.25-9.63 3.78-2 7.65-4.69 9.66-8.31z" fill="url(#s)"/><path d="M1245.43 589.19a4.19 4.19 0 0 0 .65 3.26 21.55 21.55 0 0 1 1.73 3 3.06 3.06 0 0 1-.39 3.22 3.71 3.71 0 0 1-3.22 4.28 5.15 5.15 0 0 1-4.82-3.08 8.44 8.44 0 0 1-.18-6 25.1 25.1 0 0 1 2.67-5.45 13.16 13.16 0 0 1 3.56.77zm65.87-126.65a3 3 0 0 0-.25-2.4 15.67 15.67 0 0 1-1.06-2.25 2.22 2.22 0 0 1 .5-2.3 2.69 2.69 0 0 1 2.61-2.88 3.74 3.74 0 0 1 3.28 2.55 6.14 6.14 0 0 1-.26 4.32 18.24 18.24 0 0 1-2.29 3.77 9.56 9.56 0 0 1-2.53-.81z" fill="#ffce3a"/><path d="M1340.89 582.32q-25.6-7.78-51.56-14.27c-2.28 1-4.16 1.37-4.84 3.76a18.16 18.16 0 0 0-.23 7.41 22.86 22.86 0 0 0 3.11 9.34c1.79 2.78-1.77 5.51 1.54 5.52 14.26 0 34.46 1.34 48.85 3.64-1 22.37 8.08 33.49 14.3 50.19l5.11-7.78c-3.17-20.73-7.89-18.54-3.75-41 2.84-14.86-12.53-16.81-12.53-16.81z" fill="#003870"/><path d="M1274.57 503.77a21.71 21.71 0 0 0 17.73-8.93c1.51-2.11 2.65-4.65 2.34-7.22s-2.51-5-5.09-4.89c-2.13.11-3.81 1.78-5.29 3.31-2.15 2.23-4.63 4.52-7.72 4.76-2.28.18-4.58-.83-6.83-.42a7.22 7.22 0 0 0-4.7 3.54 16.44 16.44 0 0 0-1.87 5.73c-.86 5-1.38 10.4 2.05 14.12a12.73 12.73 0 0 0 13.94 3c-2.7-3.54-4.93-8.54-4.56-13z" fill="#0089d7"/><path d="M1275.77 565.16a502.66 502.66 0 0 1-29.48 115.1l10.78.07c18.53-36.12 36.05-74.69 44.2-114.46-8.17-1.79-17.27-2.5-25.5-.71z" fill="#003870"/><path d="M1307.37 572.74c-2.39-.64-4.77-1.28-7.16-1.91.32-1.42.64-2.85.94-4.28-1.37-.53-2.79-1-4.27-1.43a63 63 0 0 0-16.12-.65 18.05 18.05 0 0 0-5.08 2.44l-.16.12q-1.1 8.07-2.47 16.1a62.36 62.36 0 0 0 34.32-10.39z" opacity=".3"/><path d="M1274.18 522.73c-4.54 3.16-5.32 10.11-5.26 16.09a148.19 148.19 0 0 0 4.75 35.93c11.32-.77 23.91-1.55 35.23-2.32.18-13.66-3.56-27.26-8.74-39.62a37.39 37.39 0 0 0-6.49-11c-2.83-3.08-6.62-5.25-10.57-5.15s-7.64 1.89-8.92 6.07z" fill="#ff792b"/><path d="M1283.73 521.51a136.57 136.57 0 0 0 26.78-60.51 3.89 3.89 0 0 1 4.38 1.6 174.14 174.14 0 0 1-18.6 67.47c-4.72-.94-9.09-5.21-12.56-8.56zm-4.84-4.96a80.72 80.72 0 0 0-38.18 73.78 8.77 8.77 0 0 0 5.21.54 88.42 88.42 0 0 1 33.08-54.54 30 30 0 0 0-.11-19.78z" fill="#ff792b"/><path d="M1280.17 534.84c3.48-.15 7-2.36 8-5.71.73-2.5.07-5.33 1.24-7.66s4.05-3.61 5.45-5.92c1.89-3.12.64-7.11.08-10.86a135.94 135.94 0 0 1-8 12.57 11.22 11.22 0 0 0-3.81-.61 11.59 11.59 0 0 0-3.94.77c-.09-.29-.17-.58-.27-.86a80.43 80.43 0 0 0-12.71 9.73 30.79 30.79 0 0 0 4.47 4.86 14.21 14.21 0 0 0 9.49 3.69z" opacity=".2"/><path d="M1274.21 514.09a28.74 28.74 0 0 1 1.91 7.74 9.61 9.61 0 0 0 7-3.37 53.89 53.89 0 0 0-3.11-6.12c-2.27.08-4.06.26-5.8 1.75z" fill="#ffce3a"/><path d="M1280 512.33c-2.29.08-4.09.27-5.83 1.76a28.72 28.72 0 0 1 1.45 4.89 29.54 29.54 0 0 0 5.73 1 11.52 11.52 0 0 0 1.76-1.56 53.91 53.91 0 0 0-3.11-6.09z" opacity=".1"/><path d="M1279.42 499.55a42.23 42.23 0 0 1 3.58 13.65c-3.45 3.18-10 2.84-13.46-.29a11 11 0 0 1-2.23-12.9 8.54 8.54 0 0 1 6-4.72c2.54-.42 5.03 1.86 6.11 4.26z" fill="#ffce3a"/><path d="M1282.57 500.19a14.79 14.79 0 0 1-10 2.17c0 1.42.29 2.78-.42 4a14.18 14.18 0 0 0 .85 3.64 2.84 2.84 0 0 1-1.21-1.19 5.85 5.85 0 0 0-.75-1.38 1.34 1.34 0 0 0-1.4-.48 1.2 1.2 0 0 0-.71.95 2.41 2.41 0 0 0 .17 1.21 5.12 5.12 0 0 0 4.23 3.24 9.17 9.17 0 0 1 1.54 3.92 10.84 10.84 0 0 1-10-8.92 13.2 13.2 0 0 1 5.72-12.45 7.45 7.45 0 0 1 4.79-1.55 6.64 6.64 0 0 1 4.24 2.41 22.56 22.56 0 0 1 2.95 4.43z" fill="#0089d7"/></g></svg>