<svg xmlns="http://www.w3.org/2000/svg" viewBox="0 0 462.22 260"><defs><linearGradient id="a" x1="-10.03" y1="371.14" x2="293.79" y2="67.32" gradientUnits="userSpaceOnUse"><stop offset="0" stop-color="#fff"/><stop offset="1" stop-color="#66c3cf"/></linearGradient></defs><path fill="url(#a)" d="M0 0h462.22v260H0z"/><path d="M49.82 68.27a3.76 3.76 0 0 1 1.71.41 3.2 3.2 0 0 1 5.82-1.39 2.69 2.69 0 0 1 4.21-2A4.4 4.4 0 0 1 66 63.6a5.13 5.13 0 0 1 4.79-4.6 4.66 4.66 0 0 1 0-.48 4.62 4.62 0 0 1 8-3.14 4.32 4.32 0 0 1 8.06 2.1A4.15 4.15 0 0 1 91.48 64a3.94 3.94 0 0 1 1.43 4.2A2.77 2.77 0 0 1 95 70.84H46.24a3.78 3.78 0 0 1 3.58-2.57zm170.96 83.45a3.76 3.76 0 0 0-1.71.41 3.2 3.2 0 0 0-5.82-1.39 2.69 2.69 0 0 0-4.21-2 4.4 4.4 0 0 0-4.48-1.73 5.13 5.13 0 0 0-4.75-4.57 4.68 4.68 0 0 0 0-.48 4.62 4.62 0 0 0-8-3.14 4.32 4.32 0 0 0-8.06 2.1 4.15 4.15 0 0 0-4.65 6.45 3.94 3.94 0 0 0-1.43 4.2 2.77 2.77 0 0 0-2.05 2.67h48.71a3.78 3.78 0 0 0-3.55-2.52zM63.07 123.69a1.59 1.59 0 0 0-1.48-1.13 1.45 1.45 0 0 0-.58.12 1.57 1.57 0 0 0-1.43-1 1.44 1.44 0 0 0-.43.07h-.09a2.23 2.23 0 0 0 0-.32 1.94 1.94 0 0 0-1.84-2 1.69 1.69 0 0 0-.5.08 3.09 3.09 0 0 0-2.84-2.08 2.85 2.85 0 0 0-1.51.44 5 5 0 0 0-3.55-1.26 3.65 3.65 0 0 0 .21-1.22 3.23 3.23 0 0 0-3.03-3.46 2.82 2.82 0 0 0-1.36.35 5.52 5.52 0 0 0-10.78-.34h-.32a3 3 0 0 0-2.6 1.6 2.92 2.92 0 0 0-1.82-.64 3.19 3.19 0 0 0-3 2.53 6.84 6.84 0 0 0-3 1.91 2.93 2.93 0 0 0-1.92-.73 3.23 3.23 0 0 0-3.09 2.93 1.7 1.7 0 0 0-.76-.18 1.87 1.87 0 0 0-1.76 1.42 1.45 1.45 0 0 0-.63-.14 1.65 1.65 0 0 0-1.57 1.66h-.09a3.15 3.15 0 0 0-.68-.07 3.33 3.33 0 0 0-2.71 1.45zm306.35 3.43c0-1.18-3.11-3.55-6.09-2.3a4.92 4.92 0 0 0-3.74-1.54h-.26a4.77 4.77 0 0 0-.2-.47 4.64 4.64 0 0 0-6.64-2 3.55 3.55 0 0 0-2.76-1.32 3.59 3.59 0 0 0-.45 0h-.26a3.62 3.62 0 0 0-4.25-3.13h-.21a4.9 4.9 0 0 0-.39-1.14 5 5 0 0 0-8.58-.59 4.65 4.65 0 0 0-6.29 3.91h-.3a5.42 5.42 0 0 0-5.32 4.38 4.83 4.83 0 0 0-1.18.56 5.65 5.65 0 0 0-2-.35 4.4 4.4 0 0 0-4.3 2.5c-2.21.17-4 .68-4.75 1.34zm-144.8-58.85a3.76 3.76 0 0 1 1.71.41 3.2 3.2 0 0 1 5.82-1.39 2.69 2.69 0 0 1 4.21-2 4.4 4.4 0 0 1 4.48-1.73 5.13 5.13 0 0 1 4.74-4.56 4.66 4.66 0 0 1 0-.48 4.62 4.62 0 0 1 8-3.14 4.32 4.32 0 0 1 8.06 2.1 4.15 4.15 0 0 1 4.63 6.52 3.94 3.94 0 0 1 1.43 4.2 2.77 2.77 0 0 1 2.05 2.67H221a3.78 3.78 0 0 1 3.62-2.6zm213.52 150.68a3.76 3.76 0 0 0-1.71.41 3.2 3.2 0 0 0-5.82-1.39 2.69 2.69 0 0 0-4.21-2 4.4 4.4 0 0 0-4.48-1.73 5.13 5.13 0 0 0-4.75-4.57 4.68 4.68 0 0 0 0-.48 4.62 4.62 0 0 0-8-3.14 4.32 4.32 0 0 0-8.06 2.1 4.15 4.15 0 0 0-4.65 6.45 3.94 3.94 0 0 0-1.43 4.2 2.77 2.77 0 0 0-2.05 2.67h48.71a3.78 3.78 0 0 0-3.55-2.52zm-119.9-4.63a1.59 1.59 0 0 0-1.48-1.13 1.45 1.45 0 0 0-.58.12 1.57 1.57 0 0 0-1.43-1 1.44 1.44 0 0 0-.43.07h-.09a2.23 2.23 0 0 0 0-.32 1.94 1.94 0 0 0-1.84-2 1.69 1.69 0 0 0-.5.08 3.09 3.09 0 0 0-2.84-2.08 2.85 2.85 0 0 0-1.51.44 5 5 0 0 0-3.55-1.26 3.65 3.65 0 0 0 .21-1.22 3.23 3.23 0 0 0-3.07-3.37 2.82 2.82 0 0 0-1.36.35 5.52 5.52 0 0 0-10.78-.34h-.32a3 3 0 0 0-2.6 1.6 2.92 2.92 0 0 0-1.82-.64 3.19 3.19 0 0 0-3 2.53 6.84 6.84 0 0 0-3 1.91 2.93 2.93 0 0 0-1.92-.73 3.23 3.23 0 0 0-3.09 2.93 1.7 1.7 0 0 0-.76-.18 1.87 1.87 0 0 0-1.76 1.42 1.45 1.45 0 0 0-.63-.14 1.65 1.65 0 0 0-1.57 1.66h-.09a3.15 3.15 0 0 0-.68-.07 3.33 3.33 0 0 0-2.71 1.45zM441.72 59.45c0-1.18-3.11-3.55-6.09-2.3a4.92 4.92 0 0 0-3.74-1.54h-.26a4.77 4.77 0 0 0-.2-.47 4.64 4.64 0 0 0-6.64-2 3.55 3.55 0 0 0-2.79-1.27 3.59 3.59 0 0 0-.45 0h-.26a3.62 3.62 0 0 0-4.25-3.13h-.21a4.9 4.9 0 0 0-.39-1.14 5 5 0 0 0-8.58-.59 4.65 4.65 0 0 0-6.28 3.99h-.33a5.42 5.42 0 0 0-5.32 4.38 4.83 4.83 0 0 0-1.18.56 5.65 5.65 0 0 0-2-.35 4.4 4.4 0 0 0-4.3 2.5c-2.21.17-4 .68-4.75 1.34z" fill="#f1f2f2" opacity=".51"/></svg>