<svg data-name="Calque 1" xmlns="http://www.w3.org/2000/svg" viewBox="0 0 400 225"><path fill="#0e9baa" d="M0 0h400v225H0z"/><path d="M246.61 155.73h-7.86v-13.66l7.86-4.09zm69.55 0h-7.86v-30.92l7.86-5.45zm-30.73-65.88a1.72 1.72 0 0 0-.51-.28l-.19-.07-.22-.07a2.89 2.89 0 0 1-.45-.21 1.53 1.53 0 0 1-.71-1.28 1.48 1.48 0 0 1 .22-.77 1.55 1.55 0 0 1 .58-.56 1.57 1.57 0 0 1 .36-.15v-.93h.86v.93a1.72 1.72 0 0 1 .37.14 1.48 1.48 0 0 1 .57.55 1.68 1.68 0 0 1 .23.8h-1a.58.58 0 0 0-.59-.56.51.51 0 0 0-.39.16.57.57 0 0 0-.15.41.53.53 0 0 0 .15.39 1.25 1.25 0 0 0 .4.23h.13l.23.08a2.78 2.78 0 0 1 .83.42 1.5 1.5 0 0 1 .57 1.22 1.71 1.71 0 0 1-.87 1.51 1.79 1.79 0 0 1-.43.18V93h-.86v-1a1.7 1.7 0 0 1-.89-.49 1.53 1.53 0 0 1-.35-.53 1.69 1.69 0 0 1-.12-.6h1.05a.75.75 0 0 0 .22.51.75.75 0 0 0 .49.18.72.72 0 0 0 .52-.2.68.68 0 0 0 .2-.5.71.71 0 0 0-.25-.52zm-6-11a3.61 3.61 0 0 0-1.07-.58l-.4-.14-.46-.14a6.2 6.2 0 0 1-.95-.44 3.18 3.18 0 0 1-1.08-1.15 3.22 3.22 0 0 1-.4-1.54 3.11 3.11 0 0 1 .45-1.62 3.44 3.44 0 0 1 2-1.49v-2h1.82v2a3.6 3.6 0 0 1 .78.3 3.11 3.11 0 0 1 1.2 1.16 3.55 3.55 0 0 1 .49 1.67h-2.18a1.22 1.22 0 0 0-1.25-1.19 1.07 1.07 0 0 0-.82.33 1.21 1.21 0 0 0-.31.86 1.12 1.12 0 0 0 .32.83 2.61 2.61 0 0 0 .85.49l.27.1.49.17a5.82 5.82 0 0 1 1.75.88 3.15 3.15 0 0 1 1.2 2.56 3.59 3.59 0 0 1-1.84 3.18 3.76 3.76 0 0 1-.91.37v1.93h-1.81v-1.92a3.57 3.57 0 0 1-1.87-1 3.2 3.2 0 0 1-.73-1.11 3.52 3.52 0 0 1-.26-1.27h2.22a1.56 1.56 0 0 0 .46 1.07 1.59 1.59 0 0 0 1 .38h.08a1.51 1.51 0 0 0 1.09-.41A1.43 1.43 0 0 0 280 80a1.5 1.5 0 0 0-.55-1.15zm-37.67-31.07l-2-.39 1.13 2zM120 124.87a1.72 1.72 0 0 0-.51-.28l-.19-.07-.22-.07a2.85 2.85 0 0 1-.45-.21 1.5 1.5 0 0 1-.52-.55 1.53 1.53 0 0 1-.19-.73 1.49 1.49 0 0 1 .22-.77 1.54 1.54 0 0 1 .58-.56 1.6 1.6 0 0 1 .36-.15v-.93h.92v.93a1.67 1.67 0 0 1 .37.14 1.47 1.47 0 0 1 .57.55 1.68 1.68 0 0 1 .23.8h-1a.58.58 0 0 0-.59-.56.51.51 0 0 0-.39.16.57.57 0 0 0-.15.41.53.53 0 0 0 .15.39 1.26 1.26 0 0 0 .4.23h.13l.23.08a2.77 2.77 0 0 1 .83.42 1.5 1.5 0 0 1 .57 1.22 1.73 1.73 0 0 1-.23.88 1.75 1.75 0 0 1-.64.63 1.78 1.78 0 0 1-.43.18v.99h-.86v-.91a1.69 1.69 0 0 1-.89-.49 1.51 1.51 0 0 1-.35-.53 1.68 1.68 0 0 1-.13-.6h1.05a.74.74 0 0 0 .22.51.75.75 0 0 0 .49.18.71.71 0 0 0 .52-.2.68.68 0 0 0 .2-.5.71.71 0 0 0-.3-.59zm-8.44-4.9a4.09 4.09 0 0 0-1.21-.66l-.45-.16-.52-.16a6.9 6.9 0 0 1-1.07-.5 3.6 3.6 0 0 1-1.23-1.31 3.64 3.64 0 0 1-.46-1.75 3.53 3.53 0 0 1 .51-1.83 3.9 3.9 0 0 1 2.25-1.69v-2.23h2.06v2.21a4.06 4.06 0 0 1 .88.34 3.52 3.52 0 0 1 1.36 1.32 4 4 0 0 1 .56 1.9h-2.48a1.38 1.38 0 0 0-1.41-1.35 1.22 1.22 0 0 0-.93.37 1.37 1.37 0 0 0-.36 1 1.27 1.27 0 0 0 .36.94 3 3 0 0 0 1 .56l.31.12.55.19a6.61 6.61 0 0 1 2 1 3.57 3.57 0 0 1 1.36 2.9 4.06 4.06 0 0 1-2.08 3.61 4.22 4.22 0 0 1-1 .42v2.19h-2.05v-2.17a4 4 0 0 1-2.12-1.17 3.62 3.62 0 0 1-.83-1.26 4 4 0 0 1-.3-1.44h2.51a1.63 1.63 0 0 0 1.7 1.64h.08a1.7 1.7 0 0 0 1.23-.46 1.61 1.61 0 0 0 .48-1.19 1.7 1.7 0 0 0-.7-1.35zm36.54-36.2a16.58 16.58 0 0 0 1.8-.4 16.58 16.58 0 0 1-1.8.4zm6.68-2.71a16.43 16.43 0 0 1-4.72 2.25 16.42 16.42 0 0 0 4.72-2.25zm-24.68 25.33l2.4 6.03-1.5-3.75-.9-2.28zM144 94.87h3.18v-1.64a7.88 7.88 0 0 1-1.49-1.69 2.65 2.65 0 0 1-2.37 1.46h-.21a12.33 12.33 0 0 1-.43 2.06 5.15 5.15 0 0 1 1.32-.19zm-30-10.82a16.47 16.47 0 0 0 9.42-2.94 16.48 16.48 0 0 1-9.42 2.94zm39.06 12.53l-.01-1.71v1.71h.01zm17.04 35.05l-1.4-3.82 1.4 3.82zm-40.69 5.04l2.57-2.57.08-.08.44-.44-22.88 3.52c2.68 4 1.93 8.52 1.18 12.91-.6 3.52-1.16 6.89 0 9.92a4.14 4.14 0 0 1 2-.24l5-14.77 11.55-3.7 2.77 2.77-2.73-2.73a3.24 3.24 0 0 1 .02-4.59zm9.41-30.28l-.02-2.53v2.53h.02zm4.69-2.53a7.66 7.66 0 0 1 2 .27l.21-.27h-2.2zm3.65-7.28l1.59 3.98-.98-2.44-.61-1.54zm-31.34.05l1.63 4.08-1.01-2.54-.62-1.54zm5.88-1.71l-.09.05.09-.05zm127-21.21a8.34 8.34 0 0 1-4 4.71l2.46 3.94-1.52.94 2.51 4a28.21 28.21 0 0 1 8.85-2.64v-1.93a12.32 12.32 0 0 1-8.3-9.02zm-107.34 9.76a24.32 24.32 0 0 1-13.92 4.35 24.32 24.32 0 0 0 13.91-4.35zM125.61 93a2.66 2.66 0 0 1-2.4-1.55 8 8 0 0 1-1.5 1.77v1.71h3.19a5.18 5.18 0 0 1 1.19.15 12.3 12.3 0 0 1-.43-2.08z" fill="#118192"/><path fill="#118192" d="M121.73 96.63l-.01-1.72v1.72h.01zM254.9 76.31V71h11.53v5.29h-2.06v3.34a9.39 9.39 0 1 0-7.41 0v-3.32z"/><path d="M197.46 141.56a11.85 11.85 0 0 1-16.74 0l-1.43-1.43a25 25 0 0 1-4.4 2.3l2.48 2.48a16.59 16.59 0 0 0 23.44 0l29.51-29.51v-6.7zm-27.36-9.93l3.5 9.52-3.5-9.52zm63.03-25.74l-2.69 2.69h2.15c.14-.91.32-1.81.54-2.69z" fill="#12abc3"/><path fill="#9f4216" d="M104.9 115.48l-3.4-22.04-9.28 5.6-10.54-2.55 1.65 10.72 8.5-1.31 13.07 9.58z"/><path d="M96.24 134.51l-2.66-17.29-1.74-11.32-8.5 1.31L72 109l4.4 28.6.36 2.31.34 2.23.7 4.54 19.82-3.05-.7-4.54-.34-2.23zm-14.91-6.4a5.7 5.7 0 0 1 .45.64 6 6 0 0 1 .38.72 5.64 5.64 0 0 1 .27.76l-2.45.38a12.29 12.29 0 0 0-1.18-2 12 12 0 0 0-1.42-1.61l-.27-1.76 13.51-2.08.45 2.9-10.23 1.54a3.38 3.38 0 0 1 .48.51z" fill="#d35715"/><path fill="#77320f" d="M93.58 117.22l11.32-1.74-13.07-9.58 1.75 11.32z"/><path d="M90.62 123.13l-13.51 2.07.27 1.76a12 12 0 0 1 1.41 1.64 12.29 12.29 0 0 1 1.18 2l2.45-.38a5.64 5.64 0 0 0-.27-.76 6 6 0 0 0-.38-.72 5.7 5.7 0 0 0-.45-.64 3.38 3.38 0 0 0-.49-.5l10.24-1.6z" fill="#f18831"/><path d="M74 140.29a5.13 5.13 0 0 1-.12 1.56 5.18 5.18 0 0 1-.28.79l3.52-.54-.34-2.23z" fill="#063b5a"/><path d="M76.77 139.87l-.36-2.31-3.08.47a5.15 5.15 0 0 1 .66 2.26zm58.44-9l2.79-2.79-41.76 6.43.35 2.3 38.62-5.94z" fill="#012428"/><path d="M108.13 135.28a12 12 0 0 1 1.49 1.81l22.88-3.52 2.7-2.7-38.62 5.94.34 2.23 10.67-1.64a10.47 10.47 0 0 0-.75-.85z" fill="#063b5a"/><path d="M74 140.29a4.51 4.51 0 1 0-.12 1.56 5.15 5.15 0 0 0 .12-1.56zm-5.39 2.46a1.55 1.55 0 1 1-1.13-1.88 1.55 1.55 0 0 1 1.12 1.89z" fill="#012428"/><circle cx="67.1" cy="142.38" r="1.55" transform="rotate(-76.05 67.094 142.379)" fill="#063b5a"/><path d="M151.45 97.11l-.76.76.25.93c.43-.31.87-.61 1.32-.89l-2.14-2.14zm-2.67 0l1.34-1.34-2.34 2.34 1 2.44.09-.09.71-2.6z" fill="#fff"/><path d="M147.19 94.87a5.16 5.16 0 0 0 .62.36l.21.09.45.18.28.08.43.1h.51l-.87-.88-1.64-1.64v1.64z" fill="#fac9b4"/><path d="M150.06 94.4a4.56 4.56 0 0 1-2.9-1.17l1.64 1.64.87.88h.44a5 5 0 0 0 .51 0h.41l.34-.08.37-.1.38-.15.29-.12a5.17 5.17 0 0 0 .63-.37v-1.77a4.59 4.59 0 0 1-2.94 1.24z" fill="#f7b59e"/><path d="M156 85.47a3.79 3.79 0 0 0-2.82-1A3.49 3.49 0 0 0 151 85.7c-.14.15-.22.25-.22.25v3.85a.68.68 0 0 1-.63.7v3.9a4.59 4.59 0 0 0 2.94-1.24A9.27 9.27 0 0 0 156 87.5a6.87 6.87 0 0 0 0-.74z" fill="#f7b59e"/><path d="M147.16 93.22a4.56 4.56 0 0 0 2.9 1.17h.05V90.5a.68.68 0 0 0 .63-.7V86s.08-.1.22-.25a3.49 3.49 0 0 1 2.22-1.24 3.79 3.79 0 0 1 2.82 1v-.79a5.92 5.92 0 0 0-1.23-3.62 16.42 16.42 0 0 1-4.72 2.25l-.16.05a16.58 16.58 0 0 1-1.8.4h-.17c-.36.06-.73.1-1.09.13h-1.61a11.43 11.43 0 0 1 .73 4v2.3a2.63 2.63 0 0 1-.3 1.2 7.88 7.88 0 0 0 1.51 1.79z" fill="#fac9b4"/><path d="M145.23 84h1.61c.37 0 .73-.07 1.09-.13h.17a16.58 16.58 0 0 0 1.8-.4l.16-.05a16.43 16.43 0 0 0 4.72-2.25 5.92 5.92 0 0 1 1.22 3.51v2.08a6.87 6.87 0 0 1 0 .74h.14a1.8 1.8 0 0 0 1.79-1.8v-1.56a7.78 7.78 0 0 0-14.7-3.57c.24.28.48.57.69.87a11.47 11.47 0 0 1 1.31 2.56zm4.68-.63l.16-.05z" fill="#012428"/><path d="M149.17 95.68l-.43-.1-.28-.08-.45-.18-.21-.09a5.16 5.16 0 0 1-.62-.36v1.71l.61 1.54 2.34-2.34h-.63z" fill="#f9f8fa"/><path d="M152.42 95.23l-.29.12-.38.15-.37.1-.34.08h-.41a5 5 0 0 1-.51 0l2.14 2.14.34-.2.47-1.13v-1.62a5.17 5.17 0 0 1-.65.36z" fill="#fff"/><path d="M144.74 99l2.76 2.76c.4-.41.81-.81 1.24-1.2l-1.59-4zm5.38-.55l-.57-.57-.71 2.6a25 25 0 0 1 2.11-1.67l-.25-.93zm2.48-.73a24.9 24.9 0 0 1 4.28-2.08l3 8.23h1.54v-3.8a5.19 5.19 0 0 0-5.19-5.19h-3.19v1.71z" fill="#012428"/><path fill="#012428" d="M145.44 94.87l1.72 1.71v-1.71h-1.72z"/><path d="M147.16 96.58l-1.71-1.71H144a5.15 5.15 0 0 0-1.29.18 13.52 13.52 0 0 1-3.88 6.28v2.53h6.91a25.48 25.48 0 0 1 1.79-2.1L144.74 99zm2.38 1.3l.58.57.57-.57.76-.77-1.33-1.33-1.34 1.33.76.77z" fill="#063b5a"/><path fill="#fff" d="M120.11 97.16l-.76.76.73 2.69 1.02-2.47-2.32-2.32 1.33 1.34z"/><path fill="#fff" d="M118.78 95.82l-2.34 2.35 1.01 2.54.76-2.79-.77-.76 1.34-1.34z"/><path d="M116.46 95.27l.22.1c.15.06.29.13.45.18l.28.08.44.1h.5l-.87-.87-1.64-1.64v1.64a5.16 5.16 0 0 0 .62.41z" fill="#fac9b4"/><path d="M118.34 95.79h.44a5 5 0 0 0 .51 0l.41-.05.33-.08.38-.1.36-.14.31-.13a5.45 5.45 0 0 0 .53-.31l.09-.05V93.2a4.59 4.59 0 0 1-2.94 1.24h-.05a4.56 4.56 0 0 1-2.9-1.17l1.64 1.64z" fill="#f7b59e"/><path d="M123 90.33v-2.95a11.45 11.45 0 0 1 .46-2.63 4.7 4.7 0 0 0-1.59-.26 3.49 3.49 0 0 0-2.22 1.24l-.22.25v3.84a.68.68 0 0 1-.63.7v3.9a4.59 4.59 0 0 0 2.94-1.24 8 8 0 0 0 1.5-1.77 2.64 2.64 0 0 1-.24-1.08z" fill="#f7b59e"/><path d="M118.78 94.44v-3.9a.68.68 0 0 0 .63-.7V86l.22-.25a3.49 3.49 0 0 1 2.22-1.24 4.7 4.7 0 0 1 1.59.26 11.42 11.42 0 0 1 .86-2.11 6 6 0 0 0-.85-1.56 16.47 16.47 0 0 1-9.45 2.95h-1.2a6.1 6.1 0 0 0 0 .72v2.08a6.66 6.66 0 0 0 0 .74 9.22 9.22 0 0 0 3 5.72 4.56 4.56 0 0 0 2.9 1.17z" fill="#fac9b4"/><path d="M112.78 84.72a6.1 6.1 0 0 1 0-.72h1.2a16.48 16.48 0 0 0 9.42-2.94 6 6 0 0 1 .85 1.56 11.54 11.54 0 0 1 1.38-2.06A7.78 7.78 0 0 0 111 83.77v1.98a1.8 1.8 0 0 0 1.79 1.8 6.66 6.66 0 0 1 0-.74z" fill="#012428"/><path d="M116.44 98.17l2.34-2.34h-.94l-.44-.1-.28-.08c-.15-.05-.3-.11-.45-.18l-.22-.1a5.16 5.16 0 0 1-.62-.36v1.71z" fill="#f9f8fa"/><path d="M121.71 94.92l-.09.05a5.45 5.45 0 0 1-.53.31l-.31.13-.36.14-.38.1-.33.08-.41.05a5 5 0 0 1-.51 0l2.32 2.32.63-1.52v-1.67z" fill="#fff"/><path d="M125.4 103.86h4.7v-2.42a13.42 13.42 0 0 1-4-6.37 5.18 5.18 0 0 0-1.19-.15h-3.19v1.71l-.63 1.52-1 2.47-.73-2.69-.57.57-.57-.57-.76 2.79-1.63-4.08-2.42 2.36 4.86 4.86h6.3a7.74 7.74 0 0 1 .82 0zm-9.58-8.95h-1.71l1.71 1.72v-1.72z" fill="#012428"/><path d="M115.82 96.63l-1.71-1.71h-1.47a5.19 5.19 0 0 0-5.19 5.19v3.8h10.83L113.41 99zm2.96-.81l-1.34 1.34.77.76.57.57.57-.57.76-.76-1.33-1.34z" fill="#063b5a"/><path fill="#fff" d="M136.44 107.18l-1.13 1.12 1.08 3.98 1.51-3.65-3.43-3.43 1.97 1.98zm-5.44 1.49l1.5 3.75 1.12-4.12-1.13-1.12-1.49 1.49z"/><path d="M131 104.39l.33.14c.21.09.43.18.65.26l.43.12c.2.06.41.11.62.14l.48.07h.27l-1.29-1.29-2.42-2.42v2.42a7.85 7.85 0 0 0 .93.56z" fill="#fac9b4"/><path d="M134.47 103.16h-.08a6.73 6.73 0 0 1-4.29-1.73l2.42 2.42 1.29 1.29h.65c.22 0 .5 0 .74-.06s.41 0 .62-.07l.51-.12c.18 0 .37-.08.55-.14s.39-.15.59-.23l.4-.17a7.62 7.62 0 0 0 .93-.54v-2.53a6.78 6.78 0 0 1-4.33 1.88z" fill="#f7b59e"/><path d="M139 88.5a5.15 5.15 0 0 0-3.29 1.83c-.21.22-.33.37-.33.37v5.68a1 1 0 0 1-.93 1v5.75a6.78 6.78 0 0 0 4.34-1.83 13.52 13.52 0 0 0 3.88-6.28 12.33 12.33 0 0 0 .43-2.06 9.67 9.67 0 0 0 .07-1.1V90a5.61 5.61 0 0 0-4.17-1.5z" fill="#f7b59e"/><path d="M134.47 103.16v-5.75a1 1 0 0 0 .93-1V90.7s.12-.15.33-.37A5.15 5.15 0 0 1 139 88.5a5.61 5.61 0 0 1 4.18 1.5v-1.19a8.75 8.75 0 0 0-1.82-5.34 24.32 24.32 0 0 1-13.91 4.35c-.6 0-1.19 0-1.78-.07a8.7 8.7 0 0 0-.07 1.06v3.08a9.69 9.69 0 0 0 .07 1.1 12.3 12.3 0 0 0 .43 2.08 13.42 13.42 0 0 0 4 6.37 6.73 6.73 0 0 0 4.29 1.73z" fill="#fac9b4"/><path d="M123.44 84.78a11.45 11.45 0 0 0-.44 2.62v2.92a2.68 2.68 0 0 0 2.61 2.68h.05a9.69 9.69 0 0 1-.07-1.1v-3.09a8.7 8.7 0 0 1 .07-1.06c.59 0 1.18.07 1.78.07a24.32 24.32 0 0 0 13.92-4.35 8.75 8.75 0 0 1 1.82 5.34v3.08a9.67 9.67 0 0 1-.07 1.1h.21a2.69 2.69 0 0 0 2.68-2.66V88a11.62 11.62 0 0 0-2.07-6.58c-.21-.3-.45-.59-.69-.87a11.49 11.49 0 0 0-19.76 4.2z" fill="#012428"/><path d="M132.49 107.18l2-2h-.92l-.48-.07c-.21 0-.41-.09-.62-.14l-.43-.12c-.22-.08-.44-.17-.65-.26l-.33-.14a7.85 7.85 0 0 1-.91-.53v2.53l.91 2.27z" fill="#f9f8fa"/><path d="M137.87 104.4l-.4.17c-.19.08-.39.17-.59.23s-.36.1-.55.14l-.51.12c-.2 0-.41.05-.62.07s-.49.06-.74.06l3.43 3.43.92-2.24v-2.53a7.62 7.62 0 0 1-.94.55z" fill="#fff"/><path d="M143.51 103.86h-4.71v2.53l-.92 2.24-1.5 3.65-1.08-4-.84.84-.84-.84-1.12 4.12-2.4-6-3.57 3.6 7.18 7.18h6.85a24.92 24.92 0 0 1 4.94-13 7.66 7.66 0 0 0-1.99-.32zm-13.41 0h-2.53l2.53 2.53v-2.53z" fill="#d35715"/><path d="M130.1 106.39l-2.53-2.53h-2.18a7.68 7.68 0 0 0-7.67 7.67v5.61h16l-7.19-7.14zm4.37-1.19l-1.98 1.98 1.13 1.12.85.85.84-.85 1.13-1.12-1.97-1.98z" fill="#f18831"/><path d="M248.7 73.71a12.32 12.32 0 0 0 8.26 9v-3.06a9.4 9.4 0 1 1 7.41 0v3.07a12.28 12.28 0 1 0-15.69-14.36 8.19 8.19 0 0 1 0 5.35z" fill="#063b5a"/><path d="M264.38 76.31H257v8.35a27.79 27.79 0 0 1 7.41 0v-8.35zm-18.78 7l-3.37 2.09 2.45 3.94a28.5 28.5 0 0 1 3.42-2z" fill="#efefef"/><path d="M247.12 82.37l-2.46-3.94a8.25 8.25 0 0 1-3.09.9l-3.76 2.34 2.92 4.68 1.52-.94 3.37-2.09z" fill="#f18831"/><path d="M266.52 135.43v5.22c.71-.15 1.41-.33 2.09-.53v-5.32q-1.02.37-2.09.63zm-9.95.34v5.18c.69.1 1.39.17 2.09.22v-5.11c-.66-.06-1.4-.16-2.09-.29zM275 132.6l-.87.68-.88-.69a23.16 23.16 0 0 1-3.31 1.76l3.66 2.62.93.73a28.54 28.54 0 0 0 5.29-3.79 11.87 11.87 0 0 1-2.14-3.12zm-22.17 2.15a23.28 23.28 0 0 1-5.09-2.56l-5.06 2.63a28.51 28.51 0 0 0 6 3.78v-1.71zm-17.44-26.17v17.18a28.49 28.49 0 0 0 4.92 6.86l4.83-2.51a23.33 23.33 0 1 1 39-17.28c0 .59 0 1.17-.09 1.74a12 12 0 0 1 4.38-.84h.66v-.94a28.42 28.42 0 0 0-56-6.94c-.22.88-.4 1.78-.54 2.69z" fill="#012428"/><path d="M247.74 132.19a23.28 23.28 0 0 0 5.09 2.56l3.74-1.94v3c.69.13 1.38.23 2.09.29v-4.35l4.42-2.29 3.45 2.47v3.54q1.07-.27 2.09-.63v-1.4l1.29.93a23.16 23.16 0 0 0 3.31-1.76l-11-7.9z" fill="#12abc3"/><path d="M262.51 121.11l.72.54 10.92 7.83 2.53-1.75a11.91 11.91 0 0 1 7.32-13.15c0-.58.09-1.15.09-1.74a23.34 23.34 0 1 0-39 17.28l16.5-8.58zm18.38-10.17a1.89 1.89 0 1 1-1.89 1.89 1.89 1.89 0 0 1 1.89-1.89zm-20.2-20.19a1.89 1.89 0 1 1-1.89 1.89 1.89 1.89 0 0 1 1.89-1.89zm-20.19 24a1.89 1.89 0 1 1 1.89-1.89 1.89 1.89 0 0 1-1.89 1.86zm12.62 7.71a6.24 6.24 0 1 1 0-8.82 6.22 6.22 0 0 1-.01 8.79zm8.49-1.66h-1.82v-5a3.06 3.06 0 0 1 0-5.84l.62-14.43h.59l.62 14.43a3.06 3.06 0 0 1 0 5.84z" fill="#12abc3"/><path d="M263.75 112.81a3.06 3.06 0 0 0-2.15-2.92l-.6-14.44h-.58l-.62 14.43a3.06 3.06 0 0 0 0 5.84v5h1.82v-5a3.06 3.06 0 0 0 2.13-2.91z" fill="#118192"/><circle cx="280.89" cy="112.83" r="1.89" fill="#fff"/><circle cx="240.5" cy="112.83" r="1.89" fill="#fff"/><circle cx="260.69" cy="92.64" r="1.89" fill="#fff"/><path fill="#f18831" d="M254.91 71.02v5.29h5.76v-5.29h-5.76z"/><path fill="#d35715" d="M266.44 71.02h-5.77v5.29h5.77v-5.29z"/><path d="M110.84 159.92c-1.19-3-.63-6.4 0-9.92.74-4.39 1.5-8.9-1.18-12.91a12 12 0 0 0-1.49-1.81l-1.28 1.28a10.47 10.47 0 0 1 .75.85c2.89 3.59 2.18 7.82 1.42 12.29-.64 3.8-1.3 7.7.28 11.28l.11-.13a4.1 4.1 0 0 1 1.39-.93zm4.3 6.89c3.58 1.58 7.48.92 11.28.28 4.83-.82 9.38-1.59 13.14 2.17l1.28-1.28c-4.42-4.42-9.65-3.53-14.72-2.67-3.52.6-6.9 1.16-9.92 0a4.12 4.12 0 0 1-.93 1.43z" fill="#012428"/><path d="M111.67 163.11l.56-1.66a2.33 2.33 0 1 0 2.43 2.43l-1.65.56-2 .7z" fill="#063b5a"/><path d="M114 165.43a2.33 2.33 0 1 1-1.76-4l.6-1.77a4.14 4.14 0 0 0-2 .24 4.1 4.1 0 0 0-1.43.93l-.11.13a4.13 4.13 0 0 0 5.83 5.83l.13-.11a4.1 4.1 0 0 0 1.17-3.42l-1.77.6a2.32 2.32 0 0 1-.66 1.57z" fill="#012428"/><path d="M121.93 151.32a2 2 0 0 0-.49 2l-9.77 9.77-.7 2 2-.7 9.76-9.77a2 2 0 1 0-.84-3.36z" fill="#a3a3a2"/><path d="M132.14 144l-7.34 7.34a2 2 0 0 1-2 3.36l-9.8 9.75 1.65-.56 1.77-.6 14.77-5 3.7-11.55z" fill="#fff"/><path d="M117.82 144.91l-5 14.77-.6 1.77-.56 1.66 9.77-9.77a2 2 0 0 1 3.36-2l7.34-7.34-2.77-2.77z" fill="#efefef"/><path d="M134.88 142.12l-.44-.44-2.3 2.3 2.73 2.73a3.24 3.24 0 0 0 4.57 0l-2.29-2.29z" fill="#d5d8d9"/><path d="M131.71 138.95l-2.29-2.29a3.24 3.24 0 0 0 0 4.58l2.73 2.73 2.3-2.3-.44-.44z" fill="#a3a3a2"/><path d="M156.37 119.16v.53l14.49-14.49a9.06 9.06 0 0 0-7.15-.34L163 103l-2.53 2.53 1.85 5a9.17 9.17 0 0 0-5.95 8.63zm-23.86 14.41l-.44.44 5 5 7-7a24.86 24.86 0 0 1-2.9-7.14l-3.17 3.21-2.79 2.79z" fill="#012428"/><path d="M144.07 132l-7 7 5 5 6.47-6.47a25.11 25.11 0 0 1-4.47-5.53zm39.21-30.56c.24.24.46.51.69.76l1.14-1.14-2.89-2.89-8.83 8.83a9.24 9.24 0 0 0-2.5-1.76l-14.49 14.49a9.15 9.15 0 0 0 3.41 6.63l12.9-12.9a9.06 9.06 0 0 0-.68-.76z" fill="#063b5a"/><path fill="#f18831" d="M134.44 141.68l.44.44 2.29 2.29 2.29 2.29 2.57-2.57.08-.08-5.02-5.02-2.65 2.65z"/><path fill="#d35715" d="M131.99 134.09l-2.57 2.57 2.29 2.29 2.29 2.29.44.44 2.65-2.65-5.02-5.02-.08.08z"/><path d="M323.79 170.1H261a11.85 11.85 0 0 1-10.4-6.19h-5.17A16.59 16.59 0 0 0 261 174.83h62.8a16.59 16.59 0 0 0 16.57-16.57V96.6q-2.34-2.05-4.74-4v65.71a11.85 11.85 0 0 1-11.84 11.79zM175.46 71.24L187.3 59.4l-6.49-.21-8.7 8.7a11.85 11.85 0 0 1-16.74 0l-15.74-15.74q-2.58.75-5.13 1.56L152 71.24a16.59 16.59 0 0 0 23.46 0z" fill="#12abc3"/><path fill="#063b5a" d="M326.55 163.91v-5.08h-91.16v-50.25h-5.08v55.33h96.24z"/><path fill="#4e240f" d="M238.75 155.73h7.86v-17.75l-7.86 4.09v13.66z"/><path fill="#77320f" d="M256.57 132.81l-3.74 1.94-4.12 2.14v18.84h7.86v-22.92z"/><path fill="#9f4216" d="M266.52 131.9l-3.44-2.47-4.42 2.29v24.01h7.86V131.9z"/><path fill="#d35715" d="M269.91 134.32l-1.29-.92v22.33h7.86v-18.69l-1.41 1.09-.57-.45-.93-.73-3.66-2.63z"/><path d="M278.43 135.68v20h7.86v-18.27a11.87 11.87 0 0 1-6-3z" fill="#f18831"/><path d="M288.39 137.61v18.12h7.86v-21.06a11.9 11.9 0 0 1-7.82 2.94z" fill="#f8b881"/><path d="M298.34 155.73h7.86v-29.46l-7.25 5c-.19.35-.39.69-.61 1z" fill="#fcd4b2"/><path fill="#fde3cd" d="M308.3 155.73h7.86v-36.37l-7.86 5.45v30.92z"/><path d="M318.26 112.44l1.58 2.29 3.57-7.54-8.32.68 1.43 2.08-16.88 11.71a11.92 11.92 0 0 1 .68 3.24zm-56.05 12.23l11 7.9.88.69.87-.68 2.64-1.83a11.83 11.83 0 0 1-1-3l-2.53 1.75-10.92-7.83-.72-.54-.87.42-16.5 8.58-4.83 2.51-1.55.81v3.43l3.93-2 5.06-2.63z" fill="#fff"/><path d="M162.37 110.6l-1.85-5-.62-1.7-3-8.23a24.9 24.9 0 0 0-4.28 2.08l-.34.2c-.45.28-.89.58-1.32.89a25 25 0 0 0-2.11 1.67l-.09.09c-.43.39-.84.78-1.24 1.2a25.48 25.48 0 0 0-1.79 2.1l-.21.27a24.92 24.92 0 0 0-4.94 13q-.08 1-.08 2h15.89a9.17 9.17 0 0 1 5.98-8.57z" fill="#12abc3"/><path d="M156.39 119.73v-.53h-15.91a25.14 25.14 0 0 0 25.07 25.07v-15.89a9.17 9.17 0 0 1-9.15-8.66z" fill="#f18831"/><path d="M190.62 119.16h-15.89a9.15 9.15 0 0 1-2.67 6.47l11.22 11.22a25 25 0 0 0 7.34-17.69z" fill="#efefef"/><path d="M183.28 136.89l-11.22-11.22a9.19 9.19 0 0 1-3.36 2.14l1.4 3.81 3.5 9.53.57 1.56.7-.28a25.14 25.14 0 0 0 8.39-5.54z" fill="#063b5a"/><path d="M168.7 127.81a9.12 9.12 0 0 1-3.15.57v15.85a25 25 0 0 0 8.63-1.52l-.57-1.56-3.5-9.52z" fill="#f8b881"/><path d="M166.91 104.32a9.12 9.12 0 0 1 4 .92 9.24 9.24 0 0 1 2.5 1.76l8.83-8.83 2.42-2.42a25.1 25.1 0 0 0-26.4-5.8L163 103l.69 1.87a9.15 9.15 0 0 1 3.22-.55z" fill="#012428"/><path d="M184 102.19c-.23-.25-.45-.52-.69-.76L172 112.69a9.31 9.31 0 0 1 2.71 6.47h15.89a25 25 0 0 0-6.6-16.97z" fill="#9f4216"/><path d="M245.64 121.09a4.33 4.33 0 0 1 3.06-7.4v-1.9a6.24 6.24 0 0 0 0 12.47v-1.9a4.32 4.32 0 0 1-3.06-1.27z" fill="#f8b881"/><path d="M248.7 111.79v1.9a4.33 4.33 0 1 1 0 8.67v1.9a6.24 6.24 0 1 0 0-12.47z" fill="#d35715"/><path d="M245.64 121.09a4.33 4.33 0 1 0 0-6.13 4.32 4.32 0 0 0 0 6.13zm3.59-2.42a1.81 1.81 0 0 0-.53-.28l-.2-.07-.22-.07a2.74 2.74 0 0 1-.47-.22 1.58 1.58 0 0 1-.73-1.33 1.52 1.52 0 0 1 .22-.8 1.59 1.59 0 0 1 .6-.58 1.53 1.53 0 0 1 .38-.15v-1h.89v1a1.72 1.72 0 0 1 .39.15 1.52 1.52 0 0 1 .59.57 1.78 1.78 0 0 1 .24.83h-1.08a.63.63 0 0 0-.2-.43.62.62 0 0 0-.42-.16.53.53 0 0 0-.4.16.6.6 0 0 0-.15.42.55.55 0 0 0 .16.41 1.22 1.22 0 0 0 .42.24l.13.05.24.08a2.91 2.91 0 0 1 .86.43 1.56 1.56 0 0 1 .59 1.26 1.79 1.79 0 0 1-.91 1.57 1.88 1.88 0 0 1-.45.18v1h-.89V121a1.77 1.77 0 0 1-.92-.51 1.56 1.56 0 0 1-.36-.55 1.77 1.77 0 0 1-.13-.63H248a.76.76 0 0 0 .23.52.77.77 0 0 0 .51.19.74.74 0 0 0 .54-.2.69.69 0 0 0 .21-.52.74.74 0 0 0-.26-.63z" fill="#f18831"/><path d="M248.74 120a.77.77 0 0 1-.51-.19.76.76 0 0 1-.23-.52h-1.09a1.77 1.77 0 0 0 .13.63 1.56 1.56 0 0 0 .36.55 1.77 1.77 0 0 0 .92.51v.94h.89v-1a1.88 1.88 0 0 0 .45-.18 1.79 1.79 0 0 0 .91-1.57 1.56 1.56 0 0 0-.59-1.26 2.91 2.91 0 0 0-.86-.43l-.24-.08-.13-.05a1.22 1.22 0 0 1-.42-.24.55.55 0 0 1-.16-.41.6.6 0 0 1 .15-.42.53.53 0 0 1 .4-.16.62.62 0 0 1 .42.16.63.63 0 0 1 .2.43h1.08a1.78 1.78 0 0 0-.24-.83 1.52 1.52 0 0 0-.59-.57 1.72 1.72 0 0 0-.39-.15v-1h-.89v1a1.53 1.53 0 0 0-.38.15 1.59 1.59 0 0 0-.6.58 1.52 1.52 0 0 0-.22.8 1.58 1.58 0 0 0 .73 1.33 2.74 2.74 0 0 0 .47.22l.22.07.2.07a1.81 1.81 0 0 1 .53.28.74.74 0 0 1 .26.59.69.69 0 0 1-.21.52.74.74 0 0 1-.57.23zm39.69 14a8.29 8.29 0 1 1 0-16.59v-3.64a11.93 11.93 0 0 0-11.75 14 12 12 0 0 0 3.1 6.15l.21.23.31.28a11.87 11.87 0 0 0 6 3 12.18 12.18 0 0 0 2.09.2z" fill="#f8b881"/><path d="M288.43 117.38a8.29 8.29 0 0 1 0 16.59v3.64a11.9 11.9 0 0 0 7.82-2.94c.21-.18.42-.36.62-.56a12.05 12.05 0 0 0 1.47-1.8c.22-.33.43-.67.61-1a11.92 11.92 0 0 0-9.87-17.53h-.66z" fill="#d35715"/><path d="M282.56 131.54a8.29 8.29 0 1 0 0-11.73 8.26 8.26 0 0 0 0 11.73zm6.88-4.63a3.45 3.45 0 0 0-1-.54l-.38-.13-.43-.14a5.35 5.35 0 0 1-.9-.42 3 3 0 0 1-1.4-2.54 2.91 2.91 0 0 1 .42-1.53 3.06 3.06 0 0 1 1.15-1.11 3 3 0 0 1 .72-.29v-1.86h1.71v1.84a3.26 3.26 0 0 1 .74.29 2.93 2.93 0 0 1 1.13 1.09 3.41 3.41 0 0 1 .47 1.58h-2.06a1.21 1.21 0 0 0-.38-.82 1.17 1.17 0 0 0-.81-.3 1 1 0 0 0-.77.31 1.14 1.14 0 0 0-.3.81 1.05 1.05 0 0 0 .3.78 2.34 2.34 0 0 0 .8.46l.26.1.46.15a5.57 5.57 0 0 1 1.65.83 3 3 0 0 1 1.14 2.42 3.42 3.42 0 0 1-1.74 3 3.6 3.6 0 0 1-.86.35v1.83h-1.71v-1.8a3.38 3.38 0 0 1-1.76-1 3 3 0 0 1-.69-1 3.37 3.37 0 0 1-.25-1.2H287a1.45 1.45 0 0 0 .44 1 1.47 1.47 0 0 0 1 .36h.08a1.41 1.41 0 0 0 1-.39 1.33 1.33 0 0 0 .4-1 1.41 1.41 0 0 0-.48-1.13z" fill="#f18831"/><path d="M288.5 129.42h-.08a1.47 1.47 0 0 1-1-.36 1.45 1.45 0 0 1-.44-1h-2.1a3.37 3.37 0 0 0 .25 1.2 3 3 0 0 0 .69 1 3.38 3.38 0 0 0 1.76 1v1.8h1.71v-1.83a3.6 3.6 0 0 0 .86-.35 3.42 3.42 0 0 0 1.74-3 3 3 0 0 0-1.14-2.42 5.57 5.57 0 0 0-1.65-.83l-.46-.15-.26-.1a2.34 2.34 0 0 1-.8-.46 1.05 1.05 0 0 1-.3-.78 1.14 1.14 0 0 1 .3-.81 1 1 0 0 1 .77-.31 1.17 1.17 0 0 1 .81.3 1.21 1.21 0 0 1 .38.82h2.06a3.41 3.41 0 0 0-.47-1.58 2.93 2.93 0 0 0-1.13-1.09 3.26 3.26 0 0 0-.74-.29v-1.84h-1.71v1.86a3 3 0 0 0-.72.29 3.06 3.06 0 0 0-1.15 1.11 2.91 2.91 0 0 0-.42 1.53 3 3 0 0 0 1.4 2.54 5.35 5.35 0 0 0 .9.42l.43.14.38.13a3.45 3.45 0 0 1 1 .54 1.41 1.41 0 0 1 .49 1.13 1.33 1.33 0 0 1-.4 1 1.41 1.41 0 0 1-.96.39zM278.46 81.5h-.08a1.59 1.59 0 0 1-1-.38 1.56 1.56 0 0 1-.46-1.07h-2.22a3.52 3.52 0 0 0 .26 1.27 3.2 3.2 0 0 0 .73 1.11 3.57 3.57 0 0 0 1.87 1v1.91h1.81v-1.9a3.76 3.76 0 0 0 .91-.37 3.59 3.59 0 0 0 1.84-3.18 3.15 3.15 0 0 0-1.2-2.56 5.82 5.82 0 0 0-1.75-.88l-.49-.17-.27-.1a2.61 2.61 0 0 1-.85-.49 1.12 1.12 0 0 1-.32-.83 1.21 1.21 0 0 1 .31-.86 1.07 1.07 0 0 1 .82-.33 1.22 1.22 0 0 1 1.25 1.19h2.18a3.55 3.55 0 0 0-.49-1.67 3.11 3.11 0 0 0-1.2-1.16 3.6 3.6 0 0 0-.78-.3v-2h-1.82v2a3.44 3.44 0 0 0-2 1.49 3.11 3.11 0 0 0-.45 1.62 3.22 3.22 0 0 0 .4 1.54 3.18 3.18 0 0 0 1.08 1.15 6.2 6.2 0 0 0 .95.44l.46.14.4.14a3.61 3.61 0 0 1 1.07.58A1.5 1.5 0 0 1 280 80a1.43 1.43 0 0 1-.42 1.06 1.51 1.51 0 0 1-1.12.44z" fill="#f8b881"/><path d="M119.54 126.13a.75.75 0 0 1-.49-.18.74.74 0 0 1-.22-.51h-1.05a1.68 1.68 0 0 0 .13.6 1.51 1.51 0 0 0 .35.53 1.69 1.69 0 0 0 .89.49v.94h.85v-.92a1.78 1.78 0 0 0 .43-.18 1.75 1.75 0 0 0 .64-.63 1.73 1.73 0 0 0 .23-.88 1.5 1.5 0 0 0-.57-1.22 2.77 2.77 0 0 0-.83-.42l-.23-.08h-.13a1.26 1.26 0 0 1-.4-.23.53.53 0 0 1-.15-.39.57.57 0 0 1 .15-.41.51.51 0 0 1 .39-.16.58.58 0 0 1 .59.56h1a1.68 1.68 0 0 0-.23-.8 1.47 1.47 0 0 0-.57-.55 1.67 1.67 0 0 0-.37-.14v-.93h-.86v.93a1.6 1.6 0 0 0-.36.15 1.54 1.54 0 0 0-.58.56 1.49 1.49 0 0 0-.22.77 1.53 1.53 0 0 0 .19.73 1.5 1.5 0 0 0 .52.55 2.85 2.85 0 0 0 .45.21l.22.07.19.07a1.72 1.72 0 0 1 .51.28.71.71 0 0 1 .25.57.68.68 0 0 1-.2.5.71.71 0 0 1-.52.12zM285 91.12a.75.75 0 0 1-.49-.18.75.75 0 0 1-.22-.51h-1.05a1.69 1.69 0 0 0 .12.6 1.53 1.53 0 0 0 .35.53 1.7 1.7 0 0 0 .89.49V93h.86v-1a1.79 1.79 0 0 0 .43-.18 1.71 1.71 0 0 0 .87-1.51 1.5 1.5 0 0 0-.57-1.22 2.78 2.78 0 0 0-.83-.42l-.23-.08H285a1.25 1.25 0 0 1-.4-.23.53.53 0 0 1-.15-.39.57.57 0 0 1 .15-.41.51.51 0 0 1 .39-.16.58.58 0 0 1 .59.56h1a1.68 1.68 0 0 0-.23-.8 1.48 1.48 0 0 0-.57-.55 1.72 1.72 0 0 0-.37-.14v-.93h-.86v.93a1.57 1.57 0 0 0-.36.15 1.55 1.55 0 0 0-.58.56 1.48 1.48 0 0 0-.22.77 1.53 1.53 0 0 0 .71 1.28 2.89 2.89 0 0 0 .45.21l.22.07.19.07a1.72 1.72 0 0 1 .51.28.71.71 0 0 1 .25.57.68.68 0 0 1-.2.5.72.72 0 0 1-.52.19z" fill="#74c8d7"/><path d="M110.44 123h-.08a1.63 1.63 0 0 1-1.7-1.64h-2.51a4 4 0 0 0 .3 1.44 3.62 3.62 0 0 0 .83 1.26 4 4 0 0 0 2.12 1.17v2.17h2.05v-2.19a4.22 4.22 0 0 0 1-.42 4.06 4.06 0 0 0 2.08-3.61 3.57 3.57 0 0 0-1.36-2.9 6.61 6.61 0 0 0-2-1l-.55-.19-.31-.12a3 3 0 0 1-1-.56 1.27 1.27 0 0 1-.36-.94 1.37 1.37 0 0 1 .36-1 1.22 1.22 0 0 1 .93-.37 1.38 1.38 0 0 1 1.41 1.35h2.48a4 4 0 0 0-.56-1.9 3.52 3.52 0 0 0-1.36-1.32 4.06 4.06 0 0 0-.88-.34v-2.21h-2.06v2.23a3.9 3.9 0 0 0-2.25 1.69 3.53 3.53 0 0 0-.51 1.83 3.64 3.64 0 0 0 .46 1.75 3.6 3.6 0 0 0 1.23 1.31 6.9 6.9 0 0 0 1.07.5l.52.16.45.16a4.09 4.09 0 0 1 1.21.66 1.7 1.7 0 0 1 .59 1.35 1.61 1.61 0 0 1-.48 1.19 1.7 1.7 0 0 1-1.12.49z" fill="#12abc3"/><path fill="#f18831" d="M245.86 57.87h-.04l-.03.05-.02-.05h-3.24l-.03.05-.02-.05h-3.24l-.03.05-.02-.05h-3.24l-.03.05-.03-.05h-.08v1.46h10.05v-1.46z"/><path d="M242.24 62.87v-2.08h3.63v-1.46h-10.06v1.46h3.48v2.11a7.9 7.9 0 0 1 3 0z" fill="#d35715"/><path d="M240.84 64.83a6.22 6.22 0 0 0-4.4 10.63l8.8-8.8a6.21 6.21 0 0 0-4.4-1.83z" fill="#f18831"/><path d="M247.06 71.05a6.2 6.2 0 0 0-1.83-4.4l-8.8 8.8a6.22 6.22 0 0 0 10.63-4.4z" fill="#d35715"/><path d="M248.7 73.71a8.3 8.3 0 1 0-7.86 5.65h.73a8.25 8.25 0 0 0 3.09-.9 8.34 8.34 0 0 0 4.04-4.75zm-7.86 3.57a6.22 6.22 0 1 1 6.23-6.23 6.21 6.21 0 0 1-6.23 6.23z" fill="#f8b881"/><path d="M242.5 52.21l2.2-3.81-2.94-.61-.91 1.57z" fill="#10606e"/><path d="M244.7 48.39l-2.2 3.81 1.65 2.86 3.47-6z" fill="#012428"/><path d="M244.15 55.06l1.62 2.81h.05l4.69-8.14-2.9-.68z" fill="#9f4216"/><path fill="#be8639" d="M245.82 57.87h-.05l.02.05.03-.05z"/><path fill="#4297a0" d="M235.95 57.87h-.06l.03.05.03-.05z"/><path d="M235.95 57.87h3.24l-1.62-2.81-5.15-8.94c-1.19-.18-2.39-.36-3.59-.53l7.07 12.27z" fill="#12abc3"/><path fill="#b4231d" d="M239.24 57.87h-.05l.02.05.03-.05z"/><path d="M242.48 57.87l-1.62-2.81-1.65-2.86-3.16-5.48q-1.81-.31-3.63-.6l5.15 8.94 1.62 2.81h3.29z" fill="#063b5a"/><path fill="#d35715" d="M242.53 57.87h-.05l.02.05.03-.05z"/><path d="M239.21 52.21l1.65 2.86 1.62 2.81h3.29l-1.62-2.81-1.65-2.86-1.64-2.86-1.13-2q-1.83-.35-3.67-.67z" fill="#d35715"/><ellipse cx="197.61" cy="101.23" rx="39.7" ry="40.69" fill="#012428"/><path d="M205.85 111.94l6.68 6.85a1.22 1.22 0 0 0 1.75 0l2.82-2.89a1.33 1.33 0 0 0 0-1.82l-6.68-6.85a22.64 22.64 0 0 0-2.14-28.81 21.27 21.27 0 0 0-30.6 0 22.56 22.56 0 0 0 0 31.35 21.24 21.24 0 0 0 28.17 2.17z" fill="#ecf0f0"/><path d="M211.12 108.2v9.35l1.3 1.24a1.33 1.33 0 0 0 1.84 0l2.8-2.89a1.33 1.33 0 0 0-.06-1.82z" style="isolation:isolate" fill="#5e5e5e" opacity=".3"/><path d="M181.45 82.33a16 16 0 0 1 23 0 17 17 0 0 1 0 23.61 16 16 0 0 1-23 0 17 17 0 0 1 0-23.61z" fill="#76bfd7"/><path d="M182.18 105.2a15.94 15.94 0 0 1 0-22.12 15 15 0 0 1 21.58 0 15.94 15.94 0 0 1 0 22.12 15 15 0 0 1-21.58 0z" fill="#86cfeb"/><path d="M179.18 79.14c-.75.66.34 1.77 1.09 1.11a18.55 18.55 0 0 1 11.42-4.63 18.78 18.78 0 0 1 11.65 3.46c.81.58 1.57-.8.76-1.37a20 20 0 0 0-12.68-3.65 20.36 20.36 0 0 0-12.23 5.08z" fill="#fcfefe"/><path d="M182.07 93.32a6.24 6.24 0 0 1 9 0 6.62 6.62 0 0 1 0 9.2 6.24 6.24 0 0 1-9 0 6.62 6.62 0 0 1 0-9.2zm.29-7.27a1.71 1.71 0 0 1 2.46 0 1.82 1.82 0 0 1 0 2.53 1.71 1.71 0 0 1-2.46 0 1.82 1.82 0 0 1 0-2.53z" fill="#b5e1f6"/><path d="M210.17 118l13.55 13.89a40.57 40.57 0 0 0 5.59-6.15L216 112.06c-1.63-1.63-7.43 4.3-5.83 5.94z" fill="#344e5d"/><path d="M220.36 128.46v-11.87l-4.36-4.53c-1.59-1.63-7.34 4.31-5.75 5.94z" style="isolation:isolate" fill="#5e5e5e" opacity=".3"/><path d="M207.63 117.63a1.07 1.07 0 0 1 0-1.48l6.59-6.75a1 1 0 0 1 1.45 0l1.67 1.71a1.07 1.07 0 0 1 0 1.48l-6.59 6.75a1 1 0 0 1-1.45 0z" fill="#efc849"/><path fill="#a2d7e2" d="M225.22 125.4v4.21h5.6v-10.69h-12.11l6.49 6.48h.02z"/><path fill="#0c5662" d="M218.71 118.92v6.48h6.49l-6.49-6.48z"/><path fill="#12abc3" d="M224.33 112.43v6.49h6.49l-6.49-6.49z"/><path fill="#a2d7e2" d="M172.38 125.4l6.49-6.48h-12.11v10.69h5.62v-4.21z"/><path fill="#12abc3" d="M198.78 125.4h-26.4v9.83l.43.43-.43-.43v.87h52.84v-10.7h-26.44z"/><path fill="#0c5662" d="M172.38 125.4h6.49v-6.48l-6.49 6.48z"/><path fill="#12abc3" d="M173.25 112.43l-6.49 6.49h6.49v-6.49z"/></svg>