<svg xmlns="http://www.w3.org/2000/svg" viewBox="0 0 400 225"><g style="isolation:isolate"><path fill="#74b7ff" d="M0 0h400v225H0z"/><path d="M400 143.2l-57.35-59.47h-64.86v2.74l-36.7-38.06h-83v34.18h-23.57a3.08 3.08 0 0 0-3.07 3.08v10.52l-12-12.49H54.51V178l45.36 47H400z" style="mix-blend-mode:multiply" fill="#f2f2f2" fill-rule="evenodd"/><path fill="#fffdff" d="M54.51 83.7h64.86v94.26H54.51z"/><path fill="#fffdff" d="M54.51 134.78h64.86v43.18H54.51z"/><path fill="#ee835d" d="M88.34 143.48h27.42v12.57H88.34z"/><path fill="#0c85b8" d="M58.12 143.48h27.42v12.57H58.12z"/><path style="mix-blend-mode:multiply" fill="#d7d7d7" d="M88.34 173.95h27.42v.81H88.34zm-30.22 0h27.42v.81H58.12zm30.22-1.61h27.42v.81H88.34zm-30.22 0h27.42v.81H58.12zm30.22-1.61h27.42v.81H88.34zm-30.22 0h27.42v.81H58.12zm30.22-1.62h27.42v.81H88.34zm-30.22 0h27.42v.81H58.12zm0-1.61h27.42v.81H58.12zm30.22 0h27.42v.81H88.34zm-30.22-1.62h27.42v.81H58.12zm30.22 0h27.42v.81H88.34zm-30.22-1.61h27.42v.81H58.12zm30.22 0h27.42v.81H88.34zm-30.22-1.61h27.42v.81H58.12zm30.22 0h27.42v.81H88.34zm0-1.62h27.42v.81H88.34zm-30.22 0h27.42v.81H58.12zm0-1.61h27.42v.81H58.12zm30.22 0h27.42v.81H88.34zm-30.22-1.61h27.42v.81H58.12zM91.93 105h10.52v.46H91.93zm0-.93h10.52v.46H91.93zm0-.92h10.52v.46H91.93zm0-.93h10.52v.46H91.93zm0-.92h10.52v.46H91.93zm0-.93h10.52v.46H91.93zm0-.93h10.52v.46H91.93zm0-.92h10.52v.46H91.93zm0-.93h10.52v.46H91.93zm0-.92h10.52v.46H91.93zm0-.93h10.52v.46H91.93zm-3.59 62.08h27.42v.81H88.34z"/><path fill="#00a9b1" d="M54.51 83.7h64.9v2.26h-64.9z"/><circle cx="117.78" cy="84.79" r=".53" fill="#e7e5e4"/><circle cx="116.02" cy="84.79" r=".53" fill="#e7e5e4"/><path fill="#4dbbcd" d="M54.51 88.07h64.86v5.29H54.51z"/><path fill="#fff" d="M95.86 89.56h19.9v2.32h-19.9z"/><path fill="#fff37f" d="M58.12 89.94h6v1.56h-6zm6.49 0h6v1.56h-6zm6.5 0h6v1.56h-6zm6.49 0h6v1.56h-6z"/><path d="M116.62 90.13a.62.62 0 1 0 .88 0 .62.62 0 0 0-.88 0zm.44.91a.47.47 0 1 1 .46-.47.47.47 0 0 1-.46.43z" fill="#fff" fill-rule="evenodd"/><path d="M117.54 91l-.07.06.14.14.15-.15-.14-.14zm.25.11l-.18.18.54.54a.13.13 0 1 0 .18-.18zm-.79-.24a.21.21 0 0 1-.2-.12h-.05v.06a.29.29 0 0 0 .25.19h.13v-.05h-.05z" fill="#fff" fill-rule="evenodd"/><path fill="#4dbbcd" d="M54.51 122.02h64.89v19.24H54.51z"/><path fill="#fff37f" d="M59.09 126.07h16.79v12.88H59.09z"/><path fill="#fff" d="M80.22 130.59h26.87v.42H80.22zm0 1.05h26.87v.42H80.22zm0 1.04h26.87v.42H80.22zm0 1.05h17.7v.42h-17.7z"/><path fill="#fff37f" fill-rule="evenodd" d="M56.18 132.51l.8.43.8.44v-1.75l-.8.44-.8.44zm59.95-.88v1.75l.8-.44.8-.43-.8-.44-.8-.44z"/><path fill="#ee835d" d="M58.12 95.67h29.51v22.57H58.12z"/><path fill="#aacc05" d="M105.44 95.67h10.32v9.8h-10.32z"/><path fill="#f7bc7b" d="M105.44 108.49h10.32v9.8h-10.32z"/><path fill="#4f638f" d="M89.54 95.71h.11v22.63h-.11z"/><path style="mix-blend-mode:multiply" fill="#d7d7d7" d="M91.93 117.71h10.52v.46H91.93zm0-.92h10.52v.46H91.93zm0-.93h10.52v.46H91.93zm0-.93h10.52v.46H91.93zm0-.92h10.52v.46H91.93zm0-.93h10.52v.46H91.93zm0-.93h10.52v.46H91.93zm0-.92h10.52v.46H91.93zm0-.93h10.52v.46H91.93zm0-.92h10.52v.46H91.93zm0-.93h10.52v.46H91.93z"/><path d="M264.61 82.59H134.52a3.08 3.08 0 0 0-3.07 3.08v79.79h136.23V85.67a3.08 3.08 0 0 0-3.07-3.08z" fill="#343436" fill-rule="evenodd"/><path fill="#eeeeef" fill-rule="evenodd" d="M186.97 177.34l-3.71 14.22h34.91l-3.71-14.22h-27.49z"/><path d="M131.45 174.71a3.08 3.08 0 0 0 3.07 3.08h130.09a3.08 3.08 0 0 0 3.07-3.08v-9.25H131.45z" fill="#fff" fill-rule="evenodd"/><path fill="#dbdcdc" fill-rule="evenodd" d="M183.26 191.56l-5.38.66v1.7h45.67v-1.7l-5.38-.66h-34.91z"/><path fill="#e7e8ea" d="M135.67 87.99h127.78v72.08H135.67z"/><path fill="#b9babc" d="M135.67 87.99h127.78v7.51H135.67z"/><path d="M251.24 89.86H151a.71.71 0 0 0-.7.71v1.64a.71.71 0 0 0 .7.71h100.2a.71.71 0 0 0 .7-.71v-1.64a.71.71 0 0 0-.66-.71z" fill="#e7e8ea" fill-rule="evenodd"/><path fill="#fffdff" d="M158.09 48.41h82.95v111.66h-82.95z"/><path fill="#f19b78" d="M161.76 117.57h23.45v16.07h-23.45z"/><path fill="#fff37f" d="M213.45 117.57h23.45v16.07h-23.45z"/><path fill="#0c85b8" d="M187.6 117.57h23.45v16.07H187.6z"/><path style="mix-blend-mode:multiply" fill="#d7d7d7" d="M187.6 153.93h6.05v.89h-6.05zm25.85 0h11.73v.89h-11.73zm-51.69 0h18.73v.89h-18.73zm51.69-1.77h23.45v.88h-23.45zm-25.85 0h23.45v.88H187.6zm-25.84 0h23.45v.88h-23.45zm25.84-1.77h23.45v.88H187.6zm-25.84 0h23.45v.88h-23.45zm51.69 0h23.45v.88h-23.45zm-25.85-1.77h23.45v.88H187.6zm25.85 0h23.45v.88h-23.45zm-51.69 0h23.45v.88h-23.45zm0-1.77h23.45v.88h-23.45zm25.84 0h23.45v.88H187.6zm25.85 0h23.45v.88h-23.45zm-51.69-1.77h23.45v.88h-23.45zm25.84 0h23.45v.88H187.6zm25.85 0h23.45v.88h-23.45zm0-1.77h23.45v.88h-23.45zm-51.69 0h23.45v.88h-23.45zm25.84 0h23.45v.88H187.6zm-25.84-1.77h23.45v.89h-23.45zm51.69 0h23.45v.89h-23.45zm-25.85 0h23.45v.89H187.6zm25.85-1.76h23.45v.88h-23.45zm-25.85 0h23.45v.88H187.6zm-25.84 0h23.45v.88h-23.45zm0-1.77h23.45v.88h-23.45zm51.69 0h23.45v.88h-23.45zm-25.85 0h23.45v.88H187.6zm-25.84-1.77h23.45v.88h-23.45zm51.69 0h23.45v.88h-23.45zm-25.85 0h23.45v.88H187.6z"/><path fill="#00a9b1" d="M158.09 48.41h83v2.89h-83z"/><circle cx="239" cy="49.81" r=".67" fill="#e7e5e4"/><circle cx="236.75" cy="49.81" r=".67" fill="#e7e5e4"/><path fill="#4dbbcd" d="M158.04 54h83.04v6.77h-83.04z"/><path fill="#fff" d="M210.97 55.9h25.45v2.97h-25.45z"/><path fill="#fff37f" d="M163.69 56.39h7.45v2h-7.45zm8.05 0h7.45v2h-7.45zm8.06 0h7.45v2h-7.45zm8.05 0h7.45v2h-7.45z"/><path d="M237.53 56.64a.79.79 0 1 0 1.12 0 .79.79 0 0 0-1.12 0zm.56 1.16a.61.61 0 1 1 .59-.61.6.6 0 0 1-.59.61z" fill="#fff" fill-rule="evenodd"/><path d="M238.7 57.81l-.09.08.18.18.19-.19-.18-.18zm.3.08l-.23.23.69.7a.16.16 0 1 0 .23-.23zm-1-.3a.26.26 0 0 1-.25-.16.05.05 0 0 0-.07 0 .05.05 0 0 0 0 .07.37.37 0 0 0 .35.23.44.44 0 0 0 .17 0 .05.05 0 0 0 0-.07.05.05 0 0 0-.07 0z" fill="#fff" fill-rule="evenodd"/><path fill="#4dbbcd" d="M158.09 89.07h82.99v24.61h-82.99z"/><path fill="#fff37f" d="M165.59 93.13h21.48v16.47h-21.48z"/><path fill="#fff" d="M192.61 98.92h34.36v.54h-34.36zm0 1.34h34.36v.54h-34.36zm0 1.33h34.36v.54h-34.36zm0 1.34h22.64v.54h-22.64z"/><path fill="#fff37f" fill-rule="evenodd" d="M158.74 101.37l1.02.56 1.03.56v-2.23l-1.03.55-1.02.56zm79.34-1.11v2.23l1.02-.56 1.02-.56-1.02-.56-1.02-.55z"/><g data-name="&lt;Groupe&gt;"><path data-name="&lt;Tracé&gt;" d="M176.86 72.2v2h4.88a4.33 4.33 0 0 1-1.11 2.57 5 5 0 0 1-3.77 1.5 5.43 5.43 0 0 1 0-10.86 5.19 5.19 0 0 1 3.68 1.46l1.46-1.4a7.06 7.06 0 0 0-5.12-2.08 7.48 7.48 0 1 0 0 15 6.85 6.85 0 0 0 5.22-2.09 6.76 6.76 0 0 0 1.77-4.78 6.57 6.57 0 0 0-.11-1.28z" fill="#4285f4"/><path data-name="&lt;Tracé transparent&gt;" d="M190 70.54a4.83 4.83 0 1 0 4.84 4.83 4.76 4.76 0 0 0-4.84-4.83zm0 7.75a2.93 2.93 0 1 1 2.72-2.92 2.79 2.79 0 0 1-2.72 2.92z" fill="#ea4335"/><path data-name="&lt;Tracé transparent&gt;" d="M213.69 71.62h-.07a3.35 3.35 0 0 0-2.54-1.08 4.84 4.84 0 0 0 0 9.65 3.3 3.3 0 0 0 2.54-1.1h.07v.67c0 1.84-1 2.83-2.57 2.83a2.68 2.68 0 0 1-2.43-1.72l-1.84.76a4.6 4.6 0 0 0 4.28 2.85c2.48 0 4.59-1.46 4.59-5v-8.69h-2zm-2.43 6.67a2.95 2.95 0 1 1 2.57-2.91 2.7 2.7 0 0 1-2.57 2.91z" fill="#4285f4"/><path data-name="&lt;Tracé transparent&gt;" d="M200.75 70.54a4.83 4.83 0 1 0 4.84 4.83 4.76 4.76 0 0 0-4.84-4.83zm0 7.75a2.93 2.93 0 1 1 2.72-2.92 2.79 2.79 0 0 1-2.72 2.92z" fill="#fbbc05"/><path data-name="&lt;Tracé&gt;" d="M217.37 65.6h2.08v14.59h-2.08z" fill="#34a853"/><path data-name="&lt;Tracé transparent&gt;" d="M225.89 78.29a2.46 2.46 0 0 1-2.34-1.46l6.45-2.67-.22-.55a4.48 4.48 0 0 0-4.13-3.07 4.59 4.59 0 0 0-4.55 4.83 4.72 4.72 0 0 0 4.78 4.83 4.81 4.81 0 0 0 4-2.13L228.26 77a2.76 2.76 0 0 1-2.38 1.33zm-.15-5.94a1.91 1.91 0 0 1 1.83 1.06l-4.36 1.8a2.62 2.62 0 0 1 2.53-2.86z" fill="#ea4335"/></g><path fill="#fffdff" d="M277.79 83.73h64.82v94.2h-64.82z"/><path fill="#fffdff" d="M277.79 134.78h64.82v43.15h-64.82z"/><path fill="#00a9b1" d="M277.79 83.73h64.86v2.26h-64.86z"/><circle cx="341.02" cy="84.82" r=".53" fill="#e7e5e4"/><circle cx="339.26" cy="84.82" r=".53" fill="#e7e5e4"/><path fill="#4dbbcd" d="M277.79 88.1h64.82v5.29h-64.82z"/><path fill="#fff" d="M319.11 89.58H339v2.32h-19.89z"/><path fill="#fff37f" d="M281.4 89.96h6v1.56h-6zm6.49 0h6v1.56h-6zm6.49 0h6v1.56h-6zm6.49 0h6v1.56h-6z"/><path d="M339.86 90.16a.62.62 0 1 0 .87 0 .62.62 0 0 0-.87 0zm.44.91a.47.47 0 1 1 .46-.47.47.47 0 0 1-.46.47z" fill="#fff" fill-rule="evenodd"/><path d="M340.78 91.07l-.07.06.14.14.15-.15-.14-.14zm.22.06l-.18.18.54.54a.13.13 0 0 0 .18-.18zm-.74-.23a.21.21 0 0 1-.2-.12h-.05v.06a.29.29 0 0 0 .27.18h.13v-.06h-.05z" fill="#fff" fill-rule="evenodd"/><path fill="#f5ac3c" d="M281.4 141.93H339v19.38h-57.6z"/><path fill="#ada3ce" d="M281.23 97.44h16.21v28.54h-16.21z"/><path style="mix-blend-mode:multiply" fill="#d7d7d7" d="M281.4 138.64h6.99v.46h-6.99zm0-.91h16.05v.46H281.4zm0-.91h16.05v.46H281.4zm0-.91h16.05v.46H281.4zm0-.91h16.05v.46H281.4zm0-.91h16.05v.46H281.4zm0-.91h16.05v.46H281.4zm0-.91h16.05v.46H281.4zm0-.91h16.05v.45H281.4zm0-.91h16.05v.46H281.4zm0-.91h16.05v.46H281.4zm0 42.53h42.36v.46H281.4zm0-.91H339v.46h-57.6zm0-.91H339v.46h-57.6zm0-.91H339v.45h-57.6zm0-.91H339v.46h-57.6zm0-.91H339v.46h-57.6zm0-.91H339v.46h-57.6zm0-.91H339v.46h-57.6zm0-.91H339v.45h-57.6zm0-.91H339v.46h-57.6zm0-.91H339v.46h-57.6z"/><path fill="#aacc05" d="M302.01 97.44h16.21v28.54h-16.21z"/><path fill="#ee835d" d="M322.79 97.44H339v28.54h-16.21z"/><path style="mix-blend-mode:multiply" fill="#d7d7d7" d="M302.01 138.64H309v.46h-6.99zm0-.91h16.05v.46h-16.05zm0-.91h16.05v.46h-16.05zm0-.91h16.05v.46h-16.05zm0-.91h16.05v.46h-16.05zm0-.91h16.05v.46h-16.05zm0-.91h16.05v.46h-16.05zm0-.91h16.05v.46h-16.05zm0-.91h16.05v.45h-16.05zm0-.91h16.05v.46h-16.05zm0-.91h16.05v.46h-16.05zm20.78 9.1h7.07v.46h-7.07zm0-.91H339v.46h-16.21zm0-.91H339v.46h-16.21zm0-.91H339v.46h-16.21zm0-.91H339v.46h-16.21zm0-.91H339v.46h-16.21zm0-.91H339v.46h-16.21zm0-.91H339v.46h-16.21zm0-.91H339v.45h-16.21zm0-.91H339v.46h-16.21zm0-.91H339v.46h-16.21z"/><path d="M314.29 200.83l-83.21-86.29q-.44-.46-.91-.89l-.07-.06c-.3-.28-.6-.55-.9-.81l-.15-.12c-.28-.24-.57-.47-.86-.7l-.16-.12c-.29-.22-.59-.44-.89-.65l-.14-.1q-.48-.33-1-.63l-.09-.06q-.53-.33-1.07-.63a26.65 26.65 0 0 0-28.45 1.57 27 27 0 0 0-3.7 40.66l27.68 28.71a3.79 3.79 0 0 0 1 1.92l6.21 6.44a3.75 3.75 0 0 0 .37.44L262.16 225h92.71z" style="mix-blend-mode:multiply" fill="#f2f2f2" fill-rule="evenodd"/><path d="M244.87 168.61a3.76 3.76 0 0 0-5.19.78l-12.06 15.31a3.71 3.71 0 0 0 .77 5.21 3.75 3.75 0 0 0 5.19-.78l12.06-15.31a3.75 3.75 0 0 0-.77-5.21z" fill="#d1ab89" fill-rule="evenodd"/><path d="M249.22 168.49a3.76 3.76 0 0 0-5 1.6l-9.48 17a3.71 3.71 0 0 0 1.59 5 3.76 3.76 0 0 0 5-1.59l9.49-17a3.75 3.75 0 0 0-1.6-5.01z" fill="#d1ab89" fill-rule="evenodd"/><path fill="#d1ab89" fill-rule="evenodd" d="M235.44 168.67l-6.36 10.8 29.21 10.86 10.4-7.5-14.62-19.17-18.63 5.01z"/><path d="M250.89 167.67a3.77 3.77 0 0 0-4.38 2.9l-4.52 19a3.7 3.7 0 0 0 2.89 4.4 3.76 3.76 0 0 0 4.38-2.9l4.52-19a3.74 3.74 0 0 0-2.89-4.4z" fill="#d1ab89" fill-rule="evenodd"/><path d="M264.17 179c-7.71.62-14.08 5.2-15.2 7.92s1.74 10 9.16 12.38 14.56.66 16.54-4.55-2.79-16.36-10.5-15.75z" fill="#f9d2b2" fill-rule="evenodd"/><path d="M256.86 160.08a3.71 3.71 0 0 0-5.24.23c-1.38 1.51-1 3.61.23 5.27l14.47 20.27c1.18 1.66 3.86 1.28 5.24-.23s1-3.6-.23-5.27z" fill="#f9d2b2" fill-rule="evenodd"/><path d="M253.49 159.2l-15.73 2.9a3.85 3.85 0 0 0-1.43.55 4 4 0 0 0-1.4.92L221.3 177.5a3.71 3.71 0 0 0 .21 5.27 3.75 3.75 0 0 0 5.25-.21l13-13.23 14.85-2.74a3.74 3.74 0 0 0 3.13-4.23 3.68 3.68 0 0 0-4.25-3.16zm5.67 35.17l9.73 6.42 9.73-16.3-11.59-7.33-7.87 17.21z" fill="#f9d2b2" fill-rule="evenodd"/><path fill="#fff" fill-rule="evenodd" d="M265.39 202.51l6.35 3.9 12.56-20.64-6.34-3.9-12.57 20.64z"/><path fill="#4f5253" fill-rule="evenodd" d="M285.56 183.71l-15.07 24.76L298.14 225h56.73l-69.31-41.29z"/><path fill="#68696b" fill-rule="evenodd" d="M285.56 183.71l-7.54 12.38L326.33 225h28.54l-69.31-41.29z"/><path d="M235.5 157.44a1.73 1.73 0 0 0-2.4-.41l-5.93 4.22a1.74 1.74 0 0 0-.41 2.42l24.29 34.44a1.73 1.73 0 0 0 2.41.41l5.93-4.22a1.74 1.74 0 0 0 .41-2.42z" fill="#394952" fill-rule="evenodd"/><path d="M255.9 183l-24-5.42a4.37 4.37 0 0 0-5.17 3.37 4.51 4.51 0 0 0 3.36 5.19l23.46 10.76c2.3.66 6.12 2 6.62-.32l1-4.94c.5-2.39-2.96-8-5.27-8.64z" fill="#f9d2b2" fill-rule="evenodd"/><path d="M243.27 166.56c2.43 2.53 8 11.19-.51 13.75s22.58 11 22.58 11l1.2-14.51s-11.25-13.52-23.27-10.24z" fill="#f9d2b2" fill-rule="evenodd"/><path fill="#7e7d7f" fill-rule="evenodd" d="M223.02 155.32l4.17 5.91 5.89-4.19-4.17-5.91-5.89 4.19z"/><path d="M197 112.2a25.89 25.89 0 0 0-6.11 36 25.63 25.63 0 0 0 35.83 6.14 25.89 25.89 0 0 0 6.11-36A25.63 25.63 0 0 0 197 112.2zm27.43 38.88a21.68 21.68 0 0 1-30.3-5.19 21.9 21.9 0 0 1 5.17-30.44 21.68 21.68 0 0 1 30.3 5.19 21.9 21.9 0 0 1-5.15 30.44z" fill="#68696b" fill-rule="evenodd"/><path d="M196.42 111.33a27 27 0 0 0-6.36 37.47 26.68 26.68 0 0 0 37.3 6.39 27 27 0 0 0 6.36-37.47 26.68 26.68 0 0 0-37.3-6.39zM225 151.81a22.57 22.57 0 0 1-31.55-5.41 22.8 22.8 0 0 1 5.38-31.69 22.56 22.56 0 0 1 31.55 5.41 22.8 22.8 0 0 1-5.38 31.69z" fill="#343436" fill-rule="evenodd"/><path d="M194.54 130.55a20.43 20.43 0 0 1 7.59-15.48 20.46 20.46 0 0 0 8.46 38.82 20.21 20.21 0 0 0 13.2-4.51 20.34 20.34 0 0 1-29.25-18.83z" fill="#cadee8" fill-rule="evenodd"/></g></svg>