<svg xmlns="http://www.w3.org/2000/svg" xmlns:xlink="http://www.w3.org/1999/xlink" viewBox="0 0 400.18 225"><defs><linearGradient id="e" x1="215.56" y1="168.67" x2="242.52" y2="144.79" gradientUnits="userSpaceOnUse"><stop offset=".01" stop-color="#fff"/><stop offset="1"/></linearGradient><linearGradient id="g" x1="205.19" y1="196.26" x2="236.24" y2="23.98" gradientUnits="userSpaceOnUse"><stop offset="0" stop-color="#3d2868"/><stop offset=".16" stop-color="#532c6c"/><stop offset=".5" stop-color="#8c3776"/><stop offset=".98" stop-color="#e74885"/><stop offset="1" stop-color="#ea4986"/></linearGradient><linearGradient id="a" x1="106.4" y1="174.31" x2="105.47" y2="175.93" gradientUnits="userSpaceOnUse"><stop offset="0" stop-color="#ef82ab"/><stop offset="1" stop-color="#a0509a"/></linearGradient><linearGradient id="b" x1="161.33" y1="190.43" x2="162.32" y2="192.14" gradientUnits="userSpaceOnUse"><stop offset="0" stop-color="#ed70a8"/><stop offset=".41" stop-color="#bd5d9f"/><stop offset="1" stop-color="#7b4393"/></linearGradient><linearGradient id="h" x1="152.45" y1="79.43" x2="153.36" y2="77.87" xlink:href="#a"/><linearGradient id="i" x1="175.82" y1="109.73" x2="177.76" y2="109.73" xlink:href="#b"/><linearGradient id="j" x1="255.54" y1="116.93" x2="256.22" y2="115.76" xlink:href="#a"/><linearGradient id="k" x1="269.58" y1="135.7" x2="271.08" y2="135.7" xlink:href="#b"/><filter id="c" x="181.1" y="152.02" width="75.19" height="27.77" filterUnits="userSpaceOnUse" color-interpolation-filters="sRGB"><feFlood flood-color="#fff" result="bg"/><feBlend in="SourceGraphic" in2="bg"/></filter><mask id="l" x="181.1" y="152.02" width="75.19" height="27.77" maskUnits="userSpaceOnUse"><g data-name="&lt;Groupe&gt;" filter="url(#c)"><g mask="url(#d)"><path data-name="&lt;Tracé&gt;" style="mix-blend-mode:multiply" fill="url(#e)" d="M208.18 152.02H181.1l48.1 27.77h27.09l-48.11-27.77z"/></g></g></mask><linearGradient id="m" x1="215.56" y1="168.67" x2="242.52" y2="144.79" gradientUnits="userSpaceOnUse"><stop offset=".01" stop-color="#cbd2d9"/><stop offset="1" stop-color="#eeeef8"/></linearGradient><linearGradient id="n" x1="205.83" y1="132.03" x2="206.75" y2="130.46" xlink:href="#a"/><linearGradient id="o" x1="229.21" y1="162.32" x2="231.15" y2="162.32" xlink:href="#b"/><linearGradient id="p" x1="135.16" y1="19.48" x2="136.07" y2="17.91" xlink:href="#a"/><linearGradient id="q" x1="158.53" y1="49.77" x2="160.47" y2="49.77" xlink:href="#b"/><linearGradient id="r" x1="275.12" y1="81.28" x2="276.04" y2="79.71" xlink:href="#a"/><linearGradient id="s" x1="298.5" y1="111.57" x2="300.44" y2="111.57" xlink:href="#b"/><linearGradient id="t" x1="214.17" y1="28.6" x2="215.09" y2="27.03" xlink:href="#a"/><linearGradient id="u" x1="237.55" y1="58.89" x2="239.49" y2="58.89" xlink:href="#b"/><linearGradient id="v" x1="161.49" y1="150.71" x2="161.49" y2="87.43" gradientUnits="userSpaceOnUse"><stop offset="0" stop-color="#ea4986"/><stop offset=".3" stop-color="#ad3d7b"/><stop offset=".63" stop-color="#713271"/><stop offset=".87" stop-color="#4b2b6a"/><stop offset="1" stop-color="#3d2868"/></linearGradient><linearGradient id="d" x1="152.42" y1="114.54" x2="152.42" y2="74.65" gradientUnits="userSpaceOnUse"><stop offset="0" stop-color="#ea4986"/><stop offset=".01" stop-color="#ea4a85"/><stop offset=".48" stop-color="#f38656"/><stop offset=".82" stop-color="#f9ac39"/><stop offset="1" stop-color="#fbba2e"/></linearGradient><linearGradient id="w" x1="163.73" y1="473.16" x2="163.73" y2="426.6" gradientTransform="matrix(.87 .5 0 1.15 101.31 -404.21)" xlink:href="#d"/><linearGradient id="f" x1="252.85" y1="179.77" x2="252.85" y2="155.08" gradientUnits="userSpaceOnUse"><stop offset="0" stop-color="#f18553"/><stop offset=".02" stop-color="#f18752"/><stop offset=".66" stop-color="#f8ac38"/><stop offset="1" stop-color="#fbba2e"/></linearGradient><linearGradient id="x" x1="247.97" y1="199.84" x2="251.8" y2="199.84" xlink:href="#f"/></defs><g style="isolation:isolate"><path fill="#3d2868" d="M0 0h400v225H0z" data-name="Calque 3"/><path d="M0 225s9.3-93.51 114.48-128.51 160 60.22 226 26.45S400 0 400 0v225z" fill="#6c73a2" data-name="Calque 2"/><g data-name="Calque 1"><g data-name="seo map"><g data-name="&lt;Groupe&gt;"><path data-name="&lt;Tracé&gt;" fill="url(#g)" d="M155.95 5.71V121.9l132.44 76.46V82.18L155.95 5.71z"/><g data-name="&lt;Groupe&gt;" opacity=".52" fill="#c5c4dc"><path data-name="&lt;Tracé&gt;" d="M162.87 55.91a1.66 1.66 0 0 1 .84.83c-.31.1-.58-.22-.84-.54zm92.76 46.28c.09.1.25.21.27.29a1.51 1.51 0 0 0 1.19 1.29 1 1 0 0 1 .48.31 3.38 3.38 0 0 0 2.35 1.44 1.58 1.58 0 0 1 .85.49c.2.21.71.58.11.59-.07 0-.15 0-.09.17a6.93 6.93 0 0 0 1.09 1.75c.29.35.41 0 .58.06a3.47 3.47 0 0 1 1.45.74c.47.4 1 .76 1.08 0 0-.22.19-.18.37-.07l1 .66c.08.05.22.18.22.21.06 1 .49.52.73.6a1.08 1.08 0 0 1 .78.72 2.94 2.94 0 0 0 1.23 1.34c.41.21.82.41 1.23.63a1.41 1.41 0 0 1 .78 1 1.5 1.5 0 0 0 .79.87 8.8 8.8 0 0 1 2.35 1.76c.27.31.36.15.36-.15s0-.49.27-.25a21.31 21.31 0 0 1 3.35 2.8 4.33 4.33 0 0 1 1.18 1.94c0 .22.16.39.3.26.42-.37.77.39 1.12.76s.1.37-.07.35a.53.53 0 0 0-.64.35c-.1.29-.24-.07-.37-.19-.47-.47-.78-1.33-1.42-1.43-.18 0-.16-.46-.44-.63-.1.65-.44.76-1.06.12-.09-.09-.22-.17-.26 0a.52.52 0 0 0 .18.43 2.5 2.5 0 0 1 .61 1.19c.06.27 0 .4-.22.24a2.54 2.54 0 0 0-2.21-.35c-.28 0-.49 0-.83-.39a2.12 2.12 0 0 0-2-.49.58.58 0 0 0-.24.64 1.54 1.54 0 0 1-.66 1.81c-.35.33-.71.64-1.08.95-.68-1.59-.47-3.08.43-3.41a9.16 9.16 0 0 1 1.72-.73c.11 0 .19-.14.25-.25s.22-.25 0-.48-.31-.1-.38 0c-.17.36-.56.24-.89.32.05-.67-.14-1-.68-1a1.15 1.15 0 0 0-1.17.32c-.27.41-.63.19-1-.2a2.19 2.19 0 0 0-1.13-.68 1.34 1.34 0 0 1-.72-.38 1.26 1.26 0 0 0-1.42-.47 6 6 0 0 0-1.64.66c-.16.1-.51.11-.33.48a2 2 0 0 0 .88 1c.72.31.87.59.84 1.43a3.83 3.83 0 0 1-2 3.4.36.36 0 0 1-.43 0c-.23-.15-.47-.49-.69-.32-.42.31-.93.5-1.23 1-.19.3.22 1 .36 1.59s.1.79-.3.74a.39.39 0 0 1-.37-.51c.13-.65-.47-1.4-.57-2.12a.8.8 0 0 0-1.07-.58c-.1-.33.28-.38 0-.73a.43.43 0 0 0-.56-.11c-.31.1-.87-.08-.73.57s.66.84 1.07 1.09l.24.17c-.05.22-.24.15-.36.19-.42.15-.54.49-.19 1.23.18.39.53.88.1 1.08-.12.06 0 .67.12.79.41.62.12.73 0 1a5.6 5.6 0 0 1-.52.75 1.49 1.49 0 0 1-1.85.45c-.61-.27-1.1 0-1.81-.52-.56-.4-.86.47-.51 1.25a11.42 11.42 0 0 1 .67 1.66c.36 1.4.14 2-.76 2.21-.12 0-.29.14-.38-.23s-.39-.79-.49-1.17a1.4 1.4 0 0 0-1-1.14c-.3-.08-.56.86-.35 1.33a17.33 17.33 0 0 0 .78 1.81 4.79 4.79 0 0 1 .58 2.28 1.32 1.32 0 0 1-.54-.73 11 11 0 0 1-1-4 19.21 19.21 0 0 0-.39-3c-.05-.46-.25-.44-.48-.4-.48.07-.63-.1-.59-.72.07-1-.62-1.86-1-2.79 0-.06-.13-.18-.15-.17-.46.12-1.13-.5-1.52-.07a3.35 3.35 0 0 1-1.65 1c-.39.11-.54.42-.54 1a2.71 2.71 0 0 1-.67 2.11c-.93-2.58-1.73-5-1.63-7.2-.32-.31-.32-.06-.41 0s-.2.06-.32-.11-.22-.33-.13-.42-.05-.41-.21-.67a8 8 0 0 0-3-2.78 1.88 1.88 0 0 1-.85-1 .9.9 0 0 0-.54-.53 3.26 3.26 0 0 1-1.41-1.65 6.6 6.6 0 0 0-.35-.7c-.2-.32-.44-.53-.67-.44s0 .41.05.66c.28.77.62 1.54.84 2.3s.54.86.91.82a4.93 4.93 0 0 0 .73-.19 6.2 6.2 0 0 0 .92 1.66.56.56 0 0 1 .13.66 2 2 0 0 1-1.85 1.21h-2.59c-.5 0-.76-.28-.8-1a6.81 6.81 0 0 0-.91-2.94 2.63 2.63 0 0 1-.31-1 2.74 2.74 0 0 0-.57-1.6c-.24-.3-.14-.66-.28-1-.27-.65-.27-1.47-1.07-1.83-.07 0-.18-.34-.3-.28s0 .35 0 .54a31.13 31.13 0 0 1 1.07 3 2.53 2.53 0 0 1 .14.47c0 1.75 1.14 3.46 1.86 5.18.07.16.16.32.2.47a1.87 1.87 0 0 0 1.21 1.36l1.51.51c-.52 1.63-1.14 3-2.53 3.49a2.93 2.93 0 0 0-1 .74c-.69.63-.73 1.69-.34 3.09a7.08 7.08 0 0 1 .26 1.9c0 .72-.23 1.15-.76 1.25-.22 0-.43.11-.65.17-.42.11-.61.41-.41 1.16s.14 1.34-.46 1.4c-.25 0-.29.32-.35.6-.37 2-1.35 2.46-3.25 1.65-.41-.18-.84-.15-1.26-.72-.21-.29-.5-.59-.23-.84s0-.51-.1-.79a21.51 21.51 0 0 1-1.33-5.4 3.47 3.47 0 0 0-.23-.94 3.34 3.34 0 0 1 0-2.87 4.13 4.13 0 0 0-.16-3 18.25 18.25 0 0 0-.86-2.29 2.22 2.22 0 0 1-.17-1.13c0-.51.06-1 .05-1.53a1 1 0 0 0-.71-1.09 1.08 1.08 0 0 1-.69-.68 1.57 1.57 0 0 0-1.15-1 12.63 12.63 0 0 1-3-1.13 4.94 4.94 0 0 1-1.82-2.52 23.65 23.65 0 0 0-1.3-3.31.92.92 0 0 1-.09-.71 3.75 3.75 0 0 0 .19-1.85 2.72 2.72 0 0 1 1.58-3 1.19 1.19 0 0 0 .73-1.28.53.53 0 0 1 .32-.55 1.72 1.72 0 0 1 1.88-.09c1.2.53 2.38.7 3.61 1.31.69.34.95.75.79 1.43a1.21 1.21 0 0 0 .39 1.2c.65.64 1.21 1.4 1.8 2.12.42.51.77.76 1 .27s.54-.33 1 .15a15.72 15.72 0 0 0 3.1 2.46c.29.21.46.09.57-.11a4.9 4.9 0 0 0 .52-1.73c0-.33 0-.59-.4-.67-.56-.12-1.13-.73-1.7-1a1.55 1.55 0 0 1-.76-1.28c-.05-.5-.08-.82.45-.75a8.84 8.84 0 0 0 1.17.09 1.74 1.74 0 0 1 1.19.66 4.67 4.67 0 0 0 1.38 1.1c.24.1.45.13.54-.09s-.07-.49-.21-.74-.37-.59-.56-.88c-.29-.44-.6-.85-.3-1.22.15-.18 0-.43-.28-.58-.64-.34-.9-.13-.7.63a1 1 0 0 1-.64-.88c0-.52-.41-.67-.65-.61a1.36 1.36 0 0 0-1.07 1.51c0 .63-.21.7-.68.39a1.19 1.19 0 0 0-.75-.19c-.3 0-.28.16-.13.52.36.84.31.93-.46.75.18-.26.28-.49-.13-.94a2.38 2.38 0 0 1-.43-.92 15.2 15.2 0 0 0-2.11-3.91c-.12-.21-.24-.41-.41-.31s-.14.25 0 .49a6 6 0 0 0 .87 1.85 1.78 1.78 0 0 1 .46 2.07 2.86 2.86 0 0 0-.84-1.79 8.2 8.2 0 0 1-1.12-1.85c-.28-.57-.59-.92-1-.86a.89.89 0 0 1-.59-.19c-.49-.33-.62-.06-.9.2a17.26 17.26 0 0 1-1.51 1.3c-.51.37-1.53-.31-2.17-1.18a1.25 1.25 0 0 1-.29-1 4.22 4.22 0 0 0 .1-1.35c0-.48.14-.58.53-.31l1.17.78c.61.41.93.21.83-.54a4 4 0 0 0-1-2.13 15 15 0 0 0 2-.14c.73-.11 1.1-1.06 2.14-.44.21.13.24-.09.23-.29s0-.49 0-.73 0-.54.22-.34.08.36.06.5a.82.82 0 0 0 .19.79c.56.42 1.1 1.11 1.68 1.21a2 2 0 0 1 1.16.38c.42.32.77.15.8-.4s0-1.06.63-.17c.09.12.2.19.28.12a.5.5 0 0 0 0-.53c-.35-.86-.07-.88.47-.59a10 10 0 0 0 1 .43c.12 0 .26.1.26-.08a.63.63 0 0 0-.24-.42 3.24 3.24 0 0 0-1.28-.68c-.31-.1-.7 0-.93-.62s-.23-1.15.09-1.42.45-.3.66-.47.44-.21.14-.7-.74-.68-.86-.41c-.27.64-.88.69-1.32 1-.29.22-.36.69-.05 1.35.22.47.2.77-.12.85s-.34.34-.32.69 0 .39-.3.34c-.88-.16-.87-.14-1.2-1.38l-.08-.32c-.3-1.06-.3-1.06-1-1s-.74-.24-.93-1.07c-.27-1.17.17-1.44.74-1.66.13-.05.22 0 .37.1.52.38.74.22.57-.44-.09-.35-.11-.45.15-.55.61-.23 1.39-.28 1.74-.81.48-.71 1.32 0 1.92-.12.06 0 .18.09.23.06.6-.32 1.25.51 1.89 1 .2.15.25.19.13.4s.2.38.33.45a10.82 10.82 0 0 1 3 3c.15.19.36.42.32.65s-.26.21-.46.15a3.51 3.51 0 0 1-1.45-1c-.17-.18-.39-.44-.52-.35s.09.41.18.62a5.14 5.14 0 0 0 .66 1.47c.18.22.36.48.57.43s-.09-.41-.05-.64c.48.56.83.8 1 .24.08-.23.41-.18.69 0 .6.42.58 0 .51-.51 0-.2-.2-.53 0-.55s.27.22.4.36c.28.32.06.31 0 .4s0 .27.11.41.41.31.57.24a2.47 2.47 0 0 1 1.65 0c.14 0 .31 0 .4.17.39.77.74.54 1.1.61s.43-.19.67.42a.28.28 0 0 0 .43.1c.59-.44 1.26.27 1.92.94.15.15.28.36.43.52s.29.25.4.17 0-.29 0-.47-.16-.31-.24-.46c-.31-.55-.46-1 0-1.1.19 0 .28-.3.41-.46s.41-.12.7.16a.7.7 0 0 1 .22.77c-.14.46.19 1.13.14 1.62s-.07.81-.15 1.18-.19.66-.65 0c-.12-.17-.31-.27-.39-.15s.11.33.21.48c.45.63.83.64 1.13.39a4.3 4.3 0 0 0 .53-.65c.25-.31.48-.1.69.43.09.23.14.48.25.71s.28.45.43.41-.07-.32-.11-.49a3.35 3.35 0 0 0-1.17-1.88 1.39 1.39 0 0 1-.08-1.83c.15.31.27.62.45.91s.44.69.65.59-.22-.46-.21-.69c.68 0 1.28.57 1.58 1.58.06.2.12.38.3.44s.17-.15.15-.32a2.3 2.3 0 0 0-.64-1.34.68.68 0 0 1-.25-.63c.06-.2.24-.1.41 0q.62.39 1.23.81c.3.21.5.25.26-.25s0-.61.23-.51a11.16 11.16 0 0 1 3 1.24c.61.4 1.12.22 1.74.65.15.11.07-.19.09-.31.06-.45.31-.58.73-.37.09 0 .25.13.26.27 0 1.06.71 1.08 1.18 1.4.3.2.62.13.9.5s.51.31.54.74-.09.58-.4.54-.65.15-1 .32c.37-.13.46-.75 1-.28zm-67.97-35.94c-.29-.33-.3-.6-.17-.81s.24-.2.45-.06a1.23 1.23 0 0 1 .57.87c-.05.53.39 1 .52 1.43s.3.22.4.15c.33-.23.47.08.59.53v.08c.08.33.07.78.37.94s.52-.15.58-.49 0-.61.38-.27.64.47.58 1a1 1 0 0 0 0 .27c.15.94.05 1-.68.78-.18-.06-.48-.38-.5-.06a1.28 1.28 0 0 0 .43.8 4.57 4.57 0 0 1 1.19 1.74c-.54-.52-1-.85-1.3-.52-.1.09-.31-.17-.44-.36s0-.3 0-.43a1.15 1.15 0 0 0-.13-1.06.86.86 0 0 0-1-.46l.64.74c0 .3-.23.31-.4.23-1.18-.53-1.39.65-2 1.12-.27.22-.18.82.37 1.32a1 1 0 0 1 .26.31 8.88 8.88 0 0 0 2.66 3.37c.35.33.55.53.47 1a2.88 2.88 0 0 0 .83 2.07c.32.44.53.29.57 0a6.74 6.74 0 0 1 .52-2.31.39.39 0 0 0 0-.28 4.79 4.79 0 0 1-.2-2.26c0-1.14.46-1.34 1.44-.32a15.43 15.43 0 0 1 1.09 1.42c.12.16.15.33.07.41-.25.28 0 .7.21 1.11s.59.4.86.46.3-.07.43-.14.37 0 .43.36a18.7 18.7 0 0 0 .71 2.05c.2.71.86 1 1.15 1.66v.06c-.16 0-.42 0-.48.13-.15.37.18.36.34.44a5.19 5.19 0 0 1 .6.26.74.74 0 0 1 .27.64c0 .34 0 .58-.35.53a6.74 6.74 0 0 1-2.22-.78c-.88-.5-1.7-.31-2 .39.35.24.5 0 .74 0a1.24 1.24 0 0 1 .81.19c.15.1.31.25.15.39-.37.32-.32.57.29 1.17a.57.57 0 0 1 .19.25c0 .15 0 .18-.14.08a4.9 4.9 0 0 0-1.9-.33.33.33 0 0 0-.37.4c.17.78-.19.65-.6.56s-.47.24-.65.45-.07.62-.45 0c-.12-.21-.22.07-.19.21.36 1.48-.39 1.77-1 2.12s-.69.83-.42 1.79c.13.47.19.93.27 1.4 0 .15.05.33-.09.31s-.22-.21-.3-.36a4.44 4.44 0 0 1-.34-1.18c-.2-1-1.25-2.17-2-2.21-.09 0-.23 0-.23.07 0 .8-.45.15-.73-.07a3 3 0 0 0-1.32-.74c-.92-.11-.75.95-.86 1.66a4.55 4.55 0 0 0 .4 2.28 2.26 2.26 0 0 0 1.6 1.54c.22 0 .32-.08.36-.31s.13-.43.35-.44a.75.75 0 0 1 .7.28c.25.31.1.52.08.76v.19c-.07.42-.43.67-.21 1.24s.72.61 1.08.94a1.09 1.09 0 0 1 .45 1 7.29 7.29 0 0 0-.07 1 2.06 2.06 0 0 0 1.22 1.86c.18.07.4.08.54.31.59 1 .71.56 1 .18s.67-.15 1-.21c.09.29-.24.4.09.74s.27-.07.38-.12.24-.15.5.16a4.91 4.91 0 0 0 1.76 1.48c.3.13.45.38.65.75a8.19 8.19 0 0 0 2.29 3.18 4.4 4.4 0 0 1 1.34 2.61c.08.24-.12.2-.21.27a1.18 1.18 0 0 0-.56.74c.36.12.54-.07.78-.08s.25-.12.36.17-.07.21-.17.24-.33-.09-.37.16c.33.47.62.48.85.31s.65-.09 1 .52a4 4 0 0 0 1.49 1.57 6.09 6.09 0 0 1 1.71 2.14 1.18 1.18 0 0 1 .06 1.11 1.93 1.93 0 0 1-.77 1 1.25 1.25 0 0 0-.47 1.14 5.2 5.2 0 0 1-.54 2.72c-.13.2-.25.45-.54.31a2.07 2.07 0 0 0-1.43-.06c-.5.07-.79.25-.85 1.08a2.4 2.4 0 0 1-1.67 2.31c-.42.12-.81-.44-1.22-.8-.05.32.17.6.28.88.32.82.22 1.17-.4 1s-1.23-.49-1.48.18c0 .08-.21 0-.32 0-.39-.17-.4 0-.32.49a1 1 0 0 1-.51 1.17c-.39.22-.44.54-.07 1.22.11.19.34.43.18.55-.69.48-1 1.52-1.64 2a5.62 5.62 0 0 0-.4-.77c-.32-.43-.73-.8-.52-1.29.12-.29-.12-.86.27-1s-.18-.62-.32-1-.42-.37-.34-.62.26.16.39.21.19-.12.22-.26a4.29 4.29 0 0 0 0-1.76 2.4 2.4 0 0 1 0-1.13 41.7 41.7 0 0 0 1.1-8.75 1.92 1.92 0 0 0-.41-1.4 11.52 11.52 0 0 1-2.26-5c-.13-.67-.4-1.37-.61-2.06-.11-.36-.24-.7.08-.75.06 0 .13-.11.11-.16-.57-1.48.21-1.77.63-2.36a2.58 2.58 0 0 0 .06-2.22c-.14-.47-.35-1-.78-.76-.1 0-.22 0-.34-.13a5.14 5.14 0 0 1-1.57-2.28 3.26 3.26 0 0 0-.88-1.44 14.57 14.57 0 0 1-1-1.11 9 9 0 0 0-1.74-1.91 12.14 12.14 0 0 1-2.66-3.09.76.76 0 0 1-.14-.31c0-1.38-1.06-2.7-1.51-4.06-.25-.73-.68-1.46-.89-2.21a.8.8 0 0 0-.42-.58c-.26-.08-.16.24-.17.44s-.08.2-.23 0a15.09 15.09 0 0 0-1.48-3.18 10 10 0 0 1-1.43-4c0-1 0-1.88.06-2.8 0-.15 0-.37.2-.26.62.31.39-.22.2-.62a5.16 5.16 0 0 0-.77-1.34 6.66 6.66 0 0 1-1.46-2.85 19.34 19.34 0 0 0-1.07-2.56c-.65-1.45-1.61-2-2.45-2.88a15.6 15.6 0 0 1-2.13-2.07c-.19-.29-.44-.32-.55-.08a.32.32 0 0 0 0 .06c-.08.34-.39.44-.61.16s.14-.41.15-.76c-.37-.34-.57-.26-.72 0a1.83 1.83 0 0 1-1.88 1.14c-.13 0-.14-.08-.11-.19a1.73 1.73 0 0 0 .31-.26c.27-.34.19-.58-.32-.89a8.47 8.47 0 0 1-1.86-2c-.59-.72-.4-1.43.27-1.29a.7.7 0 0 0 .81-.22.46.46 0 0 0 0-.48c-.09-.16-.18-.13-.28-.15-.94-.19-1-.27-1.65-1.6a1.15 1.15 0 0 1 1.2.5c.24.27.53.46.64.19s-.25-.48-.42-.7-.33-.39-.47-.6-.6-.69-.56-1 .45 0 .66 0a4.94 4.94 0 0 1 1.42-.15 2.48 2.48 0 0 1 1.7.77 20.6 20.6 0 0 0 2.75 2.11 33 33 0 0 1 3 2.61c.32.29.28.58.37.88s.12.48.33.51.1-.24.05-.42c-.24-.83-.09-.89.51-.28a1 1 0 0 0 1.08.25 1.18 1.18 0 0 1 1.2.53c.4.46.83.39 1.27.78s1.1 1.32 1.76 1.42c.1 0 .38.28.27.49-.27.48.18.6.41.74.61.37 1.25.6 1.62 1.62.08.23.33.3.29.08-.09-.45.34-.37.22-.89-.09-.36.36 0 .45.09a4.74 4.74 0 0 0 3.09 2.09h.06c.48.1.6-.2.55-.72zm12.5-1.76c.5.51 1 .2 1.5.88.52-.66 1.3.5 1.95.72.3.1.72.38.33-.41-.14-.29-.07-.32.1-.3s.13 0 .17 0c1.21 1.17 2.41.83 3.64 2.07-.11.17-.45-.13-.5.22a2.27 2.27 0 0 0 .87.52c.57.26 1.14.48 1.71.77.24.12.58.13.64.72 0 .17.29.28.45.39a2.17 2.17 0 0 1 .8.57c-1.49-.51-2.93-1.32-4.15-.94a1.17 1.17 0 0 0 .94.45 4.61 4.61 0 0 1 2.08.63c.32.2.71.22.92.85 0 0 .13.15.16.15.57 0 1.22.74 1.81.79a2.11 2.11 0 0 1 1.19.75c-.65-.12-1.14.24-1.88-.21-.16-.1-.36-.16-.43 0s.19.32.27.48c.18.37 0 .45-.17.53-.55.35-.52.71.28 1.63l-.65-.33c-.16-.08-.36-.16-.42 0s.15.31.27.44.05 0 .06.06c0 .21-.4.19 0 .59a1.62 1.62 0 0 1 .49.78c-.64-.06-.64-.06-.41.58-.24-.08-.37-.37-.55-.58-.33-.39-.67-1-1-.52h-.05c-1-.7-.25.53-.34.81s.21.26.35.35a2.48 2.48 0 0 1 .83.86c.09.16.3.39.17.48s-.26-.18-.38-.38c-.22-.39-.51-.58-.68-.38s-.36.21-.26.51.37.31.57.45.37.16.53.5a4.75 4.75 0 0 1-2.36-.68c-.74-.44-1.34-.48-1.66.19-.13.28-.42.26-.73.16a1.37 1.37 0 0 0-1.87 1.42c0 .44-.19.6-.48.64-.08 0-.22 0-.28-.07-.88-1.16-2-2.23-2.07-3.78a.34.34 0 0 0 0-.15c-.75-.69-.24-.88-.09-1.12s0-.5-.38-.7c.73.32.31-.58.49-.85.37-.52-.36-.84-.61-1.27.29-.11.52-.25.22-.88s-.36-.14-.57-.18a12.83 12.83 0 0 0-1.36-3.56.81.81 0 0 0-.43-.45c-.74-.35-1.47-.72-2.21-1.07-.58-.27-.63-.31-1-1.12 0 0 0-.06.08-.06.26 0 .8.42.78.06s-.53-.54-.83-.8-.45-.24-.69-.56c.32-.31.82.12 1.21.2a1.69 1.69 0 0 1 .35.08c.48.21.91.11.88-.41s-.56-.3-.89-.81c.79-.07 1.83.59 2.34-.12.33.04.66.38.95.41zm65.66 87.58a22.63 22.63 0 0 1 .89 3.28c0 1 .82 1.9 1.2 2.86a5.66 5.66 0 0 0 1 1.79.91.91 0 0 1 .21.73 12.65 12.65 0 0 1-1.09 4.67c-.13.36-.6-.08-.79.14s-.51 0-.79-.45c-.15-.26-.3-.15-.45-.19a1.73 1.73 0 0 1-1.09-1.12c-.27-.61-.23-1.34-.87-1.85 0-.14.06-.28.09-.42a.41.41 0 0 0-.08-.42c-.16-.17-.23 0-.27.06-.24.54-.44.39-.77-.41a3.15 3.15 0 0 0-1.44-1.63 3.26 3.26 0 0 0-1.93-.48c-.62.13-1.42-.29-2.1-.25-.29 0-.7-.5-.73-1a11.7 11.7 0 0 0-.77-3.78c-.13-.32-.09-.28.17-.14s.13-.27.05-.52c-.33-1-.28-1.23.43-1.27h1.27c.42 0 1 0 1-.73a.28.28 0 0 1 0-.12c.67.42.63-.47 1.07-.5.16 0 .25 0 .37.22a2 2 0 0 0 .55.6c.28.19.5.41.57-.1.13-1 1-1 1.78-.16.26.27.34.43.22.71a3.13 3.13 0 0 0 1.13 2.92c.24.2.28 0 .35-.08a3.54 3.54 0 0 0 .43-1.38 2.2 2.2 0 0 1 .39-.98zm-69.04-88.68l-1.43.24c-.16 0-.32-.11-.47-.26-.65-.64-.93-.12-1.47-.3.26.49.51.42.72.78-.51.33-1.15.16-1.92-.24.2.6.55.73.91 1-.3.2-.62.1-1-.16s-1-.7-1.53-1.06c-.21-.15-.55-.22-.54-.6s-.07-1 .72-.22c-.43-.78-.68-1.34-1.17-1.14a.81.81 0 0 1-.51-.08 1 1 0 0 1-.67-.72c-.16-.52.36 0 .34-.37a4.44 4.44 0 0 0-.77-.69.82.82 0 0 1-.32-.56c0-.2.16-.15.25-.22.68-.56 1.31.62 1.92 1.22a4.44 4.44 0 0 1 .47 1.12 2.77 2.77 0 0 0 1.54 1.4c.1 0 .19 0 .19-.14a.37.37 0 0 0-.23-.3 3.36 3.36 0 0 1-.86-.84c-.13-.17-.34-.38-.29-.57s.28-.07.47.08c.5.4 1 .72 1.35.43.06-.08.24-.08 0-.33a2.85 2.85 0 0 1-1.74-1c-.07-.08-.18-.2-.23-.21-.67 0-.93-.81-1.42-1.55.93.56 1.59.27 2.4.78.05 0 .15.05.16 0 .43-.89 1.36 0 2.09.36s1.39.88 2.09 1.27a1.64 1.64 0 0 1 .88.85c.11.26.34.31.52.4a3.2 3.2 0 0 1 .55.28 1.23 1.23 0 0 1 .57.77c0 .3-.27.14-.45.14s-.49 0-.74-.07c-.16.19-.4.12-.38.51z"/><path data-name="&lt;Tracé&gt;" d="M195.19 72.44a5.84 5.84 0 0 0-2.68-3.52 19.39 19.39 0 0 0-2.15-1.38 2.12 2.12 0 0 1-.92-1.49c-.15-.61.17-.69.48-.75s.49 0 .73.39a1.12 1.12 0 0 1 .18 1c-.08.16-.21.23 0 .54.07.12.16.28.26.25s.06-.14 0-.23a2.35 2.35 0 0 1-.06-.73c.06-.39.25-.56.63-.38s.3.52.37.8c.12.48.83 1.18 1.12 1.05.5-.22.88.18 1.24.9a1 1 0 0 0 .34.47c.63.28 1 1.2 1.54 1.63.25.18.63.57.32.92-.15.17.09.54.28.68a17.82 17.82 0 0 1 1.4 1.5c.16.14.44.56.26.56s-.2.82-.73.18a6.86 6.86 0 0 1-.48-.72c-.22-.35-.44-.5-.66-.39s0 .45.12.72.25.46.37.69a2.68 2.68 0 0 1 .41 1.09c0 .31-.5 0-.3.58 0 .08-.12 0-.19-.1a11.5 11.5 0 0 1-1.81-2 2.71 2.71 0 0 0-1.51-1.39.46.46 0 0 1-.41-.39c0-.28.17-.19.33-.13s.41.19.61.28.28.14.3-.14c0-.48.33-.4.71 0 .26-.1.26-.12-.1-.49zm61.38 71.01c-.45-.46-1-.57-1.36-1.33-.68-1.41-.66-1.93.32-2.18a4.56 4.56 0 0 0 1.4-.57c.27-.18.45 0 .71.41s.19.58 0 .67-.28.26 0 .72a.77.77 0 0 1 0 .89c-.28.33-.68.56-.63 1.29-.01.33-.26.15-.44.1zM180.72 60.3c.28.06.61-.17.75.64a1.66 1.66 0 0 0 .73.31c.47 0 .68.45 1 .87.13.19.32.52.36.24.07-.5.44-.44.8-.55a2.63 2.63 0 0 0 .14 1.47 2.24 2.24 0 0 0 1 1.27c-.19.53-.48.59-1-.06a1.3 1.3 0 0 0-.9-.5 3.15 3.15 0 0 1-2.7-1.93l1 .47c.13.06.32.19.32 0s-.17-.27-.28-.38a3.87 3.87 0 0 0-.92-.54 1.17 1.17 0 0 1-.55-.77c-.13-.39 0-.49.19-.54-.07-.08-.01-.06.06 0zm81.49 85.17a1.08 1.08 0 0 1 .72.85c.17.63.46 1 .86.75.21-.13.41 0 .67.26a23.69 23.69 0 0 1 2 2.24 3.68 3.68 0 0 1 1 1.91 5.43 5.43 0 0 0 .69 1.42 2.13 2.13 0 0 1-1-1c-.46-1-.61-1.13-1.21-.92-.2.07-.37-.05-.57-.24s-.61-.62-.92-.93c-.09-.09-.24-.2-.17-.31.37-.61-.27-1.16-.64-1.72a4 4 0 0 0-.85-.89c-.23-.19-.4-.31-.25-.58s-.31-.49-.33-.84zM235.07 135a2.86 2.86 0 0 1 .18 1.65c-.22 1-.47 2-.71 3a1.46 1.46 0 0 1-.17.44c-.13.2-.37.16-.62 0a1 1 0 0 1-.4-.7 2 2 0 0 1 0-1.59 1.85 1.85 0 0 0 .11-1.05c0-.5.12-.83.49-.86a1.18 1.18 0 0 0 1.12-.89zm26.18-6.42c.55.53.71 0 1.07.14.67.27 1.11-.12 1.76.12h.1c-.08-.68.78-.23.62-1 0-.24.1-.43.37-.24a.92.92 0 0 1 .37.78 11.87 11.87 0 0 1-.55 2.14c0 .18-.23 0-.37 0a3.13 3.13 0 0 0-.61-.26c-.6-.11-.6-.1-1-.7-.15.06.14.31.06.36a10.49 10.49 0 0 1-1.2.67c-.09 0-.25-.25-.23-.37a4.87 4.87 0 0 0-.39-1.64zm-43.72-37.96c.14.31.08.64.41.8.1 0 .18.19.13.25-.36.39.11.92.37 1.37.37.66.32 1.35.86 2 .21.26-.15.63-.56.48-.2-.07-.41-.22-.61-.32l-.7-.32c.18-.21.67-.19.05-.81-.16-.17.07-.35.21-.43.31-.19.26-.55-.11-1.05-.58-.83-.64-1.59-.05-1.97zm32.84 45.32a2.24 2.24 0 0 1 .9 1 31 31 0 0 1 1.51 3 2.4 2.4 0 0 0 .62.92c.26.25.33.46.21.65s-.06.66-.35.58-.44-.55-.61-.86a23.86 23.86 0 0 1-1.32-3.13c-.26-.69-.6-1.36-.96-2.16zm-9.02-43.26a3.51 3.51 0 0 1-1.94-.29 1.83 1.83 0 0 0-2.16.71c-.26.26.08.74.25 1.14a2.73 2.73 0 0 1-1.25-1.31.32.32 0 0 1 .27-.44c.51 0 .62-.62.88-1 .07-.1.13-.16.26-.1.45.21.87.16 1.31.36a22.31 22.31 0 0 0 2.38.93zm-16.06-11.27c.37.38.57.64.07.69-.32 0-.43.43-.6.7s-.21.34-.46-.05c-.13-.2-.5-.51-.14-.64.13 0 .17-.18 0-.4s-.08-.21 0-.24.37 0 .24-.26a.38.38 0 0 0-.5-.24c-.39.22-.79-.55-1.16-.48-.07-.47.69-.13.15-.9-.08-.11.19-.06.32 0s.26 0 .32.3c.09.48.13.54.45.44s.63.11.86.66c.1.23.32.13.45.42z"/><path data-name="&lt;Tracé&gt;" d="M180.72 60.3h-.18c-.25-.42-.43-.34-.64-.28a6.69 6.69 0 0 1-.8.18c-.29 0-.48-.3-.7-.62s-.12-.43 0-.56 0-1.07.58-.75a14.29 14.29 0 0 1 1.21.82c.53.33.81.73.53 1.21zm30.79 22.92c.65 0 1.19-.29 2 .21a1.55 1.55 0 0 1 .73 1c.14.52-.25.32-.46.33a3.42 3.42 0 0 1-.85-.11 2.18 2.18 0 0 1-1.42-1.43zm-18.86-17.75c0 .27-.1.35-.37.23a11.66 11.66 0 0 1-3.28-2.1c-.06-.05-.15-.11-.17-.17a4.85 4.85 0 0 0-1.46-1.95c.61.39 1.26.56 1.69 1.53a2 2 0 0 0 1 .92c.82.53 1.7 1.07 2.59 1.54zm81.04 107.94a1.44 1.44 0 0 1 .66-.7 2.8 2.8 0 0 0 .93-.77c.09-.12.27-.18.47.1a.43.43 0 0 1 0 .53c-.32.49-.79.79-.94 1.49-.04.34-.23.21-1.12-.65zm-8.11-47.88a8.16 8.16 0 0 0 1 1.23c.16.16 0 .39-.17.4h-1.17c-.14 0-.23-.18-.3-.33s-.19-.59-.05-.62c.31-.07.38-.36.45-.7.04-.04.11-.06.24.02zm-73.66-31.67a13.2 13.2 0 0 1 2.25 2.45c.11.14.19.35 0 .37a.72.72 0 0 1-.78-.44 3.53 3.53 0 0 0-.78-1.08c-.31-.27-.6-1.08-1-.67a2.94 2.94 0 0 1-.42-.61c-.07-.22.15-.16.27-.15a1.88 1.88 0 0 1 .46.13zm-8.67-34.7a7.06 7.06 0 0 0 .76 1.29 5.19 5.19 0 0 1-1.82-.57c-.37-.26-.72-1-1.25-1.23-.05 0-.08-.29 0-.41s.19-.08.31 0c.28.24.56.47.83.74.83.94.84.95 1.17.18zm17.3 26.18c-.16.27-.23.42.18.69a1.2 1.2 0 0 1 .49 1.24c0 .2-.2.1-.3.14s-.19-.08-.19-.18c0-.72-.4-.58-.67-.7a1 1 0 0 1-.59-.58c-.13-.35.07-.4.22-.47a1 1 0 0 1 .86-.14zm58.79 58.5c-.75-.19-.75-.19-.34.73.18.41.28.77.1 1a1.66 1.66 0 0 1-.31-.79c-.06-.2-.08-.48-.29-.55s-.15.22-.15.41v.82c-.6-1.1-.48-2.86.21-2.9.05.29-.52.17-.08.67a4.55 4.55 0 0 0 .86.61zm-34.05-62.43a1.53 1.53 0 0 1-.5-.42c.21.14.43.13.42-.07 0-.89.45-.19.68.09s.28.33.48.21c.41-.23.86.42 1.35.79-.43.36-.9.22-1.51-.27-.29-.25-.7-.81-.92-.33zM250.33 95a1.17 1.17 0 0 1 .48.54c.11.28.21.47.4.32a.18.18 0 0 1 .3.07 1.23 1.23 0 0 1 0 .84c0 .14-.14.14-.28 0-.57-.52-1.13-1-1.69-1.58-.25-.24 0-.27 0-.38.22-.17.46-.14.79.19zm-63.15-30.63c0 .28-.1.26-.24.26-.5 0-.83-.61-1.1-1.12-.06-.11.1-.55.34-.58.47-.08.62.1.76.8a4.64 4.64 0 0 0 .24.64zm89.29 107.97c-.37-.74-.64-1.34-.41-1.88.08-.19.06-.23.3-.12.4.18.54.65.79 1 .11.14-.13.35-.28.46a2.18 2.18 0 0 0-.4.54zM216.9 92.69a.68.68 0 0 1-1 .63.3.3 0 0 1-.2-.35 1.84 1.84 0 0 1 .54-1.1c.1-.1.24 0 .39.14a.92.92 0 0 1 .27.68zm41.48 42.7c0-.13 0-.35.09-.55s.18-.29.4-.07.33.58.19.68c-.5.36-.06 1 .27 1.57.17.3.34.61.5.91.06.11.18.3 0 .25s-.21.09-.28-.21a3.71 3.71 0 0 0-.91-1.52 1.36 1.36 0 0 1-.26-1.06zm7.47-14.63a9.92 9.92 0 0 0 .42 2.93v.17c-.74-.24-.34.51-.24 1 0 .13.1.29 0 .28a.31.31 0 0 1-.24-.34c.14-1.27-.6-3.07.06-4.04zm-10.22-18.57c-.3-.15-.29.22-.39.33a.88.88 0 0 1-1.27-.06c-.21-.21-.29-.41-.07-.42.56 0 1-.4 1.73 0v.15zm-18.87-15.02c-.22 0-.38-.16-.58-.5s-.48-.44-.45 0c0 .16 0 .14-.1.11s-.24-.27-.29-.45-.27-.49-.12-.64.24-.1.43.06l1.59 1.31c.09.07.17.18.16.26s-.09.1-.15.11-.31-.14-.49-.26zm19.54 58.23c-.85-.71-1.56-1.29-2.27-1.9-.14-.12-.37-.34-.32-.53s.27.05.41.17c.5.39 1 .77 1.49 1.19a2.29 2.29 0 0 1 .69 1.07zM181 84.48h.23l1.55 4.18a3.6 3.6 0 0 1-.78-1.27 23.06 23.06 0 0 1-1-2.91zm6.8-20.22c0-.37 0-.53.24-.49a1.49 1.49 0 0 1 .84.39c.09.09.12.22.06.26-.27.22-.68.18-.91.48 0 .05-.16-.19-.18-.32a3.07 3.07 0 0 1-.05-.32zm79.13 102.55c.23.2.59.29.57.74s-.07.66-.47.4a1.37 1.37 0 0 1-.5-1.06c-.08-.45.23-.12.4-.08zM259 139.86c.33-.46.81-.1 1.2 0 .15.05.15.33.16.49s-.06.47-.29.48a.38.38 0 0 1-.35-.33.86.86 0 0 0-.72-.64zm-63.53-7.05c.07-.17.33 0 .37-.2s0-.56.27-.23a2.55 2.55 0 0 1 .68 1.31c0 .22-.22.11-.39 0s-.61-.59-.93-.88zm70.17-25.01a1.8 1.8 0 0 0-.93-.49.58.58 0 0 1-.42-.41.46.46 0 0 1 0-.46c.11-.13.32-.05.42.15.26.49.92.32.94 1.13.03.01.02.03-.01.08zm-12.24-9.73l-1.56-.45c.15-.42.35-.66.71-.57s.62.46.85 1.02zM187.3 67c0-.32-.19-.35-.35-.38s-.37-.34-.49-.6a.21.21 0 0 1 .06-.29c.15-.13.32 0 .49.25a1.33 1.33 0 0 0 .53.42c.17 0 .42.1.37.38s-.11.78-.61.22z"/><path data-name="&lt;Tracé&gt;" d="M249.46 94.23c.06-.36.37-.28.62-.24a1 1 0 0 1 .66.73c.12.45-.24.2-.42.19s-.63-.05-.86-.68zM184.3 57.54a3.43 3.43 0 0 1 1.79 2.21c-.5-.75-1.24-1.23-1.79-2.21zm2.24 4.14c0 .22-.13.31-.33.15a2.17 2.17 0 0 1-.7-1.1c-.07-.28.22-.17.4 0a1.43 1.43 0 0 1 .63.95zm-5.92-4.58c-.2.36-1.2.38-1.63 0 .38-.46 1.01-.24 1.63 0zm15.69 41.42a3 3 0 0 1-1.09-.43c-.15-.09-.39-.15-.38-.42s.18-.27.4-.14a3.42 3.42 0 0 1 1.07.99zM235 86.31c-.28 0-.45-.31-.63-.5s-.42-.45-.31-.68.35-.1.58 0 .29.26.16.34c-.27.21.09.53.2.84zM259.42 148a.84.84 0 0 1 .88-.47.34.34 0 0 1 .27.22c.07.15 0 .24-.06.28a1.06 1.06 0 0 1-1.09-.03zm9.34 2.61c.1.21 0 .28-.05.34s-.32.31-.62.13a.4.4 0 0 1-.17-.34c0-.35.35-.14.53-.2a.24.24 0 0 1 .31.07zm-23.44-19.3a1.44 1.44 0 0 1 .31.89c0 .23-.15.27-.32.13a.75.75 0 0 1-.25-.76c.02-.16.03-.36.26-.26zm-52.84-70.45c.27 0 .61-.2.87.19s-.06.38-.27.33a4 4 0 0 1-.41-.12l-.18-.08zm5.41 25.39l.14-.08.44.63-1.09.14c-.1-.61.46-.32.51-.69zm-16.01-28.6c.38.14.15-.66.57-.43.13.07.31.1.36.36s-.09.2-.19.22-.39.2-.74-.15zm11.58 9.76a1.74 1.74 0 0 1-.28-.07c-.23-.1-.49-.09-.66-.51v-.23c.23-.07.46.2.69.43a.67.67 0 0 1 .25.38zm3.32-4.02c-.15-.13-.37-.13-.42-.39s.17-.19.3-.2a2.7 2.7 0 0 1 .51.1c.01.34-.11.52-.39.49zM187.3 67c.3.18.45 0 .49-.23s-.16-.26-.26-.37l.12-.18c.44.27.44.57.3.84s-.36.57-.81-.11zm-18.22-4.33v.2c-.16.17-.32.36-.63.21a.4.4 0 0 1-.1-.2c.12-.32.4-.29.73-.21zm104.41 98.44c0 .17-.07.21-.18.12a1.4 1.4 0 0 1-.5-.74c0-.1.08-.13.16-.07a1.31 1.31 0 0 1 .52.69z"/><path data-name="&lt;Tracé&gt;" d="M249.46 94.23a3.3 3.3 0 0 0 .87.67.86.86 0 0 1 0 .1 1.32 1.32 0 0 1-.76-.16c-.26-.28-.35-.5-.11-.61zM236.42 86c.37 0 .57.32.77.31a.32.32 0 0 1 .34.31c0 .24-.2.18-.35.07a9.88 9.88 0 0 1-.76-.69zm29.49 23c-.24 0-.46 0-.64-.39-.07-.16-.08-.39 0-.38.31.03.39.52.64.77zM238.2 87.69c-.08.13-.15.29-.34.14a.83.83 0 0 1-.22-.58c0-.21.1-.19.23 0s.36.15.33.44zm-43.01-15.25l.31.19a.72.72 0 0 1 .35.43c0 .15 0 .21-.12.23s-.31-.1-.4-.36-.08-.32-.14-.49zm43.47 23.38a1.08 1.08 0 0 1-.37-.62c0-.17.13-.1.22 0a.88.88 0 0 1 .38.61c.01.13-.12.08-.23.01zm39.08 21.7c.27-.05.55 0 1 .46a1.3 1.3 0 0 1-1-.46zm-19.14 15.21c-.2-.46-.17-.75.1-1a1 1 0 0 1-.1 1zM167 62.28l.11.19a1.75 1.75 0 0 1-1.38-.12zm75 94.38c0 .15-.14.18-.26.11a.79.79 0 0 1-.35-.6c0-.14.08-.17.19-.06a1.23 1.23 0 0 1 .42.55zm-18.82-51.72a.69.69 0 0 1 .74.42c.06.12.06.29 0 .29-.32-.01-.47-.35-.74-.71zm-55.52-23.99c.19.32.46.62.42.94 0 .12-.14.1-.24 0-.3-.38-.09-.62-.18-.94zm30.96 3.96c0 .15-.11.14-.22.07a1 1 0 0 1-.44-.57c0-.16.1-.12.21-.05a1 1 0 0 1 .45.55zm41.75 3.67c-.07.22-.29 0-.44 0s-.24-.09-.21-.24.26-.1.43 0a.34.34 0 0 1 .22.24zm-40.21-24.09c-.17 0-.57-.38-.46.2 0 .11-.15 0-.25 0-.25-.18-.16-.37-.19-.55.28-.08.59.17.9.35zm6.77 74.79c0 .16-.08.16-.19.1a.91.91 0 0 1-.45-.54c-.05-.18.07-.15.18-.09a1.07 1.07 0 0 1 .46.53zm19.8-55.95c-.07.18-.22.07-.36 0s-.26-.16-.24-.35.18-.14.32 0a.73.73 0 0 1 .28.35zm34.9 62.74c0 .18-.16.11-.28 0s-.33-.14-.34-.37.15-.12.27-.06a.59.59 0 0 1 .35.43zm-22.29-58.16c-.14.25-.24.4-.48.26a.22.22 0 0 1-.1-.26c.1-.19.24-.21.58 0zm-4.23 6.42a.32.32 0 0 1-.18-.32c0-.18.15-.24.34-.13a.35.35 0 0 1 .18.32c-.03.18-.18.18-.34.13zm-40.39 37.53c-.16-.27-.4-.52-.39-.81 0-.1.12-.07.19 0a1 1 0 0 1 .2.81zm41.63-21.22c.19-.07.31.1.36.3s-.1.17-.21.14-.22.11-.07.37a1.46 1.46 0 0 1 .15.69c0 .3.18.75-.14.74a1.3 1.3 0 0 1-1-.65 1 1 0 0 1-.21-1.06 1.45 1.45 0 0 0-.15-1.45 3.59 3.59 0 0 1-.27-.87c-.3-1.21.14-1.68 1.1-1.16a.59.59 0 0 1 .38.47c0 .2 0 .28-.19.27-.5 0-.57.36-.24 1.05a2.25 2.25 0 0 1 .25.78c.01.21.07.39.24.38zm-6.96-14.24a.8.8 0 0 1-.45-.71c0-.22.08-.27.24-.16a1.21 1.21 0 0 1 .51.8c.06.36-.23 0-.3.07zm9.15 14.22a.47.47 0 0 1-.25-.4c0-.31.11-.49.35-.48s.21.2.21.36-.05.53-.31.52zM190.86 82a4.67 4.67 0 0 0-1.68-1.45c.79-.58 1.1-.39 1.76 1.08a2.6 2.6 0 0 0 .81 1c.51.39.73.74.33 1.05a.94.94 0 0 0-.14.19 2.36 2.36 0 0 1-.48-1 .81.81 0 0 0-.32-.56c-.22-.16-.31 0-.4.14-.23.3-.22.82-.41 1.2-.33-1.19-.27-1.53.53-1.65zm1.02 2.92a1.83 1.83 0 0 1 1.87-.06c-.64-.03-1.24.03-1.87.06z"/></g><g data-name="&lt;Groupe&gt;"><path data-name="&lt;Tracé&gt;" fill="#fff" d="M165.37 20.83l-6.1-3.52v-7.04l6.1 3.52v7.04z"/><path data-name="&lt;Tracé&gt;" fill="#3d2868" d="M174.52 26.11l-6.1-3.52v-7.04l6.1 3.52v7.04z"/><path data-name="&lt;Tracé&gt;" fill="#fbba2e" d="M183.67 31.4l-6.1-3.52v-7.05l6.1 3.53v7.04z"/></g><path data-name="&lt;Tracé&gt;" d="M236.28 59.91l-45.64-26.35a3 3 0 0 1-1.25-2.38c0-.92.56-1.34 1.25-.94l45.64 26.35a3 3 0 0 1 1.24 2.41c0 .89-.52 1.31-1.24.91z" fill="#c5c4dc"/></g><g data-name="&lt;Groupe&gt;"><path data-name="&lt;Tracé transparent&gt;" d="M198.32 95.93v-1.76a6.67 6.67 0 0 0 .9 1.12 4.85 4.85 0 0 0 1 .77 2.45 2.45 0 0 0 .51.23.84.84 0 0 0 .36 0 .31.31 0 0 0 .22-.13.48.48 0 0 0 .07-.27 1.15 1.15 0 0 0-.11-.48 3 3 0 0 0-.31-.52 7.26 7.26 0 0 0-.47-.57l-.59-.63a7.06 7.06 0 0 1-1.2-1.63 3.48 3.48 0 0 1-.39-1.57 1.68 1.68 0 0 1 .22-.94.89.89 0 0 1 .58-.39 1.79 1.79 0 0 1 .86.07 4.94 4.94 0 0 1 1 .46 9.18 9.18 0 0 1 .95.62 6.9 6.9 0 0 1 .76.67v1.65a5.46 5.46 0 0 0-.37-.46c-.14-.15-.27-.29-.42-.41s-.29-.24-.43-.35a4.33 4.33 0 0 0-.4-.27 2.34 2.34 0 0 0-.48-.22.88.88 0 0 0-.36 0 .34.34 0 0 0-.22.08.44.44 0 0 0-.08.28 1 1 0 0 0 .09.41 2.51 2.51 0 0 0 .26.45 6.05 6.05 0 0 0 .41.51l.54.59q.41.43.74.85a6.34 6.34 0 0 1 .56.83 4 4 0 0 1 .36.85 3.28 3.28 0 0 1 .12.91 1.79 1.79 0 0 1-.22 1 .86.86 0 0 1-.59.39 1.8 1.8 0 0 1-.87-.1 5.75 5.75 0 0 1-1-.48 9 9 0 0 1-1.07-.73 6.36 6.36 0 0 1-.93-.83zm9.89 6.01l-4.1-2.37v-7.9l3.94 2.33v1.4l-2.4-1.4v1.76l2.24 1.29v1.44l-2.24-1.29V99l2.56 1.48zm3.99 2.44a6.45 6.45 0 0 1-2.39-2.49 6.84 6.84 0 0 1-.93-3.41 2.77 2.77 0 0 1 .94-2.49 2.33 2.33 0 0 1 2.49.28 6.31 6.31 0 0 1 2.37 2.47 7 7 0 0 1 .9 3.44 2.72 2.72 0 0 1-.94 2.46 2.3 2.3 0 0 1-2.44-.26zm.07-6.6q-.81-.47-1.29 0a2.08 2.08 0 0 0-.48 1.58 4.71 4.71 0 0 0 .48 2.13 3.21 3.21 0 0 0 1.25 1.4q.8.46 1.26.07a2 2 0 0 0 .47-1.57 5 5 0 0 0-.45-2.17 3.11 3.11 0 0 0-1.24-1.44z" fill="#fff"/><g data-name="&lt;Groupe&gt;"><path data-name="&lt;Tracé&gt;" d="M195.51 78.72c3.81-2.47 8.4-1.91 13.78 2.32 6.9 5.43 10.9 12.82 12.46 21.62l9.12 1.63A55.68 55.68 0 0 0 216 75.62c-10.71-10.87-20-13.12-28-8.37l-1.89-2.89c-.29-.45-.58-.9-.88-1.34-1.33-2-2.83-2.19-3.1-.39s-.5 3.72-.75 5.58c-.51 3.82-1 7.64-1.54 11.45a3.83 3.83 0 0 0 1.61 3.86 2.56 2.56 0 0 0 .9.34l15.43 2.77c.72.13 1.25-.05 1.38-.89a3.72 3.72 0 0 0-.8-2.6c-.9-1.43-1.84-2.89-2.85-4.42zm29.72 47.72c.83 1.27 1.69 2.57 2.54 3.89a3 3 0 0 0 2 1.59c.74.09 1-.45 1.13-1.27q1.1-8.38 2.23-16.73v-.3a3.57 3.57 0 0 0-2.75-4.17c-3.44-.6-6.89-1.23-10.33-1.84-1.61-.29-3.22-.56-4.83-.86-.73-.14-1.27 0-1.41.85a3.78 3.78 0 0 0 .82 2.68c1 1.52 2 3.07 3.08 4.71-3.78 2.15-8.27 1.46-13.43-2.63-6.87-5.43-10.85-12.79-12.4-21.54l-9.13-1.64a55.64 55.64 0 0 0 14.31 28c10.62 11.14 19.94 13.71 28.17 9.26z" fill="#3d2868"/></g><g data-name="&lt;Groupe&gt;"><path data-name="&lt;Tracé&gt;" d="M195.17 79.05c3.81-2.47 8.4-1.91 13.78 2.32 6.9 5.43 10.9 12.82 12.46 21.62l9.12 1.63a55.68 55.68 0 0 0-14.91-28.67c-10.67-10.87-20-13.12-27.94-8.37l-1.89-2.89c-.29-.45-.58-.9-.88-1.34-1.33-2-2.83-2.19-3.1-.39s-.5 3.72-.75 5.58c-.51 3.82-1 7.64-1.54 11.45a3.83 3.83 0 0 0 1.61 3.86 2.56 2.56 0 0 0 .9.34L197.48 87c.72.13 1.25-.05 1.38-.89a3.72 3.72 0 0 0-.8-2.6c-.95-1.51-1.89-2.93-2.89-4.46zm29.72 47.72c.83 1.27 1.69 2.57 2.54 3.89a3 3 0 0 0 2 1.59c.74.09 1-.45 1.13-1.27q1.1-8.38 2.23-16.73v-.3a3.57 3.57 0 0 0-2.75-4.17c-3.44-.6-6.89-1.23-10.33-1.84-1.61-.29-3.22-.56-4.83-.86-.73-.14-1.27 0-1.41.85a3.78 3.78 0 0 0 .82 2.68c1 1.52 2 3.07 3.08 4.71-3.78 2.15-8.27 1.46-13.43-2.63-6.87-5.43-10.85-12.79-12.4-21.54l-9.13-1.64a55.64 55.64 0 0 0 14.31 28c10.62 11.14 19.97 13.71 28.17 9.26z" fill="#fff"/></g></g></g><g data-name="&lt;Groupe&gt;"><g data-name="&lt;Groupe&gt;"><path data-name="&lt;Tracé&gt;" fill="#dfdfef" d="M148.08 198.07l-83.95-48.46 27.35-15.79 83.95 48.47-27.35 15.78z"/></g><g data-name="&lt;Groupe&gt;"><g data-name="&lt;Groupe&gt;"><path data-name="&lt;Tracé&gt;" fill="#4d4395" d="M91.67 140.65L87 137.96l4.75-2.74 4.66 2.69-4.74 2.74z"/><path data-name="&lt;Tracé&gt;" fill="#3d2868" d="M91.67 140.65l-.46-.26 4.75-2.74.45.26-4.74 2.74z"/><path data-name="&lt;Tracé&gt;" fill="#eeeef8" d="M96.69 143.55l-4.66-2.69 4.74-2.74 4.66 2.69-4.74 2.74zm5.02 2.9l-4.66-2.69 4.74-2.74 4.67 2.69-4.75 2.74zm5.03 2.9l-4.67-2.69 4.74-2.74 4.67 2.69-4.74 2.74zm5.02 2.9l-4.67-2.69 4.75-2.74 4.66 2.69-4.74 2.74zm5.02 2.9l-4.66-2.69 4.74-2.74 4.66 2.69-4.74 2.74zm5.02 2.9l-4.66-2.7 4.74-2.73 4.67 2.69-4.75 2.74zm5.03 2.9l-4.67-2.7 4.75-2.73 4.66 2.69-4.74 2.74zm5.02 2.9l-4.66-2.69 4.74-2.74 4.66 2.69-4.74 2.74zm5.02 2.9l-4.66-2.69 4.74-2.74 4.67 2.69-4.75 2.74zm5.02 2.9l-4.66-2.69 4.74-2.74 4.67 2.69-4.75 2.74zm5.03 2.9l-4.67-2.7 4.75-2.73 4.66 2.69-4.74 2.74zm5.02 2.9l-4.66-2.7 4.74-2.74 4.66 2.7-4.74 2.74z"/><path data-name="&lt;Tracé&gt;" fill="#d3d4e2" d="M96.69 143.55l-.44-.26 4.74-2.74.44.26-4.74 2.74zm5.02 2.9l-.44-.26 4.74-2.74.45.26-4.75 2.74zm5.03 2.9l-.45-.26 4.74-2.74.45.26-4.74 2.74zm5.02 2.9l-.45-.26 4.75-2.74.44.26-4.74 2.74zm5.02 2.9l-.44-.26 4.74-2.74.44.26-4.74 2.74zm5.02 2.9l-.44-.26 4.74-2.74.45.26-4.75 2.74zm5.03 2.9l-.45-.26 4.75-2.74.44.26-4.74 2.74zm5.02 2.9l-.44-.26 4.74-2.74.44.26-4.74 2.74zm5.02 2.89l-.45-.25 4.74-2.74.45.25-4.74 2.74zm5.02 2.9l-.45-.25 4.75-2.74.44.26-4.74 2.73zm5.02 2.9l-.44-.25 4.74-2.74.44.25-4.74 2.74zm5.02 2.9l-.44-.25 4.74-2.74.45.25-4.75 2.74z"/></g><path data-name="&lt;Tracé&gt;" fill="#c5c4dc" d="M89.11 145.02l-7.17-4.14 4.75-2.74 7.16 4.14-4.74 2.74z"/><path data-name="&lt;Tracé&gt;" fill="#eeeef8" d="M94.13 147.92l-4.66-2.7 4.74-2.73 4.67 2.69-4.75 2.74zm5.03 2.9l-4.67-2.69 4.74-2.74 4.67 2.69-4.74 2.74zm5.02 2.9l-4.67-2.69 4.75-2.74 4.66 2.69-4.74 2.74zm5.02 2.9l-4.66-2.69 4.74-2.74 4.66 2.69-4.74 2.74zm5.02 2.9l-4.66-2.7 4.74-2.73 4.67 2.69-4.75 2.74zm5.03 2.9l-4.67-2.7 4.75-2.73 4.66 2.69-4.74 2.74zm5.02 2.9l-4.67-2.7 4.75-2.74 4.66 2.7-4.74 2.74zm5.02 2.9l-4.66-2.7 4.74-2.74 4.66 2.7-4.74 2.74zm5.02 2.9l-4.66-2.7 4.74-2.73 4.67 2.69-4.75 2.74zm5.03 2.9l-4.67-2.7 4.75-2.73 4.66 2.69-4.74 2.74zm5.02 2.9l-4.67-2.7 4.75-2.73 4.66 2.69-4.74 2.74zm5.02 2.9l-4.66-2.7 4.74-2.74 4.67 2.7-4.75 2.74z"/><path data-name="&lt;Tracé&gt;" fill="#c5c4dc" d="M156.84 184.12l-7.1-4.1 4.74-2.74 7.11 4.1-4.75 2.74zM85.3 148.66l-8.42-4.86 4.74-2.74 8.42 4.87-4.74 2.73z"/><path data-name="&lt;Tracé&gt;" fill="#eeeef8" d="M90.32 151.56l-4.66-2.69 4.74-2.74 4.67 2.69-4.75 2.74zm5.02 2.9l-4.66-2.69 4.74-2.74 4.67 2.69-4.75 2.74zm5.03 2.9l-4.67-2.69 4.75-2.74 4.66 2.7-4.74 2.73zm5.02 2.9l-4.66-2.69 4.74-2.74 4.66 2.69-4.74 2.74zm5.02 2.9l-4.66-2.69 4.74-2.74 4.67 2.69-4.75 2.74zm5.03 2.9l-4.67-2.69 4.75-2.74 4.66 2.69-4.74 2.74zm5.02 2.9l-4.67-2.69 4.75-2.74 4.66 2.69-4.74 2.74zm5.02 2.9l-4.66-2.69 4.74-2.74 4.66 2.69-4.74 2.74zm5.02 2.9l-4.66-2.69 4.74-2.74 4.67 2.69-4.75 2.74zm5.03 2.9l-4.67-2.69 4.75-2.74 4.66 2.69-4.74 2.74zm5.02 2.9l-4.67-2.69 4.75-2.74 4.66 2.69-4.74 2.74z"/><path data-name="&lt;Tracé&gt;" fill="#c5c4dc" d="M151.78 187.05l-10.87-6.28 4.74-2.74 10.87 6.28-4.74 2.74zm-74.05-36.91l-5.91-3.42 4.74-2.73 5.92 3.41-4.75 2.74z"/><path data-name="&lt;Tracé&gt;" fill="#eeeef8" d="M82.75 153.04l-4.66-2.69 4.74-2.74 4.67 2.69-4.75 2.74zm5.03 2.9l-4.67-2.69 4.75-2.74 4.66 2.69-4.74 2.74zm5.02 2.9l-4.66-2.69 4.74-2.74 4.66 2.69-4.74 2.74zm5.02 2.9l-4.66-2.69 4.74-2.74 4.67 2.69-4.75 2.74zm5.03 2.9l-4.67-2.69 4.75-2.74 4.66 2.69-4.74 2.74zm5.02 2.9l-4.67-2.69 4.75-2.74 4.66 2.69-4.74 2.74zm5.02 2.9l-4.66-2.69 4.74-2.74 4.67 2.69-4.75 2.74zm5.02 2.9l-4.66-2.69 4.74-2.74 4.67 2.69-4.75 2.74zm5.03 2.9l-4.67-2.69 4.75-2.74 4.66 2.69-4.74 2.74zm5.02 2.9l-4.66-2.69 4.74-2.74 4.66 2.69-4.74 2.74zm5.02 2.9l-4.66-2.69 4.74-2.74 4.66 2.69-4.74 2.74z"/><path data-name="&lt;Tracé&gt;" fill="#c5c4dc" d="M143.03 187.84l-9.69-5.59 4.74-2.74 9.69 5.59-4.74 2.74zm-70.36-34.78l-5.92-3.41 4.75-2.74 5.91 3.41-4.74 2.74zm5.02 2.9l-4.66-2.69 4.74-2.74 4.67 2.69-4.75 2.74zm5.03 2.9l-4.67-2.69 4.75-2.74 4.66 2.69-4.74 2.74z"/><path data-name="&lt;Tracé&gt;" fill="#eeeef8" d="M114.01 171.45l-1.08-.62-25.11-14.5-4.75 2.74 25.12 14.5 1.08.62 3.58 2.07 4.74-2.74-3.58-2.07z"/><path data-name="&lt;Tracé&gt;" fill="#c5c4dc" d="M117.87 179.16l-4.66-2.69 4.74-2.74 4.67 2.69-4.75 2.74zm5.03 2.9l-4.67-2.69 4.75-2.74 4.66 2.69-4.74 2.74zm5.02 2.9l-4.67-2.69 4.75-2.74 4.66 2.69-4.74 2.74zm40.34-.09l-4.66-2.69 4.74-2.74 4.66 2.69-4.74 2.74zm-5.06 2.92l-4.67-2.69 4.75-2.74 4.66 2.69-4.74 2.74zm-30.26.07l-4.66-2.69 4.74-2.74 4.67 2.69-4.75 2.74zm15.11 2.88l-4.66-2.7 4.74-2.73 4.66 2.69-4.74 2.74zm-10.08.02l-4.67-2.69 4.74-2.74 4.67 2.69-4.74 2.74zm5.02 2.9l-4.67-2.69 4.75-2.74 4.66 2.69-4.74 2.74zm5.02 2.9l-4.66-2.69 4.74-2.74 4.66 2.69-4.74 2.74zm13.9-15.36l-9.61-5.55 4.74-2.74 9.61 5.55-4.74 2.74z"/><path data-name="&lt;Tracé&gt;" fill="#b8b8d1" d="M161.91 181.2l-.45-.26 4.75-2.73.44.25-4.74 2.74zm6.35 3.67l-.44-.26 4.74-2.74.44.26-4.74 2.74zm-5.06 2.92l-.45-.25 4.75-2.74.44.25-4.74 2.74zm-6.36-3.67l-.44-.25 4.74-2.74.45.25-4.75 2.74zm-5.06 2.93l-.44-.26 4.74-2.74.44.26-4.74 2.74zm-3.73 3.69l-.44-.26 4.74-2.74.44.26-4.74 2.74zm-5.06 2.92l-.45-.25 4.75-2.74.44.25-4.74 2.74zm5.02 2.9l-.44-.26 4.74-2.73.44.25-4.74 2.74zm-4.98-8.72l-.45-.26 4.75-2.74.44.26-4.74 2.74zm-5.06 2.92l-.45-.26 4.74-2.73.45.25-4.74 2.74zm-10.05-5.8l-.44-.25 4.74-2.74.44.25-4.74 2.74zm5.02 2.9l-.44-.26 4.74-2.73.45.25-4.75 2.74zm-10.04-5.8l-.45-.25 4.75-2.74.44.25-4.74 2.74zm-5.03-2.9l-.44-.25 4.74-2.74.45.25-4.75 2.74z"/><path data-name="&lt;Tracé&gt;" fill="#d3d4e2" d="M94.14 147.92l-.44-.25 4.74-2.74.45.26-4.75 2.73zm5.03 2.9l-.45-.25 4.75-2.74.44.26-4.74 2.73zm5.02 2.9l-.45-.25 4.75-2.74.44.26-4.74 2.73zm5.02 2.9l-.44-.25 4.74-2.74.44.25-4.74 2.74zm5.02 2.9l-.44-.25 4.74-2.74.45.25-4.75 2.74zm5.03 2.9l-.45-.25 4.75-2.74.44.25-4.74 2.74zm5.02 2.9l-.45-.25 4.75-2.74.44.25-4.74 2.74zm5.02 2.9l-.44-.25 4.74-2.74.44.25-4.74 2.74zm5.02 2.9l-.45-.26 4.75-2.74.44.26-4.74 2.74zm5.02 2.9l-.44-.26 4.74-2.74.44.26-4.74 2.74zm5.02 2.9l-.44-.26 4.74-2.74.45.26-4.75 2.74zm5.02 2.9l-.44-.26 4.75-2.74.44.26-4.75 2.74zm-59.06-28.26l-.44-.25 4.74-2.74.45.25-4.75 2.74zm5.02 2.9l-.44-.25 4.74-2.74.45.25-4.75 2.74zm5.03 2.9l-.45-.25 4.75-2.74.44.26-4.74 2.73zm5.02 2.9l-.44-.25 4.74-2.74.44.25-4.74 2.74zm5.02 2.9l-.44-.25 4.74-2.74.45.25-4.75 2.74zm5.03 2.9l-.45-.25 4.75-2.74.44.25-4.74 2.74zm5.02 2.9l-.44-.25 4.74-2.74.44.25-4.74 2.74zm5.01 2.9l-.44-.26 4.74-2.74.45.26-4.75 2.74zm5.03 2.9l-.45-.26 4.75-2.74.44.26-4.74 2.74zm5.02 2.9l-.44-.26 4.74-2.74.44.26-4.74 2.74zm5.02 2.9l-.44-.26 4.74-2.74.45.26-4.75 2.74zm-57.78-27.52l-.44-.25 4.74-2.74.45.26-4.75 2.73zm5.02 2.9l-.44-.25 4.74-2.74.45.26-4.75 2.73zm5.03 2.9l-.45-.25 4.75-2.74.44.25-4.74 2.74zm5.02 2.9l-.44-.25 4.74-2.74.44.25-4.74 2.74zm5.02 2.9l-.44-.25 4.74-2.74.45.26-4.75 2.73zm5.03 2.9l-.45-.25 4.74-2.74.45.26-4.74 2.73zm5.02 2.9l-.45-.25 4.75-2.74.44.25-4.74 2.74zm5.01 2.9l-.44-.26 4.74-2.74.45.26-4.75 2.74zm5.03 2.9l-.45-.26 4.75-2.74.44.26-4.74 2.74zm5.02 2.9l-.44-.26 4.74-2.74.44.26-4.74 2.74zm5.02 2.9l-.44-.26 4.74-2.74.44.26-4.74 2.74zm-20.13-5.78l-.44-.25 4.74-2.74.44.25-4.74 2.74z"/></g><path data-name="&lt;Tracé&gt;" fill="#b8b8d1" d="M82.72 158.86l-.45-.25 4.75-2.74.44.25-4.74 2.74zm-5.03-2.9l-.44-.25 4.74-2.74.45.25-4.75 2.74zm-5.02-2.9l-.44-.25 4.74-2.74.44.25-4.74 2.74zm5.06-2.92l-.44-.26 4.74-2.73.45.25-4.75 2.74zm7.57-1.48l-.44-.25 4.74-2.74.44.26-4.74 2.73zm3.81-3.64l-.44-.26 4.74-2.74.44.26-4.74 2.74z"/></g><path data-name="&lt;Tracé&gt;" fill="url(#a)" d="M148.08 198.07l-83.95-48.46v1.98l83.95 48.45v-1.97z"/><path data-name="&lt;Tracé&gt;" fill="url(#b)" d="M148.08 198.07v1.97l27.35-15.77v-1.98l-27.35 15.78z"/><g data-name="&lt;Groupe&gt;"><path data-name="&lt;Tracé&gt;" style="mix-blend-mode:multiply" fill="#cacbcc" d="M179.54 131.55l-48.1-27.77V69.95l48.1 27.77v33.83z"/><path data-name="&lt;Tracé&gt;" fill="#eeeef8" d="M175.83 127.24l-48.1-27.77V65.64l48.1 27.77v33.83z"/><path data-name="&lt;Tracé&gt;" fill="#d9d9ee" d="M175.83 97.7l-48.1-27.77v-4.29l48.1 27.77v4.29z"/><g data-name="&lt;Groupe&gt;"><path data-name="&lt;Tracé&gt;" d="M140 83.57c0 1.59-1.12 2.23-2.49 1.44a5.51 5.51 0 0 1-2.51-4.32c0-1.59 1.12-2.23 2.49-1.44a5.51 5.51 0 0 1 2.51 4.32z" fill="#ea4986"/><path data-name="&lt;Tracé&gt;" d="M167.73 100.65l-24.49-14.14a1.93 1.93 0 0 1-.81-1.54c0-.59.36-.87.81-.61l24.49 14.14a1.93 1.93 0 0 1 .81 1.54c0 .6-.36.87-.81.61z" fill="#c5c4dc"/><path data-name="&lt;Tracé&gt;" d="M140 91.74c0 1.59-1.12 2.23-2.49 1.44a5.51 5.51 0 0 1-2.51-4.32c0-1.59 1.12-2.23 2.49-1.44a5.51 5.51 0 0 1 2.51 4.32z" fill="#3d2868"/><path data-name="&lt;Tracé&gt;" d="M167.73 108.83l-24.49-14.14a1.93 1.93 0 0 1-.81-1.54c0-.59.36-.87.81-.61l24.49 14.14a1.93 1.93 0 0 1 .81 1.54c0 .59-.36.86-.81.61z" fill="#c5c4dc"/><path data-name="&lt;Tracé&gt;" d="M140 99.92c0 1.59-1.12 2.23-2.49 1.44A5.51 5.51 0 0 1 135 97c0-1.59 1.12-2.23 2.49-1.44a5.51 5.51 0 0 1 2.51 4.36z" fill="#fbba2e"/><path data-name="&lt;Tracé&gt;" d="M167.73 117l-24.49-14.14a1.93 1.93 0 0 1-.81-1.54c0-.59.36-.87.81-.61l24.49 14.14a1.93 1.93 0 0 1 .81 1.54c0 .61-.36.87-.81.61z" fill="#c5c4dc"/></g><path data-name="&lt;Tracé&gt;" fill="url(#h)" d="M175.82 93.41l-48.1-27.78 1.94-1.18 48.1 27.77-1.94 1.19z"/><path data-name="&lt;Tracé&gt;" fill="url(#i)" d="M177.76 126.05l-1.94 1.18V93.41l1.94-1.19v33.83z"/></g><g data-name="&lt;Groupe&gt;"><g data-name="&lt;Groupe&gt;"><g data-name="&lt;Groupe&gt;"><path data-name="&lt;Tracé&gt;" style="mix-blend-mode:multiply" fill="#cacbcc" d="M272.52 146.96v3.61l-6.15-7.16-23-13.28v-17.85l29.15 16.82v17.86z"/><path data-name="&lt;Tracé&gt;" fill="#eeeef8" d="M269.58 143.28v3.61l-6.15-7.16-23-13.27V108.6l29.15 16.83v17.85z"/><path data-name="&lt;Tracé&gt;" fill="#d9d9ee" d="M269.58 127.69l-29.09-16.79v-2.27l29.09 16.8v2.26z"/></g><g data-name="&lt;Groupe&gt;"><path data-name="&lt;Tracé&gt;" d="M250.74 123.88c0 1.31-.92 1.83-2 1.18a4.52 4.52 0 0 1-2-3.54c0-1.31.92-1.83 2-1.18a4.52 4.52 0 0 1 2 3.54zm6.31 3.64c0 1.31-.92 1.83-2 1.18a4.52 4.52 0 0 1-2-3.54c0-1.31.92-1.83 2-1.18a4.52 4.52 0 0 1 2 3.54zm6.31 3.65c0 1.31-.92 1.83-2 1.18a4.52 4.52 0 0 1-2-3.54c0-1.31.92-1.83 2-1.18a4.52 4.52 0 0 1 2 3.54z" fill="#c5c4dc"/></g></g><path data-name="&lt;Tracé&gt;" fill="url(#j)" d="M269.58 125.43l-29.15-16.83 1.51-.92 29.14 16.83-1.5.92z"/><path data-name="&lt;Tracé&gt;" fill="url(#k)" d="M271.08 145.97l-1.5.92v-21.46l1.5-.92v21.46z"/></g><g data-name="&lt;Groupe&gt;"><g mask="url(#l)"><path data-name="&lt;Tracé&gt;" fill="url(#m)" d="M208.18 152.02H181.1l48.1 27.77h27.09l-48.11-27.77z"/></g><g data-name="&lt;Groupe&gt;"><path data-name="&lt;Tracé&gt;" fill="#eeeef8" d="M229.2 179.79l-48.1-27.77v-33.83l48.1 27.77v33.83z"/><path data-name="&lt;Tracé&gt;" fill="#d9d9ee" d="M229.2 150.25l-48.1-27.77v-4.29l48.1 27.77v4.29z"/><g data-name="&lt;Groupe&gt;"><path data-name="&lt;Tracé&gt;" d="M185.36 148.49a1.22 1.22 0 0 1-.26-.2 1.41 1.41 0 0 1-.42-1.33c.14-.34 3.4-8.22 9.11-7.77 6.5.51 13.91 7.19 16 9.23 3.23 3.1 10.42 8.1 14.57 4.81.26-.21.72 0 1 .49s.35 1 .09 1.23c-4.65 3.69-12.59-1.79-16.14-5.21-2-1.92-9-8.2-15-8.68-5.14-.4-8.3 7.2-8.33 7.27-.06.28-.33.33-.62.16z" fill="#ea4986"/></g><g data-name="&lt;Groupe&gt;"><path data-name="&lt;Tracé&gt;" d="M209.79 159.66c-3.64-2.1-5.35-5.39-7-8.56a27 27 0 0 0-5-7.34c-5.11-5-9.33-2-9.37-2-.26.2-.72 0-1-.51s-.33-1-.07-1.22 4.9-3.56 11 2.4a30.15 30.15 0 0 1 5.58 8.19c1.63 3.14 2.91 5.62 5.89 7.34 3.21 1.85 4.63-.58 6.44-3.67 1.21-2.06 2.58-4.41 4.74-5.83.27-.18.73.07 1 .55s.31 1 0 1.21c-2 1.34-3.34 3.59-4.51 5.58-1.83 3.2-3.6 6.2-7.7 3.86z" fill="#3d2868"/></g><g data-name="&lt;Groupe&gt;"><path data-name="&lt;Tracé&gt;" d="M198.26 155.94l-7.91-4.57a1.61 1.61 0 0 1-.73-1.26c0-.46.33-.65.73-.42l7.91 4.57c4.39 2.53 13.44 4 13.44-7.81 0-.46.33-.65.73-.42a1.61 1.61 0 0 1 .73 1.26c0 13.04-10.04 11.46-14.9 8.65z" fill="#fbba2e"/></g></g><path data-name="&lt;Tracé&gt;" fill="url(#n)" d="M229.21 146l-48.1-27.77 1.94-1.18 48.1 27.77-1.94 1.18z"/><path data-name="&lt;Tracé&gt;" fill="url(#o)" d="M231.15 178.65l-1.94 1.18V146l1.94-1.18v33.83z"/></g><g data-name="&lt;Groupe&gt;"><path data-name="&lt;Tracé&gt;" style="mix-blend-mode:multiply" fill="#cacbcc" d="M162.59 72.31l-48.11-27.77V10.71l48.11 27.78v33.82z"/><path data-name="&lt;Tracé&gt;" fill="url(#p)" d="M158.53 33.45l-48.1-27.77 1.94-1.18 48.1 27.77-1.94 1.18z"/><path data-name="&lt;Tracé&gt;" fill="url(#q)" d="M160.47 66.09l-1.94 1.19V33.45l1.94-1.18v33.82z"/><g data-name="&lt;Groupe&gt;"><g data-name="&lt;Groupe&gt;"><path data-name="&lt;Tracé&gt;" fill="#eeeef8" d="M158.53 67.28l-48.1-27.77V5.68l48.1 27.77v33.83z"/><path data-name="&lt;Tracé&gt;" fill="#d9d9ee" d="M158.53 37.74l-48.1-27.77V5.68l48.1 27.77v4.29z"/></g><g data-name="&lt;Groupe&gt;"><g data-name="&lt;Groupe&gt;"><g data-name="&lt;Groupe&gt;"><path data-name="&lt;Tracé transparent&gt;" d="M145.79 35.42c-4.43-2.56-8-.48-8 4.63a17.73 17.73 0 0 0 8 13.9c4.43 2.56 8 .48 8-4.63a17.73 17.73 0 0 0-8-13.9zm0 15.26a11.47 11.47 0 0 1-5.19-9c0-3.31 2.32-4.65 5.19-3a11.47 11.47 0 0 1 5.19 9c.02 3.32-2.33 4.65-5.19 3z" fill="#ea4986"/></g><g data-name="&lt;Groupe&gt;"><path data-name="&lt;Tracé&gt;" d="M145.79 35.42v3.27a11.47 11.47 0 0 1 5.19 9l2.83 1.64a17.73 17.73 0 0 0-8.02-13.91z" fill="#3d2868"/></g><g data-name="&lt;Groupe&gt;"><path data-name="&lt;Tracé&gt;" d="M150.25 44.19a9.6 9.6 0 0 1 .73 3.49l2.83 1.64a14.68 14.68 0 0 0-1-5.17z" fill="#fbba2e"/></g></g><g data-name="&lt;Groupe&gt;"><g data-name="&lt;Groupe&gt;"><path data-name="&lt;Tracé transparent&gt;" d="M123.17 22.37c-4.43-2.56-8-.48-8 4.63a17.73 17.73 0 0 0 8 13.9c4.43 2.56 8 .48 8-4.63a17.73 17.73 0 0 0-8-13.9zm0 15.26a11.47 11.47 0 0 1-5.19-9c0-3.31 2.32-4.65 5.19-3a11.47 11.47 0 0 1 5.19 9c.01 3.31-2.36 4.65-5.19 2.99z" fill="#ea4986"/></g><g data-name="&lt;Groupe&gt;"><path data-name="&lt;Tracé&gt;" d="M123.17 22.37v3.27a11.47 11.47 0 0 1 5.19 9c0 3.31-2.32 4.65-5.19 3a11.47 11.47 0 0 1-5.19-9L115.15 27a17.73 17.73 0 0 0 8 13.9c4.43 2.56 8 .48 8-4.63a17.73 17.73 0 0 0-7.98-13.9z" fill="#3d2868"/></g><g data-name="&lt;Groupe&gt;"><path data-name="&lt;Tracé&gt;" d="M123.17 22.37v3.27a10.61 10.61 0 0 1 3.67 3.87l2-1.15a16.4 16.4 0 0 0-5.67-5.99z" fill="#fbba2e"/></g></g></g></g></g><g data-name="&lt;Groupe&gt;"><path data-name="&lt;Tracé&gt;" style="mix-blend-mode:multiply" fill="#cacbcc" d="M302.73 134.35l-48.1-27.77V72.75l48.1 27.77v33.83z"/><path data-name="&lt;Tracé&gt;" fill="url(#r)" d="M298.5 95.25l-48.11-27.77 1.95-1.18 48.1 27.77-1.94 1.18z"/><path data-name="&lt;Tracé&gt;" fill="url(#s)" d="M300.44 127.9l-1.94 1.18V95.25l1.94-1.18v33.83z"/><g data-name="&lt;Groupe&gt;"><path data-name="&lt;Tracé&gt;" fill="#eeeef8" d="M298.5 129.07l-48.1-27.77V67.48l48.1 27.77v33.82z"/><path data-name="&lt;Tracé&gt;" fill="#d9d9ee" d="M298.5 99.54l-48.1-27.77v-4.29l48.1 27.77v4.29z"/><g data-name="&lt;Groupe&gt;"><path data-name="&lt;Tracé&gt;" fill="#ea4986" d="M265.32 104.49l-2.42-1.4V87.42l2.42 1.4v15.67z"/><path data-name="&lt;Tracé&gt;" fill="#3d2868" d="M267.75 105.89l-2.43-1.4v-9.05l2.43 1.4v9.05zM286 116.43l-2.42-1.4V96.94l2.42 1.4v18.09z"/><path data-name="&lt;Tracé&gt;" fill="#3d2868" d="M286 116.43l-2.42-1.4V96.94l2.42 1.4v18.09z"/><path data-name="&lt;Tracé&gt;" fill="#ea4986" d="M283.58 115.03l-2.43-1.4v-8.39l2.43 1.4v8.39z"/><path data-name="&lt;Tracé&gt;" fill="#3d2868" d="M277.44 111.48l-2.42-1.39V99.92l2.42 1.4v10.16zm-4.85-2.79l-2.42-1.4V94.14l2.42 1.4v13.15z"/><path data-name="&lt;Tracé&gt;" fill="#fbba2e" d="M275.02 110.09l-2.43-1.4v-7.18l2.43 1.4v7.18z"/><path data-name="&lt;Tracé&gt;" fill="#ea4986" d="M270.17 107.29l-2.42-1.4v-4.52l2.42 1.4v4.52z"/></g></g></g><g data-name="&lt;Groupe&gt;"><path data-name="&lt;Tracé&gt;" fill="url(#t)" d="M237.55 42.57L189.44 14.8l1.95-1.18 48.1 27.77-1.94 1.18z"/><path data-name="&lt;Tracé&gt;" fill="url(#u)" d="M239.49 75.22l-1.94 1.18V42.57l1.94-1.18v33.83z"/><g data-name="&lt;Groupe&gt;"><path data-name="&lt;Tracé&gt;" style="mix-blend-mode:multiply" fill="#cacbcc" d="M241.5 81.29l-48.1-27.77V19.7l48.1 27.77v33.82z"/><path data-name="&lt;Tracé&gt;" fill="#eeeef8" d="M237.54 76.39l-48.1-27.77V14.8l48.1 27.77v33.82z"/><path data-name="&lt;Tracé&gt;" fill="#d9d9ee" d="M237.54 46.86l-48.1-27.77V14.8l48.1 27.77v4.29z"/><g data-name="&lt;Groupe&gt;"><path data-name="&lt;Tracé&gt;" d="M221.91 49.9c0 5.37-3.77 7.55-8.42 4.86s-8.42-9.21-8.42-14.58 3.77-7.55 8.42-4.86 8.42 9.21 8.42 14.58z" fill="#3d2868"/><path data-name="&lt;Tracé&gt;" fill="#fff" d="M210.22 49.65V36.64l9.45 11.96-9.45 1.05z"/></g><g data-name="&lt;Groupe&gt;"><path data-name="&lt;Tracé&gt;" fill="#c5c4dc" d="M231.68 67.43l-36.37-21v3.36l36.37 21v-3.36z"/><path data-name="&lt;Tracé&gt;" fill="#3d2868" d="M203.58 51.21l-8.27-4.78v3.36l8.27 4.77v-3.35z"/></g></g></g><g data-name="&lt;Groupe&gt;"><path data-name="&lt;Tracé&gt;" d="M271.09 55.68c0 5.4-3.79 7.59-8.46 4.89s-8.46-9.26-8.46-14.66 3.83-7.59 8.46-4.91 8.46 9.28 8.46 14.68z" fill="#3d2868"/><g data-name="&lt;Groupe&gt;"><path data-name="&lt;Tracé&gt;" d="M261.77 55.86a1.4 1.4 0 0 1-1-1.19c-.23-1-.54-2-.78-3a1.54 1.54 0 0 0-.55-.88c-.75-.65-1.49-1.33-2.25-2a1 1 0 0 1-.4-.83v-1.88c0-.18.17-.38.31-.34 2.93.8 5.87 1.63 8.81 2.45a.88.88 0 0 1 .15.11v8.25l-3.91-3.35zm5.52 1.68c-.79-.58-.8-.58-.8-1.37v-7c0-.83 0-.83.8-.5z" fill="#fff"/></g></g><g data-name="&lt;Groupe&gt;"><path data-name="&lt;Tracé&gt;" d="M175.73 83.39c0 3.3-2.32 4.64-5.17 3a11.43 11.43 0 0 1-5.17-9c0-3.3 2.32-4.64 5.17-3a11.43 11.43 0 0 1 5.17 9z" fill="#ea4986"/><path data-name="&lt;Tracé&gt;" d="M170.53 78.2c1.11-.32 2.12.31 2.77 1.69s.62 2.67-.07 3.11a15.8 15.8 0 0 1-2.42 1.14c-.11 0-.43-.16-.55-.34-.79-1.23-1.6-2.46-2.3-3.74-1-1.86-.68-3.66.6-3.56.77.06 1.39.75 1.97 1.7z" fill="#fff"/></g><g data-name="&lt;Groupe&gt;"><path data-name="&lt;Tracé&gt;" d="M161.27 151.17c.52.18.31.69-1.79.95a12.21 12.21 0 0 1-3.58.08c-.73-.12-.41-2.22-.41-2.22.4-.1 1-.43 1.43-.09a5.94 5.94 0 0 0 1.69.59c1.15.28 2.06.52 2.66.69z" fill="#ea4986"/><g data-name="&lt;Groupe&gt;"><path data-name="&lt;Tracé&gt;" d="M154.45 93.09a1.1 1.1 0 0 1-1-.64c-.25-.55.24-.93.54-1.46 2.46-4.33 3.23-3.22 4.51-4.38 1.47-1.33 6-6.41 6-6.47.4-.46.76-2.48.89-1.88.34 1.65 1.36 1.72 1.19 2s-1 .39-1.18.55-3.86 6-5.43 7.4c-1.77 1.6-4.52 4.49-5.08 4.75a1.1 1.1 0 0 1-.44.13z" fill="#fff"/></g><g data-name="&lt;Groupe&gt;"><path data-name="&lt;Tracé&gt;" d="M154.45 93.09a1.1 1.1 0 0 1-1-.64c-.25-.55.24-.93.54-1.46 2.46-4.33 4.93-5 6.16-6.19.85-.84 2 .58 1.68 1.23a52 52 0 0 1-4.83 6.12c-1.29 1.24-1.79.7-2.1.85a1.1 1.1 0 0 1-.45.09z" fill="#3d2868"/></g><path data-name="&lt;Tracé&gt;" d="M161.15 79.92c0 2.6.37 7.9-2.23 7.9a3.45 3.45 0 0 1-1.56-.47c-.3-.16-.42 5.58-.72 5.35-2.31-1.68-4.9-10.9-4.9-12.78a4.71 4.71 0 0 1 9.41 0z" fill="#fff"/><path data-name="&lt;Tracé&gt;" d="M174.72 87.47a21.3 21.3 0 0 1-5.09 6.83c-1 .75-8.2-1.21-8.2-1.21a23.4 23.4 0 0 1-5.53-2.53c-3.61-2.08-6.53-2.7-6.53-1.39 0 6.52-.29 14.49.62 19-2.42 1-3.27 4-2.28 19.27.36 5.53-2 8 1.09 19 .15.53-1.27 2.65.59 2.77 1.18.08 1.77-1.69 1.7-2.17-.11-.76-.52-.69-.5-.82 1.54-11.77-.06-12.54 1-17.22 1.25-5.34 1.43-11.31 1.58-11 1.28 2.23-.14 4.84 1.28 14.68.68 4.71-1.71 4.23 1 17.33.18.85 1.35 1.06 1.42.09.64-9.35 1-14 1.93-19a69.42 69.42 0 0 0 .81-18.67c-.73-7.47 1.63-9.79 1.52-11.5-.27-4.49-1.13-3.18 2.7-3.21s6.21-.69 7-1.24c2.57-1.88 4.6-7.66 4.95-8.44.22-.49-1-.7-1.06-.57z" fill="url(#v)"/><path data-name="&lt;Tracé&gt;" d="M161.15 79.86c0 3.8-6.17.32-4.7 11.7 2.3 17.79-5.63 1.44-2.56 16.43.22 1.1 1.64 6.54-1.47 6.54-1.56 0-2.34-6.38-4.49-5.09-1.53.91-2.77-2.43-3.37-4.88-3.36-13.79 4.06-10 3.91-11.36-1-8.61-1.91-11.22 3.27-14.41 0 0-.88-4.18 5.22-4.15 2.88.03 4.19 1.42 4.19 5.22z" fill="url(#d)"/><g data-name="&lt;Groupe&gt;"><path data-name="&lt;Tracé&gt;" d="M169.63 94.3a21.3 21.3 0 0 0 5.09-6.83c.06-.13.17-.45.32-.83 0-.06-1.16-1.62-.69-1.56s.83.56 1 .16.38-1.19.38-1.19c1.57 1.1.28 3.49.08 3.95-.35.78-2.38 6.56-4.95 8.44a1.63 1.63 0 0 0 0-1.71 1 1 0 0 0-1.23-.43z" fill="#fff"/></g></g><g data-name="&lt;Groupe&gt;"><g data-name="&lt;Groupe&gt;"><path data-name="&lt;Tracé&gt;" d="M247.29 205.37l-13.29-7.7a3.63 3.63 0 0 1-2.12-3.09v-11.19l42.22-.4v11.17c0 1.4-1 2.87-3 4l-11.57 6.68c-3.62 2.16-9.1 2.34-12.24.53z" fill="#c5c4dc"/><path data-name="&lt;Tracé&gt;" d="M247.29 194.36L234 186.67c-3.14-1.81-2.74-5 .88-7.06l11.57-6.68c3.62-2.09 9.1-2.32 12.23-.51l13.32 7.69c3.14 1.81 2.74 5-.88 7.06l-11.57 6.68c-3.64 2.09-9.12 2.32-12.26.51z" fill="#eeeef8"/></g><g data-name="&lt;Groupe&gt;"><path data-name="&lt;Tracé&gt;" d="M228.6 218.65c-1.49.86-2.88 2-4.55.91s.82-2.05 2.23-3a7.22 7.22 0 0 1 2.7-1.39 4.35 4.35 0 0 1 2 .21 12.45 12.45 0 0 1 0 1.41 2.45 2.45 0 0 1-.67 1.26c-.31.16-1.38.41-1.71.6z" fill="#4e3a8e"/><path data-name="&lt;Tracé&gt;" d="M254.9 186.82c-4.19 3.78-12 9.45-15 13.14-1.82 2.21-4.18 7.2-6.31 11.11-.95 1.74-2.63 5.78-3.74 5.27s-.86-1.22-.86-1.22c.17-3.48 3.65-13 7.19-18.54 2.79-4.39 9.1-10.67 8.24-11.5s-11.17 5.37-8.17 5.82c4.08.62 13.33 6 12.89 6.57s.17.77-.76.89a28.21 28.21 0 0 1-3.49 0c-6.29-.45-16.86-4.63-16.86-7.32 0-3.55 12.84-13.37 12.84-13.37l2.82-7.1 14.37 8.3s1.03 4.13-3.16 7.95z" fill="url(#w)"/><path data-name="&lt;Tracé&gt;" d="M241.8 197.94a25 25 0 0 0-1.92 2c-3 3.69-8.56 4.69-4.1-2.76l.29-.47.21-.33c1.79.62 5.52 1.56 5.52 1.56z" style="mix-blend-mode:multiply" fill="#cacbcc"/><path data-name="&lt;Tracé&gt;" d="M255.59 159.18c-4.74-2.74-9.33-4.53-10.25-4s-1.59 16.42-1.59 16.42c-.75.43 1.78 2.6 5.66 4.83s7.62 3.7 8.37 3.27c0 0 .4-1.18.92-2.83.76-2.41 3.54-5.58 3.39-11.5a4.11 4.11 0 0 0-1.64-3 44.16 44.16 0 0 0-4.86-3.19z" fill="url(#f)"/><path data-name="&lt;Tracé&gt;" d="M252 150c1.25 2.2.88 4 3.56 9.2.11.22-1 .56-2.23-.1-.9-.47-2-2-2.19-1.91-2.65 1.75-4.71-.48-6.31-3.28s-1.53-5.67.54-6.85 5.07.12 6.63 2.94z" fill="#fff"/><path data-name="&lt;Tracé&gt;" d="M253.14 153c-.43 1.05-.94-1.91-1.29-1.2a1.63 1.63 0 0 1-1.14.92c-1.43.32-1.68-1.29-2.72-1.68a8.86 8.86 0 0 0-4.38 0c-.19-1.92-.2-3.06 1.72-5.1 2.76-2.94 11.08-.94 7.81 7.06z" fill="#3d2868"/><g data-name="&lt;Groupe&gt;"><path data-name="&lt;Tracé&gt;" d="M247.93 179.75c-1.77 0-2.63-.65-4-1.1-.78-.26-1.86-2.46-1.86-2.46.26-.78 1.17-.17 2 .09 3.64 1.19 10 .11 12.38-1.18 1.05-.57 1.37-4 1.37-9.29 0-.82.77-2.53 1.92-2.53s2.16 1.4 2.16 2.85c0 4.46-.8 9.82-4 11.57a23.29 23.29 0 0 1-9.97 2.05z" fill="#fff"/></g><path data-name="&lt;Tracé&gt;" d="M247.78 179.48l-11.49-6.63c-.74-.43-.65-1.17.21-1.67l6.4-3.7a3.21 3.21 0 0 1 2.89-.12l11.48 6.64c.74.43.65 1.17-.21 1.67l-6.4 3.7a3.21 3.21 0 0 1-2.88.11z" fill="#3d2868"/><path data-name="&lt;Tracé&gt;" d="M247.6 178.41l-9.46-5.46c-.61-.35-.53-1 .17-1.37l5.27-3a2.64 2.64 0 0 1 2.38-.1l9.46 5.46c.61.35.53 1-.17 1.37l-5.27 3a2.64 2.64 0 0 1-2.38.1z" fill="#c5c4dc"/><g data-name="&lt;Groupe&gt;"><path data-name="&lt;Tracé&gt;" d="M249.7 176.21a1.49 1.49 0 0 1-1.33-.82c-2.56-5.06-7.38-4.57-8.59-7.29a1.54 1.54 0 0 1 0-1.23c.61-1.43 3.35-7.92 5.26-10.75l-.86 8.74a3 3 0 0 0-.57 1.4c-.16 1.19 5.25 3.41 7.46 7.79.37.73.58 2.47-.16 2.84-.26.11-.99-.68-1.21-.68z" fill="#fff"/></g><path data-name="&lt;Tracé&gt;" d="M251.12 196.32a4.41 4.41 0 0 1 0 4.65c-1.36 2-2.73 3.11-3.07 2.42s.5-2.87 1.86-4.89.88-2.86 1.21-2.18z" fill="url(#x)"/><path data-name="&lt;Tracé&gt;" d="M248 196.43c.19.38.52.3.62.4s.26.36.15 1.37c-.15 1.3-1.4 3.14-1.17 4.28.2 1 .64 1.23.49.91-.33-.68.5-2.87 1.86-4.89a6.63 6.63 0 0 0 1.08-2.41 16.21 16.21 0 0 0-3.03.34z" fill="#4e3a8e"/></g></g></g></g></svg>