<svg xmlns="http://www.w3.org/2000/svg" viewBox="0 0 509.287 509.287"><circle cx="254.644" cy="254.644" r="254.644" fill="#f0582f"/><path d="M415.703 74.935H93.584c-10.172 0-18.649 8.138-18.649 18.649v322.119c0 10.172 8.138 18.649 18.649 18.649h322.119c10.172 0 18.649-8.138 18.649-18.649V93.584c0-10.172-8.477-18.649-18.649-18.649z" fill="#646b79"/><path fill="#6eb1e1" d="M104.095 143.767h301.436v265.494H104.095z"/><path d="M223.449 346.872l-32.212 14.919c-25.43 11.868-55.608.678-67.476-24.752s-.678-55.608 24.752-67.475l32.212-14.919c25.43-11.868 55.608-.678 67.475 24.752 11.869 25.43.679 55.607-24.751 67.475zm-64.424-54.93c-12.885 6.103-18.649 21.362-12.546 34.246 6.103 12.885 21.362 18.649 34.246 12.546l32.212-14.919c12.885-6.103 18.649-21.362 12.546-34.246-6.103-12.885-21.362-18.649-34.246-12.546l-32.212 14.919zm201.749-8.477l-32.212 14.919c-25.43 11.868-55.608.678-67.475-24.752s-.678-55.608 24.752-67.475l32.212-14.919c25.43-11.868 55.608-.678 67.475 24.752 11.528 25.43.678 55.607-24.752 67.475zm-64.424-54.591c-12.885 6.103-18.649 21.362-12.546 34.246 6.103 12.885 21.362 18.649 34.246 12.546l32.212-14.919c12.885-6.103 18.649-21.362 12.546-34.246-6.103-12.885-21.362-18.649-34.246-12.546l-32.212 14.919z" fill="#fffffc"/><path d="M302.114 268.207L217.685 307.2c-6.103 2.713-13.563 0-16.615-6.103-2.713-6.103 0-13.563 6.103-16.615l84.429-38.993c6.103-2.713 13.563 0 16.615 6.103 2.713 6.442 0 13.902-6.103 16.615z" fill="#dededf"/><circle cx="113.928" cy="110.199" r="9.833" fill="#f0582f"/><circle cx="145.462" cy="110.199" r="9.833" fill="#fbd303"/><circle cx="176.996" cy="110.199" r="9.833" fill="#71d456"/></svg>