<svg xmlns="http://www.w3.org/2000/svg" viewBox="0 0 512 512"><path d="M512 256c0 141.387-114.613 256-256 256S0 397.387 0 256 114.613 0 256 0s256 114.613 256 256zm0 0" fill="#d88cff"/><path d="M512 256c0-10.176-.613-20.207-1.766-30.07L407 122.695l-302 266.61 120.93 120.93A259.003 259.003 0 0 0 256 512c141.387 0 256-114.613 256-256zm0 0" fill="#be40ff"/><path d="M187.293 131.543L256 389.305h151V184.629zm0 0" fill="#5c6f74"/><path d="M105 184.629v204.676h151V131.543zm0 0" fill="#7a888a"/><path d="M222.684 166.934L256 371.609h133.305V166.934zm0 0" fill="#eaf7ff"/><path d="M122.695 166.934H256v204.675H122.695zm0 0" fill="#fff"/><path d="M407 184.629v-61.934h-61.934l-17.695 30.965 17.695 30.969zm0 0" fill="#f85b3f"/><path d="M345.066 184.629v-61.934H256l-17.695 30.965L256 184.63zm0 0" fill="#3e575f"/><path d="M105 122.695h151v61.934H105zm0 0" fill="#5c6f74"/><path d="M256 215.598l-17.695 62.52L256 340.644c34.477 0 62.523-28.051 62.523-62.524 0-34.476-28.046-62.523-62.523-62.523zm0 0" fill="#367a9f"/><path d="M193.477 278.117c0 34.477 28.046 62.524 62.523 62.524V215.598c-34.477 0-62.523 28.047-62.523 62.52zm0 0" fill="#4bb4f5"/><path d="M256 206.746l-11.797 8.852 11.797 9.09c3.477 2.722 10.477 17.87 11.781 44.582H256l-11.797 8.847L256 286.97h11.781c-1.304 26.71-8.304 41.86-11.781 44.582l-11.797 9.094L256 349.488c39.355 0 71.371-32.015 71.371-71.37 0-39.352-32.016-71.372-71.371-71.372zm52.941 62.524h-23.457c-.644-14.286-2.843-27.59-6.359-38.137-.2-.594-.398-1.164-.598-1.727 15.805 7.34 27.465 22.149 30.414 39.864zm-30.414 57.562c.2-.562.399-1.137.594-1.727 3.52-10.546 5.719-23.851 6.363-38.136h23.457c-2.949 17.715-14.609 32.523-30.414 39.863zm0 0" fill="#7acbfc"/><path d="M244.219 286.969H256v-17.696h-11.781c1.304-26.714 8.304-41.863 11.781-44.586V206.75c-39.355 0-71.371 32.016-71.371 71.371 0 39.352 32.016 71.367 71.371 71.367v-17.937c-3.477-2.723-10.477-17.871-11.781-44.582zm-41.16 0h23.457c.644 14.285 2.843 27.59 6.359 38.136.2.59.398 1.165.598 1.727-15.805-7.34-27.465-22.148-30.414-39.863zm29.816-55.836c-3.516 10.547-5.715 23.851-6.36 38.14H203.06c2.949-17.718 14.609-32.527 30.414-39.867-.2.563-.399 1.137-.598 1.727zm0 0" fill="#a7dcfc"/></svg>