<svg xmlns="http://www.w3.org/2000/svg" viewBox="0 0 454 454"><path fill="#666" d="M269.53 412.088h-85.06l10.68-48 3.34-15h57.01l3.34 15z"/><path d="M454 51.608v280.28c0 9.5-7.7 17.2-17.2 17.2H17.2c-9.5 0-17.2-7.7-17.2-17.2V51.608c0-9.5 7.7-17.2 17.2-17.2h419.6c9.5 0 17.2 7.7 17.2 17.2zm-23 274.48V57.408H23v268.68h408z" fill="#b3b3b3"/><path d="M255.5 349.088h-57.01l-3.34 15h63.69l-3.34-15z" fill="#4d4d4d"/><path fill="#88c5fc" d="M23 57.408h408v33.65H23z"/><path fill="#e6e6e6" d="M23 91.058h408v235.03H23z"/><path fill="#b3b3b3" d="M145.603 404.592h162.788v15H145.603z"/><path d="M119.68 34.408l-22.56 43.35-11.83 22.74-25.96 49.88-12.39 23.82-23.94 46-23 44.2V51.608c0-9.5 7.7-17.2 17.2-17.2h102.48z" opacity=".23" fill="#f2f2f2"/><path d="M227 171.103a7.5 7.5 0 0 1-7.5-7.5v-24.054a7.5 7.5 0 0 1 15 0v24.054a7.5 7.5 0 0 1-7.5 7.5z" fill="#d38176"/><path d="M227 283.542a7.5 7.5 0 0 1-7.5-7.5v-24.054a7.5 7.5 0 0 1 15 0v24.054a7.5 7.5 0 0 1-7.5 7.5z" fill="#edb2b2"/><path d="M261.13 274.401a7.498 7.498 0 0 1-6.502-3.751l-12.027-20.832a7.5 7.5 0 0 1 12.99-7.5l12.027 20.832a7.5 7.5 0 0 1-6.488 11.251z" fill="#e5a5a3"/><path d="M188.721 193.201a7.465 7.465 0 0 1-3.743-1.006l-20.831-12.027a7.5 7.5 0 0 1 7.5-12.99l20.831 12.027a7.5 7.5 0 0 1-3.757 13.996z" fill="#eacece"/><path d="M286.096 249.421a7.465 7.465 0 0 1-3.743-1.006l-20.831-12.027a7.5 7.5 0 0 1 7.5-12.99l20.831 12.027a7.5 7.5 0 0 1-3.757 13.996z" fill="#e09894"/><path d="M182.807 215.296h-24.054a7.5 7.5 0 0 1 0-15h24.054a7.5 7.5 0 0 1 0 15z" fill="#efd3d3"/><path d="M295.246 215.296h-24.054c-4.143 0-7.5-3.358-7.5-7.5s3.357-7.5 7.5-7.5h24.054c4.143 0 7.5 3.358 7.5 7.5s-3.357 7.5-7.5 7.5z" fill="#d68d85"/><path d="M167.904 249.421a7.5 7.5 0 0 1-3.757-13.996l20.831-12.027a7.5 7.5 0 0 1 7.5 12.99l-20.831 12.027a7.465 7.465 0 0 1-3.743 1.006z" fill="#edc8c8"/><path d="M265.279 193.201a7.5 7.5 0 0 1-3.757-13.996l20.831-12.027a7.5 7.5 0 0 1 7.5 12.99l-20.831 12.027a7.465 7.465 0 0 1-3.743 1.006z" fill="#cc8681"/><path d="M192.87 274.401a7.5 7.5 0 0 1-6.488-11.251l12.027-20.832a7.5 7.5 0 0 1 12.99 7.5l-12.027 20.832a7.499 7.499 0 0 1-6.502 3.751z" fill="#edbcbc"/><path d="M249.089 177.025a7.5 7.5 0 0 1-6.488-11.251l12.027-20.831a7.5 7.5 0 0 1 12.99 7.5l-12.027 20.831a7.497 7.497 0 0 1-6.502 3.751z" fill="#cc8681"/><path d="M454 51.608v280.28c0 9.5-7.7 17.2-17.2 17.2H194.887l163.75-314.68H436.8c9.5 0 17.2 7.7 17.2 17.2z" opacity=".23" fill="#f2f2f2"/></svg>