<svg xmlns="http://www.w3.org/2000/svg" viewBox="0 0 512 512"><path d="M256 0C114.62 0 0 114.62 0 256s114.62 256 256 256 256-114.62 256-256S397.39 0 256 0zm87.69 233.59c-11.57 19.62-23.47 39.05-35.22 58.57q-24.22 40.2-48.43 80.4c-6.9 11.44-13.76 22.9-20.76 34.28-2.43 4-17.11 7-20.44 4.22-2.57-2.13-1.05-5.14-.63-7.62 4.91-29.11 9.81-58.22 15.05-87.27 3.91-21.66 4.13-21.62-17.6-21.6h-12.8c-8.53 0-17.07.21-25.6 0-10-.3-14-6.95-9-15.28C189 244.54 209.89 210 230.69 175.32c12.82-21.36 25.43-42.84 38.38-64.11 2.51-4.12 3.63-9.84 9.95-10.65 14.63-1.87 16.23-.76 13.94 13.65-4.89 30.65-10.4 61.19-15.54 91.8-1.91 11.36-1.75 11.24 10 11.19q23.73-.1 47.47.21c9.72.12 13.9 7.52 8.8 16.18z" fill="#1379bd"/></svg>