<svg xmlns="http://www.w3.org/2000/svg" viewBox="0 0 512 512"><path d="M512 256c0 141.385-114.615 256-256 256-90.441 0-169.925-46.902-215.465-117.708H60c5.523 0 10-4.477 10-10V100c0-5.158-3.906-9.401-8.921-9.94C108.035 34.957 177.93 0 256 0c141.385 0 256 114.615 256 256z" fill="#82e1e1"/><path d="M472 230h-97.147l-25.317 25.317a5 5 0 0 1-7.071 0L317.147 230H220c-5.523 0-10-4.477-10-10V80c0-5.523 4.477-10 10-10h211.884A256.918 256.918 0 0 1 482 135.677V220c0 5.523-4.477 10-10 10zm34.275 80C481.483 425.449 378.857 512 256 512S30.517 425.449 5.725 310h500.55z" fill="#50c8c8"/><path d="M400 100v284.292c0 5.523-4.477 10-10 10H40.535A255.476 255.476 0 0 1 22.019 360H35a5 5 0 0 0 5-5V135a5 5 0 0 0-5-5h-1.874A256.781 256.781 0 0 1 61.13 90H390c5.523 0 10 4.477 10 10z" fill="#5f82c3"/><path d="M380 135v220a5 5 0 0 1-5 5H22.022C7.875 328.22 0 293.031 0 256c0-45.809 12.044-88.799 33.12-126H375a5 5 0 0 1 5 5z" fill="#ebf582"/><path d="M375 360H42.022C27.875 328.22 20 293.031 20 256c0-45.809 12.044-88.799 33.12-126H375a5 5 0 0 1 5 5v220a5 5 0 0 1-5 5z" fill="#ffff91"/><path d="M430 385v4.292c0 16.569-13.431 30-30 30H58.84A256.587 256.587 0 0 1 32.002 380H425a5 5 0 0 1 5 5z" fill="#506ea0"/><path d="M429.892 391.74c-1.247 15.422-14.149 27.552-29.892 27.552H58.84a257.082 257.082 0 0 1-15.009-20H410a29.877 29.877 0 0 0 19.892-7.552zM160 120c5.523 0 10-4.477 10-10s-4.477-10-10-10-10 4.477-10 10 4.477 10 10 10z" fill="#415a87"/><path d="M230 201.239v10a5 5 0 0 1-5 5h-60a5 5 0 0 1-5-5v-10a5 5 0 0 1 5-5h60a5 5 0 0 1 5 5zM95 270H75a5 5 0 0 0-5 5v10a5 5 0 0 0 5 5h20a5 5 0 0 0 5-5v-10a5 5 0 0 0-5-5z" fill="#f7d139"/><path d="M30 175v-10a5 5 0 0 1 5-5h90a5 5 0 0 1 5 5v10a5 5 0 0 1-5 5H35a5 5 0 0 1-5-5zm95 135H35a5 5 0 0 0-5 5v10a5 5 0 0 0 5 5h90a5 5 0 0 0 5-5v-10a5 5 0 0 0-5-5zM70 201.239v10a5 5 0 0 0 5 5h70a5 5 0 0 0 5-5v-10a5 5 0 0 0-5-5H75a5 5 0 0 0-5 5zm5 32.522a5 5 0 0 0-5 5v10a5 5 0 0 0 5 5h40a5 5 0 0 0 5-5v-10a5 5 0 0 0-5-5H75zm170 0h-30a5 5 0 0 0-5 5v10a5 5 0 0 0 5 5h30a5 5 0 0 0 5-5v-10a5 5 0 0 0-5-5zm50 0h-30a5 5 0 0 0-5 5v10a5 5 0 0 0 5 5h30a5 5 0 0 0 5-5v-10a5 5 0 0 0-5-5zm-100 0h-60a5 5 0 0 0-5 5v10a5 5 0 0 0 5 5h60a5 5 0 0 0 5-5v-10a5 5 0 0 0-5-5zM155 270h-40a5 5 0 0 0-5 5v10a5 5 0 0 0 5 5h40a5 5 0 0 0 5-5v-10a5 5 0 0 0-5-5z" fill="#fff573"/><path d="M60 275v10a5 5 0 0 1-5 5H35a5 5 0 0 1-5-5v-10a5 5 0 0 1 5-5h20a5 5 0 0 1 5 5zm-5-41.239H35a5 5 0 0 0-5 5v10a5 5 0 0 0 5 5h20a5 5 0 0 0 5-5v-10a5 5 0 0 0-5-5zm0-37.522H35a5 5 0 0 0-5 5v10a5 5 0 0 0 5 5h20a5 5 0 0 0 5-5v-10a5 5 0 0 0-5-5zM482 50v140c0 5.523-4.477 10-10 10h-97.147l-25.317 25.317a5 5 0 0 1-7.071 0L317.147 200H220c-5.523 0-10-4.477-10-10V50c0-5.523 4.477-10 10-10h252c5.523 0 10 4.477 10 10z" fill="#ff6e91"/><path d="M370.325 89.952l-18.144 38.91-13.857 29.717c-1.68 3.604-5.979 5.168-9.583 3.488l-5.226-2.437c-3.604-1.68-5.168-5.979-3.488-9.582l13.857-29.717 18.144-38.91c1.68-3.604 5.979-5.168 9.583-3.488l5.226 2.437c3.604 1.68 5.168 5.978 3.488 9.582zm-61.434-3.271l-4.077-4.077c-2.812-2.812-7.386-2.812-10.197 0l-30.914 30.914a7.18 7.18 0 0 0-2.09 4.583c-.045.634-.028 2.976-.016 3.467a7.185 7.185 0 0 0 2.106 4.915l30.914 30.914c2.812 2.812 7.386 2.812 10.197 0l4.077-4.077c2.812-2.812 2.812-7.386 0-10.197L285.77 120l23.122-23.122c2.811-2.811 2.811-7.385-.001-10.197zm121.513 31.751a7.185 7.185 0 0 0-2.106-4.915l-30.914-30.914c-2.812-2.812-7.386-2.812-10.197 0l-4.077 4.077a7.219 7.219 0 0 0 0 10.198L406.23 120l-23.122 23.121a7.219 7.219 0 0 0 0 10.198l4.077 4.077c2.812 2.812 7.386 2.812 10.197 0l30.914-30.914a7.18 7.18 0 0 0 2.09-4.583c.047-.634.03-2.975.018-3.467z" fill="#ffebdc"/></svg>