<svg xmlns="http://www.w3.org/2000/svg" viewBox="0 0 512 512"><path d="M17.656 0h476.688C504.094 0 512 7.906 512 17.656v476.688c0 9.75-7.906 17.656-17.656 17.656H17.656C7.906 512 0 504.094 0 494.344V17.656C0 7.906 7.906 0 17.656 0zm0 0" fill="#b0d3f0"/><path d="M17.656 0h476.688C504.094 0 512 7.906 512 17.656v52.965H0V17.656C0 7.906 7.906 0 17.656 0zM0 441.379h512v52.965c0 9.75-7.906 17.656-17.656 17.656H17.656C7.906 512 0 504.094 0 494.344zm0 0" fill="#285680"/><path d="M44.137 35.309a8.824 8.824 0 0 1-8.828 8.828 8.823 8.823 0 0 1-8.825-8.828 8.822 8.822 0 0 1 8.825-8.825 8.823 8.823 0 0 1 8.828 8.825zm0 0" fill="#f0c419"/><path d="M79.45 35.309a8.827 8.827 0 0 1-8.829 8.828 8.827 8.827 0 1 1 0-17.653c4.875 0 8.828 3.95 8.828 8.825zm0 0" fill="#ff5364"/><path d="M114.758 35.309a8.826 8.826 0 0 1-8.828 8.828 8.827 8.827 0 1 1 0-17.653c4.875 0 8.828 3.95 8.828 8.825zm0 0" fill="#46b29d"/><path d="M150.07 167.723H79.45c-19.505 0-35.313-15.809-35.313-35.309s15.808-35.312 35.312-35.312h70.621c19.5 0 35.309 15.812 35.309 35.312s-15.809 35.309-35.309 35.309zm-70.62-52.965c-9.75 0-17.657 7.906-17.657 17.656s7.906 17.656 17.656 17.656h70.621c9.75 0 17.653-7.906 17.653-17.656s-7.903-17.656-17.653-17.656zm229.515 52.965h-70.621c-19.5 0-35.309-15.809-35.309-35.309s15.809-35.312 35.309-35.312h70.62c19.505 0 35.313 15.812 35.313 35.312s-15.808 35.309-35.312 35.309zm-70.621-52.965c-9.75 0-17.653 7.906-17.653 17.656s7.903 17.656 17.653 17.656h70.62c9.75 0 17.657-7.906 17.657-17.656s-7.906-17.656-17.656-17.656zm0 0" fill="#547580"/><path d="M70.621 141.242H35.31c-4.875 0-8.825-3.953-8.825-8.828s3.95-8.828 8.825-8.828h35.31a8.829 8.829 0 0 1 0 17.656zm282.481 0h-35.309a8.829 8.829 0 0 1 0-17.656h35.309c4.878 0 8.828 3.953 8.828 8.828s-3.95 8.828-8.828 8.828zm-123.586 0h-70.618c-4.878 0-8.828-3.953-8.828-8.828s3.95-8.828 8.828-8.828h70.618c4.879 0 8.828 3.953 8.828 8.828s-3.95 8.828-8.828 8.828zm0 0" fill="#84b5cb"/><path d="M273.656 414.898h-70.62c-19.505 0-35.313-15.812-35.313-35.312s15.808-35.309 35.312-35.309h70.621c19.5 0 35.309 15.809 35.309 35.309s-15.809 35.312-35.309 35.312zm-70.62-52.968c-9.75 0-17.657 7.906-17.657 17.656s7.906 17.656 17.656 17.656h70.621c9.75 0 17.653-7.906 17.653-17.656s-7.903-17.656-17.653-17.656zm229.514 52.968h-70.62c-19.5 0-35.309-15.812-35.309-35.312s15.809-35.309 35.309-35.309h70.62c19.505 0 35.313 15.809 35.313 35.309s-15.808 35.312-35.312 35.312zm-70.62-52.968c-9.75 0-17.653 7.906-17.653 17.656s7.903 17.656 17.653 17.656h70.62c9.75 0 17.657-7.906 17.657-17.656s-7.906-17.656-17.656-17.656zm0 0" fill="#547580"/><path d="M194.207 388.414h-35.309c-4.878 0-8.828-3.953-8.828-8.828s3.95-8.828 8.828-8.828h35.309a8.829 8.829 0 0 1 0 17.656zm282.484 0H441.38a8.829 8.829 0 0 1 0-17.656h35.312c4.875 0 8.825 3.953 8.825 8.828s-3.95 8.828-8.825 8.828zm-123.589 0h-70.618c-4.879 0-8.828-3.953-8.828-8.828s3.95-8.828 8.828-8.828h70.618c4.878 0 8.828 3.953 8.828 8.828s-3.95 8.828-8.828 8.828zm0 0" fill="#84b5cb"/><path d="M459.035 317.793a8.829 8.829 0 0 1-8.828-8.828v-17.656c0-4.875 3.953-8.825 8.828-8.825s8.828 3.95 8.828 8.825v17.656a8.829 8.829 0 0 1-8.828 8.828zm0-52.965a8.829 8.829 0 0 1-8.828-8.828v-17.656a8.829 8.829 0 0 1 17.656 0V256a8.829 8.829 0 0 1-8.828 8.828zm0-52.965a8.829 8.829 0 0 1-8.828-8.828V185.38a8.829 8.829 0 0 1 17.656 0v17.656a8.829 8.829 0 0 1-8.828 8.828zm0-52.965c-4.875 0-8.828-3.953-8.828-8.828s-3.953-8.828-8.828-8.828h-52.965a8.829 8.829 0 0 1 0-17.656h52.965c14.625 0 26.484 11.855 26.484 26.484a8.829 8.829 0 0 1-8.828 8.828zM123.586 388.414H88.277a8.829 8.829 0 0 1 0-17.656h35.309a8.829 8.829 0 0 1 0 17.656zm-70.621 0c-14.625 0-26.48-11.855-26.48-26.484 0-4.875 3.949-8.828 8.824-8.828 4.879 0 8.828 3.953 8.828 8.828s3.953 8.828 8.828 8.828a8.829 8.829 0 0 1 0 17.656zM35.309 335.45c-4.875 0-8.825-3.954-8.825-8.829v-17.656c0-4.875 3.95-8.828 8.825-8.828a8.826 8.826 0 0 1 8.828 8.828v17.656a8.826 8.826 0 0 1-8.828 8.828zm0-52.966c-4.875 0-8.825-3.953-8.825-8.828V256c0-4.875 3.95-8.828 8.825-8.828A8.826 8.826 0 0 1 44.137 256v17.656a8.826 8.826 0 0 1-8.828 8.828zm0-52.968a8.822 8.822 0 0 1-8.825-8.825v-17.656c0-4.875 3.95-8.828 8.825-8.828a8.826 8.826 0 0 1 8.828 8.828v17.656a8.823 8.823 0 0 1-8.828 8.825zm0 0" fill="#c03a2b"/><path d="M250.008 200.465l-47.617-20.383a4.416 4.416 0 0 0-6.032 5.129l13.614 54.422a4.417 4.417 0 0 0 7.398 2.058l34.02-34.023a4.411 4.411 0 0 0 1.23-3.969 4.411 4.411 0 0 0-2.613-3.234zm0 0" fill="#ff5364"/><path d="M256 256c-2.34 0-4.586-.93-6.242-2.586L228 231.664a8.828 8.828 0 0 1 12.48-12.484l21.762 21.75A8.83 8.83 0 0 1 256 256zm0 0" fill="#c03a2b"/><path d="M150.07 203.035h-17.656a8.829 8.829 0 0 1 0-17.656h17.656a8.829 8.829 0 0 1 0 17.656zm0 35.309a8.832 8.832 0 0 1-8.156-5.45 8.83 8.83 0 0 1 1.914-9.617l8.828-8.828a8.828 8.828 0 0 1 12.375.106c3.403 3.406 3.453 8.914.106 12.375l-8.828 8.828a8.813 8.813 0 0 1-6.239 2.586zM105.93 406.07A8.829 8.829 0 0 1 99.692 391l11.413-11.414-11.414-11.414c-3.347-3.465-3.3-8.969.106-12.375s8.91-3.453 12.375-.106l17.656 17.653a8.832 8.832 0 0 1 0 12.484l-17.656 17.656a8.838 8.838 0 0 1-6.242 2.586zm353.105-70.62a8.845 8.845 0 0 1-6.242-2.587l-17.656-17.656c-3.344-3.465-3.297-8.969.11-12.375s8.91-3.453 12.374-.11l11.414 11.415 11.414-11.414a8.828 8.828 0 0 1 12.48 12.484l-17.652 17.656a8.845 8.845 0 0 1-6.242 2.586zm0 0" fill="#ff5364"/></svg>