<svg xmlns="http://www.w3.org/2000/svg" viewBox="0 0 508.4 508.4"><path d="M508.2 254c0 140.4-113.6 254-254 254S.2 394.4.2 254 113.8 0 254.2 0C365 0 459 70.8 493.8 169.6c7.6 21.2 12 43.6 13.6 66.8.8 6 .8 11.6.8 17.6z" fill="#f1543f"/><g fill="#fff"><path d="M455.4 178.8l14-5.2-2.4-19.2-14.8-1.6c-2-5.2-4.8-9.6-8-13.6l6-13.6L435 114l-11.6 9.2c-4.8-2-10-3.6-15.2-4l-5.2-14-19.2 2.4-2.4 14.4c-5.2 2-9.6 4.8-13.6 8l-13.6-6-12 15.6 9.2 11.6c-2 4.8-3.6 10-4 15.2l-14 5.2 2.4 19.2 14.8 1.6c2 5.2 4.8 9.6 8 13.6l-6 13.6 15.2 11.6 11.6-9.2c4.8 2 10 3.6 15.2 4l5.2 14 19.2-2.4 1.6-14.8c5.2-2 9.6-4.8 13.6-8l13.6 6 11.6-15.2-9.2-11.6c3.2-4.4 4.4-9.6 5.2-15.2zm-49.6 28c-18.8 2.4-36.4-10.8-38.8-29.6-2.4-18.8 10.8-36.4 29.6-38.8 18.8-2.4 36.4 10.8 38.8 29.6 2.8 19.2-10.4 36.4-29.6 38.8z"/><path d="M339.4 255.2l12.4-.4 3.2-15.6-11.2-5.2c-.4-4.4-1.2-8.8-2.8-12.8l8.4-9.2-8.8-13.2-11.6 4.4c-3.2-2.8-6.8-5.2-11.2-7.2l-.4-12.4-15.6-3.2-5.2 11.2c-4.4.4-8.8 1.2-12.8 2.8l-9.2-8.4-13.2 8.8 4.4 11.6c-2.8 3.2-5.2 6.8-7.2 11.2l-13.2.4-3.2 15.6 11.2 5.2c.4 4.4 1.2 8.8 2.8 12.8l-8.4 9.2 8.8 13.2 11.6-4.4c3.2 2.8 6.8 5.2 11.2 7.2l.4 12.4 15.6 3.2 5.2-11.2c4.4-.4 8.8-1.2 12.8-2.8l9.2 8.4 13.2-8.8-4.4-11.6c3.6-3.6 6-7.2 8-11.2zm-46.4 9.2c-15.6-2.8-25.6-18-22.8-33.6 2.8-15.6 18-25.6 33.6-22.8 15.6 2.8 25.6 18 22.8 33.6-3.2 15.6-18 25.6-33.6 22.8z"/></g><path d="M143.8 286.8L67 324v102c34.8 38 80.8 65.2 132.8 76.4l20.4-21.6V323.6l-76.4-36.8z" fill="#e6e9ee"/><ellipse cx="143.8" cy="306" rx="49.2" ry="50" fill="#f9b54c"/><path fill="#2c9984" d="M164.6 356h-42l8.4 23.6h25.2z"/><path d="M172.6 494.4l-16.4-114.8h-25.6l-12.4 88.8c16.8 10.8 35.2 19.6 54.4 26z" fill="#4cdbc4"/><path d="M104.2 458.8c-17.2-66.4-18.4-119.2-18.4-144l-68 32.4c18 44.8 48 83.6 86.4 111.6z" fill="#2b3b4e"/><path d="M95.8 295.6s-6 34 48 60.4c0 0-40.4 3.2-52 40.8-.8 1.6-22.8-81.2 4-101.2z" fill="#fff"/><path d="M223.8 203.6c0 52.4-36 117.2-80 117.2-44.4 0-80-64.8-80-117.2s36-73.2 80-73.2c44 .4 80 20.8 80 73.2z" fill="#ffd05b"/><path d="M115.8 119.6s64.8-26 98 32.8c35.2 62.8-9.2 130.8-18 136.4 0 0 2.4-10.8 9.2-31.6 0 0 16-46.4-32-53.6 0 0-46.4-6.4-49.6-16.4 0 0 3.2 16.8 24 20 0 0-47.6-1.2-62.4-18 0 0-20.4 66.8 9.2 102.8 0 0-50.8-40.8-44.8-104 .4.4-2.4-86 66.4-68.4z" fill="#324a5e"/><path d="M418.2 333.6l-.8 13.6c-.8 12.8-2.8 25.2-6.4 37.6l-2.4 8.4-56.8-6c-5.6-6.8-13.6-19.2-12.4-30.4 2-16.4-6-24-6-24-1.2-2-1.2-4.4-.4-5.6 1.2-3.2 5.2-6 8-4.4 6 3.6 10.4 10.4 13.6 18.8l3.2-55.6c.4-4.4 4-8 8.4-7.6 4.4.4 7.6 4 7.2 8.4l-2 38.4c0-2 1.2-3.6 2.4-4.8 1.6-.8 3.6-1.2 5.6-1.2 4.4.4 7.6 2.4 7.6 6.8v2.8c.4-4.4 4-6 8-5.6 4.4.4 7.6 2.4 7.6 6.8v2.8c.4-4.4 4-6 8.4-5.6 4 0 7.2 2 7.2 6.4z" fill="#f9b54c"/><path d="M413 452l6-57.6-72.8-7.6-8.8 85.2-38.8-110.4-96.8-46.8c0 29.2-2 97.2-29.2 180 25.6 8.8 52.8 13.6 81.6 13.6 60-.4 115.2-21.2 158.8-56.4z" fill="#2b3b4e"/><path d="M191.8 295.6s6 34-48 60.4c0 0 40.4 3.2 52 40.8.4 1.6 22.4-81.2-4-101.2z" fill="#fff"/><path d="M189.8 220H97.4c-7.6 0-13.6 6-13.6 13.6v11.6c0 7.6 6 13.6 13.6 13.6h26.8c3.6 0 6.8-1.2 9.2-3.6.8-.4 1.6-.8 2-1.6 1.6-4 5.2-6.8 8.4-6.8 3.6 0 6.8 2.8 8.4 6.8.4.8 1.2 1.6 2 1.6 2.4 2 5.6 3.6 9.2 3.6h26.8c7.6 0 13.6-6 13.6-13.6V234c-.4-7.6-6.4-14-14-14zm-92.4 32.4c-4 0-7.2-3.2-7.2-7.2V234c0-4 3.2-7.2 7.2-7.2h26.8c4 0 7.2 3.2 7.2 7.2v11.6c0 .8-.4 2-.4 2.8-.4.4-.4.8-.8 1.6-1.2 1.6-3.6 2.8-5.6 2.8H97.4v-.4zm46.4-12c-2 0-4 .4-5.6 1.2v-8c0-2.8-.8-5.2-2-7.2h15.6c-1.2 2-2 4.4-2 7.2v8c-2.4-.8-4-1.2-6-1.2zm53.2 4.8c0 4-3.2 7.2-7.2 7.2H163c-2.4 0-4.4-1.2-5.6-2.8-.4-.4-.4-1.2-.8-1.6-.4-.8-.4-1.6-.4-2.8V234c0-4 3.2-7.2 7.2-7.2h26.8c4 0 7.2 3.2 7.2 7.2v11.2h-.4z" fill="#324a5e"/></svg>