<svg viewBox="-44 0 512 512" xmlns="http://www.w3.org/2000/svg"><path d="M115.332 425.672v76.027c0 5.688-4.613 10.301-10.3 10.301h-37.84c-5.692 0-10.301-4.613-10.301-10.3v-76.028zm0 0" fill="#d1ede7"/><path d="M56.89 425.672h58.442v36.023H56.891zm0 0" fill="#abddd4"/><path d="M413.508 382.316h-251.41V112.914h251.41c5.691 0 10.305 4.613 10.305 10.3v248.802c0 5.687-4.614 10.3-10.305 10.3zm0 0" fill="#53f4a0"/><path d="M413.508 382.316h-251.41v-86.828h261.715v76.528c0 5.687-4.614 10.3-10.305 10.3zm0 0" fill="#ffdf4a"/><path d="M136.754 449.336H35.477C15.883 449.336 0 433.449 0 413.856V35.475C0 15.884 15.883 0 35.477 0h101.277c19.594 0 35.476 15.883 35.476 35.477v378.378c0 19.594-15.882 35.48-35.476 35.48zm0 0" fill="#1a94af"/><path d="M172.23 35.48v378.375c0 19.594-15.886 35.477-35.48 35.477h-21.14c19.593 0 35.468-15.883 35.468-35.477V35.48C151.078 15.887 135.203 0 115.61 0h21.141c19.594 0 35.48 15.887 35.48 35.48zm0 0" fill="#097789"/><path d="M380.79 204.61c0 19.456-15.774 35.23-35.231 35.23s-35.23-15.774-35.23-35.23 15.773-35.231 35.23-35.231c19.457 0 35.23 15.773 35.23 35.23zm0 0" fill="#f0fffc"/><path d="M380.79 334.121H206.436a7.724 7.724 0 0 1-7.726-7.726 7.723 7.723 0 0 1 7.726-7.723H380.79a7.723 7.723 0 0 1 7.727 7.723c.004 4.27-3.457 7.726-7.727 7.726zm-127.177 23.352h-47.175a7.724 7.724 0 0 1-7.727-7.727 7.726 7.726 0 0 1 7.726-7.726h47.176c4.27 0 7.727 3.46 7.727 7.726a7.724 7.724 0 0 1-7.727 7.727zm0 0" fill="#097789"/><path d="M222.2 194.633h-15.762a7.724 7.724 0 0 1-7.727-7.727 7.726 7.726 0 0 1 7.726-7.726H222.2c4.27 0 7.727 3.46 7.727 7.726a7.724 7.724 0 0 1-7.727 7.727zm34.847 37.157h-50.61a7.723 7.723 0 0 1-7.726-7.724 7.724 7.724 0 0 1 7.726-7.726h50.61a7.724 7.724 0 0 1 7.726 7.726 7.723 7.723 0 0 1-7.726 7.723zm0 24.019h-50.61a7.726 7.726 0 0 1-7.726-7.727 7.724 7.724 0 0 1 7.726-7.727h50.61c4.27 0 7.726 3.461 7.726 7.727s-3.457 7.727-7.726 7.727zm-50.567-91.43c-4.265 0-7.77-3.461-7.77-7.727 0-4.27 3.415-7.726 7.68-7.726h.09a7.726 7.726 0 1 1 0 15.453zm0 0" fill="#f0fffc"/><path d="M132.36 97.07c0 25.543-20.704 46.246-46.247 46.246-25.539 0-46.246-20.703-46.246-46.246 0-25.543 20.707-46.246 46.246-46.246 25.543 0 46.246 20.703 46.246 46.246zm0 0" fill="#ff5656"/><path d="M132.36 97.074c0 25.54-20.708 46.246-46.243 46.246-16.781 0-31.465-8.933-39.582-22.293a46.144 46.144 0 0 0 23.973 6.684c25.539 0 46.246-20.703 46.246-46.242 0-8.778-2.453-16.98-6.688-23.973 13.364 8.106 22.293 22.797 22.293 39.578zm0 0" fill="#f72d2d"/><path d="M86.113 151.043c-29.761 0-53.972-24.211-53.972-53.973 0-29.761 24.21-53.972 53.972-53.972s53.973 24.21 53.973 53.972-24.211 53.973-53.973 53.973zm0-92.492c-21.238 0-38.52 17.277-38.52 38.52 0 21.238 17.282 38.519 38.52 38.519 21.242 0 38.52-17.281 38.52-38.52 0-21.242-17.278-38.52-38.52-38.52zm0 0" fill="#097789"/><path d="M132.36 229.516c0 25.543-20.704 46.25-46.247 46.25-25.539 0-46.246-20.707-46.246-46.25 0-25.54 20.707-46.246 46.246-46.246 25.543 0 46.246 20.707 46.246 46.246zm0 0" fill="#ffdf4a"/><path d="M132.36 229.516c0 25.547-20.708 46.254-46.243 46.254-16.781 0-31.465-8.934-39.582-22.293a46.07 46.07 0 0 0 23.973 6.683c25.539 0 46.246-20.707 46.246-46.254a46.079 46.079 0 0 0-6.676-23.953c13.352 8.11 22.281 22.79 22.281 39.563zm0 0" fill="#ffbd48"/><path d="M86.113 283.488c-29.761 0-53.972-24.21-53.972-53.972 0-29.758 24.21-53.973 53.972-53.973s53.973 24.215 53.973 53.973c0 29.761-24.211 53.972-53.973 53.972zm0-92.492c-21.238 0-38.52 17.281-38.52 38.52 0 21.242 17.282 38.52 38.52 38.52 21.242 0 38.52-17.278 38.52-38.52 0-21.239-17.278-38.52-38.52-38.52zm0 0" fill="#097789"/><path d="M132.36 361.965c0 25.543-20.704 46.246-46.247 46.246-25.539 0-46.246-20.703-46.246-46.246 0-25.543 20.707-46.246 46.246-46.246 25.543 0 46.246 20.703 46.246 46.246zm0 0" fill="#53f4a0"/><path d="M132.36 361.965c0 25.539-20.708 46.246-46.243 46.246-16.781 0-31.465-8.934-39.582-22.297a46.037 46.037 0 0 0 23.973 6.688c25.539 0 46.246-20.707 46.246-46.247a45.975 45.975 0 0 0-6.688-23.949c13.364 8.098 22.293 22.785 22.293 39.559zm0 0" fill="#3ad391"/><path d="M86.113 415.938c-29.761 0-53.972-24.211-53.972-53.973s24.21-53.973 53.972-53.973 53.973 24.211 53.973 53.973-24.211 53.972-53.973 53.972zm0-92.493c-21.238 0-38.52 17.282-38.52 38.52 0 21.238 17.282 38.52 38.52 38.52 21.242 0 38.52-17.282 38.52-38.52 0-21.238-17.278-38.52-38.52-38.52zm0 0" fill="#097789"/><path d="M39.91 303.215c-4.265 0-7.77-3.457-7.77-7.727 0-4.265 3.419-7.722 7.684-7.722h.086a7.723 7.723 0 0 1 7.727 7.722 7.724 7.724 0 0 1-7.727 7.727zm0-133c-4.265 0-7.77-3.457-7.77-7.727 0-4.265 3.419-7.726 7.684-7.726h.086c4.27 0 7.727 3.46 7.727 7.726a7.724 7.724 0 0 1-7.727 7.727zm0 0" fill="#d1ede7"/></svg>