<svg xmlns="http://www.w3.org/2000/svg" viewBox="0 0 512 512"><circle cx="256" cy="256" r="256" fill="#91ff4a"/><path d="M401.07 298.67V486.4A17.12 17.12 0 0 1 384 503.46H128a17.12 17.12 0 0 1-17.07-17.07V287.32a16.79 16.79 0 0 1 3.41-10.24l17.07-22.79a17.18 17.18 0 0 1 13.65-6.83h68.27a17.19 17.19 0 0 1 13.67 6.83l15.36 20.48A17.18 17.18 0 0 0 256 281.6h128a17.12 17.12 0 0 1 17.07 17.07z" fill="#126099"/><path d="M153.6 315.73h170.67a8.53 8.53 0 0 1 8.54 8.53v17.07a8.53 8.53 0 0 1-8.54 8.54H153.6a8.53 8.53 0 0 1-8.54-8.54v-17.06a8.53 8.53 0 0 1 8.54-8.54z" fill="#87ced9"/><path d="M17.07 42.67h102.4A8.53 8.53 0 0 1 128 51.2v153.6a8.53 8.53 0 0 1-8.54 8.53H17.07a8.53 8.53 0 0 1-8.53-8.53V51.2a8.53 8.53 0 0 1 8.53-8.53z" fill="#ffd15c"/><path d="M392.54 42.67h102.4a8.53 8.53 0 0 1 8.53 8.53v153.6a8.53 8.53 0 0 1-8.53 8.53h-102.4a8.53 8.53 0 0 1-8.54-8.53V51.2a8.53 8.53 0 0 1 8.54-8.53z" fill="#f1543f"/><path d="M204.8 8.54h102.4a8.53 8.53 0 0 1 8.54 8.53v153.6a8.53 8.53 0 0 1-8.54 8.53H204.8a8.53 8.53 0 0 1-8.54-8.53V17.07a8.53 8.53 0 0 1 8.54-8.53z" fill="#54c0eb"/><path d="M384 512H128a25.63 25.63 0 0 1-25.6-25.6V287.29a25.75 25.75 0 0 1 5.13-15.36l17.07-22.76a25.71 25.71 0 0 1 20.48-10.23h68.27a25.71 25.71 0 0 1 20.48 10.24l15.36 20.48a8.53 8.53 0 0 0 6.82 3.41H384a25.63 25.63 0 0 1 25.6 25.6V486.4A25.63 25.63 0 0 1 384 512zM145.07 256a8.54 8.54 0 0 0-6.82 3.41l-17.08 22.76a8.62 8.62 0 0 0-1.71 5.12V486.4a8.55 8.55 0 0 0 8.54 8.54h256a8.55 8.55 0 0 0 8.54-8.54V298.67a8.55 8.55 0 0 0-8.54-8.54H256a25.7 25.7 0 0 1-20.48-10.24l-15.36-20.48a8.56 8.56 0 0 0-6.83-3.41z" fill="#262626"/><path d="M324.27 358.4H153.6a17.08 17.08 0 0 1-17.07-17.07v-17.06a17.08 17.08 0 0 1 17.07-17.07h170.67a17.08 17.08 0 0 1 17.07 17.07v17.07a17.08 17.08 0 0 1-17.07 17.06zM153.6 324.27v17.07h170.67v-17.07zm213.33 153.6H153.6a8.53 8.53 0 1 1 0-17.07h213.33a8.53 8.53 0 0 1 0 17.07zm-153.6-34.14H153.6a8.53 8.53 0 1 1 0-17.07h59.73a8.53 8.53 0 1 1 0 17.07zm51.21-34.13H153.6a8.53 8.53 0 1 1 0-17.07h110.94a8.53 8.53 0 0 1 0 17.07zM119.46 221.87H17.07A17.09 17.09 0 0 1 0 204.8V51.2a17.09 17.09 0 0 1 17.07-17.07h102.4a17.09 17.09 0 0 1 17.07 17.07v153.6a17.09 17.09 0 0 1-17.08 17.07zM17.07 51.2v153.6h102.4V51.2z" fill="#262626"/><path d="M93.87 85.33h-51.2a8.53 8.53 0 1 1 0-17.07h51.2a8.53 8.53 0 0 1 0 17.07zm0 34.13h-51.2a8.53 8.53 0 1 1 0-17.07h51.2a8.53 8.53 0 0 1 0 17.07zm0 34.14h-51.2a8.53 8.53 0 1 1 0-17.07h51.2a8.53 8.53 0 0 1 0 17.07zm0 34.13h-51.2a8.53 8.53 0 1 1 0-17.07h51.2a8.53 8.53 0 0 1 0 17.07zm401.06 34.14H392.54a17.09 17.09 0 0 1-17.07-17.07V51.2a17.09 17.09 0 0 1 17.07-17.07h102.4A17.09 17.09 0 0 1 512 51.2v153.6a17.09 17.09 0 0 1-17.07 17.07zM392.54 51.2v153.6h102.4V51.2z" fill="#262626"/><path d="M469.33 85.33h-51.2a8.53 8.53 0 0 1 0-17.07h51.2a8.53 8.53 0 1 1 0 17.07zm0 34.13h-51.2a8.53 8.53 0 0 1 0-17.07h51.2a8.53 8.53 0 1 1 0 17.07zm0 34.14h-51.2a8.53 8.53 0 0 1 0-17.07h51.2a8.53 8.53 0 1 1 0 17.07zm0 34.13h-51.2a8.53 8.53 0 0 1 0-17.07h51.2a8.53 8.53 0 1 1 0 17.07zm-162.13 0H204.8a17.09 17.09 0 0 1-17.07-17.07V17.07A17.09 17.09 0 0 1 204.8 0h102.4a17.09 17.09 0 0 1 17.07 17.07v153.6a17.09 17.09 0 0 1-17.07 17.06zM204.8 17.07v153.6h102.4V17.07z" fill="#262626"/><path d="M281.6 51.2h-51.2a8.53 8.53 0 0 1 0-17.07h51.2a8.53 8.53 0 0 1 0 17.07zm0 34.13h-51.2a8.53 8.53 0 0 1 0-17.07h51.2a8.53 8.53 0 0 1 0 17.07zm0 34.13h-51.2a8.53 8.53 0 0 1 0-17.07h51.2a8.53 8.53 0 0 1 0 17.07zm0 34.14h-51.2a8.53 8.53 0 0 1 0-17.07h51.2a8.53 8.53 0 0 1 0 17.07zm-153.6 0a8.53 8.53 0 0 1-3.82-16.17l68.27-34.13a8.53 8.53 0 0 1 7.63 15.27l-68.26 34.13a8.47 8.47 0 0 1-3.82.9zm256 0a8.47 8.47 0 0 1-3.81-.9l-68.27-34.13a8.53 8.53 0 1 1 7.63-15.27l68.27 34.13A8.53 8.53 0 0 1 384 153.6zm-274.29 256H92.65a8.53 8.53 0 0 1 0-17.07h17.07a8.53 8.53 0 1 1 0 17.07zm-41.44-17.06a8.54 8.54 0 0 1-8.54-8.54v-17.07a8.53 8.53 0 1 1 17.07 0V384a8.54 8.54 0 0 1-8.53 8.54zm0-51.2a8.53 8.53 0 0 1-8.53-8.53v-17.08a8.53 8.53 0 1 1 17.07 0v17.07a8.53 8.53 0 0 1-8.54 8.53zm0-51.2a8.53 8.53 0 0 1-8.53-8.53v-17.07a8.53 8.53 0 1 1 17.07 0v17.06a8.53 8.53 0 0 1-8.54 8.53zm0-51.2a8.53 8.53 0 0 1-8.53-8.54v-17.07a8.53 8.53 0 0 1 17.07 0v17.07a8.53 8.53 0 0 1-8.54 8.53zM419.35 409.6h-17.06a8.53 8.53 0 1 1 0-17.07h17.07a8.53 8.53 0 0 1 0 17.07zm24.38-17.07a8.54 8.54 0 0 1-8.53-8.53v-17.07a8.53 8.53 0 1 1 17.07 0V384a8.54 8.54 0 0 1-8.54 8.54zm0-51.2a8.53 8.53 0 0 1-8.54-8.53v-17.07a8.53 8.53 0 1 1 17.07 0v17.07a8.53 8.53 0 0 1-8.53 8.53zm0-51.2a8.53 8.53 0 0 1-8.54-8.53v-17.06a8.53 8.53 0 1 1 17.07 0v17.06a8.53 8.53 0 0 1-8.53 8.53zm0-51.2a8.53 8.53 0 0 1-8.54-8.54v-17.06a8.53 8.53 0 0 1 17.07 0v17.07a8.53 8.53 0 0 1-8.53 8.53zM256 256a8.54 8.54 0 0 1-8.54-8.54V230.4a8.54 8.54 0 0 1 17.07 0v17.07A8.54 8.54 0 0 1 256 256zm0-51.2a8.54 8.54 0 0 1-8.54-8.54V179.2a8.54 8.54 0 0 1 17.07 0v17.07a8.54 8.54 0 0 1-8.53 8.53z" fill="#262626"/></svg>