<svg version="1.1" id="practices" xmlns="http://www.w3.org/2000/svg" x="0" y="0" viewBox="0 0 512 512" xml:space="preserve"><style>.st2{fill:#40596b}.st3{fill:#54c0eb}.st4{fill:#f1543f}</style><path d="M208 130.7V80l-21.7-5.8c-.6-1.7-1.3-3.4-2.1-5l11.3-19.5-35.8-35.8-19.5 11.3c-1.7-.8-3.3-1.5-5-2.1l-5.8-21.7H78.6l-5.8 21.7c-1.7.6-3.4 1.3-5 2.1L48.4 13.9 12.5 49.8l11.3 19.5c-.8 1.7-1.5 3.3-2.1 5L0 80v50.7l21.7 5.8c.6 1.7 1.3 3.4 2.1 5L12.5 161l35.8 35.8 19.5-11.3c1.7.8 3.3 1.5 5 2.1l5.8 21.7h50.7l5.8-21.7c1.7-.6 3.4-1.3 5-2.1l19.5 11.3 35.8-35.8-11.3-19.5c.8-1.7 1.5-3.3 2.1-5l21.8-5.8zm-104 22.7c-26.5 0-48-21.5-48-48s21.5-48 48-48 48 21.5 48 48-21.5 48-48 48z" fill="#f8b64c"/><path fill="#84dbff" d="M0 249.4h208v64H0z"/><path class="st2" d="M412.2 170.2l-4-4c-18.6-18.6-43.3-28.8-69.7-28.8-54.3 0-98.5 44.2-98.5 98.5v61.5h8c0-13.3 10.7-24 24-24v-8c20.5 0 40.1-8.1 54.6-22.6l9.4-9.4.8 1.1c14.6 19.5 37.5 30.9 61.8 30.9H416v8c13.3 0 24 10.7 24 24h8v-79c0-22.4-14.6-41.8-35.8-48.2z"/><path class="st2" d="M480.1 435.2c-6.1-20.3-22.8-35.2-43.6-39l-52.5-9.6v-4.1c19.6-11.4 34-30.8 38.5-53.8 14.5-3 25.5-15.9 25.5-31.3 0-14.9-10.2-27.3-24-30.9v-9.1h-25.4c-21.7 0-42.4-10.4-55.4-27.7l-6.4-8.5-15.8 15.9c-13.1 13.1-30.5 20.3-49 20.3h-8v9.1c-13.8 3.6-24 16-24 30.9 0 15.4 11 28.3 25.5 31.3 4.5 23 18.9 42.4 38.5 53.8v4.1l-52.5 9.5c-20.8 3.8-37.5 18.7-43.6 39l-18.6 62.1h309.5l-18.7-62zM256 297.4c0-5.9 3.2-11 8-13.8v27.6c-4.8-2.8-8-7.9-8-13.8zm54 104.5l21.8 16.4-16.3 16.3-10.6-31.8 5.1-.9zm34 5.5l-23.3-17.5c7.4 2.3 15.2 3.5 23.3 3.5s15.9-1.2 23.3-3.5L344 407.4zm34-5.5l5.1.9-10.6 31.8-16.3-16.3 21.8-16.4zm54-104.5c0 5.9-3.2 11-8 13.8v-27.6c4.8 2.8 8 7.9 8 13.8zm-152 16V273c19.8-1.8 38.1-10.4 52.3-24.6l3.1-3.1c16 17.7 39.1 28.1 63.2 28.1h9.4v40c0 35.3-28.7 64-64 64s-64-28.7-64-64zm-69.2 168l12.5-41.5c4.3-14.5 16.3-25.2 31.2-27.9l34.6-6.3 19.5 58.5 35.5-35.5 35.5 35.5 19.5-58.5 34.6 6.3c14.9 2.7 26.8 13.4 31.2 27.9l12.5 41.5H210.8zM104 161.4c12.5 0 24.3-4 34.1-11.6l-9.8-12.7c-7 5.4-15.5 8.3-24.4 8.3-22.1 0-40-17.9-40-40s17.9-40 40-40 40 17.9 40 40c0 8.7-2.7 16.9-7.9 23.9l12.8 9.6c7.2-9.7 11.1-21.3 11.1-33.4 0-30.9-25.1-56-56-56s-56 25.1-56 56 25.2 55.9 56.1 55.9z"/><path class="st3" d="M456 81.4v28.7l-10.3-10.3-11.4 11.2 29.7 29.7 29.7-29.7-11.3-11.3-10.4 10.4V81.4c0-44.1-35.9-80-80-80h-48v16h48c35.3 0 64 28.7 64 64z"/><path class="st4" d="M40 417.4v-28.7L50.3 399l11.3-11.3L32 358.1 2.3 387.7 13.7 399 24 388.7v28.7c0 44.1 35.9 80 80 80v-16c-35.3 0-64-28.7-64-64z"/><path class="st2" d="M0 241.4h208v16H0zm0 64h208v16H0zm0-32h96v16H0zm112 0v16h96v-16h-88z"/><path class="st3" d="M312 1.4h16v16h-16zm-32 0h16v16h-16z"/><path class="st4" d="M120 481.4h16v16h-16zm32 0h16v16h-16z"/></svg>