<svg xmlns="http://www.w3.org/2000/svg" viewBox="0 0 512 512"><circle cx="256" cy="267" r="245" fill="#5dc1d8"/><path d="M287.934 402.567c0-2.206 1.794-4 4-4h4.368a.999.999 0 0 0 .707-1.707l-47.512-47.512c-2.632-2.632-4.082-6.148-4.082-9.899 0-3.751 1.45-7.267 4.082-9.899l1.985-1.985c2.632-2.632 6.148-4.082 9.899-4.082 3.752 0 7.267 1.45 9.899 4.082l12.454 12.454a1 1 0 0 0 1.707-.707V237.743c0-7.72 6.28-14 14-14h.416c4.22 0 8 1.885 10.569 4.847V10c0-5.5-4.5-10-10-10H88.701c-5.5 0-10 4.5-10 10v389.454c0 5.5 4.5 10 10 10h199.232v-6.887h.001z" fill="#2e4c89"/><path d="M245.415 339.449c0-3.751 1.45-7.267 4.082-9.899l1.985-1.985c2.632-2.632 6.148-4.082 9.899-4.082 3.752 0 7.267 1.45 9.899 4.082l12.454 12.454a1 1 0 0 0 1.707-.707V237.743c0-6.662 4.682-12.242 10.925-13.648V43.151c0-2.902-2.375-5.277-5.277-5.277H98.039c-2.902 0-5.276 2.375-5.276 5.277v296.905c0 2.902 2.374 5.275 5.276 5.275h148.672a13.995 13.995 0 0 1-1.296-5.882z" fill="#c3ddf4"/><path d="M112.605 340.057V43.151c0-2.902 2.374-5.277 5.276-5.277H98.039c-2.902 0-5.276 2.375-5.276 5.277v296.905c0 2.902 2.374 5.275 5.276 5.275h19.842c-2.902.001-5.276-2.372-5.276-5.274z" fill="#aec1ed"/><g fill="#1a2b63"><circle cx="194.56" cy="374.02" r="18.561"/><path d="M234.873 26.342h-57.368c-4.142 0-7.5-3.357-7.5-7.5s3.358-7.5 7.5-7.5h57.368c4.142 0 7.5 3.357 7.5 7.5s-3.358 7.5-7.5 7.5z"/><circle cx="154.25" cy="18.842" r="8.436"/></g><path d="M291.089 37.874H98.039c-2.902 0-5.276 2.375-5.276 5.277v23.42h203.604v-23.42c-.001-2.902-2.376-5.277-5.278-5.277z" fill="#ff9518"/><path d="M117.881 37.874H98.039c-2.902 0-5.276 2.375-5.276 5.277v23.42h19.842v-23.42c0-2.902 2.374-5.277 5.276-5.277z" fill="#ef8318"/><path d="M280.765 223.186c0 5.5-4.5 10-10 10h-152.4c-5.5 0-10-4.5-10-10v-48.594c0-5.5 4.5-10 10-10h152.4c5.5 0 10 4.5 10 10v48.594z" fill="#445ea0"/><path d="M245.415 339.449c0-3.751 1.45-7.267 4.082-9.899l1.985-1.985c2.632-2.632 6.148-4.082 9.899-4.082 3.752 0 7.267 1.45 9.899 4.082l12.454 12.454a1 1 0 0 0 1.707-.707v-90.711H92.763v91.456c0 2.902 2.374 5.275 5.276 5.275h148.672a14.003 14.003 0 0 1-1.296-5.883z" fill="#eef6ff"/><path d="M112.605 340.057v-91.456H92.763v91.456c0 2.902 2.374 5.275 5.276 5.275h19.842c-2.902 0-5.276-2.373-5.276-5.275z" fill="#d9eafc"/><path d="M210.444 276.808H130.68c-4.142 0-7.5-3.357-7.5-7.5s3.358-7.5 7.5-7.5h79.765a7.5 7.5 0 1 1-.001 15zm0 24.865H130.68a7.5 7.5 0 0 1 0-15h79.765a7.5 7.5 0 1 1-.001 15zm-39.723 24.864H130.68c-4.142 0-7.5-3.357-7.5-7.5s3.358-7.5 7.5-7.5h40.041c4.142 0 7.5 3.357 7.5 7.5s-3.358 7.5-7.5 7.5z" fill="#5dc1d8"/><path d="M248.856 319.558a7.5 7.5 0 0 1-6.056-11.918l9.815-13.468-9.813-13.467a7.5 7.5 0 0 1 12.124-8.834l13.031 17.884a7.5 7.5 0 0 1 0 8.834l-13.033 17.885a7.495 7.495 0 0 1-6.068 3.084z" fill="#ff9518"/><path d="M297.073 439.522v69.032c36.639-6.186 70.513-20.496 99.703-41.026v-28.006h-99.703z" fill="#ef8318"/><path d="M297.073 439.522v69.032a243.615 243.615 0 0 0 19.843-4.212v-64.82h-19.843z" fill="#db722c"/><path d="M398.507 398.567v-103.93c0-8.25-6.75-15-15-15h-.416c-6.12 0-11.407 3.719-13.733 9.004-2.326-5.285-7.613-9.004-13.733-9.004h-.417c-6.12 0-11.407 3.719-13.733 9.004-2.326-5.285-7.613-9.004-13.733-9.004h-.416c-5.182 0-9.77 2.665-12.467 6.69v-48.584c0-8.25-6.75-15-15-15h-.416c-8.25 0-15 6.75-15 15v101.568l-12.454-12.454c-5.833-5.833-15.379-5.833-21.213 0l-1.984 1.985c-5.834 5.833-5.834 15.38 0 21.213l48.512 48.512h101.203z" fill="#ffe2b8"/><path d="M317.145 398.567l-48.512-48.512c-5.834-5.833-5.834-15.38 0-21.213l1.984-1.985c.22-.22.455-.415.685-.619-5.873-5.19-14.915-4.994-20.528.619l-1.984 1.985c-5.834 5.833-5.834 15.38 0 21.213l48.512 48.512h19.843z" fill="#ffc987"/><path d="M406.916 435.522c0 2.75-2.25 5-5 5H291.934c-2.75 0-5-2.25-5-5v-32.954c0-2.75 2.25-5 5-5h109.982c2.75 0 5 2.25 5 5v32.954z" fill="#ff9518"/><path d="M306.776 435.522v-32.954c0-2.75 2.25-5 5-5h-19.843c-2.75 0-5 2.25-5 5v32.954c0 2.75 2.25 5 5 5h19.843c-2.75 0-5-2.25-5-5z" fill="#ef8318"/><circle cx="384.95" cy="419.05" r="9.294" fill="#db722c"/><path d="M478.706 240.043c0 2.75-2.25 5-5 5H329.92c-2.75 0-5-2.25-5-5V136.306c0-2.75 2.25-5 5-5h143.786c2.75 0 5 2.25 5 5v103.737z" fill="#fe3745"/><path d="M376.698 165.29c0-5.5 3.897-7.75 8.66-5l39.635 22.883c4.763 2.75 4.763 7.25 0 10l-39.635 22.884c-4.763 2.75-8.66.5-8.66-5V165.29z" fill="#fff"/><path d="M466.672 78.199c-12.404 0-22.496-10.092-22.496-22.496a22.4 22.4 0 0 1 .804-5.947H329.92c-2.75 0-5 2.25-5 5v59.315c0 2.75 2.25 5 5 5h143.786c2.75 0 5-2.25 5-5V74.695a22.352 22.352 0 0 1-12.034 3.504z" fill="#ffaf10"/><path d="M344.763 240.043V136.306c0-2.75 2.25-5 5-5H329.92c-2.75 0-5 2.25-5 5v103.737c0 2.75 2.25 5 5 5h19.843c-2.75 0-5-2.25-5-5z" fill="#b7092b"/><path d="M344.763 114.071V54.756c0-2.75 2.25-5 5-5H329.92c-2.75 0-5 2.25-5 5v59.315c0 2.75 2.25 5 5 5h19.843c-2.75 0-5-2.25-5-5z" fill="#ef9614"/><circle cx="466.67" cy="55.703" r="23.496" fill="#b7092b"/><path d="M467.385 68.534a5 5 0 0 1-5-5V52.66a5.003 5.003 0 0 1-3.561-4.79 5 5 0 0 1 5-5h3.561a5 5 0 0 1 5 5v15.664a5 5 0 0 1-5 5z" fill="#eef6ff"/><path d="M420.718 80.223h-71.596a7.5 7.5 0 0 1-7.5-7.5c0-4.143 3.357-7.5 7.5-7.5h71.596a7.5 7.5 0 0 1 0 15zm21.645 23.191h-93.241c-4.143 0-7.5-3.357-7.5-7.5s3.357-7.5 7.5-7.5h93.241c4.143 0 7.5 3.357 7.5 7.5s-3.357 7.5-7.5 7.5z" fill="#db722c"/><circle cx="194.56" cy="116" r="37.33" fill="#ef8318"/><circle cx="194.56" cy="116" r="30" fill="#ff9518"/><path d="M206.318 124.521h-6.663v-1.604c5.68-2.079 9.742-7.518 9.742-13.917 0-8.191-6.642-14.833-14.833-14.833-8.192 0-14.833 6.642-14.833 14.833 0 6.4 4.062 11.838 9.742 13.917v1.604h-6.663c-2.661 0-4.837 2.178-4.837 4.839v11.633c4.753 3.161 10.455 5.007 16.591 5.007s11.839-1.846 16.591-5.007v-11.635c.001-2.66-2.176-4.837-4.837-4.837z" fill="#fff"/><path d="M161 213.389c0 2.75-2.25 5-5 5h-29c-2.75 0-5-2.25-5-5v-29c0-2.75 2.25-5 5-5h29c2.75 0 5 2.25 5 5v29z" fill="#ff9518"/><path d="M134.509 213.389v-29c0-2.75 2.25-5 5-5H127c-2.75 0-5 2.25-5 5v29c0 2.75 2.25 5 5 5h12.509c-2.75 0-5-2.25-5-5z" fill="#ef8318"/><path d="M227.666 198.889c0-2.823.963-5.419 2.565-7.5h-53.565c-4.142 0-7.5 3.357-7.5 7.5s3.358 7.5 7.5 7.5h53.565a12.26 12.26 0 0 1-2.565-7.5zm34.334-7.5h-12.232c1.602 2.081 2.565 4.677 2.565 7.5s-.963 5.419-2.565 7.5H262c4.143 0 7.5-3.357 7.5-7.5s-3.357-7.5-7.5-7.5z" fill="#1a2b63"/><circle cx="240" cy="198.89" r="13.333" fill="#ff9518"/></svg>