<svg xmlns="http://www.w3.org/2000/svg" viewBox="0 0 512 512"><circle cx="256" cy="255.999" r="255.999" fill="#21d0c3"/><path d="M89.577 61.494H471.98c6.004 0 10.915 4.915 10.915 10.915v302.225c-95.572 182.404-358.213 182.404-453.782-.003V72.408c0-6.004 4.913-10.915 10.915-10.915-.001.001 49.549.001 49.549.001z" fill="#fff"/><path d="M260.818 233.018c13.794 0 26.901 2.943 38.729 8.234a102.172 102.172 0 0 0-23.046-2.621c-56.29 0-101.922 45.633-101.922 101.922 0 15.867 3.628 30.884 10.096 44.273-11.843-15.846-18.854-35.507-18.854-56.812 0-52.465 42.53-94.995 94.995-94.995l.002-.001z" fill="#ecf0f1"/><path d="M40.028 61.494h431.951c6.004 0 10.917 4.913 10.917 10.917v21.831H29.115V72.41c0-6.004 4.913-10.917 10.917-10.917l-.004.001z" fill="#828282"/><path d="M231.133 72.798h219.202a2.931 2.931 0 0 1 2.932 2.932v5.44a2.931 2.931 0 0 1-2.932 2.932H231.133a2.931 2.931 0 0 1-2.932-2.932v-5.439a2.933 2.933 0 0 1 2.932-2.933z" fill="#fff"/><circle cx="50.885" cy="77.139" r="6.285" fill="#21d0c3"/><circle cx="75.696" cy="77.139" r="6.285" fill="#fad24d"/><circle cx="100.505" cy="77.139" r="6.285" fill="#ff5b62"/><path d="M316.31 250.908c23.924 17.249 39.503 45.357 39.503 77.103 0 52.465-42.53 94.995-94.995 94.995-16.992 0-32.937-4.464-46.736-12.278-23.924-17.249-39.503-45.357-39.503-77.103 0-52.465 42.53-94.995 94.995-94.995 16.99.001 32.936 4.465 46.736 12.278z" fill="#fefefe"/><path fill="#ecf0f1" d="M53.67 106.242h404.667V239.73H53.67z"/><circle cx="113.709" cy="286.129" r="26.899" fill="#ff5b62"/><circle cx="398.291" cy="286.129" r="26.899" fill="#21d0c3"/><path d="M75.113 321.994h77.19v5.458h-77.19v-5.458zm0 34.307h51.848v5.458H75.113v-5.458zm0-17.154h77.19v5.458h-77.19v-5.458zm137.95-7.841l102.032-1.194.089 6.828-102.032 1.194-.089-6.828zm.558 33.469l68.534-.8.089 6.828-68.534.8-.089-6.828zm-.28-16.734l102.032-1.194.089 6.828-102.029 1.191-.089-6.825h-.003zm146.361-26.047h77.19v5.458h-77.19v-5.458zm0 34.307h51.848v5.458h-51.848v-5.458zm0-17.154h77.19v5.458h-77.19v-5.458z" fill="#dce3db"/><g fill="#ecf0f1"><path d="M75.113 396.685h99.525v77.971h-51.83a257.199 257.199 0 0 1-47.694-37.509v-40.463h-.001zm361.779 40.462a256.93 256.93 0 0 1-47.695 37.509h-51.83v-77.971h99.525v40.462zm-230.651 37.509v-77.971h99.522v77.971h-99.522zm-93.6-88.512h284.722v1.679H112.641z"/><path d="M183.103 385.465h157.112v5.073H183.103zm-70.467-137.208h115.231a94.845 94.845 0 0 0-3.269 1.676H112.636v-1.676zm198.648 0h86.073v1.676h-82.811a94.52 94.52 0 0 0-3.262-1.676z"/></g><path d="M364.791 311.582c-9.076-57.488-62.761-96.736-120.648-87.661v.003c-56.889 9.075-96.616 63.038-87.541 120.527 9.075 57.485 63.099 96.734 120.587 87.658 16.911-2.67 32.27-9.225 45.256-18.611l8.516 10.469 11.16-9.002-8.694-10.633c24.188-23.076 36.972-57.235 31.364-92.75zm-89.456 108.395c-50.791 8.018-98.467-26.899-106.486-77.686-8.018-50.792 26.658-97.745 77.447-106.727h.003c50.79-7.984 98.465 26.899 106.483 77.688 8.019 50.789-26.657 98.706-77.447 106.725z" fill="#21d0c3"/><path d="M326.756 427.369l19.471-15.712c2.922-2.358 7.237-1.896 9.595 1.026l58.508 72.508c2.358 2.922 1.896 7.234-1.026 9.592l-19.471 15.712c-2.919 2.355-7.234 1.896-9.589-1.026l-58.511-72.508c-2.355-2.919-1.896-7.234 1.026-9.592h-.003z" fill="#ff5b62"/><path d="M291.047 269.487c-13.102 0-23.974 9.99-26.057 21.967h-62.765v8.983h3.992v11.977h8.982v-6.986h4.99v-4.99h3.992v6.986h6.986v-6.986h33.822c2.083 11.977 12.955 22.007 26.057 22.007 14.591 0 26.418-11.887 26.418-26.478.002-14.591-11.825-26.48-26.417-26.48zm-.003 42.718c-8.96 0-16.223-7.263-16.223-16.223 0-8.96 7.263-16.223 16.223-16.223 8.96 0 16.223 7.263 16.223 16.223.001 8.961-7.262 16.223-16.223 16.223z" fill="#fad24d"/></svg>