<svg xmlns="http://www.w3.org/2000/svg" viewBox="0 0 512 512"><path d="M512 256c0 95.89-52.727 179.473-130.77 223.324C344.21 500.13 301.496 512 256 512c-41.547 0-80.781-9.895-115.473-27.46a255.604 255.604 0 0 1-47.144-30.813C36.363 406.777 0 335.633 0 256 0 114.613 114.613 0 256 0s256 114.613 256 256zm0 0" fill="#fecf32"/><path d="M381.23 479.324C344.21 500.13 301.496 512 256 512c-41.547 0-80.781-9.895-115.473-27.46a255.604 255.604 0 0 1-47.144-30.813c15.37-27.094 41.347-47.375 72.285-55.215a114.115 114.115 0 0 1 19.082-3.164c3.121-.25 6.277-.387 9.477-.387h75.449c8.84 0 17.441.98 25.695 2.851.086.012.168.043.25.055 41.297 9.445 74.188 40.957 85.61 81.457zm0 0" fill="#35a2da"/><path d="M381.23 479.324C344.21 500.13 301.496 512 256 512c-41.547 0-80.781-9.895-115.473-27.46 3.305-14.274 9.27-27.532 17.317-39.247.332-.5.687-.992 1.031-1.484a116.237 116.237 0 0 1 22.813-23.98c19.726-15.579 44.648-24.868 71.73-24.868h16.258c5.226 0 10.367.344 15.402 1.023a113.583 113.583 0 0 1 26.113 6.657c33.875 12.976 60.102 41.421 70.04 76.683zm0 0" fill="#46b8fc"/><path d="M273.297 350.328v50.735c0 18.574-12.246 34.273-29.117 39.488a41.226 41.226 0 0 1-12.235 1.847c-22.828 0-41.332-18.503-41.332-41.335v-50.735zm0 0" fill="#a54d2f"/><path d="M273.297 397.852v3.21c0 18.575-12.246 34.274-29.117 39.489-15.22-4.68-26.664-17.91-28.778-34.106 2.762.172 5.54.254 8.328.254 7.82 0 15.489-.617 22.958-1.844a140.804 140.804 0 0 0 26.609-7.003zM118.55 267.184c0 19.136-13.98 35.004-32.288 37.949-2 .324-4.055.496-6.157.496-21.238 0-38.445-17.207-38.445-38.445 0-21.239 17.207-38.446 38.445-38.446 2.102 0 4.157.168 6.157.492 18.308 2.946 32.289 18.813 32.289 37.954zm0 0" fill="#bc6a46"/><path d="M118.55 267.184c0 19.136-13.98 35.004-32.288 37.949-3.325-12.09-5.098-24.817-5.098-37.95 0-13.136 1.773-25.859 5.098-37.953 18.308 2.946 32.289 18.813 32.289 37.954zm0 0" fill="#a54d2f"/><path d="M93.844 267.184c0 7.586-6.149 13.738-13.739 13.738-7.59 0-13.742-6.152-13.742-13.738 0-7.59 6.153-13.743 13.742-13.743 7.59 0 13.739 6.153 13.739 13.743zm0 0" fill="#a54d2f"/><path d="M345.355 267.184c0 19.136 13.98 35.004 32.286 37.949 2 .324 4.058.496 6.16.496 21.234 0 38.445-17.207 38.445-38.445 0-21.239-17.21-38.446-38.445-38.446-2.102 0-4.16.168-6.16.492-18.305 2.946-32.286 18.813-32.286 37.954zm0 0" fill="#bc6a46"/><path d="M345.355 267.184c0 19.136 13.98 35.004 32.286 37.949a142.963 142.963 0 0 0 5.101-37.95c0-13.136-1.777-25.859-5.101-37.953-18.305 2.946-32.286 18.813-32.286 37.954zm0 0" fill="#a54d2f"/><path d="M374.992 192.285v54.469c0 71.18-52 130.23-120.086 141.187-.226.04-.469.075-.699.114-7.242 1.16-14.672 1.73-22.258 1.73-78.992 0-143.031-64.039-143.031-143.031v-54.469c0-16.633 2.836-32.617 8.078-47.469 19.563-55.668 72.606-95.578 134.953-95.578h.012c7.574 0 15.016.586 22.27 1.73 68.417 10.692 120.761 69.895 120.761 141.317zm0 0" fill="#a54d2f"/><path d="M397.54 267.184c0 7.586-6.153 13.738-13.74 13.738-7.59 0-13.741-6.152-13.741-13.738 0-7.59 6.152-13.743 13.742-13.743 7.586 0 13.738 6.153 13.738 13.743zm0 0" fill="#a54d2f"/><path d="M374.992 192.285v54.469c0 71.18-52 130.23-120.086 141.187-.226.04-.469.075-.699.114-68.418-10.692-120.75-69.895-120.75-141.301v-54.469c0-71.422 52.344-130.625 120.773-141.316 68.418 10.691 120.762 69.894 120.762 141.316zm0 0" fill="#bc6a46"/><path d="M231.95 317.2c-11.977 0-23.954-3-34.872-9.005a6.36 6.36 0 0 1-2.512-8.64 6.366 6.366 0 0 1 8.641-2.512c17.996 9.894 39.488 9.894 57.484 0a6.365 6.365 0 0 1 8.641 2.512 6.357 6.357 0 0 1-2.512 8.64c-10.914 6.004-22.894 9.004-34.87 9.004zm16.226-37.923h-32.453a6.998 6.998 0 1 1 0-13.996h32.453a6.998 6.998 0 1 1 0 13.996zm0 0" fill="#a54d2f"/><path d="M201.492 238.422c0 8.96-7.265 16.226-16.226 16.226s-16.227-7.265-16.227-16.226 7.266-16.227 16.227-16.227 16.226 7.266 16.226 16.227zm93.379 0c0 8.96-7.266 16.226-16.226 16.226-8.965 0-16.227-7.265-16.227-16.226s7.262-16.227 16.227-16.227c8.96 0 16.226 7.266 16.226 16.227zm0 0" fill="#2f373b"/><path d="M198.184 235.559a6.953 6.953 0 1 1-13.907-.001 6.953 6.953 0 0 1 13.907 0zm94.176 0a6.953 6.953 0 1 1-13.908-.001 6.953 6.953 0 0 1 13.907 0zm0 0" fill="#fff"/><g fill="#2f373b"><path d="M377.652 29.145V229.23a51.628 51.628 0 0 1-19.523-15.246 51.628 51.628 0 0 1-10.191-22.566l-6.82-37.059c-3.325-17.996-20.911-29.652-38.778-25.683l-44.965 9.992a116.822 116.822 0 0 1-50.828 0l-40.762-9.063-4.2-.93c-17.87-3.968-35.456 7.688-38.776 25.684l-6.825 37.059A51.702 51.702 0 0 1 86.27 229.23V29.145h233.109zm0 0"/><path d="M144.543 29.145c0 16.097-13.043 29.144-29.145 29.144-16.085 0-29.128-13.047-29.128-29.144C86.27 13.047 99.313 0 115.398 0c16.102 0 29.145 13.047 29.145 29.145zm58.273 0c0 16.097-13.043 29.144-29.129 29.144a28.94 28.94 0 0 1-7.902-1.094c-12.258-3.437-21.242-14.687-21.242-28.05s8.984-24.614 21.242-28.051A28.943 28.943 0 0 1 173.688 0c16.085 0 29.128 13.047 29.128 29.145zm58.282 0c0 16.093-13.043 29.14-29.137 29.14s-29.14-13.047-29.14-29.14S215.866.004 231.96.004s29.137 13.047 29.137 29.14zm58.281 0c0 16.093-13.047 29.14-29.14 29.14s-29.137-13.047-29.137-29.14S274.145.004 290.238.004s29.14 13.047 29.14 29.14zm58.277 0c0 16.093-13.047 29.14-29.14 29.14-16.09 0-29.137-13.047-29.137-29.14S332.426.004 348.516.004c16.093 0 29.14 13.047 29.14 29.14zm0 0"/></g><path d="M144.543 29.145v100.359c-10.856 3.55-19.508 12.777-21.738 24.855l-6.82 37.059A51.711 51.711 0 0 1 86.27 229.23V29.145C86.27 13.047 99.313 0 115.398 0c16.102 0 29.145 13.047 29.145 29.145zm0 0" fill="#151a1c"/><path d="M509.46 106.219c0 58.66-47.554 106.215-106.218 106.215-58.66 0-106.215-47.555-106.215-106.215C297.027 47.555 344.582 0 403.242 0c58.664 0 106.219 47.555 106.219 106.219zm0 0" fill="#fb3a4a"/><path d="M403.242 71.465c0-28.399 73.836-38.813 68.156 27.453-4.492 52.383-68.156 75.727-68.156 75.727s-63.66-23.344-68.152-75.727c-5.68-66.266 68.152-55.856 68.152-27.453zm0 0" fill="#f2efea"/><path d="M373.438 188.04s-2.434 21.222-9.942 35.315c-2.445 4.594 1.746 9.918 6.746 8.47 12.059-3.497 27.051-11.259 33.438-28.485" fill="#fb3a4a"/></svg>