<svg xmlns="http://www.w3.org/2000/svg" viewBox="0 0 448.73 352.8"><g fill="#35a6ff"><g style="isolation:isolate"><path d="M24.81 323.2c-4.5.8-8.3.5-11.4-1a19.61 19.61 0 0 1-7.7-6.6 31.7 31.7 0 0 1-4.4-10.4 49.31 49.31 0 0 1-1.3-12.1 59.6 59.6 0 0 1 1.3-12 37.32 37.32 0 0 1 3.7-10.1 39.27 39.27 0 0 1 3.8-6.5 36.76 36.76 0 0 1 5.1-6 26 26 0 0 1 6.2-4.4 17.57 17.57 0 0 1 7.1-2 10.68 10.68 0 0 1 2.5.1 8.89 8.89 0 0 1 4.7 2.1 6.22 6.22 0 0 1 1.4 1.9 1.82 1.82 0 0 0 1.6 1.4 25.28 25.28 0 0 1 5.8 8.5 28.89 28.89 0 0 1 2.1 8.8 37.22 37.22 0 0 1-.1 8.2q-.6 3.9-.9 6.6a87.89 87.89 0 0 1-5 16 46.33 46.33 0 0 1-8.9 13.6 42.53 42.53 0 0 1 4.7 4.8 19.26 19.26 0 0 1 3.2 5.2 13.73 13.73 0 0 1 1 5.7 13.87 13.87 0 0 1-1.9 6.2l-.6 1c-.1.1-.1.1-.2.1h-.3c-.2-.3-.3-.5-.2-.7v-.8a16.32 16.32 0 0 0-1.1-5.5 21.61 21.61 0 0 0-2.6-4.7 34.23 34.23 0 0 0-3.6-4zm-3-4.8a15.12 15.12 0 0 1-2.2-5.3 45.44 45.44 0 0 1-1.1-6.6c-.2-2.3-.4-4.5-.4-6.7v-5.6a94.08 94.08 0 0 1 1.2-10.2 58.67 58.67 0 0 1 2.6-10.2 45.07 45.07 0 0 1 4.4-9.1 26.89 26.89 0 0 1 6.4-7 14 14 0 0 0-9.1 2.4 26.27 26.27 0 0 0-6.7 6.6 39.32 39.32 0 0 0-4.5 8.3 46.87 46.87 0 0 0-2.3 7.5 41.58 41.58 0 0 0-1.1 6.9 54.08 54.08 0 0 0 1.2 16 28.91 28.91 0 0 0 2.5 7 13.08 13.08 0 0 0 3.8 4.7 6.59 6.59 0 0 0 5.3 1.3zm5.4-2.9a40.45 40.45 0 0 0 5.4-7.4 58.53 58.53 0 0 0 4.3-9.5 61.1 61.1 0 0 0 2.7-10.4 62.17 62.17 0 0 0 .9-10.2 31.31 31.31 0 0 0-1.4-8.9 14 14 0 0 0-4.1-6.5 47.49 47.49 0 0 0-6.7 12.1 58.7 58.7 0 0 0-3.3 13.6 65.57 65.57 0 0 0-.3 14 60.56 60.56 0 0 0 2.5 13.2zm21.5-4.4a8.39 8.39 0 0 0 1.4-1.45l4-6a2.22 2.22 0 0 0 .5-1.1 4.1 4.1 0 0 0 .1-1.1c.1-.7.2-1.4.3-2s.2-1.2.3-1.9a10.93 10.93 0 0 1 .5-1.7 11.11 11.11 0 0 1 .7-1.6 3.94 3.94 0 0 1 2-1.8 1.36 1.36 0 0 1 1.5 0 1.76 1.76 0 0 1 1 1.2 1.27 1.27 0 0 1 .1.6v.6a22.85 22.85 0 0 0 0 3.7c0 1.2 0 2.5-.1 3.7s-.1 2.4-.1 3.6.1 2.3.2 3.6a2.77 2.77 0 0 1 .1.9 1.38 1.38 0 0 0 .5.9 2.18 2.18 0 0 1 .5-.3 2.19 2.19 0 0 0 .5-.3l3.9-4.6a4.35 4.35 0 0 1 .6-.7 5.93 5.93 0 0 1 .8-.8c.1.4.2.7.1.8a25.49 25.49 0 0 1-1.3 3.9 16.54 16.54 0 0 1-2.2 3.6c-.3.3-.5.6-.8.9a7.27 7.27 0 0 1-.9.8 3.56 3.56 0 0 1-4.9.1 4.89 4.89 0 0 1-1.2-1.3l-.9-1.5c-.1-.3-.3-.6-.4-.9a10.37 10.37 0 0 1-.4-1l-.8.7c-.5.6-1 1.3-1.5 1.9l-1.5 1.8a4 4 0 0 1-1.2 1 5.91 5.91 0 0 1-1.4.6 3.9 3.9 0 0 1-4.7-1.8 10.05 10.05 0 0 1-1.1-3.7 14.05 14.05 0 0 1 0-2.9 13.58 13.58 0 0 1 .3-2.9c.3-1.4.7-2.8 1-4.2s.8-2.7 1.3-4.1c.3-.6.5-1.1.8-1.6a5.26 5.26 0 0 1 1.2-1.4 2.84 2.84 0 0 1 2.3-1.1c1.3 0 1.9.6 1.9 1.7a5.66 5.66 0 0 1-.3 1.8l-1.7 6.7a28.17 28.17 0 0 0-.7 3.1c-.2 1-.4 2-.6 3.1a3.14 3.14 0 0 0-.1 1.3 6.74 6.74 0 0 0 .4 1.15z"/><path d="M70.81 310.3a6 6 0 0 0 1.4-1.3 11.32 11.32 0 0 1 1-1.3l5.4-7.7a6 6 0 0 1 1.3-1.3 1.36 1.36 0 0 1 1.8-.1 3.44 3.44 0 0 1 1.6 2.1 18.13 18.13 0 0 1 .7 6.6c-.2 2-.3 4.1-.3 6a3.43 3.43 0 0 0 1.2 3c.6.4.5.9-.2 1.3a3.12 3.12 0 0 1-2.5.7 5.43 5.43 0 0 1-3.6-1.8 5.57 5.57 0 0 1-1.3-2.2 21 21 0 0 1-.6-2.4v-1.8a.56.56 0 0 0-.6.1 1.38 1.38 0 0 1-.3.4 3.51 3.51 0 0 0-.5.8 5.55 5.55 0 0 1-.6.8l-1 1c-.3.3-.7.6-1.1 1a4.55 4.55 0 0 1-3.3.8 4.32 4.32 0 0 1-2.8-1.8 9 9 0 0 1-1.8-4.5 12.35 12.35 0 0 1 .5-5.1 16.11 16.11 0 0 1 2.4-4.7 15.44 15.44 0 0 1 2.8-2.9 12.26 12.26 0 0 1 3.7-2.1 15 15 0 0 1 3.5-.9 8.77 8.77 0 0 1 3.6.2 4.69 4.69 0 0 1 3.6 3 1.65 1.65 0 0 1-.1 1.8.93.93 0 0 1-1.2.4 4 4 0 0 1-1.5-.7 5.56 5.56 0 0 0-3.6-.1 11.45 11.45 0 0 0-3.5 1.9 13.1 13.1 0 0 0-4.2 9.5 1.09 1.09 0 0 0 .1.5 1.07 1.07 0 0 0 0 .8zm32.2 11a1.17 1.17 0 0 1-.2 1.5 3.77 3.77 0 0 1-1.8.8 10.27 10.27 0 0 1-2.5.1 8.49 8.49 0 0 1-2.4-.5 8.37 8.37 0 0 1-4.9-3 19 19 0 0 1-2.8-5.7 40.36 40.36 0 0 1-1.2-7.6q-.15-4.2 0-8.7c.1-3 .4-6 .7-9s.6-5.9 1-8.5q.45-2.25.9-5.4c.4-2 .8-4.1 1.3-6.3a63.6 63.6 0 0 1 1.9-6.2 21.25 21.25 0 0 1 2.8-5.2 10.35 10.35 0 0 1 3.8-3.2 8.25 8.25 0 0 1 5.2-.2 3.18 3.18 0 0 1 1.8 1.8 8.82 8.82 0 0 1 .7 2.9 18.19 18.19 0 0 1 0 3.3c-.1 1.1-.2 2.1-.2 2.9a67.12 67.12 0 0 1-2.2 9.3 58.9 58.9 0 0 1-3.1 7.7c-1.2 2.4-2.4 4.8-3.8 7.2s-2.9 5-4.5 7.8q-.15 1.95-.3 4.5c-.1 1.7-.1 3.4-.1 5.2a30.72 30.72 0 0 0 .5 5.3 16.21 16.21 0 0 0 1.5 4.7 8 8 0 0 0 3 3.3 7.8 7.8 0 0 0 4.9 1.2zm-8.8-33.65c2-3.5 3.6-6.6 4.9-9.3a57.53 57.53 0 0 0 2.9-7.6 42 42 0 0 0 1.2-6.6 44.16 44.16 0 0 0 0-6.3c-.1-.6-.3-.8-.5-.5s-.6.7-1 1.2a55.08 55.08 0 0 0-3.2 7.2 60.62 60.62 0 0 0-1.9 7q-.75 3.45-1.2 7.2c-.4 2.35-.8 4.95-1.2 7.7z"/><path d="M109.81 312.5a.6.6 0 0 0-.1.4c0 .2 0 .3-.1.4l-1.2 1.2c-1.3 1.1-2.5 1.5-3.6 1.1a6.09 6.09 0 0 1-4.2-5.5c-.1-.7-.2-1.4-.3-2.2a7.94 7.94 0 0 1 .1-2.2c.2-1.9.4-3.7.7-5.5s.5-3.7.9-5.5c.1-.3.2-.6.3-1a10.37 10.37 0 0 0 .4-1 4.25 4.25 0 0 1 3.8-2.1q2.1 0 2.1 1.8v1.5c0 .5-.1 1-.1 1.5-.2 1.1-.4 2.2-.7 3.4a22.14 22.14 0 0 0-.6 3.4c-.3 2.2-.4 4.4-.6 6.7a8.92 8.92 0 0 0 .3 2.2c.3 1 1.1 1.4 2.3 1.2l.5-.2c0 .1 0 .1.1.1h.1s-.2.3-.1.3zm1.1-30.3a3.17 3.17 0 0 1-.9 2.3 3.26 3.26 0 0 1-2.3 1 3.05 3.05 0 0 1-2.5-.8 2.9 2.9 0 0 1-1-2.3 2.94 2.94 0 0 1 .9-2.2 4.3 4.3 0 0 1 2.3-.9 2.84 2.84 0 0 1 2.4.8 3.11 3.11 0 0 1 1.1 2.1z"/><path d="M118.41 337.9a1.15 1.15 0 0 1-1-.1 2 2 0 0 1-.6-.7 7.64 7.64 0 0 0-1.1-1.6 10.14 10.14 0 0 1-1-1.6 18.15 18.15 0 0 1-1.1-3.8c-.2-1.2-.5-2.5-.7-3.8a27.83 27.83 0 0 1-.4-5.8c0-1.9.1-3.8.2-5.8q.3-4.35.6-7.5c.2-2.1.5-4.1.7-6s.5-3.8.9-5.8.7-4.2 1.1-6.9a11.17 11.17 0 0 0-4.4-.6 35.26 35.26 0 0 1-4.6 0c-.3-.1-.6-.1-.9-.2s-.4-.3-.6-.6.1-.9 1.1-1.3 1.9-.7 2.7-1a11.2 11.2 0 0 1 2.3-.6 15.72 15.72 0 0 1 2.3-.4 21.58 21.58 0 0 1 2.8-.2 19.45 19.45 0 0 0 .5-2 11.8 11.8 0 0 0 .4-2l3-10.4c.1-.3.3-.7.4-1a9.29 9.29 0 0 1 .5-1 2.15 2.15 0 0 1 2.3-1 .9.9 0 0 1 .6.6 3.37 3.37 0 0 1 .4 1.2c.1.4.2.9.3 1.3a6.38 6.38 0 0 0 .2.9 42.78 42.78 0 0 1-.8 6.5c-.4 2-.8 4.2-1.3 6.5a73.38 73.38 0 0 0 8.1.5 28.77 28.77 0 0 1 7.8 1 13.05 13.05 0 0 1 1.3.3 4.07 4.07 0 0 1 1.1.6c-.1.4-.2.6-.5.7s-.5.1-.8.2a29.31 29.31 0 0 1-2.9.5c-1 .2-2 .3-3 .4-2 .3-4 .4-5.9.5s-3.9.2-5.7.2c-1.2 5.1-2 9.7-2.7 13.9s-1.1 8.3-1.4 12.1-.4 7.7-.5 11.4v11.4c.5.4.4.6.3 1z"/><path d="M130.21 311.3c.3-.3.6-.4.8-.6a2.18 2.18 0 0 0 .5-.4l.9-1.2c.3-.4.5-.8.8-1.2.5-.8 1-1.6 1.4-2.4s.8-1.6 1.3-2.4a23.72 23.72 0 0 0 1.6-3.6 15.87 15.87 0 0 0 .7-2c.2-.7.4-1.2.5-1.7a10.46 10.46 0 0 1 1.3-3.6 2.76 2.76 0 0 1 .7-.9 9 9 0 0 1 1-.9c.7-.5 1.2-.4 1.4.5.1.3.2.6.3 1a3.08 3.08 0 0 1 .1 1c.1 2 .1 4.4 0 7s-.3 4.9-.4 7a8.71 8.71 0 0 0-.1 1.9v2.2c.8-1.1 1.6-2 2.3-2.8s1.4-1.5 2.1-2.2l2-2c.6-.6 1.3-1.3 1.9-2a6.8 6.8 0 0 1 2.6-1.9c.5-.1.9 0 1 .4a3.3 3.3 0 0 1-.2 1.6 5.08 5.08 0 0 1-.9 1.8 8.82 8.82 0 0 1-1 1.3c-.5.7-1.2 1.5-1.9 2.4s-1.6 1.9-2.4 2.9-1.6 2-2.4 2.9a27.94 27.94 0 0 0-1.9 2.4 12.44 12.44 0 0 1-1 1.3c0 1.7.1 3.7.2 5.9s.2 4.5.2 7a49.63 49.63 0 0 1-.6 7.6 29.68 29.68 0 0 1-2.1 7.6 17.44 17.44 0 0 1-2.8 5 6.8 6.8 0 0 1-4.8 2.6 5.94 5.94 0 0 1-3.1-1.4 7.28 7.28 0 0 1-1.7-2.8 14.29 14.29 0 0 1-.7-3.7 26.7 26.7 0 0 1 0-4 36.89 36.89 0 0 1 .5-3.7c.3-1.2.5-2.2.7-2.9a33 33 0 0 1 2-5.6c.7-1.6 1.5-3.1 2.2-4.4a33.5 33.5 0 0 1 2.2-3.4 17.47 17.47 0 0 0 1.7-2.8c-.1-1-.2-2-.2-3s-.1-2-.1-3q-.45-.15-.6 0c-.1.1-.2.3-.3.4a11 11 0 0 0-1 1.1l-1.1 1.1a5.45 5.45 0 0 1-4.2 1 5.13 5.13 0 0 1-3.6-2.4 12.94 12.94 0 0 1-1.5-5.6 19.87 19.87 0 0 1 .1-3.4 23.76 23.76 0 0 1 .6-3.7c.3-1.2.6-2.5 1-3.7s.8-2.3 1.2-3.2a8.1 8.1 0 0 1 3.1-3.9 1.3 1.3 0 0 1 1.4-.3 1.37 1.37 0 0 1 .8 1.1 7.41 7.41 0 0 1 .1 2.1 14.92 14.92 0 0 1-.2 2.1q-.15.9-.3 2.1c-.2.8-.4 1.7-.6 2.6s-.4 1.7-.6 2.5-.3 1.5-.4 2.1c-.1 1.2-.2 2.4-.2 3.6a7.78 7.78 0 0 0-.3 3.6zm2.6 36.7c.6.4 1.1.1 1.6-.7a14.56 14.56 0 0 0 1.3-3.6c.4-1.6.7-3.4 1-5.4s.5-4 .7-5.9a47 47 0 0 0 .2-5.1 21.05 21.05 0 0 0-.2-3.2c-.8 1.5-1.7 3.2-2.6 5.3a48.83 48.83 0 0 0-2.3 6.4 30.18 30.18 0 0 0-1 6.5 9.66 9.66 0 0 0 1.3 5.7z"/></g><g style="isolation:isolate"><path d="M337.21 306.4c-1.1 3.8-2.3 7.7-3.6 11.5s-2.7 7.7-4.1 11.5c-.6 1.4-1.3 2.8-2 4.2s-1.5 2.8-2.3 4.2a9.29 9.29 0 0 1-2.9 3 4.76 4.76 0 0 1-3 .7 6.34 6.34 0 0 1-3-1.2 7.54 7.54 0 0 1-2.3-2.7 103.39 103.39 0 0 1-5.6-24.8 130.63 130.63 0 0 1 0-23.4 159.3 159.3 0 0 1 3.7-22.75q2.7-11.25 5.7-23.1a31.81 31.81 0 0 0-5.5 5.5 41.79 41.79 0 0 0-4.5 6.5c-1.1 2-2.2 4-3.2 5.9s-2.1 3.8-3.2 5.8a9.47 9.47 0 0 0-.9 1.7 5.06 5.06 0 0 1-.5-1.7 7.56 7.56 0 0 1 0-3c.2-.9.5-1.9.8-3 .9-2.1 2.1-4.7 3.6-7.7a76.06 76.06 0 0 1 5.1-8.7 33 33 0 0 1 6.3-7 11 11 0 0 1 7-2.9 5.12 5.12 0 0 1 3 1.1 4.93 4.93 0 0 1 1.4 2.4 10.57 10.57 0 0 1 .2 3.1 31.07 31.07 0 0 1-.4 3.2c-1.4 7.5-2.8 14.5-4 21.1s-2.3 13-3 19.3a147.56 147.56 0 0 0-1.2 18.6 108.44 108.44 0 0 0 1.6 19.3 27.56 27.56 0 0 0 .8 4.4c.6.2 1 .1 1.1-.3a1.93 1.93 0 0 1 .5-.9c1.2-3.8 2.5-7.6 3.8-11.4s2.5-7.5 3.6-11.4q1.35-4.5 3.3-10.2c1.3-3.8 2.6-7.6 4.1-11.4s3-7.5 4.7-10.9a53.54 53.54 0 0 1 4.9-8.3 2.89 2.89 0 0 1 1.8-1.1 3.38 3.38 0 0 1 2 .1 2.81 2.81 0 0 1 1.6 1.4 6.48 6.48 0 0 1 .5 2.1v.8a1.55 1.55 0 0 1-.2.8c-.2 3.7-.3 7.3-.3 10.6s0 6.6.2 9.9.2 6.5.3 9.7.2 6.6.3 10a115.49 115.49 0 0 0 3.2 19.4q1.05 3.75 2.1 3a9.17 9.17 0 0 0 2.3-3.8c1.4-3.4 2.8-6.9 4.2-10.3a92.74 92.74 0 0 0 3.6-10.5q2.4-9.45 4.5-18.6a131.28 131.28 0 0 0 2.9-18.8c.4-4.6.7-8.8.9-12.4s.3-7 .3-10.4-.2-6.8-.5-10.4-.8-7.7-1.5-12.4a4.91 4.91 0 0 1 .3-1.2c.5-.2.9-.2 1.1 0a4.35 4.35 0 0 1 .7.6 20.16 20.16 0 0 1 1.8 3.2l1.5 3.3a138.28 138.28 0 0 1 2.7 28.3 178.19 178.19 0 0 1-2.3 26.8 193.59 193.59 0 0 1-5.8 24.4 184.82 184.82 0 0 1-7.7 20.9 17.94 17.94 0 0 1-2 3.9c-.9 1.2-1.8 2.2-2.8 3.3l-1.4 1.4a5.51 5.51 0 0 1-1.4.9 11.14 11.14 0 0 1-5.8 1.5 6.88 6.88 0 0 1-5.3-2.3 31 31 0 0 1-4.9-9.6 61.65 61.65 0 0 1-2.3-11.5 81.1 81.1 0 0 1-.5-12.1c.1-4.1.3-7.9.6-11.3a5.2 5.2 0 0 0-1.1 2.3c-.5 1.3-.9 2.8-1.4 4.4s-.9 3.2-1.3 4.7c-.4 1.05-.7 2.15-.9 2.75zm55.1 8.6a5.26 5.26 0 0 0 .7 3.8 5.88 5.88 0 0 0 2.7 2.2 7.19 7.19 0 0 0 3.6.5 10.59 10.59 0 0 0 3.6-.9 18.93 18.93 0 0 0 7.4-5.4c2-2.4 3.9-4.7 5.6-7l2.3-2.4a1.33 1.33 0 0 1 1.4-.2c.4.1.6.6.6 1.4a.75.75 0 0 1-.1.5.75.75 0 0 0-.1.5 38 38 0 0 1-5.5 9.6 31 31 0 0 1-8.5 7.5 20.13 20.13 0 0 1-5.2 2.3 17.83 17.83 0 0 1-5.6.6 16.33 16.33 0 0 1-5.4-1.2 11.93 11.93 0 0 1-4.5-3.3 17.13 17.13 0 0 1-3.5-7 21.09 21.09 0 0 1-.4-7.5 23.3 23.3 0 0 1 2.3-7.2 25.25 25.25 0 0 1 4.5-6.2 13.58 13.58 0 0 1 5.2-3.3 23.64 23.64 0 0 1 6.1-1.4 9.94 9.94 0 0 1 5.5 1.2 10.08 10.08 0 0 1 3.6 3.5 12.52 12.52 0 0 1 1.8 4.5 7.33 7.33 0 0 1-.2 4.2 18.53 18.53 0 0 1-3.1 6.35 13.52 13.52 0 0 1-4.2 3.5 12.82 12.82 0 0 1-5.1 1.3 33.13 33.13 0 0 1-5.5-.45zm1.2-7.1a23.07 23.07 0 0 0 5.4-1.6 8.33 8.33 0 0 0 3.6-3.1 6.82 6.82 0 0 0 1.1-2.6 4.22 4.22 0 0 0-.5-2.9 3 3 0 0 0-2.3.2 6.57 6.57 0 0 0-1.7 1.2 19.11 19.11 0 0 0-5.6 8.8z"/><path d="M425.51 295.5a32.84 32.84 0 0 0 2-3.1 22.34 22.34 0 0 1 2-3 13.94 13.94 0 0 1 2.8-2.6 16.44 16.44 0 0 1 4.2-2 9.39 9.39 0 0 1 6.8.8 9.54 9.54 0 0 1 4.4 5.1 27.76 27.76 0 0 1 1 8.6 41.72 41.72 0 0 1-1.4 8.6 37.44 37.44 0 0 1-3.3 8 42.58 42.58 0 0 1-4.6 6.8 14.4 14.4 0 0 1-7.1 4.2c-2.4.5-4.3.8-5.8 1a12.13 12.13 0 0 0-.5 1.4c-.2.4-.3.8-.5 1.2a6.68 6.68 0 0 1-1.1 2 2.79 2.79 0 0 1-2 .8 7.93 7.93 0 0 1-2.5-.5 12.29 12.29 0 0 1-2.3-1.1 3.92 3.92 0 0 1-1.3-1.3c-.6-6.8-1.1-13.5-1.4-20.1a193.08 193.08 0 0 1 .2-20.1 140.91 140.91 0 0 1 3-20.8 159.77 159.77 0 0 1 6.7-22.4 21.48 21.48 0 0 0 1.4-2.3 24.9 24.9 0 0 1 2-3.2 8.43 8.43 0 0 1 2.5-2.2 1.94 1.94 0 0 1 2.6.5c-1.4 5.2-2.7 9.9-3.7 14.3s-1.9 8.8-2.5 13.1-1.1 8.8-1.4 13.4-.3 9.5-.2 14.9zm.9 23.5a6.45 6.45 0 0 0 5.2-2.7 24.33 24.33 0 0 0 3.7-6.3 39.56 39.56 0 0 0 2.3-7.4 48.84 48.84 0 0 0 .9-6 5.44 5.44 0 0 0 0-1.8c-.1-.6-.2-1.3-.3-2a1.82 1.82 0 0 0-1.1-1 1.63 1.63 0 0 0-1.5.2 10.7 10.7 0 0 0-1.6 1.4c-.5.5-.9 1.1-1.4 1.7a51.09 51.09 0 0 0-3.9 6.7 23.31 23.31 0 0 0-1.8 5.7 25 25 0 0 0-.5 5.5v6z"/></g></g><path d="M236.41 313.7c5.3-6.8 6.1-13.2 1.9-20-.5-.8 0-3.3.8-3.8 9.4-6.4 19.4-11.2 31-11.6 6.4-.2 9.7 2.2 10.6 8.3 2 13.8.9 27.4-4.5 40.4-1.2 2.8-3 4.5-6.2 3.9-12.7-2.25-23.3-8.8-33.6-17.2z" fill="#1d1d1b"/><circle cx="226.61" cy="301.6" r="15.1" fill="#feeb1e"/><path d="M217.31 289.8c-5.7 6.1-7.1 12.5-4.1 20 .3.9-.7 3.1-1.6 3.6-10 5.6-20.4 9.9-32.1 10.3-3.5.1-5.6-1.2-6.4-4.8a78.77 78.77 0 0 1 .8-38c2.3-8.9 6.3-11.1 15.2-8.7a60.36 60.36 0 0 1 28.2 17.6zm20.9-70.9c12.9 1.2 8.8 8.7-.6 9.7a170.44 170.44 0 0 1-22.6 0c-17-2-7.3-9.4-.2-10s19.6-.95 23.4.3zm5.9-57.25c8.8 1.5 11.9 9.3 6.8 16.7a18.44 18.44 0 0 1-6.2 5.6c-11 5.6-22.5 5.7-34 1.8-5.9-1.9-9.3-6.2-10.3-12.4-1.1-6.4.5-9.8 7-11.1s31.1-1.6 36.7-.6zm-64.4-75.15c13.8.9 21.9 2.5 31.7 7.7 1 .6 2.6.1 4 .1 6.4-.3 12.8-.5 19.2-.8 1.8-.1 4 .4 5.5-.4 16.4-8.4 34-10.5 52.1-9.8 9.2.3 18.3 1.1 27.4 2.2 6.5.8 8.9 8.2 5 13.7a25.14 25.14 0 0 0-3.3 8.1c-2.4 8.8-4.2 17.8-7.2 26.5-2.9 8.5-9.3 14.1-18.1 16.6-16.8 4.8-32.6 3-46.9-7.4-7.8-5.6-11-14-13.2-22.9a59.73 59.73 0 0 1-1.1-6.1c-1-6.1-3.4-8.4-8.8-8.5-5.7 0-8.4 2.9-10 8.7-2.2 8-4 16.4-8 23.6-7.2 13-20.3 17.1-34.1 18.2-13.2 1.1-25.5-1.9-34.8-12.5-6.9-7.9-8.9-17.6-10.7-27.4a82.37 82.37 0 0 0-3.8-11.9c-2.1-6.4-2.4-12 6.1-14.3 16.4-4.25 35.1-4.4 49-3.4zm-28.7 10.8c-6 1.1-9.6 5.8-11.3 11.7-3.5 12.5 3.9 29.4 15.4 35.3 13.8 7.1 34.7 2.5 43.8-10 6.3-8.6 6.9-18.3 2.9-28-3.6-8.6-11.5-10.9-19.9-11.3a142.42 142.42 0 0 0-30.9 2.3zm159.5 17.6c0-.4.1-1.7.1-2.9-.2-12.2-6.3-19.4-18.5-20.4-7-.6-14.2.1-21.3.3a37.63 37.63 0 0 0-6.6 1c-17.2 3.5-24.5 20.6-15.1 35.8 7.1 11.6 18.3 15.7 31.1 15.5 17.2-.2 28.7-11.3 30.3-29.3zM316.31 0c18.9.6 33.2 8.8 41.6 25.4 8.3 16.4 6.9 32.7-3.2 48.1-4.6 7-9.9 7.8-16.2 2.4-5.5-4.7-10.5-10-15.8-15a65.18 65.18 0 0 0-25.7-14.6c-5.3-1.6-10.5-3.4-15.7-5.3-8.6-3.1-10.6-7.7-6.3-15.8 8.8-16.55 23-24.55 41.3-25.2zM74.51 46.65c0-21.1 14.8-40.4 34.5-45.2 21.8-5.2 44 4.4 53.5 23.4 4.2 8.3 2.4 13-6.4 16.1-6.1 2.2-12.3 4.1-18.4 6.1-13.5 4.5-23.6 13.7-33.1 23.7a59.12 59.12 0 0 1-5.2 4.8c-6.8 5.5-11.7 4.9-16.6-2.3a45.59 45.59 0 0 1-8.3-26.6z" fill="#1d1d1b"/></svg>