<svg xmlns="http://www.w3.org/2000/svg" viewBox="0 0 501.31 350.64"><path d="M271.13 313.7c5.3-6.8 6.1-13.2 1.9-20-.5-.8 0-3.3.8-3.8 9.4-6.4 19.4-11.2 31-11.6 6.4-.2 9.7 2.2 10.6 8.3 2 13.8.9 27.4-4.5 40.4-1.2 2.8-3 4.5-6.2 3.9-12.7-2.3-23.3-8.8-33.6-17.2z" fill="#fff"/><circle cx="261.33" cy="301.6" r="15.1" fill="#feeb1e"/><path d="M252 289.8c-5.7 6.1-7.1 12.5-4.1 20 .3.9-.7 3.1-1.6 3.6-10 5.6-20.4 9.9-32.1 10.3-3.5.1-5.6-1.2-6.4-4.8a78.77 78.77 0 0 1 .8-38c2.3-8.9 6.3-11.1 15.2-8.7a60.36 60.36 0 0 1 28.2 17.6zm20.93-70.9c12.9 1.2 8.8 8.7-.6 9.7a170.44 170.44 0 0 1-22.6 0c-17-2-7.3-9.4-.2-10s19.6-1 23.4.3zm5.9-57.3c8.8 1.5 11.9 9.3 6.8 16.7a18.44 18.44 0 0 1-6.2 5.6c-11 5.6-22.5 5.7-34 1.8-5.9-1.9-9.3-6.2-10.3-12.4-1.1-6.4.5-9.8 7-11.1s31.1-1.6 36.7-.6zm-64.4-75.1c13.8.9 21.9 2.5 31.7 7.7 1 .6 2.6.1 4 .1 6.4-.3 12.8-.5 19.2-.8 1.8-.1 4 .4 5.5-.4 16.4-8.4 34-10.5 52.1-9.8 9.2.3 18.3 1.1 27.4 2.2 6.5.8 8.9 8.2 5 13.7a25.14 25.14 0 0 0-3.3 8.1c-2.4 8.8-4.2 17.8-7.2 26.5-2.9 8.5-9.3 14.1-18.1 16.6-16.8 4.8-32.6 3-46.9-7.4-7.8-5.6-11-14-13.2-22.9a59.73 59.73 0 0 1-1.1-6.1c-1-6.1-3.4-8.4-8.8-8.5-5.7 0-8.4 2.9-10 8.7-2.2 8-4 16.4-8 23.6-7.2 13-20.3 17.1-34.1 18.2-13.2 1.1-25.5-1.9-34.8-12.5-6.9-7.9-8.9-17.6-10.7-27.4a82.37 82.37 0 0 0-3.8-11.9c-2.1-6.4-2.4-12 6.1-14.3 16.4-4.3 35.1-4.4 49-3.4zm-28.7 10.8c-6 1.1-9.6 5.8-11.3 11.7-3.5 12.5 3.9 29.4 15.4 35.3 13.8 7.1 34.7 2.5 43.8-10 6.3-8.6 6.9-18.3 2.9-28-3.6-8.6-11.5-10.9-19.9-11.3a142.42 142.42 0 0 0-30.9 2.3zm159.5 17.6c0-.4.1-1.7.1-2.9-.2-12.2-6.3-19.4-18.5-20.4-7-.6-14.2.1-21.3.3a37.63 37.63 0 0 0-6.6 1c-17.2 3.5-24.5 20.6-15.1 35.8 7.1 11.6 18.3 15.7 31.1 15.5 17.2-.2 28.7-11.3 30.3-29.3zM351 0c18.9.6 33.2 8.8 41.6 25.4 8.3 16.4 6.9 32.7-3.2 48.1-4.6 7-9.9 7.8-16.2 2.4-5.5-4.7-10.5-10-15.8-15a65.18 65.18 0 0 0-25.7-14.6c-5.3-1.6-10.5-3.4-15.7-5.3-8.6-3.1-10.6-7.7-6.3-15.8C318.53 8.6 332.73.6 351 0zM109.23 46.6c0-21.1 14.8-40.4 34.5-45.2 21.8-5.2 44 4.4 53.5 23.4 4.2 8.3 2.4 13-6.4 16.1-6.1 2.2-12.3 4.1-18.4 6.1-13.5 4.5-23.6 13.7-33.1 23.7a59.12 59.12 0 0 1-5.2 4.8c-6.8 5.5-11.7 4.9-16.6-2.3a45.59 45.59 0 0 1-8.3-26.6zM24.82 321.23q-6.72 1.25-11.42-1a18.73 18.73 0 0 1-7.68-6.62 31 31 0 0 1-4.37-10.37A51.39 51.39 0 0 1 0 291.13a57.75 57.75 0 0 1 1.34-12A36.18 36.18 0 0 1 5 269a45.74 45.74 0 0 1 3.79-6.53 37.81 37.81 0 0 1 5.09-6 26.71 26.71 0 0 1 6.19-4.42 18.46 18.46 0 0 1 7.1-2 11.18 11.18 0 0 1 2.5.1 9.79 9.79 0 0 1 2.54.72 8.09 8.09 0 0 1 2.16 1.39 5.85 5.85 0 0 1 1.44 1.92 1.92 1.92 0 0 0 1.63 1.44 24.74 24.74 0 0 1 5.76 8.5 32.22 32.22 0 0 1 2.11 8.78 36.39 36.39 0 0 1-.14 8.16l-.91 6.62a88.47 88.47 0 0 1-5 16 46.1 46.1 0 0 1-8.93 13.63 47.35 47.35 0 0 1 4.7 4.8 19.3 19.3 0 0 1 3.22 5.23 13.93 13.93 0 0 1 1 5.71 13.77 13.77 0 0 1-1.92 6.24l-.58 1a.28.28 0 0 1-.19.1h-.29a1 1 0 0 1-.24-.72 5.93 5.93 0 0 0 0-.82 15.88 15.88 0 0 0-1.1-5.47 21.35 21.35 0 0 0-2.59-4.66 28.43 28.43 0 0 0-3.6-4q-1.91-1.86-3.92-3.49zm-3-4.8a16 16 0 0 1-2.21-5.28 47.46 47.46 0 0 1-1.1-6.62q-.34-3.46-.38-6.72t0-5.57a99.2 99.2 0 0 1 1.15-10.18 59.25 59.25 0 0 1 2.59-10.18 44.75 44.75 0 0 1 4.37-9.07 25.62 25.62 0 0 1 6.38-7 14.48 14.48 0 0 0-9.12 2.35 25.75 25.75 0 0 0-6.72 6.58 37.85 37.85 0 0 0-4.46 8.3 43.1 43.1 0 0 0-2.32 7.58 39.33 39.33 0 0 0-1 6.91 55.74 55.74 0 0 0 0 8 51.39 51.39 0 0 0 1.2 8 29.08 29.08 0 0 0 2.5 7 13.12 13.12 0 0 0 3.84 4.66 7.24 7.24 0 0 0 5.3 1.24zm5.38-2.88a35.7 35.7 0 0 0 5.38-7.44 61 61 0 0 0 4.27-9.5 66.45 66.45 0 0 0 2.74-10.42 52.45 52.45 0 0 0 .88-10.19 30.94 30.94 0 0 0-1.39-8.88 14.53 14.53 0 0 0-4.08-6.56 45.41 45.41 0 0 0-6.67 12.1A60.61 60.61 0 0 0 25 286.29a68.44 68.44 0 0 0-.29 14 62.25 62.25 0 0 0 2.51 13.26zm24.3-4.42a9.49 9.49 0 0 0 1.44-1.54l4-6a2.29 2.29 0 0 0 .48-1.06 6.56 6.56 0 0 0 .1-1.06q.19-1.06.29-2t.29-1.87a14.45 14.45 0 0 1 .48-1.68 14 14 0 0 1 .67-1.58 3.56 3.56 0 0 1 2-1.82 1.74 1.74 0 0 1 1.54 0 1.62 1.62 0 0 1 1 1.2 2 2 0 0 1 .1.62v.66a35 35 0 0 0 0 3.74 29.89 29.89 0 0 1-.14 3.74q-.1 1.83-.1 3.55a33.66 33.66 0 0 0 .19 3.55c.06.32.11.62.14.91a1.6 1.6 0 0 0 .53.91 1.85 1.85 0 0 1 .49-.4 1.82 1.82 0 0 0 .48-.34l3.88-4.66q.29-.38.58-.72t.77-.82q.19.67.1.77a22.05 22.05 0 0 1-1.34 3.94 17.89 17.89 0 0 1-2.21 3.65 9.82 9.82 0 0 1-1.63 1.63 3.53 3.53 0 0 1-4.9.1 5.26 5.26 0 0 1-1.25-1.3 13.4 13.4 0 0 1-.86-1.49q-.19-.48-.38-.91t-.38-1l-.77.67q-.77 1-1.54 1.87T54 312.21a4.2 4.2 0 0 1-1.15 1 5.75 5.75 0 0 1-1.44.58 3.88 3.88 0 0 1-4.7-1.82 9.19 9.19 0 0 1-1.06-3.74 23.87 23.87 0 0 1 0-2.93 18 18 0 0 1 .34-2.93q.48-2.11 1-4.18a37.22 37.22 0 0 1 1.3-4.08 17.72 17.72 0 0 1 .82-1.63 5.53 5.53 0 0 1 1.2-1.44 2.83 2.83 0 0 1 2.3-1.06q1.92 0 1.92 1.73a5.72 5.72 0 0 1-.29 1.82l-1.73 6.72q-.38 1.54-.67 3.07l-.58 3.07a4.26 4.26 0 0 0-.14 1.3 7.6 7.6 0 0 0 .38 1.44z" fill="#fff"/><path d="M76.37 308.27a6 6 0 0 0 1.44-1.34l1-1.34 5.38-7.68q.29-.38.58-.72a4.17 4.17 0 0 1 .67-.62 1.33 1.33 0 0 1 1.82-.1 3.69 3.69 0 0 1 1.63 2.11 17.63 17.63 0 0 1 .67 6.62q-.29 3.07-.29 6a3.25 3.25 0 0 0 1.15 3q.86.67-.19 1.34a3.12 3.12 0 0 1-2.5.67 5.57 5.57 0 0 1-3.73-1.8 6.2 6.2 0 0 1-1.34-2.21 14.43 14.43 0 0 1-.58-2.4V308c-.32-.06-.53 0-.62.14a2.23 2.23 0 0 1-.34.43 6.94 6.94 0 0 0-.53.82 3.72 3.72 0 0 1-.62.82l-1 1q-.48.48-1.06 1a4.74 4.74 0 0 1-3.31.82 4.22 4.22 0 0 1-2.83-1.78 8.59 8.59 0 0 1-1.77-4.61 12 12 0 0 1 .53-5.14 18.22 18.22 0 0 1 2.35-4.66 17.5 17.5 0 0 1 2.83-2.93 12.57 12.57 0 0 1 3.7-2.06 15.32 15.32 0 0 1 3.5-.91 9.22 9.22 0 0 1 3.6.24 5 5 0 0 1 3.65 3 1.69 1.69 0 0 1-.1 1.82.84.84 0 0 1-1.12.39 3.85 3.85 0 0 1-1.54-.67 5.47 5.47 0 0 0-3.65-.1 9.76 9.76 0 0 0-3.46 1.92A13.25 13.25 0 0 0 76 307a1.55 1.55 0 0 0 .1.48 7.14 7.14 0 0 1 .23.76zm35.33 11.04a1.28 1.28 0 0 1-.24 1.54 3.39 3.39 0 0 1-1.78.77 11 11 0 0 1-2.54.1 7.86 7.86 0 0 1-2.35-.48 8.2 8.2 0 0 1-4.9-3 16.68 16.68 0 0 1-2.78-5.71 33.21 33.21 0 0 1-1.11-7.62q-.19-4.22 0-8.69t.67-9q.48-4.51 1-8.54.38-2.3.91-5.38t1.3-6.29a50.29 50.29 0 0 1 1.92-6.24 21.81 21.81 0 0 1 2.78-5.23 9.48 9.48 0 0 1 3.84-3.17 7.86 7.86 0 0 1 5.18-.19 3.21 3.21 0 0 1 1.82 1.78 9.15 9.15 0 0 1 .72 2.93 19.14 19.14 0 0 1 0 3.31q-.14 1.68-.24 2.93a62.73 62.73 0 0 1-2.21 9.26 67.07 67.07 0 0 1-3.07 7.73q-1.73 3.65-3.84 7.2t-4.51 7.78q-.19 1.92-.34 4.46t-.1 5.23a37 37 0 0 0 .48 5.33 15 15 0 0 0 1.54 4.7 8.85 8.85 0 0 0 3 3.31 8.33 8.33 0 0 0 4.85 1.18zm-8.83-33.7q3-5.18 4.9-9.31a49 49 0 0 0 2.88-7.63 35.53 35.53 0 0 0 1.2-6.62 37.63 37.63 0 0 0 0-6.29q-.19-1-.53-.53a15.12 15.12 0 0 1-1 1.2 45 45 0 0 0-3.17 7.25 63.12 63.12 0 0 0-1.87 7q-.72 3.51-1.2 7.2t-1.21 7.73z" fill="#fff"/><path d="M121.39 310.48a1 1 0 0 0-.1.43 1 1 0 0 1-.1.43l-1.19 1.15a3.83 3.83 0 0 1-3.65 1.1 5.48 5.48 0 0 1-2.78-1.87 6 6 0 0 1-1.44-3.55q-.19-1.05-.29-2.21a8.45 8.45 0 0 1 .1-2.21q.29-2.78.67-5.52t.86-5.52a5.31 5.31 0 0 1 .29-1l.38-1a4.36 4.36 0 0 1 3.86-2.11q2.11 0 2.11 1.82V292a8.59 8.59 0 0 1-.14 1.54q-.29 1.63-.72 3.36a26.74 26.74 0 0 0-.62 3.36q-.39 3.26-.58 6.72a9.08 9.08 0 0 0 .29 2.21 1.81 1.81 0 0 0 2.22 1.27h.08l.48-.19a.08.08 0 0 0 .05.1h.15s0 .17.09.17zm1.06-30.24a3.22 3.22 0 0 1-.91 2.3 3 3 0 0 1-2.26 1 3.32 3.32 0 0 1-2.54-.82 2.92 2.92 0 0 1-1-2.26 2.75 2.75 0 0 1 .91-2.16 3.68 3.68 0 0 1 2.26-.91 3.28 3.28 0 0 1 2.45.77 3 3 0 0 1 1.09 2.08z" fill="#fff"/><path d="M132.81 335.92a1 1 0 0 1-1-.1 1.91 1.91 0 0 1-.58-.67 10.07 10.07 0 0 0-1.06-1.63 6.35 6.35 0 0 1-1-1.63 19.49 19.49 0 0 1-1.1-3.79q-.34-1.87-.72-3.79a31.85 31.85 0 0 1-.43-5.76q0-2.88.24-5.76.29-4.32.62-7.49t.72-6q.38-2.83.86-5.76t1.06-6.86a11 11 0 0 0-4.37-.62 31 31 0 0 1-4.56 0l-.86-.19a.86.86 0 0 1-.58-.58q-.38-.67 1.06-1.34a15.68 15.68 0 0 1 2.74-1q1.2-.38 2.3-.62t2.3-.38q1.2-.14 2.83-.24.29-1.06.53-2t.43-2l3-10.37q.19-.48.43-1a9.93 9.93 0 0 1 .53-1 2.11 2.11 0 0 1 2.3-1 1 1 0 0 1 .62.58 7 7 0 0 1 .43 1.15 10.82 10.82 0 0 1 .29 1.3 5.82 5.82 0 0 0 .19.91 51 51 0 0 1-.77 6.53q-.58 3.07-1.34 6.53a67.88 67.88 0 0 0 8.06.48 31.25 31.25 0 0 1 7.78 1l1.34.34a2.28 2.28 0 0 1 1.06.62c-.06.38-.23.61-.48.67l-.77.19c-1 .19-1.92.37-2.88.53s-2 .3-3 .43q-3 .38-5.9.53t-5.71.24q-1.73 7.58-2.69 13.92t-1.39 12.14q-.43 5.81-.48 11.38t0 11.42a3.18 3.18 0 0 1-.05.69z" fill="#fff"/><path d="M147.4 309.33q.48-.38.77-.58a3.08 3.08 0 0 0 .48-.38 13.56 13.56 0 0 0 .86-1.15q.38-.58.77-1.25a25.45 25.45 0 0 0 1.39-2.35q.62-1.2 1.3-2.45.38-.67.82-1.63t.82-2q.38-1 .67-2l.48-1.68a10.54 10.54 0 0 1 1.34-3.65 2.47 2.47 0 0 1 .67-.91l1-.91q1.05-.77 1.44.48a5.61 5.61 0 0 1 .29 1 4.94 4.94 0 0 1 .1 1 57.05 57.05 0 0 1 0 7l-.43 7a14.43 14.43 0 0 0-.14 1.92 14.89 14.89 0 0 0 0 2.21q1.25-1.63 2.3-2.83t2.06-2.21l2-2q1-1 1.92-2A7.72 7.72 0 0 1 171 298q.82-.19 1 .38a3.19 3.19 0 0 1-.19 1.63 6.09 6.09 0 0 1-.91 1.82q-.19.29-1 1.3t-1.92 2.35q-1.15 1.34-2.4 2.88a33.92 33.92 0 0 1-2.53 2.8q-1.15 1.39-1.92 2.4l-1 1.3q0 2.59.24 5.9t.19 7a62.73 62.73 0 0 1-.58 7.58A31.12 31.12 0 0 1 158 343a19.82 19.82 0 0 1-2.78 5 6.84 6.84 0 0 1-4.8 2.64 5.32 5.32 0 0 1-3.07-1.44 7.29 7.29 0 0 1-1.73-2.83 14.58 14.58 0 0 1-.72-3.7 27.54 27.54 0 0 1 0-4 26.94 26.94 0 0 1 .53-3.74q.38-1.78.67-2.93a38.06 38.06 0 0 1 2-5.62 48.25 48.25 0 0 1 2.21-4.37 35.8 35.8 0 0 1 2.16-3.36 19.56 19.56 0 0 0 1.73-2.78q-.19-1.54-.24-3t-.14-3c-.32-.13-.53-.13-.62 0a3.5 3.5 0 0 1-.34.38c-.32.32-.66.67-1 1.06a11.31 11.31 0 0 1-1.1 1.06 5.2 5.2 0 0 1-4.18 1A4.77 4.77 0 0 1 143 311a13.37 13.37 0 0 1-1.54-5.57 21 21 0 0 1 .1-3.41 30.62 30.62 0 0 1 .62-3.74q.43-1.87 1-3.7a21.93 21.93 0 0 1 1.25-3.17 9 9 0 0 1 3.07-3.94 1.5 1.5 0 0 1 1.44-.34 1.19 1.19 0 0 1 .77 1.1 9.47 9.47 0 0 1 .14 2.11 16.09 16.09 0 0 1-.24 2.11q-.1.86-.34 2.11t-.58 2.59q-.34 1.34-.62 2.54a17 17 0 0 0-.38 2.06q-.19 1.83-.24 3.6t0 4zM150 346q.86.58 1.58-.72a15.15 15.15 0 0 0 1.3-3.65 53 53 0 0 0 1-5.38q.42-3 .67-5.86t.24-5.14a17.18 17.18 0 0 0-.19-3.17q-1.25 2.21-2.64 5.33a45 45 0 0 0-2.3 6.43 27.54 27.54 0 0 0-1 6.53A10.1 10.1 0 0 0 150 346zm239.75-41.62q-1.67 5.76-3.64 11.52T382 327.42q-.91 2.12-2 4.17t-2.27 4.17a8.52 8.52 0 0 1-2.88 3 5.16 5.16 0 0 1-3 .68 6 6 0 0 1-3-1.21 8.21 8.21 0 0 1-2.35-2.73 101.63 101.63 0 0 1-5.61-24.79 129.22 129.22 0 0 1 0-23.42 166.11 166.11 0 0 1 3.71-22.82q2.65-11.29 5.69-23.12a37.67 37.67 0 0 0-5.53 5.46 45.12 45.12 0 0 0-4.47 6.52q-1.67 3-3.18 5.91T354 265a9.28 9.28 0 0 0-.91 1.67 4.6 4.6 0 0 1-.45-1.67 7.57 7.57 0 0 1 0-3q.3-1.37.76-3 1.36-3.18 3.56-7.73a65.12 65.12 0 0 1 5.08-8.72 35.72 35.72 0 0 1 6.29-7 10.85 10.85 0 0 1 7-2.88 4.88 4.88 0 0 1 3 1.14 4.51 4.51 0 0 1 1.36 2.43 12.42 12.42 0 0 1 .23 3.11 21.34 21.34 0 0 1-.38 3.18q-2.12 11.22-4 21.07t-3 19.25a166.21 166.21 0 0 0-1.21 18.65 111.17 111.17 0 0 0 1.59 19.25 26.38 26.38 0 0 0 .76 4.4c.61.2 1 .1 1.06-.3a1.92 1.92 0 0 1 .46-.91q1.8-5.94 3.8-11.53t3.63-11.41q1.36-4.55 3.26-10.23t4.11-11.41q2.2-5.76 4.7-10.92a49.75 49.75 0 0 1 4.93-8.34 3.19 3.19 0 0 1 1.82-1.14 3.69 3.69 0 0 1 2 .08 2.58 2.58 0 0 1 1.55 1.36 8.21 8.21 0 0 1 .53 2.12v.83a1.92 1.92 0 0 1-.15.83q-.31 5.61-.3 10.61t.15 9.85l.3 9.7q.15 4.85.3 10a114.22 114.22 0 0 0 3.18 19.4q1.06 3.79 2.12 3a9.06 9.06 0 0 0 2.27-3.74l4.25-10.31a98.77 98.77 0 0 0 3.64-10.46q2.42-9.4 4.55-18.65a130.14 130.14 0 0 0 2.88-18.8q.6-7 .91-12.36t.3-10.38q0-5-.46-10.38T428 219.33a4.89 4.89 0 0 1 .3-1.21 1.12 1.12 0 0 1 1.14 0 8.33 8.33 0 0 1 .68.61 20.24 20.24 0 0 1 1.82 3.18l1.52 3.33a137 137 0 0 1 2.73 28.35 170.64 170.64 0 0 1-2.35 26.83 192.14 192.14 0 0 1-5.84 24.41 202 202 0 0 1-7.66 20.92 15 15 0 0 1-2 3.87 29.27 29.27 0 0 1-2.8 3.26c-.51.5-1 1-1.44 1.37a5 5 0 0 1-1.44.91 11.17 11.17 0 0 1-5.76 1.52 7 7 0 0 1-5.31-2.27 29.24 29.24 0 0 1-4.85-9.63 65.39 65.39 0 0 1-2.35-11.52 87.74 87.74 0 0 1-.53-12.13q.15-6.14.61-11.29a5.49 5.49 0 0 0-1.14 2.27q-.68 2-1.36 4.4t-1.29 4.7q-.63 2.26-.93 3.17zm55 8.62a5.43 5.43 0 0 0 .68 3.79 5.63 5.63 0 0 0 2.65 2.2 7.85 7.85 0 0 0 3.64.53 10.63 10.63 0 0 0 3.64-.91 19.29 19.29 0 0 0 7.43-5.38q3-3.56 5.61-7l2.28-2.42a1.25 1.25 0 0 1 1.36-.15c.4.1.61.56.61 1.37a1.07 1.07 0 0 1-.08.45 1 1 0 0 0-.08.46 40 40 0 0 1-5.46 9.63 31.48 31.48 0 0 1-8.49 7.5 19.29 19.29 0 0 1-5.23 2.27 17.8 17.8 0 0 1-5.61.61 16.33 16.33 0 0 1-5.38-1.21 12 12 0 0 1-4.55-3.34 17.47 17.47 0 0 1-3.49-7 19.85 19.85 0 0 1-.38-7.5 24 24 0 0 1 6.75-13.42 14.15 14.15 0 0 1 5.15-3.33 24.19 24.19 0 0 1 6.06-1.36 9.52 9.52 0 0 1 5.46 1.21 11 11 0 0 1 3.64 3.49 12.66 12.66 0 0 1 1.82 4.55 8.44 8.44 0 0 1-.15 4.24 18.8 18.8 0 0 1-3.11 6.29 12.46 12.46 0 0 1-4.25 3.49 13.2 13.2 0 0 1-5.08 1.29 24.69 24.69 0 0 1-5.44-.35zm1.21-7.12a24.26 24.26 0 0 0 5.38-1.59 8.11 8.11 0 0 0 3.56-3.11 6.63 6.63 0 0 0 1.1-2.58 4.12 4.12 0 0 0-.46-2.88 3.39 3.39 0 0 0-2.28.15 6.43 6.43 0 0 0-1.67 1.21 19.73 19.73 0 0 0-5.58 8.81z" fill="#fff"/><path d="M478 293.46q1.06-1.51 2-3.11a24.66 24.66 0 0 1 2-3 12.51 12.51 0 0 1 2.8-2.58 18.39 18.39 0 0 1 4.25-2 9.13 9.13 0 0 1 6.82.83 9.24 9.24 0 0 1 4.4 5.08 26.33 26.33 0 0 1 1 8.64 38.57 38.57 0 0 1-1.44 8.64 40 40 0 0 1-3.26 8 39.32 39.32 0 0 1-4.62 6.82 13.87 13.87 0 0 1-7.12 4.17q-3.64.68-5.76 1c-.2.5-.38 1-.53 1.37a13.15 13.15 0 0 1-.53 1.21 6.53 6.53 0 0 1-1.06 2 2.67 2.67 0 0 1-2 .76 7.47 7.47 0 0 1-2.5-.46 9.5 9.5 0 0 1-2.27-1.14 3.87 3.87 0 0 1-1.29-1.29q-.91-10.15-1.36-20.09a177.83 177.83 0 0 1 .23-20.09 147.58 147.58 0 0 1 3-20.84 155.25 155.25 0 0 1 6.67-22.38 19.48 19.48 0 0 0 1.36-2.35 20.35 20.35 0 0 1 2-3.18 8.47 8.47 0 0 1 2.5-2.2 2 2 0 0 1 2.58.46q-2.13 7.73-3.71 14.33t-2.5 13.11q-.91 6.52-1.36 13.42t-.3 14.85zm.91 23.5a6.6 6.6 0 0 0 5.23-2.65 24.69 24.69 0 0 0 3.71-6.29 40 40 0 0 0 2.27-7.35 47.48 47.48 0 0 0 .91-6 5.57 5.57 0 0 0 0-1.82q-.15-.91-.3-2a1.6 1.6 0 0 0-1.06-1 1.83 1.83 0 0 0-1.52.23 8.48 8.48 0 0 0-1.59 1.36q-.68.76-1.44 1.67a42.5 42.5 0 0 0-3.87 6.75 27.19 27.19 0 0 0-1.82 5.69 28.38 28.38 0 0 0-.53 5.46z" fill="#fff"/></svg>