<svg xmlns="http://www.w3.org/2000/svg" viewBox="0 0 190.31 213.27"><defs><clipPath id="a" transform="translate(0 -6.73)"><path d="M52.52 85A9.27 9.27 0 0 1 58 83.42a8 8 0 0 1 6.84 5.78s0 3.7-.82 5.4a44.66 44.66 0 0 0-2.88 4.4l-1.94 3.69s-.45 1.78-1.21 1.66l-5.46-.81s-1-.13-.78-1.6a31 31 0 0 0-1-5.14s-1.45-4.8-1.24-6.19c0 0-.48-2.74 3-5.58z" fill="none"/></clipPath></defs><g fill-rule="evenodd"><path d="M156.43 213.27H0v-84.72a9.85 9.85 0 0 1 5.81 8.72 9 9 0 0 1-.59 3.19 19.83 19.83 0 0 1 4.54 1.42 8.3 8.3 0 0 1 6.73-3.47 8.2 8.2 0 0 1 3.51.86 8.44 8.44 0 0 1 8.35-8 8.24 8.24 0 0 1 5.32 1.94 8.32 8.32 0 0 1 7-3.81 8.21 8.21 0 0 1 3.22.65l82.06-51.45c17.19-5.78 20.18-2.63 9.08 13.13l-45 63.83a8.78 8.78 0 0 1 .11 1.39 8.51 8.51 0 0 1-6.31 8.27 8.67 8.67 0 0 1 .39 2.57 8.57 8.57 0 0 1-3.22 6.67 12.08 12.08 0 0 1 .47 3.37 11.29 11.29 0 0 1-3 7.85 8.55 8.55 0 0 1 4.53 7.59 8.7 8.7 0 0 1-.31 2.3A14.89 14.89 0 0 1 95.2 204a14.29 14.29 0 0 1 12.08 1.75c1.16-4.87 4.67-8.42 8.84-8.42 4.35 0 8 3.87 9 9.08a13.32 13.32 0 0 1 16.26 2.86 13.32 13.32 0 0 1 15 4z" fill="#e7e8e9"/><path d="M138.4 85.91c-2.09 1.78-84.75 100.8-84.75 100.8l-8.54-12.26 90.53-91.35zm-9.91-8.68l3.78 2.44-97.96 83.94-14.29-6.04 108.47-80.34z" fill="#eff1f2"/><path d="M0 178.76v-16.79a10.66 10.66 0 0 1 1.71-.14 10.81 10.81 0 0 1 2 .2 6.38 6.38 0 0 1 5.19-2.86 5.84 5.84 0 0 1 2.24.45 6.78 6.78 0 0 1-.58-2.76 7.31 7.31 0 0 1 7.5-7.11 7.35 7.35 0 0 1 7.51 6.52 11 11 0 0 1 3.86-.69 11.12 11.12 0 0 1 3.15.45v-.45a6.1 6.1 0 1 1 12.2 0 6.35 6.35 0 0 1-.15 1.37h.15a9.93 9.93 0 0 1 10 9.82v.18H55c3.42 0 6.19 3.58 6.19 8a8.49 8.49 0 0 1-3.38 7.13 8.24 8.24 0 0 1-.39 3.75 8.8 8.8 0 1 1-5.27 16.35 9 9 0 0 1-16.18-5.54v-.36c-5.36 0-9.7-3.9-9.7-8.71a7.87 7.87 0 0 1 .22-1.85 7.39 7.39 0 0 1-5-7 7.18 7.18 0 0 1 .53-2.71 8.51 8.51 0 0 1-10.78-1.73 5.87 5.87 0 0 1-1.2.35 9.86 9.86 0 0 1-8.24 4.18 10.88 10.88 0 0 1-1.8-.05z" fill="#d0d2d3"/><path d="M86.38 213.27H0v-44.51a13.29 13.29 0 0 1 2.55.25 14 14 0 0 1 9.45-3.45c6.06 0 11.13 3.51 12.39 8.2a10 10 0 0 1 9.32 8.21 15.56 15.56 0 0 1 3.6-.42c6.74 0 12.2 4.22 12.2 9.42a7.39 7.39 0 0 1-.27 2h.62a9.7 9.7 0 0 1 5.73 1.92 12.32 12.32 0 0 1 8.91-3.69c6.55 0 11.85 4.85 11.85 10.84a10 10 0 0 1-.45 3 13.83 13.83 0 0 1 10.48 8.23z" fill="#e7e8e9"/><path d="M59.23 213.27H0v-9h.67a10.77 10.77 0 0 1 2 .2 6.38 6.38 0 0 1 5.19-2.86 5.84 5.84 0 0 1 2.24.45 6.77 6.77 0 0 1-.54-2.79 7.31 7.31 0 0 1 7.5-7.11 7.35 7.35 0 0 1 7.47 6.55 11 11 0 0 1 3.86-.68 11.14 11.14 0 0 1 3.15.45v-.45a6.1 6.1 0 1 1 12.2 0 6.35 6.35 0 0 1-.15 1.37h.15a9.93 9.93 0 0 1 10 9.82v.18h.17a6.08 6.08 0 0 1 5.32 3.87z" fill="#d0d2d3"/></g><path d="M102.54 213.27a9.66 9.66 0 0 0-2.17-11.06l-.26-.23a7.36 7.36 0 0 0-1.47-8.71 7.28 7.28 0 0 0-5.64-1.88 8.08 8.08 0 0 0-.56-1.91c1.86-2.55 1.68-6.25-.3-9.38l.18-.19c2.66-2.83 2-7.73-1.49-10.93a9.33 9.33 0 0 0-7.1-2.58 8.56 8.56 0 0 0-2.48-4.56l-48.17 51.34.1.09zM64.9 151.76a7 7 0 0 0-8.27-5.27 8.59 8.59 0 0 0-.14-.86 7.74 7.74 0 0 0-6.51-6.21 9.3 9.3 0 0 0-.19-2.75c-.91-4.16-4.39-6.95-7.77-6.22a5.18 5.18 0 0 0-2 .87 8.38 8.38 0 0 0-9.48-5.57 7.76 7.76 0 0 0-4.27 2.52 7.08 7.08 0 0 0-8.11-4 7.13 7.13 0 0 0-5.57 5.5 6.32 6.32 0 0 0-1.26-.55 10.16 10.16 0 0 0-.16-3.44A9.83 9.83 0 0 0 0 118.03v53.69l62.91-13.52a6.84 6.84 0 0 0 1.99-6.44z" fill="#e7e6e6" fill-rule="evenodd"/><path d="M145 29.44a22.38 22.38 0 0 1 2.93-2.17l7.29 8.18 9.12 5.2-1 2-8.81-4.29z" fill="#f3f9fe" fill-rule="evenodd"/><g fill-rule="evenodd"><path d="M142.5 87.27a22.47 22.47 0 0 1-1 20 23.24 23.24 0 0 0 7.12-4.25c7.88-6.86 10.19-17.81 6.25-26.51z" fill="#ee7624"/><path d="M131.61 83.54l3.73 4.39c-1.53 4-7 12.48-26.69 15.88 6.11-19.35 15.13-23.7 19.24-24.67z" fill="#f7a81f"/><path d="M114.44 98.7a48.05 48.05 0 0 1 8.86-13.37 22.57 22.57 0 0 1 6-4.47l4.55 5.36a22.77 22.77 0 0 1-5.21 5.46 46.68 46.68 0 0 1-14.2 7.02z" fill="#f08224"/><path fill="#43525b" d="M132.78 74.65l-6.83 3.87 5.03 5.93 5.04 5.94 4.74-6.35-7.98-9.39z"/><path fill="#595a5c" d="M143.19 83.8l-9.82-11.57-4.99 4.4 9.82 11.57 4.99-4.4z"/><path d="M129.2 71.61a21.29 21.29 0 0 0-19.55-1.86 23.74 23.74 0 0 1 5.14-6.57c7.79-7 18.75-7.73 26.62-2.51z" fill="#ee7624"/><path d="M140.91 88.68a77.44 77.44 0 0 0 25.33-15 80.25 80.25 0 0 0 17.56-21.3l-5.39-10.51-9.55-6.9a82.65 82.65 0 0 0-41.25 38z" fill="#e7e8e9"/><path d="M183.79 52.41c4-7.25 6.28-14.52 6.52-21-6.39-.7-13.81.55-21.45 3.6a131.28 131.28 0 0 1 14.93 17.4z" fill="#f08224"/><path d="M125.58 88.51c2.5-1.26 6.82-4.41 11.44-8.46s8.51-8.12 10.06-10.45l-.18.09.11-.17c-2.48 1.23-6.88 4.47-11.58 8.65a67.24 67.24 0 0 0-9.85 10.34z" fill="#ee7624"/><path d="M141.58 107.14A22.53 22.53 0 0 0 142.81 88a68.73 68.73 0 0 0 7-3.1 27.74 27.74 0 0 1-8.23 22.24zm-13.04-35.95a21.33 21.33 0 0 0-18.75-1.5 26.49 26.49 0 0 1 22.75-5.09 71.1 71.1 0 0 0-4 6.59z" fill="#c3601c"/><path d="M132.06 84.15l1.62-1.29 4.23 5-1.91 2.52-1.34-1.58-3.42-4zm5.85 3.7l-4.23-5 1.32-1.09 4 4.66.53.62-1.31 1.16z" fill="#1c1937"/><path fill="#384349" d="M130.64 84.05l.34.4 5.04 5.94 4.74-6.35-4.33-5.1-5.79 5.11z"/><path fill="#4f4f4f" d="M143.19 83.8l-5.25-6.19-4.99 4.4 5.25 6.19 4.99-4.4z"/><path d="M140.91 88.68a77.44 77.44 0 0 0 25.33-15 80.25 80.25 0 0 0 17.56-21.3l-5.39-10.51-44.15 39z" fill="#dcddde"/><path d="M183.79 52.41c4-7.25 6.28-14.52 6.52-21l-13.59 12q3.71 4.28 7.07 9z" fill="#e97b1f"/><path d="M125.58 88.51c2.5-1.26 6.82-4.41 11.44-8.46s8.51-8.12 10.06-10.45l-.18.09z" fill="#ee7624"/></g><path d="M135.21 26.27c-.34.32-1.09 0-3.31.53s-2.79.76-3 1.13 3.66 19.35 4.5 26.53l11.62-3c-1-5.85 3.52-23.84 2.92-24.16-.84-.41-4.5-.58-5.56-.73a67.53 67.53 0 0 0-7.17-.3z" fill="#e6f3fc" fill-rule="evenodd"/><path d="M135.55 20.27a6.42 6.42 0 0 1 .52 3.81 3.27 3.27 0 0 1-1.51 2.5 9 9 0 0 0 5.53 3.18c3.29.3 3.07-1.8 3.07-1.8a5.22 5.22 0 0 0-.89-1.12 4.46 4.46 0 0 1-1.5-1.5 12 12 0 0 1-1.59-4.78z" fill="#facab9" fill-rule="evenodd"/><path d="M130.22 19.39c0 .07.12.85 2 2.66s3.68 1.43 3.63 1.33-1.24-4.63-1.24-4.63z" fill="#a25742" fill-rule="evenodd"/><path d="M140.17 5.8a13.19 13.19 0 0 1 3 4c.22.74.14 2.14.69 2.85 2.75 3.56 4.46 8.12 0 10.24-1.83.87-7.59 2.54-9.35.92a19.26 19.26 0 0 1-2.62-3.13 3.68 3.68 0 0 1-2.73-.57c-1.09-.89-2-2.83-1.39-3.56s1.19-.63 1.19-.63-2.41-4-2.06-5.66 1.62-3.23 5.84-5.16 6.7-.28 7.43.7z" fill="#facab9" fill-rule="evenodd"/><path d="M139.83 19.96c-.06 0-.52-.2-.52-.2s-.23.52.87 1.75 1.75-.36 2.81-.75 1.86.45 2-1.19-.24-1.76-.19-1.77a13.69 13.69 0 0 1-2.72 1.57 8 8 0 0 1-2.25.59z" fill="#facab9" fill-rule="evenodd"/><path d="M140.17 5.8a7.07 7.07 0 0 1 1.09 1.11 4.41 4.41 0 0 1-2.78 1.25c-7.84.62-7.76.55-9 2.74 0 0-1.65 2-1.56 2.53a9.78 9.78 0 0 1-.54-4.53c.74-1.19 2.24-2.39 5.29-3.78 4.27-1.92 6.77-.3 7.5.68z" fill="#f3b9ad" fill-rule="evenodd"/><path d="M132.13 14.03c-.24-1-2.42-2.13-2.6-3.22a2.4 2.4 0 0 1 1.69-2.62c1.83-.61 7.56.5 10-1.84a3.89 3.89 0 0 0-.69-6.36 6.1 6.1 0 0 1-3.79 2.55 1.19 1.19 0 0 0 .33-1.15c-.46.94-7.45 1.67-9.37 3.59a6.15 6.15 0 0 0-1.7 4.48s-.8 2.24-1 3.33 2.56 4.23 2.56 4.23a1.57 1.57 0 0 1 1-.93c1.66-.44 2.94-.23 3.85 1.1.68 1 1 1.28 1.22 1.18.6-.28-1.22-3.19-1.5-4.34z" fill="#a25742" fill-rule="evenodd"/><path d="M137.11 1.39c-.46.94-7.45 1.67-9.37 3.59A6.15 6.15 0 0 0 126 9.46s-.8 2.24-1 3.33 2.56 4.23 2.56 4.23a1.58 1.58 0 0 1 .85-.86c-.77-.47-3.23-1.1-3-3.17a9.39 9.39 0 0 1 1.23-3.72 3.79 3.79 0 0 1 .55-2.15 6 6 0 0 1 4.26-3.35 16.33 16.33 0 0 0 5.18-1.78c.48-.4.48-.58.48-.6z" fill="#bd6c59" fill-rule="evenodd"/><path d="M134 13.17c-.74.46.08 1 .18 1 1.86-.68 3.05-1.29 4.15-1.26.74 0 1-.94-.12-1a10.62 10.62 0 0 0-4.21 1.26zm6.7-2.25c-.4.51.07.89.39.72a7.2 7.2 0 0 1 2-1c.14 0 0-.65-.48-.72a3.54 3.54 0 0 0-1.91 1z" fill="#9b563d" fill-rule="evenodd"/><ellipse cx="137.46" cy="21.25" rx=".71" ry=".78" transform="rotate(-13.63 109.297 17.9)" fill="#363638"/><ellipse cx="142.66" cy="19.64" rx=".71" ry=".78" transform="rotate(-13.63 114.54 16.277)" fill="#363638"/><ellipse cx="137.76" cy="20.93" rx=".26" ry=".29" transform="rotate(-13.62 109.633 17.551)" fill="#fff"/><ellipse cx="142.94" cy="19.34" rx=".26" ry=".29" transform="rotate(-13.62 114.744 15.996)" fill="#fff"/><path d="M140.29 13.46c.44-.39.71.9 1.78 1.42s2.15.17 1.57 1.1c-1.81 2.87-4.76-.8-3.35-2.52z" fill="#edaea5" fill-rule="evenodd"/><path d="M144.26 17.87c.31.85-.38 1.89-1.55 2.35a2.09 2.09 0 0 1-2.74-.69 9.54 9.54 0 0 0 4.29-1.65z" fill="#7f2226" fill-rule="evenodd"/><path d="M140.51 19.45a9.9 9.9 0 0 0 3.35-1.3c0 .09 0 0 .09.25s-.47.88-1.43 1.25-1.82.25-1.91 0-.07-.11-.1-.2z" fill="#fff" fill-rule="evenodd"/><path d="M128.59 17.36c-.56 1.23 1.44 3 3 2.38.54-.22.22-1.14-.05-1.25s-.51 0-.53-.31.36-.49.27-.82-.66-.48-.92-.62a1.2 1.2 0 0 0-1.77.62z" fill="#edaea5" fill-rule="evenodd"/><path d="M129.53 10.81a2.93 2.93 0 0 1 1.92-2.47c2.69-.7 8.17.76 10.39-2.67a3.84 3.84 0 0 0-1.27-5.68s.51 2.54-.92 3.66c-.35.27-.64.49-.89.66a3.62 3.62 0 0 1-1.15.65 4.52 4.52 0 0 1 .48-.77 4.46 4.46 0 0 0 .28-.43s-.17.15-.5.4A5.77 5.77 0 0 1 135 5.44c-1.92.19-4.23.77-5.48 2.4s.1 3.52.01 2.97z" fill="#9b563d" fill-rule="evenodd"/><path d="M156.63 49.59c.34.12 1.87 20 3.19 21 .23.17-1.24 4-2.21 3.78-4.05-.95-4.4-19-4.51-19-4-.52-14.25 4.77-17.52 2.41-1.34-1-2.56-3.35-1.81-5.06 1.84-4.15 19.75-4.2 22.86-3.13z" fill="#404042" fill-rule="evenodd"/><path d="M143.46 46.34l1.3 2.86s-5.49.71-6.94 2.17-2.46 4.13-3.74 4-1.19-2.76-1.22-3.85 4.26-3.85 6.08-4.53a14.77 14.77 0 0 1 4.52-.65z" fill="#e6f3fc" fill-rule="evenodd"/><path d="M138.2 28.42h2.65s1.07 2 1 2-3.55-.65-3.55-.65z" fill="#bbbdbf" fill-rule="evenodd"/><path fill="#fff" fill-rule="evenodd" d="M143.88 27.7l.98 1.5-1.77-.73.13-.54.66-.23z"/><path fill="#bbbdbf" fill-rule="evenodd" d="M143.88 27.7l-.69 1.66-1.71-2.93-.38-.61.57-.2 2.21 2.08z"/><path d="M143.74 28.03a30.94 30.94 0 0 0-3.79.37 21.45 21.45 0 0 0 1 2.12 6.8 6.8 0 0 0 1.84 0c.04-.08.95-2.49.95-2.49z" fill="#404042" fill-rule="evenodd"/><path d="M140.84 28.39c-.18.25-1.77 3.25-1.79 3.16s-5.42-4.91-5.42-4.91l1.25-1.37z" fill="#fff" fill-rule="evenodd"/><path d="M142.33 29.09L141 30.52s.05.41-1.58 6.25-9.56 11.86-9.56 11.86l-1 4.05 5-1.16s4.52-5.07 6.27-9.37 3.18-11.5 2.76-11.6z" fill="#404042" fill-rule="evenodd"/><path d="M156.25 44.69c0-.55 1.65-.55 1.65-.55s2.76-1.64 2.76-1.09-1.54 1.38-1.54 1.38 2.43.15 3 .26c.4.07 1.08.23.82.5s-.78.12-.78.12-2.56-.1-2.51-.05 3.32 1.26 3.22 1.56-3.48-.73-3.48-.73 1.92 1.27 1.8 1.56-2.2-1.06-2.2-1.06.91 1.68.66 1.93-1.23-1.77-1.29-1.77-.76-.21-1.47-.44-.74-1.63-.74-1.63z" fill="#facab9" fill-rule="evenodd"/><path d="M129.15 27.61c-1.16.47-2.79 3.86-1.35 5.06s11.19 7.66 13 8 15.63 5.22 15.63 5.22l1.08-1.75-16.07-6.42c-1.44-1.4-11.13-10.59-12.29-10.11z" fill="#f3f9fe" fill-rule="evenodd"/><path d="M159.82 70.57a22.05 22.05 0 0 0 3.95-.39c2.43-.43 4.11-1.69 4.26-1.29.31.8-4.63 7.29-6.26 6v1.12l-2.58 1.41-2.47-4.09.85-1.86z" fill="#404042" fill-rule="evenodd"/><path d="M104.34 172.08c3.92 1.91 5.76 6.17 4.1 9.52a6.57 6.57 0 0 1-5.34 3.49l-.24 3-1.56-3a9.05 9.05 0 0 1-3-.86c-3.93-1.91-5.76-6.17-4.1-9.53s6.19-4.53 10.11-2.62z" fill="#2eabe2"/><path d="M99.82 166.92c-3.93-1.91-8.45-.73-10.11 2.62a6.46 6.46 0 0 0 .49 6.32l-2.24 2 3.35-.61a9 9 0 0 0 2.51 1.8c3.92 1.91 8.45.73 10.11-2.62s-.17-7.62-4.1-9.53z" fill="#f9b042"/><path d="M93.17 172.55a1.08 1.08 0 0 0 1.44-.49 1.06 1.06 0 0 0-.49-1.42 1.08 1.08 0 0 0-1.44.49 1.06 1.06 0 0 0 .49 1.42zm3.11 1.51a1.08 1.08 0 0 0 1.44-.49 1.06 1.06 0 0 0-.49-1.42 1.08 1.08 0 0 0-1.44.49 1.06 1.06 0 0 0 .49 1.42zm3.1 1.51a1.08 1.08 0 0 0 1.44-.49 1.06 1.06 0 0 0-.49-1.42 1.08 1.08 0 0 0-1.44.49 1.06 1.06 0 0 0 .49 1.42z" fill="#fff"/><path fill="#d89627" d="M20.34 119.82l-10.77-3.96 7.19-8.88 10.77 3.96-7.19 8.88z"/><path fill="#d5d4d3" d="M28 122.11l-13.05 3.57-4.4-15.79 13.05-3.57 4.4 15.79z"/><path fill="#aa9666" d="M22.82 111.21l-9.05 2.47-.21-.74 9.05-2.48.21.75zm.39 1.38l-9.05 2.48-.21-.74 9.05-2.48.21.74zm.38 1.39l-9.05 2.47-.21-.74 9.05-2.48.21.75zm.38 1.4l-9.05 2.47-.21-.74 9.06-2.48.2.75zm.39 1.39l-9.05 2.48-.21-.75 9.05-2.47.21.74z"/><path fill="#ffdd94" d="M24.76 118.15l-9.06 2.47-.2-.74 9.05-2.48.21.75z"/><path fill="#f8ac21" d="M20.34 119.82l-10.77-3.96 2.93 10.5 17.96-4.92-2.93-10.5-7.19 8.88z"/><path fill="#fdcc68" d="M18.38 119.1l-5.88 7.26 17.96-4.92-8.81-3.24-3.27.9z"/><path fill="#e84339" d="M124.99 150.88l-20.87 2.43-.12-.97 20.87-2.43.12.97z"/><path fill="#8fc045" d="M108.66 151.81l-4.67.54-.98-8.29 4.67-.54.98 8.29z"/><path fill="#f8ac21" d="M114.08 151.16l-4.67.54-1.49-12.57 4.67-.54 1.49 12.57z"/><path fill="#ec665a" d="M119.47 150.56l-4.67.54-1.99-16.83 4.67-.54 1.99 16.83z"/><path fill="#5b96ca" d="M124.87 149.91l-4.67.55-2.24-18.9 4.67-.54 2.24 18.89z"/><path d="M62 159.58v-.09a16.84 16.84 0 0 0-19.57-13.34l-.53.11a16.68 16.68 0 0 0 6 32.81l.54-.09A16.69 16.69 0 0 0 62 159.58z" fill="#4e87b9"/><path d="M62.66 157.62C57 138.05 27 142.73 27.54 163.05c.7 25.94 42.35 19.38 35.12-5.43zm-17.47 9.65c-.2-.05-.31-.3-.52-.37s-.31 0-.43-.11a1.51 1.51 0 0 1-.09-.37c-.23-.08-.48-.5-.75-.56s-.42 0-.63 0a1.77 1.77 0 0 0-.28 0 1.54 1.54 0 0 1-.35 0c-.41-.12-.72-.68-1.18-.58-.2 0-.35.26-.53.29a2.16 2.16 0 0 1-.75-.12c-.25-.07-.52-.08-.73-.14s-.3-.17-.45-.21-.27 0-.36 0a3.3 3.3 0 0 1-.45-.21c-.16-.07-.34-.19-.37-.32s.09-.3.08-.44c0-.46-.42-.72-.68-.94s-.4-.3-.59-.46a1.28 1.28 0 0 0 0-.26 3.59 3.59 0 0 1-.43-.39c-.14-.13-.39-.25-.45-.42s0-.41-.11-.6-.65-.08-.5.36c0 .12.25.25.32.37s.1.27.17.41.24.24.32.39.18.52.28.66.36.22.25.42-.28-.09-.41-.18-.32-.12-.38-.24 0-.27 0-.4-.66-.16-.71-.44.19-.23.16-.4-.31-.29-.39-.43a2.71 2.71 0 0 1-.18-.55 3.45 3.45 0 0 0-.14-.54.9.9 0 0 0-.43-.31c-.18-.06-.31 0-.41-.12a1.53 1.53 0 0 1-.22-.46c-.07-.22-.09-.47-.15-.71a3.73 3.73 0 0 1-.14-.73c.06-.2.21-.32.28-.52s0-.29.08-.44a6 6 0 0 1 .51-.83 3.23 3.23 0 0 0 .4-.9 1.13 1.13 0 0 0 .06-.49c-.06-.18-.43-.26-.44-.48s.18-.17.21-.31a1.19 1.19 0 0 0 0-.35 3 3 0 0 1-.16-.55c0-.17.24-.28.08-.44s-.33.16-.5.07 0-.24 0-.44-.08-.16-.08-.22.13-.26.08-.3-.19-.24-.32-.35a16.91 16.91 0 0 1 6.8-4.69c0 .05.09.12.17.12s.33-.05.51-.09a2.74 2.74 0 0 1 .52-.15c.35 0 .9.24 1.13 0 .06-.06 0-.13.07-.27a3.39 3.39 0 0 0 .11-.35l.41-.08c.36-.07.73-.12 1.1-.16h.32l.7-.05h1.3a.11.11 0 0 1 0 .07c-.06.05-.17.05-.25.11s-.13.19-.25.24a5 5 0 0 1-.94.09.18.18 0 0 0 .08.12l.11.05h.08a1.06 1.06 0 0 0 .41 0h.22l.25-.05c.19 0 .42 0 .57-.16s.06-.25.13-.35a.85.85 0 0 1 .14-.14h.58c0 .07-.06.1-.11.14a.15.15 0 0 0-.08.17c.15.05.43-.12.52-.27h.14l.84.12c.4.07.79.14 1.19.24a.58.58 0 0 1-.19.13h-.08c-.11 0-.21-.14-.34-.05a.25.25 0 0 0 .05.13 1 1 0 0 0 .37.18.79.79 0 0 1 .45.31c0 .13-.1.17-.18.17h-.08a1.14 1.14 0 0 0-.38-.07c-.13 0-.28.18-.42.28a.44.44 0 0 1-.22.09.28.28 0 0 1-.23-.13c0-.23.26-.3.27-.53l-.14.07a2.41 2.41 0 0 0-.25.18 1.76 1.76 0 0 1-.36.23l-.31.1h-.06a1 1 0 0 0-.21.15 2.85 2.85 0 0 1-.36.29c-.08 0-.2.06-.29.11a3.38 3.38 0 0 0-.41.27l-.27.2-.09.07a3.56 3.56 0 0 0-.51.44 1 1 0 0 0-.31.38c0 .06.08.08.15.11s.12.05.13.11a.43.43 0 0 1 0 .08v.24h.08a1 1 0 0 0 .21 0h.12a.65.65 0 0 1 .2 0c.2.05.38.18.57.24l.25.07a1.57 1.57 0 0 0 .39 0h.19c.19 0 .35-.09.41.06a.17.17 0 0 1 0 .13c0 .12-.2.21-.2.31v.06c.08.13-.09.25-.06.39a.44.44 0 0 0 .26.26h.1a.69.69 0 0 0 .44-.46 1.26 1.26 0 0 0 0-.33 1.72 1.72 0 0 1 0-.24.5.5 0 0 1 .07-.16 1.86 1.86 0 0 0 1-.49 1.09 1.09 0 0 0 .25-1.07 1.2 1.2 0 0 1-.09-.29.5.5 0 0 1 .09-.21.32.32 0 0 0 .08-.29.25.25 0 0 0 .07-.06.48.48 0 0 0 .1-.16c0-.14.08-.3.21-.37h.25a2.66 2.66 0 0 0 .4 0h.12a1 1 0 0 0 .19-.09h.11a.26.26 0 0 1 .14 0c.13.06.25.19.36.25s.27 0 .32.13a.3.3 0 0 1 0 .13.79.79 0 0 1-.05.13.24.24 0 0 0 0 .18.34.34 0 0 0 .12.17.45.45 0 0 0 .21.1h.12a.88.88 0 0 0 .23-.11l.1-.07a1 1 0 0 0 .21-.22l.14-.18.63.33a1.73 1.73 0 0 1 .08.2 4.29 4.29 0 0 1 .08.55c.08.31.48.21.71.34a.25.25 0 0 1 .08.09l.1.13c.09.08.18.09.24.15a.26.26 0 0 1 0 .07c.09.32-.23.41-.13.76 0 .09-.1.14-.14.2a.17.17 0 0 0 0 .15c.06.23.32.09.5.13a.19.19 0 0 1 .12.07c.09.11 0 .22 0 .4a.38.38 0 0 1 .14.29.2.2 0 0 1-.18.18c-.12 0-.19-.07-.28-.11h-.93a.63.63 0 0 1-.47 0 6.65 6.65 0 0 1 .66-1c.05-.07.17-.13.19-.22a.16.16 0 0 0 0-.1.21.21 0 0 0-.19 0 1 1 0 0 0-.31.2 1.64 1.64 0 0 1-.49.34c-.23.08-.53.06-.77.14a.52.52 0 0 0-.2.12c0 .15.31 0 .3.25h-.09a.32.32 0 0 1-.26 0c0-.06 0-.16-.1-.18a1.2 1.2 0 0 0-.64 0h-.08a.51.51 0 0 0-.16.17.31.31 0 0 0 0 .16c.16 0 .36-.06.52-.07a.21.21 0 0 1 .23.11.63.63 0 0 1-.06.12c-.06.11-.15.21-.2.32a.42.42 0 0 0 0 .29.19.19 0 0 0 0 .07.56.56 0 0 0 .13.12.27.27 0 0 0 .14.05c.08 0 .13-.06.18-.1h.07a.12.12 0 0 1 .09 0 .12.12 0 0 0 .14 0c.17-.11.22-.38.43-.41.31.25-.14.49-.39.63a4.56 4.56 0 0 1-.47.22 3.12 3.12 0 0 0-.41.2c-.1.07-.4.47-.56.35a.17.17 0 0 1-.06-.09c-.09-.24.19-.21.22-.42a.65.65 0 0 0-.22 0 3 3 0 0 0-.57.34l-.26.14c-.34.17-.72.37-.74.72v.24a.09.09 0 0 1 0 .06.42.42 0 0 1-.18.08l-.24.09c-.17.1-.31.26-.41.31s-.21.06-.26.09-.16.3-.31.46a.88.88 0 0 1-.15.11l-.11.09a.33.33 0 0 0 0 .07 1.26 1.26 0 0 1-.09.28.2.2 0 0 1-.09.08h-.07a.6.6 0 0 0-.16 0h-.08a3.42 3.42 0 0 0 .1.4.87.87 0 0 1 0 .41 1.91 1.91 0 0 1-.25.25c-.13.12-.27.24-.42.36s-.28.16-.45.3-.22.28-.36.39a3.45 3.45 0 0 0-.4.38 1 1 0 0 0-.12.19 1.39 1.39 0 0 0-.06.21v.06a.94.94 0 0 0 0 .25c0 .11.11.23.15.36s0 .16 0 .24.25.41.11.58a2.33 2.33 0 0 1-.82-.18.87.87 0 0 1 0-.41.33.33 0 0 0 0-.11.64.64 0 0 0-.4-.34.35.35 0 0 0-.18.09h-.06c-.15 0-.31-.15-.49-.14s-.45.14-.76.16c-.26.2-.29.49-.65.52-.12 0-.25-.06-.4-.06a2.36 2.36 0 0 0-.56 0c-.32.08-.51.35-.76.54s-.54.39-.56.66.05.34 0 .48a2.57 2.57 0 0 1-.11.27 1.89 1.89 0 0 0 0 1.48 3.46 3.46 0 0 0 .44.58 1.07 1.07 0 0 0 .59.16 2.37 2.37 0 0 0 .42-.18 3.8 3.8 0 0 0 .48-.16c.38-.2.2-.73.58-1a2 2 0 0 1 .68-.24.41.41 0 0 1 .2.33c0 .1-.07.2-.09.35s0 .27 0 .37-.14.25-.17.38 0 .17 0 .25-.17.25-.07.36c.44.09.89-.21 1.26-.2.15 0 .49.12.53.35s-.08.31-.07.5 0 .54 0 .73a1.12 1.12 0 0 0 .82.7h.14c.27-.05.42-.28.68-.35h.29c.14 0 .31.19.46.19l.09-.06.07-.11.06-.13a1 1 0 0 0 0-.15.53.53 0 0 1 .18-.35l.14-.08a3 3 0 0 0 .46-.18 1.38 1.38 0 0 0 .29-.24c.06-.06.12-.18.21-.18a.11.11 0 0 1 .07 0 .1.1 0 0 1 .06.09c0 .08-.11.17-.08.26a.1.1 0 0 0 0 .05h.1c.2 0 .28-.34.44-.38a.72.72 0 0 1 .24.05l.49.24.1.05a.54.54 0 0 0 .31.14c.11 0 .26-.09.41-.09s.34.13.49.1.23-.24.37-.3a.87.87 0 0 1 .21-.06.52.52 0 0 1 .44.19c.17 0 .14-.22.3-.17a.16.16 0 0 0 0 .09c0 .11.09.17.17.27s.06.14.11.17.28 0 .43.1a2.41 2.41 0 0 1 .45.36 1.18 1.18 0 0 0 .74.27c.21 0 .37-.12.54-.13a1.84 1.84 0 0 1 1 .29 1.58 1.58 0 0 1 .33.19l.07.08c0 .09.06.23.12.33a.73.73 0 0 0 .2.19.5.5 0 0 1 .25.5.27.27 0 0 0 .11.08l.25.11.12.06.09.05a.31.31 0 0 0 .15.05.46.46 0 0 0 .15 0h.08a1.81 1.81 0 0 1 .58.07 2.3 2.3 0 0 1 .37 0l.06.09a.3.3 0 0 0 .15.14h1.04c.11 0 .19-.08.3-.09a1 1 0 0 1 .64.22 16.93 16.93 0 0 1-8.91 9.23c0-.08-.05-.16-.08-.24a1.54 1.54 0 0 1-.08-.24v-.22c0-.07 0-.33-.09-.5a1.44 1.44 0 0 0-.06-.21l-.08-.2-.11-.27a1.12 1.12 0 0 0-.15-.28 2.58 2.58 0 0 0-.81-.46c-.15 0-.31 0-.47-.09a4.91 4.91 0 0 1-.75-.27 1.12 1.12 0 0 1-.43-.31v-.09a.78.78 0 0 0-.09-.19 1 1 0 0 0-.19-.21c-.09-.08-.19-.16-.27-.25a7 7 0 0 1-.46-.55c-.14-.17-.27-.34-.41-.49l-.29-.32a1.65 1.65 0 0 0-.17-.16h-.09a1.42 1.42 0 0 1-.26-.12.2.2 0 0 1-.07-.07c0-.11-.15-.25-.2-.37a.46.46 0 0 1 0-.14c0-.16.24-.34.28-.49a.17.17 0 0 0 0-.06c0-.14-.23-.19-.29-.3a.55.55 0 0 1-.06-.37c0-.12.07-.23.11-.36a2.85 2.85 0 0 1 .06-.28.57.57 0 0 1 .15-.17.57.57 0 0 0 .11-.12c0-.07.05-.21.1-.31a.63.63 0 0 1 .1-.15c.11-.13.24-.23.26-.37a3.92 3.92 0 0 0-.1-.83 1.73 1.73 0 0 0-.08-.24c-.06-.13-.2-.22-.28-.34a3 3 0 0 0-.19-.32.22.22 0 0 0-.24-.09c-.15 0-.22.2-.29.32s0 .28-.09.35h-.29a.61.61 0 0 0-.28-.11h-.35z" fill="#99d5e6"/><path d="M58.54 98.58l-7.14-1.06a.5.5 0 0 0-.6.36v.29a.5.5 0 0 0 .47.52l7.14 1.06a.5.5 0 0 0 .6-.36v-.29a.5.5 0 0 0-.47-.52zm-.2 1.32l-7.14-1.06a.5.5 0 0 0-.6.36v.29a.5.5 0 0 0 .47.52l7.14 1.06a.5.5 0 0 0 .6-.36v-.29a.5.5 0 0 0-.47-.52zm-.2 1.37L51 100.16a.5.5 0 0 0-.6.36v.29a.5.5 0 0 0 .47.52l7.13 1.06a.5.5 0 0 0 .6-.36v-.29a.5.5 0 0 0-.46-.47zm-6.45.35l5.36.8c-.13.88-1.65 1.25-2.9 1.07s-2.59-1-2.46-1.86z" fill="#537280"/><path d="M52.52 78.27A9.27 9.27 0 0 1 58 76.69a8 8 0 0 1 6.84 5.78s0 3.7-.82 5.4a44.66 44.66 0 0 0-2.88 4.4l-1.94 3.69s-.45 1.78-1.21 1.66l-5.46-.81s-1-.13-.78-1.6a31 31 0 0 0-1-5.14s-1.45-4.8-1.24-6.19c0 0-.48-2.74 3-5.58z" fill="#f9b042"/><g clip-path="url(#a)"><path d="M52.72 96.4a15.88 15.88 0 0 0 1.19-2.06 28.34 28.34 0 0 0 1.43-3.24 8.69 8.69 0 0 0 .66-3 1.8 1.8 0 0 0-.26-1 1 1 0 0 0-1-.47c-.43.14-.54.7-.53 1.07a2.1 2.1 0 0 0 .6 1.45 2.56 2.56 0 0 0 1.49.52 2.05 2.05 0 0 0 1.54-.43 1.6 1.6 0 0 0 .49-1.51.83.83 0 0 0-.84-.72c-.43.06-.66.52-.72.89a2.65 2.65 0 0 0 .57 2 1.26 1.26 0 0 0 1.24.46 2 2 0 0 0 1.19-1.11c.17-.33.59-1.23.21-1.55s-.81.33-1 .52a5.55 5.55 0 0 0-.82 2 15.32 15.32 0 0 0-.44 2.39c-.19 1.65-.19 3.3-.39 5 0 .15.28-.12.29-.23.22-1.79.21-3.59.44-5.37a13.76 13.76 0 0 1 .64-2.77 2.27 2.27 0 0 1 .63-1.08c.26-.2.44 0 .45.24 0 .76-.56 1.81-1.43 1.72-.7-.08-1.1-.84-1.24-1.44a1.8 1.8 0 0 1 0-1.12c.09-.2.42-.09.55 0a1.1 1.1 0 0 1 .11 1.62 2.24 2.24 0 0 1-1.84.18 1.69 1.69 0 0 1-1.25-1 2.32 2.32 0 0 1-.19-.86 1.22 1.22 0 0 1 0-.38c0-.13.2-.09.3-.07a1.14 1.14 0 0 1 .77.8 5.14 5.14 0 0 1-.34 2.85 23.82 23.82 0 0 1-1.38 3.36 16.14 16.14 0 0 1-1.25 2.21c-.14.19 0 .3.13.1z" fill="#0a3856"/></g><path d="M58.13 77.15a7.27 7.27 0 0 0-7.91 9.84 21.7 21.7 0 0 1 1.73 8 3.07 3.07 0 0 0 .2 1.26c.06.09.2.19.73.27l2.26.34 2.26.33c.53.08.7 0 .78 0a3.13 3.13 0 0 0 .57-1.15 21.85 21.85 0 0 1 4-7.15 7.38 7.38 0 0 0 1.52-3.45 7.28 7.28 0 0 0-6.16-8.26z" fill="none"/><path d="M58.24 76.44a8 8 0 0 0-9.16 6.71 8.13 8.13 0 0 0 .46 4.1 20.85 20.85 0 0 1 1.68 7.76c0 1.63.34 2.06 1.55 2.24l2.26.34 2.26.34c1.21.18 1.64-.14 2.15-1.69a21.11 21.11 0 0 1 3.91-6.97A8.12 8.12 0 0 0 65 85.52a8 8 0 0 0-6.77-9.07zm4.53 12.42a21.84 21.84 0 0 0-4 7.15 3.11 3.11 0 0 1-.57 1.15c-.09.07-.25.13-.78 0l-2.26-.33-2.26-.34c-.53-.08-.67-.18-.73-.27a3.05 3.05 0 0 1-.2-1.26 21.7 21.7 0 0 0-1.73-8 7.27 7.27 0 0 1 7.91-9.84 7.28 7.28 0 0 1 6.16 8.26 7.38 7.38 0 0 1-1.52 3.45z" fill="#fff"/><path d="M53.14 81.55c-.34.2-2 1.36-.81 4a.37.37 0 0 1-.4.52.38.38 0 0 1-.29-.22c-1.45-3.22.67-4.69 1.11-4.95a.38.38 0 0 1 .51.13.37.37 0 0 1-.13.51z" fill="#fff"/><path d="M69 85.44l-2.6-.39a.29.29 0 0 0-.33.24.28.28 0 0 0 .24.32l2.6.39a.29.29 0 0 0 .33-.24.29.29 0 0 0-.24-.32zm-2.85-4.25a.29.29 0 0 0 .15 0l2.45-1a.28.28 0 0 0 .16-.37.29.29 0 0 0-.38-.16l-2.45 1a.28.28 0 0 0-.16.37.29.29 0 0 0 .23.16zm-2.98-4.37a.23.23 0 0 0 .14.06.29.29 0 0 0 .27-.1l1.63-2.05a.29.29 0 0 0-.45-.36l-1.63 2.05a.28.28 0 0 0 .04.4zM49 77.84l-2-1.63a.29.29 0 0 0-.41 0 .29.29 0 0 0 0 .4l2.06 1.66a.29.29 0 0 0 .14.06.29.29 0 0 0 .27-.11.28.28 0 0 0-.06-.38zm18.16 12.85l-2.06-1.63a.29.29 0 0 0-.36.45l2.05 1.63a.27.27 0 0 0 .14.06.29.29 0 0 0 .27-.1.28.28 0 0 0 0-.4zm-19.78-4.01l-2.45 1a.28.28 0 0 0-.16.37.29.29 0 0 0 .23.18.28.28 0 0 0 .15 0l2.45-1a.29.29 0 0 0 .16-.37.29.29 0 0 0-.38-.18zm5.18-11.8a.29.29 0 0 0 .37.16.29.29 0 0 0 .17-.37l-1-2.44a.29.29 0 0 0-.37-.16.29.29 0 0 0-.17.37zm5.77-.08a.29.29 0 0 0 .33-.24l.39-2.58a.29.29 0 0 0-.57-.09l-.39 2.58a.28.28 0 0 0 .24.33zm-10.22 7.82a.29.29 0 0 0-.24-.33l-2.6-.39a.29.29 0 1 0-.09.57l2.6.39a.29.29 0 0 0 .33-.24z" fill="#eaf6fc"/><g fill-rule="evenodd"><path d="M61.5 171.44l11.4 3.65 11.41 3.64-3.92 12.75q-2 6.37-3.91 12.74l-5.89 2.71-9.11-2.91-9.1-2.92q2.27-7.41 4.56-14.83t4.56-14.83z" fill="#e7e8e9"/><path d="M76.48 204.27l-5.89 2.71 3.63-5.35z" fill="#bbbdbf"/><path d="M66.37 178.01a4.2 4.2 0 0 1 2.69 5.26 4.09 4.09 0 0 1-5.14 2.74 4.2 4.2 0 0 1-2.69-5.25 4.09 4.09 0 0 1 5.14-2.75z" fill="#d0d2d3"/><path d="M65.19 177.82V182l3.81-1.57a4.92 4.92 0 0 0-2.58-2.42 2.42 2.42 0 0 0-1.23-.19z" fill="#fec90a"/><path d="M68.95 180.43L65.14 182l2.21 3.53a4.17 4.17 0 0 0 1.71-2.26 4.23 4.23 0 0 0-.11-2.84z" fill="#f08481"/><path d="M65.14 182v-4.18a3.93 3.93 0 0 0-4 2.93 4.77 4.77 0 0 0 2.69 5.25 3.37 3.37 0 0 0 3.43-.46zm6.06-1.17l1.21.39-.41 1.23-1.21-.39z" fill="#5cc1cd"/><path d="M70.49 183.16l1.22.39-.38 1.24-1.21-.39z" fill="#fec90a"/><path d="M69.8 185.41l1.21.39-.38 1.24-1.21-.39z" fill="#f08481"/><path d="M72.94 181.39l3.63 1.16 3.63 1.16-.12.41-3.63-1.16-3.62-1.16zm-.22.69l3.63 1.19L80 184.4l-.13.41-3.62-1.16-3.63-1.16zm-.21.7l4.49 1.43-.12.41-4.49-1.43zm-.29.93l3.62 1.16 3.63 1.16-.12.41-3.63-1.17-3.62-1.16zm-.22.7l3.62 1.16 3.63 1.16-.13.41-3.63-1.16-3.62-1.16zm-.21.7l4.49 1.44-.13.41-4.49-1.44zm-.26.85l3.62 1.16 3.63 1.15-.12.41-3.66-1.15-3.62-1.16zm-9.62 12.73l3.62 1.16 3.63 1.16-.12.41-3.63-1.15-3.63-1.16zm9.19-11.33l4.49 1.44-.13.4-4.46-1.43z" fill="#bbbdbf"/><path d="M75.69 191.65l-.93-.3-1.48 4.8-1.47 4.8.93.3 1.47-4.8z" fill="#5cc1cd"/><path d="M73.06 194.21l-.93-.3-2 6.5.93.3z" fill="#fec90a"/><path d="M71.87 192.09l-.93-.3-2.49 8.08.93.3z" fill="#f08481"/><path d="M69.88 192.57l-.93-.3-2.17 7.07.93.3z" fill="#5cc1cd"/><path d="M67.5 194.27l-.93-.3-1.48 4.8.93.3z" fill="#fec90a"/><path d="M66.27 192.32l-.93-.3-1.92 6.25.93.3z" fill="#f08481"/><path d="M65.15 189.94l-.93-.3q-1.25 4-2.49 8.09l.94.29z" fill="#5cc1cd"/><path d="M63.14 190.49l-.93-.3-2.15 7 .93.3z" fill="#fec90a"/><path d="M60.88 191.85l-.93-.3-1.57 5.1.94.3 1.56-5.1z" fill="#f08481"/><path d="M63 199.8l4.69 1.5-.12.41-4.69-1.5z" fill="#bbbdbf"/></g></svg>