<?xml version="1.0" encoding="utf-8"?>
<!-- Generator: Adobe Illustrator 16.0.0, SVG Export Plug-In . SVG Version: 6.00 Build 0)  -->
<!DOCTYPE svg PUBLIC "-//W3C//DTD SVG 1.1//EN" "http://www.w3.org/Graphics/SVG/1.1/DTD/svg11.dtd">
<svg version="1.1" id="Calque_1" xmlns="http://www.w3.org/2000/svg" xmlns:xlink="http://www.w3.org/1999/xlink" x="0px" y="0px"
	 width="1024px" height="768px" viewBox="0 0 1024 768" enable-background="new 0 0 1024 768" xml:space="preserve">
<g id="Marketing" display="none">
	<g display="inline">
		<g>
			<g>
				<polygon fill="#D9D8D7" points="598.995,742.332 409.972,742.332 427.14,645.964 581.784,645.964 				"/>
				<polygon fill="#CCCBCA" points="598.995,742.332 581.784,645.964 427.14,645.964 550.802,742.332 				"/>
				<path fill="#E6E5E5" d="M649.596,756.462H359.363v-5.272c0-2.266,0.854-4.529,2.598-6.268c1.729-1.742,3.998-2.59,6.263-2.59
					h272.498c2.283,0,4.543,0.848,6.276,2.59c1.729,1.737,2.598,4.002,2.598,6.268V756.462z"/>
			</g>
			<path fill="#E6E5E5" d="M844.811,583.662v45.765c0,9.111-7.478,16.537-16.589,16.537H180.77c-9.066,0-16.561-7.426-16.561-16.537
				v-45.765H844.811z"/>
			<path fill="#242D3C" d="M844.811,583.662V149.133c0-9.085-7.469-16.576-16.598-16.576H180.748
				c-9.068,0-16.522,7.49-16.522,16.576v434.529H844.811z"/>
		</g>
		<rect x="198.554" y="166.928" fill="#FFFFFF" width="611.809" height="382.333"/>
		<g>
			<g>
				<polygon fill="#242D3C" points="730.3,480.978 701.967,410.772 772.163,439.101 744.841,453.629 				"/>
				<polygon fill="#242D3C" points="746.035,446.924 738.132,454.841 761.52,478.207 769.414,470.29 				"/>
			</g>
			<g>
				<rect x="673.895" y="183.07" fill="#242D3C" width="63.179" height="12.229"/>
				<rect x="673.895" y="207.514" fill="#242D3C" width="126.363" height="12.197"/>
				<rect x="673.895" y="231.926" fill="#242D3C" width="126.363" height="12.206"/>
				<rect x="673.895" y="256.343" fill="#242D3C" width="126.363" height="12.201"/>
			</g>
			<g>
				<path fill="#FFC107" d="M643.299,323.472c0,77.547-62.836,140.454-140.388,140.454c-77.543,0-140.417-62.907-140.417-140.454
					c0-77.542,62.874-140.401,140.417-140.401C580.463,183.07,643.299,245.928,643.299,323.472z"/>
				<g>
					<g>
						<defs>
							<path id="SVGID_1_" d="M643.299,323.472c0,77.547-62.836,140.454-140.388,140.454c-77.543,0-140.417-62.907-140.417-140.454
								c0-77.542,62.874-140.401,140.417-140.401C580.463,183.07,643.299,245.928,643.299,323.472z"/>
						</defs>
						<clipPath id="SVGID_2_">
							<use xlink:href="#SVGID_1_"  overflow="visible"/>
						</clipPath>
						<g clip-path="url(#SVGID_2_)">
							<polygon fill="#242D3C" points="545.854,274.75 459.928,274.75 454.092,399.686 551.754,399.686 							"/>
							<path fill="#F2F2F2" d="M405.827,426.545l-0.177,0.646l-5.872,18.637h-0.024l-7.693,24.316h221.68l-7.701-24.316
								l-8.452-26.711c-1.36-4.312-3.605-8.335-6.876-11.865c-3.256-3.543-7.136-6.085-11.285-7.782l-44.396-17.6
								c-2.228-0.903-4.217-2.492-5.703-4.604c-1.464-2.187-2.129-4.58-2.129-6.996v-21.613h-48.565v21.613
								c0,2.416-0.701,4.811-2.165,6.996c-1.438,2.111-3.445,3.7-5.659,4.604l-44.423,17.6c-4.153,1.697-8.021,4.239-11.263,7.782
								c-3.31,3.53-5.55,7.554-6.925,11.865L405.827,426.545L405.827,426.545z"/>
							<path fill="#F2F2F2" d="M502.93,238.725c-26.586,0-45.48,19.355-45.48,60.37c0,34.696,20.333,63.95,45.48,63.95
								c25.096,0,45.475-29.254,45.475-63.95C548.403,258.081,529.452,238.725,502.93,238.725z"/>
							<path fill="#242D3C" d="M543.706,240.935H502.93h-40.851c0,0-5.775,40.741,1.621,49.066c0.31-3.377,3.305-4.32,8.708-4.329
								c0,0,4.554-5.057,7.844-19.063c2.47,9.512,1.333,19.437,1.333,19.437c5.816,0.399,12.934,1.015,21.345,1.06
								c2.133-0.013,4.182-0.054,6.089-0.103c0,0,2.497-1.491,3.562-5.173c1.562,1.971,1.778,4.908,1.778,4.908
								c17.42-0.952,27.165-2.982,27.713,3.265C549.544,281.675,543.706,240.935,543.706,240.935z"/>
							<path fill="#242D3C" d="M470.809,381.87c2.215-0.903,4.22-2.492,5.659-4.604c1.464-2.187,2.165-4.58,2.165-6.996v-9.22
								h-13.672c-1.763-12.897-2.762-25.598-2.762-37.634c0-35.625,2.461-48.95,12.303-60.976
								c12.716-15.48,28.43-18.691,28.43-18.691s15.664,3.211,28.383,18.691c9.86,12.026,12.265,25.351,12.265,60.976
								c0,12.036-0.961,24.735-2.762,37.634H527.2v9.22c0,2.416,0.665,4.811,2.129,6.996c1.486,2.111,3.477,3.7,5.703,4.604
								l25.414,10.104c3.13-3.911,4.732-8.617,4.732-13.347V361.05c0-29.491-0.897-67.96-7.118-96.068
								c-5.451-24.08-26.047-47.365-55.129-41.051c-29.113-6.314-49.687,16.971-55.168,41.051
								c-6.275,28.108-7.157,66.577-7.157,96.068v17.577c0,4.729,1.613,9.436,4.812,13.347L470.809,381.87z"/>
							<path fill="#242D3C" d="M430.546,470.146h144.676c-6.759-14.779-10.943-34.684-10.943-56.75
								c0-6.688,0.408-13.163,1.172-19.45h-0.026l-11.874-4.721l-5.128,20.546c-2.416,9.796-8.003,19.011-16.607,25.691
								c-8.622,6.724-18.146,9.584-28.885,9.584c-10.805,0-20.356-2.859-28.957-9.584c-8.544-6.682-14.175-15.896-16.563-25.69
								l-5.126-20.547l-11.848,4.721h-0.107c0.714,6.287,1.143,12.764,1.143,19.45C441.47,435.463,437.301,455.366,430.546,470.146z
								"/>
						</g>
					</g>
				</g>
			</g>
			<g>
				<rect x="388.815" y="497.625" fill="#242D3C" width="95.07" height="28.086"/>
				<rect x="521.921" y="497.625" fill="#1776D2" width="95.058" height="28.086"/>
			</g>
			<g>
				<g>
					<rect x="205.484" y="329.512" fill="#242D3C" width="126.365" height="12.201"/>
					<rect x="205.484" y="305.113" fill="#242D3C" width="126.365" height="12.207"/>
					<rect x="205.484" y="280.732" fill="#242D3C" width="126.365" height="12.201"/>
					<rect x="205.484" y="353.946" fill="#242D3C" width="126.365" height="12.201"/>
					<rect x="205.484" y="378.35" fill="#242D3C" width="126.365" height="12.21"/>
					<rect x="205.484" y="402.738" fill="#242D3C" width="63.184" height="12.207"/>
				</g>
				<rect x="205.484" y="183.07" fill="#1776D2" width="126.365" height="61.062"/>
			</g>
		</g>
		<g>
			<g>
				<rect x="895.818" y="446.456" fill="#CCCBCA" width="76.427" height="76.424"/>
				<g>
					<rect x="844.871" y="479.576" fill="#242D3C" width="10.188" height="10.19"/>
					<rect x="865.249" y="479.576" fill="#242D3C" width="10.192" height="10.19"/>
					<rect x="885.628" y="479.576" fill="#242D3C" width="10.19" height="10.19"/>
				</g>
			</g>
			<g>
				<rect x="37.306" y="446.455" fill="#CCCBCA" width="76.424" height="76.424"/>
				<g>
					<rect x="113.73" y="479.576" fill="#242D3C" width="10.191" height="10.189"/>
					<rect x="134.109" y="479.576" fill="#242D3C" width="10.189" height="10.189"/>
					<rect x="154.489" y="479.576" fill="#242D3C" width="10.188" height="10.189"/>
				</g>
			</g>
			<g>
				<rect x="464.364" y="2" fill="#CCCBCA" width="76.428" height="76.424"/>
				<g>
					<rect x="497.484" y="78.424" fill="#242D3C" width="10.189" height="10.19"/>
					<rect x="497.484" y="98.805" fill="#242D3C" width="10.189" height="10.188"/>
					<rect x="497.484" y="119.182" fill="#242D3C" width="10.189" height="10.19"/>
				</g>
			</g>
			<g>
				<g>
					<g>
						<rect x="802.554" y="77.325" fill="#242D3C" width="10.186" height="10.19"/>
						<rect x="802.554" y="97.706" fill="#242D3C" width="10.186" height="10.188"/>
						<rect x="802.554" y="118.083" fill="#242D3C" width="10.186" height="10.19"/>
					</g>
					<g>
						<rect x="843.31" y="77.325" fill="#242D3C" width="10.188" height="10.19"/>
						<rect x="822.932" y="77.325" fill="#242D3C" width="10.192" height="10.19"/>
						<rect x="802.554" y="77.325" fill="#242D3C" width="10.186" height="10.19"/>
					</g>
				</g>
				<path fill="#1776D2" d="M929.584,82.42c0,21.104-17.104,38.213-38.206,38.213c-21.109,0-38.216-17.108-38.216-38.213
					c0-21.106,17.105-38.213,38.216-38.213C912.48,44.207,929.584,61.314,929.584,82.42z"/>
			</g>
			<g>
				<g>
					<g>
						<rect x="191.316" y="81.721" fill="#242D3C" width="10.188" height="10.19"/>
						<rect x="191.316" y="102.102" fill="#242D3C" width="10.188" height="10.188"/>
						<rect x="191.316" y="122.479" fill="#242D3C" width="10.188" height="10.19"/>
					</g>
					<g>
						<rect x="150.558" y="81.721" fill="#242D3C" width="10.189" height="10.19"/>
						<rect x="170.934" y="81.721" fill="#242D3C" width="10.192" height="10.19"/>
						<rect x="191.316" y="81.721" fill="#242D3C" width="10.188" height="10.19"/>
					</g>
				</g>
				<circle fill="#1776D2" cx="112.684" cy="86.816" r="38.213"/>
			</g>
		</g>
	</g>
</g>
<g id="SAV">
	<g>
		<g>
			<polygon fill="#D9D8D7" points="598.995,742.332 409.972,742.332 427.14,645.964 581.784,645.964 			"/>
			<polygon fill="#CCCBCA" points="598.995,742.332 581.784,645.964 427.14,645.964 550.802,742.332 			"/>
			<path fill="#E6E5E5" d="M649.596,756.462H359.363v-5.272c0-2.266,0.854-4.529,2.598-6.268c1.729-1.742,3.998-2.59,6.263-2.59
				h272.498c2.283,0,4.543,0.848,6.276,2.59c1.729,1.737,2.598,4.002,2.598,6.268V756.462z"/>
		</g>
		<path fill="#E6E5E5" d="M844.811,583.662v45.765c0,9.111-7.478,16.537-16.589,16.537H180.77c-9.066,0-16.561-7.426-16.561-16.537
			v-45.765H844.811z"/>
		<path fill="#242D3C" d="M844.811,583.662V149.133c0-9.085-7.469-16.576-16.598-16.576H180.748c-9.068,0-16.522,7.49-16.522,16.576
			v434.529H844.811z"/>
	</g>
	<rect x="198.554" y="166.928" fill="#FFFFFF" width="611.809" height="382.333"/>
	<g>
		<g>
			<path fill="#1776D2" d="M291.473,17.034c-2.844-2.865-6.596-4.283-10.337-4.283c-4.854,0-8.768-3.933-8.78-8.778
				c0,0,0-0.004,0-0.021c-0.011-0.242-0.098-0.48-0.279-0.67C271.875,3.091,271.638,3,271.385,3c-0.264,0-0.495,0.091-0.693,0.281
				c-0.186,0.19-0.279,0.428-0.288,0.67c0,0.017,0,0.017,0,0.017c-0.004,4.85-3.92,8.783-8.781,8.783
				c-3.734,0-7.484,1.418-10.336,4.283c-2.864,2.861-4.284,6.592-4.284,10.339v73.224h48.764V27.373
				C295.767,23.626,294.338,19.896,291.473,17.034z"/>
			<path fill="#CEE1EF" d="M253.832,62.021c-1.353,0-2.439-1.098-2.439-2.451V27.373c0-2.731,1.052-5.303,2.993-7.231
				c1.934-1.937,4.508-3.004,7.237-3.004c1.353,0,2.442,1.089,2.442,2.433c0,1.362-1.089,2.451-2.442,2.451
				c-1.428,0-2.772,0.549-3.791,1.56c-1.014,1.007-1.571,2.36-1.571,3.791V59.57C256.261,60.922,255.174,62.021,253.832,62.021z"/>
			<rect x="247.003" y="100.597" fill="#3E4959" width="48.764" height="30.917"/>
			<rect x="245.54" y="100.597" fill="#242D3C" width="51.688" height="14.622"/>
			<rect x="262.118" y="85.961" fill="#242D3C" width="18.529" height="14.635"/>
			<path fill="#1362A3" d="M280.647,66.728c0,1.072-0.884,1.949-1.954,1.949h-14.628c-1.068,0-1.947-0.877-1.947-1.949v-20.09
				c0-1.072,0.879-1.95,1.947-1.95h14.628c1.07,0,1.954,0.877,1.954,1.95V66.728z"/>
			<g>
				<rect x="264.543" y="68.677" fill="#1362A3" width="0.985" height="17.285"/>
				<rect x="277.229" y="68.677" fill="#1362A3" width="0.975" height="17.285"/>
				<rect x="270.898" y="68.677" fill="#1362A3" width="0.969" height="17.285"/>
			</g>
		</g>
		<g>
			<path fill="#FFC107" d="M406.929,17.034c-2.844-2.865-6.596-4.283-10.337-4.283c-4.852,0-8.763-3.933-8.78-8.778
				c0,0,0-0.004,0-0.021c-0.009-0.242-0.102-0.48-0.279-0.67C387.334,3.091,387.094,3,386.839,3c-0.257,0-0.497,0.091-0.688,0.281
				c-0.19,0.19-0.278,0.428-0.292,0.67c0,0.017,0,0.017,0,0.017c-0.004,4.85-3.927,8.783-8.776,8.783
				c-3.741,0-7.488,1.418-10.341,4.283c-2.861,2.861-4.281,6.592-4.281,10.339v73.224h48.759V27.373
				C411.221,23.626,409.792,19.896,406.929,17.034z"/>
			<path fill="#F7ECD5" d="M369.282,62.021c-1.345,0-2.434-1.098-2.434-2.451V27.373c0-2.731,1.052-5.303,2.986-7.231
				c1.941-1.937,4.515-3.004,7.249-3.004c1.346,0,2.442,1.089,2.442,2.433c0,1.362-1.096,2.451-2.442,2.451
				c-1.433,0-2.777,0.549-3.791,1.56c-1.018,1.007-1.578,2.36-1.578,3.791V59.57C371.715,60.922,370.63,62.021,369.282,62.021z"/>
			<rect x="362.461" y="100.597" fill="#3E4959" width="48.759" height="30.917"/>
			<rect x="360.996" y="100.597" fill="#242D3C" width="51.688" height="14.622"/>
			<rect x="377.572" y="85.961" fill="#242D3C" width="18.534" height="14.635"/>
			<path fill="#C4900C" d="M396.105,66.728c0,1.072-0.881,1.949-1.957,1.949h-14.625c-1.074,0-1.953-0.877-1.953-1.949v-20.09
				c0-1.072,0.879-1.95,1.953-1.95h14.625c1.074,0,1.957,0.877,1.957,1.95V66.728z"/>
			<g>
				<rect x="380.003" y="68.677" fill="#C4900C" width="0.979" height="17.285"/>
				<rect x="392.687" y="68.677" fill="#C4900C" width="0.978" height="17.285"/>
				<rect x="386.351" y="68.677" fill="#C4900C" width="0.97" height="17.285"/>
			</g>
		</g>
		<g>
			<path fill="#1776D2" d="M522.385,17.034c-2.844-2.865-6.596-4.283-10.33-4.283c-4.854,0-8.77-3.933-8.783-8.778
				c0,0,0-0.004,0-0.021c-0.017-0.242-0.102-0.48-0.282-0.67C502.79,3.091,502.548,3,502.295,3c-0.257,0-0.495,0.091-0.693,0.281
				c-0.187,0.19-0.274,0.428-0.282,0.67c0,0.017,0,0.017,0,0.017c-0.005,4.85-3.925,8.783-8.785,8.783
				c-3.734,0-7.479,1.418-10.335,4.283c-2.861,2.861-4.285,6.592-4.285,10.339v73.224h48.764V27.373
				C526.677,23.626,525.246,19.896,522.385,17.034z"/>
			<path fill="#CEE1EF" d="M484.742,62.021c-1.35,0-2.438-1.098-2.438-2.451V27.373c0-2.731,1.053-5.303,2.991-7.231
				c1.939-1.937,4.508-3.004,7.238-3.004c1.353,0,2.441,1.089,2.441,2.433c0,1.362-1.089,2.451-2.441,2.451
				c-1.432,0-2.768,0.549-3.786,1.56c-1.014,1.007-1.576,2.36-1.576,3.791V59.57C487.171,60.922,486.086,62.021,484.742,62.021z"/>
			<rect x="477.913" y="100.597" fill="#3E4959" width="48.764" height="30.917"/>
			<rect x="476.452" y="100.597" fill="#242D3C" width="51.689" height="14.622"/>
			<rect x="493.023" y="85.961" fill="#242D3C" width="18.537" height="14.635"/>
			<path fill="#1362A3" d="M511.562,66.728c0,1.072-0.883,1.949-1.953,1.949h-14.634c-1.071,0-1.951-0.877-1.951-1.949v-20.09
				c0-1.072,0.88-1.95,1.951-1.95h14.634c1.07,0,1.953,0.877,1.953,1.95V66.728z"/>
			<g>
				<rect x="495.457" y="68.677" fill="#1362A3" width="0.985" height="17.285"/>
				<rect x="508.143" y="68.677" fill="#1362A3" width="0.979" height="17.285"/>
				<rect x="501.809" y="68.677" fill="#1362A3" width="0.965" height="17.285"/>
			</g>
		</g>
		<g>
			<path fill="#1776D2" d="M637.841,17.034c-2.844-2.865-6.596-4.283-10.339-4.283c-4.85,0-8.766-3.933-8.783-8.778
				c0,0,0-0.004,0-0.021c-0.008-0.242-0.1-0.48-0.275-0.67C618.239,3.091,618.002,3,617.751,3c-0.259,0-0.501,0.091-0.691,0.281
				c-0.189,0.19-0.275,0.428-0.29,0.67c0,0.017,0,0.017,0,0.017c0,4.85-3.92,8.783-8.777,8.783c-3.734,0-7.481,1.418-10.339,4.283
				c-2.854,2.861-4.283,6.592-4.283,10.339v73.224h48.764V27.373C642.133,23.626,640.702,19.896,637.841,17.034z"/>
			<path fill="#CEE1EF" d="M600.198,62.021c-1.354,0-2.442-1.098-2.442-2.451V27.373c0-2.731,1.061-5.303,2.991-7.231
				c1.945-1.937,4.513-3.004,7.244-3.004c1.349,0,2.438,1.089,2.438,2.433c0,1.362-1.089,2.451-2.438,2.451
				c-1.432,0-2.774,0.549-3.786,1.56c-1.021,1.007-1.578,2.36-1.578,3.791V59.57C602.627,60.922,601.543,62.021,600.198,62.021z"/>
			<rect x="593.369" y="100.597" fill="#3E4959" width="48.764" height="30.917"/>
			<rect x="591.904" y="100.597" fill="#242D3C" width="51.692" height="14.622"/>
			<rect x="608.484" y="85.961" fill="#242D3C" width="18.528" height="14.635"/>
			<path fill="#1362A3" d="M627.014,66.728c0,1.072-0.877,1.949-1.954,1.949h-14.631c-1.07,0-1.943-0.877-1.943-1.949v-20.09
				c0-1.072,0.873-1.95,1.943-1.95h14.631c1.077,0,1.954,0.877,1.954,1.95V66.728z"/>
			<g>
				<rect x="610.913" y="68.677" fill="#1362A3" width="0.981" height="17.285"/>
				<rect x="623.599" y="68.677" fill="#1362A3" width="0.974" height="17.285"/>
				<rect x="617.267" y="68.677" fill="#1362A3" width="0.97" height="17.285"/>
			</g>
		</g>
		<g>
			<path fill="#1776D2" d="M753.297,17.034c-2.844-2.865-6.6-4.283-10.334-4.283c-4.863,0-8.771-3.933-8.779-8.778
				c0,0,0-0.004,0-0.021c-0.018-0.242-0.106-0.48-0.28-0.67C733.699,3.091,733.458,3,733.207,3c-0.26,0-0.492,0.091-0.691,0.281
				c-0.189,0.19-0.276,0.428-0.29,0.67c0,0.017,0,0.017,0,0.017c-0.004,4.85-3.92,8.783-8.786,8.783
				c-3.727,0-7.474,1.418-10.325,4.283c-2.866,2.861-4.283,6.592-4.283,10.339v73.224h48.754V27.373
				C757.584,23.626,756.158,19.896,753.297,17.034z"/>
			<path fill="#CEE1EF" d="M715.65,62.021c-1.35,0-2.438-1.098-2.438-2.451V27.373c0-2.731,1.055-5.303,2.991-7.231
				c1.937-1.937,4.513-3.004,7.235-3.004c1.353,0,2.445,1.089,2.445,2.433c0,1.362-1.094,2.451-2.445,2.451
				c-1.423,0-2.767,0.549-3.777,1.56c-1.021,1.007-1.582,2.36-1.582,3.791V59.57C718.079,60.922,716.998,62.021,715.65,62.021z"/>
			<rect x="708.83" y="100.597" fill="#3E4959" width="48.754" height="30.917"/>
			<rect x="707.359" y="100.597" fill="#242D3C" width="51.689" height="14.622"/>
			<rect x="723.94" y="85.961" fill="#242D3C" width="18.532" height="14.635"/>
			<path fill="#1362A3" d="M742.474,66.728c0,1.072-0.89,1.949-1.958,1.949h-14.631c-1.066,0-1.943-0.877-1.943-1.949v-20.09
				c0-1.072,0.877-1.95,1.943-1.95h14.631c1.068,0,1.958,0.877,1.958,1.95V66.728z"/>
			<g>
				<rect x="726.365" y="68.677" fill="#1362A3" width="0.988" height="17.285"/>
				<rect x="739.051" y="68.677" fill="#1362A3" width="0.978" height="17.285"/>
				<rect x="732.719" y="68.677" fill="#1362A3" width="0.969" height="17.285"/>
			</g>
		</g>
	</g>
	<g>
		<g>
			<path fill="#1776D2" d="M368.846,470.394c-62.873,0-113.834-50.959-113.834-113.83c0-47.438,29.013-88.074,70.242-105.186
				l-13.223-31.968c-53.789,22.249-91.645,75.316-91.645,137.181c0,81.954,66.477,148.432,148.441,148.432
				c40.978,0,78.108-16.56,104.98-43.439l-24.491-24.498C428.709,457.654,400.266,470.394,368.846,470.394z"/>
			<path fill="#E6E5E5" d="M482.688,356.572c0,31.442-12.75,59.892-33.352,80.484l24.482,24.499
				c26.889-26.872,43.481-63.985,43.481-104.983H482.688z"/>
			<path fill="#FFC107" d="M368.846,242.722c62.87,0,113.839,50.963,113.839,113.84c0,0,0,0,0,0.009H517.3
				c0-81.982-66.476-148.465-148.455-148.465v34.616H368.846z"/>
			<path fill="#242D3C" d="M368.828,242.722v-34.624c-20.12,0-39.291,4.034-56.796,11.312l13.223,31.968
				C338.689,245.811,353.375,242.722,368.828,242.722z"/>
		</g>
		<g>
			<path fill="#242D3C" d="M443.074,364.799v-16.486h-13.025c-0.705-5.32-2.078-10.431-4.061-15.231l11.262-6.501l-8.246-14.268
				l-11.268,6.501c-3.229-4.18-6.958-7.931-11.152-11.144l6.504-11.283l-14.257-8.246l-6.504,11.261
				c-4.8-1.971-9.913-3.363-15.238-4.061v-13.014h-16.498v13.014c-5.315,0.707-10.437,2.089-15.229,4.061l-6.513-11.261
				l-14.249,8.246l6.496,11.283c-4.157,3.212-7.922,6.963-11.125,11.144l-11.295-6.501l-8.227,14.268l11.252,6.501
				c-1.973,4.801-3.355,9.912-4.07,15.231h-13.016v16.486h13.016c0.715,5.325,2.097,10.439,4.08,15.25l-11.261,6.484l8.227,14.271
				l11.295-6.501c3.203,4.156,6.968,7.921,11.134,11.143l-6.486,11.289l14.23,8.23l6.522-11.274
				c4.801,1.989,9.904,3.372,15.22,4.075v13.019h16.498v-13.019c5.318-0.703,10.438-2.086,15.238-4.058l6.504,11.257l14.257-8.23
				l-6.504-11.298c4.193-3.213,7.924-6.978,11.152-11.144l11.268,6.511l8.246-14.271l-11.262-6.494
				c1.982-4.8,3.355-9.915,4.061-15.239L443.074,364.799L443.074,364.799z M368.846,396.972c-22.315,0-40.435-18.097-40.435-40.418
				c0-22.32,18.119-40.404,40.435-40.404c22.322,0,40.414,18.083,40.414,40.404C409.26,378.876,391.168,396.972,368.846,396.972z"/>
		</g>
		<g>
			<rect x="558.833" y="202.969" fill="#1776D2" width="16.932" height="10.276"/>
			<rect x="558.833" y="269.273" fill="#FFC107" width="13.223" height="10.276"/>
			<rect x="590.308" y="202.969" fill="#1776D2" width="69.625" height="10.276"/>
			<rect x="587.606" y="269.273" fill="#FFC107" width="53.638" height="10.276"/>
			<rect x="575.765" y="228.152" fill="#242D3C" width="26.882" height="10.276"/>
			<rect x="575.765" y="344.877" fill="#242D3C" width="26.882" height="10.275"/>
			<rect x="615.468" y="344.877" fill="#FFC107" width="52.748" height="10.275"/>
			<rect x="597.436" y="399.094" fill="#1776D2" width="15.716" height="10.275"/>
			<rect x="624.994" y="499.884" fill="#FFC107" width="31.521" height="10.275"/>
			<rect x="745.183" y="449.495" fill="#1776D2" width="28.844" height="10.274"/>
			<rect x="698.559" y="344.877" fill="#FFC107" width="39.441" height="10.275"/>
			<rect x="754.719" y="344.877" fill="#242D3C" width="24.544" height="10.275"/>
			<rect x="575.765" y="294.497" fill="#242D3C" width="40.178" height="10.276"/>
			<rect x="575.765" y="319.698" fill="#242D3C" width="56.979" height="10.274"/>
			<rect x="590.996" y="424.28" fill="#242D3C" width="65.271" height="10.274"/>
			<rect x="590.996" y="449.495" fill="#242D3C" width="59.979" height="10.274"/>
			<rect x="670.396" y="449.495" fill="#242D3C" width="62.205" height="10.274"/>
			<rect x="670.396" y="499.884" fill="#FFC107" width="62.205" height="10.275"/>
			<rect x="558.833" y="399.094" fill="#1776D2" width="23.061" height="10.275"/>
			<rect x="590.996" y="499.884" fill="#242D3C" width="20.082" height="10.275"/>
			<rect x="604.567" y="474.659" fill="#FFC107" width="33.25" height="10.275"/>
			<rect x="658.661" y="474.659" fill="#242D3C" width="98.139" height="10.275"/>
			<rect x="649.995" y="319.698" fill="#242D3C" width="45.789" height="10.274"/>
			<rect x="755.851" y="319.698" fill="#242D3C" width="33.272" height="10.274"/>
			<rect x="713.598" y="319.698" fill="#242D3C" width="21.692" height="10.274"/>
			<rect x="629.064" y="294.497" fill="#1776D2" width="61.7" height="10.276"/>
			<rect x="619.483" y="228.152" fill="#242D3C" width="24.747" height="10.276"/>
		</g>
	</g>
</g>
<g id="Vente" display="none">
	<g display="inline">
		<g>
			<polygon fill="#D9D8D7" points="598.995,742.332 409.972,742.332 427.14,645.964 581.784,645.964 			"/>
			<polygon fill="#CCCBCA" points="598.995,742.332 581.784,645.964 427.14,645.964 550.802,742.332 			"/>
			<path fill="#E6E5E5" d="M649.596,756.462H359.363v-5.272c0-2.266,0.854-4.529,2.598-6.268c1.729-1.742,3.998-2.59,6.263-2.59
				h272.498c2.283,0,4.543,0.848,6.276,2.59c1.729,1.737,2.598,4.002,2.598,6.268V756.462z"/>
		</g>
		<path fill="#E6E5E5" d="M844.811,583.662v45.765c0,9.111-7.478,16.537-16.589,16.537H180.77c-9.066,0-16.561-7.426-16.561-16.537
			v-45.765H844.811z"/>
		<path fill="#242D3C" d="M844.811,583.662V149.133c0-9.085-7.469-16.576-16.598-16.576H180.748c-9.068,0-16.522,7.49-16.522,16.576
			v434.529H844.811z"/>
	</g>
	<rect x="198.554" y="166.928" display="inline" fill="#FFFFFF" width="611.809" height="382.333"/>
	<g display="inline">
		<g>
			<rect x="569.032" y="30.109" fill="#FFC107" width="415.056" height="287.341"/>
			<g>
				<polygon fill="#FFFFFF" points="919.646,97.7 902.799,104.563 885.898,136.634 869.039,139.368 852.135,155.843 
					835.305,148.589 815.637,133.437 801.503,154.006 784.592,164.562 767.746,151.493 750.871,162.889 734.009,168.092 
					717.098,199.472 700.249,209.03 683.346,193.754 666.496,186.897 649.569,215.907 632.654,209.636 615.838,223.78 
					598.413,226.072 598.413,266.985 954.703,267.206 954.703,67.369 936.559,70.455 				"/>
				<polygon fill="#242D3C" points="599.92,290.04 596.906,284.576 614.178,275.03 631.463,239.02 648.521,238.118 665.295,210.756 
					682.281,207.793 699.927,182.968 719.716,191.947 737.111,211.792 749.638,192.487 769.247,186.914 785.062,199.917 
					800.5,183.065 816.805,177.742 833.547,138.519 853.675,126.414 871.914,150.738 885.751,159.301 902.396,135.39 
					919.82,142.208 935.907,127.895 954.268,125.307 955.14,131.486 938.648,133.808 921.109,149.41 904.71,142.995 
					887.496,167.714 867.629,155.426 852.06,134.664 838.496,142.823 821.436,182.795 803.997,188.489 785.67,208.494 
					767.809,193.81 753.597,197.847 737.854,222.106 715.914,197.072 702.03,190.775 685.881,213.498 669.144,216.421 
					652.128,244.175 635.487,245.056 618.938,279.53 				"/>
			</g>
		</g>
		<g>
			<rect x="54.612" y="325.338" fill="#1776D2" width="278.076" height="191.376"/>
			<g>
				<rect x="64.524" y="483.135" fill="#FFFFFF" width="19.932" height="29.722"/>
				<rect x="90.817" y="455.579" fill="#FFFFFF" width="19.927" height="57.276"/>
				<rect x="117.113" y="468.286" fill="#FFFFFF" width="19.935" height="44.569"/>
				<rect x="143.408" y="418.95" fill="#FFFFFF" width="19.932" height="93.905"/>
				<rect x="169.7" y="433.451" fill="#FFFFFF" width="19.93" height="79.404"/>
				<rect x="196" y="383.265" fill="#FFFFFF" width="19.927" height="129.591"/>
				<rect x="222.293" y="445.479" fill="#FFFFFF" width="19.924" height="67.377"/>
				<rect x="248.583" y="458.8" fill="#FFFFFF" width="19.928" height="54.056"/>
				<rect x="274.877" y="404.752" fill="#FFFFFF" width="19.929" height="108.104"/>
				<rect x="301.175" y="355.593" fill="#FFFFFF" width="19.924" height="157.263"/>
			</g>
		</g>
		<g>
			<path fill="#E6E5E5" d="M710.146,396.387v104.43h104.467C814.612,443.097,767.883,396.387,710.146,396.387z"/>
			<path fill="#242D3C" d="M710.146,500.815V396.387c-57.637,0-104.43,46.71-104.43,104.43c0,57.688,46.793,104.361,104.43,104.361
				c28.931,0,54.937-11.694,73.818-30.619L710.146,500.815z"/>
			<path fill="#FFC107" d="M710.146,500.815l73.818,73.742c18.725-18.795,30.647-44.902,30.647-73.742H710.146z"/>
		</g>
		<g>
			<path fill="#1776D2" d="M416.342,186.76c0,44.794-36.321,81.132-81.132,81.132c-44.807,0-81.127-36.338-81.127-81.132
				c0-44.817,36.321-81.138,81.127-81.138C380.021,105.623,416.342,141.943,416.342,186.76z"/>
			<g>
				<path fill="#FFFFFF" d="M340.934,228.039h-11.465c-6.419,0-12.476-2.49-17.036-7.026c-4.543-4.553-7.057-10.593-7.057-17.066
					h13.786c0,2.787,1.065,5.385,3.017,7.322c1.94,1.943,4.53,3.015,7.291,3.015h11.465c2.747,0,5.365-1.077,7.371-3.043
					c1.903-1.909,2.969-4.501,2.969-7.294c0-2.729-1.071-5.339-3.032-7.288c-1.943-1.926-4.561-3.014-7.308-3.014H329.47
					c-6.419,0-12.476-2.513-17.036-7.054c-4.543-4.542-7.057-10.604-7.057-17.038c0-6.45,2.514-12.507,7.057-17.038
					c4.56-4.553,10.617-7.054,17.036-7.054h11.465c6.385,0,12.448,2.49,17.024,6.986c4.587,4.599,7.094,10.65,7.094,17.106h-13.778
					c0-2.769-1.065-5.385-3.018-7.305c-1.957-1.937-4.575-3.008-7.322-3.008H329.47c-2.761,0-5.342,1.065-7.291,3.014
					c-1.952,1.92-3.017,4.536-3.017,7.299c0,2.758,1.065,5.362,3.017,7.294c1.94,1.943,4.53,3.015,7.291,3.015h11.465
					c6.394,0,12.448,2.519,17.032,7.037c4.579,4.604,7.086,10.656,7.086,17.049c0,6.474-2.507,12.514-7.055,17.061
					C353.382,225.56,347.319,228.039,340.934,228.039z"/>
				<rect x="328.321" y="136.274" fill="#FFFFFF" width="13.761" height="16.063"/>
				<rect x="328.321" y="221.171" fill="#FFFFFF" width="13.761" height="16.059"/>
			</g>
		</g>
		<path fill="#1776D2" d="M540.368,495.096c0,14.765-11.998,26.771-26.787,26.771c-14.781,0-26.771-12.008-26.771-26.771
			c0-14.799,11.989-26.793,26.771-26.793C528.37,468.303,540.368,480.297,540.368,495.096z"/>
		<path fill="#242D3C" d="M472.819,378.103c0,8.94-7.271,16.218-16.229,16.218s-16.224-7.277-16.224-16.218
			c0-8.965,7.266-16.239,16.224-16.239C465.547,361.863,472.819,369.138,472.819,378.103z"/>
		<path fill="#242D3C" d="M173.64,62.268c0,10.286-8.349,18.639-18.642,18.639c-10.294,0-18.644-8.354-18.644-18.639
			c0-10.291,8.35-18.633,18.644-18.633C165.291,43.634,173.64,51.977,173.64,62.268z"/>
	</g>
</g>
</svg>
